<?xml version="1.0" encoding="UTF-8"?><svg id="Capa_1" xmlns="http://www.w3.org/2000/svg" viewBox="0 0 400 400"><defs><style>.cls-1{fill:#020202;}.cls-2{fill:none;stroke:#020202;stroke-linecap:square;stroke-miterlimit:10;stroke-width:3px;}</style></defs><line class="cls-2" x1="-374.07" y1="202" x2="2000" y2="202"/><g><path class="cls-1" d="M253.47,366.06c1.37,0,2.5-1.13,2.5-2.5v-37.13c0-1.08-.69-2.03-1.72-2.38l-.34-.12h0l-28.62-9.41v-33.79c0-.71-.32-1.37-.81-1.84l-.02-.02-22.03-19.97v-7.5h3.43c1.37,0,2.5-1.13,2.5-2.5s-1.13-2.5-2.5-2.5h-3.43v-3.31c0-1.37-1.13-2.5-2.5-2.5s-2.5,1.13-2.5,2.5v3.31h-3.43c-1.37,0-2.5,1.13-2.5,2.5s1.13,2.5,2.5,2.5h3.43v7.5l-21.98,19.97-.02,.02c-.49,.47-.81,1.1-.81,1.84v33.79l-28.52,9.41h0l-.34,.12c-1.03,.34-1.72,1.3-1.72,2.38v37.13c0,1.37,1.13,2.5,2.5,2.5h106.94Zm-28.18-46.27l12.25,4.04h-12.25v-4.04Zm-25.34-56.41l16.37,14.83h-32.71l16.35-14.83Zm-25.31,56.41v4.04h-12.2l12.2-4.04Zm-25.61,9.02h25.61v32.25h-25.61v-32.25Zm61.14,32.25h-20.41v-12.47c0-5.54,3.9-10.05,8.67-10.05h3.09c4.78,0,8.67,4.51,8.67,10.05v12.47h-.02Zm10.12,0h-5.12v-12.47c0-8.31-6.13-15.05-13.67-15.05h-3.09c-7.55,0-13.67,6.74-13.67,15.05v12.47h-5.12v-77.83h40.65l.02,77.83h0Zm30.68,0h-25.68v-32.25h25.68v32.25h0Z"/><path class="cls-1" d="M195.93,319.85h7.99c1.37,0,2.5-1.13,2.5-2.5v-17.72c0-3.58-2.92-6.49-6.49-6.49s-6.49,2.92-6.49,6.49v17.72c0,1.37,1.13,2.5,2.5,2.5Zm2.5-20.22c0-.83,.66-1.49,1.49-1.49s1.49,.66,1.49,1.49v15.22h-2.99v-15.22h0Z"/><path class="cls-1" d="M232.52,359.25h.51c1.37,0,2.5-1.13,2.5-2.5s-1.13-2.5-2.5-2.5h-.51c-1.37,0-2.5,1.13-2.5,2.5s1.13,2.5,2.5,2.5Z"/><path class="cls-1" d="M240.85,359.25h5.81c1.37,0,2.5-1.13,2.5-2.5s-1.13-2.5-2.5-2.5h-5.81c-1.37,0-2.5,1.13-2.5,2.5s1.13,2.5,2.5,2.5Z"/></g><g><path class="cls-1" d="M53.86,106.85h-4.27v3.77h-1.34v-8.53h6.31v.92h-4.96v2.92h4.27v.92Z"/><path class="cls-1" d="M59.43,105.25c-.2-.03-.41-.04-.64-.04-.85,0-1.42,.3-1.73,.91v4.5h-1.29v-6.34h1.26l.02,.73c.42-.57,1.03-.85,1.8-.85,.25,0,.44,.03,.57,.08v1.01Z"/><path class="cls-1" d="M65.01,110.61c-.07-.12-.14-.35-.18-.67-.6,.52-1.32,.79-2.15,.79-.75,0-1.36-.18-1.83-.53-.48-.35-.72-.8-.72-1.34,0-.66,.3-1.17,.9-1.54s1.44-.55,2.53-.55h1.26v-.5c0-.38-.14-.68-.41-.91-.27-.22-.67-.34-1.2-.34-.46,0-.85,.1-1.16,.29-.31,.2-.47,.43-.47,.71h-1.3c0-.32,.13-.62,.4-.92,.27-.29,.63-.53,1.09-.7s.96-.26,1.51-.26c.87,0,1.55,.18,2.05,.55,.49,.37,.75,.87,.77,1.51v2.92c0,.58,.09,1.04,.27,1.39v.09h-1.36Zm-2.15-.83c.41,0,.79-.09,1.15-.26,.36-.18,.63-.4,.79-.69v-1.3h-1.01c-1.58,0-2.38,.39-2.38,1.17,0,.34,.14,.61,.41,.8,.27,.19,.62,.29,1.04,.29Z"/><path class="cls-1" d="M70.5,109.03l1.76-4.75h1.38l-3.04,7.32c-.47,1.05-1.22,1.58-2.24,1.58l-.24-.02-.48-.08v-.88l.35,.02c.44,0,.78-.07,1.02-.22s.45-.42,.6-.81l.29-.64-2.7-6.27h1.41l1.89,4.75Z"/><path class="cls-1" d="M84.16,108.38h-4.26l-.96,2.23h-1.38l3.89-8.53h1.17l3.89,8.53h-1.38l-.97-2.23Zm-3.86-.92h3.46l-1.73-3.99-1.73,3.99Z"/><path class="cls-1" d="M88.9,104.27l.04,.8c.58-.61,1.33-.91,2.27-.91,1.6,0,2.4,.76,2.42,2.27v4.19h-1.29v-4.2c0-.46-.13-.79-.37-1.01s-.63-.33-1.14-.33c-.42,0-.79,.09-1.1,.28s-.56,.43-.74,.74v4.52h-1.29v-6.34h1.22Z"/><path class="cls-1" d="M97.33,102.74v1.54h1.41v.84h-1.41v3.94c0,.25,.06,.44,.19,.57,.13,.13,.34,.19,.64,.19,.15,0,.35-.02,.62-.07v.87c-.34,.08-.67,.12-.99,.12-.58,0-1.01-.15-1.31-.44s-.44-.71-.44-1.25v-3.93h-1.38v-.84h1.38v-1.54h1.29Z"/><path class="cls-1" d="M99.77,107.39c0-.62,.15-1.18,.44-1.68,.29-.5,.7-.88,1.22-1.15,.52-.27,1.11-.4,1.78-.4,1.03,0,1.86,.3,2.5,.9s.95,1.39,.95,2.38v.08c0,.62-.14,1.17-.42,1.66-.28,.49-.69,.87-1.21,1.15s-1.13,.41-1.81,.41c-1.02,0-1.86-.3-2.49-.9s-.95-1.39-.95-2.37v-.08Zm1.3,.13c0,.7,.19,1.27,.58,1.69s.91,.64,1.56,.64,1.18-.22,1.57-.65,.58-1.04,.58-1.81c0-.7-.2-1.26-.59-1.69-.39-.43-.92-.65-1.57-.65s-1.15,.21-1.54,.64-.59,1.04-.59,1.83Z"/><path class="cls-1" d="M109.5,104.27l.04,.8c.58-.61,1.33-.91,2.27-.91,1.6,0,2.4,.76,2.42,2.27v4.19h-1.29v-4.2c0-.46-.13-.79-.37-1.01s-.63-.33-1.14-.33c-.42,0-.79,.09-1.1,.28s-.56,.43-.74,.74v4.52h-1.29v-6.34h1.22Z"/><path class="cls-1" d="M116.18,102.59c0-.18,.06-.32,.19-.45,.13-.12,.32-.18,.57-.18s.44,.06,.57,.18,.2,.27,.2,.45-.07,.32-.2,.44-.32,.18-.57,.18-.44-.06-.57-.18c-.13-.12-.19-.26-.19-.44Zm1.4,8.02h-1.29v-6.34h1.29v6.34Z"/><path class="cls-1" d="M119.31,107.39c0-.62,.15-1.18,.44-1.68,.29-.5,.7-.88,1.22-1.15,.52-.27,1.11-.4,1.78-.4,1.03,0,1.86,.3,2.5,.9s.95,1.39,.95,2.38v.08c0,.62-.14,1.17-.42,1.66-.28,.49-.69,.87-1.21,1.15s-1.13,.41-1.81,.41c-1.02,0-1.86-.3-2.49-.9s-.95-1.39-.95-2.37v-.08Zm1.3,.13c0,.7,.19,1.27,.58,1.69s.91,.64,1.56,.64,1.18-.22,1.57-.65,.58-1.04,.58-1.81c0-.7-.2-1.26-.59-1.69-.39-.43-.92-.65-1.57-.65s-1.15,.21-1.54,.64-.59,1.04-.59,1.83Z"/><path class="cls-1" d="M135.3,107.16h-2.39v3.45h-1.35v-8.53h3.37c1.15,0,2.03,.22,2.65,.66,.62,.44,.93,1.07,.93,1.91,0,.53-.17,.99-.51,1.39-.34,.39-.82,.69-1.43,.88l2.39,3.62v.07h-1.44l-2.21-3.45Zm-2.39-.92h2.06c.67,0,1.2-.14,1.59-.43,.39-.29,.59-.68,.59-1.16,0-.53-.19-.93-.56-1.21s-.92-.42-1.62-.43h-2.06v3.24Z"/><path class="cls-1" d="M139.83,107.39c0-.62,.15-1.18,.44-1.68,.29-.5,.7-.88,1.22-1.15,.52-.27,1.11-.4,1.78-.4,1.03,0,1.86,.3,2.5,.9s.95,1.39,.95,2.38v.08c0,.62-.14,1.17-.42,1.66-.28,.49-.69,.87-1.21,1.15s-1.13,.41-1.81,.41c-1.02,0-1.86-.3-2.49-.9s-.95-1.39-.95-2.37v-.08Zm1.3,.13c0,.7,.19,1.27,.58,1.69s.91,.64,1.56,.64,1.18-.22,1.57-.65,.58-1.04,.58-1.81c0-.7-.2-1.26-.59-1.69-.39-.43-.92-.65-1.57-.65s-1.15,.21-1.54,.64-.59,1.04-.59,1.83Z"/><path class="cls-1" d="M149.56,104.27l.04,.8c.58-.61,1.33-.91,2.27-.91,1.6,0,2.4,.76,2.42,2.27v4.19h-1.29v-4.2c0-.46-.13-.79-.37-1.01s-.63-.33-1.14-.33c-.42,0-.79,.09-1.1,.28s-.56,.43-.74,.74v4.52h-1.29v-6.34h1.22Z"/><path class="cls-1" d="M155.92,107.39c0-.97,.27-1.75,.82-2.35s1.27-.89,2.16-.89,1.59,.25,2.1,.76v-3.3h1.29v9h-1.19l-.06-.68c-.52,.53-1.24,.8-2.16,.8s-1.59-.3-2.14-.9-.83-1.39-.83-2.36v-.08Zm1.29,.12c0,.72,.18,1.28,.53,1.69,.35,.41,.84,.61,1.47,.61,.82,0,1.42-.31,1.8-.93v-2.91c-.39-.6-.98-.9-1.78-.9-.63,0-1.13,.21-1.48,.62-.35,.41-.53,1.02-.53,1.82Z"/><path class="cls-1" d="M163.97,107.39c0-.62,.15-1.18,.44-1.68,.29-.5,.7-.88,1.22-1.15,.52-.27,1.11-.4,1.78-.4,1.03,0,1.86,.3,2.5,.9s.95,1.39,.95,2.38v.08c0,.62-.14,1.17-.42,1.66-.28,.49-.69,.87-1.21,1.15s-1.13,.41-1.81,.41c-1.02,0-1.86-.3-2.49-.9s-.95-1.39-.95-2.37v-.08Zm1.3,.13c0,.7,.19,1.27,.58,1.69s.91,.64,1.56,.64,1.18-.22,1.57-.65,.58-1.04,.58-1.81c0-.7-.2-1.26-.59-1.69-.39-.43-.92-.65-1.57-.65s-1.15,.21-1.54,.64-.59,1.04-.59,1.83Zm2.72-5.9h1.57l-1.87,1.72h-1.04l1.35-1.72Z"/><path class="cls-1" d="M173.7,104.27l.04,.8c.58-.61,1.33-.91,2.27-.91,1.6,0,2.4,.76,2.42,2.27v4.19h-1.29v-4.2c0-.46-.13-.79-.37-1.01s-.63-.33-1.14-.33c-.42,0-.79,.09-1.1,.28s-.56,.43-.74,.74v4.52h-1.29v-6.34h1.22Z"/><path class="cls-1" d="M187.06,110.73c-1.03,0-1.86-.28-2.5-.85s-.96-1.32-.96-2.26v-.2c0-.63,.14-1.19,.43-1.68s.69-.88,1.2-1.16,1.07-.42,1.67-.42c.98,0,1.75,.27,2.29,.81,.55,.54,.82,1.32,.82,2.33v.45h-5.12c.02,.62,.24,1.13,.65,1.51s.95,.58,1.59,.58c.46,0,.84-.08,1.16-.23s.59-.36,.83-.62l.79,.52c-.63,.82-1.58,1.22-2.85,1.22Zm-.16-5.68c-.52,0-.96,.16-1.31,.48-.35,.32-.57,.76-.66,1.34h3.79v-.08c-.04-.55-.21-.98-.53-1.28s-.75-.45-1.29-.45Z"/><path class="cls-1" d="M193.91,109.14l1.87-4.87h1.32l-2.71,6.34h-.99l-2.74-6.34h1.32l1.92,4.87Z"/><path class="cls-1" d="M202.91,110.61c-.07-.12-.14-.35-.18-.67-.6,.52-1.32,.79-2.15,.79-.75,0-1.36-.18-1.83-.53-.48-.35-.72-.8-.72-1.34,0-.66,.3-1.17,.9-1.54s1.44-.55,2.53-.55h1.26v-.5c0-.38-.14-.68-.41-.91-.27-.22-.67-.34-1.2-.34-.46,0-.85,.1-1.16,.29-.31,.2-.47,.43-.47,.71h-1.3c0-.32,.13-.62,.4-.92,.27-.29,.63-.53,1.09-.7s.96-.26,1.51-.26c.87,0,1.55,.18,2.05,.55,.49,.37,.75,.87,.77,1.51v2.92c0,.58,.09,1.04,.27,1.39v.09h-1.36Zm-2.15-.83c.41,0,.79-.09,1.15-.26,.36-.18,.63-.4,.79-.69v-1.3h-1.01c-1.58,0-2.38,.39-2.38,1.17,0,.34,.14,.61,.41,.8,.27,.19,.62,.29,1.04,.29Z"/><path class="cls-1" d="M207.25,104.27l.04,.8c.58-.61,1.33-.91,2.27-.91,1.6,0,2.4,.76,2.42,2.27v4.19h-1.29v-4.2c0-.46-.13-.79-.37-1.01s-.63-.33-1.14-.33c-.42,0-.79,.09-1.1,.28s-.56,.43-.74,.74v4.52h-1.29v-6.34h1.22Z"/><path class="cls-1" d="M213.62,107.39c0-.99,.27-1.77,.82-2.36,.55-.58,1.27-.88,2.17-.88s1.64,.27,2.16,.82l.06-.7h1.18v6.19c0,.82-.29,1.47-.87,1.94-.58,.47-1.36,.71-2.34,.71-.55,0-1.08-.1-1.6-.29-.52-.2-.92-.46-1.2-.8l.67-.65c.55,.57,1.23,.86,2.03,.86,.63,0,1.12-.15,1.47-.45,.35-.3,.53-.71,.53-1.25v-.54c-.52,.5-1.22,.75-2.12,.75s-1.6-.3-2.15-.9c-.55-.6-.82-1.41-.82-2.44Zm1.3,.12c0,.71,.17,1.28,.52,1.68s.84,.61,1.47,.61c.82,0,1.41-.31,1.8-.93v-2.89c-.4-.61-.99-.91-1.78-.91-.63,0-1.12,.21-1.48,.62s-.53,1.02-.53,1.82Z"/><path class="cls-1" d="M225.1,110.73c-1.03,0-1.86-.28-2.5-.85s-.96-1.32-.96-2.26v-.2c0-.63,.14-1.19,.43-1.68s.69-.88,1.2-1.16,1.07-.42,1.67-.42c.98,0,1.75,.27,2.29,.81,.55,.54,.82,1.32,.82,2.33v.45h-5.12c.02,.62,.24,1.13,.65,1.51s.95,.58,1.59,.58c.46,0,.84-.08,1.16-.23s.59-.36,.83-.62l.79,.52c-.63,.82-1.58,1.22-2.85,1.22Zm-.16-5.68c-.52,0-.96,.16-1.31,.48-.35,.32-.57,.76-.66,1.34h3.79v-.08c-.04-.55-.21-.98-.53-1.28s-.75-.45-1.29-.45Z"/><path class="cls-1" d="M230.95,110.61h-1.29v-9h1.29v9Z"/><path class="cls-1" d="M233.03,102.59c0-.18,.06-.32,.19-.45,.13-.12,.32-.18,.57-.18s.44,.06,.57,.18,.2,.27,.2,.45-.07,.32-.2,.44-.32,.18-.57,.18-.44-.06-.57-.18c-.13-.12-.19-.26-.19-.44Zm1.4,8.02h-1.29v-6.34h1.29v6.34Z"/><path class="cls-1" d="M237.71,109.73h4.42v.88h-6v-.8l4.17-4.65h-4.11v-.9h5.73v.77l-4.22,4.69Z"/><path class="cls-1" d="M248.26,110.61c-.07-.12-.14-.35-.18-.67-.6,.52-1.32,.79-2.15,.79-.75,0-1.36-.18-1.83-.53-.48-.35-.72-.8-.72-1.34,0-.66,.3-1.17,.9-1.54s1.44-.55,2.53-.55h1.26v-.5c0-.38-.14-.68-.41-.91-.27-.22-.67-.34-1.2-.34-.46,0-.85,.1-1.16,.29-.31,.2-.47,.43-.47,.71h-1.3c0-.32,.13-.62,.4-.92,.27-.29,.63-.53,1.09-.7s.96-.26,1.51-.26c.87,0,1.55,.18,2.05,.55,.49,.37,.75,.87,.77,1.51v2.92c0,.58,.09,1.04,.27,1.39v.09h-1.36Zm-2.15-.83c.41,0,.79-.09,1.15-.26,.36-.18,.63-.4,.79-.69v-1.3h-1.01c-1.58,0-2.38,.39-2.38,1.17,0,.34,.14,.61,.41,.8,.27,.19,.62,.29,1.04,.29Z"/><path class="cls-1" d="M251.06,107.39c0-.97,.27-1.75,.82-2.35s1.27-.89,2.16-.89,1.59,.25,2.1,.76v-3.3h1.29v9h-1.19l-.06-.68c-.52,.53-1.24,.8-2.16,.8s-1.59-.3-2.14-.9-.83-1.39-.83-2.36v-.08Zm1.29,.12c0,.72,.18,1.28,.53,1.69,.35,.41,.84,.61,1.47,.61,.82,0,1.42-.31,1.8-.93v-2.91c-.39-.6-.98-.9-1.78-.9-.63,0-1.13,.21-1.48,.62-.35,.41-.53,1.02-.53,1.82Z"/><path class="cls-1" d="M259.11,107.39c0-.62,.15-1.18,.44-1.68,.29-.5,.7-.88,1.22-1.15,.52-.27,1.11-.4,1.78-.4,1.03,0,1.86,.3,2.5,.9s.95,1.39,.95,2.38v.08c0,.62-.14,1.17-.42,1.66-.28,.49-.69,.87-1.21,1.15s-1.13,.41-1.81,.41c-1.02,0-1.86-.3-2.49-.9s-.95-1.39-.95-2.37v-.08Zm1.3,.13c0,.7,.19,1.27,.58,1.69s.91,.64,1.56,.64,1.18-.22,1.57-.65,.58-1.04,.58-1.81c0-.7-.2-1.26-.59-1.69-.39-.43-.92-.65-1.57-.65s-1.15,.21-1.54,.64-.59,1.04-.59,1.83Z"/><path class="cls-1" d="M271.27,105.25c-.2-.03-.41-.04-.64-.04-.85,0-1.42,.3-1.73,.91v4.5h-1.29v-6.34h1.26l.02,.73c.42-.57,1.03-.85,1.8-.85,.25,0,.44,.03,.57,.08v1.01Z"/><path class="cls-1" d="M275.69,107.39c0-.97,.27-1.75,.82-2.35s1.27-.89,2.16-.89,1.59,.25,2.1,.76v-3.3h1.29v9h-1.19l-.06-.68c-.52,.53-1.24,.8-2.16,.8s-1.59-.3-2.14-.9-.83-1.39-.83-2.36v-.08Zm1.29,.12c0,.72,.18,1.28,.53,1.69,.35,.41,.84,.61,1.47,.61,.82,0,1.42-.31,1.8-.93v-2.91c-.39-.6-.98-.9-1.78-.9-.63,0-1.13,.21-1.48,.62-.35,.41-.53,1.02-.53,1.82Z"/><path class="cls-1" d="M287.21,110.73c-1.03,0-1.86-.28-2.5-.85s-.96-1.32-.96-2.26v-.2c0-.63,.14-1.19,.43-1.68s.69-.88,1.2-1.16,1.07-.42,1.67-.42c.98,0,1.75,.27,2.29,.81,.55,.54,.82,1.32,.82,2.33v.45h-5.12c.02,.62,.24,1.13,.65,1.51s.95,.58,1.59,.58c.46,0,.84-.08,1.16-.23s.59-.36,.83-.62l.79,.52c-.63,.82-1.58,1.22-2.85,1.22Zm-.16-5.68c-.52,0-.96,.16-1.31,.48-.35,.32-.57,.76-.66,1.34h3.79v-.08c-.04-.55-.21-.98-.53-1.28s-.75-.45-1.29-.45Z"/><path class="cls-1" d="M302.16,103h-3.27v7.61h-1.33v-7.61h-3.26v-.92h7.87v.92Z"/><path class="cls-1" d="M307.35,110.61c-.07-.12-.14-.35-.18-.67-.6,.52-1.32,.79-2.15,.79-.75,0-1.36-.18-1.83-.53-.48-.35-.72-.8-.72-1.34,0-.66,.3-1.17,.9-1.54s1.44-.55,2.53-.55h1.26v-.5c0-.38-.14-.68-.41-.91-.27-.22-.67-.34-1.2-.34-.46,0-.85,.1-1.16,.29-.31,.2-.47,.43-.47,.71h-1.3c0-.32,.13-.62,.4-.92,.27-.29,.63-.53,1.09-.7s.96-.26,1.51-.26c.87,0,1.55,.18,2.05,.55,.49,.37,.75,.87,.77,1.51v2.92c0,.58,.09,1.04,.27,1.39v.09h-1.36Zm-2.15-.83c.41,0,.79-.09,1.15-.26,.36-.18,.63-.4,.79-.69v-1.3h-1.01c-1.58,0-2.38,.39-2.38,1.17,0,.34,.14,.61,.41,.8,.27,.19,.62,.29,1.04,.29Z"/><path class="cls-1" d="M314.12,105.25c-.2-.03-.41-.04-.64-.04-.85,0-1.42,.3-1.73,.91v4.5h-1.29v-6.34h1.26l.02,.73c.42-.57,1.03-.85,1.8-.85,.25,0,.44,.03,.57,.08v1.01Z"/><path class="cls-1" d="M319.7,110.61c-.07-.12-.14-.35-.18-.67-.6,.52-1.32,.79-2.15,.79-.75,0-1.36-.18-1.83-.53-.48-.35-.72-.8-.72-1.34,0-.66,.3-1.17,.9-1.54s1.44-.55,2.53-.55h1.26v-.5c0-.38-.14-.68-.41-.91-.27-.22-.67-.34-1.2-.34-.46,0-.85,.1-1.16,.29-.31,.2-.47,.43-.47,.71h-1.3c0-.32,.13-.62,.4-.92,.27-.29,.63-.53,1.09-.7s.96-.26,1.51-.26c.87,0,1.55,.18,2.05,.55,.49,.37,.75,.87,.77,1.51v2.92c0,.58,.09,1.04,.27,1.39v.09h-1.36Zm-2.15-.83c.41,0,.79-.09,1.15-.26,.36-.18,.63-.4,.79-.69v-1.3h-1.01c-1.58,0-2.38,.39-2.38,1.17,0,.34,.14,.61,.41,.8,.27,.19,.62,.29,1.04,.29Z"/><path class="cls-1" d="M329.2,107.52c0,.96-.26,1.74-.79,2.33-.53,.59-1.24,.88-2.14,.88s-1.64-.24-2.17-.73v3.05h-1.29v-8.78h1.18l.06,.7c.53-.55,1.26-.82,2.2-.82s1.63,.29,2.16,.86,.79,1.37,.79,2.4v.1Zm-1.29-.12c0-.71-.18-1.28-.55-1.69-.36-.41-.86-.62-1.5-.62-.78,0-1.37,.29-1.76,.87v3.03c.39,.58,.98,.87,1.78,.87,.62,0,1.11-.21,1.48-.62,.37-.41,.55-1.02,.55-1.84Z"/><path class="cls-1" d="M335.52,110.61c-.07-.12-.14-.35-.18-.67-.6,.52-1.32,.79-2.15,.79-.75,0-1.36-.18-1.83-.53-.48-.35-.72-.8-.72-1.34,0-.66,.3-1.17,.9-1.54s1.44-.55,2.53-.55h1.26v-.5c0-.38-.14-.68-.41-.91-.27-.22-.67-.34-1.2-.34-.46,0-.85,.1-1.16,.29-.31,.2-.47,.43-.47,.71h-1.3c0-.32,.13-.62,.4-.92,.27-.29,.63-.53,1.09-.7s.96-.26,1.51-.26c.87,0,1.55,.18,2.05,.55,.49,.37,.75,.87,.77,1.51v2.92c0,.58,.09,1.04,.27,1.39v.09h-1.36Zm-2.15-.83c.41,0,.79-.09,1.15-.26,.36-.18,.63-.4,.79-.69v-1.3h-1.01c-1.58,0-2.38,.39-2.38,1.17,0,.34,.14,.61,.41,.8,.27,.19,.62,.29,1.04,.29Z"/><path class="cls-1" d="M341.67,109.85c.46,0,.86-.12,1.21-.35s.54-.53,.57-.88h1.22c-.02,.36-.17,.71-.45,1.04s-.64,.59-1.1,.79-.94,.29-1.46,.29c-1.03,0-1.85-.29-2.46-.86-.61-.58-.91-1.36-.91-2.36v-.18c0-.62,.14-1.17,.41-1.65,.27-.48,.66-.85,1.16-1.12,.51-.27,1.1-.4,1.79-.4,.85,0,1.55,.21,2.11,.64,.56,.43,.86,.98,.9,1.66h-1.22c-.04-.41-.22-.75-.56-1.01-.33-.26-.74-.4-1.23-.4-.66,0-1.17,.2-1.53,.59-.36,.4-.54,.97-.54,1.72v.21c0,.73,.18,1.29,.54,1.69s.87,.59,1.54,.59Z"/><path class="cls-1" d="M350.8,110.61c-.07-.12-.14-.35-.18-.67-.6,.52-1.32,.79-2.15,.79-.75,0-1.36-.18-1.83-.53-.48-.35-.72-.8-.72-1.34,0-.66,.3-1.17,.9-1.54s1.44-.55,2.53-.55h1.26v-.5c0-.38-.14-.68-.41-.91-.27-.22-.67-.34-1.2-.34-.46,0-.85,.1-1.16,.29-.31,.2-.47,.43-.47,.71h-1.3c0-.32,.13-.62,.4-.92,.27-.29,.63-.53,1.09-.7s.96-.26,1.51-.26c.87,0,1.55,.18,2.05,.55,.49,.37,.75,.87,.77,1.51v2.92c0,.58,.09,1.04,.27,1.39v.09h-1.36Zm-2.15-.83c.41,0,.79-.09,1.15-.26,.36-.18,.63-.4,.79-.69v-1.3h-1.01c-1.58,0-2.38,.39-2.38,1.17,0,.34,.14,.61,.41,.8,.27,.19,.62,.29,1.04,.29Zm1.2-8.17h1.57l-1.87,1.72h-1.04l1.35-1.72Z"/><path class="cls-1" d="M42.96,121.39c0-.97,.27-1.75,.82-2.35s1.27-.89,2.16-.89,1.59,.25,2.1,.76v-3.3h1.29v9h-1.19l-.06-.68c-.52,.53-1.24,.8-2.16,.8s-1.59-.3-2.14-.9-.83-1.39-.83-2.36v-.08Zm1.29,.12c0,.72,.18,1.28,.53,1.69,.35,.41,.84,.61,1.47,.61,.82,0,1.42-.31,1.8-.93v-2.91c-.39-.6-.98-.9-1.78-.9-.63,0-1.13,.21-1.48,.62-.35,.41-.53,1.02-.53,1.82Z"/><path class="cls-1" d="M51.36,116.59c0-.18,.06-.32,.19-.45,.13-.12,.32-.18,.57-.18s.44,.06,.57,.18,.2,.27,.2,.45-.07,.32-.2,.44-.32,.18-.57,.18-.44-.06-.57-.18c-.13-.12-.19-.26-.19-.44Zm1.4,8.02h-1.29v-6.34h1.29v6.34Z"/><path class="cls-1" d="M54.48,121.39c0-.62,.15-1.18,.44-1.68,.29-.5,.7-.88,1.22-1.15,.52-.27,1.11-.4,1.78-.4,1.03,0,1.86,.3,2.5,.9s.95,1.39,.95,2.38v.08c0,.62-.14,1.17-.42,1.66-.28,.49-.69,.87-1.21,1.15s-1.13,.41-1.81,.41c-1.02,0-1.86-.3-2.49-.9s-.95-1.39-.95-2.37v-.08Zm1.3,.13c0,.7,.19,1.27,.58,1.69s.91,.64,1.56,.64,1.18-.22,1.57-.65,.58-1.04,.58-1.81c0-.7-.2-1.26-.59-1.69-.39-.43-.92-.65-1.57-.65s-1.15,.21-1.54,.64-.59,1.04-.59,1.83Z"/><path class="cls-1" d="M69.57,123.85c.46,0,.86-.12,1.21-.35s.54-.53,.57-.88h1.22c-.02,.36-.17,.71-.45,1.04s-.64,.59-1.1,.79-.94,.29-1.46,.29c-1.03,0-1.85-.29-2.46-.86-.61-.58-.91-1.36-.91-2.36v-.18c0-.62,.14-1.17,.41-1.65,.27-.48,.66-.85,1.16-1.12,.51-.27,1.1-.4,1.79-.4,.85,0,1.55,.21,2.11,.64,.56,.43,.86,.98,.9,1.66h-1.22c-.04-.41-.22-.75-.56-1.01-.33-.26-.74-.4-1.23-.4-.66,0-1.17,.2-1.53,.59-.36,.4-.54,.97-.54,1.72v.21c0,.73,.18,1.29,.54,1.69s.87,.59,1.54,.59Z"/><path class="cls-1" d="M73.68,121.39c0-.62,.15-1.18,.44-1.68,.29-.5,.7-.88,1.22-1.15,.52-.27,1.11-.4,1.78-.4,1.03,0,1.86,.3,2.5,.9s.95,1.39,.95,2.38v.08c0,.62-.14,1.17-.42,1.66-.28,.49-.69,.87-1.21,1.15s-1.13,.41-1.81,.41c-1.02,0-1.86-.3-2.49-.9s-.95-1.39-.95-2.37v-.08Zm1.3,.13c0,.7,.19,1.27,.58,1.69s.91,.64,1.56,.64,1.18-.22,1.57-.65,.58-1.04,.58-1.81c0-.7-.2-1.26-.59-1.69-.39-.43-.92-.65-1.57-.65s-1.15,.21-1.54,.64-.59,1.04-.59,1.83Z"/><path class="cls-1" d="M83.42,118.27l.04,.8c.58-.61,1.33-.91,2.27-.91,1.6,0,2.4,.76,2.42,2.27v4.19h-1.29v-4.2c0-.46-.13-.79-.37-1.01s-.63-.33-1.14-.33c-.42,0-.79,.09-1.1,.28s-.56,.43-.74,.74v4.52h-1.29v-6.34h1.22Z"/><path class="cls-1" d="M96.77,124.73c-1.03,0-1.86-.28-2.5-.85s-.96-1.32-.96-2.26v-.2c0-.63,.14-1.19,.43-1.68s.69-.88,1.2-1.16,1.07-.42,1.67-.42c.98,0,1.75,.27,2.29,.81,.55,.54,.82,1.32,.82,2.33v.45h-5.12c.02,.62,.24,1.13,.65,1.51s.95,.58,1.59,.58c.46,0,.84-.08,1.16-.23s.59-.36,.83-.62l.79,.52c-.63,.82-1.58,1.22-2.85,1.22Zm-.16-5.68c-.52,0-.96,.16-1.31,.48-.35,.32-.57,.76-.66,1.34h3.79v-.08c-.04-.55-.21-.98-.53-1.28s-.75-.45-1.29-.45Z"/><path class="cls-1" d="M102.62,124.61h-1.29v-9h1.29v9Z"/><path class="cls-1" d="M114.64,121.52c0,.97-.27,1.75-.8,2.33s-1.24,.88-2.14,.88c-.96,0-1.69-.28-2.22-.85l-.06,.73h-1.19v-9h1.29v3.36c.52-.54,1.24-.81,2.16-.81s1.64,.29,2.16,.87,.79,1.38,.79,2.39v.09Zm-1.29-.12c0-.74-.17-1.31-.51-1.71s-.83-.6-1.47-.6c-.85,0-1.47,.33-1.84,1v2.74c.4,.66,1.01,1,1.85,1,.62,0,1.1-.2,1.45-.6,.34-.4,.52-1.01,.52-1.82Z"/><path class="cls-1" d="M115.93,121.39c0-.62,.15-1.18,.44-1.68,.29-.5,.7-.88,1.22-1.15,.52-.27,1.11-.4,1.78-.4,1.03,0,1.86,.3,2.5,.9s.95,1.39,.95,2.38v.08c0,.62-.14,1.17-.42,1.66-.28,.49-.69,.87-1.21,1.15s-1.13,.41-1.81,.41c-1.02,0-1.86-.3-2.49-.9s-.95-1.39-.95-2.37v-.08Zm1.3,.13c0,.7,.19,1.27,.58,1.69s.91,.64,1.56,.64,1.18-.22,1.57-.65,.58-1.04,.58-1.81c0-.7-.2-1.26-.59-1.69-.39-.43-.92-.65-1.57-.65s-1.15,.21-1.54,.64-.59,1.04-.59,1.83Z"/><path class="cls-1" d="M128.84,122.93c0-.29-.13-.52-.4-.68s-.72-.3-1.38-.42-1.17-.26-1.56-.42c-.38-.16-.67-.36-.85-.59s-.28-.5-.28-.81c0-.52,.26-.96,.79-1.32,.52-.36,1.19-.54,2.01-.54,.86,0,1.55,.19,2.09,.56s.8,.85,.8,1.42h-1.3c0-.3-.15-.55-.45-.77-.3-.21-.68-.32-1.14-.32s-.84,.09-1.1,.26-.4,.4-.4,.67c0,.26,.12,.46,.37,.59s.69,.26,1.34,.38,1.17,.27,1.57,.43,.7,.37,.89,.61c.19,.24,.29,.52,.29,.86,0,.57-.27,1.02-.81,1.36s-1.24,.51-2.1,.51c-.61,0-1.14-.09-1.61-.27-.47-.18-.83-.43-1.09-.75s-.4-.67-.4-1.05h1.29c.02,.36,.2,.65,.52,.86s.75,.32,1.28,.32c.49,0,.88-.08,1.18-.25s.44-.39,.44-.67Z"/><path class="cls-1" d="M131.5,121.39c0-1,.27-1.78,.82-2.36s1.28-.87,2.19-.87,1.6,.25,2.12,.76l.06-.64h1.19v8.78h-1.29v-3.02c-.52,.47-1.22,.7-2.08,.7-.91,0-1.64-.3-2.18-.89s-.81-1.39-.81-2.37v-.08Zm1.29,.12c0,.73,.18,1.3,.55,1.71s.86,.62,1.48,.62c.77,0,1.36-.29,1.76-.86v-3.11c-.41-.56-.99-.84-1.75-.84-.62,0-1.12,.21-1.49,.62s-.55,1.03-.55,1.84Z"/><path class="cls-1" d="M144.62,123.99c-.5,.5-1.24,.74-2.22,.74-.81,0-1.42-.2-1.84-.59s-.64-.97-.64-1.74v-4.12h1.29v4.1c0,.96,.47,1.44,1.4,1.44,.99,0,1.65-.31,1.97-.93v-4.61h1.29v6.34h-1.23l-.03-.63Z"/><path class="cls-1" d="M150.98,124.73c-1.03,0-1.86-.28-2.5-.85s-.96-1.32-.96-2.26v-.2c0-.63,.14-1.19,.43-1.68s.69-.88,1.2-1.16,1.07-.42,1.67-.42c.98,0,1.75,.27,2.29,.81,.55,.54,.82,1.32,.82,2.33v.45h-5.12c.02,.62,.24,1.13,.65,1.51s.95,.58,1.59,.58c.46,0,.84-.08,1.16-.23s.59-.36,.83-.62l.79,.52c-.63,.82-1.58,1.22-2.85,1.22Zm-.16-5.68c-.52,0-.96,.16-1.31,.48-.35,.32-.57,.76-.66,1.34h3.79v-.08c-.04-.55-.21-.98-.53-1.28s-.75-.45-1.29-.45Z"/><path class="cls-1" d="M162.11,124.73c-1.03,0-1.86-.28-2.5-.85s-.96-1.32-.96-2.26v-.2c0-.63,.14-1.19,.43-1.68s.69-.88,1.2-1.16,1.07-.42,1.67-.42c.98,0,1.75,.27,2.29,.81,.55,.54,.82,1.32,.82,2.33v.45h-5.12c.02,.62,.24,1.13,.65,1.51s.95,.58,1.59,.58c.46,0,.84-.08,1.16-.23s.59-.36,.83-.62l.79,.52c-.63,.82-1.58,1.22-2.85,1.22Zm-.16-5.68c-.52,0-.96,.16-1.31,.48-.35,.32-.57,.76-.66,1.34h3.79v-.08c-.04-.55-.21-.98-.53-1.28s-.75-.45-1.29-.45Z"/><path class="cls-1" d="M167.96,124.61h-1.29v-9h1.29v9Z"/><path class="cls-1" d="M175.33,116.74v1.54h1.41v.84h-1.41v3.94c0,.25,.06,.44,.19,.57,.13,.13,.34,.19,.64,.19,.15,0,.35-.02,.62-.07v.87c-.34,.08-.67,.12-.99,.12-.58,0-1.01-.15-1.31-.44s-.44-.71-.44-1.25v-3.93h-1.38v-.84h1.38v-1.54h1.29Z"/><path class="cls-1" d="M182.92,124.61c-.07-.12-.14-.35-.18-.67-.6,.52-1.32,.79-2.15,.79-.75,0-1.36-.18-1.83-.53-.48-.35-.72-.8-.72-1.34,0-.66,.3-1.17,.9-1.54s1.44-.55,2.53-.55h1.26v-.5c0-.38-.14-.68-.41-.91-.27-.22-.67-.34-1.2-.34-.46,0-.85,.1-1.16,.29-.31,.2-.47,.43-.47,.71h-1.3c0-.32,.13-.62,.4-.92,.27-.29,.63-.53,1.09-.7s.96-.26,1.51-.26c.87,0,1.55,.18,2.05,.55,.49,.37,.75,.87,.77,1.51v2.92c0,.58,.09,1.04,.27,1.39v.09h-1.36Zm-2.15-.83c.41,0,.79-.09,1.15-.26,.36-.18,.63-.4,.79-.69v-1.3h-1.01c-1.58,0-2.38,.39-2.38,1.17,0,.34,.14,.61,.41,.8,.27,.19,.62,.29,1.04,.29Z"/><path class="cls-1" d="M187.25,118.27l.04,.7c.55-.55,1.3-.82,2.24-.82,1.06,0,1.78,.34,2.16,1.02,.25-.3,.58-.55,.98-.74,.4-.19,.88-.28,1.43-.28,1.66,0,2.5,.74,2.53,2.21v4.25h-1.29v-4.18c0-.45-.12-.79-.37-1.02s-.66-.34-1.24-.34c-.48,0-.88,.12-1.2,.36s-.5,.56-.55,.97v4.21h-1.3v-4.15c0-.92-.54-1.38-1.61-1.38-.85,0-1.43,.3-1.74,.91v4.63h-1.29v-6.34h1.22Z"/><path class="cls-1" d="M203.25,124.61c-.07-.12-.14-.35-.18-.67-.6,.52-1.32,.79-2.15,.79-.75,0-1.36-.18-1.83-.53-.48-.35-.72-.8-.72-1.34,0-.66,.3-1.17,.9-1.54s1.44-.55,2.53-.55h1.26v-.5c0-.38-.14-.68-.41-.91-.27-.22-.67-.34-1.2-.34-.46,0-.85,.1-1.16,.29-.31,.2-.47,.43-.47,.71h-1.3c0-.32,.13-.62,.4-.92,.27-.29,.63-.53,1.09-.7s.96-.26,1.51-.26c.87,0,1.55,.18,2.05,.55,.49,.37,.75,.87,.77,1.51v2.92c0,.58,.09,1.04,.27,1.39v.09h-1.36Zm-2.15-.83c.41,0,.79-.09,1.15-.26,.36-.18,.63-.4,.79-.69v-1.3h-1.01c-1.58,0-2.38,.39-2.38,1.17,0,.34,.14,.61,.41,.8,.27,.19,.62,.29,1.04,.29Z"/><path class="cls-1" d="M210.03,119.25c-.2-.03-.41-.04-.64-.04-.85,0-1.42,.3-1.73,.91v4.5h-1.29v-6.34h1.26l.02,.73c.42-.57,1.03-.85,1.8-.85,.25,0,.44,.03,.57,.08v1.01Z"/><path class="cls-1" d="M215.89,123.99c-.5,.5-1.24,.74-2.22,.74-.81,0-1.42-.2-1.84-.59s-.64-.97-.64-1.74v-4.12h1.29v4.1c0,.96,.47,1.44,1.4,1.44,.99,0,1.65-.31,1.97-.93v-4.61h1.29v6.34h-1.23l-.03-.63Z"/><path class="cls-1" d="M218.8,121.39c0-.99,.27-1.77,.82-2.36,.55-.58,1.27-.88,2.17-.88s1.64,.27,2.16,.82l.06-.7h1.18v6.19c0,.82-.29,1.47-.87,1.94-.58,.47-1.36,.71-2.34,.71-.55,0-1.08-.1-1.6-.29-.52-.2-.92-.46-1.2-.8l.67-.65c.55,.57,1.23,.86,2.03,.86,.63,0,1.12-.15,1.47-.45,.35-.3,.53-.71,.53-1.25v-.54c-.52,.5-1.22,.75-2.12,.75s-1.6-.3-2.15-.9c-.55-.6-.82-1.41-.82-2.44Zm1.3,.12c0,.71,.17,1.28,.52,1.68s.84,.61,1.47,.61c.82,0,1.41-.31,1.8-.93v-2.89c-.4-.61-.99-.91-1.78-.91-.63,0-1.12,.21-1.48,.62s-.53,1.02-.53,1.82Z"/><path class="cls-1" d="M231.81,124.61c-.07-.12-.14-.35-.18-.67-.6,.52-1.32,.79-2.15,.79-.75,0-1.36-.18-1.83-.53-.48-.35-.72-.8-.72-1.34,0-.66,.3-1.17,.9-1.54s1.44-.55,2.53-.55h1.26v-.5c0-.38-.14-.68-.41-.91-.27-.22-.67-.34-1.2-.34-.46,0-.85,.1-1.16,.29-.31,.2-.47,.43-.47,.71h-1.3c0-.32,.13-.62,.4-.92,.27-.29,.63-.53,1.09-.7s.96-.26,1.51-.26c.87,0,1.55,.18,2.05,.55,.49,.37,.75,.87,.77,1.51v2.92c0,.58,.09,1.04,.27,1.39v.09h-1.36Zm-2.15-.83c.41,0,.79-.09,1.15-.26,.36-.18,.63-.4,.79-.69v-1.3h-1.01c-1.58,0-2.38,.39-2.38,1.17,0,.34,.14,.61,.41,.8,.27,.19,.62,.29,1.04,.29Z"/><path class="cls-1" d="M236.33,124.61h-1.29v-9h1.29v9Z"/><path class="cls-1" d="M244.42,123.03l1.76-4.75h1.38l-3.04,7.32c-.47,1.05-1.22,1.58-2.24,1.58l-.24-.02-.48-.08v-.88l.35,.02c.44,0,.78-.07,1.02-.22s.45-.42,.6-.81l.29-.64-2.7-6.27h1.41l1.89,4.75Z"/><path class="cls-1" d="M258.65,121.52c0,.96-.26,1.74-.79,2.33-.53,.59-1.24,.88-2.14,.88s-1.64-.24-2.17-.73v3.05h-1.29v-8.78h1.18l.06,.7c.53-.55,1.26-.82,2.2-.82s1.63,.29,2.16,.86,.79,1.37,.79,2.4v.1Zm-1.29-.12c0-.71-.18-1.28-.55-1.69-.36-.41-.86-.62-1.5-.62-.78,0-1.37,.29-1.76,.87v3.03c.39,.58,.98,.87,1.78,.87,.62,0,1.11-.21,1.48-.62,.37-.41,.55-1.02,.55-1.84Z"/><path class="cls-1" d="M264.96,124.61c-.07-.12-.14-.35-.18-.67-.6,.52-1.32,.79-2.15,.79-.75,0-1.36-.18-1.83-.53-.48-.35-.72-.8-.72-1.34,0-.66,.3-1.17,.9-1.54s1.44-.55,2.53-.55h1.26v-.5c0-.38-.14-.68-.41-.91-.27-.22-.67-.34-1.2-.34-.46,0-.85,.1-1.16,.29-.31,.2-.47,.43-.47,.71h-1.3c0-.32,.13-.62,.4-.92,.27-.29,.63-.53,1.09-.7s.96-.26,1.51-.26c.87,0,1.55,.18,2.05,.55,.49,.37,.75,.87,.77,1.51v2.92c0,.58,.09,1.04,.27,1.39v.09h-1.36Zm-2.15-.83c.41,0,.79-.09,1.15-.26,.36-.18,.63-.4,.79-.69v-1.3h-1.01c-1.58,0-2.38,.39-2.38,1.17,0,.34,.14,.61,.41,.8,.27,.19,.62,.29,1.04,.29Z"/><path class="cls-1" d="M271.74,119.25c-.2-.03-.41-.04-.64-.04-.85,0-1.42,.3-1.73,.91v4.5h-1.29v-6.34h1.26l.02,.73c.42-.57,1.03-.85,1.8-.85,.25,0,.44,.03,.57,.08v1.01Z"/><path class="cls-1" d="M277.32,124.61c-.07-.12-.14-.35-.18-.67-.6,.52-1.32,.79-2.15,.79-.75,0-1.36-.18-1.83-.53-.48-.35-.72-.8-.72-1.34,0-.66,.3-1.17,.9-1.54s1.44-.55,2.53-.55h1.26v-.5c0-.38-.14-.68-.41-.91-.27-.22-.67-.34-1.2-.34-.46,0-.85,.1-1.16,.29-.31,.2-.47,.43-.47,.71h-1.3c0-.32,.13-.62,.4-.92,.27-.29,.63-.53,1.09-.7s.96-.26,1.51-.26c.87,0,1.55,.18,2.05,.55,.49,.37,.75,.87,.77,1.51v2.92c0,.58,.09,1.04,.27,1.39v.09h-1.36Zm-2.15-.83c.41,0,.79-.09,1.15-.26,.36-.18,.63-.4,.79-.69v-1.3h-1.01c-1.58,0-2.38,.39-2.38,1.17,0,.34,.14,.61,.41,.8,.27,.19,.62,.29,1.04,.29Z"/><path class="cls-1" d="M288.38,122.93c0-.29-.13-.52-.4-.68s-.72-.3-1.38-.42-1.17-.26-1.56-.42c-.38-.16-.67-.36-.85-.59s-.28-.5-.28-.81c0-.52,.26-.96,.79-1.32,.52-.36,1.19-.54,2.01-.54,.86,0,1.55,.19,2.09,.56s.8,.85,.8,1.42h-1.3c0-.3-.15-.55-.45-.77-.3-.21-.68-.32-1.14-.32s-.84,.09-1.1,.26-.4,.4-.4,.67c0,.26,.12,.46,.37,.59s.69,.26,1.34,.38,1.17,.27,1.57,.43,.7,.37,.89,.61c.19,.24,.29,.52,.29,.86,0,.57-.27,1.02-.81,1.36s-1.24,.51-2.1,.51c-.61,0-1.14-.09-1.61-.27-.47-.18-.83-.43-1.09-.75s-.4-.67-.4-1.05h1.29c.02,.36,.2,.65,.52,.86s.75,.32,1.28,.32c.49,0,.88-.08,1.18-.25s.44-.39,.44-.67Z"/><path class="cls-1" d="M296.03,123.99c-.5,.5-1.24,.74-2.22,.74-.81,0-1.42-.2-1.84-.59s-.64-.97-.64-1.74v-4.12h1.29v4.1c0,.96,.47,1.44,1.4,1.44,.99,0,1.65-.31,1.97-.93v-4.61h1.29v6.34h-1.23l-.03-.63Z"/><path class="cls-1" d="M307.2,122.93c0-.29-.13-.52-.4-.68s-.72-.3-1.38-.42-1.17-.26-1.56-.42c-.38-.16-.67-.36-.85-.59s-.28-.5-.28-.81c0-.52,.26-.96,.79-1.32,.52-.36,1.19-.54,2.01-.54,.86,0,1.55,.19,2.09,.56s.8,.85,.8,1.42h-1.3c0-.3-.15-.55-.45-.77-.3-.21-.68-.32-1.14-.32s-.84,.09-1.1,.26-.4,.4-.4,.67c0,.26,.12,.46,.37,.59s.69,.26,1.34,.38,1.17,.27,1.57,.43,.7,.37,.89,.61c.19,.24,.29,.52,.29,.86,0,.57-.27,1.02-.81,1.36s-1.24,.51-2.1,.51c-.61,0-1.14-.09-1.61-.27-.47-.18-.83-.43-1.09-.75s-.4-.67-.4-1.05h1.29c.02,.36,.2,.65,.52,.86s.75,.32,1.28,.32c.49,0,.88-.08,1.18-.25s.44-.39,.44-.67Z"/><path class="cls-1" d="M309.83,121.39c0-.62,.15-1.18,.44-1.68,.29-.5,.7-.88,1.22-1.15,.52-.27,1.11-.4,1.78-.4,1.03,0,1.86,.3,2.5,.9s.95,1.39,.95,2.38v.08c0,.62-.14,1.17-.42,1.66-.28,.49-.69,.87-1.21,1.15s-1.13,.41-1.81,.41c-1.02,0-1.86-.3-2.49-.9s-.95-1.39-.95-2.37v-.08Zm1.3,.13c0,.7,.19,1.27,.58,1.69s.91,.64,1.56,.64,1.18-.22,1.57-.65,.58-1.04,.58-1.81c0-.7-.2-1.26-.59-1.69-.39-.43-.92-.65-1.57-.65s-1.15,.21-1.54,.64-.59,1.04-.59,1.83Z"/><path class="cls-1" d="M322,119.25c-.2-.03-.41-.04-.64-.04-.85,0-1.42,.3-1.73,.91v4.5h-1.29v-6.34h1.26l.02,.73c.42-.57,1.03-.85,1.8-.85,.25,0,.44,.03,.57,.08v1.01Z"/><path class="cls-1" d="M329.58,121.52c0,.96-.26,1.74-.79,2.33-.53,.59-1.24,.88-2.14,.88s-1.64-.24-2.17-.73v3.05h-1.29v-8.78h1.18l.06,.7c.53-.55,1.26-.82,2.2-.82s1.63,.29,2.16,.86,.79,1.37,.79,2.4v.1Zm-1.29-.12c0-.71-.18-1.28-.55-1.69-.36-.41-.86-.62-1.5-.62-.78,0-1.37,.29-1.76,.87v3.03c.39,.58,.98,.87,1.78,.87,.62,0,1.11-.21,1.48-.62,.37-.41,.55-1.02,.55-1.84Z"/><path class="cls-1" d="M334.87,119.25c-.2-.03-.41-.04-.64-.04-.85,0-1.42,.3-1.73,.91v4.5h-1.29v-6.34h1.26l.02,.73c.42-.57,1.03-.85,1.8-.85,.25,0,.44,.03,.57,.08v1.01Z"/><path class="cls-1" d="M339.07,124.73c-1.03,0-1.86-.28-2.5-.85s-.96-1.32-.96-2.26v-.2c0-.63,.14-1.19,.43-1.68s.69-.88,1.2-1.16,1.07-.42,1.67-.42c.98,0,1.75,.27,2.29,.81,.55,.54,.82,1.32,.82,2.33v.45h-5.12c.02,.62,.24,1.13,.65,1.51s.95,.58,1.59,.58c.46,0,.84-.08,1.16-.23s.59-.36,.83-.62l.79,.52c-.63,.82-1.58,1.22-2.85,1.22Zm-.16-5.68c-.52,0-.96,.16-1.31,.48-.35,.32-.57,.76-.66,1.34h3.79v-.08c-.04-.55-.21-.98-.53-1.28s-.75-.45-1.29-.45Z"/><path class="cls-1" d="M347.92,122.93c0-.29-.13-.52-.4-.68s-.72-.3-1.38-.42-1.17-.26-1.56-.42c-.38-.16-.67-.36-.85-.59s-.28-.5-.28-.81c0-.52,.26-.96,.79-1.32,.52-.36,1.19-.54,2.01-.54,.86,0,1.55,.19,2.09,.56s.8,.85,.8,1.42h-1.3c0-.3-.15-.55-.45-.77-.3-.21-.68-.32-1.14-.32s-.84,.09-1.1,.26-.4,.4-.4,.67c0,.26,.12,.46,.37,.59s.69,.26,1.34,.38,1.17,.27,1.57,.43,.7,.37,.89,.61c.19,.24,.29,.52,.29,.86,0,.57-.27,1.02-.81,1.36s-1.24,.51-2.1,.51c-.61,0-1.14-.09-1.61-.27-.47-.18-.83-.43-1.09-.75s-.4-.67-.4-1.05h1.29c.02,.36,.2,.65,.52,.86s.75,.32,1.28,.32c.49,0,.88-.08,1.18-.25s.44-.39,.44-.67Z"/><path class="cls-1" d="M355.56,124.61c-.07-.12-.14-.35-.18-.67-.6,.52-1.32,.79-2.15,.79-.75,0-1.36-.18-1.83-.53-.48-.35-.72-.8-.72-1.34,0-.66,.3-1.17,.9-1.54s1.44-.55,2.53-.55h1.26v-.5c0-.38-.14-.68-.41-.91-.27-.22-.67-.34-1.2-.34-.46,0-.85,.1-1.16,.29-.31,.2-.47,.43-.47,.71h-1.3c0-.32,.13-.62,.4-.92,.27-.29,.63-.53,1.09-.7s.96-.26,1.51-.26c.87,0,1.55,.18,2.05,.55,.49,.37,.75,.87,.77,1.51v2.92c0,.58,.09,1.04,.27,1.39v.09h-1.36Zm-2.15-.83c.41,0,.79-.09,1.15-.26,.36-.18,.63-.4,.79-.69v-1.3h-1.01c-1.58,0-2.38,.39-2.38,1.17,0,.34,.14,.61,.41,.8,.27,.19,.62,.29,1.04,.29Z"/><path class="cls-1" d="M46.28,137.14l1.87-4.87h1.32l-2.71,6.34h-.99l-2.74-6.34h1.32l1.92,4.87Z"/><path class="cls-1" d="M50.72,130.59c0-.18,.06-.32,.19-.45,.13-.12,.32-.18,.57-.18s.44,.06,.57,.18,.2,.27,.2,.45-.07,.32-.2,.44-.32,.18-.57,.18-.44-.06-.57-.18c-.13-.12-.19-.26-.19-.44Zm1.4,8.02h-1.29v-6.34h1.29v6.34Z"/><path class="cls-1" d="M58.59,136.93c0-.29-.13-.52-.4-.68s-.72-.3-1.38-.42-1.17-.26-1.56-.42c-.38-.16-.67-.36-.85-.59s-.28-.5-.28-.81c0-.52,.26-.96,.79-1.32,.52-.36,1.19-.54,2.01-.54,.86,0,1.55,.19,2.09,.56s.8,.85,.8,1.42h-1.3c0-.3-.15-.55-.45-.77-.3-.21-.68-.32-1.14-.32s-.84,.09-1.1,.26-.4,.4-.4,.67c0,.26,.12,.46,.37,.59s.69,.26,1.34,.38,1.17,.27,1.57,.43,.7,.37,.89,.61c.19,.24,.29,.52,.29,.86,0,.57-.27,1.02-.81,1.36s-1.24,.51-2.1,.51c-.61,0-1.14-.09-1.61-.27-.47-.18-.83-.43-1.09-.75s-.4-.67-.4-1.05h1.29c.02,.36,.2,.65,.52,.86s.75,.32,1.28,.32c.49,0,.88-.08,1.18-.25s.44-.39,.44-.67Z"/><path class="cls-1" d="M62.98,138.61h-1.29v-9h1.29v9Z"/><path class="cls-1" d="M69.71,137.99c-.5,.5-1.24,.74-2.22,.74-.81,0-1.42-.2-1.84-.59s-.64-.97-.64-1.74v-4.12h1.29v4.1c0,.96,.47,1.44,1.4,1.44,.99,0,1.65-.31,1.97-.93v-4.61h1.29v6.34h-1.23l-.03-.63Z"/><path class="cls-1" d="M74.15,132.27l.04,.7c.55-.55,1.3-.82,2.24-.82,1.06,0,1.78,.34,2.16,1.02,.25-.3,.58-.55,.98-.74,.4-.19,.88-.28,1.43-.28,1.66,0,2.5,.74,2.53,2.21v4.25h-1.29v-4.18c0-.45-.12-.79-.37-1.02s-.66-.34-1.24-.34c-.48,0-.88,.12-1.2,.36s-.5,.56-.55,.97v4.21h-1.3v-4.15c0-.92-.54-1.38-1.61-1.38-.85,0-1.43,.3-1.74,.91v4.63h-1.29v-6.34h1.22Z"/><path class="cls-1" d="M91.89,135.52c0,.97-.27,1.75-.8,2.33s-1.24,.88-2.14,.88c-.96,0-1.69-.28-2.22-.85l-.06,.73h-1.19v-9h1.29v3.36c.52-.54,1.24-.81,2.16-.81s1.64,.29,2.16,.87,.79,1.38,.79,2.39v.09Zm-1.29-.12c0-.74-.17-1.31-.51-1.71s-.83-.6-1.47-.6c-.85,0-1.47,.33-1.84,1v2.74c.4,.66,1.01,1,1.85,1,.62,0,1.1-.2,1.45-.6,.34-.4,.52-1.01,.52-1.82Z"/><path class="cls-1" d="M97.17,133.25c-.2-.03-.41-.04-.64-.04-.85,0-1.42,.3-1.73,.91v4.5h-1.29v-6.34h1.26l.02,.73c.42-.57,1.03-.85,1.8-.85,.25,0,.44,.03,.57,.08v1.01Z"/><path class="cls-1" d="M102.75,138.61c-.07-.12-.14-.35-.18-.67-.6,.52-1.32,.79-2.15,.79-.75,0-1.36-.18-1.83-.53-.48-.35-.72-.8-.72-1.34,0-.66,.3-1.17,.9-1.54s1.44-.55,2.53-.55h1.26v-.5c0-.38-.14-.68-.41-.91-.27-.22-.67-.34-1.2-.34-.46,0-.85,.1-1.16,.29-.31,.2-.47,.43-.47,.71h-1.3c0-.32,.13-.62,.4-.92,.27-.29,.63-.53,1.09-.7s.96-.26,1.51-.26c.87,0,1.55,.18,2.05,.55,.49,.37,.75,.87,.77,1.51v2.92c0,.58,.09,1.04,.27,1.39v.09h-1.36Zm-2.15-.83c.41,0,.79-.09,1.15-.26,.36-.18,.63-.4,.79-.69v-1.3h-1.01c-1.58,0-2.38,.39-2.38,1.17,0,.34,.14,.61,.41,.8,.27,.19,.62,.29,1.04,.29Z"/><path class="cls-1" d="M112.55,138.73c-1.03,0-1.86-.28-2.5-.85s-.96-1.32-.96-2.26v-.2c0-.63,.14-1.19,.43-1.68s.69-.88,1.2-1.16,1.07-.42,1.67-.42c.98,0,1.75,.27,2.29,.81,.55,.54,.82,1.32,.82,2.33v.45h-5.12c.02,.62,.24,1.13,.65,1.51s.95,.58,1.59,.58c.46,0,.84-.08,1.16-.23s.59-.36,.83-.62l.79,.52c-.63,.82-1.58,1.22-2.85,1.22Zm-.16-5.68c-.52,0-.96,.16-1.31,.48-.35,.32-.57,.76-.66,1.34h3.79v-.08c-.04-.55-.21-.98-.53-1.28s-.75-.45-1.29-.45Z"/><path class="cls-1" d="M118.22,132.27l.04,.8c.58-.61,1.33-.91,2.27-.91,1.6,0,2.4,.76,2.42,2.27v4.19h-1.29v-4.2c0-.46-.13-.79-.37-1.01s-.63-.33-1.14-.33c-.42,0-.79,.09-1.1,.28s-.56,.43-.74,.74v4.52h-1.29v-6.34h1.22Z"/><path class="cls-1" d="M131.58,138.73c-1.03,0-1.86-.28-2.5-.85s-.96-1.32-.96-2.26v-.2c0-.63,.14-1.19,.43-1.68s.69-.88,1.2-1.16,1.07-.42,1.67-.42c.98,0,1.75,.27,2.29,.81,.55,.54,.82,1.32,.82,2.33v.45h-5.12c.02,.62,.24,1.13,.65,1.51s.95,.58,1.59,.58c.46,0,.84-.08,1.16-.23s.59-.36,.83-.62l.79,.52c-.63,.82-1.58,1.22-2.85,1.22Zm-.16-5.68c-.52,0-.96,.16-1.31,.48-.35,.32-.57,.76-.66,1.34h3.79v-.08c-.04-.55-.21-.98-.53-1.28s-.75-.45-1.29-.45Zm.63-3.43h1.57l-1.87,1.72h-1.04l1.35-1.72Z"/><path class="cls-1" d="M137.43,138.61h-1.29v-9h1.29v9Z"/><path class="cls-1" d="M147.71,137.99c-.5,.5-1.24,.74-2.22,.74-.81,0-1.42-.2-1.84-.59s-.64-.97-.64-1.74v-4.12h1.29v4.1c0,.96,.47,1.44,1.4,1.44,.99,0,1.65-.31,1.97-.93v-4.61h1.29v6.34h-1.23l-.03-.63Z"/><path class="cls-1" d="M152.16,132.27l.04,.8c.58-.61,1.33-.91,2.27-.91,1.6,0,2.4,.76,2.42,2.27v4.19h-1.29v-4.2c0-.46-.13-.79-.37-1.01s-.63-.33-1.14-.33c-.42,0-.79,.09-1.1,.28s-.56,.43-.74,.74v4.52h-1.29v-6.34h1.22Z"/><path class="cls-1" d="M163.5,138.61c-.07-.12-.14-.35-.18-.67-.6,.52-1.32,.79-2.15,.79-.75,0-1.36-.18-1.83-.53-.48-.35-.72-.8-.72-1.34,0-.66,.3-1.17,.9-1.54s1.44-.55,2.53-.55h1.26v-.5c0-.38-.14-.68-.41-.91-.27-.22-.67-.34-1.2-.34-.46,0-.85,.1-1.16,.29-.31,.2-.47,.43-.47,.71h-1.3c0-.32,.13-.62,.4-.92,.27-.29,.63-.53,1.09-.7s.96-.26,1.51-.26c.87,0,1.55,.18,2.05,.55,.49,.37,.75,.87,.77,1.51v2.92c0,.58,.09,1.04,.27,1.39v.09h-1.36Zm-2.15-.83c.41,0,.79-.09,1.15-.26,.36-.18,.63-.4,.79-.69v-1.3h-1.01c-1.58,0-2.38,.39-2.38,1.17,0,.34,.14,.61,.41,.8,.27,.19,.62,.29,1.04,.29Z"/><path class="cls-1" d="M173.2,137.85c.46,0,.86-.12,1.21-.35s.54-.53,.57-.88h1.22c-.02,.36-.17,.71-.45,1.04s-.64,.59-1.1,.79-.94,.29-1.46,.29c-1.03,0-1.85-.29-2.46-.86-.61-.58-.91-1.36-.91-2.36v-.18c0-.62,.14-1.17,.41-1.65,.27-.48,.66-.85,1.16-1.12,.51-.27,1.1-.4,1.79-.4,.85,0,1.55,.21,2.11,.64,.56,.43,.86,.98,.9,1.66h-1.22c-.04-.41-.22-.75-.56-1.01-.33-.26-.74-.4-1.23-.4-.66,0-1.17,.2-1.53,.59-.36,.4-.54,.97-.54,1.72v.21c0,.73,.18,1.29,.54,1.69s.87,.59,1.54,.59Z"/><path class="cls-1" d="M181.31,133.25c-.2-.03-.41-.04-.64-.04-.85,0-1.42,.3-1.73,.91v4.5h-1.29v-6.34h1.26l.02,.73c.42-.57,1.03-.85,1.8-.85,.25,0,.44,.03,.57,.08v1.01Z"/><path class="cls-1" d="M187.17,137.99c-.5,.5-1.24,.74-2.22,.74-.81,0-1.42-.2-1.84-.59s-.64-.97-.64-1.74v-4.12h1.29v4.1c0,.96,.47,1.44,1.4,1.44,.99,0,1.65-.31,1.97-.93v-4.61h1.29v6.34h-1.23l-.03-.63Z"/><path class="cls-1" d="M191.61,137.73h4.42v.88h-6v-.8l4.17-4.65h-4.11v-.9h5.73v.77l-4.22,4.69Z"/><path class="cls-1" d="M204.07,137.85c.46,0,.86-.12,1.21-.35s.54-.53,.57-.88h1.22c-.02,.36-.17,.71-.45,1.04s-.64,.59-1.1,.79-.94,.29-1.46,.29c-1.03,0-1.85-.29-2.46-.86-.61-.58-.91-1.36-.91-2.36v-.18c0-.62,.14-1.17,.41-1.65,.27-.48,.66-.85,1.16-1.12,.51-.27,1.1-.4,1.79-.4,.85,0,1.55,.21,2.11,.64,.56,.43,.86,.98,.9,1.66h-1.22c-.04-.41-.22-.75-.56-1.01-.33-.26-.74-.4-1.23-.4-.66,0-1.17,.2-1.53,.59-.36,.4-.54,.97-.54,1.72v.21c0,.73,.18,1.29,.54,1.69s.87,.59,1.54,.59Z"/><path class="cls-1" d="M212.18,133.25c-.2-.03-.41-.04-.64-.04-.85,0-1.42,.3-1.73,.91v4.5h-1.29v-6.34h1.26l.02,.73c.42-.57,1.03-.85,1.8-.85,.25,0,.44,.03,.57,.08v1.01Z"/><path class="cls-1" d="M213.38,130.59c0-.18,.06-.32,.19-.45,.13-.12,.32-.18,.57-.18s.44,.06,.57,.18,.2,.27,.2,.45-.07,.32-.2,.44-.32,.18-.57,.18-.44-.06-.57-.18c-.13-.12-.19-.26-.19-.44Zm1.4,8.02h-1.29v-6.34h1.29v6.34Z"/><path class="cls-1" d="M221.25,136.93c0-.29-.13-.52-.4-.68s-.72-.3-1.38-.42-1.17-.26-1.56-.42c-.38-.16-.67-.36-.85-.59s-.28-.5-.28-.81c0-.52,.26-.96,.79-1.32,.52-.36,1.19-.54,2.01-.54,.86,0,1.55,.19,2.09,.56s.8,.85,.8,1.42h-1.3c0-.3-.15-.55-.45-.77-.3-.21-.68-.32-1.14-.32s-.84,.09-1.1,.26-.4,.4-.4,.67c0,.26,.12,.46,.37,.59s.69,.26,1.34,.38,1.17,.27,1.57,.43,.7,.37,.89,.61c.19,.24,.29,.52,.29,.86,0,.57-.27,1.02-.81,1.36s-1.24,.51-2.1,.51c-.61,0-1.14-.09-1.61-.27-.47-.18-.83-.43-1.09-.75s-.4-.67-.4-1.05h1.29c.02,.36,.2,.65,.52,.86s.75,.32,1.28,.32c.49,0,.88-.08,1.18-.25s.44-.39,.44-.67Z"/><path class="cls-1" d="M225.98,130.74v1.54h1.41v.84h-1.41v3.94c0,.25,.06,.44,.19,.57,.13,.13,.34,.19,.64,.19,.15,0,.35-.02,.62-.07v.87c-.34,.08-.67,.12-.99,.12-.58,0-1.01-.15-1.31-.44s-.44-.71-.44-1.25v-3.93h-1.38v-.84h1.38v-1.54h1.29Z"/><path class="cls-1" d="M228.91,130.59c0-.18,.06-.32,.19-.45,.13-.12,.32-.18,.57-.18s.44,.06,.57,.18,.2,.27,.2,.45-.07,.32-.2,.44-.32,.18-.57,.18-.44-.06-.57-.18c-.13-.12-.19-.26-.19-.44Zm1.4,8.02h-1.29v-6.34h1.29v6.34Z"/><path class="cls-1" d="M237.05,138.61c-.07-.12-.14-.35-.18-.67-.6,.52-1.32,.79-2.15,.79-.75,0-1.36-.18-1.83-.53-.48-.35-.72-.8-.72-1.34,0-.66,.3-1.17,.9-1.54s1.44-.55,2.53-.55h1.26v-.5c0-.38-.14-.68-.41-.91-.27-.22-.67-.34-1.2-.34-.46,0-.85,.1-1.16,.29-.31,.2-.47,.43-.47,.71h-1.3c0-.32,.13-.62,.4-.92,.27-.29,.63-.53,1.09-.7s.96-.26,1.51-.26c.87,0,1.55,.18,2.05,.55,.49,.37,.75,.87,.77,1.51v2.92c0,.58,.09,1.04,.27,1.39v.09h-1.36Zm-2.15-.83c.41,0,.79-.09,1.15-.26,.36-.18,.63-.4,.79-.69v-1.3h-1.01c-1.58,0-2.38,.39-2.38,1.17,0,.34,.14,.61,.41,.8,.27,.19,.62,.29,1.04,.29Z"/><path class="cls-1" d="M241.39,132.27l.04,.8c.58-.61,1.33-.91,2.27-.91,1.6,0,2.4,.76,2.42,2.27v4.19h-1.29v-4.2c0-.46-.13-.79-.37-1.01s-.63-.33-1.14-.33c-.42,0-.79,.09-1.1,.28s-.56,.43-.74,.74v4.52h-1.29v-6.34h1.22Z"/><path class="cls-1" d="M252.73,138.61c-.07-.12-.14-.35-.18-.67-.6,.52-1.32,.79-2.15,.79-.75,0-1.36-.18-1.83-.53-.48-.35-.72-.8-.72-1.34,0-.66,.3-1.17,.9-1.54s1.44-.55,2.53-.55h1.26v-.5c0-.38-.14-.68-.41-.91-.27-.22-.67-.34-1.2-.34-.46,0-.85,.1-1.16,.29-.31,.2-.47,.43-.47,.71h-1.3c0-.32,.13-.62,.4-.92,.27-.29,.63-.53,1.09-.7s.96-.26,1.51-.26c.87,0,1.55,.18,2.05,.55,.49,.37,.75,.87,.77,1.51v2.92c0,.58,.09,1.04,.27,1.39v.09h-1.36Zm-2.15-.83c.41,0,.79-.09,1.15-.26,.36-.18,.63-.4,.79-.69v-1.3h-1.01c-1.58,0-2.38,.39-2.38,1.17,0,.34,.14,.61,.41,.8,.27,.19,.62,.29,1.04,.29Z"/><path class="cls-1" d="M261.87,137.03l1.76-4.75h1.38l-3.04,7.32c-.47,1.05-1.22,1.58-2.24,1.58l-.24-.02-.48-.08v-.88l.35,.02c.44,0,.78-.07,1.02-.22s.45-.42,.6-.81l.29-.64-2.7-6.27h1.41l1.89,4.75Z"/><path class="cls-1" d="M269.4,135.39c0-.97,.27-1.75,.82-2.35s1.27-.89,2.16-.89,1.59,.25,2.1,.76v-3.3h1.29v9h-1.19l-.06-.68c-.52,.53-1.24,.8-2.16,.8s-1.59-.3-2.14-.9-.83-1.39-.83-2.36v-.08Zm1.29,.12c0,.72,.18,1.28,.53,1.69,.35,.41,.84,.61,1.47,.61,.82,0,1.42-.31,1.8-.93v-2.91c-.39-.6-.98-.9-1.78-.9-.63,0-1.13,.21-1.48,.62-.35,.41-.53,1.02-.53,1.82Z"/><path class="cls-1" d="M280.92,138.73c-1.03,0-1.86-.28-2.5-.85s-.96-1.32-.96-2.26v-.2c0-.63,.14-1.19,.43-1.68s.69-.88,1.2-1.16,1.07-.42,1.67-.42c.98,0,1.75,.27,2.29,.81,.55,.54,.82,1.32,.82,2.33v.45h-5.12c.02,.62,.24,1.13,.65,1.51s.95,.58,1.59,.58c.46,0,.84-.08,1.16-.23s.59-.36,.83-.62l.79,.52c-.63,.82-1.58,1.22-2.85,1.22Zm-.16-5.68c-.52,0-.96,.16-1.31,.48-.35,.32-.57,.76-.66,1.34h3.79v-.08c-.04-.55-.21-.98-.53-1.28s-.75-.45-1.29-.45Z"/><path class="cls-1" d="M288.4,137.85c.46,0,.86-.12,1.21-.35s.54-.53,.57-.88h1.22c-.02,.36-.17,.71-.45,1.04s-.64,.59-1.1,.79-.94,.29-1.46,.29c-1.03,0-1.85-.29-2.46-.86-.61-.58-.91-1.36-.91-2.36v-.18c0-.62,.14-1.17,.41-1.65,.27-.48,.66-.85,1.16-1.12,.51-.27,1.1-.4,1.79-.4,.85,0,1.55,.21,2.11,.64,.56,.43,.86,.98,.9,1.66h-1.22c-.04-.41-.22-.75-.56-1.01-.33-.26-.74-.4-1.23-.4-.66,0-1.17,.2-1.53,.59-.36,.4-.54,.97-.54,1.72v.21c0,.73,.18,1.29,.54,1.69s.87,.59,1.54,.59Z"/><path class="cls-1" d="M292.87,130.59c0-.18,.06-.32,.19-.45,.13-.12,.32-.18,.57-.18s.44,.06,.57,.18,.2,.27,.2,.45-.07,.32-.2,.44-.32,.18-.57,.18-.44-.06-.57-.18c-.13-.12-.19-.26-.19-.44Zm1.4,8.02h-1.29v-6.34h1.29v6.34Z"/><path class="cls-1" d="M296.02,135.39c0-.97,.27-1.75,.82-2.35s1.27-.89,2.16-.89,1.59,.25,2.1,.76v-3.3h1.29v9h-1.19l-.06-.68c-.52,.53-1.24,.8-2.16,.8s-1.59-.3-2.14-.9-.83-1.39-.83-2.36v-.08Zm1.29,.12c0,.72,.18,1.28,.53,1.69,.35,.41,.84,.61,1.47,.61,.82,0,1.42-.31,1.8-.93v-2.91c-.39-.6-.98-.9-1.78-.9-.63,0-1.13,.21-1.48,.62-.35,.41-.53,1.02-.53,1.82Z"/><path class="cls-1" d="M307.55,138.73c-1.03,0-1.86-.28-2.5-.85s-.96-1.32-.96-2.26v-.2c0-.63,.14-1.19,.43-1.68s.69-.88,1.2-1.16,1.07-.42,1.67-.42c.98,0,1.75,.27,2.29,.81,.55,.54,.82,1.32,.82,2.33v.45h-5.12c.02,.62,.24,1.13,.65,1.51s.95,.58,1.59,.58c.46,0,.84-.08,1.16-.23s.59-.36,.83-.62l.79,.52c-.63,.82-1.58,1.22-2.85,1.22Zm-.16-5.68c-.52,0-.96,.16-1.31,.48-.35,.32-.57,.76-.66,1.34h3.79v-.08c-.04-.55-.21-.98-.53-1.28s-.75-.45-1.29-.45Z"/><path class="cls-1" d="M315.22,135.39c0-1,.27-1.78,.82-2.36s1.28-.87,2.19-.87,1.6,.25,2.12,.76l.06-.64h1.19v8.78h-1.29v-3.02c-.52,.47-1.22,.7-2.08,.7-.91,0-1.64-.3-2.18-.89s-.81-1.39-.81-2.37v-.08Zm1.29,.12c0,.73,.18,1.3,.55,1.71s.86,.62,1.48,.62c.77,0,1.36-.29,1.76-.86v-3.11c-.41-.56-.99-.84-1.75-.84-.62,0-1.12,.21-1.49,.62s-.55,1.03-.55,1.84Z"/><path class="cls-1" d="M328.34,137.99c-.5,.5-1.24,.74-2.22,.74-.81,0-1.42-.2-1.84-.59s-.64-.97-.64-1.74v-4.12h1.29v4.1c0,.96,.47,1.44,1.4,1.44,.99,0,1.65-.31,1.97-.93v-4.61h1.29v6.34h-1.23l-.03-.63Z"/><path class="cls-1" d="M334.71,138.73c-1.03,0-1.86-.28-2.5-.85s-.96-1.32-.96-2.26v-.2c0-.63,.14-1.19,.43-1.68s.69-.88,1.2-1.16,1.07-.42,1.67-.42c.98,0,1.75,.27,2.29,.81,.55,.54,.82,1.32,.82,2.33v.45h-5.12c.02,.62,.24,1.13,.65,1.51s.95,.58,1.59,.58c.46,0,.84-.08,1.16-.23s.59-.36,.83-.62l.79,.52c-.63,.82-1.58,1.22-2.85,1.22Zm-.16-5.68c-.52,0-.96,.16-1.31,.48-.35,.32-.57,.76-.66,1.34h3.79v-.08c-.04-.55-.21-.98-.53-1.28s-.75-.45-1.29-.45Z"/><path class="cls-1" d="M345.83,138.73c-1.03,0-1.86-.28-2.5-.85s-.96-1.32-.96-2.26v-.2c0-.63,.14-1.19,.43-1.68s.69-.88,1.2-1.16,1.07-.42,1.67-.42c.98,0,1.75,.27,2.29,.81,.55,.54,.82,1.32,.82,2.33v.45h-5.12c.02,.62,.24,1.13,.65,1.51s.95,.58,1.59,.58c.46,0,.84-.08,1.16-.23s.59-.36,.83-.62l.79,.52c-.63,.82-1.58,1.22-2.85,1.22Zm-.16-5.68c-.52,0-.96,.16-1.31,.48-.35,.32-.57,.76-.66,1.34h3.79v-.08c-.04-.55-.21-.98-.53-1.28s-.75-.45-1.29-.45Z"/><path class="cls-1" d="M351.5,132.27l.04,.8c.58-.61,1.33-.91,2.27-.91,1.6,0,2.4,.76,2.42,2.27v4.19h-1.29v-4.2c0-.46-.13-.79-.37-1.01s-.63-.33-1.14-.33c-.42,0-.79,.09-1.1,.28s-.56,.43-.74,.74v4.52h-1.29v-6.34h1.22Z"/><path class="cls-1" d="M56.03,152.73c-1.03,0-1.86-.28-2.5-.85s-.96-1.32-.96-2.26v-.2c0-.63,.14-1.19,.43-1.68s.69-.88,1.2-1.16,1.07-.42,1.67-.42c.98,0,1.75,.27,2.29,.81,.55,.54,.82,1.32,.82,2.33v.45h-5.12c.02,.62,.24,1.13,.65,1.51s.95,.58,1.59,.58c.46,0,.84-.08,1.16-.23s.59-.36,.83-.62l.79,.52c-.63,.82-1.58,1.22-2.85,1.22Zm-.16-5.68c-.52,0-.96,.16-1.31,.48-.35,.32-.57,.76-.66,1.34h3.79v-.08c-.04-.55-.21-.98-.53-1.28s-.75-.45-1.29-.45Z"/><path class="cls-1" d="M64.88,150.93c0-.29-.13-.52-.4-.68s-.72-.3-1.38-.42-1.17-.26-1.56-.42c-.38-.16-.67-.36-.85-.59s-.28-.5-.28-.81c0-.52,.26-.96,.79-1.32,.52-.36,1.19-.54,2.01-.54,.86,0,1.55,.19,2.09,.56s.8,.85,.8,1.42h-1.3c0-.3-.15-.55-.45-.77-.3-.21-.68-.32-1.14-.32s-.84,.09-1.1,.26-.4,.4-.4,.67c0,.26,.12,.46,.37,.59s.69,.26,1.34,.38,1.17,.27,1.57,.43,.7,.37,.89,.61c.19,.24,.29,.52,.29,.86,0,.57-.27,1.02-.81,1.36s-1.24,.51-2.1,.51c-.61,0-1.14-.09-1.61-.27-.47-.18-.83-.43-1.09-.75s-.4-.67-.4-1.05h1.29c.02,.36,.2,.65,.52,.86s.75,.32,1.28,.32c.49,0,.88-.08,1.18-.25s.44-.39,.44-.67Z"/><path class="cls-1" d="M71,152.73c-1.03,0-1.86-.28-2.5-.85s-.96-1.32-.96-2.26v-.2c0-.63,.14-1.19,.43-1.68s.69-.88,1.2-1.16,1.07-.42,1.67-.42c.98,0,1.75,.27,2.29,.81,.55,.54,.82,1.32,.82,2.33v.45h-5.12c.02,.62,.24,1.13,.65,1.51s.95,.58,1.59,.58c.46,0,.84-.08,1.16-.23s.59-.36,.83-.62l.79,.52c-.63,.82-1.58,1.22-2.85,1.22Zm-.16-5.68c-.52,0-.96,.16-1.31,.48-.35,.32-.57,.76-.66,1.34h3.79v-.08c-.04-.55-.21-.98-.53-1.28s-.75-.45-1.29-.45Z"/><path class="cls-1" d="M80.4,152.61h-1.29v-9h1.29v9Z"/><path class="cls-1" d="M87.13,151.99c-.5,.5-1.24,.74-2.22,.74-.81,0-1.42-.2-1.84-.59s-.64-.97-.64-1.74v-4.12h1.29v4.1c0,.96,.47,1.44,1.4,1.44,.99,0,1.65-.31,1.97-.93v-4.61h1.29v6.34h-1.23l-.03-.63Z"/><path class="cls-1" d="M90.05,149.39c0-.99,.27-1.77,.82-2.36,.55-.58,1.27-.88,2.17-.88s1.64,.27,2.16,.82l.06-.7h1.18v6.19c0,.82-.29,1.47-.87,1.94-.58,.47-1.36,.71-2.34,.71-.55,0-1.08-.1-1.6-.29-.52-.2-.92-.46-1.2-.8l.67-.65c.55,.57,1.23,.86,2.03,.86,.63,0,1.12-.15,1.47-.45,.35-.3,.53-.71,.53-1.25v-.54c-.52,.5-1.22,.75-2.12,.75s-1.6-.3-2.15-.9c-.55-.6-.82-1.41-.82-2.44Zm1.3,.12c0,.71,.17,1.28,.52,1.68s.84,.61,1.47,.61c.82,0,1.41-.31,1.8-.93v-2.89c-.4-.61-.99-.91-1.78-.91-.63,0-1.12,.21-1.48,.62s-.53,1.02-.53,1.82Z"/><path class="cls-1" d="M103.06,152.61c-.07-.12-.14-.35-.18-.67-.6,.52-1.32,.79-2.15,.79-.75,0-1.36-.18-1.83-.53-.48-.35-.72-.8-.72-1.34,0-.66,.3-1.17,.9-1.54s1.44-.55,2.53-.55h1.26v-.5c0-.38-.14-.68-.41-.91-.27-.22-.67-.34-1.2-.34-.46,0-.85,.1-1.16,.29-.31,.2-.47,.43-.47,.71h-1.3c0-.32,.13-.62,.4-.92,.27-.29,.63-.53,1.09-.7s.96-.26,1.51-.26c.87,0,1.55,.18,2.05,.55,.49,.37,.75,.87,.77,1.51v2.92c0,.58,.09,1.04,.27,1.39v.09h-1.36Zm-2.15-.83c.41,0,.79-.09,1.15-.26,.36-.18,.63-.4,.79-.69v-1.3h-1.01c-1.58,0-2.38,.39-2.38,1.17,0,.34,.14,.61,.41,.8,.27,.19,.62,.29,1.04,.29Z"/><path class="cls-1" d="M109.83,147.25c-.2-.03-.41-.04-.64-.04-.85,0-1.42,.3-1.73,.91v4.5h-1.29v-6.34h1.26l.02,.73c.42-.57,1.03-.85,1.8-.85,.25,0,.44,.03,.57,.08v1.01Z"/><path class="cls-1" d="M118.97,150.93c0-.29-.13-.52-.4-.68s-.72-.3-1.38-.42-1.17-.26-1.56-.42c-.38-.16-.67-.36-.85-.59s-.28-.5-.28-.81c0-.52,.26-.96,.79-1.32,.52-.36,1.19-.54,2.01-.54,.86,0,1.55,.19,2.09,.56s.8,.85,.8,1.42h-1.3c0-.3-.15-.55-.45-.77-.3-.21-.68-.32-1.14-.32s-.84,.09-1.1,.26-.4,.4-.4,.67c0,.26,.12,.46,.37,.59s.69,.26,1.34,.38,1.17,.27,1.57,.43,.7,.37,.89,.61c.19,.24,.29,.52,.29,.86,0,.57-.27,1.02-.81,1.36s-1.24,.51-2.1,.51c-.61,0-1.14-.09-1.61-.27-.47-.18-.83-.43-1.09-.75s-.4-.67-.4-1.05h1.29c.02,.36,.2,.65,.52,.86s.75,.32,1.28,.32c.49,0,.88-.08,1.18-.25s.44-.39,.44-.67Z"/><path class="cls-1" d="M125.08,152.73c-1.03,0-1.86-.28-2.5-.85s-.96-1.32-.96-2.26v-.2c0-.63,.14-1.19,.43-1.68s.69-.88,1.2-1.16,1.07-.42,1.67-.42c.98,0,1.75,.27,2.29,.81,.55,.54,.82,1.32,.82,2.33v.45h-5.12c.02,.62,.24,1.13,.65,1.51s.95,.58,1.59,.58c.46,0,.84-.08,1.16-.23s.59-.36,.83-.62l.79,.52c-.63,.82-1.58,1.22-2.85,1.22Zm-.16-5.68c-.52,0-.96,.16-1.31,.48-.35,.32-.57,.76-.66,1.34h3.79v-.08c-.04-.55-.21-.98-.53-1.28s-.75-.45-1.29-.45Z"/><path class="cls-1" d="M136.21,152.73c-1.03,0-1.86-.28-2.5-.85s-.96-1.32-.96-2.26v-.2c0-.63,.14-1.19,.43-1.68s.69-.88,1.2-1.16,1.07-.42,1.67-.42c.98,0,1.75,.27,2.29,.81,.55,.54,.82,1.32,.82,2.33v.45h-5.12c.02,.62,.24,1.13,.65,1.51s.95,.58,1.59,.58c.46,0,.84-.08,1.16-.23s.59-.36,.83-.62l.79,.52c-.63,.82-1.58,1.22-2.85,1.22Zm-.16-5.68c-.52,0-.96,.16-1.31,.48-.35,.32-.57,.76-.66,1.34h3.79v-.08c-.04-.55-.21-.98-.53-1.28s-.75-.45-1.29-.45Z"/><path class="cls-1" d="M140.34,149.39c0-.97,.27-1.75,.82-2.35s1.27-.89,2.16-.89,1.59,.25,2.1,.76v-3.3h1.29v9h-1.19l-.06-.68c-.52,.53-1.24,.8-2.16,.8s-1.59-.3-2.14-.9-.83-1.39-.83-2.36v-.08Zm1.29,.12c0,.72,.18,1.28,.53,1.69,.35,.41,.84,.61,1.47,.61,.82,0,1.42-.31,1.8-.93v-2.91c-.39-.6-.98-.9-1.78-.9-.63,0-1.13,.21-1.48,.62-.35,.41-.53,1.02-.53,1.82Z"/><path class="cls-1" d="M148.74,144.59c0-.18,.06-.32,.19-.45,.13-.12,.32-.18,.57-.18s.44,.06,.57,.18,.2,.27,.2,.45-.07,.32-.2,.44-.32,.18-.57,.18-.44-.06-.57-.18c-.13-.12-.19-.26-.19-.44Zm1.4,8.02h-1.29v-6.34h1.29v6.34Z"/><path class="cls-1" d="M152.84,152.61v-5.5h-1.2v-.84h1.2v-.65c0-.68,.22-1.21,.65-1.58,.43-.37,1.05-.56,1.84-.56,.3,0,.59,.03,.89,.1l-.07,.87c-.22-.04-.45-.05-.7-.05-.42,0-.74,.1-.97,.31-.23,.21-.34,.5-.34,.88v.67h1.61v.84h-1.61v5.5h-1.29Z"/><path class="cls-1" d="M157.18,144.59c0-.18,.06-.32,.19-.45,.13-.12,.32-.18,.57-.18s.44,.06,.57,.18,.2,.27,.2,.45-.07,.32-.2,.44-.32,.18-.57,.18-.44-.06-.57-.18c-.13-.12-.19-.26-.19-.44Zm1.4,8.02h-1.29v-6.34h1.29v6.34Z"/><path class="cls-1" d="M163.68,151.85c.46,0,.86-.12,1.21-.35s.54-.53,.57-.88h1.22c-.02,.36-.17,.71-.45,1.04s-.64,.59-1.1,.79-.94,.29-1.46,.29c-1.03,0-1.85-.29-2.46-.86-.61-.58-.91-1.36-.91-2.36v-.18c0-.62,.14-1.17,.41-1.65,.27-.48,.66-.85,1.16-1.12,.51-.27,1.1-.4,1.79-.4,.85,0,1.55,.21,2.11,.64,.56,.43,.86,.98,.9,1.66h-1.22c-.04-.41-.22-.75-.56-1.01-.33-.26-.74-.4-1.23-.4-.66,0-1.17,.2-1.53,.59-.36,.4-.54,.97-.54,1.72v.21c0,.73,.18,1.29,.54,1.69s.87,.59,1.54,.59Z"/><path class="cls-1" d="M172.81,152.61c-.07-.12-.14-.35-.18-.67-.6,.52-1.32,.79-2.15,.79-.75,0-1.36-.18-1.83-.53-.48-.35-.72-.8-.72-1.34,0-.66,.3-1.17,.9-1.54s1.44-.55,2.53-.55h1.26v-.5c0-.38-.14-.68-.41-.91-.27-.22-.67-.34-1.2-.34-.46,0-.85,.1-1.16,.29-.31,.2-.47,.43-.47,.71h-1.3c0-.32,.13-.62,.4-.92,.27-.29,.63-.53,1.09-.7s.96-.26,1.51-.26c.87,0,1.55,.18,2.05,.55,.49,.37,.75,.87,.77,1.51v2.92c0,.58,.09,1.04,.27,1.39v.09h-1.36Zm-2.15-.83c.41,0,.79-.09,1.15-.26,.36-.18,.63-.4,.79-.69v-1.3h-1.01c-1.58,0-2.38,.39-2.38,1.17,0,.34,.14,.61,.41,.8,.27,.19,.62,.29,1.04,.29Z"/><path class="cls-1" d="M179.59,147.25c-.2-.03-.41-.04-.64-.04-.85,0-1.42,.3-1.73,.91v4.5h-1.29v-6.34h1.26l.02,.73c.42-.57,1.03-.85,1.8-.85,.25,0,.44,.03,.57,.08v1.01Z"/><path class="cls-1" d="M185.16,152.61c-.07-.12-.14-.35-.18-.67-.6,.52-1.32,.79-2.15,.79-.75,0-1.36-.18-1.83-.53-.48-.35-.72-.8-.72-1.34,0-.66,.3-1.17,.9-1.54s1.44-.55,2.53-.55h1.26v-.5c0-.38-.14-.68-.41-.91-.27-.22-.67-.34-1.2-.34-.46,0-.85,.1-1.16,.29-.31,.2-.47,.43-.47,.71h-1.3c0-.32,.13-.62,.4-.92,.27-.29,.63-.53,1.09-.7s.96-.26,1.51-.26c.87,0,1.55,.18,2.05,.55,.49,.37,.75,.87,.77,1.51v2.92c0,.58,.09,1.04,.27,1.39v.09h-1.36Zm-2.15-.83c.41,0,.79-.09,1.15-.26,.36-.18,.63-.4,.79-.69v-1.3h-1.01c-1.58,0-2.38,.39-2.38,1.17,0,.34,.14,.61,.41,.8,.27,.19,.62,.29,1.04,.29Z"/><path class="cls-1" d="M196.5,151.99c-.5,.5-1.24,.74-2.22,.74-.81,0-1.42-.2-1.84-.59s-.64-.97-.64-1.74v-4.12h1.29v4.1c0,.96,.47,1.44,1.4,1.44,.99,0,1.65-.31,1.97-.93v-4.61h1.29v6.34h-1.23l-.03-.63Z"/><path class="cls-1" d="M200.94,146.27l.04,.8c.58-.61,1.33-.91,2.27-.91,1.6,0,2.4,.76,2.42,2.27v4.19h-1.29v-4.2c0-.46-.13-.79-.37-1.01s-.63-.33-1.14-.33c-.42,0-.79,.09-1.1,.28s-.56,.43-.74,.74v4.52h-1.29v-6.34h1.22Z"/><path class="cls-1" d="M212.29,152.61c-.07-.12-.14-.35-.18-.67-.6,.52-1.32,.79-2.15,.79-.75,0-1.36-.18-1.83-.53-.48-.35-.72-.8-.72-1.34,0-.66,.3-1.17,.9-1.54s1.44-.55,2.53-.55h1.26v-.5c0-.38-.14-.68-.41-.91-.27-.22-.67-.34-1.2-.34-.46,0-.85,.1-1.16,.29-.31,.2-.47,.43-.47,.71h-1.3c0-.32,.13-.62,.4-.92,.27-.29,.63-.53,1.09-.7s.96-.26,1.51-.26c.87,0,1.55,.18,2.05,.55,.49,.37,.75,.87,.77,1.51v2.92c0,.58,.09,1.04,.27,1.39v.09h-1.36Zm-2.15-.83c.41,0,.79-.09,1.15-.26,.36-.18,.63-.4,.79-.69v-1.3h-1.01c-1.58,0-2.38,.39-2.38,1.17,0,.34,.14,.61,.41,.8,.27,.19,.62,.29,1.04,.29Z"/><path class="cls-1" d="M218.96,144.59c0-.18,.06-.32,.19-.45,.13-.12,.32-.18,.57-.18s.44,.06,.57,.18,.2,.27,.2,.45-.07,.32-.2,.44-.32,.18-.57,.18-.44-.06-.57-.18c-.13-.12-.19-.26-.19-.44Zm1.4,8.02h-1.29v-6.34h1.29v6.34Z"/><path class="cls-1" d="M222.11,149.39c0-.99,.27-1.77,.82-2.36,.55-.58,1.27-.88,2.17-.88s1.64,.27,2.16,.82l.06-.7h1.18v6.19c0,.82-.29,1.47-.87,1.94-.58,.47-1.36,.71-2.34,.71-.55,0-1.08-.1-1.6-.29-.52-.2-.92-.46-1.2-.8l.67-.65c.55,.57,1.23,.86,2.03,.86,.63,0,1.12-.15,1.47-.45,.35-.3,.53-.71,.53-1.25v-.54c-.52,.5-1.22,.75-2.12,.75s-1.6-.3-2.15-.9c-.55-.6-.82-1.41-.82-2.44Zm1.3,.12c0,.71,.17,1.28,.52,1.68s.84,.61,1.47,.61c.82,0,1.41-.31,1.8-.93v-2.89c-.4-.61-.99-.91-1.78-.91-.63,0-1.12,.21-1.48,.62s-.53,1.02-.53,1.82Z"/><path class="cls-1" d="M231.86,152.61h-1.29v-9h1.29v9Z"/><path class="cls-1" d="M237.07,152.73c-1.03,0-1.86-.28-2.5-.85s-.96-1.32-.96-2.26v-.2c0-.63,.14-1.19,.43-1.68s.69-.88,1.2-1.16,1.07-.42,1.67-.42c.98,0,1.75,.27,2.29,.81,.55,.54,.82,1.32,.82,2.33v.45h-5.12c.02,.62,.24,1.13,.65,1.51s.95,.58,1.59,.58c.46,0,.84-.08,1.16-.23s.59-.36,.83-.62l.79,.52c-.63,.82-1.58,1.22-2.85,1.22Zm-.16-5.68c-.52,0-.96,.16-1.31,.48-.35,.32-.57,.76-.66,1.34h3.79v-.08c-.04-.55-.21-.98-.53-1.28s-.75-.45-1.29-.45Z"/><path class="cls-1" d="M245.92,150.93c0-.29-.13-.52-.4-.68s-.72-.3-1.38-.42-1.17-.26-1.56-.42c-.38-.16-.67-.36-.85-.59s-.28-.5-.28-.81c0-.52,.26-.96,.79-1.32,.52-.36,1.19-.54,2.01-.54,.86,0,1.55,.19,2.09,.56s.8,.85,.8,1.42h-1.3c0-.3-.15-.55-.45-.77-.3-.21-.68-.32-1.14-.32s-.84,.09-1.1,.26-.4,.4-.4,.67c0,.26,.12,.46,.37,.59s.69,.26,1.34,.38,1.17,.27,1.57,.43,.7,.37,.89,.61c.19,.24,.29,.52,.29,.86,0,.57-.27,1.02-.81,1.36s-1.24,.51-2.1,.51c-.61,0-1.14-.09-1.61-.27-.47-.18-.83-.43-1.09-.75s-.4-.67-.4-1.05h1.29c.02,.36,.2,.65,.52,.86s.75,.32,1.28,.32c.49,0,.88-.08,1.18-.25s.44-.39,.44-.67Z"/><path class="cls-1" d="M248.9,144.59c0-.18,.06-.32,.19-.45,.13-.12,.32-.18,.57-.18s.44,.06,.57,.18,.2,.27,.2,.45-.07,.32-.2,.44-.32,.18-.57,.18-.44-.06-.57-.18c-.13-.12-.19-.26-.19-.44Zm1.4,8.02h-1.29v-6.34h1.29v6.34Z"/><path class="cls-1" d="M257.04,152.61c-.07-.12-.14-.35-.18-.67-.6,.52-1.32,.79-2.15,.79-.75,0-1.36-.18-1.83-.53-.48-.35-.72-.8-.72-1.34,0-.66,.3-1.17,.9-1.54s1.44-.55,2.53-.55h1.26v-.5c0-.38-.14-.68-.41-.91-.27-.22-.67-.34-1.2-.34-.46,0-.85,.1-1.16,.29-.31,.2-.47,.43-.47,.71h-1.3c0-.32,.13-.62,.4-.92,.27-.29,.63-.53,1.09-.7s.96-.26,1.51-.26c.87,0,1.55,.18,2.05,.55,.49,.37,.75,.87,.77,1.51v2.92c0,.58,.09,1.04,.27,1.39v.09h-1.36Zm-2.15-.83c.41,0,.79-.09,1.15-.26,.36-.18,.63-.4,.79-.69v-1.3h-1.01c-1.58,0-2.38,.39-2.38,1.17,0,.34,.14,.61,.41,.8,.27,.19,.62,.29,1.04,.29Z"/><path class="cls-1" d="M260.18,152.05c0-.19,.07-.34,.2-.47s.33-.19,.6-.19,.47,.06,.6,.19c.14,.12,.21,.28,.21,.47s-.07,.33-.21,.45c-.14,.12-.34,.18-.6,.18s-.46-.06-.6-.18-.2-.27-.2-.45Z"/><path class="cls-1" d="M267.42,149.15c0-.88,.14-1.73,.42-2.54s.7-1.55,1.26-2.21,1.14-1.13,1.74-1.41l.27,.71c-.68,.44-1.24,1.11-1.67,2s-.67,1.9-.72,3.02v.5c0,1.51,.32,2.82,.98,3.93,.4,.66,.87,1.18,1.41,1.56l-.27,.66c-.62-.29-1.21-.77-1.78-1.45-1.1-1.33-1.65-2.92-1.65-4.76Z"/><path class="cls-1" d="M279.73,144.08v5.8c0,.8-.31,1.46-.91,1.97-.6,.51-1.41,.8-2.44,.86h-.36c-1.11,.01-2-.24-2.66-.74-.66-.5-1-1.2-1.01-2.08v-5.81h1.33v5.78c0,.62,.2,1.1,.61,1.44,.41,.34,.98,.51,1.73,.51s1.34-.17,1.74-.51c.4-.34,.6-.82,.6-1.44v-5.78h1.35Z"/><path class="cls-1" d="M285.3,147.25c-.2-.03-.41-.04-.64-.04-.85,0-1.42,.3-1.73,.91v4.5h-1.29v-6.34h1.26l.02,.73c.42-.57,1.03-.85,1.8-.85,.25,0,.44,.03,.57,.08v1.01Z"/><path class="cls-1" d="M286.49,144.59c0-.18,.06-.32,.19-.45,.13-.12,.32-.18,.57-.18s.44,.06,.57,.18,.2,.27,.2,.45-.07,.32-.2,.44-.32,.18-.57,.18-.44-.06-.57-.18c-.13-.12-.19-.26-.19-.44Zm1.4,8.02h-1.29v-6.34h1.29v6.34Z"/><path class="cls-1" d="M296.36,149.52c0,.97-.27,1.75-.8,2.33s-1.24,.88-2.14,.88c-.96,0-1.69-.28-2.22-.85l-.06,.73h-1.19v-9h1.29v3.36c.52-.54,1.24-.81,2.16-.81s1.64,.29,2.16,.87,.79,1.38,.79,2.39v.09Zm-1.29-.12c0-.74-.17-1.31-.51-1.71s-.83-.6-1.47-.6c-.85,0-1.47,.33-1.84,1v2.74c.4,.66,1.01,1,1.85,1,.62,0,1.1-.2,1.45-.6,.34-.4,.52-1.01,.52-1.82Z"/><path class="cls-1" d="M301.13,152.73c-1.03,0-1.86-.28-2.5-.85s-.96-1.32-.96-2.26v-.2c0-.63,.14-1.19,.43-1.68s.69-.88,1.2-1.16,1.07-.42,1.67-.42c.98,0,1.75,.27,2.29,.81,.55,.54,.82,1.32,.82,2.33v.45h-5.12c.02,.62,.24,1.13,.65,1.51s.95,.58,1.59,.58c.46,0,.84-.08,1.16-.23s.59-.36,.83-.62l.79,.52c-.63,.82-1.58,1.22-2.85,1.22Zm-.16-5.68c-.52,0-.96,.16-1.31,.48-.35,.32-.57,.76-.66,1.34h3.79v-.08c-.04-.55-.21-.98-.53-1.28s-.75-.45-1.29-.45Z"/><path class="cls-1" d="M305.54,154.31l-.73-.42c.44-.51,.67-1.04,.69-1.58v-.98h1.27v.85c0,.39-.12,.79-.35,1.18-.23,.39-.52,.71-.87,.95Z"/><path class="cls-1" d="M316.05,152.61h-1.3v-7.22l-2.61,.8v-.98l3.7-1.17h.2v8.57Z"/><path class="cls-1" d="M324.79,148.86c-.27,.27-.59,.49-.97,.65-.38,.16-.79,.25-1.23,.25-.59,0-1.1-.12-1.53-.36-.44-.24-.77-.58-1.01-1.02-.24-.44-.36-.92-.36-1.46,0-.57,.13-1.08,.39-1.54s.63-.81,1.1-1.05c.48-.24,1.03-.36,1.66-.36,1.01,0,1.8,.32,2.38,.95,.58,.63,.87,1.49,.87,2.58v.32c0,1.66-.39,2.87-1.17,3.64-.78,.76-1.96,1.16-3.54,1.17h-.25v-.92h.27c1.07-.02,1.89-.25,2.46-.7s.89-1.16,.94-2.14Zm-1.99,0c.43,0,.83-.11,1.2-.33s.63-.5,.8-.83v-.43c0-.71-.18-1.29-.55-1.73-.37-.45-.83-.67-1.4-.67s-1.02,.18-1.37,.55c-.34,.37-.52,.85-.52,1.44s.17,1.06,.5,1.44c.33,.38,.78,.57,1.34,.57Z"/><path class="cls-1" d="M334.45,144.69l-4.21,7.92h-1.36l4.2-7.64h-5.51v-.89h6.88v.61Z"/><path class="cls-1" d="M340.99,144.08v.92h-.24c-1.01,.02-1.81,.27-2.4,.75s-.94,1.17-1.03,2.04c.54-.52,1.27-.77,2.2-.77s1.59,.26,2.12,.79c.53,.52,.79,1.2,.79,2.03,0,.88-.29,1.58-.86,2.11-.57,.53-1.34,.79-2.3,.79s-1.76-.31-2.37-.94c-.61-.63-.91-1.43-.91-2.42v-.42c0-1.57,.4-2.77,1.2-3.6s1.99-1.25,3.57-1.27h.23Zm-1.7,3.84c-.44,0-.85,.11-1.22,.33-.37,.22-.63,.5-.78,.84v.4c0,.7,.19,1.27,.57,1.7s.85,.64,1.41,.64,1.04-.18,1.37-.54c.33-.36,.5-.83,.5-1.41s-.17-1.06-.51-1.42c-.34-.36-.79-.54-1.35-.54Z"/><path class="cls-1" d="M347.07,149.21c0,.87-.14,1.71-.41,2.5-.27,.8-.69,1.54-1.25,2.21s-1.15,1.16-1.77,1.44l-.27-.66c.72-.46,1.29-1.18,1.73-2.15s.66-2.05,.67-3.23v-.19c0-.82-.1-1.58-.31-2.29s-.49-1.34-.86-1.9c-.37-.56-.78-.99-1.23-1.31l.27-.66c.62,.29,1.2,.76,1.76,1.43,.56,.67,.97,1.4,1.25,2.21s.42,1.67,.42,2.58Z"/></g><circle class="cls-1" cx="200" cy="202" r="6.98"/><g><path class="cls-1" d="M186.28,95.6h-2.13v-10.28l-3.14,1.07v-1.79l4.99-1.84h.27v12.84Z"/><path class="cls-1" d="M191.3,89.25l.69-6.45h6.87v1.85h-5.1l-.35,3.06c.59-.34,1.26-.51,2-.51,1.22,0,2.17,.39,2.84,1.17s1.02,1.83,1.02,3.15-.38,2.34-1.12,3.11c-.75,.77-1.78,1.16-3.08,1.16-1.17,0-2.14-.33-2.91-1-.77-.66-1.19-1.54-1.25-2.63h2.07c.08,.62,.3,1.1,.67,1.43s.84,.5,1.42,.5c.66,0,1.17-.23,1.53-.7s.55-1.11,.55-1.92-.2-1.4-.61-1.85-.96-.68-1.67-.68c-.39,0-.71,.05-.98,.15s-.56,.3-.88,.6l-1.71-.42Z"/><path class="cls-1" d="M208.18,91.04h1.59v1.71h-1.59v2.85h-2.14v-2.85h-5.53l-.06-1.3,5.52-8.65h2.21v8.24Zm-5.48,0h3.35v-5.34l-.16,.28-3.19,5.06Z"/><path class="cls-1" d="M219.53,90.21c0,1.84-.34,3.23-1.03,4.16-.69,.94-1.74,1.4-3.14,1.4s-2.42-.46-3.12-1.37c-.7-.91-1.06-2.26-1.08-4.05v-2.21c0-1.84,.34-3.22,1.03-4.14s1.74-1.38,3.15-1.38,2.44,.45,3.13,1.34,1.04,2.24,1.06,4.03v2.21Zm-2.14-2.39c0-1.2-.16-2.08-.49-2.64-.33-.56-.85-.84-1.56-.84s-1.21,.27-1.54,.8-.5,1.36-.52,2.48v2.9c0,1.2,.17,2.09,.5,2.67s.86,.88,1.57,.88,1.19-.27,1.52-.81,.5-1.39,.52-2.54v-2.89Z"/></g></svg>