<?xml version="1.0" encoding="UTF-8"?><svg id="Capa_1" xmlns="http://www.w3.org/2000/svg" viewBox="0 0 600 400"><defs><style>.cls-1{fill:#fff;}.cls-2{fill:#020202;}.cls-3{fill:none;stroke:#020202;stroke-linecap:square;stroke-miterlimit:10;stroke-width:3px;}</style></defs><g><line class="cls-3" x1="-2378.44" y1="202" x2="1798.55" y2="202"/><line class="cls-1" x1="-2396.55" y1="202" x2="1798.55" y2="202"/></g><path class="cls-2" d="M356.03,87.57c-.68,.7-1.34,1.41-2.03,2.1-20.83,20.83-41.67,41.66-62.47,62.51-1.02,1.02-1.97,1.33-3.39,1.04-14.09-2.87-28.2-5.68-42.3-8.51-1.43-.29-1.84-.78-1.84-2.23,0-3.17-.06-6.35,.04-9.51,.02-.75,.41-1.64,.93-2.18,2.56-2.69,5.22-5.3,7.86-7.92,.28-.28,.65-.47,.98-.7l-.17-.36c-1.54-.32-3.08-.64-4.62-.96-1.14-.23-2.29-.45-3.43-.68-1.04-.21-1.59-.83-1.6-1.9,0-3.39-.06-6.78,.04-10.17,.02-.66,.51-1.43,1.01-1.93,9.07-9.13,18.18-18.22,27.28-27.32,12.09-12.09,24.19-24.18,36.28-36.27,.41-.41,.83-.79,1.24-1.19h1.31c.17,.07,.32,.16,.5,.2,13.98,2.79,27.97,5.56,41.94,8.4,.86,.17,1.62,.82,2.42,1.25v11.82c-3.23,3.28-6.46,6.55-9.81,9.95,2.61,.52,4.96,.99,7.31,1.44,.97,.19,1.91,.39,2.5,1.3v11.82Zm-73.29,25.95c.1-.36,.16-.56,.21-.77,3.93-17.18,11.22-32.79,21.86-46.86,4.79-6.33,10.38-11.93,15.81-17.67,.29-.31,.57-.63,.98-1.07-1.38-.28-2.6-.47-3.78-.77-.66-.17-1.06-.02-1.52,.45-2.92,2.96-5.87,5.89-8.81,8.83-15.98,16-29.6,33.81-40.86,53.42-.19,.33-.35,.67-.58,1.11l16.7,3.33Zm3.48,.65c.41,.11,.73,.16,1.03,.28,1.21,.45,2.03,.05,2.93-.88,4.14-4.26,8.39-8.42,12.55-12.66,.48-.49,.86-1.28,.93-1.96,1.42-13.48,6.4-25.48,15.35-35.64,4.03-4.58,8.69-8.62,13.07-12.89,.27-.27,.67-.41,1-.61l-.26-.4c-2.06-.41-4.13-.77-6.17-1.26-.77-.18-1.2,.03-1.69,.56-1.3,1.43-2.64,2.82-3.99,4.21-5.7,5.91-11.28,11.91-16,18.66-9.04,12.94-15.3,27.09-18.77,42.6Zm21.35-18.54c14.27-14.26,28.51-28.5,42.72-42.71-.08-.02-.32-.09-.57-.14-3.78-.76-7.57-1.48-11.35-2.28-.77-.17-1.28-.03-1.84,.51-3.45,3.3-6.94,6.55-10.41,9.83-8.09,7.66-13.72,16.84-16.83,27.53-.7,2.42-1.17,4.91-1.73,7.26Zm-58.16,11.15c.29,.11,.42,.18,.56,.21,3.71,.74,7.43,1.44,11.13,2.25,1,.22,1.45-.04,1.94-.91,6.45-11.45,13.81-22.29,21.93-32.63,8.15-10.37,17.22-19.89,26.64-29.11,.36-.35,.82-.6,1.33-.98-1.24-.66-1.92-.53-2.7,.25-19.98,20.03-40,40.03-60,60.04-.25,.25-.5,.52-.83,.87Zm103.12-50.34l-.33-.21c-.24,.32-.45,.67-.72,.95-3.65,3.67-7.32,7.33-10.98,10.99-16.14,16.14-32.27,32.27-48.4,48.42-.32,.32-.77,.72-.79,1.1-.09,1.66-.04,3.32-.04,5.19,.45-.42,.74-.67,1.01-.94,8.43-8.43,16.86-16.86,25.29-25.29,11.39-11.39,22.79-22.79,34.17-34.19,.34-.34,.74-.8,.76-1.22,.09-1.59,.04-3.19,.04-4.79Zm-61.27,91.06c1.55-1.57,2.87-2.92,4.2-4.25,18.77-18.77,37.53-37.53,56.3-56.3,.28-.28,.71-.6,.72-.91,.07-1.71,.03-3.43,.03-5.15l-.27-.09c-.26,.31-.5,.63-.78,.91-6.18,6.19-12.37,12.38-18.56,18.56-13.64,13.64-27.28,27.27-40.9,40.92-.33,.33-.68,.82-.7,1.25-.08,1.56-.03,3.13-.03,5.06Zm-6.56-9.09c1.08,.21,2.09,.33,3.05,.63,.9,.28,1.45,0,2.09-.64,8.38-8.43,16.77-16.85,25.22-25.2,1.65-1.63,2.81-3.27,3.11-5.71,.35-2.86,1.3-5.65,1.99-8.46-.4,.13-.59,.54-.89,.85-8.96,8.98-17.93,17.96-26.92,26.91-.9,.89-1.58,2.17-3.12,2.18-.1,0-.23,.17-.3,.29-1.75,2.86-3.19,5.86-4.24,9.16Zm-37.2-28.36c0,2.23-.03,4.3,.04,6.37,0,.24,.5,.62,.82,.69,11.16,2.27,22.32,4.5,33.48,6.74,1.94,.39,3.89,.76,5.92,1.16,0-2.06-.04-3.99,.02-5.92,.02-.76-.18-1.05-.97-1.2-9-1.77-17.98-3.58-26.97-5.38-4.06-.81-8.13-1.62-12.34-2.46Zm0,24.51c0,2.13,.03,4.09-.01,6.06-.01,.67,.17,.91,.87,1.05,11.17,2.21,22.33,4.46,33.49,6.7,1.94,.39,3.89,.76,5.92,1.15,0-2.06-.04-3.99,.02-5.92,.02-.77-.2-1.04-.98-1.19-9-1.77-17.98-3.58-26.97-5.38-4.06-.81-8.13-1.62-12.34-2.46Zm74.47-28.55c9.57-9.58,19.02-19.03,28.49-28.51-.13-.05-.32-.15-.52-.19-1.96-.39-3.94-.73-5.89-1.19-.68-.16-1.06,.02-1.52,.48-3.47,3.5-7.02,6.91-10.41,10.47-1.75,1.84-3.38,3.83-4.82,5.92-2.68,3.91-4.4,8.26-5.33,13.01Zm-36.69,22.1c-1.35-.27-2.74-.54-4.12-.82-3.75-.75-7.49-1.52-11.24-2.24-.36-.07-1.05,.11-1.14,.35-1.2,2.99-2.32,6.01-3.51,9.13,5.46,1.09,10.65,2.13,15.75,3.15,1.44-3.23,2.83-6.37,4.26-9.57Zm-23.4,5.74l3.45-9.73c-2.27-.45-4.57-.93-6.89-1.33-.3-.05-.75,.21-1,.45-2.54,2.5-5.06,5.03-7.59,7.56-.14,.14-.24,.31-.44,.58,4.25,.84,8.38,1.66,12.46,2.48Z"/><g><path class="cls-2" d="M153.2,244.27c-.12,.9-.52,1.6-1.18,2.09-.66,.49-1.55,.74-2.65,.74-1.19,0-2.15-.36-2.87-1.08-.72-.72-1.08-1.69-1.08-2.9v-.82c0-.79,.17-1.49,.5-2.09,.33-.6,.81-1.06,1.43-1.39s1.33-.48,2.14-.48c1.07,0,1.93,.25,2.58,.76s1.02,1.21,1.13,2.1h-1.34c-.12-.68-.37-1.18-.75-1.48-.39-.31-.93-.46-1.62-.46-.85,0-1.52,.27-2,.8-.48,.53-.72,1.29-.72,2.27v.83c0,.93,.23,1.66,.69,2.21,.46,.55,1.1,.82,1.92,.82,.74,0,1.31-.14,1.7-.42s.66-.78,.79-1.48h1.34Z"/><path class="cls-2" d="M154.48,243.75c0-.62,.14-1.18,.43-1.68s.69-.88,1.21-1.15,1.1-.4,1.77-.4c1.02,0,1.85,.3,2.48,.9s.95,1.39,.95,2.38v.08c0,.62-.14,1.17-.42,1.66-.28,.49-.68,.87-1.2,1.15s-1.12,.41-1.79,.41c-1.02,0-1.84-.3-2.47-.9-.63-.6-.95-1.39-.95-2.37v-.08Zm1.29,.13c0,.7,.19,1.27,.58,1.69,.39,.43,.9,.64,1.55,.64s1.17-.22,1.55-.65c.38-.43,.58-1.04,.58-1.81,0-.7-.2-1.26-.59-1.69s-.91-.65-1.56-.65-1.14,.21-1.53,.64-.58,1.04-.58,1.83Z"/><path class="cls-2" d="M164.14,240.64l.04,.8c.57-.61,1.32-.91,2.25-.91,1.59,0,2.39,.76,2.4,2.27v4.19h-1.28v-4.2c0-.46-.13-.79-.37-1.01-.24-.22-.62-.33-1.13-.33-.42,0-.78,.09-1.1,.28s-.56,.43-.74,.74v4.52h-1.28v-6.34h1.21Z"/><path class="cls-2" d="M177.4,247.1c-1.02,0-1.85-.28-2.48-.85-.64-.56-.96-1.32-.96-2.26v-.2c0-.63,.14-1.19,.43-1.68,.28-.49,.68-.88,1.19-1.16,.51-.28,1.06-.42,1.66-.42,.98,0,1.74,.27,2.28,.81s.81,1.32,.81,2.33v.45h-5.09c.02,.62,.23,1.13,.65,1.51s.94,.58,1.58,.58c.45,0,.84-.08,1.15-.23s.59-.36,.83-.62l.78,.52c-.63,.82-1.57,1.22-2.83,1.22Zm-.16-5.68c-.52,0-.95,.16-1.3,.48s-.57,.76-.65,1.34h3.76v-.08c-.04-.55-.21-.98-.53-1.28-.32-.3-.74-.45-1.28-.45Z"/><path class="cls-2" d="M183.2,246.98h-1.28v-9h1.28v9Z"/><path class="cls-2" d="M190.52,239.11v1.54h1.4v.84h-1.4v3.94c0,.25,.06,.44,.19,.57,.12,.13,.34,.19,.64,.19,.15,0,.35-.02,.61-.07v.87c-.34,.08-.67,.12-.99,.12-.57,0-1.01-.15-1.3-.44-.29-.29-.44-.71-.44-1.25v-3.93h-1.37v-.84h1.37v-1.54h1.28Z"/><path class="cls-2" d="M193.42,238.96c0-.18,.06-.32,.19-.45s.32-.18,.57-.18,.44,.06,.57,.18c.13,.12,.19,.27,.19,.45s-.07,.32-.19,.44c-.13,.12-.32,.18-.57,.18s-.44-.06-.57-.18-.19-.26-.19-.44Zm1.39,8.02h-1.28v-6.34h1.28v6.34Z"/><path class="cls-2" d="M199.98,247.1c-1.02,0-1.85-.28-2.48-.85-.64-.56-.96-1.32-.96-2.26v-.2c0-.63,.14-1.19,.43-1.68,.28-.49,.68-.88,1.19-1.16,.51-.28,1.06-.42,1.66-.42,.98,0,1.74,.27,2.28,.81s.81,1.32,.81,2.33v.45h-5.09c.02,.62,.23,1.13,.65,1.51s.94,.58,1.58,.58c.45,0,.84-.08,1.15-.23s.59-.36,.83-.62l.78,.52c-.63,.82-1.57,1.22-2.83,1.22Zm-.16-5.68c-.52,0-.95,.16-1.3,.48s-.57,.76-.65,1.34h3.76v-.08c-.04-.55-.21-.98-.53-1.28-.32-.3-.74-.45-1.28-.45Z"/><path class="cls-2" d="M205.6,240.64l.03,.7c.55-.55,1.29-.82,2.23-.82,1.05,0,1.76,.34,2.14,1.02,.25-.3,.58-.55,.98-.74,.4-.19,.87-.28,1.42-.28,1.65,0,2.48,.74,2.51,2.21v4.25h-1.28v-4.18c0-.45-.12-.79-.37-1.02s-.66-.34-1.24-.34c-.48,0-.87,.12-1.19,.36s-.5,.56-.55,.97v4.21h-1.29v-4.15c0-.92-.53-1.38-1.6-1.38-.84,0-1.42,.3-1.73,.91v4.63h-1.28v-6.34h1.21Z"/><path class="cls-2" d="M223.19,243.88c0,.96-.26,1.74-.78,2.33-.52,.59-1.23,.88-2.12,.88s-1.63-.24-2.15-.73v3.05h-1.28v-8.78h1.17l.06,.7c.52-.55,1.25-.82,2.18-.82s1.62,.29,2.14,.86,.79,1.37,.79,2.4v.1Zm-1.28-.12c0-.71-.18-1.28-.54-1.69-.36-.41-.86-.62-1.49-.62-.78,0-1.36,.29-1.75,.87v3.03c.38,.58,.97,.87,1.76,.87,.62,0,1.1-.21,1.47-.62s.54-1.02,.54-1.84Z"/><path class="cls-2" d="M224.48,243.75c0-.62,.14-1.18,.43-1.68s.69-.88,1.21-1.15,1.1-.4,1.77-.4c1.02,0,1.85,.3,2.48,.9s.95,1.39,.95,2.38v.08c0,.62-.14,1.17-.42,1.66-.28,.49-.68,.87-1.2,1.15s-1.12,.41-1.79,.41c-1.02,0-1.84-.3-2.47-.9-.63-.6-.95-1.39-.95-2.37v-.08Zm1.29,.13c0,.7,.19,1.27,.58,1.69,.39,.43,.9,.64,1.55,.64s1.17-.22,1.55-.65c.38-.43,.58-1.04,.58-1.81,0-.7-.2-1.26-.59-1.69s-.91-.65-1.56-.65-1.14,.21-1.53,.64-.58,1.04-.58,1.83Z"/><path class="cls-2" d="M240.07,241.61c-.19-.03-.4-.04-.63-.04-.84,0-1.41,.3-1.71,.91v4.5h-1.28v-6.34h1.25l.02,.73c.42-.57,1.02-.85,1.79-.85,.25,0,.44,.03,.57,.08v1.01Z"/><path class="cls-2" d="M244.23,247.1c-1.02,0-1.85-.28-2.48-.85-.64-.56-.96-1.32-.96-2.26v-.2c0-.63,.14-1.19,.43-1.68,.28-.49,.68-.88,1.19-1.16,.51-.28,1.06-.42,1.66-.42,.98,0,1.74,.27,2.28,.81s.81,1.32,.81,2.33v.45h-5.09c.02,.62,.23,1.13,.65,1.51s.94,.58,1.58,.58c.45,0,.84-.08,1.15-.23s.59-.36,.83-.62l.78,.52c-.63,.82-1.57,1.22-2.83,1.22Zm-.16-5.68c-.52,0-.95,.16-1.3,.48s-.57,.76-.65,1.34h3.76v-.08c-.04-.55-.21-.98-.53-1.28-.32-.3-.74-.45-1.28-.45Z"/><path class="cls-2" d="M253.02,245.3c0-.29-.13-.52-.39-.68-.26-.16-.72-.3-1.37-.42-.65-.12-1.17-.26-1.55-.42-.38-.16-.66-.36-.85-.59-.18-.23-.27-.5-.27-.81,0-.52,.26-.96,.78-1.32s1.19-.54,2-.54c.85,0,1.54,.19,2.07,.56,.53,.37,.79,.85,.79,1.42h-1.29c0-.3-.15-.55-.45-.77-.3-.21-.67-.32-1.13-.32s-.83,.09-1.1,.26-.4,.4-.4,.67c0,.26,.12,.46,.37,.59s.69,.26,1.33,.38,1.16,.27,1.56,.43c.4,.17,.69,.37,.88,.61,.19,.24,.29,.52,.29,.86,0,.57-.27,1.02-.8,1.36-.54,.34-1.23,.51-2.09,.51-.6,0-1.13-.09-1.6-.27-.46-.18-.82-.43-1.09-.75-.26-.32-.39-.67-.39-1.05h1.28c.02,.36,.2,.65,.52,.86,.32,.21,.75,.32,1.27,.32,.49,0,.88-.08,1.17-.25,.29-.17,.44-.39,.44-.67Z"/><path class="cls-2" d="M255.63,243.75c0-.62,.14-1.18,.43-1.68s.69-.88,1.21-1.15,1.1-.4,1.77-.4c1.02,0,1.85,.3,2.48,.9s.95,1.39,.95,2.38v.08c0,.62-.14,1.17-.42,1.66-.28,.49-.68,.87-1.2,1.15s-1.12,.41-1.79,.41c-1.02,0-1.84-.3-2.47-.9-.63-.6-.95-1.39-.95-2.37v-.08Zm1.29,.13c0,.7,.19,1.27,.58,1.69,.39,.43,.9,.64,1.55,.64s1.17-.22,1.55-.65c.38-.43,.58-1.04,.58-1.81,0-.7-.2-1.26-.59-1.69s-.91-.65-1.56-.65-1.14,.21-1.53,.64-.58,1.04-.58,1.83Z"/><path class="cls-2" d="M265.47,246.98h-1.28v-9h1.28v9Z"/><path class="cls-2" d="M270,245.51l1.86-4.87h1.31l-2.69,6.34h-.98l-2.72-6.34h1.31l1.91,4.87Z"/><path class="cls-2" d="M274.41,238.96c0-.18,.06-.32,.19-.45s.32-.18,.57-.18,.44,.06,.57,.18c.13,.12,.19,.27,.19,.45s-.07,.32-.19,.44c-.13,.12-.32,.18-.57,.18s-.44-.06-.57-.18-.19-.26-.19-.44Zm1.39,8.02h-1.28v-6.34h1.28v6.34Z"/><path class="cls-2" d="M280.97,247.1c-1.02,0-1.85-.28-2.48-.85-.64-.56-.96-1.32-.96-2.26v-.2c0-.63,.14-1.19,.43-1.68,.28-.49,.68-.88,1.19-1.16,.51-.28,1.06-.42,1.66-.42,.98,0,1.74,.27,2.28,.81s.81,1.32,.81,2.33v.45h-5.09c.02,.62,.23,1.13,.65,1.51s.94,.58,1.58,.58c.45,0,.84-.08,1.15-.23s.59-.36,.83-.62l.78,.52c-.63,.82-1.57,1.22-2.83,1.22Zm-.16-5.68c-.52,0-.95,.16-1.3,.48s-.57,.76-.65,1.34h3.76v-.08c-.04-.55-.21-.98-.53-1.28-.32-.3-.74-.45-1.28-.45Z"/><path class="cls-2" d="M289.01,241.61c-.19-.03-.4-.04-.63-.04-.84,0-1.41,.3-1.71,.91v4.5h-1.28v-6.34h1.25l.02,.73c.42-.57,1.02-.85,1.79-.85,.25,0,.44,.03,.57,.08v1.01Z"/><path class="cls-2" d="M289.71,243.75c0-.62,.14-1.18,.43-1.68s.69-.88,1.21-1.15,1.1-.4,1.77-.4c1.02,0,1.85,.3,2.48,.9s.95,1.39,.95,2.38v.08c0,.62-.14,1.17-.42,1.66-.28,.49-.68,.87-1.2,1.15s-1.12,.41-1.79,.41c-1.02,0-1.84-.3-2.47-.9-.63-.6-.95-1.39-.95-2.37v-.08Zm1.29,.13c0,.7,.19,1.27,.58,1.69,.39,.43,.9,.64,1.55,.64s1.17-.22,1.55-.65c.38-.43,.58-1.04,.58-1.81,0-.7-.2-1.26-.59-1.69s-.91-.65-1.56-.65-1.14,.21-1.53,.64-.58,1.04-.58,1.83Z"/><path class="cls-2" d="M299.37,240.64l.04,.8c.57-.61,1.32-.91,2.25-.91,1.59,0,2.39,.76,2.4,2.27v4.19h-1.28v-4.2c0-.46-.13-.79-.37-1.01-.24-.22-.62-.33-1.13-.33-.42,0-.78,.09-1.1,.28s-.56,.43-.74,.74v4.52h-1.28v-6.34h1.21Z"/><path class="cls-2" d="M309.52,238.96c0-.18,.06-.32,.19-.45s.32-.18,.57-.18,.44,.06,.57,.18c.13,.12,.19,.27,.19,.45s-.07,.32-.19,.44c-.13,.12-.32,.18-.57,.18s-.44-.06-.57-.18-.19-.26-.19-.44Zm1.39,8.02h-1.28v-6.34h1.28v6.34Z"/><path class="cls-2" d="M314.18,240.64l.04,.8c.57-.61,1.32-.91,2.25-.91,1.59,0,2.39,.76,2.4,2.27v4.19h-1.28v-4.2c0-.46-.13-.79-.37-1.01-.24-.22-.62-.33-1.13-.33-.42,0-.78,.09-1.1,.28s-.56,.43-.74,.74v4.52h-1.28v-6.34h1.21Z"/><path class="cls-2" d="M320.81,238.96c0-.18,.06-.32,.19-.45s.32-.18,.57-.18,.44,.06,.57,.18c.13,.12,.19,.27,.19,.45s-.07,.32-.19,.44c-.13,.12-.32,.18-.57,.18s-.44-.06-.57-.18-.19-.26-.19-.44Zm1.39,8.02h-1.28v-6.34h1.28v6.34Z"/><path class="cls-2" d="M327.26,246.21c.46,0,.86-.12,1.2-.35,.34-.23,.53-.53,.57-.88h1.21c-.02,.36-.17,.71-.44,1.04-.27,.33-.64,.59-1.09,.79-.46,.2-.94,.29-1.45,.29-1.02,0-1.83-.29-2.44-.86s-.91-1.36-.91-2.36v-.18c0-.62,.13-1.17,.4-1.65,.27-.48,.65-.85,1.16-1.12s1.09-.4,1.78-.4c.84,0,1.54,.21,2.1,.64s.85,.98,.89,1.66h-1.21c-.04-.41-.22-.75-.55-1.01s-.74-.4-1.22-.4c-.65,0-1.16,.2-1.52,.59s-.54,.97-.54,1.72v.21c0,.73,.18,1.29,.53,1.69s.87,.59,1.53,.59Z"/><path class="cls-2" d="M331.69,238.96c0-.18,.06-.32,.19-.45s.32-.18,.57-.18,.44,.06,.57,.18c.13,.12,.19,.27,.19,.45s-.07,.32-.19,.44c-.13,.12-.32,.18-.57,.18s-.44-.06-.57-.18-.19-.26-.19-.44Zm1.39,8.02h-1.28v-6.34h1.28v6.34Z"/><path class="cls-2" d="M339.77,246.98c-.07-.12-.13-.35-.18-.67-.6,.52-1.31,.79-2.14,.79-.74,0-1.35-.18-1.82-.53-.47-.35-.71-.8-.71-1.34,0-.66,.3-1.17,.89-1.54,.59-.37,1.43-.55,2.51-.55h1.25v-.5c0-.38-.13-.68-.4-.91-.27-.22-.66-.34-1.19-.34-.46,0-.84,.1-1.15,.29-.31,.2-.46,.43-.46,.71h-1.29c0-.32,.13-.62,.4-.92,.27-.29,.63-.53,1.08-.7,.46-.17,.96-.26,1.5-.26,.86,0,1.54,.18,2.03,.55,.49,.37,.74,.87,.76,1.51v2.92c0,.58,.09,1.04,.26,1.39v.09h-1.35Zm-2.13-.83c.4,0,.78-.09,1.14-.26,.36-.18,.62-.4,.78-.69v-1.3h-1.01c-1.57,0-2.36,.39-2.36,1.17,0,.34,.13,.61,.4,.8s.61,.29,1.03,.29Z"/><path class="cls-2" d="M346.49,241.61c-.19-.03-.4-.04-.63-.04-.84,0-1.41,.3-1.71,.91v4.5h-1.28v-6.34h1.25l.02,.73c.42-.57,1.02-.85,1.79-.85,.25,0,.44,.03,.57,.08v1.01Z"/><path class="cls-2" d="M355.83,246.35c-.5,.5-1.23,.74-2.2,.74-.8,0-1.41-.2-1.83-.59-.42-.39-.63-.97-.63-1.74v-4.12h1.28v4.1c0,.96,.46,1.44,1.39,1.44,.98,0,1.63-.31,1.96-.93v-4.61h1.28v6.34h-1.22l-.03-.63Z"/><path class="cls-2" d="M360.24,240.64l.04,.8c.57-.61,1.32-.91,2.25-.91,1.59,0,2.39,.76,2.4,2.27v4.19h-1.28v-4.2c0-.46-.13-.79-.37-1.01-.24-.22-.62-.33-1.13-.33-.42,0-.78,.09-1.1,.28s-.56,.43-.74,.74v4.52h-1.28v-6.34h1.21Z"/><path class="cls-2" d="M371.5,246.98c-.07-.12-.13-.35-.18-.67-.6,.52-1.31,.79-2.14,.79-.74,0-1.35-.18-1.82-.53-.47-.35-.71-.8-.71-1.34,0-.66,.3-1.17,.89-1.54,.59-.37,1.43-.55,2.51-.55h1.25v-.5c0-.38-.13-.68-.4-.91-.27-.22-.66-.34-1.19-.34-.46,0-.84,.1-1.15,.29-.31,.2-.46,.43-.46,.71h-1.29c0-.32,.13-.62,.4-.92,.27-.29,.63-.53,1.08-.7,.46-.17,.96-.26,1.5-.26,.86,0,1.54,.18,2.03,.55,.49,.37,.74,.87,.76,1.51v2.92c0,.58,.09,1.04,.26,1.39v.09h-1.35Zm-2.13-.83c.4,0,.78-.09,1.14-.26,.36-.18,.62-.4,.78-.69v-1.3h-1.01c-1.57,0-2.36,.39-2.36,1.17,0,.34,.13,.61,.4,.8s.61,.29,1.03,.29Z"/><path class="cls-2" d="M381.12,246.21c.46,0,.86-.12,1.2-.35,.34-.23,.53-.53,.57-.88h1.21c-.02,.36-.17,.71-.44,1.04-.27,.33-.64,.59-1.09,.79-.46,.2-.94,.29-1.45,.29-1.02,0-1.83-.29-2.44-.86s-.91-1.36-.91-2.36v-.18c0-.62,.13-1.17,.4-1.65,.27-.48,.65-.85,1.16-1.12s1.09-.4,1.78-.4c.84,0,1.54,.21,2.1,.64s.85,.98,.89,1.66h-1.21c-.04-.41-.22-.75-.55-1.01s-.74-.4-1.22-.4c-.65,0-1.16,.2-1.52,.59s-.54,.97-.54,1.72v.21c0,.73,.18,1.29,.53,1.69s.87,.59,1.53,.59Z"/><path class="cls-2" d="M390.18,246.98c-.07-.12-.13-.35-.18-.67-.6,.52-1.31,.79-2.14,.79-.74,0-1.35-.18-1.82-.53-.47-.35-.71-.8-.71-1.34,0-.66,.3-1.17,.89-1.54,.59-.37,1.43-.55,2.51-.55h1.25v-.5c0-.38-.13-.68-.4-.91-.27-.22-.66-.34-1.19-.34-.46,0-.84,.1-1.15,.29-.31,.2-.46,.43-.46,.71h-1.29c0-.32,.13-.62,.4-.92,.27-.29,.63-.53,1.08-.7,.46-.17,.96-.26,1.5-.26,.86,0,1.54,.18,2.03,.55,.49,.37,.74,.87,.76,1.51v2.92c0,.58,.09,1.04,.26,1.39v.09h-1.35Zm-2.13-.83c.4,0,.78-.09,1.14-.26,.36-.18,.62-.4,.78-.69v-1.3h-1.01c-1.57,0-2.36,.39-2.36,1.17,0,.34,.13,.61,.4,.8s.61,.29,1.03,.29Z"/><path class="cls-2" d="M394.48,240.64l.03,.7c.55-.55,1.29-.82,2.23-.82,1.05,0,1.76,.34,2.14,1.02,.25-.3,.58-.55,.98-.74,.4-.19,.87-.28,1.42-.28,1.65,0,2.48,.74,2.51,2.21v4.25h-1.28v-4.18c0-.45-.12-.79-.37-1.02s-.66-.34-1.24-.34c-.48,0-.87,.12-1.19,.36s-.5,.56-.55,.97v4.21h-1.29v-4.15c0-.92-.53-1.38-1.6-1.38-.84,0-1.42,.3-1.73,.91v4.63h-1.28v-6.34h1.21Z"/><path class="cls-2" d="M412.07,243.88c0,.96-.26,1.74-.78,2.33-.52,.59-1.23,.88-2.12,.88s-1.63-.24-2.15-.73v3.05h-1.28v-8.78h1.17l.06,.7c.52-.55,1.25-.82,2.18-.82s1.62,.29,2.14,.86,.79,1.37,.79,2.4v.1Zm-1.28-.12c0-.71-.18-1.28-.54-1.69-.36-.41-.86-.62-1.49-.62-.78,0-1.36,.29-1.75,.87v3.03c.38,.58,.97,.87,1.76,.87,.62,0,1.1-.21,1.47-.62s.54-1.02,.54-1.84Z"/><path class="cls-2" d="M418.34,246.98c-.07-.12-.13-.35-.18-.67-.6,.52-1.31,.79-2.14,.79-.74,0-1.35-.18-1.82-.53-.47-.35-.71-.8-.71-1.34,0-.66,.3-1.17,.89-1.54,.59-.37,1.43-.55,2.51-.55h1.25v-.5c0-.38-.13-.68-.4-.91-.27-.22-.66-.34-1.19-.34-.46,0-.84,.1-1.15,.29-.31,.2-.46,.43-.46,.71h-1.29c0-.32,.13-.62,.4-.92,.27-.29,.63-.53,1.08-.7,.46-.17,.96-.26,1.5-.26,.86,0,1.54,.18,2.03,.55,.49,.37,.74,.87,.76,1.51v2.92c0,.58,.09,1.04,.26,1.39v.09h-1.35Zm-2.13-.83c.4,0,.78-.09,1.14-.26,.36-.18,.62-.4,.78-.69v-1.3h-1.01c-1.57,0-2.36,.39-2.36,1.17,0,.34,.13,.61,.4,.8s.61,.29,1.03,.29Z"/><path class="cls-2" d="M422.65,240.64l.04,.8c.57-.61,1.32-.91,2.25-.91,1.59,0,2.39,.76,2.4,2.27v4.19h-1.28v-4.2c0-.46-.13-.79-.37-1.01-.24-.22-.62-.33-1.13-.33-.42,0-.78,.09-1.1,.28s-.56,.43-.74,.74v4.52h-1.28v-6.34h1.21Zm4.25-2.47c0,.42-.14,.76-.43,1.03-.28,.26-.64,.39-1.06,.39-.19,0-.35-.02-.49-.06s-.32-.12-.54-.24c-.22-.12-.39-.19-.49-.22s-.21-.04-.34-.04c-.19,0-.35,.06-.49,.18s-.2,.28-.2,.47l-.86-.04c0-.42,.14-.76,.42-1.04,.28-.27,.63-.41,1.06-.41,.16,0,.31,.02,.44,.06s.31,.12,.53,.23,.39,.19,.51,.22,.25,.05,.39,.05c.2,0,.36-.07,.5-.2s.2-.29,.2-.46l.86,.07Z"/><path class="cls-2" d="M433.91,246.98c-.07-.12-.13-.35-.18-.67-.6,.52-1.31,.79-2.14,.79-.74,0-1.35-.18-1.82-.53-.47-.35-.71-.8-.71-1.34,0-.66,.3-1.17,.89-1.54,.59-.37,1.43-.55,2.51-.55h1.25v-.5c0-.38-.13-.68-.4-.91-.27-.22-.66-.34-1.19-.34-.46,0-.84,.1-1.15,.29-.31,.2-.46,.43-.46,.71h-1.29c0-.32,.13-.62,.4-.92,.27-.29,.63-.53,1.08-.7,.46-.17,.96-.26,1.5-.26,.86,0,1.54,.18,2.03,.55,.49,.37,.74,.87,.76,1.51v2.92c0,.58,.09,1.04,.26,1.39v.09h-1.35Zm-2.13-.83c.4,0,.78-.09,1.14-.26,.36-.18,.62-.4,.78-.69v-1.3h-1.01c-1.57,0-2.36,.39-2.36,1.17,0,.34,.13,.61,.4,.8s.61,.29,1.03,.29Z"/><path class="cls-2" d="M440.21,243.76c0-.97,.27-1.75,.82-2.35s1.26-.89,2.14-.89,1.58,.25,2.09,.76v-3.3h1.28v9h-1.18l-.06-.68c-.51,.53-1.23,.8-2.14,.8s-1.58-.3-2.13-.9-.82-1.39-.82-2.36v-.08Zm1.28,.12c0,.72,.18,1.28,.53,1.69s.84,.61,1.46,.61c.81,0,1.41-.31,1.78-.93v-2.91c-.38-.6-.97-.9-1.77-.9-.63,0-1.12,.21-1.47,.62s-.53,1.02-.53,1.82Z"/><path class="cls-2" d="M451.65,247.1c-1.02,0-1.85-.28-2.48-.85-.64-.56-.96-1.32-.96-2.26v-.2c0-.63,.14-1.19,.43-1.68,.28-.49,.68-.88,1.19-1.16,.51-.28,1.06-.42,1.66-.42,.98,0,1.74,.27,2.28,.81s.81,1.32,.81,2.33v.45h-5.09c.02,.62,.23,1.13,.65,1.51s.94,.58,1.58,.58c.45,0,.84-.08,1.15-.23s.59-.36,.83-.62l.78,.52c-.63,.82-1.57,1.22-2.83,1.22Zm-.16-5.68c-.52,0-.95,.16-1.3,.48s-.57,.76-.65,1.34h3.76v-.08c-.04-.55-.21-.98-.53-1.28-.32-.3-.74-.45-1.28-.45Z"/><path class="cls-2" d="M164.26,255.61c-.19-.03-.4-.04-.63-.04-.84,0-1.41,.3-1.71,.91v4.5h-1.28v-6.34h1.25l.02,.73c.42-.57,1.02-.85,1.79-.85,.25,0,.44,.03,.57,.08v1.01Z"/><path class="cls-2" d="M168.42,261.1c-1.02,0-1.85-.28-2.48-.85-.64-.56-.96-1.32-.96-2.26v-.2c0-.63,.14-1.19,.43-1.68,.28-.49,.68-.88,1.19-1.16,.51-.28,1.06-.42,1.66-.42,.98,0,1.74,.27,2.28,.81s.81,1.32,.81,2.33v.45h-5.09c.02,.62,.23,1.13,.65,1.51s.94,.58,1.58,.58c.45,0,.84-.08,1.15-.23s.59-.36,.83-.62l.78,.52c-.63,.82-1.57,1.22-2.83,1.22Zm-.16-5.68c-.52,0-.95,.16-1.3,.48s-.57,.76-.65,1.34h3.76v-.08c-.04-.55-.21-.98-.53-1.28-.32-.3-.74-.45-1.28-.45Z"/><path class="cls-2" d="M175.85,260.21c.46,0,.86-.12,1.2-.35,.34-.23,.53-.53,.57-.88h1.21c-.02,.36-.17,.71-.44,1.04-.27,.33-.64,.59-1.09,.79-.46,.2-.94,.29-1.45,.29-1.02,0-1.83-.29-2.44-.86s-.91-1.36-.91-2.36v-.18c0-.62,.13-1.17,.4-1.65,.27-.48,.65-.85,1.16-1.12s1.09-.4,1.78-.4c.84,0,1.54,.21,2.1,.64s.85,.98,.89,1.66h-1.21c-.04-.41-.22-.75-.55-1.01s-.74-.4-1.22-.4c-.65,0-1.16,.2-1.52,.59s-.54,.97-.54,1.72v.21c0,.73,.18,1.29,.53,1.69s.87,.59,1.53,.59Z"/><path class="cls-2" d="M179.93,257.75c0-.62,.14-1.18,.43-1.68s.69-.88,1.21-1.15,1.1-.4,1.77-.4c1.02,0,1.85,.3,2.48,.9s.95,1.39,.95,2.38v.08c0,.62-.14,1.17-.42,1.66-.28,.49-.68,.87-1.2,1.15s-1.12,.41-1.79,.41c-1.02,0-1.84-.3-2.47-.9-.63-.6-.95-1.39-.95-2.37v-.08Zm1.29,.13c0,.7,.19,1.27,.58,1.69,.39,.43,.9,.64,1.55,.64s1.17-.22,1.55-.65c.38-.43,.58-1.04,.58-1.81,0-.7-.2-1.26-.59-1.69s-.91-.65-1.56-.65-1.14,.21-1.53,.64-.58,1.04-.58,1.83Z"/><path class="cls-2" d="M189.77,260.98h-1.28v-9h1.28v9Z"/><path class="cls-2" d="M194.94,261.1c-1.02,0-1.85-.28-2.48-.85-.64-.56-.96-1.32-.96-2.26v-.2c0-.63,.14-1.19,.43-1.68,.28-.49,.68-.88,1.19-1.16,.51-.28,1.06-.42,1.66-.42,.98,0,1.74,.27,2.28,.81s.81,1.32,.81,2.33v.45h-5.09c.02,.62,.23,1.13,.65,1.51s.94,.58,1.58,.58c.45,0,.84-.08,1.15-.23s.59-.36,.83-.62l.78,.52c-.63,.82-1.57,1.22-2.83,1.22Zm-.16-5.68c-.52,0-.95,.16-1.3,.48s-.57,.76-.65,1.34h3.76v-.08c-.04-.55-.21-.98-.53-1.28-.32-.3-.74-.45-1.28-.45Z"/><path class="cls-2" d="M202.36,260.21c.46,0,.86-.12,1.2-.35,.34-.23,.53-.53,.57-.88h1.21c-.02,.36-.17,.71-.44,1.04-.27,.33-.64,.59-1.09,.79-.46,.2-.94,.29-1.45,.29-1.02,0-1.83-.29-2.44-.86s-.91-1.36-.91-2.36v-.18c0-.62,.13-1.17,.4-1.65,.27-.48,.65-.85,1.16-1.12s1.09-.4,1.78-.4c.84,0,1.54,.21,2.1,.64s.85,.98,.89,1.66h-1.21c-.04-.41-.22-.75-.55-1.01s-.74-.4-1.22-.4c-.65,0-1.16,.2-1.52,.59s-.54,.97-.54,1.72v.21c0,.73,.18,1.29,.53,1.69s.87,.59,1.53,.59Z"/><path class="cls-2" d="M209.8,260.21c.46,0,.86-.12,1.2-.35,.34-.23,.53-.53,.57-.88h1.21c-.02,.36-.17,.71-.44,1.04-.27,.33-.64,.59-1.09,.79-.46,.2-.94,.29-1.45,.29-1.02,0-1.83-.29-2.44-.86s-.91-1.36-.91-2.36v-.18c0-.62,.13-1.17,.4-1.65,.27-.48,.65-.85,1.16-1.12s1.09-.4,1.78-.4c.84,0,1.54,.21,2.1,.64s.85,.98,.89,1.66h-1.21c-.04-.41-.22-.75-.55-1.01s-.74-.4-1.22-.4c-.65,0-1.16,.2-1.52,.59s-.54,.97-.54,1.72v.21c0,.73,.18,1.29,.53,1.69s.87,.59,1.53,.59Z"/><path class="cls-2" d="M214.23,252.96c0-.18,.06-.32,.19-.45s.32-.18,.57-.18,.44,.06,.57,.18c.13,.12,.19,.27,.19,.45s-.07,.32-.19,.44c-.13,.12-.32,.18-.57,.18s-.44-.06-.57-.18-.19-.26-.19-.44Zm1.39,8.02h-1.28v-6.34h1.28v6.34Z"/><path class="cls-2" d="M217.34,257.75c0-.62,.14-1.18,.43-1.68s.69-.88,1.21-1.15,1.1-.4,1.77-.4c1.02,0,1.85,.3,2.48,.9s.95,1.39,.95,2.38v.08c0,.62-.14,1.17-.42,1.66-.28,.49-.68,.87-1.2,1.15s-1.12,.41-1.79,.41c-1.02,0-1.84-.3-2.47-.9-.63-.6-.95-1.39-.95-2.37v-.08Zm1.29,.13c0,.7,.19,1.27,.58,1.69,.39,.43,.9,.64,1.55,.64s1.17-.22,1.55-.65c.38-.43,.58-1.04,.58-1.81,0-.7-.2-1.26-.59-1.69s-.91-.65-1.56-.65-1.14,.21-1.53,.64-.58,1.04-.58,1.83Zm2.7-5.9h1.55l-1.86,1.72h-1.03l1.34-1.72Z"/><path class="cls-2" d="M226.99,254.64l.04,.8c.57-.61,1.32-.91,2.25-.91,1.59,0,2.39,.76,2.4,2.27v4.19h-1.28v-4.2c0-.46-.13-.79-.37-1.01-.24-.22-.62-.33-1.13-.33-.42,0-.78,.09-1.1,.28s-.56,.43-.74,.74v4.52h-1.28v-6.34h1.21Z"/><path class="cls-2" d="M236.82,257.76c0-.97,.27-1.75,.82-2.35s1.26-.89,2.14-.89,1.58,.25,2.09,.76v-3.3h1.28v9h-1.18l-.06-.68c-.51,.53-1.23,.8-2.14,.8s-1.58-.3-2.13-.9-.82-1.39-.82-2.36v-.08Zm1.28,.12c0,.72,.18,1.28,.53,1.69s.84,.61,1.46,.61c.81,0,1.41-.31,1.78-.93v-2.91c-.38-.6-.97-.9-1.77-.9-.63,0-1.12,.21-1.47,.62s-.53,1.02-.53,1.82Z"/><path class="cls-2" d="M248.27,261.1c-1.02,0-1.85-.28-2.48-.85-.64-.56-.96-1.32-.96-2.26v-.2c0-.63,.14-1.19,.43-1.68,.28-.49,.68-.88,1.19-1.16,.51-.28,1.06-.42,1.66-.42,.98,0,1.74,.27,2.28,.81s.81,1.32,.81,2.33v.45h-5.09c.02,.62,.23,1.13,.65,1.51s.94,.58,1.58,.58c.45,0,.84-.08,1.15-.23s.59-.36,.83-.62l.78,.52c-.63,.82-1.57,1.22-2.83,1.22Zm-.16-5.68c-.52,0-.95,.16-1.3,.48s-.57,.76-.65,1.34h3.76v-.08c-.04-.55-.21-.98-.53-1.28-.32-.3-.74-.45-1.28-.45Z"/><path class="cls-2" d="M257.4,254.64l.03,.7c.55-.55,1.29-.82,2.23-.82,1.05,0,1.76,.34,2.14,1.02,.25-.3,.58-.55,.98-.74,.4-.19,.87-.28,1.42-.28,1.65,0,2.48,.74,2.51,2.21v4.25h-1.28v-4.18c0-.45-.12-.79-.37-1.02s-.66-.34-1.24-.34c-.48,0-.87,.12-1.19,.36s-.5,.56-.55,.97v4.21h-1.29v-4.15c0-.92-.53-1.38-1.6-1.38-.84,0-1.42,.3-1.73,.91v4.63h-1.28v-6.34h1.21Z"/><path class="cls-2" d="M273.28,260.98c-.07-.12-.13-.35-.18-.67-.6,.52-1.31,.79-2.14,.79-.74,0-1.35-.18-1.82-.53-.47-.35-.71-.8-.71-1.34,0-.66,.3-1.17,.89-1.54,.59-.37,1.43-.55,2.51-.55h1.25v-.5c0-.38-.13-.68-.4-.91-.27-.22-.66-.34-1.19-.34-.46,0-.84,.1-1.15,.29-.31,.2-.46,.43-.46,.71h-1.29c0-.32,.13-.62,.4-.92,.27-.29,.63-.53,1.08-.7,.46-.17,.96-.26,1.5-.26,.86,0,1.54,.18,2.03,.55,.49,.37,.74,.87,.76,1.51v2.92c0,.58,.09,1.04,.26,1.39v.09h-1.35Zm-2.13-.83c.4,0,.78-.09,1.14-.26,.36-.18,.62-.4,.78-.69v-1.3h-1.01c-1.57,0-2.36,.39-2.36,1.17,0,.34,.13,.61,.4,.8s.61,.29,1.03,.29Z"/><path class="cls-2" d="M278.12,253.11v1.54h1.4v.84h-1.4v3.94c0,.25,.06,.44,.19,.57,.12,.13,.34,.19,.64,.19,.15,0,.35-.02,.61-.07v.87c-.34,.08-.67,.12-.99,.12-.57,0-1.01-.15-1.3-.44-.29-.29-.44-.71-.44-1.25v-3.93h-1.37v-.84h1.37v-1.54h1.28Z"/><path class="cls-2" d="M284.14,261.1c-1.02,0-1.85-.28-2.48-.85-.64-.56-.96-1.32-.96-2.26v-.2c0-.63,.14-1.19,.43-1.68,.28-.49,.68-.88,1.19-1.16,.51-.28,1.06-.42,1.66-.42,.98,0,1.74,.27,2.28,.81s.81,1.32,.81,2.33v.45h-5.09c.02,.62,.23,1.13,.65,1.51s.94,.58,1.58,.58c.45,0,.84-.08,1.15-.23s.59-.36,.83-.62l.78,.52c-.63,.82-1.57,1.22-2.83,1.22Zm-.16-5.68c-.52,0-.95,.16-1.3,.48s-.57,.76-.65,1.34h3.76v-.08c-.04-.55-.21-.98-.53-1.28-.32-.3-.74-.45-1.28-.45Z"/><path class="cls-2" d="M292.18,255.61c-.19-.03-.4-.04-.63-.04-.84,0-1.41,.3-1.71,.91v4.5h-1.28v-6.34h1.25l.02,.73c.42-.57,1.02-.85,1.79-.85,.25,0,.44,.03,.57,.08v1.01Z"/><path class="cls-2" d="M293.36,252.96c0-.18,.06-.32,.19-.45s.32-.18,.57-.18,.44,.06,.57,.18c.13,.12,.19,.27,.19,.45s-.07,.32-.19,.44c-.13,.12-.32,.18-.57,.18s-.44-.06-.57-.18-.19-.26-.19-.44Zm1.39,8.02h-1.28v-6.34h1.28v6.34Z"/><path class="cls-2" d="M301.44,260.98c-.07-.12-.13-.35-.18-.67-.6,.52-1.31,.79-2.14,.79-.74,0-1.35-.18-1.82-.53-.47-.35-.71-.8-.71-1.34,0-.66,.3-1.17,.89-1.54,.59-.37,1.43-.55,2.51-.55h1.25v-.5c0-.38-.13-.68-.4-.91-.27-.22-.66-.34-1.19-.34-.46,0-.84,.1-1.15,.29-.31,.2-.46,.43-.46,.71h-1.29c0-.32,.13-.62,.4-.92,.27-.29,.63-.53,1.08-.7,.46-.17,.96-.26,1.5-.26,.86,0,1.54,.18,2.03,.55,.49,.37,.74,.87,.76,1.51v2.92c0,.58,.09,1.04,.26,1.39v.09h-1.35Zm-2.13-.83c.4,0,.78-.09,1.14-.26,.36-.18,.62-.4,.78-.69v-1.3h-1.01c-1.57,0-2.36,.39-2.36,1.17,0,.34,.13,.61,.4,.8s.61,.29,1.03,.29Z"/><path class="cls-2" d="M305.93,260.98h-1.28v-9h1.28v9Z"/><path class="cls-2" d="M311.1,261.1c-1.02,0-1.85-.28-2.48-.85-.64-.56-.96-1.32-.96-2.26v-.2c0-.63,.14-1.19,.43-1.68,.28-.49,.68-.88,1.19-1.16,.51-.28,1.06-.42,1.66-.42,.98,0,1.74,.27,2.28,.81s.81,1.32,.81,2.33v.45h-5.09c.02,.62,.23,1.13,.65,1.51s.94,.58,1.58,.58c.45,0,.84-.08,1.15-.23s.59-.36,.83-.62l.78,.52c-.63,.82-1.57,1.22-2.83,1.22Zm-.16-5.68c-.52,0-.95,.16-1.3,.48s-.57,.76-.65,1.34h3.76v-.08c-.04-.55-.21-.98-.53-1.28-.32-.3-.74-.45-1.28-.45Z"/><path class="cls-2" d="M319.88,259.3c0-.29-.13-.52-.39-.68-.26-.16-.72-.3-1.37-.42-.65-.12-1.17-.26-1.55-.42-.38-.16-.66-.36-.85-.59-.18-.23-.27-.5-.27-.81,0-.52,.26-.96,.78-1.32s1.19-.54,2-.54c.85,0,1.54,.19,2.07,.56,.53,.37,.79,.85,.79,1.42h-1.29c0-.3-.15-.55-.45-.77-.3-.21-.67-.32-1.13-.32s-.83,.09-1.1,.26-.4,.4-.4,.67c0,.26,.12,.46,.37,.59s.69,.26,1.33,.38,1.16,.27,1.56,.43c.4,.17,.69,.37,.88,.61,.19,.24,.29,.52,.29,.86,0,.57-.27,1.02-.8,1.36-.54,.34-1.23,.51-2.09,.51-.6,0-1.13-.09-1.6-.27-.46-.18-.82-.43-1.09-.75-.26-.32-.39-.67-.39-1.05h1.28c.02,.36,.2,.65,.52,.86,.32,.21,.75,.32,1.27,.32,.49,0,.88-.08,1.17-.25,.29-.17,.44-.39,.44-.67Z"/><path class="cls-2" d="M332.7,257.88c0,.96-.26,1.74-.78,2.33-.52,.59-1.23,.88-2.12,.88s-1.63-.24-2.15-.73v3.05h-1.28v-8.78h1.17l.06,.7c.52-.55,1.25-.82,2.18-.82s1.62,.29,2.14,.86,.79,1.37,.79,2.4v.1Zm-1.28-.12c0-.71-.18-1.28-.54-1.69-.36-.41-.86-.62-1.49-.62-.78,0-1.36,.29-1.75,.87v3.03c.38,.58,.97,.87,1.76,.87,.62,0,1.1-.21,1.47-.62s.54-1.02,.54-1.84Z"/><path class="cls-2" d="M338.96,260.98c-.07-.12-.13-.35-.18-.67-.6,.52-1.31,.79-2.14,.79-.74,0-1.35-.18-1.82-.53-.47-.35-.71-.8-.71-1.34,0-.66,.3-1.17,.89-1.54,.59-.37,1.43-.55,2.51-.55h1.25v-.5c0-.38-.13-.68-.4-.91-.27-.22-.66-.34-1.19-.34-.46,0-.84,.1-1.15,.29-.31,.2-.46,.43-.46,.71h-1.29c0-.32,.13-.62,.4-.92,.27-.29,.63-.53,1.08-.7,.46-.17,.96-.26,1.5-.26,.86,0,1.54,.18,2.03,.55,.49,.37,.74,.87,.76,1.51v2.92c0,.58,.09,1.04,.26,1.39v.09h-1.35Zm-2.13-.83c.4,0,.78-.09,1.14-.26,.36-.18,.62-.4,.78-.69v-1.3h-1.01c-1.57,0-2.36,.39-2.36,1.17,0,.34,.13,.61,.4,.8s.61,.29,1.03,.29Z"/><path class="cls-2" d="M345.69,255.61c-.19-.03-.4-.04-.63-.04-.84,0-1.41,.3-1.71,.91v4.5h-1.28v-6.34h1.25l.02,.73c.42-.57,1.02-.85,1.79-.85,.25,0,.44,.03,.57,.08v1.01Z"/><path class="cls-2" d="M351.22,260.98c-.07-.12-.13-.35-.18-.67-.6,.52-1.31,.79-2.14,.79-.74,0-1.35-.18-1.82-.53-.47-.35-.71-.8-.71-1.34,0-.66,.3-1.17,.89-1.54,.59-.37,1.43-.55,2.51-.55h1.25v-.5c0-.38-.13-.68-.4-.91-.27-.22-.66-.34-1.19-.34-.46,0-.84,.1-1.15,.29-.31,.2-.46,.43-.46,.71h-1.29c0-.32,.13-.62,.4-.92,.27-.29,.63-.53,1.08-.7,.46-.17,.96-.26,1.5-.26,.86,0,1.54,.18,2.03,.55,.49,.37,.74,.87,.76,1.51v2.92c0,.58,.09,1.04,.26,1.39v.09h-1.35Zm-2.13-.83c.4,0,.78-.09,1.14-.26,.36-.18,.62-.4,.78-.69v-1.3h-1.01c-1.57,0-2.36,.39-2.36,1.17,0,.34,.13,.61,.4,.8s.61,.29,1.03,.29Z"/><path class="cls-2" d="M360.85,260.21c.46,0,.86-.12,1.2-.35,.34-.23,.53-.53,.57-.88h1.21c-.02,.36-.17,.71-.44,1.04-.27,.33-.64,.59-1.09,.79-.46,.2-.94,.29-1.45,.29-1.02,0-1.83-.29-2.44-.86s-.91-1.36-.91-2.36v-.18c0-.62,.13-1.17,.4-1.65,.27-.48,.65-.85,1.16-1.12s1.09-.4,1.78-.4c.84,0,1.54,.21,2.1,.64s.85,.98,.89,1.66h-1.21c-.04-.41-.22-.75-.55-1.01s-.74-.4-1.22-.4c-.65,0-1.16,.2-1.52,.59s-.54,.97-.54,1.72v.21c0,.73,.18,1.29,.53,1.69s.87,.59,1.53,.59Z"/><path class="cls-2" d="M364.93,257.75c0-.62,.14-1.18,.43-1.68s.69-.88,1.21-1.15,1.1-.4,1.77-.4c1.02,0,1.85,.3,2.48,.9s.95,1.39,.95,2.38v.08c0,.62-.14,1.17-.42,1.66-.28,.49-.68,.87-1.2,1.15s-1.12,.41-1.79,.41c-1.02,0-1.84-.3-2.47-.9-.63-.6-.95-1.39-.95-2.37v-.08Zm1.29,.13c0,.7,.19,1.27,.58,1.69,.39,.43,.9,.64,1.55,.64s1.17-.22,1.55-.65c.38-.43,.58-1.04,.58-1.81,0-.7-.2-1.26-.59-1.69s-.91-.65-1.56-.65-1.14,.21-1.53,.64-.58,1.04-.58,1.83Z"/><path class="cls-2" d="M374.59,254.64l.04,.8c.57-.61,1.32-.91,2.25-.91,1.59,0,2.39,.76,2.4,2.27v4.19h-1.28v-4.2c0-.46-.13-.79-.37-1.01-.24-.22-.62-.33-1.13-.33-.42,0-.78,.09-1.1,.28s-.56,.43-.74,.74v4.52h-1.28v-6.34h1.21Z"/><path class="cls-2" d="M385.59,259.3c0-.29-.13-.52-.39-.68-.26-.16-.72-.3-1.37-.42-.65-.12-1.17-.26-1.55-.42-.38-.16-.66-.36-.85-.59-.18-.23-.27-.5-.27-.81,0-.52,.26-.96,.78-1.32s1.19-.54,2-.54c.85,0,1.54,.19,2.07,.56,.53,.37,.79,.85,.79,1.42h-1.29c0-.3-.15-.55-.45-.77-.3-.21-.67-.32-1.13-.32s-.83,.09-1.1,.26-.4,.4-.4,.67c0,.26,.12,.46,.37,.59s.69,.26,1.33,.38,1.16,.27,1.56,.43c.4,.17,.69,.37,.88,.61,.19,.24,.29,.52,.29,.86,0,.57-.27,1.02-.8,1.36-.54,.34-1.23,.51-2.09,.51-.6,0-1.13-.09-1.6-.27-.46-.18-.82-.43-1.09-.75-.26-.32-.39-.67-.39-1.05h1.28c.02,.36,.2,.65,.52,.86,.32,.21,.75,.32,1.27,.32,.49,0,.88-.08,1.17-.25,.29-.17,.44-.39,.44-.67Z"/><path class="cls-2" d="M390.29,253.11v1.54h1.4v.84h-1.4v3.94c0,.25,.06,.44,.19,.57,.12,.13,.34,.19,.64,.19,.15,0,.35-.02,.61-.07v.87c-.34,.08-.67,.12-.99,.12-.57,0-1.01-.15-1.3-.44-.29-.29-.44-.71-.44-1.25v-3.93h-1.37v-.84h1.37v-1.54h1.28Z"/><path class="cls-2" d="M396.81,255.61c-.19-.03-.4-.04-.63-.04-.84,0-1.41,.3-1.71,.91v4.5h-1.28v-6.34h1.25l.02,.73c.42-.57,1.02-.85,1.79-.85,.25,0,.44,.03,.57,.08v1.01Z"/><path class="cls-2" d="M402.63,260.35c-.5,.5-1.23,.74-2.2,.74-.8,0-1.41-.2-1.83-.59-.42-.39-.63-.97-.63-1.74v-4.12h1.28v4.1c0,.96,.46,1.44,1.39,1.44,.98,0,1.63-.31,1.96-.93v-4.61h1.28v6.34h-1.22l-.03-.63Z"/><path class="cls-2" d="M405.83,252.96c0-.18,.06-.32,.19-.45s.32-.18,.57-.18,.44,.06,.57,.18c.13,.12,.19,.27,.19,.45s-.07,.32-.19,.44c-.13,.12-.32,.18-.57,.18s-.44-.06-.57-.18-.19-.26-.19-.44Zm1.39,8.02h-1.28v-6.34h1.28v6.34Z"/><path class="cls-2" d="M412.9,255.61c-.19-.03-.4-.04-.63-.04-.84,0-1.41,.3-1.71,.91v4.5h-1.28v-6.34h1.25l.02,.73c.42-.57,1.02-.85,1.79-.85,.25,0,.44,.03,.57,.08v1.01Z"/><path class="cls-2" d="M422.24,260.35c-.5,.5-1.23,.74-2.2,.74-.8,0-1.41-.2-1.83-.59-.42-.39-.63-.97-.63-1.74v-4.12h1.28v4.1c0,.96,.46,1.44,1.39,1.44,.98,0,1.63-.31,1.96-.93v-4.61h1.28v6.34h-1.22l-.03-.63Z"/><path class="cls-2" d="M426.65,254.64l.04,.8c.57-.61,1.32-.91,2.25-.91,1.59,0,2.39,.76,2.4,2.27v4.19h-1.28v-4.2c0-.46-.13-.79-.37-1.01-.24-.22-.62-.33-1.13-.33-.42,0-.78,.09-1.1,.28s-.56,.43-.74,.74v4.52h-1.28v-6.34h1.21Z"/><path class="cls-2" d="M437.91,260.98c-.07-.12-.13-.35-.18-.67-.6,.52-1.31,.79-2.14,.79-.74,0-1.35-.18-1.82-.53-.47-.35-.71-.8-.71-1.34,0-.66,.3-1.17,.89-1.54,.59-.37,1.43-.55,2.51-.55h1.25v-.5c0-.38-.13-.68-.4-.91-.27-.22-.66-.34-1.19-.34-.46,0-.84,.1-1.15,.29-.31,.2-.46,.43-.46,.71h-1.29c0-.32,.13-.62,.4-.92,.27-.29,.63-.53,1.08-.7,.46-.17,.96-.26,1.5-.26,.86,0,1.54,.18,2.03,.55,.49,.37,.74,.87,.76,1.51v2.92c0,.58,.09,1.04,.26,1.39v.09h-1.35Zm-2.13-.83c.4,0,.78-.09,1.14-.26,.36-.18,.62-.4,.78-.69v-1.3h-1.01c-1.57,0-2.36,.39-2.36,1.17,0,.34,.13,.61,.4,.8s.61,.29,1.03,.29Z"/><path class="cls-2" d="M158.24,266.96c0-.18,.06-.32,.19-.45s.32-.18,.57-.18,.44,.06,.57,.18c.13,.12,.19,.27,.19,.45s-.07,.32-.19,.44c-.13,.12-.32,.18-.57,.18s-.44-.06-.57-.18-.19-.26-.19-.44Zm1.39,8.02h-1.28v-6.34h1.28v6.34Z"/><path class="cls-2" d="M161.38,271.76c0-.99,.27-1.77,.81-2.36,.54-.58,1.26-.88,2.15-.88s1.63,.27,2.14,.82l.06-.7h1.17v6.19c0,.82-.29,1.47-.86,1.94-.58,.47-1.35,.71-2.32,.71-.54,0-1.07-.1-1.59-.29-.52-.2-.91-.46-1.19-.8l.67-.65c.55,.57,1.22,.86,2.02,.86,.62,0,1.11-.15,1.46-.45s.52-.71,.52-1.25v-.54c-.51,.5-1.21,.75-2.1,.75s-1.59-.3-2.13-.9c-.54-.6-.82-1.41-.82-2.44Zm1.29,.12c0,.71,.17,1.28,.52,1.68,.35,.41,.83,.61,1.46,.61,.81,0,1.4-.31,1.78-.93v-2.89c-.39-.61-.98-.91-1.77-.91-.62,0-1.11,.21-1.46,.62-.35,.41-.53,1.02-.53,1.82Z"/><path class="cls-2" d="M171.05,274.98h-1.28v-9h1.28v9Z"/><path class="cls-2" d="M176.22,275.1c-1.02,0-1.85-.28-2.48-.85-.64-.56-.96-1.32-.96-2.26v-.2c0-.63,.14-1.19,.43-1.68,.28-.49,.68-.88,1.19-1.16,.51-.28,1.06-.42,1.66-.42,.98,0,1.74,.27,2.28,.81s.81,1.32,.81,2.33v.45h-5.09c.02,.62,.23,1.13,.65,1.51s.94,.58,1.58,.58c.45,0,.84-.08,1.15-.23s.59-.36,.83-.62l.78,.52c-.63,.82-1.57,1.22-2.83,1.22Zm-.16-5.68c-.52,0-.95,.16-1.3,.48s-.57,.76-.65,1.34h3.76v-.08c-.04-.55-.21-.98-.53-1.28-.32-.3-.74-.45-1.28-.45Z"/><path class="cls-2" d="M185,273.3c0-.29-.13-.52-.39-.68-.26-.16-.72-.3-1.37-.42-.65-.12-1.17-.26-1.55-.42-.38-.16-.66-.36-.85-.59-.18-.23-.27-.5-.27-.81,0-.52,.26-.96,.78-1.32s1.19-.54,2-.54c.85,0,1.54,.19,2.07,.56,.53,.37,.79,.85,.79,1.42h-1.29c0-.3-.15-.55-.45-.77-.3-.21-.67-.32-1.13-.32s-.83,.09-1.1,.26-.4,.4-.4,.67c0,.26,.12,.46,.37,.59s.69,.26,1.33,.38,1.16,.27,1.56,.43c.4,.17,.69,.37,.88,.61,.19,.24,.29,.52,.29,.86,0,.57-.27,1.02-.8,1.36-.54,.34-1.23,.51-2.09,.51-.6,0-1.13-.09-1.6-.27-.46-.18-.82-.43-1.09-.75-.26-.32-.39-.67-.39-1.05h1.28c.02,.36,.2,.65,.52,.86,.32,.21,.75,.32,1.27,.32,.49,0,.88-.08,1.17-.25,.29-.17,.44-.39,.44-.67Z"/><path class="cls-2" d="M187.97,266.96c0-.18,.06-.32,.19-.45s.32-.18,.57-.18,.44,.06,.57,.18c.13,.12,.19,.27,.19,.45s-.07,.32-.19,.44c-.13,.12-.32,.18-.57,.18s-.44-.06-.57-.18-.19-.26-.19-.44Zm1.39,8.02h-1.28v-6.34h1.28v6.34Z"/><path class="cls-2" d="M196.04,274.98c-.07-.12-.13-.35-.18-.67-.6,.52-1.31,.79-2.14,.79-.74,0-1.35-.18-1.82-.53-.47-.35-.71-.8-.71-1.34,0-.66,.3-1.17,.89-1.54,.59-.37,1.43-.55,2.51-.55h1.25v-.5c0-.38-.13-.68-.4-.91-.27-.22-.66-.34-1.19-.34-.46,0-.84,.1-1.15,.29-.31,.2-.46,.43-.46,.71h-1.29c0-.32,.13-.62,.4-.92,.27-.29,.63-.53,1.08-.7,.46-.17,.96-.26,1.5-.26,.86,0,1.54,.18,2.03,.55,.49,.37,.74,.87,.76,1.51v2.92c0,.58,.09,1.04,.26,1.39v.09h-1.35Zm-2.13-.83c.4,0,.78-.09,1.14-.26,.36-.18,.62-.4,.78-.69v-1.3h-1.01c-1.57,0-2.36,.39-2.36,1.17,0,.34,.13,.61,.4,.8s.61,.29,1.03,.29Z"/><path class="cls-2" d="M199.1,276.68l-.73-.42c.43-.51,.66-1.04,.68-1.58v-.98h1.26v.85c0,.39-.11,.79-.34,1.18-.23,.39-.52,.71-.86,.95Z"/><path class="cls-2" d="M206.84,274.98h-1.28v-9h1.28v9Z"/><path class="cls-2" d="M213.53,274.98c-.07-.12-.13-.35-.18-.67-.6,.52-1.31,.79-2.14,.79-.74,0-1.35-.18-1.82-.53-.47-.35-.71-.8-.71-1.34,0-.66,.3-1.17,.89-1.54,.59-.37,1.43-.55,2.51-.55h1.25v-.5c0-.38-.13-.68-.4-.91-.27-.22-.66-.34-1.19-.34-.46,0-.84,.1-1.15,.29-.31,.2-.46,.43-.46,.71h-1.29c0-.32,.13-.62,.4-.92,.27-.29,.63-.53,1.08-.7,.46-.17,.96-.26,1.5-.26,.86,0,1.54,.18,2.03,.55,.49,.37,.74,.87,.76,1.51v2.92c0,.58,.09,1.04,.26,1.39v.09h-1.35Zm-2.13-.83c.4,0,.78-.09,1.14-.26,.36-.18,.62-.4,.78-.69v-1.3h-1.01c-1.57,0-2.36,.39-2.36,1.17,0,.34,.13,.61,.4,.8s.61,.29,1.03,.29Z"/><path class="cls-2" d="M219.83,271.76c0-1,.27-1.78,.81-2.36s1.27-.87,2.18-.87,1.59,.25,2.1,.76l.06-.64h1.18v8.78h-1.28v-3.02c-.52,.47-1.21,.7-2.07,.7-.91,0-1.63-.3-2.17-.89-.54-.6-.81-1.39-.81-2.37v-.08Zm1.28,.12c0,.73,.18,1.3,.54,1.71s.85,.62,1.47,.62c.76,0,1.35-.29,1.75-.86v-3.11c-.41-.56-.99-.84-1.73-.84-.62,0-1.11,.21-1.48,.62-.37,.42-.55,1.03-.55,1.84Z"/><path class="cls-2" d="M232.85,274.35c-.5,.5-1.23,.74-2.2,.74-.8,0-1.41-.2-1.83-.59-.42-.39-.63-.97-.63-1.74v-4.12h1.28v4.1c0,.96,.46,1.44,1.39,1.44,.98,0,1.63-.31,1.96-.93v-4.61h1.28v6.34h-1.22l-.03-.63Z"/><path class="cls-2" d="M239.16,275.1c-1.02,0-1.85-.28-2.48-.85-.64-.56-.96-1.32-.96-2.26v-.2c0-.63,.14-1.19,.43-1.68,.28-.49,.68-.88,1.19-1.16,.51-.28,1.06-.42,1.66-.42,.98,0,1.74,.27,2.28,.81s.81,1.32,.81,2.33v.45h-5.09c.02,.62,.23,1.13,.65,1.51s.94,.58,1.58,.58c.45,0,.84-.08,1.15-.23s.59-.36,.83-.62l.78,.52c-.63,.82-1.57,1.22-2.83,1.22Zm-.16-5.68c-.52,0-.95,.16-1.3,.48s-.57,.76-.65,1.34h3.76v-.08c-.04-.55-.21-.98-.53-1.28-.32-.3-.74-.45-1.28-.45Z"/><path class="cls-2" d="M247.73,274.98v-5.5h-1.19v-.84h1.19v-.65c0-.68,.21-1.21,.65-1.58,.43-.37,1.04-.56,1.83-.56,.3,0,.59,.03,.88,.1l-.07,.87c-.22-.04-.45-.05-.69-.05-.42,0-.74,.1-.96,.31-.23,.21-.34,.5-.34,.88v.67h1.6v.84h-1.6v5.5h-1.28Z"/><path class="cls-2" d="M256.66,274.35c-.5,.5-1.23,.74-2.2,.74-.8,0-1.41-.2-1.83-.59-.42-.39-.63-.97-.63-1.74v-4.12h1.28v4.1c0,.96,.46,1.44,1.39,1.44,.98,0,1.63-.31,1.96-.93v-4.61h1.28v6.34h-1.22l-.03-.63Z"/><path class="cls-2" d="M262.98,275.1c-1.02,0-1.85-.28-2.48-.85-.64-.56-.96-1.32-.96-2.26v-.2c0-.63,.14-1.19,.43-1.68,.28-.49,.68-.88,1.19-1.16,.51-.28,1.06-.42,1.66-.42,.98,0,1.74,.27,2.28,.81s.81,1.32,.81,2.33v.45h-5.09c.02,.62,.23,1.13,.65,1.51s.94,.58,1.58,.58c.45,0,.84-.08,1.15-.23s.59-.36,.83-.62l.78,.52c-.63,.82-1.57,1.22-2.83,1.22Zm-.16-5.68c-.52,0-.95,.16-1.3,.48s-.57,.76-.65,1.34h3.76v-.08c-.04-.55-.21-.98-.53-1.28-.32-.3-.74-.45-1.28-.45Z"/><path class="cls-2" d="M270.91,266.96c0-.18,.06-.32,.19-.45s.32-.18,.57-.18,.44,.06,.57,.18c.13,.12,.19,.27,.19,.45s-.07,.32-.19,.44c-.13,.12-.32,.18-.57,.18s-.44-.06-.57-.18-.19-.26-.19-.44Zm1.39,8.02h-1.28v-6.34h1.28v6.34Z"/><path class="cls-2" d="M275.57,268.64l.04,.8c.57-.61,1.32-.91,2.25-.91,1.59,0,2.39,.76,2.4,2.27v4.19h-1.28v-4.2c0-.46-.13-.79-.37-1.01-.24-.22-.62-.33-1.13-.33-.42,0-.78,.09-1.1,.28s-.56,.43-.74,.74v4.52h-1.28v-6.34h1.21Z"/><path class="cls-2" d="M286.83,274.98c-.07-.12-.13-.35-.18-.67-.6,.52-1.31,.79-2.14,.79-.74,0-1.35-.18-1.82-.53-.47-.35-.71-.8-.71-1.34,0-.66,.3-1.17,.89-1.54,.59-.37,1.43-.55,2.51-.55h1.25v-.5c0-.38-.13-.68-.4-.91-.27-.22-.66-.34-1.19-.34-.46,0-.84,.1-1.15,.29-.31,.2-.46,.43-.46,.71h-1.29c0-.32,.13-.62,.4-.92,.27-.29,.63-.53,1.08-.7,.46-.17,.96-.26,1.5-.26,.86,0,1.54,.18,2.03,.55,.49,.37,.74,.87,.76,1.51v2.92c0,.58,.09,1.04,.26,1.39v.09h-1.35Zm-2.13-.83c.4,0,.78-.09,1.14-.26,.36-.18,.62-.4,.78-.69v-1.3h-1.01c-1.57,0-2.36,.39-2.36,1.17,0,.34,.13,.61,.4,.8s.61,.29,1.03,.29Z"/><path class="cls-2" d="M294.56,274.35c-.5,.5-1.23,.74-2.2,.74-.8,0-1.41-.2-1.83-.59-.42-.39-.63-.97-.63-1.74v-4.12h1.28v4.1c0,.96,.46,1.44,1.39,1.44,.98,0,1.63-.31,1.96-.93v-4.61h1.28v6.34h-1.22l-.03-.63Z"/><path class="cls-2" d="M297.45,271.76c0-.99,.27-1.77,.81-2.36,.54-.58,1.26-.88,2.15-.88s1.63,.27,2.14,.82l.06-.7h1.17v6.19c0,.82-.29,1.47-.86,1.94-.58,.47-1.35,.71-2.32,.71-.54,0-1.07-.1-1.59-.29-.52-.2-.91-.46-1.19-.8l.67-.65c.55,.57,1.22,.86,2.02,.86,.62,0,1.11-.15,1.46-.45s.52-.71,.52-1.25v-.54c-.51,.5-1.21,.75-2.1,.75s-1.59-.3-2.13-.9c-.54-.6-.82-1.41-.82-2.44Zm1.29,.12c0,.71,.17,1.28,.52,1.68,.35,.41,.83,.61,1.46,.61,.81,0,1.4-.31,1.78-.93v-2.89c-.39-.61-.98-.91-1.77-.91-.62,0-1.11,.21-1.46,.62-.35,.41-.53,1.02-.53,1.82Z"/><path class="cls-2" d="M310.36,274.35c-.5,.5-1.23,.74-2.2,.74-.8,0-1.41-.2-1.83-.59-.42-.39-.63-.97-.63-1.74v-4.12h1.28v4.1c0,.96,.46,1.44,1.39,1.44,.98,0,1.63-.31,1.96-.93v-4.61h1.28v6.34h-1.22l-.03-.63Z"/><path class="cls-2" d="M317.19,269.61c-.19-.03-.4-.04-.63-.04-.84,0-1.41,.3-1.71,.91v4.5h-1.28v-6.34h1.25l.02,.73c.42-.57,1.02-.85,1.79-.85,.25,0,.44,.03,.57,.08v1.01Z"/><path class="cls-2" d="M322.73,274.98c-.07-.12-.13-.35-.18-.67-.6,.52-1.31,.79-2.14,.79-.74,0-1.35-.18-1.82-.53-.47-.35-.71-.8-.71-1.34,0-.66,.3-1.17,.89-1.54,.59-.37,1.43-.55,2.51-.55h1.25v-.5c0-.38-.13-.68-.4-.91-.27-.22-.66-.34-1.19-.34-.46,0-.84,.1-1.15,.29-.31,.2-.46,.43-.46,.71h-1.29c0-.32,.13-.62,.4-.92,.27-.29,.63-.53,1.08-.7,.46-.17,.96-.26,1.5-.26,.86,0,1.54,.18,2.03,.55,.49,.37,.74,.87,.76,1.51v2.92c0,.58,.09,1.04,.26,1.39v.09h-1.35Zm-2.13-.83c.4,0,.78-.09,1.14-.26,.36-.18,.62-.4,.78-.69v-1.3h-1.01c-1.57,0-2.36,.39-2.36,1.17,0,.34,.13,.61,.4,.8s.61,.29,1.03,.29Z"/><path class="cls-2" d="M325.51,271.76c0-.97,.27-1.75,.82-2.35s1.26-.89,2.14-.89,1.58,.25,2.09,.76v-3.3h1.28v9h-1.18l-.06-.68c-.51,.53-1.23,.8-2.14,.8s-1.58-.3-2.13-.9-.82-1.39-.82-2.36v-.08Zm1.28,.12c0,.72,.18,1.28,.53,1.69s.84,.61,1.46,.61c.81,0,1.41-.31,1.78-.93v-2.91c-.38-.6-.97-.9-1.77-.9-.63,0-1.12,.21-1.47,.62s-.53,1.02-.53,1.82Z"/><path class="cls-2" d="M338.47,274.98c-.07-.12-.13-.35-.18-.67-.6,.52-1.31,.79-2.14,.79-.74,0-1.35-.18-1.82-.53-.47-.35-.71-.8-.71-1.34,0-.66,.3-1.17,.89-1.54,.59-.37,1.43-.55,2.51-.55h1.25v-.5c0-.38-.13-.68-.4-.91-.27-.22-.66-.34-1.19-.34-.46,0-.84,.1-1.15,.29-.31,.2-.46,.43-.46,.71h-1.29c0-.32,.13-.62,.4-.92,.27-.29,.63-.53,1.08-.7,.46-.17,.96-.26,1.5-.26,.86,0,1.54,.18,2.03,.55,.49,.37,.74,.87,.76,1.51v2.92c0,.58,.09,1.04,.26,1.39v.09h-1.35Zm-2.13-.83c.4,0,.78-.09,1.14-.26,.36-.18,.62-.4,.78-.69v-1.3h-1.01c-1.57,0-2.36,.39-2.36,1.17,0,.34,.13,.61,.4,.8s.61,.29,1.03,.29Z"/><path class="cls-2" d="M348.2,275.1c-1.02,0-1.85-.28-2.48-.85-.64-.56-.96-1.32-.96-2.26v-.2c0-.63,.14-1.19,.43-1.68,.28-.49,.68-.88,1.19-1.16,.51-.28,1.06-.42,1.66-.42,.98,0,1.74,.27,2.28,.81s.81,1.32,.81,2.33v.45h-5.09c.02,.62,.23,1.13,.65,1.51s.94,.58,1.58,.58c.45,0,.84-.08,1.15-.23s.59-.36,.83-.62l.78,.52c-.63,.82-1.57,1.22-2.83,1.22Zm-.16-5.68c-.52,0-.95,.16-1.3,.48s-.57,.76-.65,1.34h3.76v-.08c-.04-.55-.21-.98-.53-1.28-.32-.3-.74-.45-1.28-.45Z"/><path class="cls-2" d="M354.01,274.98h-1.28v-9h1.28v9Z"/><path class="cls-2" d="M363.66,274.98h-1.29v-7.22l-2.59,.8v-.98l3.68-1.17h.2v8.57Z"/><path class="cls-2" d="M372.46,266.44v.92h-.24c-1,.02-1.79,.27-2.39,.75s-.93,1.17-1.03,2.04c.53-.52,1.26-.77,2.18-.77s1.58,.26,2.11,.79c.52,.52,.79,1.2,.79,2.03,0,.88-.28,1.58-.85,2.11s-1.33,.79-2.28,.79-1.75-.31-2.35-.94c-.6-.63-.9-1.43-.9-2.42v-.42c0-1.57,.4-2.77,1.19-3.6,.79-.83,1.97-1.25,3.54-1.27h.23Zm-1.69,3.84c-.44,0-.84,.11-1.21,.33s-.63,.5-.77,.84v.4c0,.7,.19,1.27,.56,1.7,.37,.43,.84,.64,1.4,.64s1.03-.18,1.36-.54,.5-.83,.5-1.41-.17-1.06-.5-1.42-.78-.54-1.34-.54Z"/><path class="cls-2" d="M378.74,271.76c0-.97,.27-1.75,.82-2.35s1.26-.89,2.14-.89,1.58,.25,2.09,.76v-3.3h1.28v9h-1.18l-.06-.68c-.51,.53-1.23,.8-2.14,.8s-1.58-.3-2.13-.9-.82-1.39-.82-2.36v-.08Zm1.28,.12c0,.72,.18,1.28,.53,1.69s.84,.61,1.46,.61c.81,0,1.41-.31,1.78-.93v-2.91c-.38-.6-.97-.9-1.77-.9-.63,0-1.12,.21-1.47,.62s-.53,1.02-.53,1.82Z"/><path class="cls-2" d="M390.18,275.1c-1.02,0-1.85-.28-2.48-.85-.64-.56-.96-1.32-.96-2.26v-.2c0-.63,.14-1.19,.43-1.68,.28-.49,.68-.88,1.19-1.16,.51-.28,1.06-.42,1.66-.42,.98,0,1.74,.27,2.28,.81s.81,1.32,.81,2.33v.45h-5.09c.02,.62,.23,1.13,.65,1.51s.94,.58,1.58,.58c.45,0,.84-.08,1.15-.23s.59-.36,.83-.62l.78,.52c-.63,.82-1.57,1.22-2.83,1.22Zm-.16-5.68c-.52,0-.95,.16-1.3,.48s-.57,.76-.65,1.34h3.76v-.08c-.04-.55-.21-.98-.53-1.28-.32-.3-.74-.45-1.28-.45Z"/><path class="cls-2" d="M399.44,268.64v7.07c0,1.22-.66,1.83-1.96,1.83-.28,0-.54-.04-.78-.11v-.86c.15,.03,.34,.05,.58,.05,.29,0,.5-.07,.66-.2s.23-.36,.23-.68v-7.1h1.28Zm-1.42-1.68c0-.17,.06-.32,.19-.44,.13-.12,.31-.18,.56-.18s.44,.06,.57,.18c.13,.12,.19,.27,.19,.45s-.06,.32-.19,.44c-.13,.12-.32,.18-.57,.18s-.44-.06-.56-.18-.19-.26-.19-.44Z"/><path class="cls-2" d="M406.14,274.35c-.5,.5-1.23,.74-2.2,.74-.8,0-1.41-.2-1.83-.59-.42-.39-.63-.97-.63-1.74v-4.12h1.28v4.1c0,.96,.46,1.44,1.39,1.44,.98,0,1.63-.31,1.96-.93v-4.61h1.28v6.34h-1.22l-.03-.63Z"/><path class="cls-2" d="M410.73,274.98h-1.28v-9h1.28v9Z"/><path class="cls-2" d="M412.79,266.96c0-.18,.06-.32,.19-.45s.32-.18,.57-.18,.44,.06,.57,.18c.13,.12,.19,.27,.19,.45s-.07,.32-.19,.44c-.13,.12-.32,.18-.57,.18s-.44-.06-.57-.18-.19-.26-.19-.44Zm1.39,8.02h-1.28v-6.34h1.28v6.34Z"/><path class="cls-2" d="M415.9,271.75c0-.62,.14-1.18,.43-1.68s.69-.88,1.21-1.15,1.1-.4,1.77-.4c1.02,0,1.85,.3,2.48,.9s.95,1.39,.95,2.38v.08c0,.62-.14,1.17-.42,1.66-.28,.49-.68,.87-1.2,1.15s-1.12,.41-1.79,.41c-1.02,0-1.84-.3-2.47-.9-.63-.6-.95-1.39-.95-2.37v-.08Zm1.29,.13c0,.7,.19,1.27,.58,1.69,.39,.43,.9,.64,1.55,.64s1.17-.22,1.55-.65c.38-.43,.58-1.04,.58-1.81,0-.7-.2-1.26-.59-1.69s-.91-.65-1.56-.65-1.14,.21-1.53,.64-.58,1.04-.58,1.83Z"/><path class="cls-2" d="M427.54,271.76c0-.97,.27-1.75,.82-2.35s1.26-.89,2.14-.89,1.58,.25,2.09,.76v-3.3h1.28v9h-1.18l-.06-.68c-.51,.53-1.23,.8-2.14,.8s-1.58-.3-2.13-.9-.82-1.39-.82-2.36v-.08Zm1.28,.12c0,.72,.18,1.28,.53,1.69s.84,.61,1.46,.61c.81,0,1.41-.31,1.78-.93v-2.91c-.38-.6-.97-.9-1.77-.9-.63,0-1.12,.21-1.47,.62s-.53,1.02-.53,1.82Z"/><path class="cls-2" d="M438.99,275.1c-1.02,0-1.85-.28-2.48-.85-.64-.56-.96-1.32-.96-2.26v-.2c0-.63,.14-1.19,.43-1.68,.28-.49,.68-.88,1.19-1.16,.51-.28,1.06-.42,1.66-.42,.98,0,1.74,.27,2.28,.81s.81,1.32,.81,2.33v.45h-5.09c.02,.62,.23,1.13,.65,1.51s.94,.58,1.58,.58c.45,0,.84-.08,1.15-.23s.59-.36,.83-.62l.78,.52c-.63,.82-1.57,1.22-2.83,1.22Zm-.16-5.68c-.52,0-.95,.16-1.3,.48s-.57,.76-.65,1.34h3.76v-.08c-.04-.55-.21-.98-.53-1.28-.32-.3-.74-.45-1.28-.45Z"/><path class="cls-2" d="M287.08,288.98h-1.29v-7.22l-2.59,.8v-.98l3.68-1.17h.2v8.57Z"/><path class="cls-2" d="M296.96,282.68c0,.43-.13,.8-.4,1.14-.27,.33-.63,.59-1.08,.78,.53,.19,.94,.47,1.25,.84s.46,.78,.46,1.25c0,.74-.29,1.33-.88,1.76s-1.37,.66-2.33,.66-1.75-.22-2.33-.66c-.59-.44-.88-1.03-.88-1.76,0-.46,.15-.88,.45-1.25s.71-.65,1.24-.84c-.45-.19-.8-.45-1.06-.78s-.39-.71-.39-1.13c0-.72,.27-1.29,.82-1.71s1.26-.63,2.16-.63,1.61,.21,2.15,.63c.55,.42,.82,.99,.82,1.71Zm-1.05,3.98c0-.48-.18-.87-.54-1.17s-.83-.45-1.41-.45-1.04,.15-1.39,.45c-.35,.3-.52,.69-.52,1.17s.17,.87,.51,1.14,.81,.42,1.42,.42,1.07-.14,1.42-.42c.34-.28,.51-.66,.51-1.14Zm-1.93-5.43c-.5,0-.91,.13-1.22,.4-.31,.26-.47,.62-.47,1.08s.15,.78,.46,1.05,.72,.4,1.23,.4,.92-.13,1.23-.4,.46-.62,.46-1.05-.16-.79-.48-1.06c-.32-.27-.72-.41-1.21-.41Z"/><path class="cls-2" d="M304.94,282.68c0,.43-.13,.8-.4,1.14-.27,.33-.63,.59-1.08,.78,.53,.19,.94,.47,1.25,.84s.46,.78,.46,1.25c0,.74-.29,1.33-.88,1.76s-1.37,.66-2.33,.66-1.75-.22-2.33-.66c-.59-.44-.88-1.03-.88-1.76,0-.46,.15-.88,.45-1.25s.71-.65,1.24-.84c-.45-.19-.8-.45-1.06-.78s-.39-.71-.39-1.13c0-.72,.27-1.29,.82-1.71s1.26-.63,2.16-.63,1.61,.21,2.15,.63c.55,.42,.82,.99,.82,1.71Zm-1.05,3.98c0-.48-.18-.87-.54-1.17s-.83-.45-1.41-.45-1.04,.15-1.39,.45c-.35,.3-.52,.69-.52,1.17s.17,.87,.51,1.14,.81,.42,1.42,.42,1.07-.14,1.42-.42c.34-.28,.51-.66,.51-1.14Zm-1.93-5.43c-.5,0-.91,.13-1.22,.4-.31,.26-.47,.62-.47,1.08s.15,.78,.46,1.05,.72,.4,1.23,.4,.92-.13,1.23-.4,.46-.62,.46-1.05-.16-.79-.48-1.06c-.32-.27-.72-.41-1.21-.41Z"/><path class="cls-2" d="M311.83,280.44v.92h-.24c-1,.02-1.79,.27-2.39,.75s-.93,1.17-1.03,2.04c.53-.52,1.26-.77,2.18-.77s1.58,.26,2.11,.79c.52,.52,.79,1.2,.79,2.03,0,.88-.28,1.58-.85,2.11s-1.33,.79-2.28,.79-1.75-.31-2.35-.94c-.6-.63-.9-1.43-.9-2.42v-.42c0-1.57,.4-2.77,1.19-3.6,.79-.83,1.97-1.25,3.54-1.27h.23Zm-1.69,3.84c-.44,0-.84,.11-1.21,.33s-.63,.5-.77,.84v.4c0,.7,.19,1.27,.56,1.7,.37,.43,.84,.64,1.4,.64s1.03-.18,1.36-.54,.5-.83,.5-1.41-.17-1.06-.5-1.42-.78-.54-1.34-.54Z"/><path class="cls-2" d="M314.94,288.41c0-.19,.07-.34,.2-.47s.33-.19,.59-.19,.46,.06,.6,.19c.14,.12,.2,.28,.2,.47s-.07,.33-.2,.45c-.14,.12-.34,.18-.6,.18s-.46-.06-.59-.18-.2-.27-.2-.45Z"/></g><g><path class="cls-2" d="M288.61,227.63h-2.13v-10.28l-3.14,1.07v-1.79l4.99-1.84h.27v12.84Z"/><path class="cls-2" d="M301.11,218.21c0,.63-.16,1.19-.48,1.67-.32,.49-.76,.88-1.32,1.16,.67,.31,1.18,.74,1.54,1.27,.36,.54,.54,1.15,.54,1.83,0,1.12-.38,2.02-1.14,2.68-.76,.66-1.78,.99-3.04,.99s-2.29-.33-3.05-.99c-.77-.66-1.15-1.55-1.15-2.67,0-.69,.18-1.3,.54-1.85s.87-.96,1.53-1.26c-.55-.28-.99-.67-1.31-1.16-.32-.49-.48-1.05-.48-1.67,0-1.09,.35-1.95,1.05-2.59s1.65-.96,2.85-.96,2.15,.32,2.86,.96,1.05,1.5,1.05,2.59Zm-1.85,5.83c0-.63-.19-1.14-.57-1.53-.38-.39-.88-.58-1.5-.58s-1.12,.19-1.49,.58c-.37,.39-.56,.9-.56,1.54s.18,1.13,.55,1.5c.37,.38,.87,.56,1.52,.56s1.15-.18,1.51-.54c.36-.36,.54-.87,.54-1.52Zm-.27-5.75c0-.56-.16-1.01-.48-1.38-.32-.36-.76-.54-1.3-.54s-.98,.17-1.29,.51c-.32,.34-.47,.81-.47,1.4s.16,1.05,.48,1.4c.32,.35,.75,.52,1.3,.52s.98-.17,1.3-.52c.32-.35,.48-.81,.48-1.4Z"/><path class="cls-2" d="M311.34,218.21c0,.63-.16,1.19-.48,1.67-.32,.49-.76,.88-1.32,1.16,.67,.31,1.18,.74,1.54,1.27,.36,.54,.54,1.15,.54,1.83,0,1.12-.38,2.02-1.14,2.68-.76,.66-1.78,.99-3.04,.99s-2.29-.33-3.05-.99c-.77-.66-1.15-1.55-1.15-2.67,0-.69,.18-1.3,.54-1.85s.87-.96,1.53-1.26c-.55-.28-.99-.67-1.31-1.16-.32-.49-.48-1.05-.48-1.67,0-1.09,.35-1.95,1.05-2.59s1.65-.96,2.85-.96,2.15,.32,2.86,.96,1.05,1.5,1.05,2.59Zm-1.85,5.83c0-.63-.19-1.14-.57-1.53-.38-.39-.88-.58-1.5-.58s-1.12,.19-1.49,.58c-.37,.39-.56,.9-.56,1.54s.18,1.13,.55,1.5c.37,.38,.87,.56,1.52,.56s1.15-.18,1.51-.54c.36-.36,.54-.87,.54-1.52Zm-.27-5.75c0-.56-.16-1.01-.48-1.38-.32-.36-.76-.54-1.3-.54s-.98,.17-1.29,.51c-.32,.34-.47,.81-.47,1.4s.16,1.05,.48,1.4c.32,.35,.75,.52,1.3,.52s.98-.17,1.3-.52c.32-.35,.48-.81,.48-1.4Z"/><path class="cls-2" d="M320.16,214.77v1.77h-.26c-1.2,.02-2.15,.35-2.87,.98s-1.14,1.54-1.27,2.72c.69-.72,1.56-1.08,2.63-1.08,1.13,0,2.02,.4,2.68,1.2,.65,.8,.98,1.83,.98,3.08s-.38,2.35-1.15,3.16c-.77,.81-1.77,1.21-3.01,1.21s-2.31-.47-3.11-1.42c-.79-.94-1.19-2.18-1.19-3.71v-.73c0-2.24,.55-4,1.64-5.27,1.09-1.27,2.67-1.91,4.72-1.91h.22Zm-2.29,6.11c-.47,0-.9,.13-1.29,.4-.39,.26-.67,.62-.86,1.05v.65c0,.95,.2,1.7,.6,2.26,.4,.56,.91,.84,1.55,.84s1.13-.24,1.5-.71,.55-1.1,.55-1.87-.19-1.4-.56-1.89-.87-.73-1.49-.73Z"/></g><circle class="cls-2" cx="302.33" cy="203.04" r="6.98"/></svg>