<?xml version="1.0" encoding="utf-8"?>
<!-- Generator: Adobe Illustrator 25.3.1, SVG Export Plug-In . SVG Version: 6.00 Build 0)  -->
<svg version="1.1" id="Layer_1" xmlns="http://www.w3.org/2000/svg" xmlns:xlink="http://www.w3.org/1999/xlink" x="0px" y="0px"
	 viewBox="0 0 512 512" style="enable-background:new 0 0 512 512;" xml:space="preserve">
<style type="text/css">
	.st0{fill:#FAA332;}
	.st1{fill:#CCB9F0;}
	.st2{fill:#5EBAE9;}
</style>
<polygon class="st0" points="349,309.1 349,349.8 472.8,349.8 "/>
<g>
	<polygon class="st1" points="349,349.8 349,501.8 474.2,501.8 474.2,350.3 472.8,349.8 	"/>
	<polygon class="st1" points="37.8,350.3 37.8,501.8 162.7,501.8 162.7,349.8 39.2,349.8 	"/>
</g>
<polygon class="st0" points="39.2,349.8 162.7,349.8 162.7,309.1 "/>
<rect x="162.7" y="163.8" class="st1" width="186.3" height="338"/>
<polygon class="st0" points="349,163.8 255.7,79.3 162.7,163.8 "/>
<g>
	<path class="st2" d="M204,440.7v61.1h103.7v-61.1c0-28.3-20.4-51.2-45.6-51.2h-12.6C224.4,389.5,204,412.4,204,440.7z"/>
	<path class="st2" d="M272,313.2h-32.6v-72.3c0-9,7.3-16.3,16.3-16.3l0,0c9,0,16.3,7.3,16.3,16.3V313.2L272,313.2z"/>
</g>
<path d="M474.2,512c5.6,0,10.2-4.6,10.2-10.2V350.3c0-4.4-2.8-8.3-7-9.7l-1.4-0.5c0,0,0,0,0,0l-116.8-38.4V163.8
	c0-2.9-1.3-5.6-3.3-7.5c0,0-0.1-0.1-0.1-0.1l-89.9-81.5V44.1h14c5.6,0,10.2-4.6,10.2-10.2s-4.6-10.2-10.2-10.2h-14V10.2
	c0-5.6-4.6-10.2-10.2-10.2s-10.2,4.6-10.2,10.2v13.5h-14c-5.6,0-10.2,4.6-10.2,10.2s4.6,10.2,10.2,10.2h14v30.6l-89.7,81.5
	c0,0,0,0-0.1,0.1c-2,1.9-3.3,4.5-3.3,7.5v137.9L36,340.1c0,0,0,0,0,0l-1.4,0.5c-4.2,1.4-7,5.3-7,9.7v151.5c0,5.6,4.6,10.2,10.2,10.2
	L474.2,512L474.2,512z M359.2,323.2l50,16.5h-50V323.2z M255.8,93l66.8,60.5H189.1L255.8,93z M152.5,323.2v16.5h-49.8L152.5,323.2z
	 M48,360h104.5v131.6H48V360z M297.5,491.6h-83.3v-50.9c0-22.6,15.9-41,35.4-41h12.6c19.5,0,35.4,18.4,35.4,41V491.6z M338.8,491.6
	h-20.9v-50.9c0-33.9-25-61.4-55.8-61.4h-12.6c-30.8,0-55.8,27.5-55.8,61.4v50.9h-20.9V349.8V174h165.9L338.8,491.6L338.8,491.6z
	 M464,491.6H359.2V360H464L464,491.6L464,491.6z"/>
<path d="M239.4,323.4H272c5.6,0,10.2-4.6,10.2-10.2v-72.3c0-14.6-11.9-26.5-26.5-26.5s-26.5,11.9-26.5,26.5v72.3
	C229.2,318.8,233.8,323.4,239.4,323.4z M249.6,240.9c0-3.4,2.7-6.1,6.1-6.1s6.1,2.7,6.1,6.1V303h-12.2L249.6,240.9L249.6,240.9z"/>
<path d="M388.7,484.2h2.1c5.6,0,10.2-4.6,10.2-10.2s-4.6-10.2-10.2-10.2h-2.1c-5.6,0-10.2,4.6-10.2,10.2S383.1,484.2,388.7,484.2z"
	/>
<path d="M422.7,484.2h23.7c5.6,0,10.2-4.6,10.2-10.2s-4.6-10.2-10.2-10.2h-23.7c-5.6,0-10.2,4.6-10.2,10.2S417.1,484.2,422.7,484.2z
	"/>
</svg>
