<?xml version="1.0" encoding="utf-8"?>
<!-- Generator: Adobe Illustrator 24.0.1, SVG Export Plug-In . SVG Version: 6.00 Build 0)  -->
<svg version="1.1" id="Map" xmlns="http://www.w3.org/2000/svg" xmlns:xlink="http://www.w3.org/1999/xlink" x="0px" y="0px"
	 viewBox="0 0 343.1 400" style="enable-background:new 0 0 343.1 400;" xml:space="preserve">
<style type="text/css">
	.st0{fill:#387298;}
	.st1{fill:#FFFFFF;}
	.st2{font-family:'ArialMT';}
	.st3{font-size:21.65px;}
	.st4{font-size:44.8781px;}
</style>
<path class="st0" d="M282.5,99.4c-2.7-5.9-8.5-7.8-9.5-8.1c-67.8-0.7-135.6-1.4-203.5-2.1c-2.9,0.5-7.3,1.8-10.4,5.5
	c-3,3.7-3.3,8.2-3.3,9.8c-0.1,66.1-0.1,132.1-0.2,198.2c0,0.7,0.1,2.9,1.2,5.3c1.5,3.4,4.7,7,9.4,8.4c2.1,0.6,4,0.6,5.4,0.5
	c66.1,0,132.1,0,198.2,0c1.5-0.3,4.1-0.9,6.6-2.8c3.5-2.7,4.7-6.2,5.6-8.9c1.4-3.9,1.4-7.2,1.4-8c0.1-7.2,0.2-84.2,0.2-189.7
	C283.8,106,284,102.8,282.5,99.4z M129.8,93.3c6.4,0,11.6,5.2,11.6,11.6s-5.2,11.6-11.6,11.6c-6.4,0-11.6-5.2-11.6-11.6
	C118.2,98.5,123.4,93.3,129.8,93.3z M98.5,295.5L98.5,295.5H73.3v-28.4h25.2V295.5z M98.5,263.5L98.5,263.5H73.3v-28.4h25.2V263.5z
	 M98.5,231.4L98.5,231.4H73.3V203h25.2V231.4z M98.5,199.3L98.5,199.3H73.3v-28.4h25.2V199.3z M88.3,116.6
	c-6.4,0-11.6-5.2-11.6-11.6s5.2-11.6,11.6-11.6s11.6,5.2,11.6,11.6S94.7,116.6,88.3,116.6z M126.4,295.5h-25.2v-28.4h25.2
	C126.4,267.1,126.4,295.5,126.4,295.5z M126.4,263.5h-25.2v-28.4h25.2C126.4,235.1,126.4,263.5,126.4,263.5z M126.4,231.4h-25.2V203
	h25.2C126.4,203,126.4,231.4,126.4,231.4z M126.4,199.3h-25.2v-28.4h25.2C126.4,170.9,126.4,199.3,126.4,199.3z M154.4,295.5h-25.2
	v-28.4h25.2V295.5z M154.4,263.5h-25.2v-28.4h25.2V263.5z M154.4,231.4h-25.2V203h25.2V231.4z M154.4,199.3h-25.2v-28.4h25.2V199.3z
	 M182.3,295.5h-25.2v-28.4h25.2V295.5z M182.3,263.5h-25.2v-28.4h25.2V263.5z M182.3,231.4h-25.2V203h25.2V231.4z M182.3,199.3
	h-25.2v-28.4h25.2V199.3z M170.8,116.6c-6.4,0-11.6-5.2-11.6-11.6s5.2-11.6,11.6-11.6c6.4,0,11.6,5.2,11.6,11.6
	S177.2,116.6,170.8,116.6z M210.3,295.5h-25.2v-28.4h25.2V295.5z M210.3,263.5h-25.2v-28.4h25.2V263.5z M210.3,199.3h-25.2v-28.4
	h25.2V199.3z M199,104.9c0-6.4,5.2-11.6,11.6-11.6c6.4,0,11.6,5.2,11.6,11.6s-5.2,11.6-11.6,11.6S199,111.4,199,104.9z M238.3,295.5
	h-25.2v-28.4h25.2V295.5z M238.3,263.5h-25.2v-28.4h25.2V263.5z M238.3,231.4h-25.2V203h25.2V231.4z M238.3,199.3h-25.2v-28.4h25.2
	V199.3z M250.7,93.3c6.4,0,11.6,5.2,11.6,11.6s-5.2,11.6-11.6,11.6s-11.6-5.2-11.6-11.6C239.1,98.5,244.3,93.3,250.7,93.3z
	 M266.2,295.5H241v-28.4h25.2V295.5z M266.2,263.5H241v-28.4h25.2V263.5z M266.2,231.4H241V203h25.2V231.4z M266.2,199.3H241v-28.4
	h25.2V199.3z"/>
<g>
	<path class="st0" d="M89,109.3h-1.4c-4,0-7.2-3.2-7.2-7.2V76.4c0-4,3.2-7.2,7.2-7.2H89c4,0,7.2,3.2,7.2,7.2v25.8
		C96.1,106.1,92.9,109.3,89,109.3z"/>
</g>
<g>
	<path class="st0" d="M130.4,109.3H129c-4,0-7.2-3.2-7.2-7.2V76.4c0-4,3.2-7.2,7.2-7.2h1.4c4,0,7.2,3.2,7.2,7.2v25.8
		C137.5,106.1,134.3,109.3,130.4,109.3z"/>
</g>
<g>
	<path class="st0" d="M171.5,109.3h-1.4c-4,0-7.2-3.2-7.2-7.2V76.4c0-4,3.2-7.2,7.2-7.2h1.4c4,0,7.2,3.2,7.2,7.2v25.8
		C178.7,106.1,175.5,109.3,171.5,109.3z"/>
</g>
<g>
	<path class="st0" d="M211.4,109.3H210c-4,0-7.2-3.2-7.2-7.2V76.4c0-4,3.2-7.2,7.2-7.2h1.4c4,0,7.2,3.2,7.2,7.2v25.8
		C218.5,106.1,215.3,109.3,211.4,109.3z"/>
</g>
<g>
	<path class="st0" d="M251.4,109.3H250c-4,0-7.2-3.2-7.2-7.2V76.4c0-4,3.2-7.2,7.2-7.2h1.4c4,0,7.2,3.2,7.2,7.2v25.8
		C258.6,106.1,255.4,109.3,251.4,109.3z"/>
</g>
<text transform="matrix(1 0 0 1 185.1 225.8828)" class="st1 st2 st3">15</text>
<text transform="matrix(1 0 0 1 105.061 159.7573)" class="st1 st2 st4">JULIO</text>
</svg>
