<?xml version="1.0" encoding="utf-8"?>
<!-- Generator: Adobe Illustrator 24.0.1, SVG Export Plug-In . SVG Version: 6.00 Build 0)  -->
<svg version="1.1" id="Map" xmlns="http://www.w3.org/2000/svg" xmlns:xlink="http://www.w3.org/1999/xlink" x="0px" y="0px"
	 viewBox="0 0 343.1 400" style="enable-background:new 0 0 343.1 400;" xml:space="preserve">
<style type="text/css">
	.st0{fill:#387298;}
	.st1{fill:#FFFFFF;}
	.st2{font-family:'Roboto-Bold';}
	.st3{font-size:20.717px;}
	.st4{font-size:44.9612px;}
</style>
<g>
	<g>
		<g>
			<path class="st0" d="M282.3,99.2c-2.7-5.9-8.5-7.8-9.5-8.1c-68-0.7-135.9-1.4-203.9-2.1c-2.9,0.5-7.4,1.8-10.4,5.5
				c-3,3.7-3.3,8.2-3.3,9.8c-0.1,66.2-0.1,132.4-0.2,198.6c0,0.8,0.1,2.9,1.2,5.3c1.5,3.5,4.7,7,9.4,8.4c2.1,0.6,4,0.6,5.5,0.5
				c66.2,0,132.4,0,198.6,0c1.6-0.3,4.1-0.9,6.6-2.8c3.5-2.7,4.7-6.3,5.6-8.9c1.4-3.9,1.4-7.2,1.4-8c0.1-7.2,0.2-84.4,0.2-190.1
				C283.7,105.8,283.9,102.6,282.3,99.2z M129.4,93.1c6.4,0,11.6,5.2,11.6,11.6c0,6.4-5.2,11.6-11.6,11.6c-6.4,0-11.6-5.2-11.6-11.6
				C117.8,98.3,123,93.1,129.4,93.1z M98,295.6H72.8v-28.4H98V295.6z M98,263.5H72.8v-28.4H98V263.5z M98,231.4H72.8V203H98V231.4z
				 M98,199.2H72.8v-28.4H98V199.2z M87.8,116.4c-6.4,0-11.6-5.2-11.6-11.6c0-6.4,5.2-11.6,11.6-11.6c6.4,0,11.6,5.2,11.6,11.6
				C99.4,111.1,94.2,116.4,87.8,116.4z M126,295.6h-25.2v-28.4H126V295.6z M126,263.5h-25.2v-28.4H126V263.5z M126,199.2h-25.2
				v-28.4H126V199.2z M154,295.6h-25.2v-28.4H154V295.6z M154,263.5h-25.2v-28.4H154V263.5z M154,199.2h-25.2v-28.4H154V199.2z
				 M182,295.6h-25.2v-28.4H182V295.6z M182,263.5h-25.2v-28.4H182V263.5z M182,199.2h-25.2v-28.4H182V199.2z M170.5,116.4
				c-6.4,0-11.6-5.2-11.6-11.6c0-6.4,5.2-11.6,11.6-11.6c6.4,0,11.6,5.2,11.6,11.6C182.1,111.1,176.9,116.4,170.5,116.4z M210,295.6
				h-25.2v-28.4H210V295.6z M210,263.5h-25.2v-28.4H210V263.5z M210,199.2h-25.2v-28.4H210V199.2z M198.8,104.7
				c0-6.4,5.2-11.6,11.6-11.6s11.6,5.2,11.6,11.6c0,6.4-5.2,11.6-11.6,11.6S198.8,111.1,198.8,104.7z M238.1,295.6h-25.2v-28.4h25.2
				V295.6z M238.1,263.5h-25.2v-28.4h25.2V263.5z M238.1,199.2h-25.2v-28.4h25.2V199.2z M250.5,93.1c6.4,0,11.6,5.2,11.6,11.6
				c0,6.4-5.2,11.6-11.6,11.6c-6.4,0-11.6-5.2-11.6-11.6C238.9,98.3,244.1,93.1,250.5,93.1z M266.1,295.6h-25.2v-28.4h25.2V295.6z
				 M266.1,263.5h-25.2v-28.4h25.2V263.5z M266.1,231.4h-25.2V203h25.2V231.4z M266.1,199.2h-25.2v-28.4h25.2V199.2z"/>
		</g>
	</g>
	<text transform="matrix(1 0 0 1 128.2935 227.3994)" class="st1 st2 st3">13</text>
	<text transform="matrix(1 0 0 1 156.8169 227.3994)" class="st1 st2 st3">14</text>
	<text transform="matrix(1 0 0 1 185.9932 227.3994)" class="st1 st2 st3">15</text>
	<g>
		<path class="st0" d="M90.8,109.1h-6c-2.7,0-4.9-2.2-4.9-4.9V73.8c0-2.7,2.2-4.9,4.9-4.9h6c2.7,0,4.9,2.2,4.9,4.9v30.4
			C95.7,106.9,93.5,109.1,90.8,109.1z"/>
	</g>
	<g>
		<path class="st0" d="M132.3,109.1h-6c-2.7,0-4.9-2.2-4.9-4.9V73.8c0-2.7,2.2-4.9,4.9-4.9h6c2.7,0,4.9,2.2,4.9,4.9v30.4
			C137.1,106.9,135,109.1,132.3,109.1z"/>
	</g>
	<g>
		<path class="st0" d="M173.5,109.1h-6c-2.7,0-4.9-2.2-4.9-4.9V73.8c0-2.7,2.2-4.9,4.9-4.9h6c2.7,0,4.9,2.2,4.9,4.9v30.4
			C178.4,106.9,176.2,109.1,173.5,109.1z"/>
	</g>
	<g>
		<path class="st0" d="M213.4,109.1h-6c-2.7,0-4.9-2.2-4.9-4.9V73.8c0-2.7,2.2-4.9,4.9-4.9h6c2.7,0,4.9,2.2,4.9,4.9v30.4
			C218.3,106.9,216.1,109.1,213.4,109.1z"/>
	</g>
	<g>
		<path class="st0" d="M253.5,109.1h-6c-2.7,0-4.9-2.2-4.9-4.9V73.8c0-2.7,2.2-4.9,4.9-4.9h6c2.7,0,4.9,2.2,4.9,4.9v30.4
			C258.4,106.9,256.2,109.1,253.5,109.1z"/>
	</g>
	<text transform="matrix(1 0 0 1 99.5249 227.3994)" class="st1 st2 st3">12</text>
	<text transform="matrix(1 0 0 1 214.1064 227.3994)" class="st1 st2 st3">16</text>
	<text transform="matrix(1 0 0 1 104.6196 159.6348)" class="st1 st2 st4">JULIO</text>
</g>
</svg>
