<?xml version="1.0" encoding="utf-8"?>
<!-- Generator: Adobe Illustrator 24.0.1, SVG Export Plug-In . SVG Version: 6.00 Build 0)  -->
<svg version="1.1" xmlns="http://www.w3.org/2000/svg" xmlns:xlink="http://www.w3.org/1999/xlink" x="0px" y="0px"
	 viewBox="0 0 612 792" style="enable-background:new 0 0 612 792;" xml:space="preserve">
<style type="text/css">
	.st0{fill:#387299;}
	.st1{fill:#020203;}
	.st2{fill:#58B9E6;}
	.st3{fill:#EDEDEC;}
	.st4{fill:#F3CA4B;}
	.st5{fill:#C9BADC;}
	.st6{fill:#F4A646;}
	.st7{fill:#376F95;}
	.st8{fill:#020203;stroke:#020203;stroke-width:0.5;stroke-miterlimit:10;}
	.st9{fill:#EDEDEC;stroke:#020203;stroke-width:0.25;stroke-miterlimit:10;}
</style>
<g id="Capa_1">
	<g>
		<path class="st0" d="M336.7,554.9c2.1-22.1,8.1-39.1,12.8-49.9c4.1-9.3,8-17.9,15.7-27.7c7.3-9.3,11.2-10.9,19.3-22.3
			c2.6-3.6,7.7-10.6,11.3-19c6-13.8,4.8-23.5,5.8-36.5c2.9-35.8,21.1-67.1,25.5-74.8c2.6-4.4,7.6-12.5,12-24.8
			c1.1-3,3.9-11.1,6.2-23.3c1.1-5.7,4.7-27.1,1.8-56.2c-2.1-21.2-6.9-37-8.4-41.9c-4.4-14.2-12.6-34.8-28.1-56.9
			c7.4,5.6,17.3,13.7,27.7,24.8c8.5,9.1,25.2,27.3,37.2,55.4c8.5,20.1,10.9,36.5,12.8,49.2c5.1,35,1.4,66.2,0.4,74.8
			c-0.8,6.5-1.7,12-2.6,22.3c-0.7,9-1.9,23.8-0.7,40.9c1.4,20.5,5.6,37,8.8,49.6c3.3,12.9,5.8,19.8,7.4,33.3c0.3,2.3,1.3,11.7,1,24
			c-0.5,19.7-1.1,46-16.1,72.2c-3.6,6.3-9.8,15.7-20.2,25.7c-13.4-13.3-37-33.8-67.2-45.3c-14.4-5.5-24.5-7.3-34.2-5.3
			C358.2,544.4,342.1,550.9,336.7,554.9z"/>
		<g>
			<path class="st1" d="M338.6,554.9c1.6-16.4,5.6-32.7,12.1-47.8c3.4-7.8,7-15.6,11.7-22.7c4.4-6.6,9.8-12.2,15.3-18
				c5.1-5.4,9.6-11.5,13.6-17.8c5-7.8,8.9-16.3,10.5-25.5c1.5-8.3,1.2-16.8,2-25.2c0.9-9.4,2.9-18.6,5.5-27.7
				c4-13.5,9.6-26.4,16.3-38.7c5.7-10.5,11.7-20.5,15.8-31.8c9.4-26.3,10.7-55.8,7.4-83.3c-3.5-29.3-12.7-57.5-27.9-82.9
				c-2.6-4.4-5.4-8.7-8.4-12.9c-0.9,0.9-1.7,1.7-2.6,2.6c24.4,18.3,45.9,42.2,59.6,69.6c8.2,16.3,13.3,33.7,16.1,51.6
				c2.9,18.2,4.1,36.6,3.5,55c-0.4,11.7-1.7,23.3-3.2,34.9c-2.2,16.8-3.2,34-2.4,50.9c0.9,17.8,4.3,35.1,8.7,52.4
				c2.1,8.1,4.5,16.1,6.1,24.4c1.3,6.6,2,13.3,2.4,20.1c0.4,8.4,0.2,16.8-0.2,25.2c-0.4,8.7-1.2,17.4-3,26
				c-3.6,17.7-11.1,34.4-22.5,48.4c-3.1,3.8-6.4,7.3-9.9,10.7c0.9,0,1.8,0,2.7,0c-13.9-13.7-29.3-26.1-46.4-35.6
				c-10.4-5.8-21.5-10.8-33-13.9c-8.8-2.4-17.9-3.3-26.8-0.8c-4.8,1.4-9.4,3.2-14,5.1c-4.1,1.7-8.3,3.6-11.9,6.2
				c-1.9,1.4-0.1,4.7,1.9,3.2c6.5-4.7,14.7-7.6,22.2-10.1c8.4-2.8,16.7-2.7,25.3-0.6c21.4,5.3,41.3,16.9,58.6,30.3
				c7.5,5.8,14.6,12.2,21.4,18.9c0.7,0.7,1.9,0.7,2.7,0c13.1-12.6,23.2-28,29.1-45.2c5.8-16.8,7.1-34.4,7.6-52
				c0.4-15.7-0.9-31-4.9-46.2c-4.4-16.7-9-33.4-11.1-50.6c-2.3-18.3-1.8-36.7-0.2-55c1.1-12.3,3.1-24.5,4-36.8
				c1.2-18.6,0.8-37.3-1.6-55.7c-2.3-17.2-5.8-34.2-12.4-50.3c-12.3-29.8-33.1-55.8-57.9-76.3c-2.8-2.3-5.7-4.6-8.7-6.8
				c-1.5-1.1-3.6,1.1-2.6,2.6c17.3,24.7,28.9,52.7,34.1,82.4c5.1,29.2,4.9,60.5-4,89c-3.6,11.5-9.2,21.9-15.1,32.3
				c-6.1,10.7-11.3,22-15.5,33.6c-3,8.3-5.4,16.8-7,25.5c-1.6,8.8-2.1,17.7-2.6,26.6c-0.5,9.3-2.4,18.1-6.6,26.6
				c-3.7,7.3-8.4,14.2-13.6,20.5c-4.4,5.3-9.6,9.9-13.9,15.3c-5.7,7-10.3,14.6-14.1,22.7c-6.5,13.9-11.5,28.3-14.2,43.4
				c-0.8,4.7-1.5,9.5-1.9,14.3C334.6,557.3,338.3,557.3,338.6,554.9z"/>
		</g>
	</g>
	<g>
		<path class="st2" d="M449.2,158.5c-2.3,1.9-6.1,5.5-8.6,11.1c-1.2,2.8-1.8,5.4-2.2,7.5c1.1,3.5,2.7,8.8,4.2,15.3
			c1.2,5.2,4.5,20.4,5.4,40.8c0.2,4.8,0.4,11.4,0.1,19.3c4.9,3.6,11,7.6,18.5,11.2c8.5,4.1,16.4,6.6,22.8,8.2
			c0.2-14.2-1.2-36.8-10.7-62.5C470,186,458,169,449.2,158.5z"/>
		<g>
			<path class="st1" d="M448.3,157.6c-3.3,2.7-6.1,6-8,9.8c-1.2,2.4-2.2,5-2.7,7.6c-0.2,1.1-0.4,2-0.1,3.1c0.3,1,0.6,1.9,0.9,2.9
				c2.1,7.1,3.8,14.4,5.2,21.7c1.8,9.9,2.9,20,3.3,30.1c0.2,4.9,0.3,9.7,0.2,14.6c0,1.5-0.1,3-0.1,4.5c0,0.6-0.1,1.1,0.3,1.6
				c0.4,0.4,1,0.7,1.4,1c2,1.5,4.1,2.8,6.2,4.2c10.5,6.6,22.1,11.5,34.2,14.5c0.8,0.2,1.6-0.4,1.6-1.2c0.2-15.3-1.6-30.6-5.3-45.4
				c-4.5-17.9-12-35.1-21.9-50.7c-4-6.3-8.5-12.4-13.3-18.2c-1-1.2-2.8,0.5-1.8,1.8c9.4,11.2,17.3,23.7,23.5,36.9
				c7.9,16.8,13.1,34.8,15.2,53.2c0.9,7.4,1.2,14.9,1.1,22.4c0.5-0.4,1.1-0.8,1.6-1.2c-14.8-3.7-28.7-10.2-41-19.3
				c0.2,0.4,0.4,0.7,0.6,1.1c0.5-14.7-0.3-29.3-2.4-43.8c-1.6-10.5-3.9-20.9-7.1-31.1c-0.4-1.3,0.4-3.5,0.9-5
				c0.7-2.1,1.7-4.2,2.9-6.1c1.7-2.7,3.9-5.1,6.4-7.1C451.3,158.4,449.5,156.6,448.3,157.6z"/>
		</g>
	</g>
	<g>
		<path class="st3" d="M487.5,244.5c-5.2,0.5-13.2,1.9-22.1,6.1c-8.5,4-14.4,9.1-18.1,12.7c-0.6,8.1-2.2,20.1-7,33.7
			c-5.5,15.3-9.5,17.3-11.3,27.1c-3.6,20.7,9.9,39.2,15.4,46.7c14.3,19.6,33.5,27.7,42.4,30.8c-2.3-25.8-1.5-46.6-0.3-60.8
			c1.8-21.2,4.8-33.5,4.6-56.2C490.9,267.5,489,253.5,487.5,244.5z"/>
		<g>
			<path class="st1" d="M487.5,243.2c-8,0.8-15.7,2.9-22.9,6.4c-3.8,1.8-7.5,4.1-10.9,6.6c-1.4,1.1-2.8,2.2-4.1,3.3
				c-0.6,0.5-1.1,1-1.7,1.5c-0.5,0.5-1.2,1-1.6,1.6c-0.3,0.6-0.2,1.4-0.3,2.1c-0.1,0.8-0.1,1.6-0.2,2.5c-0.2,1.8-0.4,3.5-0.6,5.3
				c-0.6,4.1-1.4,8.1-2.4,12.1c-2.1,8.4-4.9,16.6-8.9,24.3c-2.4,4.7-4.9,9.1-5.9,14.4c-1.5,7.9-0.6,16.1,1.9,23.7
				c2.2,6.5,5.4,12.7,9.2,18.4c3.7,5.6,7.7,10.9,12.4,15.7c9.1,9.2,20.3,16.2,32.3,20.8c0.9,0.3,1.8,0.7,2.7,1
				c0.7,0.3,1.7-0.4,1.6-1.2c-1.8-20.2-2-40.6-0.3-60.8c0.9-10.3,2.3-20.6,3.4-30.9c1.1-11.2,1.5-22.4,1-33.7
				c-0.5-10.8-1.6-21.5-3.4-32.1c-0.3-1.6-2.7-0.9-2.4,0.7c3.5,20.4,4.5,41.4,2.6,62c-0.9,10.1-2.4,20-3.3,30.1
				c-0.8,8.8-1.3,17.6-1.5,26.4c-0.2,12.8,0.3,25.5,1.4,38.2c0.5-0.4,1.1-0.8,1.6-1.2c-8.3-2.9-16.1-6.9-23.2-12
				c-9.1-6.5-16.5-14.9-22.6-24.2c-6.3-9.5-11.3-20.3-11.6-31.9c-0.1-5.1,0.6-10.4,2.7-15.1c1.8-4.1,4.2-7.9,6-12
				c5.9-13.2,9.2-27.6,10.2-41.9c-0.1,0.3-0.2,0.6-0.4,0.9c10.6-10.4,24.5-17,39.3-18.4C489.1,245.6,489.1,243.1,487.5,243.2z"/>
		</g>
	</g>
	<g>
		<path class="st4" d="M485.4,361.7c-7.3,1-26.7,4.7-43.1,20.8c-20.5,20.1-22,45.5-22.4,53.9c-1.5,25.9,8.9,44.7,13.5,52.6
			c5.3,9.3,17.6,30.8,42.8,39.6c9.4,3.3,17.8,3.8,23.4,3.8c2.4-14.9,4-33.5,2.7-52.7c-0.6-8.9-1.8-16-2-17.4
			c-2.1-12.7-4.3-18.1-7.2-29.3c-6.8-26.1-7.7-46.9-7.9-54.1C484.9,371.5,485.2,365.6,485.4,361.7z"/>
		<g>
			<path class="st1" d="M485,360.5c-16.3,2.2-31.9,9.5-43.6,21.1c-12.6,12.4-19.8,28.9-22.1,46.3c-2.1,16.4-0.2,33,6.2,48.3
				c2.2,5.4,5,10.4,7.9,15.5c3.2,5.6,6.8,11,11,15.9c5.5,6.5,12,12.2,19.4,16.6c9,5.3,19.2,8.4,29.6,9.2c2,0.2,4.1,0.2,6.1,0.2
				c0.5,0,1.1-0.4,1.2-0.9c3.8-24.3,4.6-49.3,0.2-73.6c-2.1-11.6-6-22.6-8.6-34.1c-2.6-11.3-4.4-22.7-5.4-34.2
				c-0.8-9.7-1-19.4-0.4-29.1c0.1-1.6-2.4-1.6-2.5,0c-1.1,19.5,0.7,39,4.6,58.1c1.3,6.5,2.9,12.9,4.7,19.3c1.4,5,2.9,10.1,4.1,15.2
				c2.4,10.9,3.6,22.1,3.9,33.2c0.4,14.9-0.7,29.8-3,44.6c0.4-0.3,0.8-0.6,1.2-0.9c-10,0.1-19.9-1.9-29-6.1
				c-7.9-3.7-14.9-8.9-20.8-15.2c-8.2-8.6-14.6-19-19.8-29.7c-3.6-7.4-6.2-15.2-7.7-23.3c-1.5-8.2-1.7-16.4-1-24.7
				c1.3-15.6,6.7-31,16.7-43.2c11.2-13.6,27.2-22.4,44.4-25.5c1.1-0.2,2.1-0.4,3.2-0.5C487.3,362.7,486.6,360.3,485,360.5z"/>
		</g>
	</g>
</g>
<g id="Capa_2">
	<g>
		<path class="st0" d="M230.2,454c-0.8-1.2-3-4.5-5.8-12.9c-3.3-9.7-4.6-17.7-5.7-24.6c-2.7-18.2-1.9-18.9-3.6-28.6
			c-2.6-15.2-6.9-26.5-9.2-32.5c-3.9-10.1-5-10.2-16.4-33.5c-8.5-17.2-12.7-25.9-14.8-33.8c-2.4-9.4-2.9-16.7-3.6-30.9
			c-0.1-1.3-1.3-25.5,0-41.4c3.3-40.6,27.8-83,34.1-93.6c-3.9,2.4-9.3,6-15.2,11c-6.9,5.9-14.8,13.8-25.2,28.7
			c-10.1,14.5-22.4,32.3-30.3,58.4c-5.1,17-6.1,30.1-7.2,44c-1.5,19.3,0,41.4,3,84.7c1.5,21.2,1.8,23,1.6,30.2
			c-0.1,4.1-0.8,26.2-8.2,54.5c-3.1,11.8-5.7,18.6-7.9,32.8c0,0-1.6,10.3-2,20c-1.2,29.1,8.7,56.5,15.8,75.5
			c5,13.3,12.5,31.1,24,51.2c27.6-40.8,58.1-64.9,76.5-69c15.9-3.5,28.6-0.2,28.6-0.2c7.2,1.9,12.7,4.9,16.2,7.1
			c2.6-11,4.5-28.1-2.2-46c-2-5.3-10.2-27.5-27.8-38.3C242,465.2,235.4,461.6,230.2,454z"/>
		<g>
			<path class="st1" d="M231.8,453c-2.9-4.3-4.7-9.4-6.2-14.2c-2.2-6.9-3.7-14-4.8-21.1c-1.5-9.4-2.1-18.9-3.5-28.3
				c-1.9-12.1-5.4-23.9-9.9-35.3c-2.4-6.2-5.6-12-8.6-17.9c-6.3-12.2-12.6-24.5-18.1-37.1c-4.3-9.9-6.3-20-7-30.8
				c-1.6-23.6-2.9-48.1,2.4-71.4c5.5-24.6,16.1-48.1,28.7-69.9c0.7-1.3,1.5-2.5,2.2-3.8c0.9-1.6-1-3.6-2.6-2.6
				c-14.7,9.1-26.7,20.9-37,34.8c-10.6,14.3-20.4,29.4-27.6,45.8c-13.5,31-15.8,64.8-14.3,98.1c0.9,19.5,2.3,38.9,3.7,58.4
				c0.6,8.9,1.3,17.7,0.8,26.6c-1,17.6-4.1,35.1-8.7,52.1c-2.4,8.7-5,17.3-6.5,26.2c-1.4,8.1-2.3,16.4-2.6,24.6
				c-0.8,21.2,4.2,42.1,11,62c5.9,17.3,12.8,34.2,21.1,50.4c2.5,5,5.2,9.9,8,14.8c0.7,1.3,2.5,1.1,3.2,0
				c13.1-19.3,28.4-37.7,46.7-52.4c6.2-5,12.9-9.6,20.2-12.9c8.4-3.8,17.8-4.9,26.9-4.4c9,0.5,17.2,3.3,24.9,8.2
				c1,0.6,2.5,0,2.8-1.1c3.8-16.4,3.1-33.3-3-49.1c-4.8-12.2-11.6-24.3-21.8-32.9c-3-2.5-6.2-4.4-9.4-6.5
				C238.3,460.6,234.7,457.2,231.8,453c-1.4-2-4.6-0.1-3.2,1.9c4.3,6.2,9.8,10.2,16,14.2c6.6,4.3,12,10.3,16.3,16.8
				c7.2,10.9,12.6,23.8,14,36.8c1,9.4,0.3,18.9-1.8,28.2c0.9-0.4,1.8-0.7,2.8-1.1c-6.9-4.4-14.5-7.4-22.6-8.3
				c-9.6-1.1-20.1-0.5-29.2,3c-17.2,6.6-31.8,20.1-44.2,33.2c-10.2,10.8-19.4,22.6-27.7,34.9c1.1,0,2.2,0,3.2,0
				c-9.6-16.9-17.7-34.4-24.5-52.6c-6.9-18.6-13-37.7-14.7-57.6c-1.5-18,0.8-36.7,5.6-54.1c5-18.1,9.3-36.2,11.2-54.9
				c0.8-8.3,1.2-16.5,0.7-24.8c-1.2-18.5-2.7-36.9-3.7-55.4c-1.8-31.4-2.4-63.6,7.1-94c5.6-17.9,14.5-34.2,25-49.6
				c9.5-14,19.6-27.4,33-37.9c3.6-2.8,7.3-5.4,11.2-7.8c-0.9-0.9-1.7-1.7-2.6-2.6c-11.8,19.7-21.7,40.9-28.3,63
				c-4.2,14.1-6.4,28.5-6.7,43.2c-0.2,9.8,0,19.7,0.5,29.5c0.6,11.9,1,24.1,4.9,35.4c4.1,12.2,10.5,23.7,16.2,35.2
				c3.8,7.7,8.1,15.1,11.7,22.9c4.2,9.4,7.4,19.4,9.7,29.4c2.2,9.5,2.9,19.1,4.1,28.7c1.9,14.3,4.2,29.1,10.6,42.2
				c0.7,1.4,1.4,2.7,2.3,4C229.9,456.9,233.1,455,231.8,453z"/>
		</g>
	</g>
	<g>
		<path class="st2" d="M127.1,268.3c6.6-0.6,17.3-2.4,28.6-8.6c6.5-3.6,11.4-7.6,15-11.1c-1.5-19.5-0.4-42.4,7.3-66.5
			c1-3.1,2-6.1,3.1-9c-1.1-1.9-2.5-4-4.3-6.1c-3.3-3.9-6.8-6.5-9.6-8.3c-1.5,1.9-3.4,4.3-5.5,7.3c0,0-0.3,0.4-0.5,0.7
			c-22.9,32.6-30.5,69.9-30.5,69.9C129.1,244.4,127.4,255.2,127.1,268.3z"/>
		<g>
			<path class="st1" d="M127.1,269.6c8.6-0.7,17.1-2.9,24.9-6.6c4.7-2.2,9.2-4.9,13.3-8.1c1.7-1.3,3.4-2.7,5-4.2
				c0.6-0.6,1.5-1.1,1.6-2c0.1-1.1-0.2-2.5-0.2-3.7c-1.2-20.5,1-41.2,7-60.9c0.9-3,1.9-5.9,3-8.9c0.2-0.6,0.7-1.4,0.7-2.1
				c0-0.6-0.5-1.1-0.7-1.6c-0.7-1.1-1.4-2.2-2.2-3.2c-3.2-4.2-7.1-7.8-11.6-10.7c-0.4-0.3-1.2-0.2-1.5,0.2
				c-12.2,15.6-21.6,33-28.6,51.5c-3.3,8.8-6.3,17.8-8.2,27c-2.2,10.5-3.3,21.3-3.6,32c0,1.6,2.5,1.6,2.5,0
				c0.3-12.5,1.7-25.1,4.9-37.3c3.9-14.7,9.4-29.1,16.3-42.6c5.2-10.2,11.4-19.8,18.5-28.8c-0.5,0.1-1,0.1-1.5,0.2
				c5.5,3.5,10.1,8.3,13.4,13.9c0-0.3-0.1-0.6-0.1-1c-7.3,19.3-10.9,39.9-11,60.5c0,5.1,0.2,10.2,0.6,15.3c0.1-0.3,0.2-0.6,0.4-0.9
				c-11.6,11.1-26.7,18-42.7,19.3C125.5,267.2,125.5,269.7,127.1,269.6z"/>
		</g>
	</g>
	<g>
		<path class="st3" d="M129.7,404.8c13.4-4.5,22.4-11.1,27.6-15.6c15.9-13.6,22.3-30.1,26.3-40.4c3.9-9.9,5.8-18.6,6.9-24.7
			c-5-8.6-8.4-16.3-10.8-22.4c-2.8-7.3-6.1-15.8-7.5-27.6c-0.4-3.4-0.6-6.2-0.6-8.2c-2.8-3.6-7.5-8.5-14.5-12.6
			c-11.5-6.7-22.7-7.2-27.9-7.1c-2.7,47.1-1.4,74.5,0.4,91c0.6,5.7,2.9,24.3,1.7,49.2C130.8,394.2,130.1,400.6,129.7,404.8z"/>
		<g>
			<path class="st1" d="M130,406c13.6-4.6,25.9-12.4,35.5-23c8.8-9.8,14.5-21.4,19.2-33.5c2.9-7.4,5.1-15,6.6-22.8
				c0.1-0.7,0.3-1.4,0.4-2.1c0.1-1.1-0.6-1.9-1.1-2.8c-1.1-1.9-2.1-3.8-3.1-5.8c-1.8-3.5-3.5-7.1-5-10.8c-2.6-6.2-5-12.6-6.7-19.2
				c-1.1-4.2-1.9-8.4-2.4-12.7c-0.2-2-0.4-3.9-0.5-5.9c0-0.7,0.1-1.6-0.2-2.2c-0.3-0.6-0.9-1.1-1.3-1.6
				c-9.7-11.4-23.9-18.1-38.8-18.7c-1.1,0-2.2-0.1-3.3,0c-0.7,0-1.2,0.6-1.3,1.2c-1.4,23.4-2.2,47-1.1,70.5
				c0.6,14.8,2.8,29.4,3.4,44.2c0.5,14.7,0,29.4-1.7,44c-0.2,1.6,2.3,1.6,2.5,0c2.5-22,2.5-44.3,0-66.4c-1.8-15.7-2.2-31.5-2.1-47.3
				c0.1-15,0.7-30,1.6-45c-0.4,0.4-0.8,0.8-1.2,1.2c12.7-0.2,25.4,4.1,35,12.5c2.4,2.1,4.6,4.4,6.5,6.9c-0.1-0.3-0.2-0.6-0.4-0.9
				c0.3,8.4,1.7,16.7,4.2,24.8c2.1,6.8,4.8,13.6,7.7,20.1c2.2,4.8,4.6,9.4,7.2,14c0-0.3-0.1-0.6-0.1-1c-2.2,13-6.5,25.7-12.3,37.5
				c-6,12.2-14.5,23.1-25.7,31.1c-6.7,4.8-14.1,8.5-22,11.2C127.8,404.1,128.5,406.5,130,406z"/>
		</g>
	</g>
	<g>
		<path class="st2" d="M288.4,558.1c0-16.6,0.6-30.7,1.2-41.3c0.9-14.7,1.3-22.1,2.4-29.8c4.9-33.4,5.5-36.4,5.5-36.4
			c1.4-6.4,3.7-15.7-0.6-19.5c-0.8-0.7-1.3-0.8-4.4-2c0,0-1.5-0.6-12.3-5.4c-8.3-3.7-14.9-16.9-17.6-25.9
			c-4.4-14.8-1.2-27.5,0.5-32.7c0.5,2.8,1.5,6.9,3.9,11.5c1.9,3.7,5.5,10.8,13.2,14.6c2.8,1.4,9.8,4.9,15.7,1.7
			c5.1-2.8,6.2-9.1,7.2-14.9c0.8-4.3,1.8-10.3-1.4-14.4c-2.1-2.6-4.7-3.1-8.7-4.4c0,0-10.2-3.4-18.1-9.5
			c-12.7-9.9-11.2-32.3-10.8-36.9c0.7-9.9,3.8-17.7,6.5-23c-0.5,3.1-1,7.8-0.2,13.4c0.8,6,1.3,10.4,4.8,14.4
			c5.7,6.6,14.3,6.4,14.7,6.3c2.1-0.1,3.9-0.6,5.1-1c-1.5-2.6-3.4-6.7-4.1-12c-1.4-10.1,2.3-18.2,4.1-22.5c4.1-9.6,9-23.4,14.2-44.4
			c1.5,6.3,3.3,12.8,5.3,19.5c3.3,10.8,6.1,15.3,9.6,27.6c3.1,10.7,3.5,15.4,2.6,20.5c-0.9,5.2-3,9.2-4.6,11.7
			c1.5,0.6,3.8,1.3,6.7,1.2c6.3-0.1,10.6-3.8,11.8-4.9c5.7-5.2,6.4-12.6,7-19c0.5-4.8,0.1-8.7-0.2-11.2c1.6,3.3,3.7,8.1,5.1,14.2
			c1.3,5.9,3.9,17.3-1,30c-2,5.2-6.3,16.5-15.9,20.3c-1.8,0.7-6.1,2-13,4.9c-3.3,1.3-6,2.6-7.4,5.4c-0.8,1.5-0.8,3-1,5.9
			c-0.1,1.4-0.1,5.4,1.2,11.2c1,4.3,1.5,6.5,3.1,8.3c2.3,2.6,5.3,3.3,6.8,3.7c5.1,1.2,9.4-0.6,11.8-1.6c8.9-3.7,13-11.4,14.2-13.7
			c2.5-4.8,3.3-9.3,3.6-12.3c0.6,2.5,1.3,5.8,1.7,9.9c0.4,3.8,1,11.4-1.2,20.2c-1.1,4.2-4.6,18.4-15.8,25.8
			c-8.6,5.7-14.7,7.5-14.7,7.5c-0.9,0.3-2.3,0.6-3.6,1.8c-3.3,3-3,8.3-2.8,11.1c1,13.2,4,25.9,5.5,34.6c0,0,0.5,2.6,2,14.7
			c1.3,9.9,3.1,30.5,1.4,67.9c-2.2,1.2-5.6,2.8-10,4c-5.1,1.4-12.2,3.3-19.9,0.6C295.5,563.2,292,561.6,288.4,558.1z"/>
		<g>
			<path class="st1" d="M290.2,558.1c0-19.3,0.8-38.7,2.2-58c1.1-14.3,3.6-28.5,5.8-42.7c0.3-2,0.6-3.9,1-5.9
				c0.8-4.4,2.1-8.8,2-13.3c-0.1-3.3-0.9-7.2-4-9.1c-1.5-0.9-3.2-1.4-4.8-2c0.6,0.2-0.1,0-0.3-0.1c-0.4-0.2-0.8-0.4-1.3-0.5
				c-1.4-0.6-2.7-1.2-4.1-1.8c-3.9-1.7-7.7-3.1-10.8-6.1c-5.8-5.8-9.6-14-11.9-21.8c-2.5-8.9-2.6-18.4-0.4-27.3
				c0.3-1.3,0.7-2.5,1.1-3.8c-1.2,0-2.4,0-3.6,0c1.1,5.9,3.4,11.6,6.7,16.6c3.3,5.2,7.9,9.2,13.6,11.7c6,2.6,13.6,3.6,18.4-1.9
				c2.2-2.5,3.3-5.7,4.1-8.9c0.7-3.1,1.3-6.3,1.6-9.5c0.3-3.4,0.1-7.2-1.8-10.1c-1.7-2.7-4.2-4-7.1-5c-4.3-1.5-8.5-3-12.6-5.1
				c-5.7-3-10.9-6.5-14-12.4c-2.5-4.7-3.7-10.2-4.1-15.4c-1.1-11.9,0.7-24,6.2-34.7c-1.1-0.5-2.3-1-3.4-1.4
				c-0.6,4.1-0.9,8.2-0.5,12.4c0.4,4,0.8,8.3,2.3,12c2.8,6.9,9.3,11,16.5,11.9c2.8,0.4,5.6,0,8.3-0.9c1.2-0.4,1.7-1.6,1.1-2.8
				c-2.8-5-4.3-10.7-4.2-16.4c0.1-5.1,1.6-10,3.6-14.7c3.5-8.2,6.6-16.6,9.2-25.1c2.1-7,4-14,5.8-21.1c-1.2,0-2.4,0-3.6,0
				c2.8,11.5,6.1,22.7,10.4,33.7c2.1,5.4,3.9,10.9,5.4,16.5c1.1,4.3,2.2,8.7,2.1,13.1c-0.2,5.2-2,10.2-4.7,14.5
				c-0.7,1.1,0,2.3,1.1,2.8c8.4,3.2,18-0.1,23.1-7.3c2.8-4,3.8-9,4.4-13.8c0.6-5.1,0.7-10,0-15.1c-1.1,0.5-2.3,1-3.4,1.4
				c2.8,5.5,4.5,11.4,5.7,17.5c1.2,6.4,1.4,13.1,0,19.5c-1.2,5.3-3.4,10.7-6.2,15.3c-2.7,4.5-6.4,8.1-11.4,9.9
				c-2.5,0.9-5,1.8-7.5,2.7c-3.2,1.2-6.7,2.3-9.4,4.3c-2.3,1.6-3.9,3.9-4.3,6.7c-0.3,2.3-0.4,4.8-0.2,7.2c0.2,3.5,0.9,6.9,1.7,10.2
				c0.6,2.6,1.4,5.2,3.2,7.2c4.4,4.9,12.2,5.5,18,3.5c12.4-4.3,20.3-15.9,21.6-28.8c-1.2,0.2-2.5,0.3-3.7,0.5
				c3.3,13.5,2.6,28.3-3.7,40.8c-1.6,3.3-3.7,6.4-6.2,9.1c-3.1,3.2-6.9,5.5-10.8,7.6c-2.4,1.3-4.9,2.5-7.4,3.3
				c-2.7,0.9-5.1,2-6.7,4.6c-1.8,3-1.9,6.7-1.7,10.1c0.3,5.1,1,10.2,1.8,15.2c1.1,6.9,2.7,13.7,3.9,20.5c1.5,9.1,2.6,18.3,3.2,27.6
				c1,15.3,0.9,30.7,0.4,46.1c-0.1,2.7-0.2,5.3-0.3,8c0.3-0.5,0.6-1.1,0.9-1.6c-5.5,2.9-12,5.1-18.3,5.6c-7,0.6-13.5-1.7-18.6-6.5
				c-1.8-1.6-4.4,1-2.7,2.7c3.7,3.4,8.1,6,13,7.1c5.3,1.1,10.6,0.5,15.7-0.8c2.6-0.7,5.2-1.4,7.6-2.4c1-0.4,2-0.8,3-1.3
				c0.9-0.4,2.2-0.8,2.7-1.7c0.7-1.1,0.4-3.1,0.4-4.4c0.1-1.6,0.1-3.2,0.2-4.8c0.1-2.9,0.2-5.9,0.2-8.8c0.3-15.3,0.2-30.7-1.4-46
				c-0.6-6.2-1.5-12.3-2.4-18.5c-1.1-7.1-2.8-14.2-4-21.3c-0.9-5.4-1.8-11-1.9-16.6c0-2,0.1-4.2,1.2-6c0.9-1.6,2.3-2.3,4.1-2.9
				c2.7-0.8,5.3-2.1,7.8-3.3c4.5-2.3,9-5,12.6-8.7c5.4-5.6,8.7-12.9,10.8-20.3c2.4-8.6,2.7-17.4,1.4-26.3c-0.3-2.4-0.8-4.7-1.4-7
				c-0.5-2.2-3.5-1.5-3.7,0.5c-1,10.5-7.4,20.6-17.4,24.6c-5,2-12.5,2.6-16.1-2.4c-1.6-2.2-2-5.4-2.5-8c-0.6-2.8-1-5.6-1-8.4
				c0-2-0.2-4.5,0.7-6.4c1.4-2.8,4.8-3.9,7.5-5c2.8-1.1,5.7-2.2,8.5-3.2c1.8-0.6,3.7-1.2,5.4-2.1c5-2.5,8.7-7.1,11.3-11.9
				c2.5-4.5,4.5-9.5,5.6-14.5c3-13.2-0.1-27.9-6-39.9c-1-2.1-3.7-0.5-3.4,1.4c0.6,4.3,0.4,8.6,0,13c-0.5,4.2-1.2,8.6-3.5,12.2
				c-4.1,6.5-12.3,9.2-19.4,6.4c0.4,0.9,0.7,1.8,1.1,2.8c2.7-4.4,4.5-9.3,5.1-14.4c0.5-4.1-0.2-8.2-1.1-12.2
				c-1.4-6-3.2-11.9-5.3-17.6c-1.8-4.8-3.8-9.6-5.4-14.5c-2.4-7.3-4.3-14.7-6.1-22.1c-0.4-1.8-3.2-1.8-3.6,0
				c-2.9,11.7-6.2,23.3-10.3,34.6c-3.2,8.6-7.8,16.9-8.3,26.2c-0.4,6.8,1.3,13.5,4.6,19.4c0.4-0.9,0.7-1.8,1.1-2.8
				c-6.1,2.1-13.2,0.2-17.6-4.5c-3-3.3-3.8-7.6-4.4-11.9c-0.6-4.8-0.8-9.7,0-14.5c0.3-1.9-2.4-3.5-3.4-1.4c-4.9,9.6-7.1,20-7,30.7
				c0.1,10,1.9,21,8.7,28.7c4.2,4.7,10.4,7.9,16.1,10.4c1.7,0.8,3.5,1.5,5.3,2.1c2.2,0.8,4.5,1.2,6.5,2.4c5.5,3.5,3.1,12.2,2.1,17.4
				c-0.6,2.9-1.3,6.1-3.3,8.5c-2.1,2.6-5.4,3.4-8.6,3c-6.4-0.8-12.5-5-16.2-10c-3.8-5.2-6.4-11.3-7.6-17.6c-0.4-1.9-3.1-1.6-3.6,0
				c-5.2,16.4-2.7,34.2,6.3,48.9c2.2,3.5,4.8,7,8,9.5c3.3,2.6,7.3,3.9,11.1,5.6c1.7,0.7,3.3,1.5,5,2.2c1.6,0.6,3.4,1,4.4,2.1
				c2.4,2.8,1.5,7.7,0.9,11c-0.4,2.1-0.9,4.2-1.3,6.3c-0.3,1.3-0.5,2.7-0.7,4c-0.8,5.1-1.6,10.1-2.3,15.2
				c-1.3,8.4-2.7,16.7-3.5,25.2c-1.7,18.2-2.4,36.6-2.7,54.9c0,2.9-0.1,5.7-0.1,8.6C286.5,560.6,290.2,560.6,290.2,558.1z"/>
		</g>
	</g>
	<g>
		<path class="st4" d="M308.3,324.4c-3.3-0.1-5.6-5.5-6.2-7c-2.1-5.2-1.8-10.2-0.8-15.6c1-5.9,3.1-14.4,7.8-24.2
			c2.7,4.6,4.4,8.9,5.5,12.5c1.7,5.5,5.3,16.9,0.5,27.3C314.3,318.9,311.7,324.4,308.3,324.4z"/>
		<g>
			<path class="st1" d="M308.3,323.1c-2.2-0.1-3.6-3.1-4.4-4.8c-1.4-2.9-2.1-5.9-2.1-9.1c0-6.3,1.7-12.8,3.5-18.8
				c1.3-4.2,3-8.3,4.8-12.3c-0.7,0-1.4,0-2.2,0c3.3,5.7,5.6,11.9,7.1,18.3c1.6,6.9,1.7,14.2-1.4,20.7
				C312.7,319.2,311,323.1,308.3,323.1c-1.6,0-1.6,2.5,0,2.5c3-0.1,5.1-2.8,6.5-5.1c1.8-3,3-6.4,3.5-9.9c1.1-7.1-0.4-14.2-2.5-21
				c-1.4-4.4-3.3-8.7-5.6-12.8c-0.4-0.8-1.7-0.9-2.2,0c-3.3,7-5.9,14.4-7.4,22c-0.8,3.7-1.4,7.5-1.3,11.3c0.1,3.4,1,6.6,2.5,9.7
				c1.3,2.6,3.3,5.7,6.5,5.9C309.9,325.7,309.9,323.2,308.3,323.1z"/>
		</g>
	</g>
	<g>
		<path class="st5" d="M313.1,556.3c0.2-2.5,1-10.3,5.1-21.5c4.2-11.4,9.4-19.6,13.9-26.7c4.4-6.8,4.8-6.4,8.5-12.5
			c3.5-5.6,7.9-12.8,11-21.8c4.8-13.8,4.4-25.8,3.9-37.3c-0.3-7.8-1.1-14.2-1.8-18.5c8,6.4,13.1,13,16.1,17.6
			c9.8,14.9,11.4,29.5,12.1,36.1c0.2,2.2,0.9,9.3,0,18.5c-2.3,24.3-13.4,42-18.2,49.5c-1,1.6-1.9,2.8-2.4,3.6c-2,0.8-4.9,2-8.5,3.6
			c-10.3,4.6-14.6,7.4-21.5,10.6c-4.3,2-10.5,4.6-18.4,6.9C312.9,562.5,312.9,559.7,313.1,556.3z"/>
		<g>
			<path class="st1" d="M315,556.3c1.5-18,10.5-35.2,20.6-50.1c2-2.9,4.2-5.7,6-8.7c2.6-4.1,5.1-8.3,7.3-12.7
				c5.2-10.3,8.1-21.4,8.6-32.9c0.5-11.5-0.2-23.2-2-34.5c-1,0.6-2.1,1.2-3.1,1.8c8,6.4,14.7,14.3,19.4,23.4c4.2,8.1,6.8,17,7.9,26
				c2.3,18.2-0.8,36.6-8.4,53.3c-3.2,7.1-7.2,13.9-11.7,20.4c0.4-0.3,0.7-0.6,1.1-0.9c-6.8,2.8-13.4,5.8-19.9,9.1
				c-5.2,2.7-10.4,5.4-15.8,7.6c-4.2,1.7-8.4,3.2-12.7,4.4c0.8,0.6,1.6,1.2,2.4,1.8C314.7,561.8,314.8,559.1,315,556.3
				c0.2-2.4-3.6-2.4-3.8,0c-0.2,2.7-0.3,5.4-0.2,8.1c0,1.2,1.2,2.2,2.4,1.8c6.7-2,13.2-4.4,19.5-7.4c5.3-2.5,10.5-5.4,15.8-8
				c3.5-1.7,7.1-3.3,10.7-4.8c1.5-0.6,3-1,3.9-2.3c0.8-1.2,1.6-2.5,2.4-3.7c2.3-3.6,4.5-7.3,6.5-11.1c6.4-12.3,10.5-25.7,11.8-39.5
				c1-10.8,0.2-22-2.6-32.5c-3.6-13.8-11.1-26.4-21.5-36.2c-1.5-1.4-3.1-2.8-4.8-4.1c-1.5-1.2-3.4-0.1-3.1,1.8
				c1.6,10,2.2,20.3,2,30.4c-0.2,11.3-2.5,22.3-7.5,32.6c-2.1,4.3-4.6,8.5-7.1,12.6c-1.9,3.1-4.1,6.1-6.2,9.1
				c-5.6,8-10.7,16.5-14.6,25.5c-3.7,8.8-6.6,18.1-7.4,27.7C311,558.8,314.8,558.7,315,556.3z"/>
		</g>
	</g>
	<g>
		<path class="st5" d="M347.2,549.6c1.5-14.1,5.7-23.9,9-30c5.6-10.4,9.6-11.8,32.3-38.9c7.7-9.2,11.5-14.2,14.9-21.8
			c4-9.2,5.3-17.6,5.8-23.4c1.8,3.7,4.2,9.1,6.3,16c3.2,10.2,6.8,21.9,4.7,36.1c-1.8,11.8-6.8,20.6-9.1,24.5
			c-3.4,5.9-5.8,8.1-11.3,16.8c-4.3,6.8-7.4,12.7-9.4,16.5c-3-1.2-6.6-2.2-10.8-2.8C364.7,540.8,352.6,546.5,347.2,549.6z"/>
		<g>
			<path class="st1" d="M349,549.6c1.1-10,3.8-19.8,8.5-28.7c1-1.9,2.1-3.8,3.4-5.6c0.3-0.4,0.5-0.8,0.8-1.2
				c0.2-0.2,0.3-0.4,0.5-0.6c0.1-0.1,0.3-0.3,0,0c0.1-0.1,0.2-0.2,0.3-0.3c0.7-0.9,1.4-1.7,2.1-2.5c4.3-5,8.9-9.9,13.3-14.8
				c3.9-4.4,7.7-8.8,11.4-13.3c3.7-4.4,7.4-8.8,10.6-13.5c6.7-9.9,10.2-21.7,11.1-33.6c-1.2,0.3-2.3,0.6-3.5,0.9
				c3.5,7.2,6,14.7,8.2,22.3c2.4,8.3,3.8,16.9,3,25.6c-0.7,8-3.3,15.7-7,22.8c-2.6,4.9-5.7,9.4-8.9,14c-5.3,7.5-9.9,15.4-14.1,23.6
				c0.7-0.3,1.4-0.6,2.1-0.9c-14.8-5.6-31-3.4-44.6,4.3c-2.1,1.2-0.2,4.4,1.9,3.2c5.2-2.9,10.8-5.1,16.7-6.2c8.4-1.6,17-0.7,25,2.3
				c0.7,0.3,1.8-0.2,2.1-0.9c3.8-7.5,8-14.8,12.8-21.7c3.3-4.9,6.8-9.5,9.6-14.7c3.8-7,6.5-14.5,7.6-22.4c1.3-9.1,0.4-18.2-2-27.1
				c-2.3-8.9-5.3-17.7-9.3-26c-0.9-1.8-3.4-0.7-3.5,0.9c-0.8,10.5-3.9,21.1-9.5,30c-2.8,4.5-6.3,8.6-9.7,12.7
				c-3.9,4.6-7.8,9.3-11.8,13.8c-4.6,5.2-9.3,10.2-13.8,15.4c-2.9,3.3-5.5,6.8-7.6,10.6c-5.4,9.7-8.4,20.5-9.6,31.5
				c-0.1,1,0.9,1.9,1.9,1.9C348.3,551.5,348.9,550.6,349,549.6z"/>
		</g>
	</g>
	<g>
		<path class="st5" d="M304.4,565.3c0.7-12.1-1.4-21.1-3.3-27c-3.4-10.4-7.7-15-19.8-35.1c-3.5-5.9-9.5-16.1-12-20.9
			c-6.5-12.6-11.8-32.8-5.3-65.4c-4,3.3-9.6,8.5-14.6,15.9c-12.6,18.7-12.8,38.1-13,50c-0.3,19.3,4.4,34.1,7,41.8
			c2.4,7.4,5.1,13.5,7.2,17.8c8.3,1.1,14.4,3.6,18.4,5.6c10.8,5.4,15.7,12.4,28.4,15.9C300.4,564.7,302.9,565.1,304.4,565.3z"/>
		<g>
			<path class="st1" d="M306.3,565.3c0.6-10.7-0.8-21.7-4.9-31.6c-3.1-7.6-8-14.4-12.3-21.4c-6.1-9.8-12.3-19.8-17.7-30
				c-3.8-7.2-6.2-15-7.4-23.1c-2.1-13.8-0.8-28.1,1.9-41.8c0.4-1.9-1.7-3-3.1-1.8c-11.2,9.1-19.5,21.3-23.9,35.1
				c-3.7,11.7-4.5,24.3-4.2,36.5c0.3,12.4,2.7,24.5,6.4,36.3c2,6.2,4.4,12.4,7.2,18.3c0.3,0.6,0.5,1.2,0.8,1.7c0.7,1,1.9,1,3,1.1
				c1.9,0.3,3.7,0.7,5.6,1.2c2.9,0.7,5.7,1.7,8.4,2.9c5.6,2.5,10.5,6.1,15.5,9.6c5.6,3.8,11.6,6.7,18.3,8.2c1.5,0.3,3.1,0.6,4.7,0.8
				C305.4,567.3,306.3,566.2,306.3,565.3c0-1.1-0.9-1.7-1.9-1.9c-7.8-1-14.7-4.1-21.2-8.5c-5.9-4.1-11.5-8.1-18.2-10.7
				c-4.4-1.7-9.1-2.9-13.8-3.5c0.4,0.3,0.7,0.6,1.1,0.9c-7.1-14.5-12-30.6-13.5-46.7c-0.7-8.3-0.6-16.8,0.1-25
				c0.8-9,2.9-18,6.7-26.3c4.6-9.8,11.4-18.4,19.8-25.3c-1-0.6-2.1-1.2-3.1-1.8c-4.2,21.2-5.1,44.3,4.2,64.3c2,4.3,4.4,8.3,6.8,12.4
				c3,5.2,6.1,10.3,9.2,15.4c2.9,4.8,5.9,9.5,8.9,14.2c1.9,3.1,3.8,6.2,5.4,9.4c4.8,10,6.4,21.8,5.8,33
				C302.4,567.7,306.2,567.7,306.3,565.3z"/>
		</g>
	</g>
	<g>
		<path class="st5" d="M208.7,435.2c-6.5,12-9,22.8-10.1,29.8c-1.4,9.3-3.7,24.1,3.1,38.9c2.6,5.7,4,5.8,12.7,19.2
			c5.8,9,10.2,16.6,13,21.6c3.8-1,8.4-1.9,13.7-2.2c11.7-0.5,21.2,2.4,26.9,4.8c0.2-2.2,0.2-5.5-0.3-9.4c-1-7.7-3.8-14.3-8.7-22.1
			c-3.7-6-5.8-8.1-18-22.6c0,0-4.4-5.2-18.7-23.1c-6.5-8.1-9.2-11.6-11.3-17.3C208.5,446,208.4,439.5,208.7,435.2z"/>
		<g>
			<path class="st1" d="M207.1,434.3c-4.4,8.1-7.6,16.8-9.5,25.8c-1.5,7.5-2.6,15.3-2.4,22.9c0.2,8.4,2,17.2,6.3,24.6
				c0.9,1.6,2,3.1,3.1,4.5c1.9,2.6,3.8,5.2,5.6,7.9c5.6,8.3,10.8,16.9,15.7,25.7c0.4,0.7,1.3,1.1,2.1,0.9c13.2-3.6,27-2.5,39.6,2.7
				c1.2,0.5,2.3-0.7,2.4-1.8c0.4-5.7-0.2-11.5-1.8-17c-1.7-5.7-4.5-11-7.7-16c-3.3-5.2-7.3-9.8-11.2-14.4
				c-9.5-11.2-18.9-22.6-28-34.2c-3-3.8-6.1-7.7-7.9-12.2c-2.3-5.8-3.1-12.1-2.7-18.4c0.2-2.4-3.6-2.4-3.8,0
				c-0.6,10.1,1.9,20,7.8,28.2c3.6,4.9,7.5,9.6,11.3,14.3c2.9,3.6,5.8,7.1,8.7,10.7c2.5,3.1,5.1,6.2,7.6,9.2c3,3.5,6,7,9,10.6
				c1.8,2.1,3,3.7,4.6,6c3,4.4,5.8,9.2,7.7,14.2c2.3,6.1,3.2,12.6,2.8,19.1c0.8-0.6,1.6-1.2,2.4-1.8c-13.2-5.4-27.9-6.4-41.6-2.7
				c0.7,0.3,1.4,0.6,2.1,0.9c-4.1-7.5-8.6-14.9-13.2-22c-3.2-5-6.9-9.7-10.2-14.6c-3.9-6-5.9-13.4-6.5-20.4
				c-0.7-7.8,0.2-15.6,1.6-23.3c1.7-9.6,5-18.8,9.6-27.4C211.4,434.1,208.2,432.2,207.1,434.3z"/>
		</g>
	</g>
	<g>
		<path class="st4" d="M121.8,539.5c9-2.2,29.4-8.6,47.2-27.2c22.9-23.8,26.2-51.5,27.1-60.2c1.5-14.2,4.1-39.6-13.2-61.7
			c-18.1-23-45.4-26.3-51.5-26.9c0.3,4,0.7,10.2,0.6,17.8c-0.4,20.1-4.2,33.1-9.8,58.8c-4.5,20.6-6.8,30.8-7.4,36.4
			C113.1,490.8,113.2,512.2,121.8,539.5z"/>
		<g>
			<path class="st1" d="M122.1,540.7c16.1-4.1,31.3-12.1,43.5-23.4c14.3-13.2,24.3-30.5,29-49.4c1.3-5.2,2.1-10.5,2.7-15.8
				c0.8-7.5,1.4-15,0.9-22.5c-0.6-9.6-2.7-19.1-6.8-27.8c-4.5-9.4-11.3-17.6-19.6-24c-11.1-8.5-24.6-13.6-38.4-15.4
				c-0.7-0.1-1.4-0.2-2.1-0.2c-0.6-0.1-1.3,0.6-1.2,1.2c1,12.1,0.8,24.3-0.9,36.3c-1.8,12.5-4.9,24.7-7.7,37
				c-2.5,11.2-5.1,22.4-7.2,33.7c-1.4,8-1.8,16.2-1.6,24.3c0.4,15.3,3.3,30.4,7.9,44.9c0.5,1.5,2.9,0.9,2.4-0.7
				c-4.2-13.3-7-27-7.7-40.9c-0.4-8.5-0.3-17.3,1.1-25.5c1.8-10.4,4.2-20.6,6.5-30.9c2.8-12.7,6.1-25.4,8.2-38.3
				c2.1-13.2,2.6-26.7,1.5-40c-0.4,0.4-0.8,0.8-1.2,1.2c11.7,1.2,23.6,5.1,33.7,11.4c8.3,5.2,15.4,12.2,20.6,20.5
				c5.3,8.4,8.4,17.9,9.6,27.7c0.9,7.8,0.7,15.7,0,23.5c-0.5,4.9-1,9.9-2,14.7c-3.5,17.5-11.5,33.9-23.6,47.1
				c-12.1,13.1-27.7,22.7-44.8,27.6c-1.1,0.3-2.3,0.6-3.4,0.9C119.9,538.7,120.6,541.1,122.1,540.7z"/>
		</g>
	</g>
	<g>
		<path class="st6" d="M489.4,257.8c-5.8,2.2-14.3,6.2-22.5,13.7c-5.1,4.6-28.8,27.5-23.5,60.1c3.6,22.7,19.9,41.8,42.2,50
			c-0.2-3.7-0.3-9.4-0.2-16.2c0.2-13.6,1.5-23.7,1.8-26.2C488.4,328.3,489.6,306.1,489.4,257.8z"/>
		<g>
			<path d="M489.1,256.6c-17.2,6.6-31.4,19.5-40,35.8c-5.4,10.1-8.3,21.5-7.7,32.9c0.6,12.1,4.9,23.8,12,33.6
				c8,11,19.1,19.2,31.8,23.9c0.7,0.3,1.6-0.4,1.6-1.2c-0.5-10.9-0.3-21.8,0.6-32.7c0.4-4.9,1-9.7,1.5-14.5
				c1.1-12.8,1.4-25.6,1.6-38.5c0.2-12.7,0.2-25.5,0.2-38.2c0-1.6-2.5-1.6-2.5,0c0.1,19.7,0,39.4-0.7,59.1
				c-0.2,5.4-0.5,10.7-0.9,16.1c-0.3,4.3-0.9,8.6-1.3,12.9c-1.1,11.9-1.4,23.9-0.9,35.8c0.5-0.4,1.1-0.8,1.6-1.2
				c-21.8-8.1-38.8-27.8-41.6-51.2c-2.4-19.7,6.1-38.7,19.4-52.8c7.3-7.7,16.2-13.6,26-17.4C491.2,258.5,490.6,256.1,489.1,256.6z"
				/>
		</g>
	</g>
	<g>
		<path class="st5" d="M454.7,165.5c-2.4,2.8-5.2,6.4-7.8,10.8c-2.5,4.3-4.2,8.3-5.3,11.7c0.5,1.9,1.1,4.7,1.9,8.1
			c1,4.9,3,15,4.2,28.2c0.2,2.8,0.5,6.6,0.7,11.2c2.7,3.1,6.1,6.6,10.4,9.8c11.6,8.7,23.6,11.4,30.7,12.4c-2-17-6.8-39.6-18.3-63.9
			C465.9,183,460.2,173.5,454.7,165.5z"/>
		<g>
			<path class="st1" d="M453.8,164.6c-5.7,6.5-10.7,14.4-13.3,22.7c-0.3,0.8,0,1.5,0.2,2.3c0.2,1,0.5,2,0.7,3
				c0.4,1.7,0.8,3.4,1.1,5.2c0.6,3,1.2,6,1.7,9c1.4,8.6,2.3,17.3,2.8,26c0.1,1-0.2,2.4,0.2,3.3c0.4,0.9,1.4,1.7,2,2.4
				c1.5,1.6,3,3.1,4.6,4.5c3.6,3.2,7.6,6,11.8,8.3c7.3,4,15.3,6.6,23.5,7.8c0.7,0.1,1.7-0.3,1.6-1.2c-3.1-25.8-10.9-50.9-23.2-73.8
				c-3.6-6.6-7.5-13-11.7-19.2c-0.9-1.3-3.1-0.1-2.2,1.3c15.3,22.2,26,47.3,31.6,73.7c1.3,6,2.2,12,3,18c0.5-0.4,1.1-0.8,1.6-1.2
				c-15.7-2.2-30.2-9.8-40.5-21.9c0.1,0.3,0.2,0.6,0.4,0.9c-0.4-10.2-1.5-20.4-3.2-30.5c-0.6-3.4-1.2-6.8-1.9-10.2
				c-0.3-1.2-0.5-2.5-0.8-3.7c-0.2-0.9-0.7-2.1-0.7-3.1c0-0.6,0.7-2,1-2.7c0.5-1.3,1.1-2.5,1.7-3.8c2.6-5.5,6-10.6,10-15.2
				C456.6,165.2,454.9,163.4,453.8,164.6z"/>
		</g>
	</g>
	<g>
		<path class="st2" d="M485.1,375.9c-5.4,1.8-13.3,5.1-21.2,11.4c-19.3,15.5-28.9,41.3-26.5,65.7c0.3,3.4,4.9,43.3,37.1,57.9
			c10.8,4.9,21.1,5.3,27.7,4.9c0.8-9.5,1.3-21.9,0-36.3c-2.1-24.5-7.6-36.3-12.6-66.5C488,403.3,486.2,390.7,485.1,375.9z"/>
		<g>
			<path class="st1" d="M484.7,374.7c-15.6,5.2-28.9,15.7-37.5,29.8c-8.3,13.6-12.3,29.8-11.3,45.7c0.4,6.7,1.8,13.2,3.8,19.6
				c3.4,10.9,8.8,21.3,16.6,29.6c10.7,11.4,25.6,17.6,41.2,17.8c1.6,0,3.2,0,4.7-0.1c0.7,0,1.2-0.5,1.2-1.2
				c1.6-18.5,0.8-37.2-2.6-55.4c-1.4-7.6-3.3-15.1-5-22.7c-2.2-9.4-4.1-18.9-5.6-28.5c-1.8-11.1-3.1-22.2-3.9-33.4
				c-0.1-1.6-2.6-1.6-2.5,0c1.5,19.7,4.4,39.3,8.7,58.6c1.7,7.7,3.6,15.3,5.2,23.1c1.8,8.5,2.9,17.2,3.5,25.9
				c0.7,10.8,0.6,21.6-0.3,32.4c0.4-0.4,0.8-0.8,1.2-1.2c-15,0.8-30-3.7-41.1-14c-8.4-7.7-14.2-17.8-18-28.4c-1.4-4-2.5-8-3.4-12.2
				c-0.3-1.4-0.6-2.9-0.8-4.3c-0.2-1.1-0.2-1.3-0.3-2.4c-1.6-14.4,1.2-29.3,7.7-42.2c7.3-14.6,19.5-26.3,34.6-32.5
				c1.4-0.6,2.9-1.1,4.4-1.6C486.9,376.6,486.3,374.2,484.7,374.7z"/>
		</g>
	</g>
	<g>
		<path class="st6" d="M133.2,380.3c5.2-1.2,18-5,28.1-16.7c10.8-12.5,12-26.6,12.7-35c0.6-6.6,1.7-22.9-7.7-40
			c-11.9-21.5-32.4-29.1-37.8-30.9c-0.5,9.9-0.9,20.2-0.9,30.7C127.3,321.5,129.6,352.3,133.2,380.3z"/>
		<g>
			<path d="M133.5,381.5c10.3-2.4,19.9-7.7,27.2-15.4c4.8-5.1,8.5-11.1,10.8-17.7c1.9-5.2,2.8-10.7,3.4-16.2
				c1.1-10.2,0.9-20.5-1.9-30.4c-3.7-12.9-11.3-24.4-21.7-32.8c-6.3-5.1-13.5-9.2-21.1-11.9c-0.4-0.2-0.9-0.3-1.3-0.5
				c-0.8-0.3-1.5,0.4-1.6,1.2c-0.9,16.6-1.1,33.3-0.8,49.9c0.3,15.9,1.2,31.7,2.7,47.5c0.8,8.4,1.7,16.8,2.8,25.1
				c0.2,1.6,2.7,1.6,2.5,0c-2-15.1-3.4-30.2-4.3-45.4c-1-16.4-1.4-32.8-1.2-49.2c0.1-9.3,0.4-18.6,0.9-28c-0.5,0.4-1.1,0.8-1.6,1.2
				c18.3,6.1,33.8,20.1,40.7,38.2c3.8,10.1,4.8,20.8,3.9,31.4c-0.4,4.9-1,9.7-2.2,14.4c-1.6,6.2-4.3,12-8.1,17.1
				c-7.2,9.7-18,16.2-29.6,19C131.3,379.4,132,381.8,133.5,381.5z"/>
		</g>
	</g>
	<g>
		<path class="st5" d="M161.7,166c2.8,2.2,6.7,5.6,10.1,10.6c2.3,3.4,3.8,6.7,4.8,9.4c-1.5,5.6-2.9,11.7-4,18.2
			c-2,11.7-2.7,22.5-2.8,31.9c-4.6,4.8-12.1,11.4-22.7,16.6c-7.4,3.6-14.2,5.6-19.6,6.6c1.2-12.8,4-29.8,11-48.8
			C145.5,191.5,154.4,176.6,161.7,166z"/>
		<g>
			<path class="st1" d="M161.1,167.1c3.5,2.7,6.5,5.8,9.1,9.4c1.5,2.1,2.7,4.2,3.8,6.5c0.4,0.9,1.2,2.1,1.3,3c0,0.3-0.2,1-0.3,1.3
				c-0.2,0.6-0.3,1.3-0.5,1.9c-2.5,10.2-4.2,20.5-5.1,31c-0.5,5.3-0.7,10.6-0.7,16c0.1-0.3,0.2-0.6,0.4-0.9
				c-11.3,11.7-25.8,19.7-41.7,22.9c0.5,0.4,1.1,0.8,1.6,1.2c2.5-27,10.8-53.4,24.1-77c3.1-5.4,6.4-10.7,9.9-15.8
				c0.9-1.3-1.2-2.6-2.2-1.3c-15.5,22.3-26.3,47.8-31.5,74.4c-1.3,6.5-2.2,13-2.8,19.6c-0.1,0.9,0.9,1.4,1.6,1.2
				c15.7-3.2,30.3-11,41.7-22.4c0.4-0.4,1.1-0.9,1.4-1.4c0.4-0.8,0.2-2.1,0.2-3c0-2.1,0.1-4.1,0.2-6.2c0.2-4.5,0.6-9.1,1.1-13.6
				c0.6-4.8,1.3-9.6,2.3-14.4c0.5-2.3,1-4.6,1.5-6.9c0.5-2.1,1.3-4.2,1.6-6.3c0.1-0.9-0.4-1.8-0.8-2.6c-0.5-1.1-1-2.2-1.5-3.3
				c-1.2-2.3-2.6-4.4-4.1-6.5c-2.6-3.4-5.6-6.4-9-9C161.1,164,159.8,166.2,161.1,167.1z"/>
		</g>
	</g>
	<g>
		<path class="st2" d="M118.1,526c11.5-5,25.7-13.3,38.3-27.1c9.9-10.8,23.9-26.1,24.4-48.4c0.4-18.2-8.4-32.2-11.6-36.8
			c-5.4-7.8-12.3-13.7-22.8-22.8c-5.8-5-10.9-8.9-14.5-11.6c-1.2,16.1-3.5,29-5.4,37.7c-4,18.6-9.1,32.3-12.8,57.5
			c-1.1,7.4-1.3,10.9-1.4,13.6C111.7,504.2,115.1,517.3,118.1,526z"/>
		<g>
			<path class="st1" d="M118.7,527.1c12.4-5.4,23.9-12.9,33.7-22.3c4.4-4.2,8.4-8.7,12.3-13.4c3.8-4.6,7.3-9.4,10.1-14.6
				c6.6-12.3,8.8-26.3,5.8-39.9c-2.2-10-6.8-19.6-13.2-27.5c-4.1-5-8.9-9.4-13.7-13.7c-5.8-5.1-11.6-10.1-17.8-14.8
				c-1.1-0.9-2.3-1.7-3.4-2.6c-0.8-0.6-1.8,0.2-1.9,1.1c-0.8,10.7-2.2,21.3-4.2,31.8c-1.7,8.6-3.9,17.1-6.1,25.5
				c-2.5,9.6-4.8,19.3-6.6,29.2c-1.6,9.3-3.1,18.7-2.9,28.2c0.2,11,2.3,21.9,5.9,32.3c0.5,1.5,2.9,0.9,2.4-0.7
				c-3.1-9.1-5.1-18.6-5.6-28.2c-0.5-9.6,0.6-18.9,2.2-28.3c1.7-10,3.9-19.9,6.5-29.7c2.2-8.5,4.5-17,6.2-25.6
				c2.3-11.4,3.9-23,4.7-34.6c-0.6,0.4-1.3,0.7-1.9,1.1c5.7,4.2,11.1,8.7,16.4,13.3c5.1,4.4,10.3,8.8,14.8,13.8
				c6.6,7.1,11.5,15.7,14.4,25c4,13.1,3.3,27.2-2.6,39.6c-4.8,10.3-12.3,18.9-20,27.1c-9.5,10-20.8,18.1-33.2,24
				c-1.2,0.6-2.5,1.1-3.7,1.7C116,525.6,117.3,527.7,118.7,527.1z"/>
		</g>
	</g>
</g>
<g id="Capa_3">
	<g>
		<path class="st6" d="M139.7,626.2c-9.4,14.4-15.9,24.3-22,38.4c-7.6,17.5-19.4,52.4-13.9,102.1c1.5-4.7,3.8-11.3,7.3-18.8
			c4.5-9.4,7-14.7,11.8-19.6c8.3-8.4,14.5-6.7,23.7-13.1c6-4.1,13.2-11.7,18-26.5c1,10.5,4.1,18.2,6.5,22.9
			c8.6,16.8,23.7,26.5,31.8,31.8c7.7,5,9.6,4.9,15.5,9.8c9.3,7.7,8.9,11.4,17.6,18.4c3.6,2.9,10.7,8.4,21.2,10.6
			c9.2,1.9,17.1,0.5,20,0c6.3-1.2,7.5-2.5,15.1-4.1c1.8-0.4,8.3-1.6,15.9-1.6c11.1,0,13.1,2.6,29.8,4.9c8.1,1.1,12.2,1.7,17.6,1.2
			c5-0.4,14.9-1.3,23.7-7.8c6-4.4,5.1-6.8,11.8-13.9c7.4-7.8,11.9-8.5,22.9-15.9c6.4-4.4,16.9-11.4,24.5-21.2
			c4.5-5.8,11.5-17,13.5-35.5c0.9,9.4,4.2,14.8,6.9,18c6.3,7.1,13,6.5,26.1,15.5c2.5,1.7,7.5,5.2,11.8,9.8
			c4.2,4.5,12.1,14.8,14.3,33.9c2-4.9,4.5-12,5.7-20.8c2.3-16-0.6-28.2-4.5-43.7c-5.6-22.3-13.6-38.6-17.6-46.1
			c-2.3-4.3-4.8-8.8-22-33.5c-30.3-43.5-37-50.6-45.3-57.6c-16.1-13.4-28-17.5-34.7-19.2c-12.4-3.2-22.4-2.3-25.3-2
			c-3.5,0.4-15,1.8-27.8,8.6c-11.1,5.9-11.8,9.9-20.8,12.2c-9,2.4-16.9,0.7-20,0c-10.2-2.3-13.2-6.7-23.7-11.8
			c0,0-12.6-6.2-26.9-7.8c-18.7-2.1-34,7.1-47,15.1C172.6,576.7,156.6,600.5,139.7,626.2z"/>
		<g>
			<path d="M138.1,625.3c-6.3,9.6-12.7,19.2-17.9,29.5c-3.4,6.7-6.3,13.6-8.8,20.7c-5.8,16.4-9.2,33.7-10.4,51.1
				c-0.9,13.4-0.5,26.8,0.9,40.1c0.2,2,3,2.6,3.7,0.5c2.3-7.4,5.3-14.5,8.6-21.4c2.9-6,5.8-12,10.6-16.7c2.5-2.4,5.4-4.3,8.7-5.7
				c2.9-1.2,5.9-2.1,8.7-3.5c5-2.3,9.5-5.9,13.1-10.1c5.2-6,8.6-13.2,11.1-20.7c-1.2-0.2-2.5-0.3-3.7-0.5c1.5,14.1,6.9,27,16.4,37.7
				c7.9,8.9,17.9,16.1,28.2,21.9c5.5,3.1,10.5,6.3,14.9,11c4.3,4.6,7.6,9.7,12.5,13.7c10.5,8.5,23,13.1,36.6,12
				c5.3-0.4,10.2-1.8,15.2-3.4c6-1.9,12.3-2.8,18.6-3.1c5.3-0.2,10.3,0.2,15.5,1.4c6.4,1.5,12.8,2.7,19.3,3.6
				c12.5,1.7,25.6,1.7,37-4.8c2.8-1.6,5.5-3.6,7.6-6c1.5-1.8,2.7-3.9,4.1-5.8c3.8-5.2,8.7-9.5,14.2-12.8c11.7-7,23.5-14.2,32.9-24.2
				c7.9-8.4,13.3-18.7,16.1-29.8c1-3.9,1.6-7.8,2.1-11.8c-1.2,0-2.5,0-3.8,0c0.7,6.9,2.7,13.5,7.2,18.9c3.8,4.5,8.9,6.7,14.1,9
				c11.9,5.4,23.6,13.4,30.3,24.9c4.3,7.4,6.7,15.8,7.7,24.3c0.3,2.1,2.9,2.5,3.7,0.5c4.4-10.8,6.8-22.5,6.6-34.2
				c-0.3-12.8-3.6-25.6-7.1-37.8c-4.2-15-10-30-17.9-43.4c-2.6-4.5-5.5-8.8-8.4-13.1c-6.7-9.9-13.6-19.7-20.5-29.5
				c-8.7-12.3-17.3-24.9-27.3-36.2c-8-9-17.8-16.6-28.3-22.3c-14-7.6-30.3-10.7-46.1-8.4c-10.7,1.6-21.4,5.5-30.4,11.5
				c-3.4,2.3-6.5,5.1-10.1,7.1c-5,2.7-11.2,3.3-16.8,3c-4.6-0.3-9.3-1.2-13.5-3.1c-4.6-2-8.7-5.1-13-7.6c-7-4-14.8-6.7-22.7-8.5
				c-12-2.8-23.8-2.2-35.4,2.3c-10.4,4.1-20.3,10.1-29.4,16.6c-18.5,13.2-32.8,30.6-45.5,49.2C144.1,616.1,141.1,620.7,138.1,625.3
				c-1.3,2,1.9,3.9,3.2,1.9c12-18.3,24.3-36.6,40.6-51.4c8.5-7.7,17.9-14.1,27.8-19.8c9.8-5.7,20.6-10.4,32.1-10.7
				c10.5-0.2,21.3,2.8,30.8,7c7.7,3.4,14.2,9.2,22.3,11.8c9.3,3.1,20.3,3.4,29.3-0.7c3.6-1.6,6.5-4.3,9.6-6.5
				c5.1-3.6,10.7-6.4,16.5-8.5c15.4-5.6,32.2-5.8,47.8-0.3c12.7,4.5,24.6,12.8,34.1,22.4c8.1,8.2,14.8,17.7,21.6,27
				c11.8,16.4,23.7,32.9,34.6,49.8c6,9.4,10.8,19.6,14.8,30c4.5,11.6,7.8,23.7,10.4,35.9c2.7,12.5,3.3,25,0.5,37.5
				c-1.1,4.8-2.6,9.6-4.5,14.2c1.2,0.2,2.5,0.3,3.7,0.5c-1.5-12.7-5.7-25.2-14.4-34.7c-5.3-5.8-12.1-10.6-18.9-14.5
				c-5.4-3-11.7-4.8-16.6-8.5c-6-4.6-8.6-12.2-9.3-19.4c-0.2-2.4-3.5-2.4-3.8,0c-1.3,12-5.2,23.7-12.3,33.4
				c-7.9,10.7-19.4,18.7-30.7,25.5c-4.7,2.9-9.6,5.4-13.8,9.1c-2.6,2.3-5,4.8-7.1,7.6c-1.5,1.9-2.7,4.1-4.2,6
				c-7.6,9.3-22.2,11.7-33.6,10.9c-7.1-0.5-14.3-1.6-21.3-3.2c-4.4-1-8.6-2.2-13.1-2.7c-6.4-0.7-12.9-0.2-19.1,0.9
				c-5.3,0.8-10.2,2.7-15.3,4c-12.8,3.2-26.3,1.3-37.3-5.9c-4.6-3-8.7-6.6-12.2-10.8c-4-5-7.9-9.5-13.1-13.3
				c-4.5-3.3-9.7-5.7-14.4-8.7c-4.4-2.8-8.7-5.8-12.6-9.2c-9.9-8.4-17.8-19.1-21.4-31.7c-1.1-3.7-1.8-7.5-2.2-11.4
				c-0.2-2.1-3-2.6-3.7-0.5c-4,12.2-11.1,23.5-23.3,28.9c-2.8,1.2-5.7,2.1-8.4,3.3c-3.2,1.4-6.1,3.4-8.7,5.8
				c-4.8,4.5-7.9,10.2-10.7,16.1c-3.8,7.8-7.2,15.7-9.8,23.9c1.2,0.2,2.5,0.3,3.7,0.5c-4-36.3,0.4-73.8,16.3-106.9
				c5.5-11.4,12.5-22,19.4-32.6C142.7,625.2,139.4,623.3,138.1,625.3z"/>
		</g>
	</g>
	<g>
		<path class="st6" d="M417.1,592.3c-5.3-24.2,3.3-44,6-49.7c6.7-14,15.9-22.4,20.7-26.7c9.4-8.5,18.4-12.9,31.6-19.6
			c18-9,19.5-7.2,29.7-13.9c7.3-4.8,18-12.1,25.2-25.6c4.9-9.2,6-17.3,7.1-25.6c1.9-13.7,0.8-25.2-0.4-32.7
			c4.9,5.5,10.8,13.3,16.2,23.3c2.3,4.4,7.7,15.2,11.3,30.5c3,12.8,7.1,30.7,0.8,50.4c-4.6,14.2-11.7,20.3-13.5,21.8
			c-4.2,3.4-8.4,5.3-11.3,6.4c0.3,3.3,0.5,8,0,13.5c-0.7,7.9-1.8,21.3-11.3,33.9c-8.8,11.8-20.2,16.7-24.5,18.4
			c-6.1,2.5-11.5,3.6-15.4,4.1c0.6,3.1,1,8.3-1.5,13.5c-5.4,11.2-20,13.1-26,13.9c-4.7,0.6-17.2,2.2-28.2-5.3
			C422.1,615.3,419.3,602.5,417.1,592.3z"/>
		<g>
			<path d="M418.9,591.8c-2-9.6-2.1-19.5-0.3-29.1c1.1-6,3.1-12.4,5.5-17.7c6.3-14,17.2-26,29.9-34.7c7.9-5.3,16.6-9.6,25.1-13.7
				c5.9-2.9,12-5.1,18-7.7c5.3-2.3,10.2-5.6,14.9-9c7.1-5.2,13.3-11.3,17.9-18.8c2.8-4.5,4.9-9.3,6.4-14.3c1.3-4.5,2.1-9.2,2.7-13.9
				c1.4-9.8,1.7-19.6,0.5-29.4c-0.2-1.8-0.5-3.6-0.8-5.5c-1,0.6-2.1,1.2-3.1,1.8c12.8,14.5,21.7,31.9,26.4,50.7
				c2.5,10,4.6,20.2,4.6,30.5c0,11.5-2.7,23.4-8.7,33.3c-4.3,6.9-10.3,12-18.1,14.9c-0.7,0.3-1.4,1-1.4,1.8
				c0.5,6.2,0.2,12.3-0.5,18.4c-0.7,6.1-2.1,12.2-4.6,17.8c-5.2,11.9-14.8,21.1-26.5,26.6c-2.5,1.2-4.6,2-7.5,3
				c-3.5,1.1-7.1,1.9-10.8,2.4c-1.1,0.1-1.5,1.4-1.3,2.3c0.7,4,0.5,8.4-1.3,12.1c-1.4,2.9-3.6,5.4-6.2,7.2
				c-4.8,3.3-10.5,4.7-16.2,5.5c-1.1,0.2-1.4,0.2-2.5,0.3c-1.2,0.2-2.4,0.3-3.6,0.4c-3.3,0.2-6.7,0.2-10.1-0.4
				c-8.3-1.4-15.8-5.7-20.6-12.7C422.4,607.3,420.6,599.5,418.9,591.8c-0.5-2.4-4.1-1.4-3.6,1c1.6,7.4,3.4,14.9,7.4,21.4
				c4.8,7.8,12.4,13.3,21.3,15.5c6.5,1.6,13.1,1.3,19.6,0.4c6-0.8,12.2-2.3,17.4-5.5c3.5-2.2,6.6-5.2,8.4-9c2.3-4.7,2.7-10,1.8-15.1
				c-0.4,0.8-0.9,1.5-1.3,2.3c11.3-1.5,22.3-6.2,31.2-13.3c11.5-9.2,18.3-22.6,20.4-37.1c1-7.1,1.5-14.2,0.9-21.4
				c-0.5,0.6-0.9,1.2-1.4,1.8c7.3-2.7,13.5-7.2,18.1-13.4c6.8-9.2,10.2-20.9,11.2-32.2c0.9-11.1-0.9-22-3.3-32.8
				c-2.3-10.1-5.5-20-10-29.3c-4.8-10.1-11.2-19.4-18.6-27.8c-1.4-1.6-3.4,0.2-3.1,1.8c1.4,8.8,1.7,17.8,0.9,26.7
				c-0.9,10-2.5,20.3-7.1,29.3c-4.1,8-10.1,14.8-17.2,20.3c-4.8,3.7-10,7.3-15.5,9.8c-5.1,2.3-11.2,4.4-16.6,6.9
				c-8.7,4.1-17.5,8.4-25.6,13.6c-13.7,8.8-25.7,21.2-32.8,36c-6.3,13.3-9.1,28.4-7.5,43c0.3,2.7,0.7,5.4,1.3,8.1
				C415.8,595.2,419.4,594.2,418.9,591.8z"/>
		</g>
	</g>
	<g>
		<path class="st5" d="M545.8,441.7c1.7,5.8,3.8,14.6,4.2,25.5c1.7,38.9-18.8,67.7-28,80.7c-10.3,14.5-21,22.8-42.5,39.5
			c-3.7,2.9-9.6,7.3-17.8,7.6c-12.2,0.5-20.7-8.3-21.2-8.9c-11.1-11.8-8.5-31.2-2.1-42.9c4-7.2,9.3-11.3,16.1-16.6
			c7.1-5.5,10.7-6.5,27.2-14.9c15.4-7.8,23.1-11.7,29.7-16.6c6.3-4.6,14.2-10.5,21.2-20.4C540.9,463.2,544.3,451.1,545.8,441.7z"/>
		<g>
			<path class="st1" d="M544.6,442.1c4.4,15.2,5.5,31.4,2.9,47c-2.3,13.7-7.3,26.9-14.1,39c-5,8.9-10.7,17.6-17.2,25.5
				c-8.6,10.4-19.4,18.8-30,27.1c-5.6,4.4-11.3,9.8-18.3,12c-6.9,2.2-14.2,1-20.4-2.7c-3.7-2.2-6.9-5-9.2-8.7
				c-3.6-5.8-4.6-12.9-4.1-19.6c0.5-6.4,2.3-12.8,5.5-18.4c3.8-6.7,9.8-11.4,15.9-16c3.3-2.5,6.9-4.6,10.7-6.5
				c6.5-3.3,13-6.4,19.5-9.7c6.2-3.2,12.5-6.3,18.5-9.8c4.7-2.7,9.2-5.9,13.5-9.3c6.4-5,12.1-10.8,16.7-17.6
				c4.7-6.9,8.2-14.5,10.5-22.5c0.9-3.3,1.6-6.6,2.1-9.9c0.2-1.6-2.2-2.3-2.4-0.7c-2.6,16.6-10.2,32-22.4,43.6
				c-4.6,4.3-9.8,8.3-15.1,11.7c-5.2,3.4-10.7,6.2-16.2,9c-7.3,3.8-14.7,7.5-22.1,11.1c-4.1,2-8.2,4-12,6.6
				c-2.5,1.7-4.9,3.6-7.2,5.5c-3,2.4-5.9,4.9-8.4,7.9c-4.4,5.3-7.2,11.7-8.6,18.4c-2.5,11.6-0.9,25.4,8.7,33.6
				c4.5,3.8,10,6.6,15.8,7.4c7.5,1,14.6-1.4,20.7-5.8c6.6-4.7,12.9-9.9,19.1-15c5.2-4.2,10.3-8.6,15-13.4
				c7.5-7.6,13.8-16.5,19.4-25.6c7-11.2,12.7-23.3,16.2-36.1c4.4-16.2,5.1-33.2,1.8-49.7c-0.6-3.1-1.4-6.2-2.3-9.3
				C546.5,439.9,544.1,440.5,544.6,442.1z"/>
		</g>
	</g>
	<g>
		<path class="st6" d="M197.4,580c0.9-7.5,2.2-19.4-2.6-33.7c-1.2-3.5-5.9-16.5-18.2-28.3c-6-5.8-8.7-6.2-40-22.5
			c-19-9.9-24.2-12.9-30.7-18.2c-7.2-5.9-13.9-11.5-18.6-21.2c-4-8.1-4.7-15.5-5.9-30c-1-11.2-0.9-20.8-0.7-28
			c-3.6,3.9-8.3,9.5-12.9,16.8c-10.2,16.2-14.3,31.7-16.2,42.2c-2.6,14.9-5.1,29.1,1.3,45.2c6.4,16.2,18.4,25.6,24.5,29.7
			c-0.4,2.3-0.8,5.7-0.8,9.8c0.2,19.5,10.9,33.6,15.2,38.6c2.8,3.3,8.9,10.3,19.4,15.2c6.5,3,12.4,4.1,16.5,4.6
			c-0.4,2.4-0.7,6.4,0.7,10.9c2.9,9.6,11.3,14.2,12.9,15.1c12.7,6.9,30.6,1.6,41.2-7.8C194.1,608,195.7,593.9,197.4,580z"/>
		<g>
			<path d="M199.3,580c1.1-8.9,1.2-17.8-0.6-26.7c-1.5-7.1-4.2-13.9-7.8-20.2c-5.6-9.6-13-18.1-22.7-23.5c-5.4-3-10.9-5.7-16.3-8.4
				c-9.2-4.7-18.5-9.4-27.6-14.4c-5.1-2.8-10.3-5.7-14.9-9.3c0,0-0.2-0.2-0.4-0.3c-0.2-0.2-0.4-0.4-0.7-0.5c-0.6-0.5-1.2-1-1.9-1.5
				c-1.8-1.5-3.7-3.1-5.4-4.7c-3.6-3.3-6.9-6.8-9.5-11c-4.4-6.9-6.2-14.5-7.2-22.6c-1.2-10.8-1.9-21.6-1.8-32.5
				c0-2.1,0.1-4.3,0.2-6.4c0.1-1.6-2.1-2.5-3.2-1.3C65,412.4,55,431.9,50.6,452.8c-1,4.9-1.8,9.9-2.5,14.8
				c-0.8,5.5-1.2,11.1-0.9,16.7c0.7,11.3,4.5,22.2,11,31.4c5,7,11.2,13,18.3,17.8c-0.3-0.7-0.6-1.4-0.9-2.1
				c-2.4,14.1,0.7,28.3,7.9,40.5c5.1,8.5,12,16.3,20.4,21.6c7.2,4.6,15.4,7.4,23.8,8.4c-0.6-0.8-1.2-1.6-1.8-2.4
				c-1.3,8.5,1.3,16.9,7.4,22.9c4.2,4.2,9.7,7.1,15.6,8.1c16.8,2.8,35.5-7,43.3-22C196.9,599.8,198.1,589.8,199.3,580
				c0.1-1-0.9-1.9-1.9-1.9c-1.1,0-1.8,0.9-1.9,1.9c-1,7.9-1.9,15.9-4.9,23.4c-3,7.5-8.3,13.7-15.2,17.8c-11.1,6.8-26.3,9.2-37.1,0.6
				c-6.4-5.1-9.9-13-8.6-21.2c0.2-1.3-0.5-2.2-1.8-2.4c-12.9-1.5-24.6-7.9-33.2-17.6c-6.2-7-11.2-15.4-13.9-24.5
				c-2.2-7.7-2.8-15.8-1.4-23.7c0.1-0.9-0.1-1.6-0.9-2.1c-14.5-9.8-25.3-25.3-27.3-42.9c-1.1-10.5,0.6-21,2.5-31.2
				c1.7-9,4.4-17.9,8.2-26.3c5-11.2,11.8-21.5,20.1-30.5c-1.1-0.4-2.1-0.9-3.2-1.3c-0.4,10.5,0,21,1,31.5c0.7,8.3,1.4,16.9,4.6,24.7
				c3.8,9,10.2,16,17.6,22.2c4.4,3.7,8.9,7.1,13.9,10c8.1,4.8,16.5,9,24.9,13.3c7.1,3.7,14.2,7.2,21.2,10.9c3.3,1.7,6.6,3.4,9.6,5.6
				c0.3,0.2,0.5,0.4,0.8,0.6c-0.1-0.1-0.2-0.2,0.1,0.1c0.1,0.1,0.3,0.2,0.4,0.3c0.5,0.4,1,0.9,1.5,1.3c3.2,2.9,6.2,6.2,8.8,9.7
				c4.1,5.6,7.5,11.7,9.8,18.2c3.2,9.2,4.1,18.9,3.2,28.5c-0.1,1.7-0.3,3.4-0.5,5.1c-0.1,1,0.9,1.9,1.9,1.9
				C198.5,581.9,199.2,581,199.3,580z"/>
		</g>
	</g>
	<g>
		<path class="st5" d="M68.9,445.3c-1.1,4.3-2.6,11.7-2.9,20.9c-1,31.1,12.8,55.2,21.9,71.2c3.7,6.4,9.3,15.4,17.4,25.1
			c6.3,7.6,13.7,16.3,25.8,24.1c8.7,5.6,14.9,9.6,23.8,9.3c2.4-0.1,12.9-0.6,20.3-8.4c11.2-11.7,7.3-31.5,1.3-42.5
			c-4.6-8.5-11.2-13.3-18-18.4c-6.9-5.1-11.1-6.5-23.5-12.6c-18.3-8.9-27.5-13.3-33.2-17.7c-3.7-2.9-15.5-12.5-24.5-29.3
			C72.7,458.7,70.2,450.9,68.9,445.3z"/>
		<g>
			<path class="st1" d="M67.7,445c-3.7,14.9-3.9,30.5-0.8,45.5c2.8,13.6,8.3,26.5,15,38.7c6.7,12.3,14,24,23,34.7
				c4.5,5.4,9.1,10.6,14.4,15.3c6.2,5.5,13.3,10.5,20.8,14.3c5.5,2.8,11.3,4.2,17.5,3.6c6-0.6,11.8-2.7,16.4-6.5
				c10.7-8.7,11.2-24,7.6-36.3c-1.9-6.4-4.9-12.4-9.3-17.4c-4.5-5.1-10.3-9.4-15.9-13.1c-4.8-3.2-10.1-5.6-15.4-8
				c-7.3-3.4-14.5-6.9-21.7-10.5c-4.6-2.3-9.1-4.6-13.4-7.4c-3-1.9-5.7-4.2-8.3-6.6c-11-10.1-19.5-22.9-24.5-36.9
				c-1.1-3-2-6.1-2.8-9.3c-0.4-1.6-2.8-0.9-2.4,0.7c3.6,14.6,10.7,28.3,20.5,39.7c5.7,6.6,12.1,12.4,19.6,16.7
				c5,2.9,10.2,5.4,15.4,8c7.1,3.5,14.2,6.8,21.3,10.2c4.8,2.3,9.3,4.8,13.6,8c5.9,4.3,11.7,8.9,15.7,15.2
				c3.3,5.2,5.4,11.2,6.4,17.2c1.1,6.2,0.9,12.8-1.4,18.7c-4.3,11-16.8,16.8-28.1,15.3c-7.7-1-14.5-5.8-20.8-10
				c-6.4-4.3-12.2-9.6-17.4-15.3c-9.5-10.4-17.7-21.9-24.7-34.1c-6.3-11-12.1-22.3-15.9-34.4c-4.7-15.1-6.2-31.1-3.7-46.8
				c0.4-2.8,1-5.5,1.7-8.3C70.4,444.1,68,443.5,67.7,445z"/>
		</g>
	</g>
	<g>
		<path class="st4" d="M179.1,653.3c-4.2,3.5-5.8,8-6.8,10.7c-1.3,3.7-3.9,13.2,1.9,29.1c9.2,25.1,29.4,39.7,40.1,47.2
			c13.1,9.2,25.2,14.2,32.3,16.8c17,6.1,30.9,7.2,47.2,8.4c10.9,0.8,22.9,1.7,38.8,0c10.7-1.1,26.2-2.9,44.6-10.7
			c16.9-7.1,28.4-16,36.5-22.3c6.6-5.1,10.2-7.9,14.5-12.9c2.4-2.8,12.3-14.6,16.5-33c1.4-6.2,2.9-12.8,1-21
			c-1-4.1-2.3-9.9-7.1-13.9c-1.3-1.1-7-5.4-23.3-2.9c-11.5,1.8-18.8,5.5-27.5,9.4c0,0-20.7,9.2-41,14.9c-12.9,3.6-25.3,7-41.7,6.5
			c-13.6-0.5-23.6-3.5-40.1-8.4c-18.7-5.6-33-11.6-33-11.6c-13.1-5.6-17.2-8.5-27.1-10C197.6,648.3,186.9,646.8,179.1,653.3z"/>
		<g>
			<path class="st1" d="M178.2,652.4c-6.4,5.5-9,14.7-8.9,23c0.3,12.5,5.5,24.9,12.4,35.1c5.9,8.9,13.5,16.6,21.8,23.3
				c8.5,6.8,17.5,12.9,27.2,17.8c10.8,5.5,22.4,9.5,34.3,11.8c12.6,2.4,25.7,3.3,38.5,4c12.4,0.7,24.7,0,37-1.6
				c13-1.7,25.6-5,37.7-10.1c11.5-4.9,22.1-11.5,32.1-19.1c7.7-5.8,15.4-11.6,21.3-19.3c6.4-8.4,11.1-18.2,13.8-28.4
				c1.6-6.2,2.9-12.7,2.2-19.2c-0.6-5.4-2.1-11.5-5.4-15.9c-4.4-5.8-11.6-7.1-18.6-6.9c-6.8,0.1-13.6,1.4-20,3.5
				c-5.6,1.8-11,4.4-16.4,6.8c-7.9,3.5-15.9,6.6-24,9.4c-6.7,2.4-13.6,4.5-20.5,6.3c-6.2,1.7-12.3,3.2-18.7,4.2
				c-12.9,2-25.9,1.4-38.6-1.6c-6.6-1.6-13.1-3.5-19.6-5.5c-6.8-2-13.5-4.2-20.1-6.6c-4-1.4-7.9-2.9-11.8-4.5
				c-0.4-0.2-0.7-0.3-1.1-0.5c-0.1,0-0.2-0.1-0.3-0.1c0,0-0.1,0-0.1,0c0.7,0.3-0.3-0.1-0.5-0.2c-3-1.3-6-2.6-9-4
				c-4.3-1.9-8.6-3.9-13.2-5c-5-1.2-10.4-2-15.6-1.9C188.3,647.2,182.7,648.7,178.2,652.4c-1.2,1,0.5,2.8,1.8,1.8
				c4.6-3.8,10.7-4.7,16.5-4.5c4.9,0.2,10,1,14.8,2.4c7.9,2.3,15.2,6.5,22.8,9.5c10.7,4.3,21.6,8,32.7,11.3
				c11.6,3.5,23.3,6.9,35.4,7.7c13.2,0.8,26-1.3,38.7-4.7c12.6-3.4,24.9-7.5,37-12.3c7.4-2.9,14.5-6.5,21.9-9.4
				c6.2-2.4,12.7-4.1,19.4-4.7c4.6-0.4,9.4-0.5,13.9,0.8c1.2,0.3,2.3,0.8,3.3,1.4c1.1,0.6,1.2,0.7,2.1,1.7c4.1,4,5.7,10.2,6.4,15.7
				c0.8,6.4-0.4,12.8-2,19c-1.5,5.9-3.7,11.5-6.5,16.9c-3.7,7.1-8.5,13.6-14.4,19c-4.2,3.8-8.8,7.2-13.3,10.6c-4.2,3.2-8.5,6.2-13,9
				c-11.8,7.4-24.7,12.9-38.3,16.4c-11,2.8-22.4,4.2-33.8,4.9c-12.4,0.7-24.8-0.2-37.2-1.3c-13.7-1.1-27.1-3.2-40-7.9
				c-11.1-4-21.6-9.5-31.2-16.2c-7.1-4.9-13.9-10.2-20-16.3c-8.2-8.2-15-17.9-19.3-28.7c-3.5-8.9-5.8-19.3-3-28.8
				c1.3-4.4,3.4-8.4,6.9-11.4C181.2,653.2,179.4,651.4,178.2,652.4z"/>
		</g>
	</g>
	<g>
		<path class="st7" d="M182.6,664.6c-4.3,4.7-2,13.3-1,16.6c3.7,13.4,17.8,37.6,49.8,53.1c19.7,9.6,36.6,11.3,56.2,13.2
			c16.5,1.7,36.1,3.6,60.4-1.3c12.1-2.5,65.1-13.2,83.7-53c1-2.2,10.3-22.1,3.2-29.1c-6-5.9-19.7,1.7-54.9,12.3
			c-16.3,4.9-29,8.7-42.3,11c-13.4,2.3-42.3,7.2-73-2.6c-21.1-6.7-52-23.1-71.5-23.7C190.2,661.2,185.5,661.5,182.6,664.6z"/>
		<g>
			<path class="st1" d="M181.7,663.7c-3.4,3.9-3.2,9.5-2.2,14.3c0.6,3.2,1.6,6.3,2.9,9.3c3.1,7.6,7.6,14.5,12.8,20.8
				c15.9,19.1,39,31.7,63.2,36.8c12.2,2.6,24.8,3.6,37.3,4.8c12.4,1.1,24.8,1.5,37.2,0.2c14.5-1.5,29.1-4.9,42.9-9.8
				c17-6.2,33.5-15.2,45.7-28.8c5.5-6.2,9.8-13.1,13-20.8c1.5-3.7,2.9-7.6,3.7-11.5c0.8-4,1.4-8.5-0.1-12.3c-2.1-5.2-7-6.1-12-5.4
				c-3.3,0.5-6.4,1.4-9.6,2.3c-4.5,1.4-8.9,2.9-13.4,4.4c-12.9,4.3-25.9,8.4-39.1,12.1c-10.7,3.1-21.5,5.6-32.5,7.3
				c-10.8,1.7-21.8,2.5-32.8,2.1c-13.5-0.5-26.7-3.1-39.3-7.7c-11-4-21.7-8.8-32.7-13c-10-3.9-20.6-7.8-31.4-8.7
				C190.5,659.8,185.2,660.1,181.7,663.7c-1.1,1.2,0.7,2.9,1.8,1.8c3.5-3.6,9.3-3.2,13.8-2.6c4.9,0.6,9.8,1.9,14.5,3.4
				c11.1,3.4,21.8,8,32.6,12.4c11.2,4.6,22.4,8.9,34.4,11.1c12.3,2.3,25,2.8,37.5,1.8c9.2-0.7,18.4-2.1,27.5-3.9
				c12.8-2.6,25.3-6.5,37.8-10.3c11-3.3,21.8-7.1,32.7-10.6c3.3-1.1,6.7-2.1,10.1-2.8c2.1-0.4,4.6-0.8,6.5-0.4
				c1,0.2,1.5,0.4,2.3,0.8c0.8,0.5,1.6,1.4,2.2,2.5c1.7,3.5,1,8,0.2,11.6c-1.5,6.9-4.3,13.7-7.9,19.7c-9.4,16-25,27.2-41.5,34.8
				c-11.8,5.4-24.3,9.1-36.9,11.7c-11.5,2.4-23.2,3.5-35,3.4c-11.5-0.1-22.9-1.4-34.3-2.6c-13-1.4-25.8-3.5-38.1-8
				c-11.9-4.4-23.2-10.9-32.9-19.1c-12.2-10.3-23.1-24-26.8-39.8c-1-4.2-1.8-9.7,1.3-13.2C184.6,664.3,182.8,662.5,181.7,663.7z"/>
		</g>
	</g>
	<g>
		<path class="st4" d="M275.3,666c-0.4-0.2-3.1-1.8-3.7-5.1c-0.5-2.5,0.3-5.5,2.2-6.8c3.6-2.6,9.9,1.3,12.1,2.6
			c6.7,4.1,6.1,7.6,12.3,11.2c1.8,1.1,6.5,3.8,12.1,3.1c5.1-0.6,8.8-3.8,13.9-8.2c4.5-3.9,5.6-6.1,10.1-8.2c2.5-1.2,5.8-2.6,8.4-1.1
			c2.2,1.3,2.9,4.1,2.9,6.2c-0.2,4.2-3.9,6.5-4.2,6.6c1.4,0,4.1-0.2,6.8-1.8c5.8-3.4,6.6-10,6.6-10.6c0.7-7.2-4.7-11.9-5.7-12.8
			c-4.8-4-10.6-3.8-12.6-3.7c-5.1,0.2-9,2.2-16.5,6c-5.3,2.7-6.2,3.7-9,4c-3.3,0.3-5.1-0.7-11.7-3.5c-13.7-5.8-17.4-6.1-19.4-6.2
			c-2.8-0.1-6.3-0.1-9.9,2c-3.8,2.2-7,6.5-7.5,11.7c-0.1,1.2-0.7,7.3,4,11.5C269.9,666,274.1,666,275.3,666z"/>
		<g>
			<path class="st1" d="M275.9,664.9c-2.5-1.4-3.8-4.4-3.1-7.2c0.4-1.6,1.4-2.9,3.1-3.2c1.6-0.3,3.2,0.3,4.7,0.9c3,1.2,6,3,8.3,5.3
				c2.4,2.3,4,5.1,6.7,7.1c5.8,4.3,13.5,6.2,20.2,2.9c3.8-1.9,7.1-4.9,10.2-7.7c2.7-2.4,5-5.2,8.3-6.8c1.9-1,4.4-2.3,6.7-1.9
				c2.1,0.4,3.1,2.4,3.4,4.3c0.3,2.7-1.2,5.4-3.5,6.7c-1.1,0.6-0.6,2.3,0.6,2.3c6.3,0,11.6-3.9,13.8-9.7c1.7-4.5,1-9.4-1.6-13.4
				c-2.8-4.4-7.3-7.3-12.5-8c-5.3-0.8-10.2,0.4-15,2.6c-3.4,1.5-6.8,3.2-10.1,5c-1.8,1-3.5,2-5.6,2.1c-2.2,0.1-4.2-0.7-6.2-1.5
				c-3.5-1.5-7-3-10.6-4.4c-8.2-3.2-18.1-6.6-26-0.6c-4.5,3.4-7,9-6.6,14.6c0.5,6.3,4.8,11.6,11.2,12.7c0.9,0.2,1.9,0.2,2.8,0.2
				c1.6,0,1.6-2.5,0-2.5c-5.5,0.1-10.2-3.4-11.4-8.8c-1-4.9,0.7-10,4.4-13.4c3.6-3.2,8.5-3.9,13.1-3.3c-0.3,0,0.4,0.1,0.5,0.1
				c0.3,0,0.5,0.1,0.8,0.2c0.7,0.1,1.3,0.3,2,0.5c2.1,0.6,4.2,1.3,6.2,2.1c3.3,1.2,6.6,2.6,9.9,4c2.2,1,4.5,2.1,6.9,2.6
				c1.8,0.4,3.7,0.3,5.5-0.2c2.2-0.7,4.2-2,6.2-3.1c5-2.6,10.5-5.9,16.3-6.4c4.7-0.4,9.6,0.6,13.1,3.8c1.7,1.5,3.1,3.4,3.9,5.5
				c0.6,1.5,0.9,3.1,0.9,4.7c0,0.5,0,0.9-0.1,1.4c0-0.3-0.1,0.5-0.1,0.7c-1.2,5.9-5.9,10.2-12.1,10.2c0.2,0.8,0.4,1.6,0.6,2.3
				c2.3-1.3,4.1-3.7,4.6-6.3c0.7-3.6-0.9-8.1-4.7-9.2c-2.2-0.6-4.6,0.1-6.7,1c-2,0.8-3.8,1.8-5.5,3.1c-1.5,1.2-2.8,2.6-4.2,3.9
				c-1.9,1.8-3.8,3.4-5.8,5.1c-3.7,3-7.6,5.3-12.5,4.9c-3.7-0.3-7.3-2-10.3-4.1c-3.2-2.3-5-5.9-8.1-8.4c-2.7-2.1-6.1-4.1-9.4-5
				c-1.9-0.5-4-0.7-5.8,0.2c-1.9,1-3.1,3-3.4,5.1c-0.6,3.7,1.1,7.5,4.4,9.3C276,667.9,277.3,665.7,275.9,664.9z"/>
		</g>
	</g>
	<g>
		<path class="st3" d="M217.7,642.9c3.7-0.6,10.8-2,18.3-6.7c12.3-7.8,17.2-19.3,18.6-22.8c7-17.1,2.2-32.3,1.1-35.5
			c-4.5-13.4-13.5-21.1-17.1-23.9c-3.9-3-19.5-14.1-40-10c-18.2,3.6-28.3,16.7-32,22.5c-2.1,3.3-13.2,21.5-6.1,43.2
			c5.9,18,21.1,29,35,32.6C205.7,645,214.9,643.4,217.7,642.9z"/>
		<g>
			<path class="st1" d="M218,644.2c5.8-1,11.4-2.7,16.5-5.6c5.6-3.2,10.5-7.5,14.4-12.7c6.3-8.3,10-18.5,10.5-28.9
				c0.9-18.3-8-36-23.3-46.1c-8.7-5.7-19.1-9.1-29.5-8.9c-12.1,0.2-23.7,5.3-32.5,13.6c-13.3,12.5-20.1,31.8-16.2,49.8
				c2.6,12.3,10.1,23,20.2,30.3c9.9,7.1,21.9,10.3,34.1,9.3C214.2,644.7,216.1,644.5,218,644.2c1.6-0.3,0.9-2.7-0.7-2.4
				c-10.7,1.9-21.8,0.6-31.5-4.4c-10-5.2-18.2-13.7-22.7-24.1c-7.4-17.2-3.2-37.6,8.7-51.7c6.7-7.9,15.7-13.8,25.9-16.1
				c11.2-2.5,22.9-0.5,32.9,4.9c14.3,7.7,24.4,22,26.1,38.2c2.4,22.5-10.7,45.3-33.1,51.7c-2.1,0.6-4.2,1-6.3,1.4
				C215.8,642,216.4,644.4,218,644.2z"/>
		</g>
	</g>
	<g>
		<path class="st0" d="M231.2,626.2c14.6-10.8,19.9-32,12.8-48.7c-6.4-15.1-20.5-20.7-22.2-21.3c-18.3-6.8-34.2,3.2-36.2,4.6
			c-3.7,2.4-11.4,8.4-15.5,19.2c-0.8,2.1-6.6,18.2,2.7,34.1c9.7,16.5,27.6,18.9,30.5,19.2C207.9,633.8,220.2,634.3,231.2,626.2z"/>
		<g>
			<path class="st1" d="M231.8,627.3c15.9-11.9,21.2-35.2,12.1-52.9c-3.8-7.4-10.1-13.5-17.5-17.4c-7.1-3.8-15.3-5.1-23.2-4
				c-15.3,2.1-29.1,12.1-34.5,26.8c-2.6,7.1-3.2,15.2-1.7,22.6c2,10.5,8.5,19.8,17.5,25.5c11.6,7.4,26.8,9.1,39.6,3.8
				C226.8,630.5,229.4,629.1,231.8,627.3c1.3-0.9,0-3.1-1.3-2.2c-7.5,5.5-16.7,7.7-25.9,7c-1.9-0.1-3-0.3-5-0.8
				c-2.8-0.6-5.6-1.5-8.3-2.7c-8.3-3.7-15.1-10-19.1-18.2c-4-8.4-4.5-18.2-2-27.1c3.5-12.8,13.9-22.5,26.3-26.4
				c8.3-2.6,17.9-2.6,25.7,0.7c5.9,2.5,11.2,6.5,15.3,11.5c12.1,14.6,10.8,37.5-1.9,51.4c-1.5,1.7-3.2,3.2-5.1,4.6
				C229.3,626.1,230.5,628.3,231.8,627.3z"/>
		</g>
	</g>
	<g>
		<path class="st3" d="M360.9,581.2c0.9-3.6,3.2-12.2,10.2-20.4c9.8-11.4,25.8-18.7,42.9-17c23.9,2.4,36.1,21.1,37.5,23.2
			c1.2,2,13,21.3,4.8,43.9c-6.4,17.5-20.6,25.4-24.2,27.3c-3.7,1.9-16.5,7.9-32.7,4.8c-1.7-0.3-25.9-5.5-36.1-28.3
			C356.6,599.5,359.9,585.5,360.9,581.2z"/>
		<g>
			<path class="st1" d="M362.2,581.5c3-11.8,9.8-22.1,20.1-28.8c11.3-7.3,25.4-9.9,38.4-6.6c9.7,2.4,18.4,8,25.1,15.3
				c3.2,3.5,5.6,7.2,7.6,11.5c4.9,11,6.1,23.5,2.6,35.1c-3.3,10.7-10.4,19.9-19.6,26.1c-6.3,4.2-13.6,7-21.2,8
				c-7.9,1-15.7,0.1-23-2.8c-8.7-3.4-16.7-8.9-22.4-16.4c-7.9-10.4-10.7-23.7-8.6-36.5C361.4,584.8,361.7,583.2,362.2,581.5
				c0.4-1.6-2-2.2-2.4-0.7c-3,11.9-2.3,24.4,3.1,35.5c4.8,10,13.1,17.8,22.9,22.8c6,3.1,12.4,5.1,19.2,5.7c10,0.8,20.3-1.5,29.1-6.4
				c8.4-4.7,15.6-11.8,20.3-20.2c6.7-12.2,7.8-26.6,3.7-39.8c-1.7-5.5-4.1-10.8-7.7-15.3c-5.6-7.2-12.9-13.1-21.3-16.7
				c-12.6-5.4-27.1-5.4-39.7-0.2c-12.8,5.3-22.9,15.5-27.8,28.6c-0.7,2-1.3,4-1.9,6.1C359.3,582.4,361.8,583.1,362.2,581.5z"/>
		</g>
	</g>
	<g>
		<path class="st0" d="M400.8,555.7c20.4-4.6,35.5,10,36.8,11.2c1.8,1.8,14.8,15.2,11.6,34.4c-2.9,17.5-17,26-19.1,27.3
			c-1.3,0.8-17.4,9.8-35.1,2.4c-15.4-6.4-26.6-22.9-24.5-41.3C372.4,573,384.8,559.3,400.8,555.7z"/>
		<g>
			<path class="st1" d="M401.1,556.9c9-2,18.2-0.3,26.2,4.1c3.6,2,7.1,4.4,9.9,7.3c4.2,4.4,7.4,9.8,9.3,15.6c3,9.2,2.3,19.4-2.3,28
				c-3,5.8-7.6,10.8-13,14.4c-3.7,2.5-8,4.1-12.3,5.1c-10,2.4-20.5,0.9-29.2-4.6c-7.9-5-13.9-12.8-16.7-21.8
				c-2.8-9.1-2-19.1,2.2-27.6c4.1-8.2,11-14.9,19.4-18.6C396.8,558,399,557.4,401.1,556.9c1.6-0.4,0.9-2.8-0.7-2.4
				c-19.5,4.5-33.4,23.7-31.3,43.7c2.2,20.9,20.9,37.9,42.1,36.9c6.7-0.3,13.6-2.1,19.4-5.4c4.7-2.7,8.9-6.6,12.2-10.9
				c6-7.9,9-18,7.8-27.9c-1-8-4.5-15.5-9.5-21.8c-7.7-9.6-20.5-15.6-32.7-15.5c-2.7,0-5.3,0.4-8,0.9
				C398.9,554.8,399.6,557.2,401.1,556.9z"/>
		</g>
	</g>
	<g>
		<path class="st4" d="M383.2,611c6.8,9.5,18.9,14.9,31,12.8c15.6-2.8,22.3-16.6,22.9-18c0.7-1.5,6.5-14.6-0.5-27.9
			c-4.8-9-12.7-12.8-15.1-13.8c-10.5-4.5-25.1-3.7-34.9,6C375.6,581,374.6,598.8,383.2,611z"/>
		<g>
			<path class="st1" d="M382.1,611.7c9.2,12.8,26.9,17.7,41,10.4c7.4-3.8,13.7-10.8,16.3-18.8c2.3-7,2.5-14.9,0-21.9
				c-2.5-6.9-7.5-12.7-13.8-16.5c-11.5-6.8-26.9-6-37.5,2.2c-11.9,9.3-15.1,26.4-8.8,39.8C380.2,608.6,381.1,610.2,382.1,611.7
				c0.9,1.3,3.1,0.1,2.2-1.3c-7.9-11.2-7.5-27.4,1.7-37.8c8.8-10,24-12.6,35.9-6.9c5.1,2.4,9.6,6.3,12.6,11.1
				c4.2,6.7,5.2,14.7,3.5,22.3c-0.7,3-1.5,5.5-3,8c-2.2,3.8-5.1,7.3-8.6,9.9c-11.6,8.9-28.2,7.4-38.6-2.7c-1.3-1.2-2.4-2.6-3.5-4
				C383.4,609.1,381.2,610.4,382.1,611.7z"/>
		</g>
	</g>
	<g>
		<path class="st4" d="M177.6,593.3c-0.1,2.1-0.5,9.2,3.7,16.4c6.4,10.8,20.5,17.2,33.7,14c16.6-4,26.4-21.8,23.6-36.5
			c-2-10.9-10.4-17.3-12.4-18.7c-2.2-1.6-11.3-7.7-22.9-5.6C188.5,565.5,178.4,579.9,177.6,593.3z"/>
		<g>
			<path class="st1" d="M176.3,593.3c-0.4,6.8,1.4,13.8,5.5,19.4c4.3,5.8,10.5,9.9,17.4,11.9c7,2,14.6,1.6,21.3-1.4
				c6-2.7,11.1-7.3,14.6-12.9c3.3-5.4,5.3-11.7,5.3-18c0-6.9-2.5-13.3-6.8-18.6c-6.7-8.2-17.6-13.4-28.3-12.3
				c-14.2,1.5-25.4,13.4-28.3,27C176.7,590,176.4,591.7,176.3,593.3c-0.1,1.6,2.4,1.6,2.5,0c0.8-12.6,9.6-24.9,21.9-28.5
				c9.9-2.9,20.9,0.5,28.2,7.6c4.4,4.2,7.5,9.5,8.6,15.5c1,5.7,0,11.8-2.4,17c-2.4,5.5-6.3,10.3-11.3,13.7
				c-5.5,3.7-12.2,5.3-18.8,4.6c-6.6-0.7-13.1-3.6-18-8.3c-5.1-4.9-8.1-11.6-8.3-18.7c0-1,0-1.9,0.1-2.9
				C178.9,591.7,176.4,591.7,176.3,593.3z"/>
		</g>
	</g>
	<path class="st8" d="M188.6,589.6c0.8-3.7,2.6-6.3,3.7-7.7c4.5-5.6,13.2-9.5,21.9-6.6c9.1,3,14.1,12.1,13.6,20.4
		c-0.5,7.6-5.4,12.3-6.4,13.2c-5.3,4.9-13.6,7.1-21.1,4C190.5,608.9,186.9,597.7,188.6,589.6z"/>
	<path class="st9" d="M199.7,581.3c0.5-0.3,2.9-1.6,5.7-0.6c3,1.2,3.8,4.3,4,4.9c0.2,0.6,1.1,4.6-1.6,7.1c-2.2,2-5.5,1.7-7.6,0.7
		c-2.3-1.2-4.4-3.8-4.1-6.8C196.4,583.2,199.3,581.5,199.7,581.3z"/>
	<path class="st8" d="M391.8,583.3c2-3.4,4.8-5.2,5.9-5.9c6.2-3.9,16-5.3,23.3,0c6.7,4.8,7.7,12.6,8,14.8c0.4,2.6,1.1,8-2.1,13.1
		c-5.2,8.3-16.2,8.2-17.4,8.2c-1.4,0-10.4-0.4-16.2-8C388.6,599,387.9,589.9,391.8,583.3z"/>
	<path class="st9" d="M408,586.6c0.1-0.4,0.4-2.3,1.9-3.7c2.3-2.1,6.6-2.8,9.2-0.3c1.9,1.8,2.3,4.6,1.5,6.8c-1.3,3.5-5.8,5.7-9.2,4
		C408.9,592.2,407.6,589.2,408,586.6z"/>
</g>
<g id="Capa_4">
	<g>
		<path class="st1" d="M296.8,667.6c-2-2.6-3.9-4.6-5.3-6c-2.5-2.4-4.9-4.8-8.7-6.7c-2.9-1.4-4.7-2.3-7-1.7c-2.2,0.6-4.3,2.6-4.7,5
			c-0.4,2.3,0.9,4.2,1.4,5C276.9,670.2,295.3,667.8,296.8,667.6z"/>
		<g>
			<path class="st1" d="M297.7,666.7c-3.7-4.7-8.1-9.4-13.3-12.3c-2.4-1.3-5.4-3-8.3-2.5c-2.6,0.5-5.1,2.5-6,5
				c-1.6,4.3,1.6,8.7,5.4,10.4c3.7,1.7,8,2,12.1,2.1c3.1,0,6.1-0.1,9.2-0.5c1.6-0.2,1.6-2.7,0-2.5c-5.5,0.7-11.5,1-16.9-0.2
				c-3-0.7-6.1-2-7.3-5c-1-2.6,0.4-5.2,2.8-6.3c2.4-1.1,5,0.4,7.1,1.5c5.3,2.8,9.7,7.6,13.4,12.2C296.9,669.8,298.6,668,297.7,666.7
				z"/>
		</g>
	</g>
	<g>
		<path class="st1" d="M318.3,667.7c5.1,0.5,9.4,0.4,12.5,0.2c6.9-0.5,11-0.8,13.3-3.9c0.3-0.4,2.5-3.3,1.5-6.6
			c-0.1-0.2-0.9-2.9-3.5-4c-2.6-1.1-5.3,0.2-7.8,1.4c-3.2,1.6-4.6,3.2-8.3,6.5C324.3,662.9,321.6,665.1,318.3,667.7z"/>
		<g>
			<path class="st1" d="M318.3,669c5.7,0.5,11.3,0.4,17-0.2c3.7-0.4,7.7-1.1,10.1-4.3c2.3-3.2,2.4-7.4-0.2-10.4
				c-3.9-4.4-10.2-1.6-14.1,1.3c-2.2,1.6-4.2,3.6-6.3,5.4c-2.4,2.1-4.8,4.1-7.3,6.1c-1.3,1,0.5,2.7,1.8,1.8
				c3.8-2.9,7.3-6.1,10.8-9.2c1.4-1.3,2.8-2.4,4.5-3.3c2.3-1.2,5.3-2.8,7.8-1.2c2.9,1.9,2.8,5.6,0.9,8.2c-1.9,2.6-5.6,3-8.5,3.3
				c-5.5,0.5-10.9,0.7-16.4,0.1C316.7,666.3,316.7,668.8,318.3,669z"/>
		</g>
	</g>
	<g>
		<g>
			<path class="st1" d="M276.5,636.4c-2.6-4.1-2.7-9.2,0.4-13.1c2.4-3,6.4-5.2,10-3.4c2.7,1.3,4.7,3.9,6.5,6.2
				c2.1,2.6,4,5.4,6.5,7.6c2.2,2,4.8,3.6,7.9,3.8c3.1,0.2,5.9-1.2,8.2-3.1c2.6-2.1,4.8-4.8,7-7.3c2-2.3,4.1-4.8,6.8-6.3
				c4-2.2,8.6,0,11.1,3.5c1.7,2.3,2.4,5.1,1.5,7.9c-0.6,1.9-1.8,3.6-3.2,4.9c-0.6,0.6,0.3,1.4,0.9,0.9c2.9-2.8,4.7-6.9,3.5-10.9
				c-1.2-4.2-5.1-7.9-9.5-8.4c-3.1-0.4-5.8,1.3-8,3.3c-2.6,2.4-4.8,5.3-7.2,7.9c-2.3,2.6-5,5.3-8.5,6.2c-3.5,0.9-6.8-0.6-9.4-2.9
				c-2.7-2.4-4.8-5.5-7.1-8.3c-1.9-2.4-4.1-5-7-6.2c-4.1-1.7-8.5,0.8-11.1,4c-3.4,4.3-3.4,9.9-0.5,14.4
				C275.9,637.7,277,637.1,276.5,636.4L276.5,636.4z"/>
		</g>
	</g>
	<g>
		<g>
			<path class="st1" d="M258.4,600.1c7.2-5.2,16.9-8.7,25.4-4.1c5.9,3.2,9.2,9.4,14.6,13.2c5.3,3.8,11.7,3.6,17.2,0.4
				c5.7-3.4,10.2-8.5,16.1-11.5c9-4.7,19.2-2.8,27.5,2.5c0.7,0.4,1.3-0.6,0.6-1.1c-7.3-4.7-16.4-7-24.9-4.2
				c-6.7,2.2-11.6,7.2-17.1,11.2c-2.5,1.8-5.2,3.5-8.3,4.1c-3.4,0.6-6.8-0.1-9.7-1.9c-5.7-3.6-8.9-9.9-14.7-13.4
				c-8.9-5.4-19.5-1.9-27.4,3.7C257.1,599.5,257.7,600.6,258.4,600.1L258.4,600.1z"/>
		</g>
	</g>
	<g>
		<g>
			<path class="st1" d="M254.3,574.5c9.5-2.8,20-2.7,29.2,1c4.3,1.7,8.1,4.3,11.2,7.6c2.2,2.3,3.9,5,6.1,7.2
				c1.8,1.8,3.9,3.1,6.5,3.2c2.4,0,4.4-1,6.2-2.6c2.3-2.1,4.3-4.5,6.7-6.6c4-3.6,8.6-6.4,13.4-8.6c4.1-1.9,8.4-3.3,12.9-3.8
				c5.7-0.6,11.4,0.1,16.9,1.8c0.8,0.2,1.1-1,0.3-1.2c-8.3-2.6-17.2-2.9-25.4-0.1c-5.2,1.8-10.2,4.3-14.7,7.5
				c-3.2,2.3-5.9,4.9-8.6,7.7c-1.7,1.7-3.5,3.8-5.9,4.4c-2.6,0.6-5.1-0.3-6.9-2.1c-2.2-2.1-4-4.8-6-7.1c-2.9-3.2-6.3-5.8-10.2-7.6
				c-9.9-4.7-21.7-5-32.1-2C253.2,573.5,253.5,574.7,254.3,574.5L254.3,574.5z"/>
		</g>
	</g>
	<g>
		<g>
			<path class="st5" d="M200.4,575.9c-0.7-1.2-1.6-3.1-2.2-5.4c-1.6-7.6,2.4-14.1,4-16.6c2.5-4.1,5.7-6.9,8.4-8.7
				c-0.2,0.8-0.4,2.1-0.3,3.7c0.2,4.1,1.9,5.7,4.2,11.7c1.3,3.6,2,5.4,1.9,7.8c-0.1,3.1-1.3,5.5-2.3,7.1c-1.6-0.5-4.3-1.2-7.7-1
				C203.9,574.5,201.8,575.3,200.4,575.9z"/>
			<g>
				<path class="st1" d="M200.9,575.6c-6.3-10.7,0.9-23.6,10-29.9c-0.3-0.2-0.6-0.5-0.9-0.7c-0.5,2.3-0.5,4.7,0.2,7
					c0.6,2.1,1.8,4.1,2.7,6.2c1.2,2.7,2.6,5.7,2.9,8.6c0.3,2.9-0.6,5.8-2.2,8.3c0.2-0.1,0.5-0.2,0.7-0.3c-4.7-1.6-9.7-1.3-14.2,0.7
					c-0.7,0.3-0.1,1.4,0.6,1.1c4.2-1.8,8.9-2,13.3-0.5c0.3,0.1,0.6-0.1,0.7-0.3c1.4-2.3,2.4-4.9,2.4-7.7c0-2.8-1.1-5.4-2-7.9
					c-1-2.5-2.2-4.8-3.2-7.3c-0.9-2.4-1.1-4.9-0.6-7.5c0.1-0.5-0.4-1-0.9-0.7c-9.7,6.7-17.1,20.4-10.5,31.7
					C200.3,576.9,201.4,576.3,200.9,575.6z"/>
			</g>
		</g>
		<g>
			<path class="st5" d="M218.7,577.5c0.8-1.5,1.7-2.8,2.6-3.9c8.3-9.4,23.4-7.4,26.3-7c-0.8,0.3-1.9,0.9-3.1,1.9
				c-2.6,2.2-3,4.4-5.6,9.2c-1.8,3.3-2.7,4.9-4.1,6.3c-2.7,2.6-6,3.5-8.2,3.8c-0.6-1.7-1.8-4.4-4-6.9
				C221.2,579.4,219.9,578.3,218.7,577.5z"/>
			<g>
				<path class="st1" d="M219.3,577.8c5.4-10.1,17.8-12.1,28.2-10.6c0-0.4-0.1-0.8-0.1-1.1c-2.2,0.9-4.1,2.4-5.4,4.4
					c-1.5,2.2-2.4,4.8-3.7,7.1c-1.2,2.2-2.3,4.5-4.2,6.2c-2.1,1.9-4.8,2.9-7.6,3.4c0.3,0.1,0.5,0.3,0.8,0.4
					c-1.5-4.4-4.4-8.1-8.2-10.7c-0.7-0.5-1.3,0.6-0.6,1.1c3.5,2.4,6.2,5.9,7.6,9.9c0.1,0.3,0.4,0.5,0.8,0.4c2.5-0.4,5-1.3,7.1-2.8
					c2-1.4,3.3-3.4,4.4-5.5c1.4-2.6,2.7-5.3,4.1-7.9c1.3-2.3,3.2-4,5.6-5c0.5-0.2,0.4-1.1-0.1-1.1c-11-1.6-23.9,0.5-29.6,11.1
					C217.8,577.9,218.9,578.5,219.3,577.8z"/>
			</g>
		</g>
		<g>
			<path class="st5" d="M227.6,591.6c1.8-0.2,10.5-1.2,18.1,4.8c4.8,3.8,6.8,8.5,7.6,10.7c-1.4-0.1-3.7-0.1-6.5,0.1
				c-5.4,0.4-6.4,1.1-9.8,0.8c-1.9-0.2-5.1-0.5-8.1-2.8c-1.4-1-2.3-2.2-2.8-3c0.7-1.5,1.5-3.8,1.7-6.7
				C227.8,594.1,227.7,592.8,227.6,591.6z"/>
			<g>
				<path class="st1" d="M227.6,592.3c4.5-0.6,9.3,0.1,13.5,2c5.5,2.6,9.7,7.4,11.7,13.1c0.2-0.3,0.4-0.5,0.6-0.8
					c-2.6-0.1-5.2,0-7.8,0.2c-2,0.2-3.9,0.6-5.9,0.8c-4.9,0.4-10-1.4-12.9-5.5c0,0.2,0,0.4,0,0.6c1.6-3.5,2.1-7.3,1.6-11.2
					c-0.1-0.8-1.3-0.5-1.2,0.3c0.3,2.2,0.2,4.5-0.3,6.8c-0.2,0.8-0.5,1.7-0.8,2.5c-0.3,0.7-0.7,1.1-0.2,1.8c1.8,3,5.6,4.9,8.9,5.6
					c2.5,0.5,4.9,0.4,7.4,0c3.7-0.6,7.5-0.8,11.3-0.7c0.4,0,0.7-0.4,0.6-0.8c-2.1-5.9-6.3-10.9-11.9-13.6c-4.4-2.2-9.6-3-14.4-2.4
					C226.8,591.1,226.8,592.4,227.6,592.3z"/>
			</g>
		</g>
		<g>
			<path class="st5" d="M223.6,606.4c1.5,1.3,3.6,3.5,5.3,6.6c3.1,5.7,3.2,11.1,3.1,13.8c0,2.2-0.3,5.4-1.5,9.2
				c-4-5-7.3-7.7-9.7-9.3c-0.7-0.4-2-1.3-3.3-2.9c-2.7-3.1-3.3-6.3-3.4-6.9c-0.3-1.6-0.2-2.9-0.1-3.8c1.6-0.5,3.9-1.5,6.2-3.4
				C221.7,608.6,222.8,607.4,223.6,606.4z"/>
			<g>
				<path class="st1" d="M223.1,606.8c8.1,7.4,9.9,18.8,6.8,29c0.3-0.1,0.7-0.2,1-0.3c-3-3.7-6.4-7-10.3-9.7
					c-4.1-2.9-6.6-7.6-6.1-12.6c-0.2,0.2-0.3,0.4-0.5,0.6c3.9-1.3,7.3-3.7,9.9-7c0.5-0.6-0.4-1.5-0.9-0.9c-2.4,3.1-5.6,5.4-9.3,6.6
					c-0.3,0.1-0.4,0.3-0.5,0.6c-0.5,5,1.8,9.8,5.6,12.9c1.6,1.3,3.3,2.3,4.8,3.6c2.3,2,4.4,4.3,6.3,6.7c0.3,0.4,0.9,0.1,1-0.3
					c3.2-10.6,1.3-22.6-7.1-30.2C223.4,605.4,222.5,606.3,223.1,606.8z"/>
			</g>
		</g>
		<g>
			<path class="st5" d="M207.3,614.3c0.2,1.5,0.2,3.7-0.1,6.2c-0.9,5.8-3.7,9.8-4.9,11.3c-3.4,4.3-7.3,6.4-9.4,7.3
				c0.2-1.1,0.4-2.9,0.4-5.1c0-3.1-0.6-4.4-1.2-9.5c-0.5-3.5-0.7-5.3-0.4-6.5c0.7-3.4,3.1-5.7,4.9-7c1.2,0.9,3.2,2,5.8,2.7
				C204.3,614.2,206,614.3,207.3,614.3z"/>
			<g>
				<path class="st1" d="M206.7,614.3c1,10.3-4.7,20-14.1,24.2c0.3,0.2,0.6,0.5,0.9,0.7c0.4-2.4,0.6-4.8,0.4-7.2
					c-0.2-2.2-0.7-4.4-1-6.6c-0.3-2.3-1-5-0.6-7.3c0.5-2.8,2.5-5.1,4.6-6.7c-0.2,0-0.4,0-0.6,0c3.2,2.3,7.1,3.5,11,3.5
					c0.8,0,0.8-1.2,0-1.2c-3.7,0-7.3-1.2-10.4-3.3c-0.2-0.1-0.5-0.1-0.6,0c-2,1.6-3.8,3.5-4.7,5.9c-0.9,2.2-0.5,4.4-0.2,6.7
					c0.7,5.4,2,10.5,1,16c-0.1,0.6,0.4,0.9,0.9,0.7c9.8-4.4,15.8-14.7,14.7-25.3C207.9,613.5,206.6,613.5,206.7,614.3z"/>
			</g>
		</g>
		<g>
			<path class="st5" d="M192.8,607.2c-0.7,0.9-1.9,2.2-3.6,3.3c-1.1,0.7-3.9,2.1-9.8,1.6c-7.3-0.6-13.3-3.7-16.9-5.9
				c1.2-0.1,3.1-0.4,5.2-1.4c3.5-1.6,4-3.7,8.7-7c3.7-2.7,5.6-2.9,6.1-3c2.5-0.3,4.5,0.5,5.8,1.1c0.2,1.4,0.5,3.2,1.2,5.2
				C190.5,603.9,191.7,605.9,192.8,607.2z"/>
			<g>
				<path class="st1" d="M192.2,606.9c-3.1,4.1-7.7,5-12.6,4.6c-6-0.4-11.7-2.7-16.8-5.8c-0.1,0.4-0.2,0.8-0.3,1.2
					c2.5-0.2,5-0.9,7.1-2.3c1.8-1.2,3.2-2.9,4.9-4.3c2-1.8,4.5-3.6,7.1-4.4c2.1-0.6,4.4-0.2,6.4,0.8c-0.1-0.2-0.2-0.4-0.3-0.5
					c0.5,4.2,2,8.1,4.6,11.5c0.5,0.6,1.6,0,1.1-0.6c-2.1-2.7-3.5-5.9-4.1-9.2c-0.1-0.6,0-1.5-0.3-2c-0.2-0.4-0.9-0.5-1.3-0.7
					c-1.4-0.6-3-0.8-4.5-0.7c-1.8,0.1-3.4,0.9-4.9,1.8c-2.6,1.6-4.9,3.6-7.1,5.7c-2.4,2.3-5.2,3.6-8.5,3.8c-0.6,0-0.9,0.8-0.3,1.2
					c5.5,3.4,11.8,5.8,18.4,6c5.1,0.2,9.6-1.1,12.8-5.3C193.8,606.9,192.7,606.3,192.2,606.9z"/>
			</g>
		</g>
		<g>
			<path class="st5" d="M188.7,589.2c-2.7-0.1-4.8-0.8-6.4-1.5c-11.3-4.9-13.3-19.8-13.5-21.4c1.1,0.9,2.7,2.2,5.1,3
				c2.7,1,4,0.6,9.2,1.1c4.7,0.5,7.2,0.7,9,2c2.4,1.7,3.4,4.2,3.9,5.9c-1.2,0.9-2.6,2.1-4,4C190,585,189.1,587.5,188.7,589.2z"/>
			<g>
				<path class="st1" d="M188.7,588.6c-7.2-0.4-12.7-4.9-15.9-11.2c-1.7-3.4-2.9-7.4-3.4-11c-0.4,0.1-0.7,0.3-1.1,0.4
					c1.9,1.7,4.2,3,6.7,3.6c2.2,0.5,4.6,0.4,6.8,0.6c2.8,0.2,5.9,0.3,8.5,1.3c2.7,1.1,4.2,3.7,5,6.3c0.1-0.2,0.2-0.5,0.3-0.7
					c-3.7,2.8-6.4,6.7-7.6,11.2c-0.2,0.8,1,1.1,1.2,0.3c1.1-4.2,3.5-7.8,7-10.4c0.2-0.2,0.4-0.4,0.3-0.7c-0.8-2.5-2.1-5-4.4-6.4
					c-2-1.3-4.5-1.5-6.8-1.7c-2.9-0.3-5.8-0.4-8.8-0.7c-2.8-0.3-5.3-1.7-7.4-3.5c-0.4-0.3-1.1-0.1-1.1,0.4
					c0.9,7.6,4.3,15.8,10.8,20.3c2.9,2,6.3,3,9.8,3.2C189.5,589.9,189.5,588.6,188.7,588.6z"/>
			</g>
		</g>
	</g>
	<g>
		<g>
			<path class="st2" d="M211.5,643.7c0,1.2,0.1,2.9,0.7,5c1.2,4.2,3.1,5,3.8,8.7c0.5,3.1-0.4,4.8,0.4,5.2c1.2,0.6,4.3-2.6,6.1-5.6
				c1.2-2.1,3.7-7.1,2-15.6c-2.2,0.6-4.7,1.2-7.4,1.7C215.1,643.4,213.3,643.6,211.5,643.7z"/>
			<g>
				<path class="st1" d="M210.9,643.7c0,3.6,1.1,6.8,2.9,9.9c1,1.6,1.6,3.3,1.7,5.3c0,1.1-0.4,2.6,0,3.6c1.1,2.7,5.1-2,5.8-2.8
					c1.5-1.9,2.7-4,3.4-6.4c1.2-3.9,1.1-8.1,0.3-12.1c-0.1-0.3-0.5-0.5-0.8-0.4c-4.2,1.2-8.4,1.9-12.7,2.3c-0.8,0.1-0.8,1.3,0,1.2
					c4.4-0.3,8.8-1.1,13.1-2.3c-0.3-0.1-0.5-0.3-0.8-0.4c1,5.1,0.8,10.6-1.9,15.1c-0.9,1.5-1.9,2.8-3.2,4c-0.4,0.4-0.9,0.9-1.5,1.1
					c-0.5,0.2-0.6,0.4-0.6-0.2c0-1.4,0.2-2.7,0-4.1c-0.2-1.4-0.7-2.7-1.4-4c-0.8-1.5-1.7-2.8-2.2-4.4c-0.6-1.8-0.9-3.7-0.9-5.5
					C212.2,642.9,210.9,642.9,210.9,643.7z"/>
			</g>
		</g>
		<g>
			<path class="st2" d="M193.9,641.5c-0.7,0.9-1.7,2.2-2,4c-0.5,2.8,0.8,4.2,1.5,8.1c0.9,4.9-0.2,7.4,0.7,7.7c1.3,0.5,4.4-4.1,6-7.1
				c2.2-4.1,3.2-7.9,3.7-10.6c-1.8,0-4-0.2-6.6-0.9C196,642.4,194.9,642,193.9,641.5z"/>
			<g>
				<path class="st1" d="M193.5,641.1c-1.9,2.2-2.8,5-2,7.9c0.4,1.6,1,3.2,1.3,4.8c0.3,1.7,0.4,3.4,0.3,5.2c0,0.7-0.2,1.8,0.2,2.4
					c0.4,0.7,1.2,0.7,1.9,0.4c1.1-0.5,1.8-1.7,2.5-2.6c0.9-1.3,1.8-2.6,2.5-4c2-3.5,3.3-7.4,4.1-11.4c0.1-0.4-0.2-0.8-0.6-0.8
					c-3.3,0-6.5-0.7-9.5-2.1c-0.7-0.3-1.4,0.7-0.6,1.1c3.2,1.5,6.6,2.2,10.1,2.3c-0.2-0.3-0.4-0.5-0.6-0.8
					c-1.1,5.7-3.4,11.5-7.2,15.9c-0.3,0.4-0.7,0.8-1.1,1.1c-0.1,0.1-0.5,0.3-0.5,0.3c-0.3-0.3,0-1.7,0-2c0.1-3-0.4-5.8-1.3-8.6
					c-0.4-1.2-0.8-2.4-0.7-3.6c0.1-1.7,0.9-3.3,2-4.5C194.9,641.4,194,640.5,193.5,641.1z"/>
			</g>
		</g>
		<g>
			<path class="st2" d="M187.9,639.7c-1.2,1.9-2.3,3.3-3.2,4.3c-1.9,2.1-4.2,3.7-8.8,6.8c-0.9,0.6-1.7,1.1-2,0.8
				c-0.6-0.4,0.6-2.4,1.2-5.5c0.8-4.1-0.4-5.4,0.7-8.4c0.7-1.9,1.8-3.2,2.7-4c1.1,1,2.4,2.1,4.1,3.1
				C184.5,638.2,186.3,639.1,187.9,639.7z"/>
			<g>
				<path class="st1" d="M187.4,639.4c-1.3,2-2.7,4-4.5,5.6c-1.6,1.5-3.5,2.7-5.3,4c-0.6,0.4-1.2,0.8-1.9,1.3
					c-0.3,0.2-0.6,0.4-1,0.6c-0.2,0.1-0.4,0.2-0.6,0.3c0,0,0.1,0.2,0.1,0.2c-0.1-0.8,0.5-1.8,0.7-2.5c0.8-2.5,1-4.9,0.9-7.4
					c-0.1-2.8,1-5.2,3-7.1c-0.3,0-0.6,0-0.9,0c2.9,2.6,6.1,4.6,9.7,6.1c0.7,0.3,1.1-0.9,0.3-1.2c-3.4-1.4-6.5-3.3-9.2-5.7
					c-0.3-0.2-0.6-0.2-0.9,0c-1.9,1.8-3.3,4.3-3.4,7c0,1.2,0.1,2.4,0.1,3.6c-0.1,1.7-0.5,3.4-1,5c-0.2,0.8-0.8,1.8-0.6,2.7
					c0.3,1.1,1.5,0.8,2.3,0.3c1.5-0.9,2.9-1.9,4.4-2.9c1-0.7,2.1-1.5,3.1-2.3c2.3-1.9,4.1-4.2,5.7-6.7
					C188.9,639.3,187.8,638.7,187.4,639.4z"/>
			</g>
		</g>
		<g>
			<path class="st2" d="M173.5,630.6c-0.9,1-2.3,2.4-4.2,3.7c-5.1,3.4-11.2,4.2-11.6,3.3c-0.2-0.6,2.1-1.2,3.8-4.1
				c1.4-2.3,0.8-3.6,2-6.3c0.5-1.2,1.5-3,3.4-4.8C169.1,625.1,171.3,627.9,173.5,630.6z"/>
			<g>
				<path class="st1" d="M173,630.2c-1.9,2.1-4.1,3.8-6.7,5c-2.1,1-4.5,1.9-6.9,2.1c-0.3,0-0.7,0.1-1,0c-0.3,0-0.4-0.2-0.2,0.2
					c0.1,0.3-0.1,0.2,0,0.2c0.1,0,0.2-0.2,0.3-0.2c0.4-0.3,0.7-0.5,1.1-0.8c1.9-1.6,3-3.6,3.5-6c0.6-3,1.9-5.5,4.1-7.6
					c-0.3,0-0.6,0-0.9,0c2.2,2.7,4.4,5.4,6.6,8.2c0.5,0.6,1.4-0.3,0.9-0.9c-2.2-2.7-4.4-5.4-6.6-8.2c-0.2-0.3-0.7-0.2-0.9,0
					c-2.1,2.1-3.7,4.7-4.3,7.6c-0.3,1.3-0.5,2.6-1.2,3.7c-0.7,1.1-1.6,2-2.7,2.8c-0.5,0.4-1.3,0.8-1.1,1.6c0.2,0.6,0.9,0.8,1.4,0.8
					c2.3,0.2,4.8-0.7,6.8-1.5c3.3-1.3,6.2-3.3,8.6-6C174.5,630.4,173.6,629.6,173,630.2z"/>
			</g>
		</g>
		<g>
			<path class="st2" d="M164.5,618.7c-1.6,1.1-4.1,2.5-7.4,3.3c-5,1.2-10.1,0.5-10.1-0.2c-0.1-0.5,2.3-0.4,4.5-2.4
				c1.9-1.7,1.8-3.4,3.2-6c0.8-1.6,2.3-3.7,5.3-5.8c0.5,1.7,1.1,3.6,2,5.7C162.6,615.3,163.6,617.1,164.5,618.7z"/>
			<g>
				<path class="st1" d="M164.1,618.1c-2.2,1.5-4.6,2.6-7.1,3.2c-2.7,0.7-5.8,1-8.6,0.4c-0.2,0-0.8-0.3-1-0.3c-0.1,0-0.1,0.5,0,0.6
					c0.1,0,0.4-0.1,0.5-0.2c1.1-0.4,2.1-0.8,3.1-1.4c1-0.7,1.8-1.6,2.3-2.6c0.6-1,0.9-2.2,1.4-3.3c1.2-2.7,3.2-4.8,5.5-6.5
					c-0.3-0.1-0.6-0.2-0.9-0.4c1.1,3.9,2.7,7.7,4.7,11.3c0.4,0.7,1.5,0.1,1.1-0.6c-2-3.5-3.5-7.2-4.6-11c-0.1-0.4-0.6-0.6-0.9-0.4
					c-2.2,1.6-4.2,3.6-5.5,6.1c-0.7,1.3-1.1,2.6-1.7,3.9c-0.7,1.4-1.8,2.5-3.2,3.1c-0.7,0.4-2,0.5-2.6,1.1c-0.5,0.5-0.1,1.2,0.4,1.5
					c0.9,0.5,2.1,0.5,3.2,0.6c1.6,0.1,3.3,0,4.9-0.2c3.5-0.5,6.8-1.8,9.7-3.8C165.4,618.8,164.8,617.7,164.1,618.1z"/>
			</g>
		</g>
	</g>
	<g>
		<g>
			<path class="st2" d="M158.5,588.9c-1.1-0.2-2.8-0.7-4.4-2c-2.9-2.2-5.5-6.5-4.2-10.2c1.4-4,7.4-6.8,13.6-4.5
				c-1.3,3.2-2.6,6.8-3.6,10.8C159.3,585,158.9,587,158.5,588.9z"/>
			<g>
				<path class="st1" d="M158.7,588.3c-2.6-0.6-4.8-2-6.4-4.1c-1.5-2-2.7-4.8-1.7-7.3c0.8-2.1,2.7-3.5,4.7-4.2
					c2.6-0.9,5.4-0.7,8,0.2c-0.1-0.3-0.3-0.5-0.4-0.8c-2.2,5.4-3.9,11-4.9,16.7c-0.1,0.8,1.1,1.1,1.2,0.3c1.1-5.7,2.7-11.3,4.9-16.7
					c0.1-0.3-0.2-0.7-0.4-0.8c-4.2-1.5-9.5-1.1-12.7,2.3c-3.3,3.4-2,8.3,0.8,11.6c1.7,2,4,3.4,6.6,4
					C159.1,589.7,159.5,588.5,158.7,588.3z"/>
			</g>
		</g>
		<g>
			<path class="st2" d="M164.1,571c-3.7-1.6-6-5.2-6-9c0-3.2,1.7-6.2,4.2-7.8c3.8-2.4,9.2-1.8,13,1.9c-2.1,2-4.5,4.5-6.8,7.7
				C166.6,566.4,165.2,568.8,164.1,571z"/>
			<g>
				<path class="st1" d="M164.4,570.5c-2.5-1.2-4.5-3.2-5.3-5.9c-0.8-2.7-0.2-5.7,1.5-7.9c3.6-4.7,10.4-3.8,14.3-0.1
					c0-0.3,0-0.6,0-0.9c-4.6,4.3-8.5,9.4-11.4,15c-0.4,0.7,0.7,1.3,1.1,0.6c2.8-5.5,6.6-10.5,11.2-14.8c0.2-0.2,0.2-0.7,0-0.9
					c-3.4-3.3-8.7-4.7-13.1-2.4c-4.4,2.3-6.4,7.9-4.5,12.5c1,2.6,3.1,4.6,5.6,5.8C164.5,571.9,165.1,570.8,164.4,570.5z"/>
			</g>
		</g>
		<g>
			<path class="st2" d="M193.1,545.5c-0.1-0.4-1.9-5.3-7.1-6.7c-3.6-1-7.2,0.1-9.6,2.2c-3.8,3.3-4.4,8.9-2.8,12.6
				c0.5,1.1,1.2,2,1.7,2.5c1.8-1.7,4-3.6,6.8-5.4C186.2,548,190.1,546.4,193.1,545.5z"/>
			<g>
				<path class="st1" d="M193.7,545.3c-1.4-4-5-7-9.2-7.5c-6.3-0.7-11.7,4.1-12.4,10.2c-0.3,3.1,0.6,6.2,2.7,8.5
					c0.2,0.3,0.6,0.2,0.9,0c5-4.8,10.9-8.4,17.5-10.5c0.8-0.2,0.4-1.5-0.3-1.2c-6.8,2.2-12.9,5.9-18.1,10.8c0.3,0,0.6,0,0.9,0
					c-3.4-3.7-3.1-9.9,0.3-13.6c3.8-4.1,10.5-4.1,14.3,0c0.9,1,1.7,2.2,2.2,3.5C192.8,546.4,194,546.1,193.7,545.3z"/>
			</g>
		</g>
		<g>
			<path class="st2" d="M214.1,543.6c0.1-1,0.3-3.9-1.6-6.7c-2.4-3.4-6.8-4.7-10.4-3.8c-4.8,1.2-8.3,6.2-7.8,11.9
				c2.3-0.7,5.2-1.3,8.5-1.7C207.3,542.9,211.2,543.2,214.1,543.6z"/>
			<g>
				<path class="st1" d="M214.8,543.6c0.5-4.8-2.3-9.3-6.9-10.8c-4.5-1.5-9.3,0.3-12,4.2c-1.6,2.4-2.3,5.3-2.1,8.1
					c0,0.4,0.4,0.7,0.8,0.6c6.3-1.9,12.9-2.4,19.4-1.5c0.8,0.1,1.1-1.1,0.3-1.2c-6.7-0.9-13.6-0.5-20.1,1.5c0.3,0.2,0.5,0.4,0.8,0.6
					c-0.4-5.4,3-11.2,8.9-11.6c2.7-0.2,5.5,0.8,7.4,2.8c1.9,2,2.6,4.7,2.3,7.3C213.4,544.4,214.7,544.4,214.8,543.6z"/>
			</g>
		</g>
		<g>
			<path class="st2" d="M216.8,544.1c0.2-0.9,0.9-3.9,3.7-6c3.1-2.3,7.5-2.6,10.8-0.4c3.9,2.6,5.3,8.4,2.6,13.2
				c-1.5-1.1-3.3-2.2-5.4-3.2C224.1,545.5,219.9,544.5,216.8,544.1z"/>
			<g>
				<path class="st1" d="M217.4,544.2c0.8-3.8,3.7-6.7,7.6-7.3c4.5-0.7,8.5,2.2,9.5,6.6c0.5,2.4,0.1,4.9-1.1,7
					c0.3-0.1,0.6-0.1,0.9-0.2c-5.2-3.6-11.1-5.9-17.3-6.9c-0.8-0.1-1.1,1.1-0.3,1.2c6.1,0.9,11.9,3.2,17,6.7
					c0.3,0.2,0.7,0.1,0.9-0.2c2.3-4.1,2-9.6-1.5-13c-3.7-3.6-10-3.3-13.7,0.2c-1.5,1.5-2.6,3.4-3,5.5
					C216,544.7,217.2,545,217.4,544.2z"/>
			</g>
		</g>
		<g>
			<path class="st2" d="M234.9,551.5c0.7-0.9,2.4-3.1,5.5-4.1c0.6-0.2,5.9-1.9,9.7,1.4c3.8,3.2,3.8,9.2,1.6,12.9
				c-0.9,1.5-2.1,2.5-3,3c-2.3-3.2-5.5-6.9-9.9-10.3C237.5,553.2,236.2,552.3,234.9,551.5z"/>
			<g>
				<path class="st1" d="M235.4,551.8c2.2-3,5.7-4.6,9.3-4.4c2.6,0.1,5,1.3,6.5,3.4c1.3,1.9,1.7,4.4,1.4,6.6
					c-0.4,2.7-1.8,5.1-4.1,6.7c0.3,0.1,0.6,0.1,0.9,0.2c-3.9-5.3-8.6-9.8-14.1-13.4c-0.7-0.4-1.3,0.6-0.6,1.1
					c5.3,3.4,10,7.8,13.7,12.9c0.2,0.3,0.6,0.4,0.9,0.2c4.5-3,6.1-9.2,3.7-14c-2.2-4.6-7.7-5.9-12.4-4.5c-2.5,0.8-4.6,2.4-6.1,4.5
					C233.9,551.8,234.9,552.4,235.4,551.8z"/>
			</g>
		</g>
		<g>
			<path class="st2" d="M257.3,584.1c1.1-0.4,4.7-1.9,6.8-5.7c1.8-3.2,2.7-8.5-0.2-12.1c-3.2-3.9-8.9-3.3-10.3-3.2
				c-2.1,0.2-3.8,0.9-4.9,1.4c1.5,2.1,3.2,4.7,4.7,7.9C255.6,576.9,256.7,580.9,257.3,584.1z"/>
			<g>
				<path class="st1" d="M257.5,584.7c5-1.8,8.4-6.3,8.9-11.6c0.3-3-0.6-6-2.8-8.1c-2-1.8-4.6-2.5-7.1-2.6c-2.7-0.1-5.5,0.4-7.9,1.6
					c-0.3,0.1-0.4,0.6-0.2,0.9c4.2,5.8,7.1,12.4,8.5,19.4c0.2,0.8,1.4,0.5,1.2-0.3c-1.4-7.1-4.4-13.8-8.6-19.7
					c-0.1,0.3-0.1,0.6-0.2,0.9c3.7-1.8,8.9-2.2,12.5,0c5,3.1,4.3,10.4,1,14.5c-1.4,1.8-3.3,3.1-5.5,3.9
					C256.4,583.8,256.7,585,257.5,584.7z"/>
			</g>
		</g>
	</g>
	<g>
		<g>
			<path class="st5" d="M399.6,576.4c-1.3,0.6-2.9,1.6-4.5,3.1c-3.3,3-4.6,6.5-5.1,8.4c-1,0-2.8-0.2-4.6-1.1c-4.4-2.2-5-6.8-9.3-13
				c-1.1-1.6-2.9-4-5.7-6.7c2.9-0.7,12.3-2.4,21.4,2.8C395.3,571.8,397.9,574.3,399.6,576.4z"/>
			<g>
				<path class="st1" d="M399.2,575.8c-4.9,2.3-8.4,6.6-9.9,11.8c0.2-0.2,0.4-0.3,0.6-0.5c-2.5-0.1-4.8-0.9-6.6-2.7
					c-1.5-1.6-2.5-3.6-3.5-5.6c-2.4-4.6-5.4-8.7-9.1-12.4c-0.1,0.3-0.2,0.7-0.3,1c10.6-2.4,21.7,0.8,28.7,9.3
					c0.5,0.6,1.4-0.3,0.9-0.9c-7.3-8.8-18.9-12.1-29.9-9.6c-0.5,0.1-0.6,0.7-0.3,1c2,1.9,3.8,4,5.4,6.3c1.7,2.4,3,4.9,4.4,7.4
					c1,1.8,2.1,3.7,3.7,5c1.9,1.5,4.2,2.2,6.6,2.3c0.3,0,0.5-0.2,0.6-0.5c1.4-4.9,4.8-8.8,9.3-11C400.6,576.5,400,575.5,399.2,575.8
					z"/>
			</g>
		</g>
		<g>
			<path class="st5" d="M402.6,575.1c-0.7-1.6-1.5-4.2-1.3-7.3c0.3-5.2,3.3-7.5,4.9-13.8c0.5-2,1.1-4.9,0.9-8.7
				c2.2,1.4,6.2,4.5,8.9,9.9c4.6,9.2,1.9,18.2,1.3,20.1c-1.7-0.7-4.6-1.5-8.1-1.4C406.4,574,404.1,574.6,402.6,575.1z"/>
			<g>
				<path class="st1" d="M403.2,574.9c-1-2.5-1.6-5.2-1.3-7.9c0.3-2.4,1.4-4.6,2.5-6.8c2.3-4.8,3.5-9.7,3.3-15
					c-0.3,0.2-0.6,0.4-0.9,0.5c5.1,3.3,8.9,8.4,10.5,14.3c1.3,4.9,1,10.2-0.6,15c0.3-0.1,0.5-0.3,0.8-0.4c-4.8-1.8-10.1-1.8-15-0.2
					c-0.8,0.3-0.4,1.5,0.3,1.2c4.7-1.6,9.7-1.5,14.4,0.2c0.3,0.1,0.7-0.1,0.8-0.4c1.7-5.1,1.9-10.9,0.4-16.1
					c-1.7-6.1-5.7-11.2-10.9-14.7c-0.4-0.3-1,0.1-0.9,0.5c0.1,2.8-0.1,5.6-0.8,8.3c-0.7,2.7-1.8,5.1-3,7.5c-1,2-1.8,4.1-2,6.3
					c-0.2,2.7,0.3,5.4,1.3,7.9C402.3,576,403.5,575.7,403.2,574.9z"/>
			</g>
		</g>
		<g>
			<path class="st5" d="M421,577.4c0.3-1.4,1-3.5,2.7-5c3.2-2.9,7.6-1.5,13.8-2.2c3-0.3,7.2-1.2,12.2-3.8c-1.5,3.7-3,6.7-4.2,8.7
				c-3.3,5.8-5.6,9.7-10.2,12c-2.7,1.4-5.2,1.7-6.8,1.8c-0.4-1.6-1.1-4.2-3-6.9C424,579.8,422.3,578.3,421,577.4z"/>
			<g>
				<path class="st1" d="M421.6,577.5c0.6-2.7,2.1-5.1,4.8-6c2.4-0.8,5.1-0.5,7.6-0.5c5.6-0.1,10.9-1.5,15.9-4.1
					c-0.3-0.2-0.6-0.5-0.9-0.7c-2,5-4.7,10-7.7,14.5c-3.1,4.4-7.4,7.3-12.8,7.6c0.2,0.2,0.4,0.3,0.6,0.5c-1.1-4.8-3.8-9-7.7-12
					c-0.6-0.5-1.3,0.6-0.6,1.1c3.6,2.8,6.1,6.8,7.1,11.2c0.1,0.3,0.3,0.5,0.6,0.5c5.5-0.4,10.1-3,13.3-7.4
					c3.5-4.7,6.3-10.2,8.5-15.6c0.2-0.5-0.5-0.9-0.9-0.7c-2.9,1.5-6,2.7-9.2,3.3c-2.9,0.6-5.8,0.6-8.7,0.6c-2.3,0-4.7,0-6.8,1.2
					c-2.3,1.3-3.6,3.7-4.2,6.2C420.3,578,421.5,578.3,421.6,577.5z"/>
			</g>
		</g>
		<g>
			<path class="st5" d="M429.3,594.8c1.3-0.1,3.2-0.1,5.4,0.6c4.4,1.3,6.4,4,10.3,6.8c2.1,1.5,5.4,3.5,10.2,4.8
				c-1.9,0.8-4.6,1.8-8,2.8c-5.8,1.8-8.7,2.6-11.9,2.3c-1.9-0.2-5.7-1-9.8-4.7c1.1-1.4,3-4,3.7-7.8
				C429.5,597.7,429.5,596,429.3,594.8z"/>
			<g>
				<path class="st1" d="M429.3,595.4c2.7-0.1,5.3,0.3,7.7,1.5c2.2,1.1,3.9,2.8,5.8,4.3c3.6,2.9,7.7,5,12.1,6.3c0-0.4,0-0.8,0-1.2
					c-2.6,1.1-5.3,2-8,2.8c-2.6,0.8-5.3,1.7-8.1,2.1c-4.9,0.8-9.4-1.3-13.1-4.4c0,0.3,0,0.6,0,0.9c3-3.7,4.5-8.3,4.1-13
					c-0.1-0.8-1.3-0.8-1.2,0c0.4,4.4-0.9,8.7-3.7,12.1c-0.2,0.2-0.3,0.6,0,0.9c3.7,3.2,8.3,5.4,13.3,4.9c2.7-0.3,5.3-1.1,7.9-1.9
					c3.1-0.9,6.1-2,9.1-3.2c0.5-0.2,0.6-1,0-1.2c-5-1.5-9.1-3.9-13.1-7.2c-1.7-1.5-3.5-2.9-5.6-3.8c-2.3-1-4.8-1.3-7.3-1.2
					C428.5,594.2,428.5,595.4,429.3,595.4z"/>
			</g>
		</g>
		<g>
			<path class="st5" d="M416,612.7c2.5-0.7,4.6-1.6,6-2.5c1.3,1.4,3.2,3.6,3.9,6.8c0.9,3.8-0.5,6.3-1.3,12.4
				c-0.3,2.2-0.6,5.4-0.4,9.3c-1.6-0.7-8.5-3.7-12.1-11.6c-2.8-6.1-1.9-11.7-1.5-13.8C412.1,613.4,413.9,613.2,416,612.7z"/>
			<g>
				<path class="st1" d="M416.2,613.3c2.2-0.6,4.2-1.4,6.1-2.5c-0.3,0-0.5-0.1-0.8-0.1c1.7,1.8,3.1,3.9,3.7,6.3
					c0.5,2.1,0.2,4.1-0.2,6.1c-1,5.2-1.7,10.3-1.6,15.7c0.3-0.2,0.5-0.4,0.8-0.6c-9.6-4-15.2-14.4-13.2-24.6
					c-0.2,0.2-0.4,0.3-0.6,0.5C412.5,614,414.4,613.8,416.2,613.3c0.8-0.2,0.4-1.4-0.3-1.2c-1.7,0.4-3.5,0.7-5.3,0.7
					c-0.3,0-0.5,0.2-0.6,0.5c-1.2,6.2,0,12.8,3.7,17.9c2.6,3.6,6.2,6.5,10.3,8.2c0.4,0.2,0.8-0.2,0.8-0.6c-0.1-2.9,0-5.9,0.3-8.8
					c0.3-2.7,1-5.4,1.4-8c0.7-4.6-0.9-8.9-4.1-12.2c-0.2-0.2-0.5-0.2-0.8-0.1c-1.8,1.1-3.8,1.9-5.8,2.4
					C415.1,612.3,415.4,613.5,416.2,613.3z"/>
			</g>
		</g>
		<g>
			<path class="st5" d="M394.1,606.2c-1.6,1.3-2.9,2.6-3.9,3.9c-7.5,9.8-3.9,23.1-3.1,26c0.6-1.1,1.7-2.7,3.3-4.3
				c2.7-2.8,4.1-2.9,7.6-6c2.5-2.2,4.3-3.8,5.4-6.4c1.1-2.6,1.2-5.1,1.1-6.7c-1.6-0.4-4-1.2-6.5-2.9
				C396.3,608.6,395,607.3,394.1,606.2z"/>
			<g>
				<path class="st1" d="M393.6,605.8c-9.2,7.3-10.2,19.9-7.1,30.5c0.1,0.5,0.9,0.6,1.1,0.1c1.4-2.3,3.1-4.4,5.1-6
					c1.9-1.5,3.9-2.7,5.8-4.3c2-1.7,3.9-3.5,5.1-5.9c1.2-2.3,1.6-4.9,1.4-7.5c0-0.3-0.2-0.5-0.5-0.6c-3.9-1-7.4-3.2-10.1-6.2
					c-0.5-0.6-1.4,0.3-0.9,0.9c2.8,3.2,6.5,5.5,10.6,6.6c-0.2-0.2-0.3-0.4-0.5-0.6c0.2,2.7-0.3,5.4-1.7,7.7
					c-1.4,2.4-3.7,4.3-5.8,5.9c-1.6,1.3-3.4,2.3-5,3.7c-1.9,1.6-3.5,3.7-4.8,5.8c0.4,0,0.8,0.1,1.1,0.1c-3-10.2-2.1-22.2,6.8-29.3
					C395.2,606.2,394.3,605.3,393.6,605.8z"/>
			</g>
		</g>
		<g>
			<path class="st5" d="M389.3,591.6c-2.8-0.7-5.2-0.7-7-0.4c-11.8,1.6-17.6,14.3-18.3,15.8c1.4,0,3.7,0.1,6.5,0.5
				c4.5,0.6,5.6,1.2,8.5,1c1.3-0.1,3.9-0.2,6.9-1.8c2.8-1.4,4.5-3.3,5.5-4.5c-0.7-1.5-1.6-3.7-2-6.4
				C389.2,594.2,389.2,592.8,389.3,591.6z"/>
			<g>
				<path class="st1" d="M389.5,591c-7-1.7-13.8,0.6-18.9,5.5c-2.9,2.8-5.4,6.4-7,10.1c-0.2,0.4,0,0.9,0.5,0.9c3,0.1,6,0.4,9,0.9
					c2,0.3,4,0.7,6,0.6c5-0.3,9.7-2.5,12.8-6.4c0.2-0.2,0.2-0.5,0.1-0.8c-1.6-3.2-2.2-6.7-2-10.3c0-0.8-1.2-0.8-1.2,0
					c-0.2,3.8,0.6,7.5,2.2,10.9c0-0.3,0.1-0.5,0.1-0.8c-3.1,3.9-7.8,6.1-12.8,6.1c-2,0-4-0.5-5.9-0.8c-2.7-0.4-5.5-0.7-8.2-0.7
					c0.2,0.3,0.4,0.6,0.5,0.9c1.5-3.4,3.7-6.6,6.2-9.2c4.9-5,11.4-7.4,18.3-5.8C389.9,592.4,390.3,591.2,389.5,591z"/>
			</g>
		</g>
	</g>
	<g>
		<g>
			<path class="st2" d="M394,641.3c-0.5,0.9-0.9,1.8-1.4,2.7c-0.2,0.4-0.4,1.1-0.6,2c-1.4,7.6,7.6,16.1,8.9,15.3
				c0.3-0.2-0.1-0.8-0.2-2.6c-0.2-3.7,1.2-6.6,2.8-9.8c0.7-1.4,1.6-3.2,3-5.2c-2.3-0.1-5-0.3-7.9-1
				C396.9,642.3,395.4,641.8,394,641.3z"/>
			<g>
				<path class="st1" d="M393.5,641c-0.8,1.6-1.8,3.2-2.1,5.1c-0.2,1.5-0.1,2.9,0.2,4.4c0.7,2.8,2.2,5.4,4.1,7.6
					c1.1,1.4,2.8,3.3,4.6,3.8c0.6,0.2,1.3,0,1.4-0.8c0-0.4-0.1-0.9-0.2-1.3c-0.2-1.1-0.2-2.2,0-3.3c0.3-2.4,1.3-4.6,2.3-6.7
					c1-2,2-4,3.3-5.8c0.3-0.4-0.1-0.9-0.5-0.9c-4.2-0.2-8.4-1-12.4-2.4c-0.8-0.3-1.1,0.9-0.3,1.2c4.1,1.4,8.4,2.2,12.7,2.4
					c-0.2-0.3-0.4-0.6-0.5-0.9c-1.9,2.8-3.5,5.8-4.7,8.9c-0.6,1.6-1.1,3.3-1.2,5.1c0,0.8,0,1.7,0.1,2.5c0,0.2,0,0.6,0.1,0.8
					c0,0,0,0.2,0,0.2c0,0,0,0.1,0,0.1c0.1-0.1,0.2-0.2,0.3-0.3c0,0-0.2-0.1-0.4-0.2c-0.3-0.1-0.6-0.4-0.9-0.6
					c-0.8-0.6-1.5-1.3-2.1-2c-1.7-1.9-3.2-4.1-4.1-6.6c-0.5-1.4-0.8-2.9-0.7-4.5c0.2-2,1.2-3.6,2-5.3
					C394.9,640.9,393.8,640.3,393.5,641z"/>
			</g>
		</g>
		<g>
			<path class="st2" d="M413.6,643.5c0.1,1.3,0.4,3.2,1,5.4c2,6.7,6.7,12.2,7.9,11.7c0.5-0.2,0.1-1.1,0.3-3.7
				c0.3-3.2,1.1-4.6,1.5-6.7c0.4-2,0.6-4.8-0.6-8.6c-1.3,0.6-3.1,1.3-5.3,1.7C416.6,643.6,414.9,643.6,413.6,643.5z"/>
			<g>
				<path class="st1" d="M413,643.5c0.3,3.4,1.2,6.7,2.7,9.8c1.2,2.4,2.7,5,4.7,6.8c0.8,0.8,2.8,1.9,3-0.1c0.1-1.5,0-3,0.2-4.6
					c0.2-1.4,0.7-2.8,1.1-4.1c0.9-3.3,0.7-6.7-0.3-10c-0.1-0.4-0.6-0.5-0.9-0.4c-3.1,1.5-6.4,2.1-9.8,1.9c-0.8,0-0.8,1.2,0,1.2
					c3.6,0.2,7.2-0.6,10.5-2.1c-0.3-0.1-0.6-0.2-0.9-0.4c0.8,2.6,1.2,5.4,0.6,8.1c-0.2,1.1-0.6,2.2-0.9,3.3
					c-0.4,1.4-0.6,2.7-0.7,4.2c-0.1,0.9-0.2,2,0,2.9c-0.1-0.4,0.4,0.2,0-0.2c-0.2-0.2-0.6-0.4-0.8-0.6c-1.7-1.6-3-3.7-4.1-5.8
					c-1.6-3.1-2.7-6.5-3-10C414.2,642.7,412.9,642.7,413,643.5z"/>
			</g>
		</g>
		<g>
			<path class="st2" d="M430.3,639c1.8-0.8,3.7-1.8,5.8-3.1c1-0.6,1.9-1.3,2.8-1.9c0.5,0.6,1.2,1.5,1.8,2.8c1.6,3.1,1,4.6,2.3,8.8
				c1.1,3.6,2.3,5.3,1.6,5.8c-0.2,0.2-0.7,0.3-3.4-1.1c-3.4-1.8-5.1-2.7-6.9-4.7C432,643.1,430.9,640.7,430.3,639z"/>
			<g>
				<path class="st1" d="M430.6,639.5c3-1.4,5.9-3.1,8.5-5.1c-0.3,0-0.5-0.1-0.8-0.1c1.5,2,2.5,4.2,2.9,6.6c0.5,2.8,1.1,5.4,2.1,8
					c0.2,0.4,0.3,0.9,0.5,1.3c0,0.1,0.1,0.5,0.1,0.6c-0.1-0.2,0.3,0.1,0-0.1c-0.3-0.2-0.7-0.2-1-0.4c-1.4-0.6-2.7-1.4-4-2.1
					c-1.1-0.6-2.1-1.2-3.1-2c-2.3-2-4.1-4.6-5.1-7.5c-0.3-0.7-1.5-0.4-1.2,0.3c1.1,2.9,2.7,5.6,5,7.7c1,0.9,2.1,1.6,3.3,2.3
					c1.5,0.9,3,1.8,4.6,2.4c0.6,0.2,1.3,0.6,2,0.4c0.7-0.2,0.8-0.9,0.7-1.5c-0.2-1.1-0.8-2.2-1.2-3.3c-0.6-1.7-1-3.4-1.3-5.1
					c-0.2-1.4-0.4-2.8-0.9-4.1c-0.6-1.6-1.5-3.1-2.5-4.4c-0.2-0.2-0.6-0.2-0.8-0.1c-2.6,2-5.5,3.7-8.5,5.1
					C429.2,638.8,429.9,639.9,430.6,639.5z"/>
			</g>
		</g>
		<g>
			<path class="st2" d="M443.7,629.8c0.6,0.9,1.5,2.1,2.8,3.2c5.7,5.1,13.9,4.9,14.2,4.1c0.1-0.4-1.7-0.6-3.3-2.5
				c-1.4-1.8-0.7-2.7-2.3-5.6c-0.6-1.2-1.4-2.6-3-3.8c-1.1-0.8-2.2-1.2-3-1.4C447.4,625.8,445.5,627.8,443.7,629.8z"/>
			<g>
				<path class="st1" d="M443.2,630.1c3.3,5,9.2,8,15.2,8.1c0.6,0,4-0.3,2.6-1.7c-0.3-0.3-0.7-0.4-1-0.6c-0.8-0.4-1.5-1-2.1-1.7
					c-0.8-1-0.9-2.1-1.3-3.3c-1.1-3.6-3.5-6.8-7.3-7.8c-0.2-0.1-0.5,0-0.6,0.2c-1.8,2-3.6,4-5.5,6c-0.5,0.6,0.3,1.5,0.9,0.9
					c1.8-2,3.6-4,5.5-6c-0.2,0.1-0.4,0.1-0.6,0.2c3.1,0.8,5.1,3.3,6.2,6.3c0.3,0.9,0.5,1.9,0.9,2.9c0.5,1.1,1.3,2.1,2.3,2.8
					c0.4,0.3,0.9,0.6,1.3,0.8c0.1,0,0.4,0.2,0.4,0.2c0.2,0,0-0.7,0.1-0.7c0,0,0,0-0.1,0c-0.3,0-1.1,0.2-1.6,0.2
					c-2.2,0-4.5-0.5-6.5-1.3c-3.2-1.2-5.9-3.3-7.8-6.2C443.8,628.8,442.7,629.5,443.2,630.1z"/>
			</g>
		</g>
		<g>
			<path class="st2" d="M453,618c0.9-1.3,2-3.1,2.9-5.4c0.7-1.7,1.1-3.3,1.3-4.7c0.9,0.7,2.2,1.9,3.6,3.6c2.3,2.9,2.3,4.1,4.4,6.4
				c2.7,3,5,3.5,4.8,4.3c-0.3,1.1-5.2,1.1-9.3-0.1C457.2,621.1,454.6,619.4,453,618z"/>
			<g>
				<path class="st1" d="M453.6,618.3c2.1-3.1,3.6-6.5,4.3-10.2c-0.3,0.1-0.7,0.2-1,0.3c2.1,1.7,3.9,3.7,5.3,6.1
					c1.3,2.1,2.5,4.1,4.5,5.7c0.8,0.6,1.6,1.2,2.5,1.8c0.1,0.1,0.4,0.4,0.4,0.2c-0.1-0.2,0.1-0.1-0.1-0.1c-0.1,0-0.4,0.1-0.5,0.2
					c-2.4,0.6-5.3,0-7.6-0.6c-2.8-0.8-5.5-2.2-7.7-4.1c-0.6-0.5-1.5,0.4-0.9,0.9c2.2,1.8,4.6,3.2,7.3,4.1c2.7,0.9,6,1.5,8.9,1
					c0.7-0.1,1.7-0.4,1.9-1.1c0.2-0.7-0.4-1.2-0.9-1.5c-1-0.7-2.1-1.4-3-2.2c-1.1-1-2.1-2.2-2.8-3.6c-1.7-2.9-3.6-5.4-6.2-7.6
					c-0.3-0.3-0.9-0.2-1,0.3c-0.7,3.6-2.1,6.9-4.2,9.9C452,618.4,453.1,619,453.6,618.3z"/>
			</g>
		</g>
	</g>
	<g>
		<g>
			<path class="st2" d="M360.4,583.5c-1.2-0.3-2.9-0.9-4.7-2.2c-2.9-2.1-6.4-6.8-5-11.8c1.4-5,6.8-6.7,7.4-6.9
				c5.3-1.6,9.7,1.4,10.3,1.7c-1.8,2.4-4.1,6-5.8,10.5C361.4,578.1,360.8,581,360.4,583.5z"/>
			<g>
				<path class="st1" d="M360.6,582.9c-5.6-1.4-11.1-7.5-9.1-13.6c1.4-4,6-6.6,10.1-6.5c2.3,0.1,4.6,0.8,6.5,2.1
					c-0.1-0.3-0.1-0.6-0.2-0.9c-4.2,5.7-7,12.3-8.1,19.3c-0.1,0.8,1.1,1.1,1.2,0.3c1-6.9,3.8-13.4,7.9-19c0.2-0.3,0-0.7-0.2-0.9
					c-3.8-2.7-8.9-3-13-0.9c-2.2,1.2-4.2,3-5.2,5.3c-1.3,3.2-0.7,6.7,1.1,9.5c2,3.1,5,5.4,8.6,6.3
					C361,584.3,361.4,583.1,360.6,582.9z"/>
			</g>
		</g>
		<g>
			<path class="st2" d="M369,562.8c-0.4-0.3-4.3-2.8-4.6-7.3c-0.3-4.5,3-8.4,6.8-9.5c4.8-1.4,8.9,1.9,9.6,2.4c1,0.8,1.7,1.7,2.2,2.4
				c-2.1,1.3-4.4,2.9-6.8,4.9C373.3,558.1,370.9,560.6,369,562.8z"/>
			<g>
				<path class="st1" d="M369.3,562.3c-3.2-2.1-5.1-6-3.9-9.8c0.8-2.4,2.6-4.4,4.9-5.4c2.4-1.1,5.1-0.9,7.4,0.2
					c1.9,0.9,3.6,2.2,4.8,3.9c0.1-0.3,0.1-0.6,0.2-0.9c-5.3,3.3-10.1,7.4-14.2,12.1c-0.5,0.6,0.4,1.5,0.9,0.9
					c4-4.6,8.7-8.7,13.9-11.9c0.3-0.2,0.4-0.6,0.2-0.9c-2.8-3.9-8.2-6.6-13-4.9c-5.4,1.9-8.5,8.2-5.8,13.5c0.9,1.7,2.3,3.3,3.9,4.3
					C369.3,563.8,370,562.7,369.3,562.3z"/>
			</g>
		</g>
		<g>
			<path class="st2" d="M385,549.7c-2.2-3.8-1.7-8.4,0.9-11.3c1.9-2.1,4.8-3.1,7.4-2.8c4.1,0.4,7.6,3.8,8.4,8.5
				c-1.2,0.2-2.5,0.4-3.8,0.7C392.8,545.9,388.5,547.8,385,549.7z"/>
			<g>
				<path class="st1" d="M385.5,549.3c-1.3-2.4-1.7-5.3-0.8-7.9c0.9-2.6,3.1-4.5,5.8-5.1c5.2-1.2,9.6,3,10.5,7.8
					c0.1-0.3,0.3-0.5,0.4-0.8c-5.9,0.9-11.6,2.9-16.9,5.7c-0.7,0.4-0.1,1.5,0.6,1.1c5.2-2.8,10.8-4.7,16.6-5.6
					c0.3-0.1,0.5-0.5,0.4-0.8c-0.9-4.2-4-8.1-8.4-8.8c-4.8-0.8-9.5,2.3-10.6,7c-0.7,2.7-0.1,5.5,1.2,7.9
					C384.8,550.7,385.9,550.1,385.5,549.3z"/>
			</g>
		</g>
		<g>
			<path class="st2" d="M403.8,543.8c-0.1-0.6-0.8-4.6,1.9-8c2.3-2.9,6.3-4.5,9.7-3.6c4.7,1.3,8,6.9,6.5,13
				c-3.1-0.8-6.9-1.5-11.4-1.7C408.1,543.4,405.8,543.6,403.8,543.8z"/>
			<g>
				<path class="st1" d="M404.4,543.6c-0.7-4,1.2-8.2,4.9-10.1c2-1.1,4.5-1.4,6.7-0.5c1.9,0.8,3.5,2.3,4.4,4.2
					c1.3,2.4,1.5,5.2,0.9,7.8c0.3-0.1,0.5-0.3,0.8-0.4c-6-1.6-12.2-2.1-18.3-1.4c-0.8,0.1-0.8,1.3,0,1.2c6-0.6,12.1-0.2,18,1.4
					c0.3,0.1,0.7-0.1,0.8-0.4c1.1-4.9-0.6-10.8-5.3-13.2c-5-2.5-11.2,0.4-13.3,5.3c-0.9,2-1.1,4.3-0.7,6.4
					C403.4,544.7,404.6,544.4,404.4,543.6z"/>
			</g>
		</g>
		<g>
			<path class="st2" d="M425.1,546.1c0.3-1,1.4-4.1,4.6-6c4-2.3,9.3-1.3,12.4,1.7c3.3,3.2,4,7.9,2.7,11.5c-0.5,1.5-1.4,2.6-2,3.3
				c-1.5-1.4-3.2-2.8-5.1-4.1C433.1,549.4,428.7,547.4,425.1,546.1z"/>
			<g>
				<path class="st1" d="M425.7,546.3c0.7-2.4,2.3-4.5,4.5-5.7c2.8-1.5,6.3-1.3,9,0.1c5.7,2.9,7.4,10.8,3.1,15.6c0.3,0,0.6,0,0.9,0
					c-5.2-4.7-11.3-8.4-18-10.8c-0.8-0.3-1.1,0.9-0.3,1.2c6.4,2.3,12.4,5.8,17.4,10.4c0.2,0.2,0.7,0.3,0.9,0
					c3.6-4.1,3.7-10.4,0.3-14.6c-3.5-4.4-10.4-5.8-15-2.4c-2,1.4-3.3,3.5-4.1,5.8C424.2,546.7,425.4,547.1,425.7,546.3z"/>
			</g>
		</g>
		<g>
			<path class="st2" d="M454.1,571.6c0.9-0.6,2.9-2.1,4.1-4.8c1.2-2.9,1.4-7.4-1.6-10.6c-2.3-2.5-6-3.6-9.3-2.6
				c-2.4,0.7-3.8,2.4-4.4,3.1c1.3,1.2,2.7,2.5,4,4.1C450.2,564.6,452.5,568.4,454.1,571.6z"/>
			<g>
				<path class="st1" d="M454.4,572.1c3.7-2.5,5.8-6.9,5.1-11.3c-0.8-5.1-5.8-8.7-10.9-8.1c-2.5,0.3-4.7,1.6-6.2,3.6
					c-0.2,0.3-0.3,0.6,0,0.9c4.6,4.1,8.4,9.1,11.2,14.7c0.4,0.7,1.4,0.1,1.1-0.6c-2.8-5.7-6.7-10.7-11.4-15c0,0.3,0,0.6,0,0.9
					c1.6-2,3.8-3.3,6.4-3.3c2.9,0,5.8,1.4,7.4,3.9c2.9,4.4,1,10.5-3.2,13.3C453.1,571.5,453.7,572.5,454.4,572.1z"/>
			</g>
		</g>
		<g>
			<path class="st2" d="M459,589.2c0.6,0,4.4-0.1,6.9-3.2c2.4-2.9,2.4-6.9,1-9.8c-2.1-4.5-7-5.2-7.6-5.3c-2.3-0.3-4.2,0.3-5.2,0.7
				c0.8,1.8,1.7,3.8,2.4,6C457.9,581.9,458.6,585.9,459,589.2z"/>
			<g>
				<path class="st1" d="M459,589.8c4.9-0.1,9-3.7,9.5-8.6c0.5-5-2.9-9.3-7.7-10.7c-2.3-0.6-4.7-0.5-6.9,0.4
					c-0.4,0.2-0.6,0.5-0.4,0.9c2.5,5.5,4.2,11.3,4.8,17.3c0.1,0.8,1.3,0.8,1.2,0c-0.7-6.2-2.4-12.3-5-18c-0.1,0.3-0.2,0.6-0.4,0.9
					c3.3-1.3,7.1-0.8,9.9,1.5c4,3.3,4.2,9.8,0.1,13.1c-1.5,1.2-3.4,1.8-5.3,1.8C458.2,588.6,458.2,589.8,459,589.8z"/>
			</g>
		</g>
	</g>
	<g>
		<g>
			<path class="st3" d="M205.5,717c-0.4-5.3-0.7-12.9-0.1-21.9c1.9-25.2,10.3-49,13.3-48.5c1.3,0.2,0.7,5,1.6,15.8
				c1.3,15.3,4.3,26.3,8,40c2.8,10.5,6.8,22.7,12.2,36c-5.9-2.2-12.8-5.5-20.2-10.1C214.4,724.5,209.4,720.6,205.5,717z"/>
			<g>
				<path class="st1" d="M206.1,717c-1-12.5-0.3-25,1.9-37.4c1-5.9,2.4-11.8,4.1-17.5c1.2-4,2.5-8.1,4.4-11.9c0.5-0.9,1-2.1,1.8-2.7
					c0.2-0.2,0.4-0.2,0.3-0.2c-0.1,0,0.1,0.4,0.2,0.6c0.4,1.4,0.3,3,0.3,4.5c0.1,2.7,0.2,5.5,0.4,8.2c0.9,12.6,3.5,24.8,6.8,37
					c3.7,14,8.1,27.7,13.6,41.1c0.3-0.3,0.5-0.5,0.8-0.8c-12.8-4.9-24.6-12.1-34.8-21.2c-0.6-0.5-1.5,0.3-0.9,0.9
					c10.4,9.3,22.3,16.6,35.3,21.5c0.4,0.2,0.9-0.3,0.8-0.8c-5.2-12.6-9.4-25.4-12.9-38.5c-3.5-12.9-6.5-25.8-7.4-39.2
					c-0.2-2.8-0.3-5.7-0.4-8.5c-0.1-1.5,0-3.1-0.4-4.5c-0.5-2.1-2.2-1.5-3.2-0.2c-2,2.7-3.2,6.2-4.3,9.3c-1.9,5.4-3.3,11-4.5,16.6
					c-3,14.4-4.2,29.1-3.1,43.8C204.9,717.8,206.1,717.8,206.1,717z"/>
			</g>
		</g>
		<g>
			<path class="st3" d="M240.5,738.4c0.3-1.9,0.9-4.6,2.2-7.7c3.5-8.5,10.7-15.7,13-14.5c0.9,0.5,0.3,2,0.8,6.9
				c0.1,1.2,0.7,6.4,2.7,11.7c1,2.5,2.7,6.1,5.8,10.1c-4.1-0.7-8.7-1.6-13.5-2.9C247.5,740.9,243.8,739.6,240.5,738.4z"/>
			<g>
				<path class="st1" d="M241.1,738.6c0.7-4.7,2.5-9.1,5-13.1c1.9-3,4.4-6.5,7.7-8.3c0.6-0.3,1.5-0.8,1.8,0c0.2,0.4,0.1,1,0.1,1.4
					c0,0.9,0,1.9,0.1,2.8c0.2,3.7,0.9,7.4,2,10.9c1.4,4.8,3.8,9.1,6.9,13c0.2-0.3,0.4-0.7,0.6-1c-8.4-1.3-16.6-3.5-24.5-6.5
					c-0.8-0.3-1.1,0.9-0.3,1.2c7.9,3,16.1,5.2,24.5,6.5c0.6,0.1,1-0.5,0.6-1c-5.8-7.3-8.5-16.4-8.6-25.7c0-0.9,0.1-2.2-0.5-2.9
					c-0.6-0.6-1.6-0.5-2.3-0.3c-3.3,1.1-5.9,4.7-7.8,7.3c-3.2,4.5-5.5,9.7-6.3,15.2C239.8,739,241,739.3,241.1,738.6z"/>
			</g>
		</g>
		<g>
			<path class="st3" d="M286.1,747.5c-1.8-2.4-3.1-4.6-4-6.2c-1.7-3.2-4-7.6-4.5-13.3c-0.3-3.8,0.4-5.7-0.5-6.1
				c-1.4-0.6-4.8,4.2-6.6,7.1c-2,3.4-4.5,8.6-5.5,16C272,745.8,279,746.6,286.1,747.5z"/>
			<g>
				<path class="st1" d="M286.6,747.2c-2.5-3.3-4.5-6.8-6.2-10.6c-0.9-2.1-1.6-4.2-2-6.4c-0.4-2.2-0.4-4.4-0.3-6.7
					c0-0.8,0-1.9-0.9-2.3c-1-0.4-2.1,0.6-2.8,1.3c-2.4,2.4-4.3,5.5-5.8,8.5c-2.2,4.3-3.5,9-4.2,13.7c-0.1,0.4,0.2,0.7,0.6,0.8
					c7,0.9,14,1.7,21,2.6c0.8,0.1,0.8-1.2,0-1.2c-7-0.9-14-1.7-21-2.6c0.2,0.3,0.4,0.5,0.6,0.8c1-7.2,3.7-14.1,8.1-19.8
					c0.4-0.5,2.2-3.1,3-2.8c0.4,0.1,0.1,2.8,0.1,3.2c0,4,0.9,7.9,2.5,11.6c1.6,3.8,3.7,7.3,6.2,10.6
					C286,748.5,287.1,747.8,286.6,747.2z"/>
			</g>
		</g>
		<g>
			<path class="st3" d="M287.6,747.7c-0.2-1.8-0.2-4.5,0.4-7.6c1.5-7.5,6.4-14.1,8.4-13.5c0.8,0.3,0.5,1.7,1.6,5.4
				c0.8,2.7,1.8,4.5,3.2,7.2c1.4,2.7,3.6,6.3,6.8,10.1C301.2,748.8,294.4,748.2,287.6,747.7z"/>
			<g>
				<path class="st1" d="M288.3,747.7c-0.3-3.7,0.1-7.4,1.3-10.9c1-3,2.6-6.2,4.8-8.4c0.3-0.3,1.4-1.4,1.8-1.1
					c0.5,0.3,0.6,2.3,0.7,2.8c0.8,3.5,2.3,6.7,4,9.9c1.9,3.5,4.2,6.8,6.7,9.9c0.1-0.4,0.3-0.7,0.4-1.1c-6.8-0.5-13.6-1.1-20.4-1.6
					c-0.8-0.1-0.8,1.2,0,1.2c6.8,0.5,13.6,1.1,20.4,1.6c0.6,0,0.8-0.7,0.4-1.1c-2.6-3.1-4.8-6.5-6.7-10c-1-1.9-2-3.9-2.8-5.9
					c-0.6-1.7-0.9-3.4-1.3-5.1c-0.2-0.7-0.3-1.6-1.2-1.9c-0.8-0.2-1.6,0.2-2.2,0.7c-2.4,1.9-4,5-5.2,7.8c-1.8,4.2-2.6,8.7-2.2,13.2
					C287.1,748.5,288.3,748.5,288.3,747.7z"/>
			</g>
		</g>
		<g>
			<path class="st3" d="M309.8,748.8c7.9-10.7,9.9-16.1,10.2-19.1c0.1-0.6,0.2-2.9,1.3-3.2c1.1-0.3,2.5,1.7,3.4,2.9
				c2.5,3.6,3.6,7.1,3.9,8.4c0.7,2.6,1.4,6.4,1.3,11.1C323.2,748.9,316.5,748.8,309.8,748.8z"/>
			<g>
				<path class="st1" d="M310.4,749.1c3.7-5.1,7.7-10.5,9.7-16.5c0.2-0.7,0.4-1.4,0.5-2.2c0.1-0.9,0-2.5,0.7-3.1
					c1-0.9,3.5,3.4,3.9,4c1,1.7,1.8,3.4,2.4,5.3c1.3,4,1.7,8.2,1.7,12.3c0.2-0.2,0.4-0.4,0.6-0.6c-6.7-0.1-13.4-0.1-20.1-0.2
					c-0.8,0-0.8,1.2,0,1.2c6.7,0.1,13.4,0.1,20.1,0.2c0.3,0,0.6-0.3,0.6-0.6c0-4.1-0.4-8.2-1.6-12.1c-0.5-1.8-1.3-3.6-2.2-5.3
					c-1-1.8-2.2-3.9-3.8-5.1c-1.1-0.9-2.4-0.8-3,0.6c-0.5,1-0.4,2.1-0.6,3.2c-0.4,2.1-1.3,4.2-2.3,6.1c-2.2,4.3-4.9,8.3-7.8,12.1
					C308.8,749.1,309.9,749.7,310.4,749.1z"/>
			</g>
		</g>
		<g>
			<path class="st3" d="M351.1,745.8c0.3-1.3,0.5-3.4,0.3-5.8c-0.6-6.1-3.8-10.2-5.7-12.5c-0.8-1-4.2-5.1-5.5-4.4
				c-0.9,0.5-0.1,2.6-0.2,5.9c-0.1,5.6-2.4,9.8-3.1,11.1c-2.5,4.7-6.2,7.4-8.7,8.9C335.9,747.9,343.5,746.8,351.1,745.8z"/>
			<g>
				<path class="st1" d="M351.7,745.9c0.9-4.6,0.3-9.4-1.9-13.6c-1.5-2.9-3.6-5.5-5.8-7.8c-0.8-0.9-2.2-2.3-3.5-2.2
					c-1.3,0.1-1.4,1.4-1.3,2.4c0.1,2.6,0.4,5.2-0.1,7.8c-0.4,2-1.1,4-2,5.9c-2,4.1-5.2,7.5-9.1,9.9c-0.6,0.4-0.2,1.2,0.5,1.1
					c7.6-1.1,15.2-2.1,22.8-3.2c0.8-0.1,0.5-1.3-0.3-1.2c-7.6,1.1-15.2,2.1-22.8,3.2c0.2,0.4,0.3,0.8,0.5,1.1
					c6.1-3.7,10.5-9.9,11.7-17c0.4-2.3,0.4-4.5,0.2-6.8c0-0.3-0.3-1.8,0-2c0.4-0.3,1.4,0.6,1.6,0.8c2.1,1.8,4,4.2,5.5,6.5
					c2.8,4.3,3.9,9.5,2.9,14.6C350.4,746.4,351.6,746.7,351.7,745.9z"/>
			</g>
		</g>
		<g>
			<path class="st3" d="M353.6,745.2c1.1-1.4,2.5-3.5,3.8-6.2c2.7-5.6,3.2-10.5,3.4-11.8c0.6-6.3-0.9-10,0.5-10.6
				c1-0.4,2.6,1.1,4.6,3.1c3.1,3.1,5.1,6.2,6.3,8.3c1.4,2.4,3.1,5.9,4.6,10.2C369,740.6,361.3,742.9,353.6,745.2z"/>
			<g>
				<path class="st1" d="M354.1,745.5c4.4-5.7,7.1-12.9,7.4-20.1c0.1-1.9,0-3.7-0.2-5.6c0-0.5-0.4-2.4,0.3-2.6
					c0.6-0.2,1.7,1,2.1,1.4c0.9,0.9,1.9,1.8,2.7,2.7c1.5,1.6,2.8,3.3,4,5.2c2.4,3.7,4.3,7.8,5.7,12c0.1-0.3,0.3-0.5,0.4-0.8
					c-7.7,2.3-15.5,4.6-23.2,6.8c-0.8,0.2-0.4,1.4,0.3,1.2c7.7-2.3,15.5-4.6,23.2-6.8c0.3-0.1,0.5-0.4,0.4-0.8
					c-1.4-4.1-3.2-8-5.4-11.6c-1.1-1.9-2.4-3.6-3.9-5.3c-1.5-1.7-3.1-3.7-5.1-4.8c-0.8-0.5-2-0.7-2.6,0.2c-0.6,0.9-0.3,2.3-0.3,3.3
					c0.2,3.6,0.2,7.1-0.5,10.6c-1.1,5.2-3.3,10.1-6.5,14.3C352.5,745.5,353.6,746.2,354.1,745.5z"/>
			</g>
		</g>
		<g>
			<path class="st3" d="M378.3,737.2c1-2.4,2.4-5.9,4-10.2c6.1-16.5,12.3-33.2,14.1-53c1.5-16.1-0.7-26.6,1.6-27
				c2.3-0.4,6.1,10.1,7.8,14.7c3.9,10.8,5.2,19.6,5.6,22.5c1.1,8.1,1.9,20.4-0.5,35.4C399.9,725.5,389.1,731.4,378.3,737.2z"/>
			<g>
				<path class="st1" d="M378.9,737.4c2.7-6.7,5.2-13.4,7.6-20.2c2.6-7.2,4.9-14.5,6.8-21.9c1.9-7.7,3.3-15.6,3.8-23.5
					c0.5-6.5,0.3-12.9,0.3-19.4c0-1.3-0.2-3.2,0.4-4.4c0.2-0.3,0.2-0.4,0.5-0.2c0.7,0.4,1.3,1.5,1.7,2.1c2.8,4.8,4.7,10.5,6.4,15.8
					c3.5,10.9,5.2,22.1,5.3,33.5c0,3.7-0.1,7.4-0.4,11.1c-0.2,2.1-0.4,4.1-0.7,6.2c-0.1,1.1,0,2.3-1,2.9c-1,0.6-2,1.1-3,1.6
					c-7.7,4.2-15.3,8.3-23,12.5c-1.9,1-3.8,2-5.6,3.1c-0.7,0.4-0.1,1.5,0.6,1.1c8-4.4,16.1-8.7,24.1-13.1c2-1.1,4-2.2,6.1-3.3
					c0.7-0.4,2-0.8,2.5-1.4c0.5-0.6,0.4-2.2,0.5-2.9c0.5-4,0.9-8.1,1.1-12.1c0.5-11.9-0.7-23.8-4-35.3c-1.7-6.1-3.9-12.3-6.6-18
					c-0.8-1.6-1.8-4.1-3.5-5c-1-0.6-1.9,0.1-2.3,1.1c-0.5,1.5-0.4,3.4-0.4,4.9c0,3,0.1,5.9,0.1,8.9c0,8.5-0.8,16.9-2.3,25.2
					c-3,15.8-8.6,31-14.5,45.9c-0.6,1.5-1.2,2.9-1.8,4.4C377.3,737.8,378.6,738.1,378.9,737.4z"/>
			</g>
		</g>
	</g>
	<g>
		<g>
			<path class="st3" d="M241.8,676.3c-7.9,20.5-17.9,33.7-24.5,41.1c-7.1,8-14.4,16.3-26.4,24.1c-4.8,3.2-10.5,6.3-10,7.5
				c0.6,1.4,9.4-0.9,14.8-2.7c6.8-2.3,18.9-7.3,33.9-21.4c8.3-7.8,20.6-21.1,30.9-41.4C254.3,681.1,248.1,678.7,241.8,676.3z"/>
			<g>
				<path class="st1" d="M241.2,676.1c-5.2,13.5-12.3,26.3-21.5,37.5c-4.1,5-8.5,9.8-13.1,14.3c-6.1,6-12.9,11.1-20.2,15.7
					c-1.5,0.9-3,1.9-4.4,3c-0.6,0.5-1.6,1.2-1.8,2.1c-0.3,1.9,3,1.4,4,1.2c5.4-0.8,10.8-2.5,15.8-4.5c12.2-4.9,23-13.1,32.4-22.2
					c10-9.8,18.6-21.1,25.5-33.3c1.1-2,2.2-3.9,3.2-5.9c0.2-0.4,0-0.8-0.4-0.9c-6.3-2.4-12.5-4.9-18.8-7.3c-0.8-0.3-1.1,0.9-0.3,1.2
					c6.3,2.4,12.5,4.9,18.8,7.3c-0.1-0.3-0.2-0.6-0.4-0.9c-6.6,13-15,25.1-25.1,35.6c-9,9.4-19.4,17.9-31.2,23.6
					c-4.4,2.1-8.9,3.7-13.6,4.9c-2.7,0.7-5.4,1.4-8.2,1.4c-0.1,0-0.3,0-0.4-0.1c0.1,0-0.1,0.2,0.1,0c0.4-0.4,0.8-0.8,1.2-1.1
					c1.4-1.1,3-2,4.5-3c6.9-4.4,13.5-9.2,19.4-14.9c4.6-4.4,8.9-9.2,13-14.1c8.4-10,15.2-21.3,20.3-33.3c0.8-1.9,1.6-3.8,2.4-5.8
					C242.7,675.7,241.5,675.4,241.2,676.1z"/>
			</g>
		</g>
		<g>
			<path class="st3" d="M284.3,689.5c-0.5,2.4-1.5,5.8-3.5,9.4c-6,11-17.7,18.4-20.1,16.4c-0.9-0.8,0.5-2.2,1-7.8
				c0.6-5.7-0.5-7.7-1-18c-0.1-2.6-0.2-4.7-0.2-5.9C268.5,685.5,276.4,687.5,284.3,689.5z"/>
			<g>
				<path class="st1" d="M283.7,689.3c-1.3,5.8-4,11.2-7.9,15.7c-3,3.5-6.5,6.8-10.6,8.9c-1,0.5-2.5,1.3-3.6,1.1
					c-1-0.2-0.3-1.7-0.1-2.4c1-3.9,1.2-7.9,0.8-11.9c-0.6-5.7-1.1-11.3-1.1-17.1c-0.3,0.2-0.5,0.4-0.8,0.6c7.9,2,15.8,3.9,23.7,5.9
					c0.8,0.2,1.1-1,0.3-1.2c-7.9-2-15.8-3.9-23.7-5.9c-0.4-0.1-0.8,0.2-0.8,0.6c0.1,5.6,0.5,11.2,1.1,16.8c0.4,4.4,0,8.5-1,12.8
					c-0.2,1-0.4,2.1,0.7,2.7c1.1,0.6,2.5,0.1,3.5-0.3c4.3-1.6,8-4.9,11.1-8.2c4.7-5,8.2-11.1,9.7-17.9
					C285.1,688.8,283.9,688.5,283.7,689.3z"/>
			</g>
		</g>
		<g>
			<path class="st3" d="M285.3,689.6c0.7,1.4,1.7,3.7,2.4,6.7c2.8,11.8-2.5,20.8,0,22.2c1.7,0.9,5.2-2.4,8.6-5.5
				c4.5-4.1,6.8-8.2,7.4-9.4c2.8-5,3.8-9.7,4.2-12.9c-2.8,0.2-5.8,0.2-9.1,0.1C293.9,690.8,289.3,690.3,285.3,689.6z"/>
			<g>
				<path class="st1" d="M284.8,689.9c2.5,5.1,3.5,10.7,3.1,16.3c-0.2,2.2-0.5,4.4-0.9,6.6c-0.3,1.4-0.6,2.9-0.5,4.4
					c0.1,0.9,0.5,1.8,1.5,2.1c1.7,0.4,3.6-1.2,4.8-2.2c4.1-3.3,7.9-7.2,10.7-11.7c2.7-4.4,4.3-9.4,5-14.5c0-0.3-0.3-0.6-0.6-0.6
					c-7.5,0.4-15,0-22.4-1.2c-0.8-0.1-1.1,1.1-0.3,1.2c7.5,1.2,15.1,1.6,22.7,1.2c-0.2-0.2-0.4-0.4-0.6-0.6c-0.6,4.6-2,9-4.3,13
					c-2.3,4-5.3,7.2-8.7,10.3c-1,0.9-1.9,1.7-3,2.5c-0.7,0.5-1.8,1.4-2.7,1.4c-1.1,0-0.8-1.4-0.8-2.1c0.4-3.6,1.3-7.1,1.5-10.8
					c0.2-5.5-0.9-10.9-3.4-15.8C285.5,688.6,284.4,689.2,284.8,689.9z"/>
			</g>
		</g>
		<g>
			<path class="st3" d="M309.6,690.7c0,2.6,0.3,6.3,1.9,10.4c4.4,11.6,16,18.8,18,17.2c0.8-0.6-0.5-2.1-1.3-7.6
				c-0.4-2.8-1-7.6,0.3-12.9c0.6-2.2,1.8-5.6,4.6-9.4c-4.1,0.7-8.6,1.3-13.3,1.7C316.3,690.4,312.9,690.6,309.6,690.7z"/>
			<g>
				<path class="st1" d="M309,690.7c0,10.5,5.7,20.3,14.4,26.1c1.3,0.9,5,3.4,6.6,1.8c0.8-0.8,0.1-2.3-0.1-3.2
					c-0.7-2.5-1.1-5-1.3-7.5c-0.6-7,1-13.6,5.2-19.3c0.4-0.5-0.2-1-0.7-0.9c-7.7,1.3-15.5,2.1-23.4,2.4c-0.8,0-0.8,1.3,0,1.2
					c7.9-0.3,15.8-1.1,23.7-2.4c-0.2-0.3-0.5-0.6-0.7-0.9c-3.1,4.2-5,9.1-5.4,14.4c-0.4,4.8,0.4,9.6,1.7,14.2
					c0.2,0.7,0.6,1.4-0.4,1.3c-1.2-0.1-2.4-0.8-3.4-1.4c-3.6-2.1-6.7-5.2-9.2-8.6c-3.7-5-5.7-11-5.7-17.2
					C310.2,689.9,309,689.9,309,690.7z"/>
			</g>
		</g>
		<g>
			<path class="st3" d="M334.4,688.1c-0.2,1.3-0.5,3.2-0.2,5.5c1,7.8,7.1,12.6,11.6,16.2c3.1,2.4,9.2,6.6,10.5,5.3
				c0.8-0.8-0.9-2.7-1.8-6.8c-1.2-4.9-0.4-9,0.6-14c0.6-2.9,1.6-6.9,3.7-11.5C350.6,684.6,342.5,686.4,334.4,688.1z"/>
			<g>
				<path class="st1" d="M333.8,688c-1,5.2,0.3,10.3,3.5,14.6c2.6,3.5,6.2,6.3,9.7,8.9c1.9,1.4,3.8,2.7,5.9,3.7
					c1,0.5,2.8,1.3,3.8,0.5c1.1-0.9,0.1-2.6-0.3-3.6c-1.2-2.9-1.9-6-1.8-9.1c0.1-3.4,0.8-6.9,1.5-10.2c0.8-3.3,1.9-6.5,3.2-9.6
					c0.2-0.5-0.1-1-0.7-0.9c-8.1,1.8-16.2,3.6-24.4,5.3c-0.8,0.2-0.5,1.4,0.3,1.2c8.1-1.8,16.2-3.6,24.4-5.3
					c-0.2-0.3-0.5-0.6-0.7-0.9c-2.1,4.7-3.4,9.6-4.3,14.7c-0.5,2.8-0.8,5.6-0.5,8.4c0.3,2.5,1,4.9,1.9,7.2c0.1,0.3,0.8,1.5,0.6,1.8
					c-0.2,0.4-1,0.1-1.4,0c-1.9-0.6-3.6-1.8-5.2-2.9c-3.4-2.3-6.7-4.9-9.5-7.9c-3.9-4.3-6-9.7-4.9-15.5
					C335.1,687.5,333.9,687.2,333.8,688z"/>
			</g>
		</g>
		<g>
			<path class="st3" d="M376.3,677.7c-6.4,2-12.8,3.9-19.2,5.9c1.1,2.8,2.8,6.6,5.1,10.8c1.7,3,5.8,10.3,13.2,18.9
				c3.1,3.6,21.4,24.2,49.3,34.5c1.3,0.5,11,4,11.5,2.9c0.4-0.9-5.7-4.5-9-6.6c-15.2-9.5-24.5-21.1-30-28
				C391,708.6,382.5,696,376.3,677.7z"/>
			<g>
				<path class="st1" d="M376.1,677.1c-6.4,2-12.8,3.9-19.2,5.9c-0.3,0.1-0.6,0.4-0.4,0.8c4.8,12,11.9,23,20.7,32.5
					c8.3,8.9,18,16.8,28.4,23c6.5,3.9,13.4,7.1,20.5,9.7c2.5,0.9,5.1,1.8,7.7,2.3c1,0.2,3.9,0.5,2.6-1.4c-0.6-0.9-1.8-1.6-2.8-2.3
					c-1.5-1-3-1.9-4.5-2.9c-3.8-2.4-7.6-4.9-11.1-7.7c-6.1-4.9-11.5-10.4-16.6-16.3c-9.2-10.9-16.9-22.9-22.2-36.2
					c-0.9-2.3-1.8-4.6-2.5-6.9c-0.3-0.8-1.5-0.4-1.2,0.3c4.7,14,11.7,27.1,21,38.7c4,4.9,8.1,9.8,12.6,14.2
					c6,5.8,12.6,10.8,19.7,15.2c1.5,0.9,2.9,1.8,4.3,2.8c0.6,0.4,1.1,0.8,1.7,1.2c0.2,0.1,0.3,0.3,0.5,0.5c0,0,0.1,0.2,0.2,0.2
					c0.1,0,0.2-0.3,0.2-0.4c-0.1-0.1-0.9-0.1-1-0.1c-0.6-0.1-1.1-0.2-1.7-0.4c-1.3-0.3-2.6-0.7-3.9-1.2c-6.5-2.1-12.8-4.8-18.8-8.1
					c-11.3-6.2-21.6-14.2-30.5-23.4c-8-8.3-14.8-17.8-19.7-28.2c-0.8-1.8-1.6-3.6-2.4-5.5c-0.1,0.3-0.3,0.5-0.4,0.8
					c6.4-2,12.8-3.9,19.2-5.9C377.2,678.1,376.9,676.9,376.1,677.1z"/>
			</g>
		</g>
	</g>
</g>
</svg>
