<svg id="Capa_1" data-name="Capa 1" xmlns="http://www.w3.org/2000/svg" viewBox="0 0 1916.75 1401.49"><defs><style>.cls-1{fill:#f3ca4b;}.cls-2{fill:#f4a646;}.cls-3{fill:#c9badc;}.cls-4{fill:#ededec;}.cls-5{fill:#387299;}.cls-6{fill:#5b3d1d;}.cls-7{fill:#58b9e6;}</style></defs><polyline class="cls-1" points="206.5 545.39 360.44 152.52 500.82 545.39"/><polyline class="cls-1" points="1414.83 545.39 1568.77 152.52 1709.15 545.39"/><rect class="cls-2" x="194.79" y="499.12" width="64.58" height="46.39"/><polyline class="cls-2" points="194.79 499.12 228.57 386.87 259.37 499.12"/><rect class="cls-2" x="445.09" y="498.99" width="64.58" height="46.39"/><polyline class="cls-2" points="445.09 498.99 478.87 386.74 509.67 498.99"/><rect class="cls-2" x="1404.95" y="498.99" width="64.58" height="46.39"/><polyline class="cls-2" points="1404.95 498.99 1438.73 386.74 1469.53 498.99"/><rect class="cls-2" x="1654.11" y="498.99" width="64.58" height="46.39"/><polyline class="cls-2" points="1654.11 498.99 1687.88 386.74 1718.68 498.99"/><path class="cls-3" d="M971.68,513.39V341c0-4.91-7.64-4.92-7.64,0V513.39c0,4.92,7.64,4.93,7.64,0Z" transform="translate(-191.77 -60.54)"/><path class="cls-3" d="M911.7,395.32h108.35c4.92,0,4.92-7.64,0-7.64H911.7c-4.92,0-4.92,7.64,0,7.64Z" transform="translate(-191.77 -60.54)"/><path class="cls-3" d="M988.94,379.75c0,.33,0,.65,0,1,0,.73,0,.09,0-.06-.1.52-.21,1-.36,1.54-.09.3-.2.59-.31.88,0-.14.33-.67,0-.06s-.6,1.06-.94,1.58c-.5.76.36-.24-.07.07a4.61,4.61,0,0,0-.51.57c-.18.18-1.33,1.15-.61.61a11.74,11.74,0,0,1-1.28.84l-.55.29c-.62.36.54-.13-.37.16-.51.15-1,.31-1.52.42-.22.05-.93.12-.09,0l-.81.06c-.55,0-1.08,0-1.63,0s.88.2-.09,0c-.31-.07-.62-.13-.93-.22s-.59-.19-.89-.29-.59-.32,0,0c-.45-.24-.92-.46-1.35-.74-.22-.13-.42-.3-.64-.43-.48-.29.61.6-.06-.07-.43-.43-.85-.87-1.28-1.31.5.51.15.22,0,0s-.35-.5-.51-.77-.77-1.59-.43-.75a10.79,10.79,0,0,1-.48-1.49c-.06-.2-.09-.41-.14-.62-.17-.74,0,.6,0-.41a10.44,10.44,0,0,1,0-1.48c0-.17.19-1.19,0-.26l.12-.63c.12-.51.28-1,.45-1.5.3-.95-.39.62.1-.23.15-.27.29-.55.44-.81l.42-.65c.12-.19.58-.68,0-.08.34-.38.68-.76,1.05-1.11l.32-.29c-.44.37.33-.24.35-.25a14.16,14.16,0,0,1,1.61-.91c-.13.07-.73.26,0,0l.89-.29.61-.15s1-.19.44-.1.44,0,.46,0c.27,0,.54,0,.82,0s.54,0,.81,0c.9,0-.53-.16.26,0,.61.16,1.21.32,1.81.51.88.29-.33-.28.09,0s.66.33,1,.51l.52.33.5.35c-.37-.28-.39-.29-.06,0l1.08,1.08c.69.69-.37-.63.17.18.17.26.34.51.5.78s.29.54.44.81c.39.68-.16-.6.11.23.19.6.35,1.2.51,1.81,0,.18.07.73,0-.06,0,.43.07.86.07,1.3a3.83,3.83,0,0,0,7.65,0,15.81,15.81,0,0,0-10.35-14.66,15.55,15.55,0,0,0-17.06,4.55A15.55,15.55,0,0,0,984.12,395c7.24-1.3,12.37-8.06,12.47-15.25a3.83,3.83,0,0,0-7.65,0Z" transform="translate(-191.77 -60.54)"/><path class="cls-3" d="M964,379.75c0,.33,0,.65,0,1,0,.73,0,.09,0-.06a11.85,11.85,0,0,1-.36,1.54c-.09.3-.2.59-.31.88,0-.14.34-.67,0-.06s-.6,1.06-.94,1.58c-.5.76.36-.24-.06.07a5.68,5.68,0,0,0-.52.57c-.18.18-1.32,1.15-.6.61a11,11,0,0,1-1.29.84l-.55.29c-.62.36.54-.13-.37.16-.5.15-1,.31-1.51.42-.22.05-.94.12-.09,0l-.81.06c-.55,0-1.09,0-1.64,0s.89.2-.09,0c-.31-.07-.62-.13-.93-.22s-.59-.19-.89-.29-.59-.32.05,0c-.45-.24-.91-.46-1.35-.74-.22-.13-.42-.3-.63-.43-.49-.29.6.6-.07-.07-.43-.43-.85-.87-1.28-1.31.5.51.16.22,0,0s-.35-.5-.5-.77-.78-1.59-.44-.75a10.79,10.79,0,0,1-.48-1.49c0-.2-.09-.41-.14-.62-.17-.74,0,.6,0-.41a12.18,12.18,0,0,1,0-1.48c0-.17.19-1.19,0-.26l.12-.63c.12-.51.29-1,.45-1.5.3-.95-.39.62.1-.23.16-.27.29-.55.45-.81s.27-.43.41-.65.58-.68,0-.08c.34-.38.68-.76,1.06-1.11,0,0,.75-.68.31-.29s.33-.24.35-.25a15.07,15.07,0,0,1,1.61-.91c-.13.07-.72.26-.05,0l.89-.29.62-.15s1-.19.43-.1.44,0,.46,0c.27,0,.54,0,.82,0s.54,0,.81,0c.9,0-.53-.16.26,0,.61.16,1.21.32,1.82.51.88.29-.34-.28.08,0s.66.33,1,.51l.51.33.51.35c-.37-.28-.39-.29-.07,0l1.09,1.08c.69.69-.38-.63.16.18.17.26.34.51.5.78s.29.54.44.81c.4.68-.16-.6.11.23.2.6.35,1.2.51,1.81,0,.18.07.73,0-.06,0,.43.06.86.07,1.3a3.82,3.82,0,1,0,7.64,0,15.81,15.81,0,0,0-10.35-14.66,15.55,15.55,0,0,0-17.06,4.55A15.56,15.56,0,0,0,959.21,395c7.24-1.3,12.37-8.06,12.47-15.25a3.82,3.82,0,1,0-7.64,0Z" transform="translate(-191.77 -60.54)"/><path class="cls-3" d="M963,403.26c0,.33,0,.65,0,1,0,.73,0,.09,0-.06a13.79,13.79,0,0,1-.37,1.54,9.18,9.18,0,0,1-.31.88c.06-.14.34-.67,0-.06s-.61,1.06-1,1.58c-.5.76.36-.24-.06.07a5.68,5.68,0,0,0-.52.57c-.17.18-1.32,1.15-.6.61a11,11,0,0,1-1.29.84l-.54.29c-.63.36.54-.13-.38.16-.5.15-1,.31-1.51.42-.22,0-.93.12-.09,0l-.81.06c-.55,0-1.09,0-1.63-.05s.88.21-.1,0c-.31-.07-.62-.13-.92-.22s-.6-.19-.9-.29-.59-.32.06,0c-.46-.25-.92-.46-1.36-.74-.21-.13-.41-.3-.63-.43-.48-.29.6.59-.06-.07-.44-.43-.86-.88-1.28-1.31.49.5.15.22,0,0s-.34-.51-.5-.77-.77-1.59-.44-.75a12.33,12.33,0,0,1-.48-1.49c-.05-.2-.09-.41-.14-.62-.17-.74,0,.6-.05-.41a14.63,14.63,0,0,1,0-1.48c0-.17.19-1.19,0-.27,0-.2.07-.41.12-.62.11-.51.28-1,.44-1.51.31-.94-.38.63.11-.22.15-.27.28-.55.44-.81s.28-.43.42-.65.58-.68,0-.08c.34-.38.67-.76,1-1.11,0,0,.75-.68.31-.3s.34-.23.36-.24a13.34,13.34,0,0,1,1.61-.91c-.13.07-.73.26-.06,0l.9-.29c.2-.05.4-.11.61-.15,0,0,1-.19.43-.1s.45,0,.46,0c.27,0,.55,0,.82,0s.54,0,.82,0c.89,0-.54-.16.25,0,.62.16,1.22.32,1.82.51.88.29-.34-.28.09,0a9.55,9.55,0,0,0,.95.51c.17.1.35.21.52.33l.5.35c-.37-.28-.39-.29-.06,0l1.08,1.09c.69.69-.38-.63.16.18.17.26.35.51.5.78s.29.54.45.81c.39.68-.16-.6.1.22.2.61.36,1.2.51,1.82.05.18.07.73,0-.06,0,.43.06.86.07,1.3a3.82,3.82,0,1,0,7.64,0,15.82,15.82,0,0,0-10.34-14.66,15.57,15.57,0,0,0-17.07,4.55,15.56,15.56,0,0,0,15,25.36c7.24-1.3,12.36-8.06,12.46-15.25a3.85,3.85,0,0,0-3.82-3.82A3.89,3.89,0,0,0,963,403.26Z" transform="translate(-191.77 -60.54)"/><path class="cls-3" d="M988.94,403.83c0,.33,0,.66,0,1,0,.74,0,.1,0-.05-.1.52-.21,1-.36,1.54-.09.29-.2.59-.31.88,0-.14.33-.68,0-.07s-.6,1.07-.94,1.59c-.5.76.36-.25-.07.07a4,4,0,0,0-.51.57c-.18.18-1.33,1.15-.61.61a11.74,11.74,0,0,1-1.28.84l-.55.28c-.62.36.54-.12-.37.16-.51.16-1,.32-1.52.43-.22,0-.93.12-.09,0l-.81.06c-.55,0-1.08,0-1.63-.05s.88.2-.09,0c-.31-.07-.62-.13-.93-.22s-.59-.19-.89-.29-.59-.32,0,0c-.45-.25-.92-.46-1.35-.74-.22-.14-.42-.3-.64-.43-.48-.29.61.59-.06-.07l-1.28-1.32c.5.51.15.22,0,.05s-.35-.51-.51-.77-.77-1.6-.43-.75a11.24,11.24,0,0,1-.48-1.49c-.06-.21-.09-.41-.14-.62-.17-.74,0,.59,0-.42a10.3,10.3,0,0,1,0-1.47c0-.17.19-1.19,0-.27l.12-.62a15.44,15.44,0,0,1,.45-1.51c.3-.94-.39.63.1-.23.15-.26.29-.54.44-.81l.42-.64c.12-.19.58-.68,0-.08.34-.39.68-.76,1.05-1.11,0,0,.76-.68.32-.3s.33-.23.35-.24a14.16,14.16,0,0,1,1.61-.91c-.13.06-.73.26,0,0,.3-.1.59-.21.89-.29s.41-.11.61-.15c0,0,1-.19.44-.1s.44,0,.46,0c.27,0,.54,0,.82,0l.81,0c.9,0-.53-.16.26,0,.61.16,1.21.31,1.81.51.88.28-.33-.29.09,0s.66.33,1,.51a5.69,5.69,0,0,1,.52.33l.5.35c-.37-.28-.39-.29-.06,0l1.08,1.08c.69.69-.37-.63.17.19.17.26.34.51.5.77s.29.55.44.81c.39.69-.16-.59.11.23.19.61.35,1.2.51,1.82,0,.18.07.73,0-.07,0,.44.07.87.07,1.3a3.83,3.83,0,1,0,7.65,0,15.83,15.83,0,0,0-10.35-14.66,15.58,15.58,0,0,0-17.06,4.56,15.56,15.56,0,0,0,14.94,25.36c7.24-1.31,12.37-8.06,12.47-15.26a3.83,3.83,0,0,0-7.65,0Z" transform="translate(-191.77 -60.54)"/><rect class="cls-2" x="49.66" y="943.63" width="1815.88" height="454.94"/><path class="cls-2" d="M1610,714.71H1449.24l0-1q-8-40.83-16.06-81.67l-35.38-76.71q-31.18-33.35-62.38-66.7l-70-44.11L1156.53,421l-100.71,19-73.75,42L922.4,542.27,879.45,622.2Q871.62,668,863.8,713.72h-173V884.87H919.11l474.14,1H1610Z" transform="translate(-191.77 -60.54)"/><rect class="cls-1" x="206.51" y="545.39" width="294.31" height="277.16"/><rect class="cls-4" x="191.5" y="545.39" width="320.66" height="33.16"/><rect class="cls-1" x="1414.83" y="545.39" width="294.31" height="277.16"/><rect class="cls-4" x="1401.66" y="545.39" width="320.66" height="33.16"/><rect class="cls-1" x="31.7" y="911.09" width="86.73" height="490.4"/><rect class="cls-1" x="337.82" y="911.09" width="86.73" height="490.4"/><rect class="cls-1" x="1791.76" y="911.09" width="86.73" height="490.4"/><rect class="cls-1" x="1479.58" y="911.09" width="86.73" height="490.4"/><rect class="cls-1" x="1167.39" y="911.09" width="86.73" height="490.4"/><rect class="cls-1" x="664.09" y="911.09" width="86.73" height="490.4"/><path class="cls-5" d="M1080,878.65a544.35,544.35,0,0,1,1.68-106.14c6.5-56.6,10.71-89,36.15-104.85,18.81-11.7,46.28-12.48,65.08-.6,9.77,6.18,23,19.43,31.33,86.17a613,613,0,0,1,2.61,125.55Z" transform="translate(-191.77 -60.54)"/><path class="cls-6" d="M1212.65,1035.23" transform="translate(-191.77 -60.54)"/><path class="cls-6" d="M1212.65,1040.33c6.55,0,6.56-10.19,0-10.19s-6.57,10.19,0,10.19Z" transform="translate(-191.77 -60.54)"/><path class="cls-7" d="M485.94,879.71a590.41,590.41,0,0,1,1.31-97.87c5.07-52.19,8.36-82.09,28.24-96.68,14.69-10.78,36.15-11.51,50.83-.55,7.64,5.7,17.94,17.91,24.48,79.45a665.21,665.21,0,0,1,2,115.76Z" transform="translate(-191.77 -60.54)"/><path class="cls-7" d="M491,879.71c-2.43-36-1.31-71.74,2.26-107.57C494.9,756,496.41,739.8,500,724c.7-3.13,1.5-6.24,2.44-9.3.43-1.38.88-2.76,1.37-4.12.23-.65.48-1.31.73-2,.1-.26.82-2,.55-1.38a57.62,57.62,0,0,1,3.63-7.08c.6-1,1.23-1.95,1.89-2.89.13-.18,1.19-1.58.55-.77.46-.59.94-1.16,1.43-1.72a41.52,41.52,0,0,1,5.11-4.9c.76-.62.19-.15,0,0l1-.72q1.26-.89,2.58-1.68a37.36,37.36,0,0,1,5.32-2.69,39.92,39.92,0,0,1,23.56-2,35.58,35.58,0,0,1,11.07,4.53c.87.54,1.7,1.15,2.54,1.74.52.36.45.71-.4-.32a7.69,7.69,0,0,0,1,.84,29,29,0,0,1,2.26,2.17c.35.38.69.78,1,1.17.19.22.36.47.55.68-.3-.34-.61-.86,0,0a53.17,53.17,0,0,1,4.68,8.29c.14.31.71,1.66.19.42.2.47.39.93.57,1.4.43,1.07.83,2.15,1.21,3.23.85,2.43,1.61,4.88,2.3,7.36,4.24,15.11,6.44,30.8,8.19,46.36a661.62,661.62,0,0,1,3.31,103.33q-.36,8-.9,15.89l5.1-5.09-106.9-.12c-6.56,0-6.57,10.19,0,10.2l106.9.11a5.2,5.2,0,0,0,5.09-5.1,671.07,671.07,0,0,0-1.55-111.08c-1.71-17.23-3.83-34.58-7.91-51.43-2.2-9.11-5-18.56-9.93-26.6-13.53-21.9-46.19-24.5-66-9.68-9.45,7.07-15.28,17.05-19,28.08-4.91,14.39-6.73,29.8-8.47,44.83-4.2,36.26-6.61,72.54-5.11,109.06q.33,8.36.91,16.71a5.22,5.22,0,0,0,5.1,5.1C488.55,884.81,491.22,882.47,491,879.71Z" transform="translate(-191.77 -60.54)"/><path class="cls-7" d="M1704.54,879.71a591.52,591.52,0,0,1,1.31-97.87c5.08-52.19,8.37-82.09,28.24-96.68,14.7-10.78,36.16-11.51,50.84-.55,7.64,5.7,17.93,17.91,24.47,79.45a665.21,665.21,0,0,1,2,115.76Z" transform="translate(-191.77 -60.54)"/><path class="cls-7" d="M1709.64,879.71c-2.44-36-1.32-71.74,2.26-107.57,1.6-16.1,3.11-32.34,6.67-48.16.71-3.13,1.5-6.24,2.45-9.3.42-1.38.87-2.76,1.36-4.12.24-.65.48-1.31.73-2,.11-.26.83-2,.55-1.38a60.55,60.55,0,0,1,3.63-7.08c.6-1,1.23-1.95,1.89-2.89.13-.18,1.19-1.58.56-.77.46-.59.93-1.16,1.43-1.72a41.52,41.52,0,0,1,5.11-4.9c.75-.62.18-.15,0,0l1-.72c.84-.59,1.69-1.15,2.57-1.68a38.45,38.45,0,0,1,5.32-2.69,40,40,0,0,1,23.57-2,35.52,35.52,0,0,1,11.06,4.53c.88.54,1.7,1.15,2.55,1.74.52.36.44.71-.41-.32a8.38,8.38,0,0,0,1,.84,27.28,27.28,0,0,1,2.26,2.17c.36.38.69.78,1,1.17.19.22.36.47.55.68-.3-.34-.61-.86,0,0a52.38,52.38,0,0,1,4.68,8.29c.14.31.72,1.66.2.42l.57,1.4c.42,1.07.82,2.15,1.2,3.23.85,2.43,1.61,4.88,2.31,7.36,4.24,15.11,6.44,30.8,8.18,46.36a661.62,661.62,0,0,1,3.31,103.33c-.23,5.3-.54,10.6-.89,15.89l5.09-5.09-106.9-.12c-6.56,0-6.57,10.19,0,10.2l106.9.11a5.22,5.22,0,0,0,5.1-5.1A672.16,672.16,0,0,0,1815,768.74c-1.7-17.23-3.83-34.58-7.9-51.43-2.2-9.11-5-18.56-9.94-26.6-13.52-21.9-46.18-24.5-66-9.68-9.44,7.07-15.28,17.05-19.05,28.08-4.91,14.39-6.73,29.8-8.47,44.83-4.2,36.26-6.61,72.54-5.11,109.06q.35,8.36.91,16.71a5.22,5.22,0,0,0,5.1,5.1C1707.15,884.81,1709.82,882.47,1709.64,879.71Z" transform="translate(-191.77 -60.54)"/><rect class="cls-3" x="23.89" y="1329.24" width="102.2" height="72.25"/><rect class="cls-4" x="16.99" y="1314.77" width="115.82" height="14.47"/><rect class="cls-3" x="330.17" y="1329.24" width="102.2" height="72.25"/><rect class="cls-4" x="323.27" y="1314.77" width="115.82" height="14.47"/><rect class="cls-3" x="656.44" y="1329.24" width="102.2" height="72.25"/><rect class="cls-4" x="649.54" y="1314.77" width="115.82" height="14.47"/><rect class="cls-3" x="1161.71" y="1329.24" width="102.2" height="72.25"/><rect class="cls-4" x="1154.81" y="1314.77" width="115.82" height="14.47"/><rect class="cls-3" x="1471.93" y="1329.24" width="102.2" height="72.25"/><rect class="cls-4" x="1465.03" y="1314.77" width="115.82" height="14.47"/><rect class="cls-3" x="1784.12" y="1329.24" width="102.2" height="72.25"/><rect class="cls-4" x="1777.22" y="1314.77" width="115.82" height="14.47"/><polyline class="cls-3" points="704.98 822.54 1218.1 822.54 958.63 695.13 699.16 822.54"/><path class="cls-3" d="M1186.07,333.46c-.12,12.59-7.93,24.54-20,28.89a31.35,31.35,0,0,1-34.75-9.27c-8.28-9.83-9.19-24.42-2.68-35.38a30.85,30.85,0,0,1,57.38,15.76c.07,6.56,10.26,6.57,10.19,0a41.62,41.62,0,0,0-27.11-38.6,41.2,41.2,0,0,0-45.41,12.29c-10.93,13.4-12.74,32.58-3.68,47.51a41.58,41.58,0,0,0,43.5,19c19-3.72,32.52-21.12,32.7-40.19C1196.33,326.9,1186.14,326.9,1186.07,333.46Z" transform="translate(-191.77 -60.54)"/><path class="cls-3" d="M1150.12,369.41v48.81c0,6.55,10.19,6.56,10.19,0V369.41c0-6.56-10.19-6.57-10.19,0Z" transform="translate(-191.77 -60.54)"/><path class="cls-3" d="M1138.17,366.84l-8.1,14.61-1.15,2.08a5.1,5.1,0,1,0,8.8,5.15l8.09-14.61L1147,372a5.1,5.1,0,1,0-8.8-5.14Z" transform="translate(-191.77 -60.54)"/><path class="cls-3" d="M1125.5,354.56l-11.41,12.21-1.59,1.7c-1.82,1.95-2.08,5.31,0,7.21a5.16,5.16,0,0,0,7.2,0l11.42-12.21,1.59-1.7a5.1,5.1,0,1,0-7.21-7.21Z" transform="translate(-191.77 -60.54)"/><path class="cls-3" d="M1118.24,341.71l-14.11,8.94-2,1.26a5.1,5.1,0,1,0,5.15,8.8l14.1-8.95,2-1.25c2.25-1.43,3.36-4.6,1.83-7a5.17,5.17,0,0,0-7-1.83Z" transform="translate(-191.77 -60.54)"/><path class="cls-3" d="M1119.12,328.67l-16.64-.53-2.4-.08a5.12,5.12,0,0,0-5.09,5.09,5.19,5.19,0,0,0,5.09,5.1l16.64.54,2.4.08a5.15,5.15,0,0,0,5.09-5.1,5.21,5.21,0,0,0-5.09-5.1Z" transform="translate(-191.77 -60.54)"/><path class="cls-3" d="M1123,316.21l-15.57-6-2.21-.85a5.08,5.08,0,0,0-3.92.51,5.09,5.09,0,0,0,1.21,9.31l15.57,6,2.21.85a5.16,5.16,0,0,0,3.93-.52,5.09,5.09,0,0,0-1.22-9.31Z" transform="translate(-191.77 -60.54)"/><path class="cls-3" d="M1133.22,305l-12.28-11.27-1.75-1.6c-2-1.8-5.29-2.09-7.21,0s-2.09,5.28,0,7.21l12.29,11.27,1.75,1.6c2,1.8,5.29,2.09,7.2,0a5.16,5.16,0,0,0,0-7.21Z" transform="translate(-191.77 -60.54)"/><path class="cls-3" d="M1147.76,297.67l-6-15.55-.85-2.21a5.55,5.55,0,0,0-2.34-3,5.25,5.25,0,0,0-3.93-.52c-2.41.78-4.59,3.61-3.56,6.27l6,15.55.86,2.21a5.49,5.49,0,0,0,2.34,3.05,5.19,5.19,0,0,0,3.93.51c2.41-.78,4.59-3.6,3.56-6.27Z" transform="translate(-191.77 -60.54)"/><path class="cls-3" d="M1160.63,297.52l-.55-16.64-.08-2.4a5.1,5.1,0,0,0-10.19,0l.55,16.64.08,2.4c.09,2.66,2.28,5.22,5.09,5.09a5.17,5.17,0,0,0,5.1-5.09Z" transform="translate(-191.77 -60.54)"/><path class="cls-3" d="M1163.37,371.45l8.09,14.61,1.16,2.09a5.14,5.14,0,0,0,7,1.82,5.2,5.2,0,0,0,1.83-7l-8.09-14.61-1.16-2.08a5.14,5.14,0,0,0-7-1.83,5.2,5.2,0,0,0-1.83,7Z" transform="translate(-191.77 -60.54)"/><path class="cls-3" d="M1177.63,361.24,1189,373.45l1.59,1.7a5.15,5.15,0,0,0,7.21,0,5.2,5.2,0,0,0,0-7.21l-11.42-12.21-1.59-1.7a5.13,5.13,0,0,0-7.2,0,5.2,5.2,0,0,0,0,7.21Z" transform="translate(-191.77 -60.54)"/><path class="cls-3" d="M1187,350l14.1,8.94,2,1.25a5.14,5.14,0,0,0,7-1.82,5.22,5.22,0,0,0-1.82-7l-14.11-8.94-2-1.25a5.13,5.13,0,0,0-7,1.83,5.2,5.2,0,0,0,1.83,7Z" transform="translate(-191.77 -60.54)"/><path class="cls-3" d="M1191.22,338.33l16.64-.54,2.4-.07a5.1,5.1,0,0,0,0-10.19l-16.64.53-2.4.08a5.1,5.1,0,0,0,0,10.19Z" transform="translate(-191.77 -60.54)"/><path class="cls-3" d="M1190,325.5l15.56-6,2.21-.85a5.49,5.49,0,0,0,3-2.34,5.19,5.19,0,0,0,.51-3.93c-.78-2.41-3.6-4.58-6.26-3.56l-15.57,6-2.21.85a5.53,5.53,0,0,0-3,2.34,5.17,5.17,0,0,0-.51,3.92c.78,2.42,3.6,4.59,6.27,3.56Z" transform="translate(-191.77 -60.54)"/><path class="cls-3" d="M1184.32,311.63l12.29-11.27,1.74-1.61a5.12,5.12,0,0,0,0-7.2,5.19,5.19,0,0,0-7.2,0l-12.29,11.27-1.75,1.6a5.14,5.14,0,0,0,0,7.21,5.22,5.22,0,0,0,7.21,0Z" transform="translate(-191.77 -60.54)"/><path class="cls-3" d="M1172.41,299.85l6-15.55.86-2.21a5.11,5.11,0,0,0-.52-3.93,5.24,5.24,0,0,0-3-2.34,5.18,5.18,0,0,0-3.93.51,5.84,5.84,0,0,0-2.34,3.05l-6,15.55-.86,2.21a5.1,5.1,0,0,0,7.49,5.76,5.94,5.94,0,0,0,2.34-3Z" transform="translate(-191.77 -60.54)"/><polygon class="cls-3" points="933.95 292.67 993.58 292.67 963.76 238.49 933.95 292.67"/><circle class="cls-4" cx="1566.88" cy="156.3" r="24.97"/><circle class="cls-4" cx="358.43" cy="152.52" r="24.97"/><path class="cls-7" d="M1763.37,192.47V64.23c0-4.92-7.64-4.92-7.64,0V192.47c0,4.92,7.64,4.92,7.64,0Z" transform="translate(-191.77 -60.54)"/><path class="cls-7" d="M1717.77,105.61h80.61c4.92,0,4.93-7.65,0-7.65h-80.61c-4.91,0-4.92,7.65,0,7.65Z" transform="translate(-191.77 -60.54)"/><path class="cls-1" d="M729.92,759.79c.31,3.36-.92,8.27-5.42,7.54-3-.48-5.49-3.88-5.77-6.78-.55-5.7,4-11.56,9.44-12.91,12-3,17.94,9.64,18.17,19.46.54,23.69-25.44,31.55-45,28.88l1.87,2.46q.36-39.59.71-79.18l-2.54,2.55h169.4a2.56,2.56,0,0,0,2.46-1.87q7.6-42.7,15.2-85.42c.66-3.74.94-7.89,2.45-11.4,1.15-2.65,2.88-5.24,4.27-7.77q5.54-10.1,11.09-20.18,10.23-18.64,20.47-37.27c1.69-3.08,3.21-6.37,5.11-9.32,2.1-3.26,5.21-5.91,7.9-8.67l14.88-15.27L985,493.46c5.11-5.24,11.31-8.47,17.57-12.17l19.85-11.71,16.79-9.91c6.51-3.84,13-8.56,19.85-11.72,6-2.76,13.9-3,20.39-4.17l23-4.17,42.48-7.7c3.45-.63,7.12-1.72,10.62-1.93s7.37,1.24,10.8,2l20.76,4.64,43.26,9.69,19,4.26c3.72.83,7.87,1.29,11.3,3,3.69,1.86,7.17,4.47,10.68,6.66l36.6,22.81c5.55,3.46,11.47,6.64,16.78,10.46,6.33,4.57,11.6,11.5,17,17.11l29.57,30.55c5.74,5.93,13.41,11.91,17.09,19.32,3.44,6.94,6.35,14.22,9.51,21.3q9.88,22.11,19.76,44.24c6.55,14.66,8.21,31.69,11.34,47.41q4.83,24.25,9.67,48.5a2.55,2.55,0,0,0,2.45,1.87l158.55.34-2.55-2.55q.22,36.55.46,73.11l1.26-2.2c-10.9,5.34-24.65,6.66-35.3-.1-9.32-5.92-12.17-17.34-9.32-27.66,1.31-4.75,3.92-9.38,8.28-11.91,5.48-3.17,12.72-2.83,15.21,3.69,1.42,3.73,1.63,9.09-.26,12.72-2.19,4.22-6.71-.46-9-2.48s-6.07,1.44-3.6,3.6c3.11,2.72,7.35,6.52,11.87,5.73,3.49-.62,5.36-4,6.28-7.17,2.67-9.16-.69-21.92-11.58-23.12-12.22-1.34-20.76,9.5-22.73,20.41s1.2,22.5,10.42,29.29c12.36,9.12,29.12,7.86,42.32,1.4a2.51,2.51,0,0,0,1.26-2.2l-.45-73.11a2.59,2.59,0,0,0-2.55-2.55l-158.55-.34,2.46,1.87c-5.75-28.85-11-57.85-17.26-86.59-1.51-7-5.75-13.87-8.65-20.37l-9.15-20.48-9.15-20.48q-2.19-4.9-4.39-9.83c-1.4-3.13-2.5-6.69-4.67-9.34-4.62-5.65-10.33-10.68-15.4-15.92s-10.27-10.61-15.4-15.91l-15.41-15.92c-4.88-5.05-9.57-11.08-15-15.48-5.78-4.64-13-8.15-19.32-12.08l-19.07-11.88-19.06-11.89c-3-1.88-6-4.1-9.15-5.7s-6.7-1.93-10-2.67L1166,426.69c-3-.68-6.56-2-9.67-2-3.55.06-7.46,1.34-11,2l-22.12,4-44.25,8-10.62,1.92c-3.31.6-7.22.77-10.34,2s-6.23,3.68-9.16,5.41l-9.93,5.86-38.17,22.52c-6.29,3.72-13,6.89-18.12,12.14l-15.5,15.91q-15.51,15.9-31,31.81c-2.43,2.48-5.34,4.88-7.45,7.63s-3.46,6.1-5.08,9.06L912.91,572.4q-10.65,19.41-21.32,38.82c-1.7,3.1-3.44,6.19-5.12,9.32-1.78,3.32-2,7.18-2.66,10.87l-3.87,21.79q-3.88,21.79-7.76,43.58l-3.87,21.79,2.45-1.87H701.36a2.59,2.59,0,0,0-2.55,2.55q-.36,39.59-.71,79.18a2.55,2.55,0,0,0,1.87,2.45c22.52,3.08,51.68-6.16,51.48-33.21-.08-10.69-5-22.89-16.62-25.13-11.1-2.15-22.74,7.37-21.07,19.09.81,5.66,6,11,11.91,10.86,6.58-.15,9.89-6.89,9.34-12.71-.3-3.24-5.4-3.27-5.09,0Z" transform="translate(-191.77 -60.54)"/><path class="cls-1" d="M898.57,704c1.64-.52,21.69-7.24,27.59-27.57,4.64-16-1.4-33.74-15.3-44.49a82.64,82.64,0,0,1,.63,45.77A80.73,80.73,0,0,1,898.57,704Z" transform="translate(-191.77 -60.54)"/><path class="cls-1" d="M899.92,708.89a49.92,49.92,0,0,0,22-14.52,44.61,44.61,0,0,0,8.46-43.53,48.83,48.83,0,0,0-15.9-22.54c-1.81-1.42-4.06-2-6.18-.79a5.19,5.19,0,0,0-2.34,5.75,77.3,77.3,0,0,1-11.78,68.14c-1.63,2.22-.37,5.69,1.83,7,2.58,1.52,5.33.4,7-1.83,16-21.75,20.47-50.19,12.81-76l-8.52,5c10.44,8.23,16.83,21,15.09,34.48-1.46,11.38-8.89,20.4-18,25.74-1.75,1-3.56,1.89-5.4,2.73,1.39-.63-.16,0-.7.25l-1,.35C891,701.05,893.65,710.89,899.92,708.89Z" transform="translate(-191.77 -60.54)"/><path class="cls-1" d="M921.52,607.21c1.7.25,22.61,2.95,36.79-12.76,11.16-12.35,13.51-31,5.76-46.68A83,83,0,0,1,944.6,589.2,80.7,80.7,0,0,1,921.52,607.21Z" transform="translate(-191.77 -60.54)"/><path class="cls-1" d="M920.16,612.13a51,51,0,0,0,27.84-4c14.59-6.5,23.81-20.92,25.46-36.55a49.25,49.25,0,0,0-5-26.41c-1.82-3.78-8.61-3.05-9.32,1.22-4,24.1-18.49,44.94-40.2,56.39-5.81,3.06-.66,11.86,5.14,8.8A87,87,0,0,0,969,549.13l-9.31,1.21a37.7,37.7,0,0,1-1.78,36.31,33.42,33.42,0,0,1-13.49,12A40.16,40.16,0,0,1,931,602.27a48.26,48.26,0,0,1-6.13.13c-.7,0-1.39-.08-2.09-.14-1.16-.09-.86-.1.12,0-2.72-.39-5.47.67-6.27,3.56C916,608.25,917.42,611.73,920.16,612.13Z" transform="translate(-191.77 -60.54)"/><path class="cls-1" d="M978.84,519.1c1.5.86,20.14,11.09,39.23,1.56,15-7.49,24.06-24.08,22.57-41.69a83.61,83.61,0,0,1-33.51,31.72A81.41,81.41,0,0,1,978.84,519.1Z" transform="translate(-191.77 -60.54)"/><path class="cls-1" d="M976.24,523.54a50.27,50.27,0,0,0,32.18,5.61c14.59-2.33,27.27-12.84,33.17-26.24a50,50,0,0,0,4.19-23.94c-.37-4.93-6.83-7.19-9.57-2.6-12.1,20.26-33.61,34.93-57.37,37.6-2.76.3-5.14,2.13-5.14,5.13,0,2.54,2.36,5.45,5.14,5.14a88.41,88.41,0,0,0,66.24-42.68L1035.5,479c1.12,14.7-5.52,29.35-18.72,36.57a34.69,34.69,0,0,1-23.56,3.28,50.39,50.39,0,0,1-8.5-2.55c-.89-.35.49.26-.75-.32l-1.21-.58c-.45-.22-.89-.46-1.33-.7C975.67,511.4,970.49,520.27,976.24,523.54Z" transform="translate(-191.77 -60.54)"/><path class="cls-1" d="M1069.92,465.28c1.11,1.34,15,17.44,36.2,15.19,16.69-1.77,31-14.15,35.74-31.17a83.65,83.65,0,0,1-42.5,18A81.38,81.38,0,0,1,1069.92,465.28Z" transform="translate(-191.77 -60.54)"/><path class="cls-1" d="M1066.28,468.92a49.74,49.74,0,0,0,24.36,15.36c15.16,4.13,31.44-.52,42.77-11.24a49.92,49.92,0,0,0,13.4-22.37,5.23,5.23,0,0,0-2.36-5.8c-2.12-1.24-4.42-.64-6.23.8-.1.08-1.23,1-.67.54s-.7.53-.82.61c-.76.57-1.53,1.13-2.31,1.67q-3,2.1-6.21,3.93a78.16,78.16,0,0,1-16.26,7,76.51,76.51,0,0,1-40.67.87c-6.41-1.61-9.15,8.3-2.73,9.91,27.09,6.79,55.27,0,76.94-17.31l-8.59-5c-3.42,11.84-12.26,22-24.15,25.87-11.62,3.77-23.18.85-32.8-6.15,0,0-.68-.51-.28-.2s-.63-.51-.6-.49c-.4-.33-.8-.66-1.19-1-.71-.62-1.41-1.26-2.08-1.92a31.8,31.8,0,0,1-2.25-2.4c-1.78-2.13-5.43-1.84-7.27,0C1064.18,463.76,1064.5,466.78,1066.28,468.92Z" transform="translate(-191.77 -60.54)"/><path class="cls-1" d="M1172.93,452.93c.35,1.71,5,22.45,24.71,30.51,15.54,6.33,34,2.18,46.23-10.56a83.56,83.56,0,0,1-45.95-4.24A81.37,81.37,0,0,1,1172.93,452.93Z" transform="translate(-191.77 -60.54)"/><path class="cls-1" d="M1168,454.3a50.27,50.27,0,0,0,12.35,23.27c10.9,11.73,27.56,16.22,43,12.7a49.45,49.45,0,0,0,24.14-13.76c3.79-3.87-.13-9.48-5-8.58-.85.16-1.71.31-2.57.44-1.61.25-1,.17-2.55.33-2.54.28-5.1.44-7.66.49a76.05,76.05,0,0,1-53.16-19.89c-4.88-4.44-12.17,2.81-7.26,7.27a88.47,88.47,0,0,0,75.94,21.26l-5-8.58c-9.42,9.63-23.35,14.34-36.56,10.8-11.2-3-18.65-11-23.37-21-.51-1.08.07.28-.33-.78-.19-.49-.39-1-.57-1.47-.28-.79-.55-1.58-.79-2.39s-.54-1.87-.74-2.82c-.56-2.72-3.77-4.29-6.32-3.59A5.24,5.24,0,0,0,1168,454.3Z" transform="translate(-191.77 -60.54)"/><path class="cls-1" d="M1271.68,480.1c-.4,1.69-4.89,22.47,9.69,38,11.47,12.26,30,16.2,46.41,9.74a83.56,83.56,0,0,1-40-23.06A81.53,81.53,0,0,1,1271.68,480.1Z" transform="translate(-191.77 -60.54)"/><path class="cls-1" d="M1266.72,478.74a50,50,0,0,0,1.79,28,45.12,45.12,0,0,0,34,28.47,49.59,49.59,0,0,0,26.67-2.36c4.45-1.7,5.3-8.56,0-9.91a78.24,78.24,0,0,1-53-45.42c-1.08-2.56-4.85-3.12-7-1.84-2.64,1.54-2.93,4.46-1.84,7,10.61,25,33,43.48,59.17,50.15v-9.91c-12.14,4.64-25.63,3.63-36.37-3.94-9.52-6.71-14.09-18-14.18-29a53.53,53.53,0,0,1,.37-6.45c-.17,1.5.09-.52.18-1,.07-.35.14-.7.22-1C1278.12,475,1268.21,472.29,1266.72,478.74Z" transform="translate(-191.77 -60.54)"/><path class="cls-1" d="M1350.36,554.89c-.87,1.5-11.25,20.05-1.87,39.21,7.38,15.08,23.9,24.26,41.52,22.91a83.61,83.61,0,0,1-31.46-33.76A81.64,81.64,0,0,1,1350.36,554.89Z" transform="translate(-191.77 -60.54)"/><path class="cls-1" d="M1345.93,552.3a50.12,50.12,0,0,0-5.84,32.13c2.23,14.59,12.64,27.37,26,33.35a50,50,0,0,0,23.91,4.37c5-.34,7.13-6.82,2.59-9.58-20.1-12.22-34.61-33.81-37.1-57.68-.29-2.76-2.16-5.14-5.14-5.14-2.55,0-5.42,2.36-5.14,5.14a88.43,88.43,0,0,0,42.2,66.55l2.59-9.57c-14.73,1-29.29-5.79-36.41-19a34.74,34.74,0,0,1-3.06-23.59,48.47,48.47,0,0,1,2.62-8.49c-.43,1,.25-.56.34-.73.19-.41.38-.81.58-1.21s.47-.89.72-1.33C1358.11,551.74,1349.23,546.57,1345.93,552.3Z" transform="translate(-191.77 -60.54)"/><path class="cls-1" d="M1397.72,644.55c-1.36,1.09-17.69,14.69-15.81,35.94,1.48,16.71,13.61,31.21,30.54,36.27a83.73,83.73,0,0,1-17.26-42.8A81.34,81.34,0,0,1,1397.72,644.55Z" transform="translate(-191.77 -60.54)"/><path class="cls-1" d="M1394.08,640.92a49.71,49.71,0,0,0-15.59,23.61c-4.61,15.11-.25,31.55,10.2,43.17a49.65,49.65,0,0,0,22.4,14,5.21,5.21,0,0,0,5.8-2.36c1.25-2.14.61-4.4-.8-6.23.84,1.09-.08-.11-.25-.34-.3-.41-.6-.81-.89-1.22-.57-.79-1.12-1.58-1.66-2.39-1.32-2-2.57-4-3.73-6.13a78.19,78.19,0,0,1-6.83-16.65,76.46,76.46,0,0,1-.06-40.47c1.72-6.4-8.19-9.12-9.91-2.73-7.26,27-.9,55.24,16.06,77.2l5-8.59c-11.92-3.67-21.92-12.89-25.49-25a33.56,33.56,0,0,1-.22-18.56,35.09,35.09,0,0,1,3-7.44c.6-1.11,1.25-2.2,1.94-3.26.34-.53.7-1.06,1.07-1.59.17-.24,1.16-1.57.73-1a40.9,40.9,0,0,1,6.51-6.77c2.16-1.74,1.81-5.45,0-7.26C1399.21,638.78,1396.25,639.17,1394.08,640.92Z" transform="translate(-191.77 -60.54)"/><rect class="cls-4" x="191.5" y="499.12" width="70.36" height="9.47"/><rect class="cls-4" x="441.8" y="498.99" width="70.36" height="9.47"/><rect class="cls-4" x="1401.66" y="498.99" width="70.36" height="9.47"/><rect class="cls-4" x="1650.81" y="498.99" width="70.36" height="9.47"/><path class="cls-5" d="M1007.29,1458.71c-1.6-37-3.33-92-2.89-158.84,1.3-197.67,19.83-238.52,48.88-261.81,14.38-11.54,45.53-26.72,94.31-25.7,1.58,148.81-1.59,297.93,0,446.74C1100.68,1459.06,1054.19,1458.75,1007.29,1458.71Z" transform="translate(-191.77 -60.54)"/><path class="cls-5" d="M1287.37,1458.7c1.6-37,3.33-92,2.89-158.84-1.3-197.67-19.83-238.51-48.88-261.81-14.38-11.54-45.53-26.71-94.31-25.7-1.58,148.81,1.59,297.93,0,446.74C1194,1459.05,1240.47,1458.74,1287.37,1458.7Z" transform="translate(-191.77 -60.54)"/><rect class="cls-1" x="31.7" y="875.63" width="1846.79" height="70.92"/><rect class="cls-4" y="822.54" width="1916.75" height="53.08"/><path class="cls-7" d="M555.5,192.47V64.23c0-4.92-7.64-4.92-7.64,0V192.47c0,4.92,7.64,4.92,7.64,0Z" transform="translate(-191.77 -60.54)"/><path class="cls-7" d="M509.9,105.61h80.61c4.91,0,4.92-7.65,0-7.65H509.9c-4.92,0-4.93,7.65,0,7.65Z" transform="translate(-191.77 -60.54)"/></svg>