<?xml version="1.0" encoding="utf-8"?>
<!-- Generator: Adobe Illustrator 25.2.1, SVG Export Plug-In . SVG Version: 6.00 Build 0)  -->
<svg version="1.1" id="Map" xmlns="http://www.w3.org/2000/svg" xmlns:xlink="http://www.w3.org/1999/xlink" x="0px" y="0px"
	 viewBox="0 0 1363.9 1692.3" style="enable-background:new 0 0 1363.9 1692.3;" xml:space="preserve">
<style type="text/css">
	.st0{clip-path:url(#SVGID_2_);}
	.st1{fill:#9CB0BD;}
	.st2{clip-path:url(#SVGID_4_);}
	.st3{fill:#EEEDED;}
	.st4{clip-path:url(#SVGID_6_);}
	.st5{fill:#E3E2E2;}
	.st6{clip-path:url(#SVGID_8_);}
	.st7{fill:#DDEADA;}
	.st8{clip-path:url(#SVGID_10_);}
	.st9{fill:#D4E5B8;}
	.st10{clip-path:url(#SVGID_12_);}
	.st11{fill:#F4F4CD;}
	.st12{clip-path:url(#SVGID_14_);}
	.st13{fill:#E0E3E0;}
	.st14{clip-path:url(#SVGID_16_);}
	.st15{clip-path:url(#SVGID_18_);}
	.st16{fill:#E8E9E9;}
	.st17{fill:#F9F9F9;}
	.st18{clip-path:url(#SVGID_20_);}
	.st19{fill:#FFFFFF;}
	.st20{clip-path:url(#SVGID_22_);}
	.st21{clip-path:url(#SVGID_24_);}
	.st22{clip-path:url(#SVGID_26_);}
	.st23{clip-path:url(#SVGID_28_);}
	.st24{fill:#F8E2B1;}
	.st25{clip-path:url(#SVGID_30_);}
	.st26{clip-path:url(#SVGID_32_);}
	.st27{enable-background:new    ;}
	.st28{fill:none;stroke:#FFFFFF;stroke-width:0.5;}
	.st29{fill:#789955;}
	.st30{clip-path:url(#SVGID_34_);}
	.st31{fill:#C9B8DA;}
	.st32{clip-path:url(#SVGID_36_);enable-background:new    ;}
	.st33{fill:none;}
	.st34{fill:#2B2C2C;}
	.st35{font-family:'Roboto-Black';}
	.st36{font-size:67px;}
	.st37{fill:#3B7593;}
</style>
<g>
	<g>
		<defs>
			<rect id="SVGID_1_" x="-132.5" width="1511.4" height="1692.3"/>
		</defs>
		<clipPath id="SVGID_2_">
			<use xlink:href="#SVGID_1_"  style="overflow:visible;"/>
		</clipPath>
		<g id="Water_1_" class="st0">
			<g>
				<rect x="-804.9" y="-17.5" class="st1" width="2607.7" height="1738.4"/>
			</g>
		</g>
	</g>
	<g>
		<defs>
			<rect id="SVGID_3_" x="-132.5" width="1511.4" height="1692.3"/>
		</defs>
		<clipPath id="SVGID_4_">
			<use xlink:href="#SVGID_3_"  style="overflow:visible;"/>
		</clipPath>
		<g id="Land_1_" class="st2">
			<g>
				<path class="st3" d="M-804.9,1720.9h2607.7V-17.5H-804.9V1720.9z"/>
			</g>
		</g>
	</g>
	<g>
		<defs>
			<rect id="SVGID_5_" x="-132.5" width="1511.4" height="1692.3"/>
		</defs>
		<clipPath id="SVGID_6_">
			<use xlink:href="#SVGID_5_"  style="overflow:visible;"/>
		</clipPath>
		<g id="Education_1_" class="st4">
			<g>
				<path class="st5" d="M692.5,1187.1l-0.9-17.9h33.2v29l-42.6-1.7l-0.8-9.4H692.5z"/>
			</g>
		</g>
	</g>
	<g>
		<defs>
			<rect id="SVGID_7_" x="-132.5" width="1511.4" height="1692.3"/>
		</defs>
		<clipPath id="SVGID_8_">
			<use xlink:href="#SVGID_7_"  style="overflow:visible;"/>
		</clipPath>
		<g id="Wood_1_" class="st6">
			<g>
				<path class="st7" d="M-804.9,1720.9V-17.5l0,0v1238.4l36.2-15.9l25.2,515.9H-804.9 M-244.2,1720.9l6.6-186l117.6-1.7l1.7,187.7
					H-244.2 M-428.5,1690.9l8.5-8.5l0.8-11.1l7.7-10.2l10.2-9.4v-11.1l5.1-13.6l17-1.7l2.6-12l-5.1-17.9l-1.7-8.5l6-10.2l9.4-12
					l0.9-10.2l2.6-10.3l6-11.1v-12.8l-1.7-11.9l-2.6-12.8v-11l3.4-11.9l5.1-12l21.3-12.8l27.3-6.8l6,6.8l-5.1,17l-6.8,12l-16.2,11.1
					l-5.1,14.5l5.1,21.3l7.7,16.2l13.6,13.6l5.1,20.5l-6,14.5l-6.8,28.2v16.2l20.5,22.2l-0.9,20.5l-5.1,12.8l-11.1,12l-5.3,20.6
					h-17.6V1709l-1.7-13.6l9.3-7.6l0.9-9.4l-4.3-12l5.1-11.1l3.4-10.2l-2.6-11.1l-14.5-9.4l-6-13.6l6-13.6v-17.9l-5.1-19.6l-9.4,3.4
					l-4.3,17v19.6l-4.3,18.8l-3.4,21.3l-12,12l-9.4,13.6l-1.7,16.2l-12.8,10.3l-25.6,11.9l-9.3,5.1l-0.9-8.5L-428.5,1690.9
					 M-490.8,1320.9l17.9,6.8l16.2,3.4l12,2.6l-3.4-12.8l-9.3-1.7l-8.5-10.2l0.8-6.8l1.7-5.1l11.1,0.9l11.1-13.6l25.6-21.3l-0.9-6
					l11.1-15.3l9.4-6.8l-5.1-10.2l-12.8-4.3v-9.4h23l4.3,9.4l6.8,11.1l13.6,6.8l11.1,6.8l1.7,8.5l4.3,7.6l11.9,5.1l6,6.8l-0.9,11.1
					l-8.5,8.5l-20.5,3.4l-22.2-6l-28.1-2.6l-11.1,4.3l0.8,12.8l7.7,4.3l7.7,7.6l11.1,2.6l2.5,12.8l-17,10.3l-10.2,9.3l-5.1,12.8
					l0.9,11.1v9.3l-31.6-6l-9.4-17l-25.6-6.8l-5.1-17.9L-490.8,1320.9z"/>
			</g>
		</g>
	</g>
	<g>
		<defs>
			<rect id="SVGID_9_" x="-132.5" width="1511.4" height="1692.3"/>
		</defs>
		<clipPath id="SVGID_10_">
			<use xlink:href="#SVGID_9_"  style="overflow:visible;"/>
		</clipPath>
		<g id="Cemetery_1_" class="st8">
			<g>
				<path class="st9" d="M1149.4,402.8l5.1-150.9l79.3,7.6l57.1,38.4l-126.2,182.4l-40.9,7.7l-14.5-77.6L1149.4,402.8
					 M1359.7,1720.9l10.5-84.5l125.3,22.2l-10.6,62.4L1359.7,1720.9L1359.7,1720.9z"/>
			</g>
		</g>
	</g>
	<g>
		<defs>
			<rect id="SVGID_11_" x="-132.5" width="1511.4" height="1692.3"/>
		</defs>
		<clipPath id="SVGID_12_">
			<use xlink:href="#SVGID_11_"  style="overflow:visible;"/>
		</clipPath>
		<g id="Sand_1_" class="st10">
			<g>
				<path class="st11" d="M552.7,1641.5l8.5,6l15.3,5.1l-18.7,1.7l-13.6,2.5L552.7,1641.5 M446.1,1640.6l13.6-13.6l2.6,18.7
					l9.4,17.9l-17.1-11.1l-18.7-5.1L446.1,1640.6z"/>
			</g>
		</g>
	</g>
	<g>
		<defs>
			<rect id="SVGID_13_" x="-132.5" width="1511.4" height="1692.3"/>
		</defs>
		<clipPath id="SVGID_14_">
			<use xlink:href="#SVGID_13_"  style="overflow:visible;"/>
		</clipPath>
		<g id="Stadium_1_" class="st12">
			<g>
				<path class="st13" d="M784.5,487.2l203.7,0.9v12.8l6,203.7l0.9,12l-193.5,12.8l-5.1-13.6l-2.6-7.7l-12-217.3L784.5,487.2z"/>
			</g>
		</g>
	</g>
	<g>
		<defs>
			<rect id="SVGID_15_" x="-132.5" width="1511.4" height="1692.3"/>
		</defs>
		<clipPath id="SVGID_16_">
			<use xlink:href="#SVGID_15_"  style="overflow:visible;"/>
		</clipPath>
		<g id="Park_1_" class="st14">
			<g>
				<path class="st7" d="M-17.6,719.1l12.8,41.8l29-9.4l-12.8-41.8L-17.6,719.1 M66.8,749.8l5.1,54.5l5.1,57.1l173.9-12l-30.7-2.5
					L187,836.6l-40.9-17l-30.7-23l-13.6-9.3l-15.3-13.6L66.8,749.8 M108.5,779.6l16.2,12.8l40.1,23.9l24.7,10.3v-56.3h-75l-6,3.4
					L108.5,779.6 M469.1,1628.7l0.8,12l4.3,11.1l8.6,9.4l10.2,5.1l11.1,2.6l11.9-1.7l11.1-5.1l8.6-9.4l5.1-10.2l0.9-12.8l-2.6-12
					l-6.8-10.2l-9.4-7.7l-11.1-3.4H499l-11.1,3.4l-10.2,7.7l-6,10.2L469.1,1628.7 M482.8,829.1l11.9,219.1l90.4-6l-18.7-214.8
					l-4.3-3.4l-41.8,2.6L482.8,829.1 M791.3,647.5l1.7,35.8l23.9-0.9l-1.7-35.8L791.3,647.5 M819.5,522.2l7.7,139.8l70.8-4.3
					l-6.8-139.8L819.5,522.2 M824.6,1563.1l46,0.8v-28.1h-46V1563.1z"/>
			</g>
		</g>
	</g>
	<g>
		<defs>
			<rect id="SVGID_17_" x="-132.5" width="1511.4" height="1692.3"/>
		</defs>
		<clipPath id="SVGID_18_">
			<use xlink:href="#SVGID_17_"  style="overflow:visible;"/>
		</clipPath>
		<g id="Building_1_" class="st15">
			<g>
				<path class="st16" d="M-503.6,590.4l0.9,14.5h11.1v-15.3L-503.6,590.4 M-476.3,217h10.3v-9.4h-4.3v5.1h-6V217 M22.4,806.1
					l0.8,9.4l27.3-1.7L49.6,801H42v3.4L22.4,806.1 M53.9,639.8l1.7,31.6l18.7-1.7v2.6l3.4-0.9l-0.9-11.1h-8.5V656l4.3-0.9l-0.9-16.2
					L53.9,639.8 M63.3,690.1l2.6,32.4l9.4-0.9l-2.6-32.4L63.3,690.1 M66.8,617.7l1.7,17.9h7.6l-1.7-17.9H66.8 M77,650.9l1.7,17.9
					l7.7-0.8v-2.6h5.1l0.9,6.8h5.1l-0.9-7.7l8.5-0.9l-0.8-13.6h-6v-5.1L83,645.8v5.1L77,650.9 M82.1,693.5l1.7,28.1l15.3-1.7
					l-2.6-27.3L82.1,693.5 M86.4,846.1l14.5-0.9l-0.8-12.8H86.5v13.7 M105.1,643.3l2.6,23l20.5-1.7l-1.7-23L105.1,643.3 M106.8,749
					h9.3l-0.8-13.6l-8.5,0.9V749 M374.5,951.8l0.9,20.5l53.7-0.9v-23.8h-51.2L374.5,951.8 M466.6,945l0.8,13.6l9.4-0.9v-13.6
					L466.6,945 M481.9,809.5l0.9,7.6l12.8-0.9v-7.6L481.9,809.5 M511.7,760.9l0.9,13.6l9.4-0.8l-0.9-12.8H511.7 M512.6,968
					l11.1,67.3l55.4-9.3L568,960.3l-10.2,1.7l-2.6-14.5l-30.7,5.1l2.5,12.8L512.6,968 M631.1,666.2h16.2l-0.8-17h-15.4V666.2
					 M733.4,1459.9h24.7v-6.8h1.7v-4.3l-26.4,0.9V1459.9 M746.1,824l1.7,17.9l25.6-2.6l-0.9-17.9L746.1,824 M761.5,1494.9h13.6
					v-16.2h-9.3v-3.4h-4.3V1494.9 M788.8,1479.5h4.3l-0.8,6l3.4,0.9l-0.9,6.8l11.1,0.9l0.9-12.8h5.1v-6h-4.3v-5.1l-17.9-0.9
					L788.8,1479.5 M790.5,834.2l10.3-0.8v-8.5l-10.3,0.8L790.5,834.2 M792.2,975.7h10.2v-8.5h-10.2V975.7 M792.2,904.1h10.2v-8.5
					h-10.2V904.1 M817.8,1585.2l23-0.9v-6.8l-23,0.9V1585.2 M829.7,1436.9h12.8v-12.8h-12.8V1436.9 M837.4,979.1l0.9,13.6l9.4-0.9
					l-0.9-13.6L837.4,979.1 M857,893.8l0.9,11.1h7.6v-11.1H857 M885.1,1014.1l0.8,12l11.1-1.7l-1.7-11.9L885.1,1014.1 M907.3,1480.4
					h12.8v-5.1h-3.4v-9.4h-9.3L907.3,1480.4 M922.6,927.1h8.5l-0.9-11.1h-7.6V927.1 M951.6,803.5l0.8,12.8l17.9-0.8l-0.9-13.6
					L951.6,803.5 M955.9,1477h8.5v11.9h14.5l0.9-23h-8.5v1.7h-6v-3.4l-9.3-0.9L955.9,1477 M961,1453.1l10.3,0.8v-6l-9.4-0.9
					L961,1453.1 M970.4,785.6l23.9-0.8v-8.5l-20.4,0.8v1.7h-3.4L970.4,785.6 M1386.4,1596.3l22.2,2.6v4.3l12,0.8l2.5-21.3l-34.9-3.4
					L1386.4,1596.3 M1391.5,1552.8l29.8,0.9l0.9-18.7l-29.9-0.9L1391.5,1552.8 M1582.4,927.1h17.9v-23h-17.9V927.1z"/>
				<path class="st17" d="M1421.4,1605.1l-14-1v-4.3l-22.3-2.6l1.9-19.2l37.1,3.6L1421.4,1605.1z M1409.6,1602.1l9.9,0.7l2.3-19.2
					l-32.8-3.2l-1.5,14.9l22.1,2.6V1602.1z M816.7,1586.4v-9l25.2-1v9L816.7,1586.4z M818.9,1579.4v4.6l20.9-0.8v-4.6L818.9,1579.4z
					 M1422.3,1554.8l-32-0.9l0.9-20.9l32,0.9L1422.3,1554.8z M1392.6,1551.7l27.6,0.8l0.8-16.6l-27.7-0.8L1392.6,1551.7z
					 M776.2,1496h-15.8v-21.8h6.5v3.4h9.3V1496z M762.6,1493.8h11.5v-14h-9.3v-3.4h-2.1v17.4H762.6z M806.8,1495.2l-13.3-1l0.9-7
					l-3.4-0.9l0.8-5.7h-4.2l1.1-12.5l20,1v5.1h4.3v8.1h-5.2L806.8,1495.2z M796,1492.1l8.8,0.7l0.9-12.7h5.1v-3.8h-4.3v-5.2
					l-15.8-0.8l-0.7,8h4.3l-0.9,6.2l3.4,0.9L796,1492.1z M979.9,1490h-16.6v-11.9h-8.5v-15.9l11.5,1.1v3.3h3.8v-1.7h10.7L979.9,1490
					z M965.5,1487.8h12.3l0.8-20.8h-6.3v1.7h-8.2v-3.5l-7.2-0.7v11.4h8.5L965.5,1487.8L965.5,1487.8z M921.2,1481.4h-15v-16.6h11.5
					v9.4h3.4L921.2,1481.4L921.2,1481.4z M908.4,1479.3H919v-2.9h-3.4v-9.4h-7.2V1479.3z M759.2,1461h-26.9v-12.4l28.6-0.9v6.5h-1.7
					L759.2,1461L759.2,1461z M734.5,1458.8H757v-6.8h1.7v-2.1l-24.3,0.8L734.5,1458.8L734.5,1458.8z M972.3,1455.1l-12.6-1l1.2-8.2
					l11.4,1.1V1455.1z M962.2,1452.1l7.9,0.6v-3.8l-7.4-0.7L962.2,1452.1z M843.6,1438h-15v-15h15V1438z M830.8,1435.8h10.6v-10.6
					h-10.6V1435.8z M522.8,1036.6l-11.4-69.5l14.4-2.6l-2.5-12.8l32.8-5.5l2.6,14.5l10.2-1.7l0.2,1.1l11.3,66.7L522.8,1036.6z
					 M513.8,968.9l10.7,65.2l53.3-9l-10.7-63.5l-10.2,1.7l-2.6-14.5l-28.5,4.8l2.5,12.8L513.8,968.9z M885,1027.3l-1-14.1l12.3-2
					l2,14.1L885,1027.3z M886.3,1015l0.7,9.8l8.9-1.4l-1.4-9.7L886.3,1015z M837.2,994l-1-15.8l11.6-1.1l1,15.8L837.2,994z
					 M838.5,980.1l0.7,11.5l7.2-0.7l-0.7-11.5L838.5,980.1z M803.5,976.8h-12.4v-10.7h12.4V976.8z M793.3,974.6h8v-6.3h-8
					L793.3,974.6L793.3,974.6z M374.3,973.4l-0.9-21.9l4-5h52.8v26L374.3,973.4z M375.6,952.2l0.8,19l51.6-0.8v-21.7h-49.5
					L375.6,952.2z M466.4,959.8l-1-15.8l12.4-1v15.8L466.4,959.8z M467.7,946l0.7,11.5l7.3-0.7v-11.4L467.7,946z M1601.4,928.2
					h-20.1V903h20.1V928.2z M1583.5,926h15.7v-20.8h-15.7V926z M932.3,928.2h-10.8v-13.3h9.7L932.3,928.2z M923.7,926h6.3l-0.7-8.9
					h-5.6L923.7,926L923.7,926z M866.6,906h-9.7l-1-13.3h10.8V906H866.6z M858.8,903.8h5.6v-8.9h-6.3L858.8,903.8z M803.5,905.2
					h-12.4v-10.7h12.4V905.2z M793.3,903h8v-6.3h-8L793.3,903L793.3,903z M85.3,847.3v-15.9H101l1,14.9L85.3,847.3z M87.4,833.6V845
					l12.2-0.7L99,833.6H87.4z M746.9,843.1l-2-20.1l28.6-2.8l1,20.1L746.9,843.1z M747.3,824.9l1.5,15.7l23.4-2.4l-0.8-15.7
					L747.3,824.9z M789.4,835.4v-10.7l12.4-1v10.7L789.4,835.4z M791.6,826.7v6.3l8.1-0.6v-6.3L791.6,826.7z M481.8,818.3l-1.1-9.8
					l15.9-1v9.8L481.8,818.3z M483.1,810.5l0.6,5.5l10.7-0.7v-5.5L483.1,810.5z M951.4,817.4l-1-14.9l20-1.9l1,15.9L951.4,817.4z
					 M952.8,804.5l0.7,10.7l15.7-0.7l-0.7-11.4L952.8,804.5z M22.3,816.6l-1-11.5l19.7-1.7v-3.5h9.7l1,14.9L22.3,816.6z M23.6,807
					l0.6,7.2l25.1-1.6l-0.7-10.7h-5.5v3.3L23.6,807z M969.3,786.7v-9h3.4V776l22.6-0.9v10.7L969.3,786.7z M971.4,779.9v4.6l21.7-0.8
					v-6.3l-18.3,0.7v1.7L971.4,779.9L971.4,779.9z M511.6,775.7l-1-15.9h11.6l1,14.9L511.6,775.7z M512.9,762l0.7,11.3l7.2-0.6
					l-0.7-10.7H512.9z M117.3,750h-11.6v-14.8l10.6-1.1L117.3,750z M107.9,747.9h7.1l-0.7-11.4l-6.4,0.7V747.9z M64.9,723.7
					l-2.7-34.5l11.6-1.1l2.7,34.5L64.9,723.7z M64.5,691.1l2.4,30.2l7.2-0.7l-2.4-30.2L64.5,691.1z M82.8,722.9L81,692.6l16.6-1
					l2.8,29.4L82.8,722.9z M83.3,694.6l1.6,25.9L98,719l-2.4-25.2L83.3,694.6z M73.3,673.6v-2.8l-18.7,1.7l-1.9-33.8l20.1-0.9
					l1,18.2l-4.3,0.9v2.3h7.1l-0.9-9.4h6.1v-5l17.5-1v5.2h5.3l-0.8-6.7l23.5-1.9l1.9,25.2l-22.6,1.9l-0.6-5.7l0.2,2.9l-8.5,0.9
					l0.9,7.8h-7.3l-0.9-6.8h-3v2.5l-8.6,0.9l0.2,2.3L73.3,673.6z M93.3,671.2h3l-0.9-7.6l8.6-0.9l-0.7-11.5h-6.1v-5.1L84,646.8v5.1
					h-5.8l1.5,15.6l5.6-0.6v-2.7h7.1L93.3,671.2z M75.5,668.5v2.4l1.2-0.3l-0.7-9.2h-8.6v-6.2l4.2-0.9l-0.8-14.2l-15.7,0.7l1.6,29.3
					L75.5,668.5z M106.3,644.2l2.3,20.8l18.4-1.4l-1.5-20.9L106.3,644.2z M648.4,667.3H630v-19.2h17.5L648.4,667.3z M632.1,665.2h14
					l-0.7-14.9h-13.3V665.2z M77.3,636.6h-9.8l-1.9-20.1h9.8L77.3,636.6z M69.4,634.5h5.5l-1.5-15.7H68L69.4,634.5z M-490.5,606
					h-13.2l-1-16.6l14.2-1V606z M-501.7,603.8h9v-13.1l-9.7,0.7L-501.7,603.8z M-464.9,218.1h-12.4v-6.5h6v-5h6.5v11.5H-464.9z
					 M-475.2,215.9h8.1v-7.2h-2.1v5.1h-6V215.9z"/>
			</g>
		</g>
	</g>
	<g>
		<defs>
			<rect id="SVGID_19_" x="-132.5" width="1511.4" height="1692.3"/>
		</defs>
		<clipPath id="SVGID_20_">
			<use xlink:href="#SVGID_19_"  style="overflow:visible;"/>
		</clipPath>
		<g id="Footway-Outline_1_" class="st18">
			<g>
				<path class="st19" d="M-446.4,1651.2c-1.2,0-2.3-0.4-3.3-1.1c-2.4-1.8-2.8-5.2-1-7.6l11.1-14.5l1.9-1.6l18.7-9.4l28-11.9
					l19.4-12.1l17.8-21.1l26.1-50.6l4.6-2.9l23-0.9c3-0.1,5.5,2.2,5.6,5.2s-2.2,5.5-5.2,5.6l-19.8,0.7l-25.6,49.3l-18.8,22.2
					l-1.3,1.1l-21.2,13.2l-28.1,11.9l-17.3,8.7l-10.3,13.5C-443.2,1650.4-444.8,1651.2-446.4,1651.2z M-447.3,1531
					c-2.7,0-5.1-2-5.4-4.8l-5.1-45.2l-16.1-84.8l-13.6-61.2l-6.8-26.3l0.3-3.7l6-12.8l2-2.3l18.8-11.9l22-13.4l3.7-15.7
					c0.7-2.9,3.6-4.7,6.5-4s4.7,3.6,4,6.5l-4.3,17.9l-2.5,3.4l-23.9,14.5l-17.3,11l-4.5,9.6l6.3,24.6l13.7,61.5l16.2,85.4l5.2,45.6
					c0.3,3-1.8,5.7-4.8,6C-446.9,1531-447.1,1531-447.3,1531z M-208.6,965.8c-1.7,0-3.4-0.8-4.4-2.3l-4.3-6l-1-2.9l-10.8-188.3
					h-47.7c-3,0-5.4-2.4-5.4-5.4s2.4-5.4,5.4-5.4h52.8l5.4,5.1l11,191.9l3.3,4.7c1.7,2.4,1.2,5.8-1.3,7.6
					C-206.4,965.4-207.5,965.8-208.6,965.8z M539.9,955.6c-2.5,0-4.8-1.8-5.3-4.4l-3.4-17L515,827.4c-0.4-3,1.6-5.7,4.6-6.2
					s5.7,1.6,6.2,4.6L542,932.4l3.4,16.8c0.6,2.9-1.3,5.8-4.3,6.4C540.6,955.5,540.2,955.6,539.9,955.6z M224.4,854.1
					c-0.4,0-0.8,0-1.2-0.1l-27.3-6.2l-21.2-8.5c-0.1,0-0.2-0.1-0.2-0.1L142.1,826l-17.9-11.9l-21.4-14.9l-6.5-1.5l1.4,34.6
					c0.1,3-2.2,5.5-5.2,5.6s-5.5-2.2-5.6-5.2l-1.5-36l-3,1.3l-3.4,2.8l-2.1,5.5c-1.1,2.8-4.2,4.2-7,3.2c-2.8-1.1-4.2-4.2-3.2-7
					l2.6-6.8l1.6-2.3l5.1-4.3l1.3-0.8l6-2.6l2.1-0.4h5.1c0.3,0,0.9,0.1,1.4,0.2l14.3,3.4l1.9,0.8l22.2,15.4l17.4,11.5l24.4,9.9
					v-61.3c0-3,2.4-5.4,5.4-5.4s5.4,2.4,5.4,5.4v62.9l-0.3,2.7l17,6.8l26,5.9c2.9,0.7,4.8,3.6,4.1,6.5
					C229.2,852.4,226.9,854.1,224.4,854.1z M-333.1,832.8L-333.1,832.8c-3,0-5.5-2.5-5.4-5.5l1.7-254c0-3,2.4-5.4,5.4-5.4l0,0
					c3,0,5.4,2.5,5.4,5.5l-1.7,254C-327.7,830.4-330.1,832.8-333.1,832.8z M1002.7,667.4c-1.4,0-2.8-0.5-3.8-1.6
					c-1.1-1.1-1.6-2.5-1.6-3.8c0-1.4,0.5-2.8,1.6-3.8l93.8-93.7l57.9-59.6l2.8-1.5l47.7-9.4c0.2,0,0.4-0.1,0.5-0.1l220.4-43.3
					l24.3-13.8l17.5-15l86.5-75.4l17.5-24.2c1.8-2.4,5.2-3,7.6-1.2s3,5.2,1.2,7.6l-18.7,25.6l-87,75.9l-18.8,16l-25.6,14.5l-1.6,0.6
					l-267.7,52.4l-56.8,58.5l-93.8,93.8C1005.5,666.9,1004.1,667.4,1002.7,667.4z M-377.4,520c-2.4,0-4.7-1.7-5.3-4.2l-39.2-162
					c-0.7-2.9,1.1-5.9,4-6.6s5.9,1.1,6.6,4l39.2,162c0.7,2.9-1.1,5.9-4,6.6C-376.6,519.9-377,520-377.4,520z M-323.7,254
					c-3,0-5.4-2.4-5.4-5.4v-23l-0.8-49.4V81.5c0-3,2.4-5.4,5.4-5.4s5.4,2.4,5.4,5.4v94.6l0.8,49.4v23.1
					C-318.3,251.5-320.7,254-323.7,254z"/>
			</g>
		</g>
	</g>
	<g>
		<defs>
			<rect id="SVGID_21_" x="-132.5" width="1511.4" height="1692.3"/>
		</defs>
		<clipPath id="SVGID_22_">
			<use xlink:href="#SVGID_21_"  style="overflow:visible;"/>
		</clipPath>
		<g id="Service-Outline_1_" class="st20">
			<g id="Acceso-camping-El-Carmelo_1_">
				<path class="st19" d="M339.1,1726.3c-2.9,0-5.3-2.2-5.4-5.1l-3.9-69.2c-0.1-3,2.2-5.5,5.2-5.7s5.5,2.2,5.7,5.2l0.9,17.9l3,51.2
					c0.2,3-2.1,5.6-5.1,5.7C339.3,1726.3,339.2,1726.3,339.1,1726.3z"/>
			</g>
			<g>
				<path class="st19" d="M1413.1,1726.3c-0.3,0-0.5,0-0.8-0.1c-3-0.4-5-3.2-4.6-6.1l10-71.8c0.4-3,3.1-5,6.1-4.6s5,3.2,4.6,6.1
					l-10,71.8C1418.1,1724.4,1415.7,1726.3,1413.1,1726.3z M802.5,1016.9l-19.9-0.8c-3-0.1-5.3-2.7-5.2-5.7s2.5-5.3,5.7-5.2
					l19.6,0.8l77.2-1.7c0.1,0,0.3,0,0.4,0l0,0l0,0l0,0l0,0l0,0l0,0l0,0c0.1,0,0.2,0,0.3,0l0,0l0,0l0,0l0,0l0,0l0,0l0,0l0,0l0,0l0,0
					l0,0l0,0l0,0l0,0l0,0l0,0l0,0l0,0l0,0l0,0l0,0l0,0c1.3,0.3,2.5,1.1,3.3,2.3l0,0c0,0,0,0,0,0.1l0,0l0,0l0,0l0,0l0,0l0,0l0,0l0,0
					l0,0l0,0l0,0l0,0l0,0l0,0l0,0l0,0l0,0l0,0l0,0l0,0l0,0l0,0l0,0l0,0l0,0l0,0l0,0l0,0l0,0l0,0l0,0l0,0l0,0l0,0l0,0l0,0l0,0l0,0
					l0,0l0,0l0,0l0,0l0,0l0,0l0,0c0.3,0.7,0.5,1.4,0.5,2.2c0,0.1,0,0.2,0,0.2l0,0l0,0l0,0l0,0l0,0l0,0l0,0l0,0l0,0l0,0l0,0l0,0l0,0
					l0,0l0,0l0,0l0,0l0,0l0,0l0,0l0,0l0,0l0,0l0,0l0,0l0,0l0,0l0,0l0,0l0,0l0,0l0,0l0,0l0,0l0,0l0,0l0,0l0,0l0,0l0,0l0,0l0,0l0,0
					l0,0l0,0l0,0l0,0l0,0l0,0l0,0l0,0l0,0l0,0l0,0l0,0l0,0l0,0l0,0l0,0l0,0l0,0l0,0l0,0l0,0l0,0l0,0l0,0l0,0l0,0l0,0l0,0l0,0l0,0
					l0,0l0,0l0,0l0,0l0,0l0,0l0,0l0,0l0,0l0,0c-0.3,0.9-0.7,1.7-1.4,2.4l0,0l0,0l0,0l0,0l0,0l0,0l0,0l0,0l0,0l0,0l0,0l0,0l0,0l0,0
					l0,0l0,0l0,0l0,0l0,0l0,0l0,0l0,0l0,0l0,0l0,0l0,0l0,0l0,0l0,0l0,0l0,0l0,0l0,0l0,0l-0.1,0.1l0,0c-0.2,0.1-0.3,0.2-0.5,0.3l0,0
					l0,0l0,0l0,0l0,0l0,0l0,0l0,0l0,0l0,0l0,0l0,0l0,0l0,0l0,0l0,0l0,0l0,0l0,0l0,0l0,0l0,0l0,0l0,0l0,0l0,0l0,0l0,0l0,0l0,0l0,0
					c-0.6,0.2-1.2,0.3-1.8,0.4l-27.3,0.9c-0.6,0-1.2-0.1-1.8-0.2L802.5,1016.9z M1769.1,923.2c-3,0-5.4-2.4-5.4-5.4l-0.9-143.2
					c0-3,2.4-5.4,5.4-5.5l0,0c3,0,5.4,2.4,5.4,5.4l0.9,143.2C1774.6,920.7,1772.2,923.2,1769.1,923.2L1769.1,923.2z M-118.9,914.6
					l-1-0.1l-29.9-4.3l-2.2-0.8l-17-11.1l-1.9-2.1l-18.8-36.6l-0.5-1.7l-7.6-55.4l0.8-3.7l11.1-17l2.5-2.1l25.7-10.6l94.3-20.3
					l-12.8-15.1l-68.9-68.1l-27.1-10.7l-2.5-2.1l-28-42.4l-12.6-16c-1.9-2.4-1.5-5.8,0.9-7.6c2.4-1.9,5.8-1.5,7.6,0.9l13,16.6
					l27.2,41.2l26.5,10.5l1.8,1.2l70.2,69.4l18.7,22.1l0.1,0.1l9.2,10.1l29.9,33.9l60.5-2.5h16.4c3,0,5.4,2.4,5.4,5.4
					s-2.4,5.4-5.4,5.4H50.5l-54.6,2.2l28.8,59.9l-1.9,6.9L-21.5,900l-1.8,0.8l-51.3,12L-118.9,914.6z M-147,899.7l28.2,4l43.3-1.7
					l48.8-11.6l39.6-26.7l-30.1-62.4l-38.2-43.1l-99.6,21.5l-22.7,9.4l-9.1,13.9l7.2,52.5l17.7,34.5L-147,899.7z M50.5,687.9
					c-2.8,0-5.1-2.1-5.4-4.9l-0.9-8.5L40,641.4l-1.7-10c-0.5-3,1.5-5.8,4.5-6.2c2.9-0.5,5.8,1.5,6.2,4.5l1.7,10.2l4.3,33.4l0.9,8.7
					c0.3,3-1.9,5.7-4.9,6C50.9,687.9,50.7,687.9,50.5,687.9z M-144.7,311.1c-2.9,0-5.3-2.2-5.4-5.1c-0.2-3,2.1-5.6,5.1-5.7l72.4-4.3
					c3-0.2,5.6,2.1,5.7,5.1c0.2,3-2.1,5.6-5.1,5.7l-72.4,4.3C-144.5,311.1-144.6,311.1-144.7,311.1z"/>
			</g>
			<g id="Acceso-Cementerio-La-Tirana_1_">
				<path class="st19" d="M1310.7,1726.3c-0.4,0-0.9-0.1-1.3-0.2l-44.9-11.1l-9-0.8c-3-0.3-5.2-2.9-4.9-5.9c0.3-3,3-5.2,5.9-4.9
					l10.2,1l45.3,11.2c2.9,0.7,4.7,3.7,4,6.6C1315.3,1724.7,1313.1,1726.3,1310.7,1726.3z"/>
			</g>
			<g id="Acceso-a-Capilla-La-Tirana_1_">
				<path class="st19" d="M1286.1,1613.6l-16.2-1.7l-21.4-2.6c-3-0.4-5.1-3.1-4.7-6c0.4-3,3.1-5.1,6-4.7l21.3,2.6l14.5,1.5l13.9-6.9
					l15.6-6.9l1.9-0.5l13.6-0.9h1l40.1,5.1c3,0.4,5.1,3.1,4.7,6.1s-3.2,5.1-6.1,4.7l-39.6-5.1l-12.2,0.8l-14.5,6.4l-15.1,7.5
					L1286.1,1613.6z"/>
			</g>
		</g>
	</g>
	<g>
		<defs>
			<rect id="SVGID_23_" x="-132.5" width="1511.4" height="1692.3"/>
		</defs>
		<clipPath id="SVGID_24_">
			<use xlink:href="#SVGID_23_"  style="overflow:visible;"/>
		</clipPath>
		<g id="Local-Outline_1_" class="st21">
			<g id="Las-Cuyacas_1_">
				<path class="st19" d="M1009.6,808.9c-3,0-5.4-2.4-5.4-5.4s2.4-5.4,5.4-5.4h17.9l56.9-1.7l106.1-6.8l10.8-1.7
					c0.6-0.1,1.2-0.1,1.7,0l19.7-2.6c3-0.4,5.7,1.7,6.1,4.7s-1.7,5.7-4.7,6.1l-32.8,4.3l-106.6,6.8l-57.3,1.7L1009.6,808.9z"/>
			</g>
			<g id="Santa-Rosa_1_">
				<path class="st19" d="M1255.6,1726.3c-0.1,0-0.1,0-0.2,0c-3-0.1-5.4-2.6-5.3-5.6l1.2-45.2l-10-29.8l-9.2-29.3l-6.1-10.3
					l-199.8-48.1l-13.7-3.4l-3.4-2.5l-21.3-35.8c-0.5-0.9-0.8-1.8-0.8-2.8c0-1.9,0.9-3.7,2.7-4.7c2.6-1.5,5.9-0.7,7.4,1.9l20.1,33.9
					l11.4,2.8l174.7,41.8c0.5,0.1,1,0.3,1.4,0.6l25.6,6.2l19.3,2.5c3,0.4,5.1,3.1,4.7,6.1s-3.2,5.1-6.1,4.7l-8.5-1.1l2.4,4.3
					l9.4,29.8l10.2,30.6l0.3,1.9l-1.2,46.2C1260.9,1724,1258.5,1726.3,1255.6,1726.3z"/>
			</g>
			<g id="Pedro-Guadama_1_">
				<path class="st19" d="M716.3,1726.3c-2.9,0-5.3-2.3-5.4-5.2l-2.6-62.4c-0.1-3,2.2-5.5,5.2-5.7c3.1,0,5.5,2.2,5.7,5.2l2.6,62.4
					c0.1,3-2.2,5.5-5.2,5.7C716.5,1726.3,716.4,1726.3,716.3,1726.3z"/>
			</g>
			<g id="Vasco-de-Almeyda_1_">
				<path class="st19" d="M946.5,1589.8c-1,0-2-0.3-3-0.9c-1.6-1-2.5-2.8-2.5-4.6c0-1,0.3-2,0.9-3l45.9-70.6l6.3-11.9l16.1-78.5
					l1.6-9.7l2.6-62.4l8.5-62.7l-1.7-68.6l-5.1-133.7l-1.7-34.1l-3.4-93l-1.7-23.7l-7.7-195.4l-4.3-74.9L993,480.3v-0.1
					c0-2.9,2.3-5.4,5.3-5.4c2.8-0.1,5.5,2.3,5.6,5.3l4.3,181.6l4.3,74.8l7.7,195.3l1.7,23.7l3.4,93.1l1.7,34l5.1,133.9l1.7,69.1
					l-0.1,0.9l-0.9,6l-7.6,56.8l-2.6,62.6l-1.7,10.3l-16.2,79.5l-0.5,1.5l-7.1,13.2l-46,70.8C950,1588.9,948.3,1589.8,946.5,1589.8z
					"/>
			</g>
			<g id="Pedro-de-Guagama_1_">
				<path class="st19" d="M715.5,1581.3c-2.9,0-5.4-2.4-5.4-5.3l-1.7-82.7l0.1-1l12.8-78.4l29-149.1l5.1-46.6l20.5-168.9l3.4-79.7
					v-33.8l-0.8-128c-0.6,0.3-1.2,0.4-1.8,0.5c-3.1,0.2-5.6-2-5.8-5l-5.1-65.7l-4.3-103.3l-4.3-156.1v-8.7l-1.7-56.1l-0.9-11.7
					l-1.7-57.3l-6-286.5c-0.1-3,2.3-5.5,5.3-5.5h0.1c2.9,0,5.4,2.4,5.4,5.3l6,286.4l1.7,57.1l0.9,11.7l1.7,56.5v8.7l4.3,155.9
					l4.3,103.1l4.8,61.1c0.8-0.4,1.6-0.6,2.5-0.6l0,0c3,0,5.4,2.4,5.4,5.4l0.9,133v34.1l-3.4,80.4l-20.5,169.2l-5.2,47.2l-29,149.2
					l-12.7,77.8l1.7,82.2c0.1,3-2.3,5.5-5.3,5.5C715.5,1581.3,715.5,1581.3,715.5,1581.3z M755.5,1265.5L755.5,1265.5L755.5,1265.5z
					"/>
			</g>
			<g id="Los-Sambos_1_">
				<path class="st19" d="M1019.8,1354.5c-3,0-5.4-2.4-5.4-5.4s2.4-5.4,5.4-5.4h7.6l126.8-6c3-0.1,5.5,2.2,5.7,5.2
					c0,0.1,0,0.2,0,0.3c0,2.9-2.3,5.3-5.2,5.4l-127,6L1019.8,1354.5z"/>
			</g>
			<g id="Los-Tamarugos_1_">
				<path class="st19" d="M-73.1,280.4c-3,0-5.4-2.4-5.4-5.4s2.4-5.5,5.4-5.5l78.4-0.8h108.3l141.3-5.1l152,0.9l51.9-0.9
					c3.1,0,5.5,2.3,5.5,5.3c0.1,3-2.3,5.5-5.3,5.5l-52,0.9l-151.9-0.9l-141.3,5.2H5.3L-73.1,280.4C-73,280.4-73,280.4-73.1,280.4z"
					/>
			</g>
			<g id="Circunvalaci-n-Norte_1_">
				<path class="st19" d="M458,191.7L458,191.7l-204.7-5.1l-142.2-0.9c-3,0-5.4-2.5-5.4-5.5s2.4-5.4,5.4-5.4l0,0l142.3,0.9
					l204.7,5.1c3,0.1,5.4,2.6,5.3,5.6C463.4,189.4,461,191.7,458,191.7z"/>
			</g>
			<g id="_x32_1-de-Mayo_1_">
				<path class="st19" d="M117,420.2c-2.9,0-5.3-2.3-5.4-5.2c-0.1-3,2.2-5.5,5.2-5.6l141.5-5.1l204.6-6.8c3-0.1,5.5,2.3,5.6,5.3
					s-2.2,5.5-5.2,5.6l-204.6,6.8l-141.5,5.1C117.2,420.2,117.1,420.2,117,420.2z"/>
			</g>
			<g id="Marco-Castro_1_">
				<path class="st19" d="M-73.1,353.7c-3,0-5.4-2.4-5.4-5.4s2.4-5.5,5.4-5.5l117.6-1.7c3,0,5.5,2.4,5.5,5.4s-2.4,5.5-5.4,5.5
					L-73.1,353.7C-73,353.7-73,353.7-73.1,353.7z"/>
			</g>
			<g id="Pasaje-Santa-Elena_1_">
				<path class="st19" d="M-50.9,83.5L-50.9,83.5c-3.1,0-5.5-2.5-5.4-5.5l1.3-95.6c0-3,2.5-5.4,5.4-5.4h0.1c3,0,5.4,2.5,5.4,5.5
					l-1.3,95.6C-45.5,81.1-47.9,83.5-50.9,83.5z"/>
			</g>
			<g id="M-Gonz-lez_1_">
				<path class="st19" d="M105.1,1156.7c-2.9,0-5.3-2.3-5.4-5.3s2.3-5.5,5.3-5.6l162.9-4.3c2.8-0.1,5.5,2.3,5.6,5.3
					s-2.3,5.5-5.3,5.6l-162.9,4.3C105.2,1156.7,105.1,1156.7,105.1,1156.7z"/>
			</g>
			<g id="Santa-Marta_1_">
				<path class="st19" d="M233,1588.1c-3,0-5.4-2.4-5.4-5.4l-0.8-81l-1.7-76.7l-2.6-75.8l-0.9-35c-0.1-3,2.3-5.5,5.3-5.6
					s5.5,2.3,5.6,5.3l0.9,35l2.6,75.8l1.7,76.8l0.8,81C238.4,1585.6,236,1588.1,233,1588.1L233,1588.1z M300.3,1352
					c-2.9,0-5.3-2.3-5.4-5.2l-1.7-36.7l-3.4-79.3c-0.1-3,2.2-5.5,5.2-5.7c2.9,0,5.5,2.2,5.7,5.2l5.1,115.9c0.1,3-2.2,5.5-5.2,5.7
					C300.5,1352,300.4,1352,300.3,1352z"/>
			</g>
			<g id="Calle-Violeta_1_">
				<path class="st19" d="M-419.2,722.8c-2.9,0-5.4-2.3-5.4-5.3c-0.1-3,2.3-5.5,5.3-5.6l30.4-0.7l-3.3-144.6c-0.1-3,2.3-5.5,5.3-5.6
					c3.2-0.1,5.5,2.3,5.6,5.3l3.4,150.1l-5.3,5.6l-35.8,0.8C-419.1,722.8-419.1,722.8-419.2,722.8z"/>
			</g>
			<g id="Iquique_1_">
				<path class="st19" d="M129.8,1323.8c-2.9,0-5.3-2.3-5.4-5.2c-0.1-3,2.2-5.5,5.2-5.7l97.2-4.3l71.5-4.3c3.1-0.2,5.6,2.1,5.7,5.1
					c0.2,3-2.1,5.6-5.1,5.7l-71.6,4.3l-97.3,4.3C130,1323.8,129.9,1323.8,129.8,1323.8z"/>
			</g>
			<g id="Oscar-Bonilla_1_">
				<path class="st19" d="M227.9,1354.5c-2.9,0-5.3-2.3-5.4-5.2c-0.1-3,2.2-5.5,5.2-5.6l72.5-2.6l82.7-3.4c2.9-0.1,5.5,2.2,5.7,5.2
					c0.1,3-2.2,5.5-5.2,5.7l-82.7,3.4l-72.5,2.6C228,1354.5,227.9,1354.5,227.9,1354.5z"/>
			</g>
			<g id="Pasaje-10-Oriente_1_">
				<path class="st19" d="M128.9,603.5c-2.8,0-5.2-2.1-5.4-4.9c-0.3-3,1.9-5.6,4.9-5.9l75.9-6.8l64.1-4.3c3-0.2,5.6,2.1,5.8,5.1
					c0.2,3-2.1,5.6-5.1,5.8l-63.9,4.3l-75.8,6.8C129.3,603.5,129.1,603.5,128.9,603.5z"/>
			</g>
			<g id="Calle-Pablo-Neruda_1_">
				<path class="st19" d="M-719.2,814.9c-2.9,0-5.3-2.2-5.4-5.1L-740,524.2c-0.2-3,2.1-5.6,5.1-5.7c3-0.2,5.6,2.1,5.7,5.1
					l15.3,285.6c0.2,3-2.1,5.6-5.1,5.7C-719,814.9-719.1,814.9-719.2,814.9z"/>
			</g>
			<g id="Pasaje-San-Mateo_1_">
				<path class="st19" d="M-772.1,813.2c-2.9,0-5.3-2.3-5.4-5.2l-12.8-289.8c-0.1-3,2.2-5.5,5.2-5.7c2.9-0.1,5.5,2.2,5.7,5.2
					l12.8,289.8c0.1,3-2.2,5.5-5.2,5.7C-771.9,813.2-772,813.2-772.1,813.2z"/>
			</g>
			<g id="Tarapac-_1_">
				<path class="st19" d="M382.2,1585.5c-3,0-5.4-2.4-5.4-5.4v-82.7l1.7-76l-0.8-78.3l-6.8-114.8l-6-166.4l-5.2-124.3L352,835.5
					l-3.4-75.2l-6-99.7l-9.3-177.4c-0.2-3,2.1-5.6,5.1-5.7c3-0.2,5.6,2.1,5.7,5.1l9.3,177.3l6,99.7l3.4,75.1l7.7,102.1l5.1,124.6
					l6,166.3l6.8,115l0.8,78.7l-1.7,76.1v82.5C387.6,1583.1,385.2,1585.5,382.2,1585.5z"/>
			</g>
			<g id="Pasaje-Juan-Pablo-II_1_">
				<path class="st19" d="M-470.3,828.5c-2.9,0-5.3-2.2-5.4-5.1L-491,554.9c-0.2-3,2.1-5.6,5.1-5.7c3.1-0.2,5.6,2.1,5.7,5.1
					l15.3,268.5c0.2,3-2.1,5.6-5.1,5.7C-470.1,828.5-470.2,828.5-470.3,828.5z M-590.5,539.6c-2.7,0-5.1-2-5.4-4.8l-23-196.9v-1.1
					l8.5-101.4c0.3-3,3-5.2,5.9-5c3,0.3,5.2,2.9,5,5.9l-8.5,100.9l23,196.4c0.3,3-1.8,5.7-4.8,6
					C-590.1,539.5-590.3,539.6-590.5,539.6z"/>
			</g>
			<g id="Huatacondo_1_">
				<path class="st19" d="M-306.6,359.7l-110.6-1.7l-46.9-5.1l-74.1-6.8l-30.3-0.8l-45.4-2.6l-21.6-2.6l-40.1-7.6l-17.5-0.9H-773
					h-0.5l-32-2.8c-3-0.3-5.2-2.9-4.9-5.9s2.9-5.2,5.9-4.9l31.8,2.8h79.9l18.9,1l40.1,7.6l20.9,2.5l44.9,2.5l30.5,0.9l74.5,6.8
					l46.7,5.1l109.7,1.7l55.2-0.8l178.1-5.1c3-0.2,5.5,2.3,5.6,5.3s-2.3,5.5-5.3,5.6l-178.2,5.1L-306.6,359.7z"/>
			</g>
			<g id="Pasaje-San-Pedro_1_">
				<path class="st19" d="M-131,232.7c-2.9,0-5.3-2.3-5.4-5.3l-4.3-147.5l0.5-97.5c0-3,2.4-5.4,5.4-5.4l0,0c3,0,5.4,2.5,5.4,5.5
					l-0.5,97.3l4.3,147.3c0.1,3-2.3,5.5-5.3,5.6H-131z"/>
			</g>
			<g id="Santa-Teresa-de-Los-Andes_1_">
				<path class="st19" d="M140.9,771.4c-2.8,0-5.2-2.2-5.4-5.1l-6-91.2l-6-76.6l-8.5-104l-6-132.3l-0.9-88l-2.5-93.7l-0.9-99.8
					v-98.2c0-3,2.4-5.4,5.4-5.4s5.4,2.4,5.4,5.4v98.1l0.9,99.7l2.5,93.7l0.9,87.9l2.6,52.6l0.8,22.2l2.6,57.1l8.5,103.8l6,76.7
					l6,91.3c0.2,3-2.1,5.6-5.1,5.8C141.1,771.4,141,771.4,140.9,771.4z"/>
			</g>
			<g id="Libertad_1_">
				<path class="st19" d="M270.5,1236c-2.9,0-5.3-2.3-5.4-5.3l-2.6-83.5v-81.1l-1.7-127l-5.9-96l-1.7-79.5l-2.6-97.2
					c-0.1-3,2.3-5.5,5.3-5.6c3.1-0.2,5.5,2.3,5.6,5.3l2.6,97.2l1.7,79.3l5.9,96.1l1.7,127.3v81l2.6,83.4c0.1,3-2.3,5.5-5.3,5.6
					C270.6,1236,270.6,1236,270.5,1236z M272.2,670.9c-2.9,0-5.3-2.3-5.4-5.2l-3.4-78.4l-6.8-100.4l-3.4-76.9l-1.7-49.5L248,181.3
					c-0.1-3,2.3-5.5,5.3-5.5h0.1c3,0,5.4,2.4,5.4,5.3l3.4,179l1.7,49.3l3.4,76.7l6.8,100.4l3.4,78.6
					C277.6,668.1,275.3,670.6,272.2,670.9C272.4,670.8,272.3,670.9,272.2,670.9z"/>
			</g>
			<g id="Arc-ngeles_1_">
				<path class="st19" d="M-674,536.2c-2.8,0-5.1-2.1-5.4-4.9l-18.7-203.7l-21.8-46l-0.5-1.7l-2.6-24.2l2.5-22.7l-0.9-98.5V134
					l1.7-20.5l4.3-31.8c0.4-3,3.1-5.1,6.1-4.7c3,0.4,5.1,3.1,4.7,6.1l-4.3,31.6l-1.7,19.9l0.9,98.6v0.6l-2.5,22.4l2.4,21.5
					l21.8,46.1l0.5,1.8l18.8,204.6c0.3,3-1.9,5.6-4.9,5.9C-673.7,536.2-673.9,536.2-674,536.2z"/>
			</g>
			<g id="Mami-a_1_">
				<path class="st19" d="M-229.1,255.7h-28.1l-66.6-1.7l-99.8-4.3l-33.4-2.6l-61.1-1.7l-11.4-0.9l-75.7-3.4l-12.9-0.9l-96.9-1.7
					c-3-0.1-5.4-2.5-5.3-5.5c0.1-3,2.5-5.2,5.5-5.3l97.2,1.7l13.1,0.9l75.8,3.4l11.3,0.9l61.1,1.7l33.5,2.6l99.6,4.2l66.4,1.7h28
					c3,0,5.4,2.4,5.4,5.4C-223.6,253.2-226.1,255.7-229.1,255.7z M-130.9,232.7l-98.2-0.9h-70.7l-24-0.8l-99.7-2.6
					c-3-0.1-5.4-2.6-5.3-5.6s2.8-5.4,5.6-5.3l99.7,2.6l23.9,0.8h70.6l98.1,0.9l56.1-0.9h0.1c3,0,5.4,2.4,5.4,5.3
					c0,3-2.3,5.5-5.3,5.5L-130.9,232.7z"/>
			</g>
			<g id="Pasaje-Huasqui-a_1_">
				<path class="st19" d="M-518.1,535.3c-2.7,0-5.1-2.1-5.4-4.9l-19.6-190.2l8.5-101.5c0.3-3,2.8-5.2,5.9-5c3,0.3,5.2,2.9,5,5.9
					l-8.5,101l19.5,188.7c0.3,3-1.9,5.7-4.8,6C-517.7,535.3-517.9,535.3-518.1,535.3z"/>
			</g>
			<g id="Padre-Hurtado_1_">
				<path class="st19" d="M103.1,1726.3c-3,0-5.4-2.4-5.4-5.4l-1.4-122l4.3-5.4l56.2-12c3-0.6,5.8,1.2,6.4,4.2s-1.2,5.8-4.2,6.4
					l-51.9,11l1.3,117.6C108.6,1723.8,106.2,1726.3,103.1,1726.3L103.1,1726.3z"/>
			</g>
			<g id="Vicente-Hinojoza_1_">
				<path class="st19" d="M176.3,1726.3c-2.9,0-5.3-2.3-5.4-5.2l-2.1-52.2l-0.9-42.7c-0.1-3,2.3-5.5,5.3-5.5
					c2.9-0.1,5.5,2.3,5.5,5.3l0.9,42.6l2.1,52c0.1,3-2.2,5.5-5.2,5.6C176.4,1726.3,176.4,1726.3,176.3,1726.3z"/>
			</g>
			<g id="Arturo-Prat-Chac-n_1_">
				<path class="st19" d="M1016.4,961.5c-3,0-5.4-2.4-5.4-5.4s2.4-5.4,5.4-5.4h11.1l62.2-0.8l112.5-2.6c0.3,0,0.6,0,0.9,0.1
					l41.7-0.9h0.1c2.9,0,5.4,2.4,5.4,5.3c0.1,3-2.3,5.5-5.3,5.6l-155.1,3.4L1016.4,961.5z M81.2,947.9c-3,0-5.4-2.4-5.4-5.3
					c-0.1-3,2.3-5.5,5.3-5.5l185-3.4L365,932l117.6-2.6c3.1-0.1,5.5,2.3,5.6,5.3s-2.3,5.5-5.3,5.5l-117.6,2.6l-98.9,1.7L81.2,947.9
					C81.3,947.9,81.3,947.9,81.2,947.9z M583.3,944.5c-3,0-5.4-2.4-5.4-5.3c-0.1-3,2.3-5.5,5.3-5.5l201.2-3.4l230.2-3.4h0.1
					c3,0,5.4,2.4,5.4,5.3c0,1.8-0.8,3.4-2.1,4.4l0,0l0,0l0,0l0,0l0,0l0,0l0,0l0,0l0,0l0,0l0,0l0,0l0,0l0,0l0,0l0,0l0,0l0,0l0,0l0,0
					l0,0l0,0l0,0l0,0l0,0l0,0l0,0l0,0l0,0l0,0l0,0l0,0l0,0l0,0l0,0l0,0l0,0l0,0l0,0c-0.8,0.5-1.8,0.8-2.8,0.8h-0.1L853.2,940
					c-0.5,0-0.9,0-1.3-0.1l-66.9,1L583.3,944.5C583.4,944.5,583.4,944.5,583.3,944.5z"/>
			</g>
			<g id="Eleuterio-Ram-rez_1_">
				<path class="st19" d="M100,1116.7c-0.7,0-1.5-0.1-2.2-0.5c-2.8-1.2-4-4.4-2.8-7.2l17.9-40.9l4.8-3.3l150.1-4.3l102.2-4.3
					l116.7-6.8h9.7l93.5-4.3c2.6-0.1,5,1.7,5.5,4.2l185.5-5l1.5,0.2l29.1,7.5l39-1.2c0.6-0.3,1.3-0.4,2.1-0.5l39.2-0.8l127.8-6h7.9
					l61.2-1.7l58.8-2.6l59.1,0.9h34.9c3,0,5.4,2.4,5.4,5.4s-2.4,5.4-5.4,5.4l-38.4-0.1c-0.3,0-0.6,0-0.8,0.1l-54.5-0.9l-58.5,2.6
					l-69.3,1.7l-127.6,6l-81.1,2.5l-1.5-0.2l-29.1-7.5l-189.3,5.1c-2.5,0.1-4.8-1.7-5.4-4.1l-89.1,4.1h-9.6l-116.5,6.8l-102.3,4.3
					l-146.7,4.2l-16.5,37.7C104.1,1115.5,102.1,1116.7,100,1116.7z"/>
			</g>
			<g id="Los-Algarrobos_1_">
				<path class="st19" d="M118.7,1244.5c-2.9,0-5.3-2.2-5.4-5.1c-0.2-3,2.1-5.6,5.1-5.7l151.8-8.5h25l80.8-2.6l114.3-1.7l108.2-2.6
					l161.9-5.1l90.5-0.6c0.5-0.2,1.1-0.3,1.7-0.3l174.8-0.9l65.6-0.8l59.6-1.7l66.5-1.7c2.9-0.2,5.5,2.3,5.6,5.3s-2.3,5.5-5.3,5.6
					l-15,0.4c-0.7,0.3-1.4,0.5-2.2,0.5l-49.4,0.8l-59.6,1.7l-66.7,0.8l-265.9,1.7l-161.8,5.1l-108.3,2.6l-114.3,1.7l-80.9,2.6h-24.9
					l-151.5,8.5C118.9,1244.5,118.8,1244.5,118.7,1244.5z"/>
			</g>
			<g>
				<path class="st19" d="M537.8,1726.3c-2.9,0-5.3-2.3-5.4-5.2l-1.3-31.7c-0.1-3,2.2-5.5,5.2-5.7c3-0.1,5.5,2.2,5.7,5.2l1.3,31.7
					c0.1,3-2.2,5.5-5.2,5.7C537.9,1726.3,537.9,1726.3,537.8,1726.3z M-445.7,1726.3c-3,0-5.4-2.4-5.4-5.4l-0.7-70.1l-227.1-10.6
					l-0.8,80.6c0,3-2.5,5.3-5.5,5.4c-3,0-5.4-2.5-5.4-5.5l0.8-81.2l-101.5-7.3c-3-0.2-5.2-2.8-5-5.8s2.8-5.3,5.8-5l100.7,7.2
					l-1.7-220v-211.5l-38.6,8.8l-22,3.5l-53.3-3.3c-3-0.2-5.3-2.8-5.1-5.8s2.8-5.3,5.8-5.1l52.7,3.3l19.8-3.3l40.6-9.2l-1.4-137.4
					l-111.8,2c-2.9-0.1-5.5-2.3-5.5-5.3c-0.1-3,2.3-5.5,5.3-5.5l112-2l2.4-221.4l-28.9-1.4l-52.8-1.7l-32.5,0.9
					c-3.1,0.1-5.5-2.3-5.6-5.3s2.3-5.5,5.3-5.6l32.9-0.9l53.2,1.7l34.2,1.7l109.2,4l-10.8-266.9c-0.1-3,2.2-5.5,5.2-5.6
					c3.1-0.1,5.5,2.2,5.6,5.2l10.9,268l94.9,7.3l28,1.7l109,2.5l26.3,0.8l26.1-20.1l-1.6-41.5l0.9-180.1c0-3,2.4-5.4,5.4-5.4l0,0
					c3,0,5.4,2.5,5.4,5.5l-0.9,179.9l1.7,44.1l-2.1,4.5l-29.8,23l-3.5,1.1l-28.2-0.9l-103.5-2.4l-1.7,154.7l-0.8,158.1l155.3-3.2
					l-2.5-158.3c0-3,2.3-5.5,5.3-5.5h0.1c3,0,5.4,2.4,5.4,5.3l2.5,158.4l60.8,0.7V1026l-1.7-65.5c-0.1-3,2.3-5.5,5.3-5.6h0.1
					c2.9,0,5.4,2.3,5.4,5.3l1.7,65.7v168.5l176-2.5l0,0l137.2-2.6h0.1c2.9,0,5.4,2.4,5.4,5.3c0.1,3-2.3,5.5-5.3,5.5l-131.5,2.5
					l6.9,96.6l140.6-2.5h0.1c3,0,5.4,2.4,5.4,5.3c0.1,3-2.3,5.5-5.3,5.5l-145.8,2.6c-0.1,0-0.1,0-0.2,0H-39l-101.3,1.7l-171.3,3.4
					c-3.1,0-5.5-2.3-5.5-5.3c-0.1-3,2.3-5.5,5.3-5.5l171.3-3.4l101.5-1.7h15.6l-6.9-96.5l-176.4,2.5l0,0l-43.4,0.9
					c-2.9,0-5.5-2.3-5.5-5.3c-0.1-3,2.3-5.5,5.3-5.5l38.1-0.8v-43l-66.2-0.8l-160.5,3.3l1.3,31.6l109.6-5.7c3-0.2,5.6,2.1,5.7,5.1
					c0.2,3-2.1,5.6-5.1,5.7l-109.3,5.7l6.2,53.1c0.3,3-1.8,5.7-4.8,6c-2.9,0.3-5.7-1.8-6-4.8l-6.3-54l-232.7-0.8v212.8l1.7,220.7
					l227,10.6l-0.8-114.4c0-3,2.4-5.5,5.4-5.5l0,0c3,0,5.4,2.4,5.4,5.4l0.9,120.2l0.7,75.2C-440.2,1723.9-442.6,1726.3-445.7,1726.3
					L-445.7,1726.3z M-680.6,1185.1l231.9,0.8l-1.5-37v-0.1c0-0.1,0-0.3,0-0.4l0.8-163.4l1.7-155.1l-23-1.4l-99.7-7.7h-0.1l-109.3-4
					l-2.4,220.8l149.6-0.8l0,0c3,0,5.4,2.4,5.4,5.4s-2.4,5.4-5.4,5.5l-149.7,0.8L-680.6,1185.1z M-136.2,1608.6
					c-3,0-5.4-2.4-5.4-5.3c-0.1-3,2.3-5.5,5.3-5.5l102.3-1.7l135.5-2.5c3.1-0.1,5.5,2.3,5.5,5.3c0.1,3-2.3,5.5-5.3,5.5l-135.6,2.5
					L-136.2,1608.6C-136.1,1608.6-136.1,1608.6-136.2,1608.6z M157.9,1592.4c-2.9,0-5.3-2.2-5.4-5.1c-0.2-3,2.1-5.6,5.1-5.7l75-4.3
					l149.4-2.6l91.2-2.6c3-0.2,5.5,2.3,5.6,5.3s-2.3,5.5-5.3,5.6l-91.2,2.6l-149.3,2.6l-74.8,4.3
					C158.1,1592.4,158,1592.4,157.9,1592.4z M540.7,1583.8c-3,0-5.4-2.4-5.4-5.4s2.4-5.4,5.4-5.4h46.1l128.6-2.6h0.1
					c3,0,5.4,2.4,5.4,5.3c0.1,3-2.3,5.5-5.3,5.5l-128.7,2.6H540.7z M-299.8,1528.4c-3,0-5.4-2.4-5.4-5.3c0-3,2.3-5.5,5.3-5.5
					l264.3-4.3l123.6-2.6l60.7,0.9c3,0,5.4,2.5,5.4,5.5s-2.5,5.4-5.4,5.4h-0.1l-60.6-0.9l-123.4,2.6L-299.8,1528.4L-299.8,1528.4z
					 M-308.4,1421.9c-3,0-5.4-2.4-5.4-5.3c0-3,2.4-5.5,5.4-5.5l169.7-2.6l101.4-1.7l124.4-2.6l52-0.8h0.1c3,0,5.4,2.4,5.4,5.3
					c0,3-2.3,5.5-5.3,5.5l-52,0.8l-124.4,2.6l-101.5,1.7L-308.4,1421.9C-308.3,1421.9-308.3,1421.9-308.4,1421.9z M1802.7,1220.1
					L1802.7,1220.1l-86.4-0.3l-129.1-7.7l-174.1-16.2l-160.9-20.4l-26,0.8c-3.1,0.1-5.5-2.3-5.6-5.3s2.3-5.5,5.3-5.6l26.4-0.8h0.9
					l161.2,20.4l173.7,16.2l128.5,7.6h17l-4.6-112.4l-150.5,8.3c-3.1,0.2-5.6-2.1-5.7-5.1c-0.2-3,2.1-5.6,5.1-5.7l224.6-12.2
					c3-0.2,5.6,2.1,5.7,5.1c0.2,3-2.1,5.6-5.1,5.7l-63.2,3.4l4.7,113l58.3,0.3c3,0,5.4,2.5,5.4,5.5
					C1808.1,1217.7,1805.7,1220.1,1802.7,1220.1z M1574.8,978.6c-2.9,0-5.4-2.4-5.4-5.3c-0.1-3,2.3-5.5,5.3-5.5l166.2-3.4h0.1
					c2.9,0,5.4,2.4,5.4,5.3c0.1,3-2.3,5.5-5.3,5.5L1574.8,978.6C1574.8,978.6,1574.8,978.6,1574.8,978.6z M1567.9,882.2
					c-0.8,0-1.7-0.2-2.5-0.6l-174.8-88.7c0,0,0,0-0.1,0l-19.6-10.2l-85.5-38.9l-60.2-17.8l-47.4-11c-0.7-0.1-1.3-0.4-1.8-0.8l0,0
					l0,0l0,0l0,0l0,0l0,0l0,0l0,0l0,0l0,0l0,0l0,0l0,0l0,0l0,0l0,0l0,0l0,0l0,0l0,0l0,0l0,0l0,0l0,0l0,0l0,0l0,0c0,0,0,0-0.1,0l0,0
					l0,0l0,0l0,0l0,0c0,0,0,0-0.1,0l0,0l-0.1-0.1l0,0l0,0l0,0l0,0l0,0l0,0l0,0l0,0l0,0l0,0l0,0l0,0l0,0l0,0l0,0l0,0l0,0l0,0l0,0l0,0
					l0,0l0,0l0,0l0,0l0,0l0,0l0,0l0,0l0,0l0,0l0,0l0,0l0,0l0,0l0,0l0,0l0,0l0,0l0,0l0,0l0,0c-0.7-0.9-1.1-2.1-1.1-3.3l0,0l0,0l0,0
					l0,0l0,0l0,0l0,0l0,0l0,0l0,0l0,0l0,0l0,0l0,0l0,0l0,0l0,0l0,0l0,0l0,0l0,0l0,0l0,0l0,0l0,0l0,0l0,0l0,0l0,0l0,0l0,0l0,0l0,0
					l0,0l0,0l0,0l0,0l0,0l0,0l0,0l0,0l0,0l0,0l0,0l0,0l0,0l0,0l0,0l0,0l0,0l0,0l0,0l0,0l0,0l0,0l0,0l0,0l0,0l0,0l0,0l0,0l0,0l0,0
					l0,0l0,0v-0.1c0.1-0.6,0.4-1.2,0.7-1.6l0,0l0,0l0,0l0,0l0,0l0,0l0,0l0,0l0,0l0,0l0,0l0,0l0,0l0,0l0,0l0,0l0,0l0,0l0,0l0,0
					c0.4-0.5,0.9-1,1.4-1.4l0,0l0,0l0,0l0,0c0.9-0.6,2-0.9,3.1-0.9l0,0l0,0l0,0l0,0l0,0l0,0l0,0l0,0l0,0l0,0l0,0l0,0l0,0l0,0l0,0
					l0,0l0,0h0.1l0,0l0,0l0,0l0,0l0,0l0,0l0,0l0,0l0,0h0.1l23,5.1c0.6,0.1,1.1,0.3,1.6,0.6l23.2,5.4l61.6,18.3l86.1,39.2l18.1,9.4
					l30.4-7.3l132.1-10.3h11.5l200.4,4.3l34.4,0.4c3,0,5.4,2.5,5.4,5.5s-2.5,5.4-5.4,5.4c0,0,0,0-0.1,0l-34.5-0.4l-200.4-4.3h-11
					l-131.3,10.2l-16.8,4.1l161.6,82c2.7,1.4,3.7,4.6,2.4,7.3C1571.8,881.2,1569.9,882.2,1567.9,882.2z M1572.2,660.6
					c-3,0-5.4-2.4-5.4-5.4s2.4-5.5,5.4-5.5l148.3-1.7c2.9,0,5.5,2.4,5.5,5.4s-2.4,5.5-5.4,5.5L1572.2,660.6L1572.2,660.6z
					 M43.7,605.2L43.7,605.2c-3.1,0-5.5-2.5-5.4-5.5l2.6-161.9l0,0l-1.7-91l-1.7-72.4L38.4,79c0-3,2.4-5.4,5.4-5.4l0,0
					c3,0,5.4,2.5,5.4,5.5l-0.9,195.2l1.7,72.3l1.6,85.9l66.2-0.8c0,0,0,0,0.1,0c3,0,5.4,2.4,5.4,5.4s-2.4,5.5-5.4,5.5l-66.3,0.8
					l-2.5,156.7C49.1,602.8,46.7,605.2,43.7,605.2z M204.8,596.7c-2.8,0-5.2-2.2-5.4-5l-7.6-100.6c-0.2-3,2-5.6,5-5.8s5.6,2,5.8,5
					l7.6,100.6c0.2,3-2,5.6-5,5.8C205.1,596.7,205,596.7,204.8,596.7z M-438.8,527.6c-2.7,0-5-2-5.4-4.7l-24.7-174.8V347l6.8-105.7
					c0.2-3,2.8-5.3,5.8-5.1c3,0.2,5.3,2.8,5.1,5.8l-6.8,105.1l24.6,174.2c0.4,3-1.6,5.7-4.6,6.1
					C-438.3,527.6-438.5,527.6-438.8,527.6z M947.3,485c-2.8,0-5.2-2.1-5.4-5l-5.5-64l-175.7,2.5c-3.1,0-5.5-2.4-5.5-5.4
					s2.4-5.5,5.4-5.5l90-1.3c0.6-0.3,1.3-0.4,2-0.4l88.7-0.9l5.5,5l6,69.1c0,0.2,0,0.3,0,0.5c0,2.8-2.1,5.1-5,5.4
					C947.6,485,947.5,485,947.3,485z M759.8,406.6H656.7c-3,0-5.4-2.4-5.4-5.4s2.4-5.4,5.4-5.4h103.1c3,0,5.4,2.4,5.4,5.4
					C765.2,404.1,762.8,406.6,759.8,406.6z M-251.2,358.8c-2.9,0-5.3-2.2-5.4-5.1l-6-103.2c-0.2-3,2.1-5.6,5.1-5.7
					c2.9-0.2,5.6,2.1,5.7,5.1l6,103.2c0.2,3-2.1,5.6-5.1,5.7C-251,358.8-251.1,358.8-251.2,358.8z M5.4,279.6c-3,0-5.4-2.4-5.4-5.4
					L-2.5,78.1c0-3,2.4-5.5,5.4-5.5C6,72.4,8.4,75,8.4,78l2.5,196.1C10.8,277.1,8.4,279.5,5.4,279.6L5.4,279.6z M657.5,269.3
					c-3,0-5.4-2.4-5.4-5.4s2.4-5.5,5.4-5.5l98.9-0.8l0,0c3,0,5.4,2.4,5.4,5.4s-2.4,5.5-5.4,5.5L657.5,269.3
					C657.6,269.3,657.5,269.3,657.5,269.3z M-229.1,255.7c-3,0-5.4-2.4-5.4-5.4v-23.9l-0.8-140.3h-54.2l-34.9,0.9l-92.8-3.2
					l-0.8,160.6c0,3-2.4,5.4-5.4,5.4s-5.4-2.4-5.4-5.4v-21.3l0.8-139.7l-43.2-1.5h-0.1l-38.1,1.5l-2.3,54.7l-0.9,68v34
					c0,3-2.4,5.4-5.4,5.4s-5.4-2.4-5.4-5.4V206l0.9-68.3l2.3-54.1l-83.9,0.8l-3.9,54.7l-4.2,96.2c-0.1,3-2.6,5.3-5.7,5.2
					c-3-0.1-5.3-2.7-5.2-5.7l4.3-96.3l3.8-53.8l-94.5,3.2h-29.2l-38,2.6h-0.9l-8.4-1l-6.8-1.7l-7.9-2.6c-1.1,1.3-2.9,1.9-4.7,1.7
					c-3-0.4-5.1-3-4.8-6l0.2-2c-0.4-1.4-0.4-2.9,0.4-4.3c1.4-2.6,4.7-3.6,7.4-2.2l0.4,0.2c0,0,0.1,0,0.1,0.1l4.5,2.2l7.3,2.4
					l6.1,1.5l6.8,0.7l37.9-2.5h29.3l100.3-3.4c0.1,0,0.2,0,0.3,0l94.5-0.9l0,0l36.7-1.4l-21.3-87.4c-0.7-2.9,1.1-5.9,4-6.6
					s5.9,1.1,6.6,4l21.9,89.9l44.5,1.5l0,0l98,3.4l29.2-0.7l-1.3-92.8c0-3,2.4-5.5,5.4-5.5c3,0.1,5.5,2.4,5.5,5.4l1.3,92.8h54.3l0,0
					l94.6-0.9l58.8-0.8C-73.6,73.8-71,76-71,79s-2.4,5.5-5.4,5.5l-58.8,0.8l-89.2,0.8l0.8,140.4v23.9
					C-223.6,253.2-226.1,255.7-229.1,255.7z M-715,238.6h-0.1l-69.9-1.7h-18.6c-0.1,0-0.3,0-0.4,0h-1.1c-3-0.1-5.3-2.6-5.3-5.6
					c0-1.2,0.5-2.3,1.2-3.2l-1.2-35.7c-0.1-3,2.2-5.5,5.3-5.6c0.1,0,0.1,0,0.2,0c2.9,0,5.3,2.3,5.4,5.3l1.1,34.1h13.5l70,1.7
					c3,0.1,5.4,2.6,5.3,5.6C-709.6,236.3-712,238.6-715,238.6z M1788.7,134.6c-3,0-5.4-2.4-5.4-5.4V115h-209.4c-3,0-5.4-2.4-5.4-5.4
					s2.4-5.4,5.4-5.4h148V36.5l-74.8-1.6l-14.4-0.8l-28.4,1.7l-14.8,2.5l-15.1,4.2c-2.9,0.8-5.9-0.9-6.7-3.8
					c-0.8-2.9,0.9-5.9,3.8-6.7l15.9-4.4l15.9-2.6l29.6-1.7l14.5,0.8l79.9,1.7c0.1,0,0.2,0,0.3,0l42.5,1.7h4l2.4,0.6l4.2,2.2l4,3.1
					l4.2,4.4l2.6,4.3l0.7,1.7l1.8,9.6v75.9C1794.2,132.2,1791.7,134.6,1788.7,134.6z M1732.8,104.2h50.5V53.9l-1.4-7.1l-1.7-2.9
					l-2.6-2.6l-2.7-2l-1.8-0.9h-3l-37.2-1.5v67.3H1732.8z M29.3,84.3C29.2,84.3,29.2,84.3,29.3,84.3c-3,0-5.5-2.5-5.4-5.5l0.8-96.4
					c0-3,2.5-5.4,5.4-5.4l0,0c3,0,5.4,2.5,5.4,5.5l-0.8,96.4C34.7,81.9,32.2,84.3,29.3,84.3z"/>
			</g>
			<g id="Obispado_1_">
				<path class="st19" d="M586.8,1583.8c-2.9,0-5.3-2.3-5.4-5.3l-2.6-82.7l-1.7-79.3c-0.1-3,2.3-5.5,5.3-5.5h0.1
					c2.9,0,5.4,2.4,5.4,5.3l1.7,79.3l2.6,82.7C592.3,1581.3,589.9,1583.8,586.8,1583.8C586.9,1583.8,586.8,1583.8,586.8,1583.8z
					 M607.2,1421.9c-2.9,0-5.3-2.3-5.4-5.2l-8.5-192.7l-7.6-168.3l-0.8-3.8c0-0.1-0.1-0.3-0.1-0.4l0,0l0,0c0-0.2,0-0.4-0.1-0.5
					l-6.8-111.6l-6.8-115.1l-0.8-6.5c-0.4-3,1.8-5.7,4.7-6c0.3,0,0.6-0.1,0.9,0l-3.1-62.5l-1.7-104.2l1.7-168.1l-1.7-125.2
					l-1.7-288.2c0-3,2.4-5.4,5.4-5.5l0,0c3,0,5.4,2.4,5.4,5.4l1.7,288.1l1.7,125.3L581.9,645l1.7,103.9l3.4,68
					c0.2,3-2.2,5.5-5.2,5.7h-0.1l0.1,0.7l6.9,115.4l6.8,111.3l0.9,4.8l7.6,168.8l8.5,192.7c0.1,3-2.2,5.5-5.2,5.7
					C607.4,1421.9,607.3,1421.9,607.2,1421.9z"/>
			</g>
			<g id="Bernando-O-Higgins_1_">
				<path class="st19" d="M90.6,773.1c-2.9,0-5.3-2.3-5.4-5.3s2.2-5.5,5.2-5.6l50.3-1.7l117.7-2.6l95.4-3.4l118.4-5.1l105.6-6
					l192.7-11.8l235.3-15.3c2.9-0.2,5.6,2.1,5.8,5.1c0.2,3-2.1,5.6-5.1,5.8l-235.3,15.3l-192.7,12l-105.7,6l-118.5,5.1l-95.5,3.4
					L141,771.4l-50.2,1.7C90.7,773.1,90.7,773.1,90.6,773.1z"/>
			</g>
			<g id="Primera-Sur_1_">
				<path class="st19" d="M140.9,1432.1c-3,0-5.4-2.4-5.4-5.3c-0.1-3,2.3-5.5,5.3-5.5l89.5-1.7l153.4-3.4l111.6-3.4l87-1.7h24.8
					l119.3-1.7l1.1,0.1l13.1,2.5l110.8-2.4c0.4-0.1,0.8-0.1,1.2-0.2l164.5-3.4h10.3l89.5-0.8c0,0,0,0,0.1,0c3,0,5.4,2.4,5.4,5.4
					c0,0,0,0,0,0.1c0,3-2.4,5.4-5.4,5.4l-99.8,0.8l-276.9,6l-1.1-0.1l-13.1-2.5l-118.8,1.7h-24.8l-86.8,1.7l-111.6,3.4l-153.5,3.4
					l-89.5,1.7C141,1432.1,140.9,1432.1,140.9,1432.1z"/>
			</g>
			<g id="Nueve-Oriente_1_">
				<path class="st19" d="M22.4,690.5c-2.8,0-5.1-2.1-5.4-4.9c-0.3-3,1.9-5.6,4.9-5.9l112.5-10.3l121.2-8.5l16.3-0.8l75.8-5.1
					l121.9-9.4l106.7-6l85.2-5.9l104.9-5.1c3.2-0.1,5.5,2.2,5.7,5.2c0.1,3-2.2,5.5-5.2,5.7l-104.8,5.1l-85.2,5.9l-106.6,6
					l-121.8,9.4l-75.9,5.1l-16.3,0.8l-120.9,8.5L23,690.5C22.8,690.4,22.6,690.5,22.4,690.5z"/>
			</g>
			<g id="Los-ngeles_1_">
				<path class="st19" d="M748.8,1509.6l-1.7-0.3l-34.1-10.7l-128.7,2.5c-2.9-0.1-5.5-2.3-5.5-5.3c-0.1-3,2.3-5.5,5.3-5.5l129.6-2.6
					l1.7,0.3l34.1,10.8l249.8-3.4h0.1c3,0,5.4,2.4,5.4,5.4s-2.4,5.5-5.4,5.5L748.8,1509.6z M232.1,1507.1c-2.9,0-5.3-2.3-5.4-5.3
					s2.3-5.5,5.3-5.6l150-4.3h116.1c3,0,5.4,2.4,5.4,5.4s-2.4,5.4-5.4,5.4h-116L232.1,1507.1
					C232.2,1507.1,232.2,1507.1,232.1,1507.1z"/>
			</g>
			<g id="Carlos-Ib-ez-del-Campo_1_">
				<path class="st19" d="M475.9,829.4c-3,0-5.4-2.4-5.4-5.4s2.4-5.4,5.4-5.4h7.7l91.7-6.8h6.3l194-14.5h8.1l147.8-9.4l50.5,2.7
					l29,7.6c2.4,0.6,4,2.8,4,5.2c0,0.5-0.1,0.9-0.2,1.4c-0.8,2.9-3.7,4.6-6.6,3.9l-28.4-7.5l-48.5-2.5l-78.1,5.1
					c-0.4,0-0.8,0-1.2-0.1l-67.8,4.3h-8L582,822.6h-6.4l-13.3,0.9l-78.4,5.9L475.9,829.4z M1007,742.4c-2.9,0-5.3-2.3-5.4-5.2
					c0-0.1,0-0.2,0-0.2c0-2.9,2.3-5.3,5.2-5.4l20.5-0.8l165.5-3.4c3.2-0.1,5.5,2.3,5.5,5.3v0.1c0,2.9-2.4,5.4-5.3,5.4l-165.4,3.4
					l-20.4,0.8C1007.1,742.4,1007.1,742.4,1007,742.4z"/>
			</g>
			<g id="Marcos-Castro_1_">
				<path class="st19" d="M114.5,367.4c-3,0-5.4-2.4-5.4-5.4s2.4-5.5,5.4-5.5l142.4-1.7l204.5-6l115.1-2.5l181.5-7.7l208.1-6.8
					c3-0.1,5.5,2.3,5.6,5.3s-2.2,5.5-5.3,5.6l-208,6.8l-181.5,7.7l-115.2,2.5l-204.5,6L114.5,367.4L114.5,367.4z"/>
			</g>
			<g id="Lincoy-n_1_">
				<path class="st19" d="M120.4,499.5c-2.9,0-5.3-2.3-5.4-5.2c-0.1-3,2.2-5.5,5.2-5.7l76.8-3.4l64.6-4.3l76.9-3.4l128.8-3.4
					l110.8-2.6l79.5,0.8h104.8l185,1.7l51.2,0.8c3,0,5.4,2.5,5.3,5.5c0,3-2.5,5.4-5.5,5.3l-51.2-0.8l-184.9-1.7H657.5l-79.4-0.8
					l-110.6,2.6l-128.7,3.4l-76.7,3.4l-64.6,4.3l-76.9,3.4C120.6,499.5,120.5,499.5,120.4,499.5z"/>
			</g>
			<g id="_x31_6-de-Julio_1_">
				<path class="st19" d="M453.8,75.8c-3,0-5.4-2.4-5.4-5.4l-0.9-87.9c0-3,2.4-5.5,5.4-5.5c2.9,0,5.5,2.4,5.5,5.4l0.9,87.9
					C459.2,73.3,456.8,75.8,453.8,75.8L453.8,75.8z"/>
			</g>
			<g id="Centenario_1_">
				<path class="st19" d="M940.5,291.5c-0.3,0-0.6,0-0.8-0.1c-2.7-0.4-4.6-2.7-4.6-5.4c0-0.3,0-0.6,0.1-0.8l38.3-246.8v-55.9
					c0-3,2.4-5.4,5.4-5.4s5.4,2.4,5.4,5.4l-0.1,57.2l-38.3,247.2C945.5,289.6,943.2,291.5,940.5,291.5z"/>
			</g>
			<g id="Victoria_1_">
				<path class="st19" d="M661.8,644.4c-2.9,0-5.3-2.3-5.4-5.3l-4.3-161.2l-0.9-76.8l0.9-53v-84.3l1.7-197.6
					c-0.6,0.2-1.2,0.2-1.9,0.1c-3-0.3-5.2-3-4.9-5.9l7.8-78.5c0.3-3,3-5.2,5.9-4.9c3,0.3,5.2,3,4.9,5.9l-7.2,72.6
					c0.3,0,0.5,0,0.9-0.1c3,0,5.4,2.5,5.4,5.5l-1.7,203v84.4l-0.9,52.9l0.9,76.6l4.3,161.1c0.1,3-2.3,5.5-5.3,5.6
					C661.9,644.4,661.8,644.4,661.8,644.4z"/>
			</g>
			<g id="Prolongaci-n-Pasaje-Victoria_1_">
				<path class="st19" d="M1802.7,185.2L1802.7,185.2l-15-0.3l-214.8-2.5c-3,0-5.4-2.5-5.4-5.5s2.5-5.5,5.5-5.4l229.7,2.8
					c3,0.1,5.4,2.5,5.3,5.5C1808.1,182.8,1805.7,185.2,1802.7,185.2z"/>
			</g>
			<g id="Prolongaci-n-Marcos-Castro_1_">
				<path class="st19" d="M1802.7,261.7L1802.7,261.7h-14h-215.6c-3,0-5.4-2.4-5.4-5.4s2.4-5.4,5.4-5.4h229.7c3,0,5.4,2.4,5.4,5.4
					C1808.1,259.3,1805.7,261.7,1802.7,261.7z"/>
			</g>
			<g id="Prolongaci-n-21-de-Mayo_1_">
				<path class="st19" d="M1572.2,345.2c-3,0-5.4-2.4-5.4-5.4s2.4-5.4,5.4-5.5l230.5-1l0,0c3,0,5.4,2.4,5.4,5.4s-2.4,5.4-5.4,5.5
					l-12.3,0.1L1572.2,345.2L1572.2,345.2z"/>
			</g>
			<g id="Prolongaci-n-Lincoy-n_1_">
				<path class="st19" d="M1467.3,431.3c-2.7,0-5-1.9-5.4-4.6c-0.4-3,1.6-5.7,4.6-6.2l105.7-15.4l218.2,2.6h12.2l0,0
					c3,0,5.4,2.4,5.4,5.4s-2.4,5.4-5.4,5.5h-12.3l-217.9-2.6l-104.5,15.3C1467.8,431.3,1467.6,431.3,1467.3,431.3z"/>
			</g>
			<g id="Calle-1_1_">
				<path class="st19" d="M1791.3,457.7c-2.9,0-5.4-2.4-5.4-5.3l-0.9-39.2v-74.3l-1.7-82.6l-0.9-76.8l0.9-50.4
					c0.1-3,2.7-5.4,5.5-5.3c3,0.1,5.4,2.5,5.3,5.5l-0.9,50.3l0.9,76.6l1.7,82.6v74.3l0.9,39.1c0.1,3-2.3,5.5-5.3,5.6
					C1791.4,457.7,1791.3,457.7,1791.3,457.7z"/>
			</g>
			<g id="Los-Chinos_1_">
				<path class="st19" d="M1086.3,882.2c-2.9,0-5.3-2.3-5.4-5.2c-0.1-3,2.2-5.5,5.2-5.6l119.9-4.2l25.4-12.3l1.8-0.5l8.5-0.9
					c2.9-0.3,5.7,1.9,6,4.9s-1.9,5.7-4.9,6l-7.6,0.8l-25.6,12.4l-2.2,0.5l-121,4.3C1086.4,882.2,1086.4,882.2,1086.3,882.2z"/>
			</g>
			<g id="Los-Chunchos_1_">
				<path class="st19" d="M1028.3,1291.4c-2.9,0-5.3-2.3-5.4-5.3s2.3-5.5,5.3-5.6l157.7-4.3c2.9-0.2,5.5,2.3,5.6,5.3
					s-2.3,5.5-5.3,5.6l-157.7,4.3C1028.4,1291.4,1028.4,1291.4,1028.3,1291.4z"/>
			</g>
			<g id="Avenida-Augusto-Smith_1_">
				<path class="st19" d="M1631.6,1726.3c-2.8,0-5.2-2.1-5.4-5l-16.7-189.4l-19.6-231l-7.7-93.8l-9.4-107.4l-3.4-43.6V973l-6.8-96
					V770l4.2-114.8l-2.5-17.4l2.6-227.6V325l0.9-69.1v-79.2l0.8-67.4V67.6l-0.8-29.9l-9.2-35l-6.8-18.6c-1-2.8,0.4-5.9,3.2-7
					c2.8-1,5.9,0.4,7,3.2l7,19.3l9.6,37l0.8,30.7v42.3l-0.8,67.4v79.2l-0.9,83.5v70.8l-2.6,227.2l2.6,17.6l-4.3,115.1v106.4l6.8,96
					v83l3.4,43.1l9.4,107.3l7.7,93.8l19.6,231l16.7,189.4c0.3,3-1.9,5.6-4.9,5.9C1631.9,1726.3,1631.7,1726.3,1631.6,1726.3z"/>
			</g>
			<g id="Los-Collaguayos_1_">
				<path class="st19" d="M1093.1,1221.5c-2.9,0-5.4-2.3-5.4-5.3l-4.3-168.8c-0.1-3,2.3-5.5,5.3-5.6c3.1-0.1,5.5,2.3,5.6,5.3
					l4.3,168.8c0.1,3-2.3,5.5-5.3,5.6C1093.2,1221.5,1093.2,1221.5,1093.1,1221.5z M1089.7,960.7c-2.9,0-5.3-2.3-5.4-5.2l-3.4-78.4
					l-1.7-75.1c-0.1-3,2.3-5.5,5.3-5.6c3.1-0.1,5.5,2.3,5.6,5.3l1.7,75l3.4,78.3c0.1,3-2.2,5.5-5.2,5.7
					C1089.9,960.7,1089.8,960.7,1089.7,960.7z"/>
			</g>
			<g id="Los-Lichiguayos_1_">
				<path class="st19" d="M1152.8,1219.8c-2.9,0-5.3-2.3-5.4-5.3l-5.1-169.6c-0.1-3,2.3-5.5,5.3-5.6c2.8-0.1,5.5,2.3,5.6,5.3
					l5.1,169.6c0.1,3-2.3,5.5-5.3,5.6C1152.9,1219.8,1152.9,1219.8,1152.8,1219.8z"/>
			</g>
		</g>
	</g>
	<g>
		<defs>
			<rect id="SVGID_25_" x="-132.5" width="1511.4" height="1692.3"/>
		</defs>
		<clipPath id="SVGID_26_">
			<use xlink:href="#SVGID_25_"  style="overflow:visible;"/>
		</clipPath>
		<g id="Minor-Outline_1_" class="st22">
			<g id="Carlos-Ib-ez-del-Campo-1_1_">
				<path class="st19" d="M260.1,848.2l-28.2-1l-45.4-9.8l-11.1-5.1l-23.6-9.6l-34.1-21.1l-16.9-15.4l-10.4,1.3L79.9,792l-9.6,8
					c-2.3,1.9-5.7,1.6-7.7-0.7c-1.9-2.3-1.6-5.7,0.7-7.7l10.2-8.5l1.3-0.8l13.4-5.5l3.1-0.4l-5-5.4l-17.9-23l-23.7-27.1
					c-2-2.3-1.7-5.7,0.5-7.7c2.3-2,5.7-1.7,7.7,0.5L76.8,741l18,23l11.6,12.5l18.2,16.5l32.4,20l22.6,9.2l10.8,5l43.2,9.2l26.5,0.8
					l96.9-7.6l118.3-11c3-0.3,5.7,1.8,6,4.8s-1.8,5.7-4.8,6l-7.7,0.9l-110.9,10.2L260.1,848.2z"/>
			</g>
			<g id="_x31_6-de-Julio-1_1_">
				<path class="st19" d="M526.2,1598.3c-1.4,0-2.8-0.5-3.8-1.6l-10.3-10.2l-1-1.3l-8.4-16.1l-2.3,7.3l-8.5,17.9
					c-1.3,2.7-4.5,3.9-7.2,2.6s-3.9-4.5-2.6-7.2l8.3-17.5l5.6-18.3l-3.3-56.1l-2.6-79.5l-5.1-191.8l-3.4-162v-9.4L477.3,935
					l-6-104.5l-0.8-6.2l-3.4-69.1c0-0.1,0-0.1,0-0.2l-2.6-104l-2.6-171.4l-4.2-76.5l-1.7-48.7l-2.6-85.3l-0.8-82.8l-4.2-115.7
					c-0.1-3,2.2-5.5,5.2-5.6s5.5,2.2,5.6,5.2l4.3,115.9l0.8,82.9l2.6,85.1l1.7,48.6l4.3,76.6l2.6,171.5l2.6,103.9l3.4,68.7l0.8,6.2
					l6,104.9l4.3,120.3l0,0c0,0.1,0,0.1,0,0.2v9.3l3.4,161.9l5.1,191.8l2.6,79.3l3.3,55.8l8,16l5.5,10.2l9.7,9.6
					c2.1,2.1,2.1,5.6,0,7.7C529,1597.8,527.6,1598.3,526.2,1598.3z"/>
			</g>
			<g id="Avenida-Circunvalaci-n_1_">
				<path class="st19" d="M534.7,1667.4c-2.5,0-4.8-1.8-5.3-4.3c-0.6-2.9,1.3-5.8,4.2-6.4l16.8-3.5l16.3-1.5l-8.6-6.5l-4-2.4
					l-1.7-1.6l-8.5-12.8c-1.7-2.5-1-5.9,1.5-7.5c2.5-1.7,5.9-1,7.5,1.5l7.8,11.8l3.7,2.2l9.5,7.1l26.4,8.2l-1.6,10.6H570l-18.2,1.7
					l-15.9,3.3C535.5,1667.3,535.1,1667.4,534.7,1667.4z M-605.8,544.7c-2.2,0-4.2-1.3-5.1-3.5c-1.1-2.8,0.3-5.9,3.1-7l11.9-4.5l5-1
					l72.4-4.3l79.1-7.7l35.7-4.2l25.5-3.4L-305,498l66.2-13.6l38.9-10.1c2.9-0.8,5.9,1,6.6,3.9c0.8,2.9-1,5.9-3.9,6.6l-39.2,10.2
					l-66.6,13.8l-73.6,11.1l-25.7,3.4l-35.9,4.3l-79.4,7.7l-72.3,4.3l-3.4,0.7l-10.7,4.1C-604.5,544.6-605.2,544.7-605.8,544.7z"/>
			</g>
			<g id="Avenida-Diputado-Ram-n-P-rez-Opazo_1_">
				<path class="st19" d="M713.7,1664l-115.1-1.7c-3,0-5.4-2.5-5.4-5.5s2.5-5.3,5.4-5.3h0.1l114.9,1.7l82.6-5.9l51.9-17.6l59.3-28.8
					l36.3-21.2l27.5-14.6l39.5-20.2l13.1-11.5l15.8-13.2l37.8-52.1l34.8-60.3l37.5-67.3l47.6-92.8c0.2-0.5,0.5-0.9,0.9-1.3l5-9.7
					l10.7-25.6l6.7-41.1l15.3-124.8l2.6-75.6l0.9-18l-2.6-92.5l-3.3-30.3l-14.9-35.7l-20.7-39c-0.2-0.3-0.4-0.5-0.6-0.9l-9.4-17.9
					l-13.5-22.8l-1.9-3.7L1091.7,571l-92-154.3l-64.1-128.2l-58.7-115.9L844.1,118l-28-31.3l-24.9-13.6l-7.7-1.5l-31.9-8.4
					l-92.1,3.4h-7l-77.4,2.6L454.2,76l-123,11.1l-135.6,0.8l-23.2-0.8c-3-0.1-5.3-2.6-5.2-5.6c0.1-3,2.8-5.3,5.6-5.2l23,0.8
					l135.1-0.8l122.5-11.1l121.2-6.8l77.7-2.6h7l92.7-3.4l1.6,0.2l32.4,8.5l8.2,1.6l1.5,0.6l26.4,14.5l1.4,1.1l29.6,33.2l3.5,5.8
					c0.3,0.3,0.5,0.6,0.8,1l29,48.6l59,116.2l63.9,127.9l22.8,38l69.1,116l81,138.1l1.9,3.7l13.4,22.7l31.1,58.6l15.3,36.6l0.4,1.5
					l3.4,31.6l2.6,93.3l-0.9,18.3l-2.6,76.3l-6.8,56.2l-8.6,69.1l-7.2,43.2l-11.2,26.8l-22.2,42.6l-31.6,61.4l-37.6,67.5l-35.3,61
					L1047,1528l-16,13.6l-14.7,12.6l-40,20.5l-27.2,14.4l-36.5,21.2l-57.4,28.3c-0.6,0.3-1.3,0.5-2,0.5l-1.2,0.6l-54.2,18.2
					L713.7,1664z"/>
			</g>
			<g id="Circunvalaci-n-Oriente_1_">
				<path class="st19" d="M784.5,71.6c-2.4,0-4.6-1.6-5.2-4c-0.8-2.9,0.9-5.9,3.8-6.7l30.2-8.4l36.1-17.1c0.3-0.2,0.6-0.4,1-0.6
					l41.3-19.4L943-21.9c2.4-1.8,5.8-1.2,7.6,1.2c0.7,1,1,2.1,1,3.2c0,1.7-0.8,3.3-2.2,4.4L896.8,25l-80.1,37.9L786,71.4
					C785.5,71.5,785,71.6,784.5,71.6z"/>
			</g>
		</g>
	</g>
	<g>
		<defs>
			<rect id="SVGID_27_" x="-132.5" width="1511.4" height="1692.3"/>
		</defs>
		<clipPath id="SVGID_28_">
			<use xlink:href="#SVGID_27_"  style="overflow:visible;"/>
		</clipPath>
		<g id="Main-Outline_1_" class="st23">
			<g id="Avenida-Ram-n-P-rez-Opazo_2_">
				<polygon class="st24" points="172.4,86.9 110.1,86 43.6,84.3 29.3,84.3 2.7,83.5 -50.9,83.5 -76.3,84.3 -76.7,73.5 -51.1,72.6 
					2.8,72.6 29.4,73.5 43.7,73.5 110.4,75.2 172.5,76 				"/>
			</g>
			<g id="Ruta-A-645_1_">
				<path class="st24" d="M-328.2,577.8l-6.3-8.9l176-124.1l53.1-59.9l20.1-26.9l6.9-11.4l1.6-19.7l-3.4-100.3L-81.9,79l10.9-0.1
					l1.7,147.5l3.4,100.8l-1.8,22.9l-8.7,14.3L-97.1,392l-54.6,61.4L-328.2,577.8z M177.7,83l-10.4-3l6.8-23.9l9.1-38.2l-2-35.1
					l10.8-0.6l2.1,36.7l-9.6,40L177.7,83z"/>
			</g>
		</g>
	</g>
	<g>
		<defs>
			<rect id="SVGID_29_" x="-132.5" width="1511.4" height="1692.3"/>
		</defs>
		<clipPath id="SVGID_30_">
			<use xlink:href="#SVGID_29_"  style="overflow:visible;"/>
		</clipPath>
		<g id="Throughway-Outline_1_" class="st25">
			<g id="Avenida-Ram-n-P-rez-Opazo-1_1_">
				<polygon class="st24" points="270.7,1659.7 221.3,1658.7 201.3,1653 186.2,1644.1 179,1638.7 168.8,1629.4 162.3,1614.6 
					152.6,1587.6 143.2,1517.8 133.8,1409.3 122.7,1302.8 116.8,1265.6 113.4,1239.8 99.7,1152.2 94.6,1111.9 84.4,1024.9 75.8,943 
					63.1,823.7 61.3,796.2 56.3,755 52.2,737.9 44.2,720.3 18.5,688.7 7.9,678.9 -19.2,658.7 -51,637.7 -78.5,624.5 -138.1,606 
					-211.9,596.6 -276.8,586.4 -332.1,578.7 -387.4,571.9 -486.3,560 -581.8,548 -606.6,544.6 -605.1,533.9 -580.4,537.3 
					-485,549.2 -330.7,567.9 -275.2,575.6 -210.3,585.9 -135.4,595.4 -74.1,614.5 -45.3,628.5 -13,649.8 15,670.8 26.6,681.6 
					53.8,715.2 62.7,734.9 67,753.4 72.2,795.2 73.9,822.8 86.6,941.9 95.2,1023.7 105.4,1110.6 110.5,1150.6 124.1,1238.3 
					127.6,1264 133.5,1301.4 146.3,1426.2 154,1516.6 163.2,1585.6 172.4,1610.6 177.8,1622.9 186.1,1630.4 192.5,1635.2 
					206.1,1643.2 223.5,1648 270.6,1648.9 335,1646.3 388.8,1644.6 424.5,1642.9 425.1,1653.7 389.2,1655.5 335.4,1657.2 				"/>
			</g>
			<g id="Avenida-Circunvalaci-n-1_1_">
				<polygon class="st24" points="489.1,1692.2 470.7,1673.8 451.5,1661 410.5,1650 442.9,1632 456.4,1619.2 463.7,1607.9 
					472.8,1613.7 464.3,1626.7 448.7,1641.1 439.1,1646.5 456,1651 478,1665.8 496.8,1684.5 				"/>
			</g>
			<g id="Ruta-A-665_1_">
				<path class="st24" d="M500.5,1722.3l-4.1-15.7l-8.1-15.5l-17.7-27.8l-8.1-11.6l-4.8-14.5l1.2-15.2l4.9-14.2l8.3-11.9l12.7-8.7
					l15.1-3.9h14.5l14.5,4.8l12.6,9.7l7.9,13.1l4.6,13.8l-1.2,16.1l-4.6,13.8l-9.7,11.7l-6.4,4l-9,15.9l-2.4,15.2l-4.6,20.9
					l-7.9-1.8L500.5,1722.3z M492,1676.7l5.8,9.2l9,17.4l1.2,4.5l1.9-8.6l2.7-16.9l2.7-4.8l-4.3,1h-14.8L492,1676.7z M498.4,1667.6
					h11.8l11-2.9l3.9-3.1l6.1-3.8l7.3-8.8l3.7-11.1l0.8-11.9l-3.7-11.2l-6-9.7l-9.6-7.4l-11.1-3.7h-12l-11.2,3l-9.5,6.6l-6.7,9.6
					l-3.8,11.4l-0.7,11.1l3.7,11l6.7,9.7l9,6.7L498.4,1667.6z M-606.5,544.6l-68.2-8.5l-60.5-6.8l-50.3-6l-20.1-2.7l1.4-10.8
					l20.1,2.7l50.2,6l60.5,6.8l68.3,8.5L-606.5,544.6z"/>
			</g>
		</g>
	</g>
	<g>
		<defs>
			<rect id="SVGID_31_" x="-132.5" width="1511.4" height="1692.3"/>
		</defs>
		<clipPath id="SVGID_32_">
			<use xlink:href="#SVGID_31_"  style="overflow:visible;"/>
		</clipPath>
		<g id="Cemetery-1_1_" class="st26">
			<g class="st27">
				<path class="st28" d="M1077.7,322l4.1,1c-0.9,3.4-2.4,6-4.7,7.7c-2.2,1.8-5,2.7-8.2,2.7c-3.4,0-6.1-0.7-8.2-2
					c-2.1-1.4-3.7-3.3-4.8-5.9c-1.1-2.6-1.6-5.4-1.6-8.3c0-3.2,0.6-6.1,1.9-8.5c1.2-2.4,3-4.2,5.3-5.5s4.8-1.9,7.5-1.9
					c3.1,0,5.7,0.8,7.9,2.4c2.1,1.6,3.6,3.8,4.4,6.7l-4.1,1c-0.7-2.3-1.8-3.9-3.1-4.9c-1.4-1-3.1-1.5-5.2-1.5c-2.4,0-4.4,0.6-6,1.7
					s-2.7,2.7-3.4,4.6c-0.6,1.9-1,3.9-1,6c0,2.6,0.4,5,1.2,6.9c0.8,2,2,3.4,3.6,4.4s3.4,1.5,5.3,1.5c2.3,0,4.3-0.7,5.9-2
					C1076.1,326.6,1077.2,324.7,1077.7,322z"/>
				<path class="st28" d="M1087,333v-31.1h22.5v3.7h-18.4v9.5h17.2v3.7h-17.2v10.6h19.1v3.7H1087V333z"/>
				<path class="st28" d="M1115.8,333v-31.1h6.2l7.4,22c0.7,2,1.2,3.6,1.5,4.6c0.4-1.1,0.9-2.8,1.7-5l7.4-21.6h5.5V333h-4v-26l-9,26
					h-3.7l-9-26.5V333H1115.8z"/>
				<path class="st28" d="M1152.2,333v-31.1h22.5v3.7h-18.4v9.5h17.2v3.7h-17.2v10.6h19.1v3.7h-23.2V333z"/>
				<path class="st28" d="M1181,333v-31.1h4.2l16.3,24.4v-24.4h3.9V333h-4.2l-16.3-24.4V333H1181z"/>
				<path class="st28" d="M1220.4,333v-27.4h-10.2v-3.7h24.7v3.7h-10.3V333H1220.4z"/>
				<path class="st28" d="M1239.1,333v-31.1h22.5v3.7h-18.4v9.5h17.2v3.7h-17.2v10.6h19.1v3.7h-23.2V333z"/>
				<path class="st28" d="M1268.1,333v-31.1h13.8c2.8,0,4.9,0.3,6.3,0.8c1.4,0.6,2.6,1.5,3.5,3c0.9,1.4,1.3,3,1.3,4.7
					c0,2.2-0.7,4.1-2.1,5.6s-3.6,2.5-6.6,2.9c1.1,0.5,1.9,1,2.5,1.5c1.2,1.1,2.3,2.5,3.4,4.1l5.4,8.5h-5.2l-4.1-6.5
					c-1.2-1.9-2.2-3.3-3-4.3s-1.5-1.7-2.1-2.1s-1.2-0.7-1.9-0.8c-0.5-0.1-1.2-0.1-2.3-0.1h-4.8V333H1268.1z M1272.2,315.6h8.8
					c1.9,0,3.4-0.2,4.4-0.6c1.1-0.4,1.9-1,2.4-1.9c0.6-0.9,0.8-1.8,0.8-2.8c0-1.5-0.5-2.7-1.6-3.6s-2.8-1.4-5.1-1.4h-9.8
					L1272.2,315.6L1272.2,315.6z"/>
				<path class="st28" d="M1300.1,333v-31.1h4.1V333H1300.1z"/>
				<path class="st28" d="M1310.2,317.8c0-5.2,1.4-9.2,4.2-12.1c2.8-2.9,6.4-4.4,10.7-4.4c2.9,0,5.5,0.7,7.8,2.1s4.1,3.3,5.3,5.7
					c1.2,2.5,1.8,5.2,1.8,8.3c0,3.2-0.6,6-1.9,8.5s-3.1,4.4-5.4,5.7c-2.3,1.3-4.9,1.9-7.6,1.9c-2.9,0-5.5-0.7-7.9-2.1
					c-2.3-1.4-4.1-3.3-5.2-5.8S1310.2,320.5,1310.2,317.8z M1314.5,317.9c0,3.7,1,6.7,3,8.9c2,2.2,4.5,3.2,7.6,3.2s5.6-1.1,7.7-3.3
					c2-2.2,3-5.3,3-9.3c0-2.5-0.4-4.7-1.3-6.6s-2.1-3.4-3.8-4.4c-1.7-1-3.5-1.6-5.6-1.6c-2.9,0-5.4,1-7.5,3
					C1315.5,309.8,1314.5,313.2,1314.5,317.9z"/>
			</g>
			<g class="st27">
				<path class="st28" d="M1059.5,385.1V354h10.7c2.4,0,4.3,0.1,5.5,0.4c1.8,0.4,3.3,1.2,4.6,2.2c1.6,1.4,2.9,3.2,3.7,5.3
					c0.8,2.2,1.2,4.6,1.2,7.4c0,2.4-0.3,4.5-0.8,6.3c-0.6,1.8-1.3,3.3-2.1,4.5c-0.9,1.2-1.8,2.1-2.8,2.8c-1,0.7-2.3,1.2-3.7,1.6
					c-1.4,0.4-3.1,0.5-5,0.5h-11.3V385.1z M1063.6,381.4h6.6c2,0,3.7-0.2,4.8-0.6c1.2-0.4,2.1-0.9,2.8-1.6c1-1,1.7-2.3,2.3-3.9
					c0.5-1.6,0.8-3.6,0.8-6c0-3.3-0.5-5.8-1.6-7.5s-2.4-2.9-3.9-3.5c-1.1-0.4-2.9-0.6-5.3-0.6h-6.5L1063.6,381.4L1063.6,381.4z"/>
				<path class="st28" d="M1091,385.1V354h22.5v3.7h-18.4v9.5h17.2v3.7h-17.2v10.6h19.1v3.7H1091V385.1z"/>
				<path class="st28" d="M1131.8,385.1V354h4.1v27.4h15.3v3.7H1131.8z"/>
				<path class="st28" d="M1152.7,385.1l11.9-31.1h4.4l12.7,31.1h-4.7l-3.6-9.4h-13l-3.4,9.4H1152.7z M1161.7,372.3h10.5l-3.2-8.6
					c-1-2.6-1.7-4.8-2.2-6.5c-0.4,2-1,4-1.7,5.9L1161.7,372.3z"/>
				<path class="st28" d="M1201.9,385.1v-27.4h-10.2V354h24.7v3.7H1206v27.4H1201.9z"/>
				<path class="st28" d="M1221.3,385.1V354h4.1v31.1H1221.3z"/>
				<path class="st28" d="M1232.7,385.1V354h13.8c2.8,0,4.9,0.3,6.3,0.8c1.4,0.6,2.6,1.5,3.5,3c0.9,1.4,1.3,3,1.3,4.7
					c0,2.2-0.7,4.1-2.1,5.6s-3.6,2.5-6.6,2.9c1.1,0.5,1.9,1,2.5,1.5c1.2,1.1,2.3,2.5,3.4,4.1l5.4,8.5h-5.2l-4.1-6.5
					c-1.2-1.9-2.2-3.3-3-4.3s-1.5-1.7-2.1-2.1s-1.2-0.7-1.9-0.8c-0.5-0.1-1.2-0.1-2.3-0.1h-4.8v13.8H1232.7z M1236.8,367.7h8.8
					c1.9,0,3.4-0.2,4.4-0.6c1.1-0.4,1.9-1,2.4-1.9c0.6-0.9,0.8-1.8,0.8-2.8c0-1.5-0.5-2.7-1.6-3.6s-2.8-1.4-5.1-1.4h-9.8
					L1236.8,367.7L1236.8,367.7z"/>
				<path class="st28" d="M1260.6,385.1l11.9-31.1h4.4l12.7,31.1h-4.7l-3.6-9.4h-13l-3.4,9.4H1260.6z M1269.6,372.3h10.5l-3.2-8.6
					c-1-2.6-1.7-4.8-2.2-6.5c-0.4,2-1,4-1.7,5.9L1269.6,372.3z"/>
				<path class="st28" d="M1293,385.1V354h4.2l16.3,24.4V354h3.9v31.1h-4.2l-16.3-24.4v24.4H1293z"/>
				<path class="st28" d="M1321,385.1l11.9-31.1h4.4l12.7,31.1h-4.7l-3.6-9.4h-13l-3.4,9.4H1321z M1329.9,372.3h10.5l-3.2-8.6
					c-1-2.6-1.7-4.8-2.2-6.5c-0.4,2-1,4-1.7,5.9L1329.9,372.3z"/>
			</g>
			<g class="st27">
				<path class="st29" d="M1077.7,322l4.1,1c-0.9,3.4-2.4,6-4.7,7.7c-2.2,1.8-5,2.7-8.2,2.7c-3.4,0-6.1-0.7-8.2-2
					c-2.1-1.4-3.7-3.3-4.8-5.9c-1.1-2.6-1.6-5.4-1.6-8.3c0-3.2,0.6-6.1,1.9-8.5c1.2-2.4,3-4.2,5.3-5.5s4.8-1.9,7.5-1.9
					c3.1,0,5.7,0.8,7.9,2.4c2.1,1.6,3.6,3.8,4.4,6.7l-4.1,1c-0.7-2.3-1.8-3.9-3.1-4.9c-1.4-1-3.1-1.5-5.2-1.5c-2.4,0-4.4,0.6-6,1.7
					s-2.7,2.7-3.4,4.6c-0.6,1.9-1,3.9-1,6c0,2.6,0.4,5,1.2,6.9c0.8,2,2,3.4,3.6,4.4s3.4,1.5,5.3,1.5c2.3,0,4.3-0.7,5.9-2
					C1076.1,326.6,1077.2,324.7,1077.7,322z"/>
				<path class="st29" d="M1087,333v-31.1h22.5v3.7h-18.4v9.5h17.2v3.7h-17.2v10.6h19.1v3.7H1087V333z"/>
				<path class="st29" d="M1115.8,333v-31.1h6.2l7.4,22c0.7,2,1.2,3.6,1.5,4.6c0.4-1.1,0.9-2.8,1.7-5l7.4-21.6h5.5V333h-4v-26l-9,26
					h-3.7l-9-26.5V333H1115.8z"/>
				<path class="st29" d="M1152.2,333v-31.1h22.5v3.7h-18.4v9.5h17.2v3.7h-17.2v10.6h19.1v3.7h-23.2V333z"/>
				<path class="st29" d="M1181,333v-31.1h4.2l16.3,24.4v-24.4h3.9V333h-4.2l-16.3-24.4V333H1181z"/>
				<path class="st29" d="M1220.4,333v-27.4h-10.2v-3.7h24.7v3.7h-10.3V333H1220.4z"/>
				<path class="st29" d="M1239.1,333v-31.1h22.5v3.7h-18.4v9.5h17.2v3.7h-17.2v10.6h19.1v3.7h-23.2V333z"/>
				<path class="st29" d="M1268.1,333v-31.1h13.8c2.8,0,4.9,0.3,6.3,0.8c1.4,0.6,2.6,1.5,3.5,3c0.9,1.4,1.3,3,1.3,4.7
					c0,2.2-0.7,4.1-2.1,5.6s-3.6,2.5-6.6,2.9c1.1,0.5,1.9,1,2.5,1.5c1.2,1.1,2.3,2.5,3.4,4.1l5.4,8.5h-5.2l-4.1-6.5
					c-1.2-1.9-2.2-3.3-3-4.3s-1.5-1.7-2.1-2.1s-1.2-0.7-1.9-0.8c-0.5-0.1-1.2-0.1-2.3-0.1h-4.8V333H1268.1z M1272.2,315.6h8.8
					c1.9,0,3.4-0.2,4.4-0.6c1.1-0.4,1.9-1,2.4-1.9c0.6-0.9,0.8-1.8,0.8-2.8c0-1.5-0.5-2.7-1.6-3.6s-2.8-1.4-5.1-1.4h-9.8
					L1272.2,315.6L1272.2,315.6z"/>
				<path class="st29" d="M1300.1,333v-31.1h4.1V333H1300.1z"/>
				<path class="st29" d="M1310.2,317.8c0-5.2,1.4-9.2,4.2-12.1c2.8-2.9,6.4-4.4,10.7-4.4c2.9,0,5.5,0.7,7.8,2.1s4.1,3.3,5.3,5.7
					c1.2,2.5,1.8,5.2,1.8,8.3c0,3.2-0.6,6-1.9,8.5s-3.1,4.4-5.4,5.7c-2.3,1.3-4.9,1.9-7.6,1.9c-2.9,0-5.5-0.7-7.9-2.1
					c-2.3-1.4-4.1-3.3-5.2-5.8S1310.2,320.5,1310.2,317.8z M1314.5,317.9c0,3.7,1,6.7,3,8.9c2,2.2,4.5,3.2,7.6,3.2s5.6-1.1,7.7-3.3
					c2-2.2,3-5.3,3-9.3c0-2.5-0.4-4.7-1.3-6.6s-2.1-3.4-3.8-4.4c-1.7-1-3.5-1.6-5.6-1.6c-2.9,0-5.4,1-7.5,3
					C1315.5,309.8,1314.5,313.2,1314.5,317.9z"/>
			</g>
			<g class="st27">
				<path class="st29" d="M1059.5,385.1V354h10.7c2.4,0,4.3,0.1,5.5,0.4c1.8,0.4,3.3,1.2,4.6,2.2c1.6,1.4,2.9,3.2,3.7,5.3
					c0.8,2.2,1.2,4.6,1.2,7.4c0,2.4-0.3,4.5-0.8,6.3c-0.6,1.8-1.3,3.3-2.1,4.5c-0.9,1.2-1.8,2.1-2.8,2.8c-1,0.7-2.3,1.2-3.7,1.6
					c-1.4,0.4-3.1,0.5-5,0.5h-11.3V385.1z M1063.6,381.4h6.6c2,0,3.7-0.2,4.8-0.6c1.2-0.4,2.1-0.9,2.8-1.6c1-1,1.7-2.3,2.3-3.9
					c0.5-1.6,0.8-3.6,0.8-6c0-3.3-0.5-5.8-1.6-7.5s-2.4-2.9-3.9-3.5c-1.1-0.4-2.9-0.6-5.3-0.6h-6.5L1063.6,381.4L1063.6,381.4z"/>
				<path class="st29" d="M1091,385.1V354h22.5v3.7h-18.4v9.5h17.2v3.7h-17.2v10.6h19.1v3.7H1091V385.1z"/>
				<path class="st29" d="M1131.8,385.1V354h4.1v27.4h15.3v3.7H1131.8z"/>
				<path class="st29" d="M1152.7,385.1l11.9-31.1h4.4l12.7,31.1h-4.7l-3.6-9.4h-13l-3.4,9.4H1152.7z M1161.7,372.3h10.5l-3.2-8.6
					c-1-2.6-1.7-4.8-2.2-6.5c-0.4,2-1,4-1.7,5.9L1161.7,372.3z"/>
				<path class="st29" d="M1201.9,385.1v-27.4h-10.2V354h24.7v3.7H1206v27.4H1201.9z"/>
				<path class="st29" d="M1221.3,385.1V354h4.1v31.1H1221.3z"/>
				<path class="st29" d="M1232.7,385.1V354h13.8c2.8,0,4.9,0.3,6.3,0.8c1.4,0.6,2.6,1.5,3.5,3c0.9,1.4,1.3,3,1.3,4.7
					c0,2.2-0.7,4.1-2.1,5.6s-3.6,2.5-6.6,2.9c1.1,0.5,1.9,1,2.5,1.5c1.2,1.1,2.3,2.5,3.4,4.1l5.4,8.5h-5.2l-4.1-6.5
					c-1.2-1.9-2.2-3.3-3-4.3s-1.5-1.7-2.1-2.1s-1.2-0.7-1.9-0.8c-0.5-0.1-1.2-0.1-2.3-0.1h-4.8v13.8H1232.7z M1236.8,367.7h8.8
					c1.9,0,3.4-0.2,4.4-0.6c1.1-0.4,1.9-1,2.4-1.9c0.6-0.9,0.8-1.8,0.8-2.8c0-1.5-0.5-2.7-1.6-3.6s-2.8-1.4-5.1-1.4h-9.8
					L1236.8,367.7L1236.8,367.7z"/>
				<path class="st29" d="M1260.6,385.1l11.9-31.1h4.4l12.7,31.1h-4.7l-3.6-9.4h-13l-3.4,9.4H1260.6z M1269.6,372.3h10.5l-3.2-8.6
					c-1-2.6-1.7-4.8-2.2-6.5c-0.4,2-1,4-1.7,5.9L1269.6,372.3z"/>
				<path class="st29" d="M1293,385.1V354h4.2l16.3,24.4V354h3.9v31.1h-4.2l-16.3-24.4v24.4H1293z"/>
				<path class="st29" d="M1321,385.1l11.9-31.1h4.4l12.7,31.1h-4.7l-3.6-9.4h-13l-3.4,9.4H1321z M1329.9,372.3h10.5l-3.2-8.6
					c-1-2.6-1.7-4.8-2.2-6.5c-0.4,2-1,4-1.7,5.9L1329.9,372.3z"/>
			</g>
		</g>
	</g>
	<g>
		<defs>
			<rect id="SVGID_33_" x="-132.5" width="1511.4" height="1692.3"/>
		</defs>
		<clipPath id="SVGID_34_">
			<use xlink:href="#SVGID_33_"  style="overflow:visible;"/>
		</clipPath>
		<g class="st30">
			<g>
				<path class="st31" d="M743.9,78.2l-0.6-30.6l10.1,1.5c7.1,1,14.2,2.6,21.1,4.6l-4.8,16.7c-2.8-0.8-5.7-1.6-8.6-2.2l0.2,9.8
					L743.9,78.2z"/>
			</g>
			<g>
				<path class="st31" d="M633.9,1666h-3.5c-9.3,0-18.5-0.1-27.6-0.2l0.2-17.4c9.1,0.1,18.3,0.2,27.5,0.2h3.4h9.5l0.1,17.4H633.9z
					 M663.8,1665.8l-0.2-17.4c13.6-0.1,27-0.4,40.4-0.7l0.4,17.4C691,1665.4,677.3,1665.7,663.8,1665.8z M582.5,1665.5l-3.1-0.1
					l-1.7-0.8c-14.8-6.8-25.5-16-31.8-27.4c-0.4-0.7-0.8-1.4-1.1-2.1l15.6-7.8c0.2,0.5,0.5,0.9,0.8,1.4c4.5,8.1,12.5,14.9,23.9,20.1
					l-2.3,4.9L582.5,1665.5z M724.7,1664.5l-0.6-17.4c13.6-0.4,27-1,40.4-1.6l0.8,17.4C751.9,1663.6,738.4,1664.1,724.7,1664.5z
					 M785.6,1662l-0.9-17.4l7.1-0.4c9.9-3,19.7-6.3,29.3-9.7l5.8,16.4c-10.2,3.6-20.6,7.1-31.1,10.3l-1,0.3L785.6,1662z
					 M846.2,1643.7l-6.3-16.2c12.5-4.8,24.9-10.1,36.9-15.5l7.2,15.8C871.7,1633.4,859,1638.8,846.2,1643.7z M902.5,1619l-7.7-15.6
					c10.6-5.2,21.1-10.8,35.4-18.8l8.5,15.2C924.2,1607.9,913.4,1613.7,902.5,1619z M537,1617.4L537,1617.4
					c-5.4-8.7-13.8-15.8-16.2-17.7c-3.9-3.1-7.5-7-10.7-11.6l14.2-10c2.3,3.3,4.8,6,7.4,8.1c3.8,3.1,13.4,11.4,19.8,21.8l-7.1,5
					L537,1617.4z M956.3,1589.9l-8.6-15.1l35.1-20.1l8.6,15.1L956.3,1589.9z M499.8,1568.2c-1.1-2.8-2.2-5.9-3.1-9l-0.3-1l-1.9-32.6
					l17.4-1l1.7,30.4c0.8,2.4,1.6,4.7,2.4,6.9L499.8,1568.2z M1009.1,1559.6l-8.8-15c11.3-6.6,17.8-10.8,21.8-13.9
					c3.5-2.8,6.7-5.5,9.7-8.3l11.8,12.7c-3.3,3.1-6.9,6.1-10.8,9.2C1028.2,1548,1021.3,1552.4,1009.1,1559.6z M1058.3,1519.6
					l-13.3-11.2c6.8-8.2,13.9-18.1,22.9-32.1l14.6,9.4C1073.1,1500.4,1065.6,1510.9,1058.3,1519.6z M493.4,1505.4l-2.3-40.5l17.4-1
					l2.3,40.5L493.4,1505.4z M1093.2,1468.5l-14.8-9.1c2-3.4,4.2-6.9,6.4-10.6c5-8.3,9.8-16.4,14.3-24.1l15,8.8
					c-4.6,7.8-9.4,15.9-14.4,24.3C1097.5,1461.5,1095.3,1465.1,1093.2,1468.5z M490,1444.7l-2.2-40.5l17.4-0.9l2.2,40.5L490,1444.7z
					 M1124.3,1415.9l-15.1-8.7c6.7-11.7,13.4-23.6,19.8-35.2l15.2,8.4C1137.8,1392.2,1131.1,1404.1,1124.3,1415.9z M486.7,1384
					l-2.2-40.5l17.4-0.9l2.2,40.5L486.7,1384z M1154,1362.6l-15.3-8.2c4.2-7.8,7-13.1,8.1-15.3c3.3-6.3,6.9-13.2,10.6-20.5l15.4,8
					c-3.8,7.3-7.4,14.2-10.7,20.5C1161,1349.4,1158.2,1354.7,1154,1362.6z M483.5,1323.3l-2.1-40.5l17.4-0.9l2.1,40.5L483.5,1323.3z
					 M1182.1,1308.5l-15.5-7.9c5.7-11.2,11.8-23.2,18.2-36.1l15.6,7.8C1194,1285.2,1187.9,1297.3,1182.1,1308.5z M480.3,1262.6
					c-0.7-13.5-1.4-27-2-40.5l17.4-0.9c0.7,13.5,1.3,27,2,40.5L480.3,1262.6z M1209.5,1254.1l-15.6-7.7c4.1-8.3,8.3-17,12.7-25.9
					c0.7-2.8,1.5-6,2.4-9.5l16.9,4.2c-1,4-1.9,7.5-2.7,10.5l-0.6,1.6C1218.1,1236.6,1213.7,1245.5,1209.5,1254.1z M477.3,1201.9
					l-2-40.5l17.4-0.8l2,40.5L477.3,1201.9z M1230.5,1195.3l-17-3.8c0.6-2.5,1.1-5.1,1.7-7.7c2.2-10.6,4.2-21.2,6-31.6l17.1,2.9
					c-1.8,10.6-3.9,21.5-6.1,32.3C1231.6,1190.1,1231.1,1192.7,1230.5,1195.3z M474.3,1141.2c-0.6-13.5-1.3-27-1.9-40.5l17.4-0.8
					c0.6,13.5,1.3,27,1.9,40.5L474.3,1141.2z M1241.5,1134.9l-17.2-2.5c1.8-12.8,3.4-25.9,4.7-39.8l17.3,1.7
					C1244.9,1108.5,1243.4,1121.8,1241.5,1134.9z M471.4,1080.5c-0.6-13.5-1.3-27-1.9-40.5l17.4-0.8c0.6,13.5,1.2,27,1.9,40.5
					L471.4,1080.5z M1248.1,1073.9l-17.3-1.4c0.7-9.4,1.4-18.5,2-27.5c0.3-4.3,0.6-8.6,0.8-12.7l17.4,1c-0.3,4.2-0.5,8.5-0.8,12.9
					C1249.5,1055.3,1248.8,1064.5,1248.1,1073.9z M468.7,1019.7c-0.6-13.5-1.2-27-1.8-40.5l17.4-0.8c0.6,13.5,1.2,27,1.8,40.5
					L468.7,1019.7z M1252,1013l-17.4-0.8c0.6-13.6,1.1-27.2,1.3-40.3l17.4,0.3C1253.1,985.5,1252.6,999.2,1252,1013z M466,959
					c-0.6-13.5-1.2-27-1.7-40.5l17.4-0.7c0.6,13.5,1.2,27,1.7,40.5L466,959z M1253.5,952.1l-17.4-0.2v-0.5c0-13.1-0.2-26.5-0.6-39.8
					l17.4-0.5c0.4,13.4,0.6,27,0.6,40.3V952.1z M463.4,898.3c-0.6-13.5-1.1-27-1.7-40.5l17.4-0.7c0.6,13.5,1.1,27,1.7,40.5
					L463.4,898.3z M1234.8,891.5c-0.6-13.4-1.5-26.9-2.5-40.2l17.3-1.4c1,13.4,1.9,27.1,2.5,40.7L1234.8,891.5z M460.8,837.5
					l-1.6-40.5l17.4-0.7l1.6,40.5L460.8,837.5z M1231.2,831.4c0-0.1-0.1-0.1-0.1-0.2l-0.6,0.1l-0.1-1.4
					c-5.7-10.8-11.2-21.3-16.7-31.5l15.4-8.2c5.7,10.7,11.5,21.8,17.5,33.1l0.8,1.5l0.5,4.8L1231.2,831.4z M1204.2,780.5
					c-6.6-12.3-13-24.2-19.1-35.7l15.3-8.3c6.2,11.5,12.6,23.4,19.2,35.7L1204.2,780.5z M1175.5,727.1
					c-6.7-12.4-13.2-24.3-19.4-35.6l15.3-8.3c6.2,11.3,12.7,23.2,19.4,35.6L1175.5,727.1z M1146.4,673.8
					c-7-12.7-13.5-24.5-19.6-35.4l15.2-8.4c6.1,11,12.6,22.8,19.6,35.5L1146.4,673.8z M1117,620.6l-4.2-7.6
					c-5.4-9.7-10.6-18.9-15.6-27.7l15.1-8.5c5,8.9,10.2,18.1,15.6,27.8l4.2,7.6L1117,620.6z M1087.2,567.8
					c-7.1-12.5-13.8-24.2-20-35.1l15.1-8.7c6.3,10.9,13,22.6,20.1,35.2L1087.2,567.8z M1057.1,515.1c-7.4-12.8-14.1-24.3-20.4-34.9
					l15-8.8c6.2,10.6,13,22.2,20.4,35L1057.1,515.1z M1026.5,462.9c-7.8-13.1-14.6-24.5-20.7-34.7l14.9-9
					c6.1,10.2,13,21.6,20.8,34.8L1026.5,462.9z M995.3,410.9c-8.5-14.2-14.9-25-20.6-35l15.1-8.5c5.6,9.9,11.9,20.6,20.4,34.6
					L995.3,410.9z M965,357.8c-6-11.5-11.5-23.2-17.5-37.1l16-6.9c5.8,13.5,11.2,24.9,17,36L965,357.8z M939.5,302.3
					c-4.9-11-10.5-22.4-17.7-35.8l15.3-8.2c7.4,13.8,13.1,25.5,18.2,36.9L939.5,302.3z M912.2,248.9c-3-5.5-6.1-10.9-9.2-16.4
					c-3.6-6.3-7.1-12.6-10.6-19l15.2-8.4c3.5,6.3,7,12.6,10.6,18.9c3.1,5.5,6.2,11,9.2,16.5L912.2,248.9z M882.7,195.6
					c-7.2-13.5-13.1-25.6-18.1-37l15.9-7c4.8,11,10.5,22.7,17.5,35.8L882.7,195.6z M856.2,141.1c-6.3-11.5-13.9-21.9-22.4-31.1
					l12.7-11.9c9.5,10.2,17.9,21.8,24.9,34.5L856.2,141.1z M819.9,96.9c-12.4-10.1-24.5-16.6-32.4-20.1l7.2-15.8
					c8.9,4,22.4,11.2,36.2,22.5L819.9,96.9z"/>
			</g>
			<g>
				<polygon class="st31" points="458.4,775.9 457.9,764.2 446.2,764.7 445.5,747.3 474.6,746.1 475.7,775.2 				"/>
			</g>
			<g>
				<path class="st31" d="M101.5,778.4l-0.7-17.4l38.3-1.5l0.7,17.4L101.5,778.4z M159,776.1l-0.7-17.4l38.3-1.5l0.7,17.4L159,776.1
					z M216.4,773.8l-0.7-17.4l38.3-1.5l0.7,17.4L216.4,773.8z M273.8,771.5l-0.7-17.4l38.3-1.5l0.7,17.4L273.8,771.5z M331.3,769.2
					l-0.7-17.4l38.3-1.5l0.7,17.4L331.3,769.2z M388.7,767l-0.7-17.4l38.3-1.5l0.7,17.4L388.7,767z"/>
			</g>
			<g>
				<polygon class="st31" points="55.4,792.5 51.9,762.9 81.7,761.8 82.4,779.1 71.4,779.6 72.7,790.5 				"/>
			</g>
			<g>
				<path class="st31" d="M237.5,1663.3c-9.7,0-19.2-1.5-28.2-4.3l5.3-16.6c10.4,3.3,22,4.3,33,2.8l0.9-0.1l4.2-0.1l0.6,17.4
					l-3.7,0.1C245.5,1663.1,241.5,1663.3,237.5,1663.3z M273.9,1661.8l-0.5-17.4l41.4-1.3l0.5,17.4L273.9,1661.8z M335.9,1659.9
					l-0.5-17.4l41.4-1.3l0.5,17.4L335.9,1659.9z M398,1657.9l-0.5-17.4l21.3-0.7c5.4-1,10.7-2.7,15.7-5.1l7.4,15.7
					c-6.6,3.1-13.6,5.3-20.7,6.6l-1.2,0.1L398,1657.9z M188.6,1649.2c-10-6.4-18.6-14.8-25.4-24.9l-0.6-0.8l-3.6-9.5l16.2-6.2
					l2.9,7.5c5.4,7.7,12.1,14.2,19.9,19.2L188.6,1649.2z M461.1,1637.8l-11.6-13l0.9-0.9c3.3-3.1,5-6.3,7.6-11.3
					c2.4-4.7,5.5-10.6,10.8-18c0.7-1,1.5-2,2.2-3l13.9,10.5c-0.6,0.8-1.3,1.7-1.9,2.6c-4.6,6.4-7.2,11.4-9.5,15.9
					c-2.9,5.6-5.7,10.9-11.1,16C462,1637,461.6,1637.4,461.1,1637.8z M151.6,1594.8l-2.2-5.7l-0.1-1c-1.1-7.8-2.7-19.6-4.5-33.9
					l-0.3-2.2l17.2-2.2l0.3,2.2c1.7,13.6,3.3,24.9,4.4,32.7l1.5,3.8L151.6,1594.8z M497.7,1587.3l-9.2-9l-3.8-1.3l0.6-1.8l0,0l0,0
					l5.7-16l-0.6-17.2l17.4-0.6l0.7,20.5l-8.1,22.8L497.7,1587.3z M142,1531.4c-1.7-13.7-3.2-27.6-4.7-41.3l17.3-1.8
					c1.4,13.6,3,27.4,4.7,41L142,1531.4z M489.7,1521.2l-1.4-41.4l17.4-0.6l1.4,41.4L489.7,1521.2z M135.2,1469.5
					c-1.5-15-2.8-28.8-3.8-41.3l17.3-1.5c1.1,12.5,2.3,26.1,3.8,41.1L135.2,1469.5z M487.6,1459.2l-1.4-41.4l17.4-0.6l1.4,41.4
					L487.6,1459.2z M129.6,1407.6l-1.2-14.6c-0.6-7.4-1.1-14-1.7-20.1l-0.6-6.5l17.3-1.5l0.6,6.6c0.5,6.1,1.1,12.8,1.7,20.2
					l1.2,14.5L129.6,1407.6z M485.5,1397.1l-1.4-41.4l17.4-0.6l1.4,41.4L485.5,1397.1z M124.2,1346c-1.5-13.8-3.1-24.3-5.6-40.3
					l8.6-1.6l8.6-1.3l-8.6,1.3l8.6-1.1c2.5,16.1,4.1,26.8,5.7,41L124.2,1346z M483.4,1335.1l-1.4-41.4l17.4-0.6l1.4,41.4
					L483.4,1335.1z M115.5,1285.1c-1.6-11-3.6-24.2-5.9-41l17.2-2.4c2.3,16.7,4.2,29.9,5.9,40.8L115.5,1285.1z M481.3,1273
					l-1.4-41.4l17.4-0.6l1.4,41.4L481.3,1273z M106.7,1223.6c-1.5-10.9-3.1-23.1-4.9-36.8l-0.6-4.3l17.2-2.2l0.6,4.3
					c1.8,13.6,3.4,25.7,4.9,36.7L106.7,1223.6z M479.2,1211l-1.4-41.4l17.4-0.6l1.4,41.4L479.2,1211z M98.7,1162.1
					c-1.9-14.9-3.5-28.1-5-41.1l17.3-2c1.5,12.9,3.1,26,5,40.9L98.7,1162.1z M477.1,1148.9l-1.4-41.4l17.4-0.6l1.4,41.4
					L477.1,1148.9z M91.3,1100.5c-1.5-12.7-3-25.9-4.7-41.1l17.3-1.9c1.7,15.1,3.2,28.4,4.7,41L91.3,1100.5z M475,1086.9l-1.4-41.4
					l17.4-0.6l1.4,41.4L475,1086.9z M84.3,1038.9c-1.4-12.2-2.9-25.7-4.7-41.1l17.3-2c1.8,15.3,3.3,28.9,4.7,41.1L84.3,1038.9z
					 M472.9,1024.8l-1.4-41.4l17.4-0.6l1.4,41.4L472.9,1024.8z M77.2,977.3c-1.4-12.5-3-26.1-4.8-41.1l17.3-2
					c1.7,14.9,3.3,28.6,4.8,41.1L77.2,977.3z M470.8,962.8l-1.4-41.4l17.4-0.6l1.4,41.4L470.8,962.8z M70.1,915.8l-4.8-41.1l17.3-2
					l4.8,41.1L70.1,915.8z M468.7,900.7l-1.4-41.4l17.4-0.6l1.4,41.4L468.7,900.7z M62.8,854.2l-4.9-41.1l17.3-2.1l4.9,41.1
					L62.8,854.2z M466.6,838.7l-1.4-41.4l17.4-0.6l1.4,41.4L466.6,838.7z"/>
			</g>
			<g>
				<polygon class="st31" points="464.5,775.6 463.5,746.6 492.5,745.3 493.2,762.7 481.5,763.2 481.9,775 				"/>
			</g>
			<g>
				<path class="st31" d="M513,761.8l-0.8-17.4l39.5-1.7l0.8,17.4L513,761.8z M572.2,759.2l-0.8-17.4l39.5-1.7l0.8,17.4L572.2,759.2
					z M631.4,756.6l-0.8-17.4l39.5-1.7l0.8,17.4L631.4,756.6z M690.7,754l-0.8-17.4l39.5-1.7l0.8,17.4L690.7,754z M749.9,751.4
					l-0.8-17.4l21.7-1l17.4-1.5l1.5,17.3l-17.7,1.5L749.9,751.4z M809.4,747.2l-1.5-17.3l39.4-3.4l1.5,17.3L809.4,747.2z
					 M868.4,742.2l-1.5-17.3l39.4-3.4l1.5,17.3L868.4,742.2z M927.5,737.1l-1.5-17.3l39.4-3.4l1.5,17.3L927.5,737.1z"/>
			</g>
			<g>
				<path class="st31" d="M998,742.3c-0.1-3.7-0.2-7.4-0.3-11.2l-11.1,1l-1.5-17.3l29.5-2.5l0.2,9.2c0.2,6.9,0.4,13.7,0.5,20.4
					L998,742.3z"/>
			</g>
			<g>
				<path class="st31" d="M1029.5,1370.8l-17.3-1.5c1.2-13.7,2.3-27.7,3.2-41.6l17.4,1.1C1031.8,1342.9,1030.7,1357,1029.5,1370.8z
					 M1034,1307.8l-17.4-0.9c0.8-13.8,1.4-27.9,1.8-41.7l17.4,0.6C1035.3,1279.7,1034.7,1293.9,1034,1307.8z M1036.3,1244.7
					l-17.4-0.4c0.2-11.7,0.4-23.3,0.4-34.6v-7.1l17.4-0.1v7.2C1036.7,1221.1,1036.6,1232.9,1036.3,1244.7z M1019.1,1181.8
					c-0.2-13.6-0.6-27.2-1.2-41.7l17.4-0.7c0.6,14.6,1,28.4,1.2,42.1L1019.1,1181.8z M1016.9,1119.3c-0.7-13.7-1.5-27.5-2.4-41.8
					l17.4-1.1c0.9,14.3,1.7,28.2,2.4,42L1016.9,1119.3z M1013.2,1056.6l-2.7-41.8l17.4-1.1l2.7,41.8L1013.2,1056.6z M1009.2,993.9
					l-0.3-4.7c-0.7-11.5-1.4-24-2.2-37.2l17.4-1c0.7,13.2,1.5,25.6,2.2,37.1l0.3,4.7L1009.2,993.9z M1005.6,931
					c-0.7-13.3-1.4-27.2-2.1-41.9l17.4-0.8c0.7,14.7,1.4,28.6,2.1,41.8L1005.6,931z M1002.5,868.1c-0.6-13.5-1.2-27.5-1.7-42
					l17.4-0.7c0.6,14.5,1.1,28.4,1.7,41.9L1002.5,868.1z M1000,805.2c-0.5-13.6-1-27.6-1.4-42l17.4-0.5c0.4,14.4,0.9,28.3,1.4,41.9
					L1000,805.2z"/>
			</g>
			<g>
				<path class="st31" d="M996.4,1420.2l-0.2-17.4l12.7-0.2c0.4-4,0.9-8.2,1.3-12.5l17.3,1.7c-0.7,7.3-1.5,14.1-2.1,20.4l-0.8,7.6
					L996.4,1420.2z"/>
			</g>
			<g>
				<path class="st31" d="M766.2,1423l-0.2-17.4l38.4-0.5l0.2,17.4L766.2,1423z M823.8,1422.3l-0.2-17.4l38.4-0.5l0.2,17.4
					L823.8,1422.3z M881.3,1421.6l-0.2-17.4l38.4-0.5l0.2,17.4L881.3,1421.6z M938.9,1420.9l-0.2-17.4l38.4-0.5l0.2,17.4
					L938.9,1420.9z"/>
			</g>
			<g>
				<path class="st31" d="M715.8,1423.5l2.3-10.6c1.4-6.6,2.8-13.2,4.2-19.9l17,3.5c-0.6,3.1-1.3,6.3-1.9,9.4l9.6-0.1l0.2,17.4
					L715.8,1423.5z"/>
			</g>
			<g>
				<path class="st31" d="M743.2,1376.7l-17.1-3.4c2.6-13.1,5.1-26.3,7.5-39.4l17.1,3.1C748.3,1350.2,745.8,1363.6,743.2,1376.7z
					 M754.2,1317.2l-17.1-3c2.3-13.1,4.5-26.5,6.6-39.6l17.2,2.7C758.7,1290.5,756.5,1303.9,754.2,1317.2z M763.9,1257.4l-17.2-2.6
					c1.8-12.3,3.6-24.7,5.3-37.3l0.3-2.5l17.2,2.4l-0.3,2.4C767.5,1232.5,765.8,1245,763.9,1257.4z M772.2,1197.4l-17.2-2.2
					c1.7-13.2,3.3-26.6,4.8-39.9l17.3,1.9C775.6,1170.5,773.9,1184,772.2,1197.4z M779.2,1137.2l-17.3-1.8
					c1.4-13.3,2.7-26.7,3.9-39.9l17.3,1.5C781.9,1110.3,780.6,1123.8,779.2,1137.2z M784.9,1076.9l-17.3-1.4c1.1-13,2.1-26.5,3-40
					l17.3,1.2C786.9,1050.2,785.9,1063.7,784.9,1076.9z M789.1,1016.4l-17.4-1c0.8-13.4,1.5-26.9,2.1-40.1l17.4,0.8
					C790.6,989.4,789.9,1003,789.1,1016.4z M792,955.9l-17.4-0.6c0.4-11.6,0.8-23,1-34.3l-0.3-5.1l17.4-1l0.4,5.8v0.4
					C792.8,932.6,792.5,944.2,792,955.9z M774.2,895.8l-2.5-40.2l17.4-1.1l2.5,40.2L774.2,895.8z M770.4,835.6l-2.5-40.2l17.4-1.1
					l2.5,40.2L770.4,835.6z M766.7,775.3l-2.5-40.2l17.4-1.1l2.5,40.2L766.7,775.3z M762.9,715.1l-2.5-40.2l17.4-1.1l2.5,40.2
					L762.9,715.1z"/>
			</g>
			<g>
				<polygon class="st31" points="759.2,654.8 758.5,643 746.7,643.6 745.8,626.2 774.7,624.7 776.5,653.7 				"/>
			</g>
			<g>
				<path class="st31" d="M177,680.2l-1.3-17.3c14-1.1,28.1-2.1,42.2-3.2l1.3,17.3C205.1,678.1,191.1,679.1,177,680.2z M240.3,675.4
					l-1.3-17.3c14-1,28.1-2.1,42.2-3.1l1.2,17.3C268.4,673.4,254.3,674.4,240.3,675.4z M303.6,670.9l-1.2-17.3c14.1-1,28.1-2,42.2-3
					l1.2,17.3C331.7,668.9,317.6,669.9,303.6,670.9z M366.8,666.4l-1.2-17.3c14.1-1,28.1-1.9,42.2-2.9l1.2,17.4
					C394.9,664.5,380.9,665.5,366.8,666.4z M430.1,662.2l-1.1-17.3c13.4-0.9,26.9-1.8,40.4-2.6l1.8-0.1l1.1,17.4l-1.8,0.1
					C457,660.4,443.6,661.3,430.1,662.2z M493.4,658.1l-1.1-17.4c14.1-0.9,28.2-1.8,42.2-2.6l1.1,17.4
					C521.6,656.4,507.5,657.2,493.4,658.1z M556.7,654.2l-1-17.4c14.1-0.8,28.2-1.7,42.3-2.5l1,17.4
					C584.9,652.5,570.8,653.4,556.7,654.2z M620,650.5l-1-17.4c14.1-0.8,28.2-1.6,42.3-2.4l1,17.4
					C648.2,648.9,634.1,649.7,620,650.5z M683.4,647l-1-17.4c14.1-0.8,28.2-1.5,42.3-2.3l0.9,17.4
					C711.5,645.4,697.5,646.2,683.4,647z"/>
			</g>
			<g>
				<polygon class="st31" points="126.9,684.1 124.9,655 142.2,653.8 143,665.4 154.6,664.5 156,681.8 				"/>
			</g>
			<g>
				<path class="st31" d="M123.4,634.1l-2.9-41.9l17.3-1.2l2.9,41.9L123.4,634.1z M119.1,571.3l-2.9-41.9l17.3-1.2l2.9,41.9
					L119.1,571.3z M114.8,508.5l-2.9-41.9l17.3-1.2l2.9,41.9L114.8,508.5z M110.5,445.7l-2.1-30.4l-0.6-11.7l17.4-0.8l0.6,11.5
					l2.1,30.2L110.5,445.7z"/>
			</g>
			<g>
				<polygon class="st31" points="106.8,382.7 105.4,353.5 134.6,352.7 135.1,370.1 123.6,370.4 124.2,381.9 				"/>
			</g>
			<g>
				<path class="st31" d="M154.6,369.5l-0.5-17.4L193,351l0.5,17.4L154.6,369.5z M212.9,367.9l-0.5-17.4l38.9-1.1l0.5,17.4
					L212.9,367.9z M271.2,366.3l-0.5-17.4l38.9-1.1l0.5,17.4L271.2,366.3z M329.6,364.6l-0.5-17.4l38.9-1.1l0.5,17.4L329.6,364.6z
					 M387.9,363l-0.5-17.4l38.9-1.1l0.5,17.4L387.9,363z M446.2,361.4l-0.5-17.4l38.9-1.1l0.5,17.4L446.2,361.4z M504.6,359.8
					l-0.5-17.4l38.9-1.1l0.5,17.4L504.6,359.8z M562.9,358.1l-0.5-17.4l38.9-1.1l0.5,17.4L562.9,358.1z M621.3,356.5l-0.5-17.4
					l38.9-1.1l0.5,17.4L621.3,356.5z M679.6,354.9l-0.5-17.4l38.9-1.1l0.5,17.4L679.6,354.9z"/>
			</g>
			<g>
				<polygon class="st31" points="737.9,353.3 737.5,335.9 749.2,335.6 749,323.8 766.4,323.4 767,352.5 				"/>
			</g>
			<g>
				<path class="st31" d="M748.6,304.9l-0.8-37.8l17.4-0.4l0.8,37.9L748.6,304.9z M747.4,248.2l-0.8-37.8L764,210l0.8,37.8
					L747.4,248.2z M746.2,191.6l-0.8-37.8l17.4-0.4l0.8,37.8L746.2,191.6z M745,134.9l-0.8-37.8l17.4-0.4l0.8,37.8L745,134.9z"/>
			</g>
		</g>
	</g>
	<g>
		<defs>
			<rect id="SVGID_35_" x="-132.5" width="1511.4" height="1692.3"/>
		</defs>
		<clipPath id="SVGID_36_">
			<use xlink:href="#SVGID_35_"  style="overflow:visible;"/>
		</clipPath>
		<g class="st32">
			<path class="st33" d="M491.8,873.2V839h4.5v30.2h16.9v4H491.8z"/>
			<path class="st33" d="M534.2,870.1c-1.6,1.3-3.1,2.3-4.5,2.8s-3,0.8-4.6,0.8c-2.7,0-4.8-0.7-6.3-2s-2.2-3-2.2-5.1
				c0-1.2,0.3-2.3,0.8-3.3c0.6-1,1.3-1.8,2.2-2.4c0.9-0.6,1.9-1.1,3-1.4c0.8-0.2,2.1-0.4,3.7-0.6c3.4-0.4,5.9-0.9,7.5-1.4
				c0-0.6,0-0.9,0-1.1c0-1.7-0.4-2.9-1.2-3.6c-1.1-1-2.7-1.4-4.8-1.4c-2,0-3.4,0.3-4.4,1c-0.9,0.7-1.6,1.9-2.1,3.7l-4.1-0.6
				c0.4-1.8,1-3.2,1.8-4.3c0.9-1.1,2.1-1.9,3.7-2.5c1.6-0.6,3.5-0.9,5.6-0.9s3.8,0.3,5.2,0.7c1.3,0.5,2.3,1.1,2.9,1.9
				c0.6,0.8,1.1,1.7,1.3,2.9c0.1,0.7,0.2,2,0.2,3.9v5.6c0,3.9,0.1,6.4,0.3,7.4s0.5,2,1.1,3h-4.4
				C534.6,872.3,534.3,871.3,534.2,870.1z M533.9,860.7c-1.5,0.6-3.8,1.2-6.9,1.6c-1.7,0.3-2.9,0.5-3.7,0.8
				c-0.7,0.3-1.3,0.8-1.7,1.4c-0.4,0.6-0.6,1.3-0.6,2c0,1.1,0.4,2.1,1.3,2.8c0.8,0.7,2.1,1.1,3.7,1.1c1.6,0,3.1-0.4,4.3-1.1
				c1.3-0.7,2.2-1.7,2.8-2.9c0.5-1,0.7-2.4,0.7-4.2v-1.5H533.9z"/>
			<path class="st33" d="M566.3,873.2V843H555v-4h27.1v4h-11.3v30.2H566.3z"/>
			<path class="st33" d="M584.5,843.8V839h4.2v4.8H584.5z M584.5,873.2v-24.8h4.2v24.8H584.5z"/>
			<path class="st33" d="M595,873.2v-24.8h3.8v3.8c1-1.8,1.9-2.9,2.7-3.5s1.7-0.8,2.7-0.8c1.4,0,2.9,0.4,4.3,1.4l-1.4,3.9
				c-1-0.6-2.1-0.9-3.1-0.9c-0.9,0-1.7,0.3-2.5,0.8c-0.7,0.6-1.3,1.3-1.6,2.3c-0.5,1.5-0.7,3.1-0.7,4.9v13H595V873.2z"/>
			<path class="st33" d="M627.2,870.1c-1.6,1.3-3.1,2.3-4.5,2.8s-3,0.8-4.6,0.8c-2.7,0-4.8-0.7-6.3-2s-2.2-3-2.2-5.1
				c0-1.2,0.3-2.3,0.8-3.3c0.6-1,1.3-1.8,2.2-2.4c0.9-0.6,1.9-1.1,3-1.4c0.8-0.2,2.1-0.4,3.7-0.6c3.4-0.4,5.9-0.9,7.5-1.4
				c0-0.6,0-0.9,0-1.1c0-1.7-0.4-2.9-1.2-3.6c-1.1-1-2.7-1.4-4.8-1.4c-2,0-3.4,0.3-4.4,1c-0.9,0.7-1.6,1.9-2.1,3.7l-4.1-0.6
				c0.4-1.8,1-3.2,1.8-4.3c0.9-1.1,2.1-1.9,3.7-2.5c1.6-0.6,3.5-0.9,5.6-0.9s3.8,0.3,5.2,0.7c1.3,0.5,2.3,1.1,2.9,1.9
				c0.6,0.8,1.1,1.7,1.3,2.9c0.1,0.7,0.2,2,0.2,3.9v5.6c0,3.9,0.1,6.4,0.3,7.4s0.5,2,1.1,3H628C627.6,872.3,627.3,871.3,627.2,870.1
				z M626.8,860.7c-1.5,0.6-3.8,1.2-6.9,1.6c-1.7,0.3-2.9,0.5-3.7,0.8c-0.7,0.3-1.3,0.8-1.7,1.4c-0.4,0.6-0.6,1.3-0.6,2
				c0,1.1,0.4,2.1,1.3,2.8c0.8,0.7,2.1,1.1,3.7,1.1c1.6,0,3.1-0.4,4.3-1.1c1.3-0.7,2.2-1.7,2.8-2.9c0.4-1,0.7-2.4,0.7-4.2v-1.5
				H626.8z"/>
			<path class="st33" d="M637.6,873.2v-24.8h3.8v3.5c1.8-2.7,4.4-4.1,7.9-4.1c1.5,0,2.9,0.3,4.1,0.8c1.3,0.5,2.2,1.2,2.8,2.1
				c0.6,0.9,1.1,1.9,1.3,3.1c0.2,0.8,0.2,2.1,0.2,4.1v15.2h-4.2V858c0-1.7-0.2-3-0.5-3.8s-0.9-1.5-1.7-2s-1.8-0.8-2.9-0.8
				c-1.8,0-3.3,0.6-4.6,1.7c-1.3,1.1-1.9,3.3-1.9,6.5v13.5L637.6,873.2L637.6,873.2z"/>
			<path class="st33" d="M680.4,870.1c-1.6,1.3-3.1,2.3-4.5,2.8s-3,0.8-4.6,0.8c-2.7,0-4.8-0.7-6.3-2s-2.2-3-2.2-5.1
				c0-1.2,0.3-2.3,0.8-3.3c0.6-1,1.3-1.8,2.2-2.4c0.9-0.6,1.9-1.1,3-1.4c0.8-0.2,2.1-0.4,3.7-0.6c3.4-0.4,5.9-0.9,7.5-1.4
				c0-0.6,0-0.9,0-1.1c0-1.7-0.4-2.9-1.2-3.6c-1.1-1-2.7-1.4-4.8-1.4c-2,0-3.4,0.3-4.4,1c-0.9,0.7-1.6,1.9-2.1,3.7l-4.1-0.6
				c0.4-1.8,1-3.2,1.8-4.3c0.9-1.1,2.1-1.9,3.7-2.5c1.6-0.6,3.5-0.9,5.6-0.9s3.8,0.3,5.2,0.7c1.3,0.5,2.3,1.1,2.9,1.9
				c0.6,0.8,1.1,1.7,1.3,2.9c0.1,0.7,0.2,2,0.2,3.9v5.6c0,3.9,0.1,6.4,0.3,7.4s0.5,2,1.1,3h-4.4
				C680.8,872.3,680.5,871.3,680.4,870.1z M680,860.7c-1.5,0.6-3.8,1.2-6.9,1.6c-1.7,0.3-2.9,0.5-3.7,0.8c-0.7,0.3-1.3,0.8-1.7,1.4
				c-0.4,0.6-0.6,1.3-0.6,2c0,1.1,0.4,2.1,1.3,2.8c0.8,0.7,2.1,1.1,3.7,1.1c1.6,0,3.1-0.4,4.3-1.1c1.3-0.7,2.2-1.7,2.8-2.9
				c0.4-1,0.7-2.4,0.7-4.2v-1.5H680z"/>
		</g>
	</g>
</g>
<text transform="matrix(1 0 0 1 499.591 891.4281)" class="st34 st35 st36">Fiesta de </text>
<text transform="matrix(1 0 0 1 499.591 971.8281)" class="st34 st35 st36">la Tirana</text>
<circle class="st37" cx="463.5" cy="903.5" r="29.2"/>
</svg>
