<?xml version="1.0" encoding="utf-8"?>
<!-- Generator: Adobe Illustrator 24.0.1, SVG Export Plug-In . SVG Version: 6.00 Build 0)  -->
<svg version="1.1" id="Map" xmlns="http://www.w3.org/2000/svg" xmlns:xlink="http://www.w3.org/1999/xlink" x="0px" y="0px"
	 viewBox="0 0 1723 1815.2" style="enable-background:new 0 0 1723 1815.2;" xml:space="preserve">
<style type="text/css">
	.st0{clip-path:url(#SVGID_2_);}
	.st1{fill:#9CB0BD;}
	.st2{fill:#EEEDED;}
	.st3{fill:#E3E2E2;}
	.st4{fill:#DDEADA;}
	.st5{fill:#D4E5B8;}
	.st6{fill:#F4F4CD;}
	.st7{fill:#E0E3E0;}
	.st8{fill:#E8E9E9;}
	.st9{fill:#F9F9F9;}
	.st10{fill:#FFFFFF;}
	.st11{fill:#F8E2B1;}
	.st12{enable-background:new    ;}
	.st13{fill:none;stroke:#FFFFFF;stroke-width:0.5;}
	.st14{fill:#789955;}
	.st15{fill:#C9B8DA;}
	.st16{clip-path:url(#SVGID_2_);enable-background:new    ;}
	.st17{fill:none;}
	.st18{fill:#2B2C2C;}
	.st19{font-family:'Roboto-Regular';}
	.st20{font-size:67px;}
	.st21{fill:#3B7593;}
</style>
<g>
	<defs>
		<rect id="SVGID_1_" x="96.5" y="53.4" width="1511.4" height="1692.3"/>
	</defs>
	<clipPath id="SVGID_2_">
		<use xlink:href="#SVGID_1_"  style="overflow:visible;"/>
	</clipPath>
	<g id="Water_1_" class="st0">
		<g>
			<rect x="-575.9" y="35.9" class="st1" width="2607.7" height="1738.4"/>
		</g>
	</g>
	<g id="Land_1_" class="st0">
		<g>
			<path class="st2" d="M-575.9,1774.3h2607.7V35.9H-575.9V1774.3z"/>
		</g>
	</g>
	<g id="Education_1_" class="st0">
		<g>
			<path class="st3" d="M921.5,1240.5l-0.9-17.9h33.2v29l-42.6-1.7l-0.8-9.4H921.5z"/>
		</g>
	</g>
	<g id="Wood_1_" class="st0">
		<g>
			<path class="st4" d="M-575.9,1774.3V35.9l0,0v1238.4l36.2-15.9l25.2,515.9H-575.9 M-15.2,1774.3l6.6-186l117.6-1.7l1.7,187.7
				H-15.2 M-199.5,1744.3l8.5-8.5l0.8-11.1l7.7-10.2l10.2-9.4V1694l5.1-13.6l17-1.7l2.6-12l-5.1-17.9l-1.7-8.5l6-10.2l9.4-12
				l0.9-10.2l2.6-10.3l6-11.1v-12.8l-1.7-11.9l-2.6-12.8V1538l3.4-11.9l5.1-12l21.3-12.8l27.3-6.8l6,6.8l-5.1,17l-6.8,12l-16.2,11.1
				l-5.1,14.5l5.1,21.3l7.7,16.2l13.6,13.6l5.1,20.5l-6,14.5l-6.8,28.2v16.2l20.5,22.2l-0.9,20.5l-5.1,12.8l-11.1,12l-5.3,20.6
				h-17.6v-12.1l-1.7-13.6l9.3-7.6l0.9-9.4l-4.3-12l5.1-11.1l3.4-10.2l-2.6-11.1l-14.5-9.4l-6-13.6l6-13.6v-17.9l-5.1-19.6l-9.4,3.4
				l-4.3,17v19.6l-4.3,18.8l-3.4,21.3l-12,12l-9.4,13.6l-1.7,16.2l-12.8,10.3l-25.6,11.9l-9.3,5.1l-0.9-8.5L-199.5,1744.3
				 M-261.8,1374.3l17.9,6.8l16.2,3.4l12,2.6l-3.4-12.8l-9.3-1.7l-8.5-10.2l0.8-6.8l1.7-5.1l11.1,0.9l11.1-13.6l25.6-21.3l-0.9-6
				l11.1-15.3l9.4-6.8l-5.1-10.2l-12.8-4.3v-9.4h23l4.3,9.4l6.8,11.1l13.6,6.8l11.1,6.8l1.7,8.5l4.3,7.6l11.9,5.1l6,6.8l-0.9,11.1
				l-8.5,8.5l-20.5,3.4l-22.2-6l-28.1-2.6l-11.1,4.3l0.8,12.8l7.7,4.3l7.7,7.6l11.1,2.6l2.5,12.8l-17,10.3l-10.2,9.3l-5.1,12.8
				l0.9,11.1v9.3l-31.6-6l-9.4-17l-25.6-6.8l-5.1-17.9L-261.8,1374.3z"/>
		</g>
	</g>
	<g id="Cemetery_1_" class="st0">
		<g>
			<path class="st5" d="M1378.4,456.2l5.1-150.9l79.3,7.6l57.1,38.4l-126.2,182.4l-40.9,7.7l-14.5-77.6L1378.4,456.2 M1588.7,1774.3
				l10.5-84.5l125.3,22.2l-10.6,62.4H1588.7z"/>
		</g>
	</g>
	<g id="Sand_1_" class="st0">
		<g>
			<path class="st6" d="M781.7,1694.9l8.5,6l15.3,5.1l-18.7,1.7l-13.6,2.5L781.7,1694.9 M675.1,1694l13.6-13.6l2.6,18.7l9.4,17.9
				l-17.1-11.1l-18.7-5.1L675.1,1694z"/>
		</g>
	</g>
	<g id="Stadium_1_" class="st0">
		<g>
			<path class="st7" d="M1013.5,540.6l203.7,0.9v12.8l6,203.7l0.9,12l-193.5,12.8l-5.1-13.6l-2.6-7.7l-12-217.3L1013.5,540.6z"/>
		</g>
	</g>
	<g id="Park_1_" class="st0">
		<g>
			<path class="st4" d="M211.4,772.5l12.8,41.8l29-9.4l-12.8-41.8L211.4,772.5 M295.8,803.2l5.1,54.5l5.1,57.1l173.9-12l-30.7-2.5
				l-33.2-10.3l-40.9-17l-30.7-23l-13.6-9.3l-15.3-13.6L295.8,803.2 M337.5,833l16.2,12.8l40.1,23.9l24.7,10.3v-56.3h-75l-6,3.4V833
				 M698.1,1682.1l0.8,12l4.3,11.1l8.6,9.4l10.2,5.1l11.1,2.6l11.9-1.7l11.1-5.1l8.6-9.4l5.1-10.2l0.9-12.8l-2.6-12l-6.8-10.2
				l-9.4-7.7l-11.1-3.4h-12.8l-11.1,3.4l-10.2,7.7l-6,10.2L698.1,1682.1 M711.8,882.5l11.9,219.1l90.4-6l-18.7-214.8l-4.3-3.4
				l-41.8,2.6L711.8,882.5 M1020.3,700.9l1.7,35.8l23.9-0.9l-1.7-35.8L1020.3,700.9 M1048.5,575.6l7.7,139.8l70.8-4.3l-6.8-139.8
				L1048.5,575.6 M1053.6,1616.5l46,0.8v-28.1h-46V1616.5z"/>
		</g>
	</g>
	<g id="Building_1_" class="st0">
		<g>
			<path class="st8" d="M-274.6,643.8l0.9,14.5h11.1v-15.3L-274.6,643.8 M-247.3,270.4h10.3V261h-4.3v5.1h-6V270.4 M251.4,859.5
				l0.8,9.4l27.3-1.7l-0.9-12.8H271v3.4L251.4,859.5 M282.9,693.2l1.7,31.6l18.7-1.7v2.6l3.4-0.9l-0.9-11.1h-8.5v-4.3l4.3-0.9
				l-0.9-16.2L282.9,693.2 M292.3,743.5l2.6,32.4l9.4-0.9l-2.6-32.4L292.3,743.5 M295.8,671.1l1.7,17.9h7.6l-1.7-17.9H295.8
				 M306,704.3l1.7,17.9l7.7-0.8v-2.6h5.1l0.9,6.8h5.1l-0.9-7.7l8.5-0.9l-0.8-13.6h-6v-5.1l-15.3,0.9v5.1H306 M311.1,746.9l1.7,28.1
				l15.3-1.7l-2.6-27.3L311.1,746.9 M315.4,899.5l14.5-0.9l-0.8-12.8h-13.6V899.5 M334.1,696.7l2.6,23l20.5-1.7l-1.7-23L334.1,696.7
				 M335.8,802.4h9.3l-0.8-13.6l-8.5,0.9V802.4 M603.5,1005.2l0.9,20.5l53.7-0.9V1001h-51.2L603.5,1005.2 M695.6,998.4l0.8,13.6
				l9.4-0.9v-13.6L695.6,998.4 M710.9,862.9l0.9,7.6l12.8-0.9V862L710.9,862.9 M740.7,814.3l0.9,13.6l9.4-0.8l-0.9-12.8H740.7
				 M741.6,1021.4l11.1,67.3l55.4-9.3l-11.1-65.7l-10.2,1.7l-2.6-14.5l-30.7,5.1l2.5,12.8L741.6,1021.4 M860.1,719.6h16.2l-0.8-17
				h-15.4V719.6 M962.4,1513.3h24.7v-6.8h1.7v-4.3l-26.4,0.9V1513.3 M975.1,877.4l1.7,17.9l25.6-2.6l-0.9-17.9L975.1,877.4
				 M990.5,1548.3h13.6v-16.2h-9.3v-3.4h-4.3V1548.3 M1017.8,1532.9h4.3l-0.8,6l3.4,0.9l-0.9,6.8l11.1,0.9l0.9-12.8h5.1v-6h-4.3
				v-5.1l-17.9-0.9L1017.8,1532.9 M1019.5,887.6l10.3-0.8v-8.5l-10.3,0.8V887.6 M1021.2,1029.1h10.2v-8.5h-10.2V1029.1
				 M1021.2,957.5h10.2V949h-10.2V957.5 M1046.8,1638.6l23-0.9v-6.8l-23,0.9V1638.6 M1058.7,1490.3h12.8v-12.8h-12.8V1490.3
				 M1066.4,1032.5l0.9,13.6l9.4-0.9l-0.9-13.6L1066.4,1032.5 M1086,947.2l0.9,11.1h7.6v-11.1H1086 M1114.1,1067.5l0.8,12l11.1-1.7
				l-1.7-11.9L1114.1,1067.5 M1136.3,1533.8h12.8v-5.1h-3.4v-9.4h-9.3V1533.8 M1151.6,980.5h8.5l-0.9-11.1h-7.6V980.5 M1180.6,856.9
				l0.8,12.8l17.9-0.8l-0.9-13.6L1180.6,856.9 M1184.9,1530.4h8.5v11.9h14.5l0.9-23h-8.5v1.7h-6v-3.4l-9.3-0.9V1530.4 M1190,1506.5
				l10.3,0.8v-6l-9.4-0.9L1190,1506.5 M1199.4,839l23.9-0.8v-8.5l-20.4,0.8v1.7h-3.4V839 M1615.4,1649.7l22.2,2.6v4.3l12,0.8
				l2.5-21.3l-34.9-3.4L1615.4,1649.7 M1620.5,1606.2l29.8,0.9l0.9-18.7l-29.9-0.9L1620.5,1606.2 M1811.4,980.5h17.9v-23h-17.9
				V980.5z"/>
			<path class="st9" d="M1650.4,1658.5l-14-1v-4.3l-22.3-2.6l1.9-19.2l37.1,3.6L1650.4,1658.5z M1638.6,1655.5l9.9,0.7l2.3-19.2
				l-32.8-3.2l-1.5,14.9l22.1,2.6V1655.5z M1045.7,1639.8v-9l25.2-1v9L1045.7,1639.8z M1047.9,1632.8v4.6l20.9-0.8v-4.6
				L1047.9,1632.8z M1651.3,1608.2l-32-0.9l0.9-20.9l32,0.9L1651.3,1608.2z M1621.6,1605.1l27.6,0.8l0.8-16.6l-27.7-0.8
				L1621.6,1605.1z M1005.2,1549.4h-15.8v-21.8h6.5v3.4h9.3V1549.4z M991.6,1547.2h11.5v-14h-9.3v-3.4h-2.1V1547.2z M1035.8,1548.6
				l-13.3-1l0.9-7l-3.4-0.9l0.8-5.7h-4.2l1.1-12.5l20,1v5.1h4.3v8.1h-5.2L1035.8,1548.6z M1025,1545.5l8.8,0.7l0.9-12.7h5.1v-3.8
				h-4.3v-5.2l-15.8-0.8l-0.7,8h4.3l-0.9,6.2l3.4,0.9L1025,1545.5z M1208.9,1543.4h-16.6v-11.9h-8.5v-15.9l11.5,1.1v3.3h3.8v-1.7
				h10.7L1208.9,1543.4z M1194.5,1541.2h12.3l0.8-20.8h-6.3v1.7h-8.2v-3.5l-7.2-0.7v11.4h8.5V1541.2z M1150.2,1534.8h-15v-16.6h11.5
				v9.4h3.4V1534.8z M1137.4,1532.7h10.6v-2.9h-3.4v-9.4h-7.2V1532.7z M988.2,1514.4h-26.9V1502l28.6-0.9v6.5h-1.7V1514.4z
				 M963.5,1512.2H986v-6.8h1.7v-2.1l-24.3,0.8V1512.2z M1201.3,1508.5l-12.6-1l1.2-8.2l11.4,1.1V1508.5z M1191.2,1505.5l7.9,0.6
				v-3.8l-7.4-0.7L1191.2,1505.5z M1072.6,1491.4h-15v-15h15V1491.4z M1059.8,1489.2h10.6v-10.6h-10.6V1489.2z M751.8,1090
				l-11.4-69.5l14.4-2.6l-2.5-12.8l32.8-5.5l2.6,14.5l10.2-1.7l0.2,1.1l11.3,66.7L751.8,1090z M742.8,1022.3l10.7,65.2l53.3-9
				l-10.7-63.5l-10.2,1.7l-2.6-14.5l-28.5,4.8l2.5,12.8L742.8,1022.3z M1114,1080.7l-1-14.1l12.3-2l2,14.1L1114,1080.7z
				 M1115.3,1068.4l0.7,9.8l8.9-1.4l-1.4-9.7L1115.3,1068.4z M1066.2,1047.4l-1-15.8l11.6-1.1l1,15.8L1066.2,1047.4z M1067.5,1033.5
				l0.7,11.5l7.2-0.7l-0.7-11.5L1067.5,1033.5z M1032.5,1030.2h-12.4v-10.7h12.4V1030.2z M1022.3,1028h8v-6.3h-8V1028z
				 M603.3,1026.8l-0.9-21.9l4-5h52.8v26L603.3,1026.8z M604.6,1005.6l0.8,19l51.6-0.8v-21.7h-49.5L604.6,1005.6z M695.4,1013.2
				l-1-15.8l12.4-1v15.8L695.4,1013.2z M696.7,999.4l0.7,11.5l7.3-0.7v-11.4L696.7,999.4z M1830.4,981.6h-20.1v-25.2h20.1V981.6z
				 M1812.5,979.4h15.7v-20.8h-15.7V979.4z M1161.3,981.6h-10.8v-13.3h9.7L1161.3,981.6z M1152.7,979.4h6.3l-0.7-8.9h-5.6V979.4z
				 M1095.6,959.4h-9.7l-1-13.3h10.8V959.4z M1087.8,957.2h5.6v-8.9h-6.3L1087.8,957.2z M1032.5,958.6h-12.4v-10.7h12.4V958.6z
				 M1022.3,956.4h8v-6.3h-8V956.4z M314.3,900.7v-15.9H330l1,14.9L314.3,900.7z M316.4,887v11.4l12.2-0.7L328,887H316.4z
				 M975.9,896.5l-2-20.1l28.6-2.8l1,20.1L975.9,896.5z M976.3,878.3l1.5,15.7l23.4-2.4l-0.8-15.7L976.3,878.3z M1018.4,888.8v-10.7
				l12.4-1v10.7L1018.4,888.8z M1020.6,880.1v6.3l8.1-0.6v-6.3L1020.6,880.1z M710.8,871.7l-1.1-9.8l15.9-1v9.8L710.8,871.7z
				 M712.1,863.9l0.6,5.5l10.7-0.7v-5.5L712.1,863.9z M1180.4,870.8l-1-14.9l20-1.9l1,15.9L1180.4,870.8z M1181.8,857.9l0.7,10.7
				l15.7-0.7l-0.7-11.4L1181.8,857.9z M251.3,870l-1-11.5l19.7-1.7v-3.5h9.7l1,14.9L251.3,870z M252.6,860.4l0.6,7.2l25.1-1.6
				l-0.7-10.7h-5.5v3.3L252.6,860.4z M1198.3,840.1v-9h3.4v-1.7l22.6-0.9v10.7L1198.3,840.1z M1200.4,833.3v4.6l21.7-0.8v-6.3
				l-18.3,0.7v1.7H1200.4z M740.6,829.1l-1-15.9h11.6l1,14.9L740.6,829.1z M741.9,815.4l0.7,11.3l7.2-0.6l-0.7-10.7H741.9z
				 M346.3,803.4h-11.6v-14.8l10.6-1.1L346.3,803.4z M336.9,801.3h7.1l-0.7-11.4l-6.4,0.7V801.3z M293.9,777.1l-2.7-34.5l11.6-1.1
				l2.7,34.5L293.9,777.1z M293.5,744.5l2.4,30.2l7.2-0.7l-2.4-30.2L293.5,744.5z M311.8,776.3l-1.8-30.3l16.6-1l2.8,29.4
				L311.8,776.3z M312.3,748l1.6,25.9l13.1-1.5l-2.4-25.2L312.3,748z M302.3,727v-2.8l-18.7,1.7l-1.9-33.8l20.1-0.9l1,18.2l-4.3,0.9
				v2.3h7.1l-0.9-9.4h6.1v-5l17.5-1v5.2h5.3l-0.8-6.7l23.5-1.9l1.9,25.2l-22.6,1.9l-0.6-5.7l0.2,2.9l-8.5,0.9l0.9,7.8h-7.3l-0.9-6.8
				h-3v2.5l-8.6,0.9l0.2,2.3L302.3,727z M322.3,724.6h3l-0.9-7.6l8.6-0.9l-0.7-11.5h-6.1v-5.1l-13.2,0.7v5.1h-5.8l1.5,15.6l5.6-0.6
				v-2.7h7.1L322.3,724.6z M304.5,721.9v2.4l1.2-0.3l-0.7-9.2h-8.6v-6.2l4.2-0.9l-0.8-14.2l-15.7,0.7l1.6,29.3L304.5,721.9z
				 M335.3,697.6l2.3,20.8L356,717l-1.5-20.9L335.3,697.6z M877.4,720.7H859v-19.2h17.5L877.4,720.7z M861.1,718.6h14l-0.7-14.9
				h-13.3V718.6z M306.3,690h-9.8l-1.9-20.1h9.8L306.3,690z M298.4,687.9h5.5l-1.5-15.7H297L298.4,687.9z M-261.5,659.4h-13.2
				l-1-16.6l14.2-1V659.4z M-272.7,657.2h9v-13.1l-9.7,0.7L-272.7,657.2z M-235.9,271.5h-12.4V265h6V260h6.5V271.5z M-246.2,269.3
				h8.1v-7.2h-2.1v5.1h-6V269.3z"/>
		</g>
	</g>
	<g id="Footway-Outline_1_" class="st0">
		<g>
			<path class="st10" d="M-217.4,1704.6c-1.2,0-2.3-0.4-3.3-1.1c-2.4-1.8-2.8-5.2-1-7.6l11.1-14.5l1.9-1.6l18.7-9.4l28-11.9
				l19.4-12.1l17.8-21.1l26.1-50.6l4.6-2.9l23-0.9c3-0.1,5.5,2.2,5.6,5.2c0.1,3-2.2,5.5-5.2,5.6l-19.8,0.7l-25.6,49.3l-18.8,22.2
				l-1.3,1.1l-21.2,13.2l-28.1,11.9l-17.3,8.7l-10.3,13.5C-214.2,1703.8-215.8,1704.6-217.4,1704.6z M-218.3,1584.4
				c-2.7,0-5.1-2-5.4-4.8l-5.1-45.2l-16.1-84.8l-13.6-61.2l-6.8-26.3l0.3-3.7l6-12.8l2-2.3l18.8-11.9l22-13.4l3.7-15.7
				c0.7-2.9,3.6-4.7,6.5-4c2.9,0.7,4.7,3.6,4,6.5l-4.3,17.9l-2.5,3.4l-23.9,14.5l-17.3,11l-4.5,9.6l6.3,24.6l13.7,61.5l16.2,85.4
				l5.2,45.6c0.3,3-1.8,5.7-4.8,6C-217.9,1584.4-218.1,1584.4-218.3,1584.4z M20.4,1019.2c-1.7,0-3.4-0.8-4.4-2.3l-4.3-6l-1-2.9
				L-0.1,819.7h-47.7c-3,0-5.4-2.4-5.4-5.4s2.4-5.4,5.4-5.4H5l5.4,5.1l11,191.9l3.3,4.7c1.7,2.4,1.2,5.8-1.3,7.6
				C22.6,1018.8,21.5,1019.2,20.4,1019.2z M768.9,1009c-2.5,0-4.8-1.8-5.3-4.4l-3.4-17l-16.2-106.8c-0.4-3,1.6-5.7,4.6-6.2
				c3-0.5,5.7,1.6,6.2,4.6l16.2,106.6l3.4,16.8c0.6,2.9-1.3,5.8-4.3,6.4C769.6,1008.9,769.2,1009,768.9,1009z M453.4,907.5
				c-0.4,0-0.8,0-1.2-0.1l-27.3-6.2l-21.2-8.5c-0.1,0-0.2-0.1-0.2-0.1l-32.4-13.2l-17.9-11.9l-21.4-14.9l-6.5-1.5l1.4,34.6
				c0.1,3-2.2,5.5-5.2,5.6c-3,0.1-5.5-2.2-5.6-5.2l-1.5-36l-3,1.3l-3.4,2.8l-2.1,5.5c-1.1,2.8-4.2,4.2-7,3.2c-2.8-1.1-4.2-4.2-3.2-7
				l2.6-6.8l1.6-2.3l5.1-4.3l1.3-0.8l6-2.6l2.1-0.4h5.1c0.3,0,0.9,0.1,1.4,0.2l14.3,3.4l1.9,0.8l22.2,15.4l17.4,11.5l24.4,9.9v-61.3
				c0-3,2.4-5.4,5.4-5.4s5.4,2.4,5.4,5.4l0,62.9l-0.3,2.7l17,6.8l26,5.9c2.9,0.7,4.8,3.6,4.1,6.5
				C458.2,905.8,455.9,907.5,453.4,907.5z M-104.1,886.2C-104.1,886.2-104.1,886.2-104.1,886.2c-3,0-5.5-2.5-5.4-5.5l1.7-254
				c0-3,2.4-5.4,5.4-5.4c0,0,0,0,0,0c3,0,5.4,2.5,5.4,5.5l-1.7,254C-98.7,883.8-101.1,886.2-104.1,886.2z M1231.7,720.8
				c-1.4,0-2.8-0.5-3.8-1.6c-1.1-1.1-1.6-2.5-1.6-3.8c0-1.4,0.5-2.8,1.6-3.8l93.8-93.7l57.9-59.6l2.8-1.5l47.7-9.4
				c0.2,0,0.4-0.1,0.5-0.1L1651,504l24.3-13.8l17.5-15l86.5-75.4l17.5-24.2c1.8-2.4,5.2-3,7.6-1.2c2.4,1.8,3,5.2,1.2,7.6l-18.7,25.6
				l-87,75.9l-18.8,16l-25.6,14.5l-1.6,0.6L1386.2,567l-56.8,58.5l-93.8,93.8C1234.5,720.3,1233.1,720.8,1231.7,720.8z
				 M-148.4,573.4c-2.4,0-4.7-1.7-5.3-4.2l-39.2-162c-0.7-2.9,1.1-5.9,4-6.6c2.9-0.7,5.9,1.1,6.6,4l39.2,162c0.7,2.9-1.1,5.9-4,6.6
				C-147.6,573.3-148,573.4-148.4,573.4z M-94.7,307.4c-3,0-5.4-2.4-5.4-5.4v-23l-0.8-49.4v-94.7c0-3,2.4-5.4,5.4-5.4
				c3,0,5.4,2.4,5.4,5.4v94.6l0.8,49.4v23.1C-89.3,304.9-91.7,307.4-94.7,307.4z"/>
		</g>
	</g>
	<g id="Service-Outline_1_" class="st0">
		<g id="Acceso-camping-El-Carmelo_1_">
			<path class="st10" d="M568.1,1779.7c-2.9,0-5.3-2.2-5.4-5.1l-3.9-69.2c-0.1-3,2.2-5.5,5.2-5.7c3-0.2,5.5,2.2,5.7,5.2l0.9,17.9
				l3,51.2c0.2,3-2.1,5.6-5.1,5.7C568.3,1779.7,568.2,1779.7,568.1,1779.7z"/>
		</g>
		<g>
			<path class="st10" d="M1642.1,1779.7c-0.3,0-0.5,0-0.8-0.1c-3-0.4-5-3.2-4.6-6.1l10-71.8c0.4-3,3.1-5,6.1-4.6
				c3,0.4,5,3.2,4.6,6.1l-10,71.8C1647.1,1777.8,1644.7,1779.7,1642.1,1779.7z M1031.5,1070.3l-19.9-0.8c-3-0.1-5.3-2.7-5.2-5.7
				c0.1-3,2.5-5.3,5.7-5.2l19.6,0.8l77.2-1.7c0.1,0,0.3,0,0.4,0c0,0,0,0,0,0c0,0,0,0,0,0c0,0,0,0,0,0c0,0,0,0,0,0h0c0,0,0,0,0,0l0,0
				c0.1,0,0.2,0,0.3,0l0,0c0,0,0,0,0,0c0,0,0,0,0,0c0,0,0,0,0,0c0,0,0,0,0,0c0,0,0,0,0,0c0,0,0,0,0,0h0c0,0,0,0,0,0c0,0,0,0,0,0
				c0,0,0,0,0,0c0,0,0,0,0,0c0,0,0,0,0,0c0,0,0,0,0,0c0,0,0,0,0,0c0,0,0,0,0,0c0,0,0,0,0,0c0,0,0,0,0,0l0,0c0,0,0,0,0,0c0,0,0,0,0,0
				c0,0,0,0,0,0c1.3,0.3,2.5,1.1,3.3,2.3l0,0c0,0,0,0,0,0.1c0,0,0,0,0,0c0,0,0,0,0,0c0,0,0,0,0,0c0,0,0,0,0,0c0,0,0,0,0,0
				c0,0,0,0,0,0c0,0,0,0,0,0c0,0,0,0,0,0c0,0,0,0,0,0c0,0,0,0,0,0c0,0,0,0,0,0c0,0,0,0,0,0c0,0,0,0,0,0c0,0,0,0,0,0c0,0,0,0,0,0
				c0,0,0,0,0,0c0,0,0,0,0,0c0,0,0,0,0,0c0,0,0,0,0,0c0,0,0,0,0,0c0,0,0,0,0,0c0,0,0,0,0,0c0,0,0,0,0,0c0,0,0,0,0,0c0,0,0,0,0,0
				c0,0,0,0,0,0c0,0,0,0,0,0c0,0,0,0,0,0c0,0,0,0,0,0c0,0,0,0,0,0c0,0,0,0,0,0c0,0,0,0,0,0c0,0,0,0,0,0c0,0,0,0,0,0c0,0,0,0,0,0
				c0,0,0,0,0,0c0,0,0,0,0,0c0,0,0,0,0,0c0,0,0,0,0,0c0,0,0,0,0,0v0c0,0,0,0,0,0c0,0,0,0,0,0c0,0,0,0,0,0c0,0,0,0,0,0
				c0.3,0.7,0.5,1.4,0.5,2.2c0,0.1,0,0.2,0,0.2v0c0,0,0,0,0,0c0,0,0,0,0,0c0,0,0,0,0,0c0,0,0,0,0,0c0,0,0,0,0,0c0,0,0,0,0,0
				c0,0,0,0,0,0c0,0,0,0,0,0s0,0,0,0c0,0,0,0,0,0c0,0,0,0,0,0c0,0,0,0,0,0c0,0,0,0,0,0c0,0,0,0,0,0c0,0,0,0,0,0c0,0,0,0,0,0
				c0,0,0,0,0,0c0,0,0,0,0,0c0,0,0,0,0,0c0,0,0,0,0,0c0,0,0,0,0,0c0,0,0,0,0,0c0,0,0,0,0,0c0,0,0,0,0,0c0,0,0,0,0,0c0,0,0,0,0,0
				c0,0,0,0,0,0c0,0,0,0,0,0c0,0,0,0,0,0c0,0,0,0,0,0c0,0,0,0,0,0c0,0,0,0,0,0c0,0,0,0,0,0c0,0,0,0,0,0c0,0,0,0,0,0c0,0,0,0,0,0
				c0,0,0,0,0,0c0,0,0,0,0,0c0,0,0,0,0,0c0,0,0,0,0,0c0,0,0,0,0,0c0,0,0,0,0,0c0,0,0,0,0,0c0,0,0,0,0,0c0,0,0,0,0,0c0,0,0,0,0,0
				c0,0,0,0,0,0c0,0,0,0,0,0c0,0,0,0,0,0c0,0,0,0,0,0c0,0,0,0,0,0c0,0,0,0,0,0c0,0,0,0,0,0c0,0,0,0,0,0c0,0,0,0,0,0c0,0,0,0,0,0
				c0,0,0,0,0,0c0,0,0,0,0,0c0,0,0,0,0,0c0,0,0,0,0,0c0,0,0,0,0,0c0,0,0,0,0,0c0,0,0,0,0,0c0,0,0,0,0,0c0,0,0,0,0,0c0,0,0,0,0,0
				c0,0,0,0,0,0c0,0,0,0,0,0c0,0,0,0,0,0c0,0,0,0,0,0c0,0,0,0,0,0c0,0,0,0,0,0c0,0,0,0,0,0c0,0,0,0,0,0c0,0,0,0,0,0c0,0,0,0,0,0
				c0,0,0,0,0,0c0,0,0,0,0,0c0,0,0,0,0,0c0,0,0,0,0,0c0,0,0,0,0,0l0,0c-0.3,0.9-0.7,1.7-1.4,2.4l0,0c0,0,0,0,0,0v0c0,0,0,0,0,0
				c0,0,0,0,0,0c0,0,0,0,0,0c0,0,0,0,0,0c0,0,0,0,0,0c0,0,0,0,0,0c0,0,0,0,0,0c0,0,0,0,0,0c0,0,0,0,0,0c0,0,0,0,0,0c0,0,0,0,0,0
				c0,0,0,0,0,0c0,0,0,0,0,0c0,0,0,0,0,0c0,0,0,0,0,0c0,0,0,0,0,0c0,0,0,0,0,0c0,0,0,0,0,0c0,0,0,0,0,0c0,0,0,0,0,0c0,0,0,0,0,0
				c0,0,0,0,0,0c0,0,0,0,0,0c0,0,0,0,0,0c0,0,0,0,0,0c0,0,0,0,0,0l0,0c0,0,0,0,0,0v0c0,0,0,0,0,0l0,0c0,0-0.1,0.1-0.1,0.1l0,0
				c-0.2,0.1-0.3,0.2-0.5,0.3l0,0c0,0,0,0,0,0v0c0,0,0,0,0,0h0c0,0,0,0,0,0c0,0,0,0,0,0c0,0,0,0,0,0v0c0,0,0,0,0,0c0,0,0,0,0,0
				c0,0,0,0,0,0l0,0c0,0,0,0,0,0c0,0,0,0,0,0c0,0,0,0,0,0c0,0,0,0,0,0c0,0,0,0,0,0c0,0,0,0,0,0c0,0,0,0,0,0c0,0,0,0,0,0c0,0,0,0,0,0
				c0,0,0,0,0,0c0,0,0,0,0,0c0,0,0,0,0,0c0,0,0,0,0,0c0,0,0,0,0,0c0,0,0,0,0,0l0,0c0,0,0,0,0,0c0,0,0,0,0,0
				c-0.6,0.2-1.2,0.3-1.8,0.4l-27.3,0.9c-0.6,0-1.2-0.1-1.8-0.2L1031.5,1070.3z M1998.1,976.6c-3,0-5.4-2.4-5.4-5.4l-0.9-143.2
				c0-3,2.4-5.4,5.4-5.5c0,0,0,0,0,0c3,0,5.4,2.4,5.4,5.4l0.9,143.2C2003.6,974.1,2001.2,976.6,1998.1,976.6
				C1998.1,976.6,1998.1,976.6,1998.1,976.6z M110.1,968l-1-0.1l-29.9-4.3l-2.2-0.8l-17-11.1l-1.9-2.1l-18.8-36.6l-0.5-1.7
				l-7.6-55.4l0.8-3.7l11.1-17l2.5-2.1l25.7-10.6l94.3-20.3l-12.8-15.1l-68.9-68.1l-27.1-10.7l-2.5-2.1l-28-42.4l-12.6-16
				c-1.9-2.4-1.5-5.8,0.9-7.6c2.4-1.9,5.8-1.5,7.6,0.9l13,16.6l27.2,41.2l26.5,10.5l1.8,1.2l70.2,69.4l18.7,22.1
				c0,0,0.1,0.1,0.1,0.1l9.2,10.1l29.9,33.9l60.5-2.5l16.4,0c3,0,5.4,2.4,5.4,5.4s-2.4,5.4-5.4,5.4h-16.2l-54.6,2.2l28.8,59.9
				l-1.9,6.9l-44.3,29.9l-1.8,0.8l-51.3,12L110.1,968z M82,953.1l28.2,4l43.3-1.7l48.8-11.6l39.6-26.7l-30.1-62.4l-38.2-43.1
				L74,833.1l-22.7,9.4l-9.1,13.9l7.2,52.5l17.7,34.5L82,953.1z M279.5,741.3c-2.8,0-5.1-2.1-5.4-4.9l-0.9-8.5l-4.2-33.1l-1.7-10
				c-0.5-3,1.5-5.8,4.5-6.2c2.9-0.5,5.8,1.5,6.2,4.5l1.7,10.2l4.3,33.4l0.9,8.7c0.3,3-1.9,5.7-4.9,6
				C279.9,741.3,279.7,741.3,279.5,741.3z M84.3,364.5c-2.9,0-5.3-2.2-5.4-5.1c-0.2-3,2.1-5.6,5.1-5.7l72.4-4.3
				c3-0.2,5.6,2.1,5.7,5.1c0.2,3-2.1,5.6-5.1,5.7l-72.4,4.3C84.5,364.5,84.4,364.5,84.3,364.5z"/>
		</g>
		<g id="Acceso-Cementerio-La-Tirana_1_">
			<path class="st10" d="M1539.7,1779.7c-0.4,0-0.9-0.1-1.3-0.2l-44.9-11.1l-9-0.8c-3-0.3-5.2-2.9-4.9-5.9c0.3-3,3-5.2,5.9-4.9
				l10.2,1l45.3,11.2c2.9,0.7,4.7,3.7,4,6.6C1544.3,1778.1,1542.1,1779.7,1539.7,1779.7z"/>
		</g>
		<g id="Acceso-a-Capilla-La-Tirana_1_">
			<path class="st10" d="M1515.1,1667l-16.2-1.7l-21.4-2.6c-3-0.4-5.1-3.1-4.7-6c0.4-3,3.1-5.1,6-4.7l21.3,2.6l14.5,1.5l13.9-6.9
				l15.6-6.9l1.9-0.5l13.6-0.9l1,0l40.1,5.1c3,0.4,5.1,3.1,4.7,6.1c-0.4,3-3.2,5.1-6.1,4.7l-39.6-5.1l-12.2,0.8l-14.5,6.4l-15.1,7.5
				L1515.1,1667z"/>
		</g>
	</g>
	<g id="Local-Outline_1_" class="st0">
		<g id="Las-Cuyacas_1_">
			<path class="st10" d="M1238.6,862.3c-3,0-5.4-2.4-5.4-5.4s2.4-5.4,5.4-5.4h17.9l56.9-1.7l106.1-6.8l10.8-1.7
				c0.6-0.1,1.2-0.1,1.7,0l19.7-2.6c3-0.4,5.7,1.7,6.1,4.7c0.4,3-1.7,5.7-4.7,6.1l-32.8,4.3l-106.6,6.8l-57.3,1.7L1238.6,862.3z"/>
		</g>
		<g id="Santa-Rosa_1_">
			<path class="st10" d="M1484.6,1779.7c-0.1,0-0.1,0-0.2,0c-3-0.1-5.4-2.6-5.3-5.6l1.2-45.2l-10-29.8l-9.2-29.3l-6.1-10.3
				l-199.8-48.1l-13.7-3.4l-3.4-2.5l-21.3-35.8c-0.5-0.9-0.8-1.8-0.8-2.8c0-1.9,0.9-3.7,2.7-4.7c2.6-1.5,5.9-0.7,7.4,1.9l20.1,33.9
				l11.4,2.8l174.7,41.8c0.5,0.1,1,0.3,1.4,0.6l25.6,6.2l19.3,2.5c3,0.4,5.1,3.1,4.7,6.1c-0.4,3-3.2,5.1-6.1,4.7l-8.5-1.1l2.4,4.3
				l9.4,29.8l10.2,30.6l0.3,1.9l-1.2,46.2C1489.9,1777.4,1487.5,1779.7,1484.6,1779.7z"/>
		</g>
		<g id="Pedro-Guadama_1_">
			<path class="st10" d="M945.3,1779.7c-2.9,0-5.3-2.3-5.4-5.2l-2.6-62.4c-0.1-3,2.2-5.5,5.2-5.7c3.1,0,5.5,2.2,5.7,5.2l2.6,62.4
				c0.1,3-2.2,5.5-5.2,5.7C945.5,1779.7,945.4,1779.7,945.3,1779.7z"/>
		</g>
		<g id="Vasco-de-Almeyda_1_">
			<path class="st10" d="M1175.5,1643.2c-1,0-2-0.3-3-0.9c-1.6-1-2.5-2.8-2.5-4.6c0-1,0.3-2,0.9-3l45.9-70.6l6.3-11.9l16.1-78.5
				l1.6-9.7l2.6-62.4l8.5-62.7l-1.7-68.6l-5.1-133.7l-1.7-34.1l-3.4-93l-1.7-23.7l-7.7-195.4l-4.3-74.9l-4.3-181.8c0,0,0-0.1,0-0.1
				c0-2.9,2.3-5.4,5.3-5.4c2.8-0.1,5.5,2.3,5.6,5.3l4.3,181.6l4.3,74.8l7.7,195.3l1.7,23.7l3.4,93.1l1.7,34l5.1,133.9l1.7,69.1
				l-0.1,0.9l-0.9,6l-7.6,56.8l-2.6,62.6l-1.7,10.3l-16.2,79.5l-0.5,1.5l-7.1,13.2l-46,70.8
				C1179,1642.3,1177.3,1643.2,1175.5,1643.2z"/>
		</g>
		<g id="Pedro-de-Guagama_1_">
			<path class="st10" d="M944.5,1634.7c-2.9,0-5.4-2.4-5.4-5.3l-1.7-82.7l0.1-1l12.8-78.4l29-149.1l5.1-46.6l20.5-168.9l3.4-79.7
				l0-33.8l-0.8-128c-0.6,0.3-1.2,0.4-1.8,0.5c-3.1,0.2-5.6-2-5.8-5l-5.1-65.7l-4.3-103.3l-4.3-156.1v-8.7l-1.7-56.1l-0.9-11.7
				l-1.7-57.3l-6-286.5c-0.1-3,2.3-5.5,5.3-5.5c0,0,0.1,0,0.1,0c2.9,0,5.4,2.4,5.4,5.3l6,286.4l1.7,57.1l0.9,11.7l1.7,56.5l0,8.7
				l4.3,155.9l4.3,103.1l4.8,61.1c0.8-0.4,1.6-0.6,2.5-0.6c0,0,0,0,0,0c3,0,5.4,2.4,5.4,5.4l0.9,133v34.1l-3.4,80.4l-20.5,169.2
				l-5.2,47.2l-29,149.2l-12.7,77.8l1.7,82.2c0.1,3-2.3,5.5-5.3,5.5C944.5,1634.7,944.5,1634.7,944.5,1634.7z M984.5,1318.9
				L984.5,1318.9L984.5,1318.9z"/>
		</g>
		<g id="Los-Sambos_1_">
			<path class="st10" d="M1248.8,1407.9c-3,0-5.4-2.4-5.4-5.4c0-3,2.4-5.4,5.4-5.4h7.6l126.8-6c3-0.1,5.5,2.2,5.7,5.2
				c0,0.1,0,0.2,0,0.3c0,2.9-2.3,5.3-5.2,5.4l-127,6L1248.8,1407.9z"/>
		</g>
		<g id="Los-Tamarugos_1_">
			<path class="st10" d="M155.9,333.8c-3,0-5.4-2.4-5.4-5.4c0-3,2.4-5.5,5.4-5.5l78.4-0.8h108.3l141.3-5.1l152,0.9l51.9-0.9
				c3.1,0,5.5,2.3,5.5,5.3c0.1,3-2.3,5.5-5.3,5.5l-52,0.9l-151.9-0.9L342.8,333l-108.5,0L155.9,333.8
				C156,333.8,156,333.8,155.9,333.8z"/>
		</g>
		<g id="Circunvalaci-n-Norte_1_">
			<path class="st10" d="M687,245.1c0,0-0.1,0-0.1,0l-204.6-5.1l-142.2-0.9c-3,0-5.4-2.5-5.4-5.5c0-3,2.4-5.4,5.4-5.4c0,0,0,0,0,0
				l142.3,0.9l204.7,5.1c3,0.1,5.4,2.6,5.3,5.6C692.4,242.8,690,245.1,687,245.1z"/>
		</g>
		<g id="_x32_1-de-Mayo_1_">
			<path class="st10" d="M346,473.6c-2.9,0-5.3-2.3-5.4-5.2c-0.1-3,2.2-5.5,5.2-5.6l141.5-5.1l204.6-6.8c3-0.1,5.5,2.3,5.6,5.3
				c0.1,3-2.2,5.5-5.2,5.6l-204.6,6.8l-141.5,5.1C346.2,473.6,346.1,473.6,346,473.6z"/>
		</g>
		<g id="Marco-Castro_1_">
			<path class="st10" d="M155.9,407.1c-3,0-5.4-2.4-5.4-5.4c0-3,2.4-5.5,5.4-5.5l117.6-1.7c3,0,5.5,2.4,5.5,5.4c0,3-2.4,5.5-5.4,5.5
				L155.9,407.1C156,407.1,156,407.1,155.9,407.1z"/>
		</g>
		<g id="Pasaje-Santa-Elena_1_">
			<path class="st10" d="M178.1,136.9C178.1,136.9,178.1,136.9,178.1,136.9c-3.1,0-5.5-2.5-5.4-5.5l1.3-95.6c0-3,2.5-5.4,5.4-5.4
				c0,0,0.1,0,0.1,0c3,0,5.4,2.5,5.4,5.5l-1.3,95.6C183.5,134.5,181.1,136.9,178.1,136.9z"/>
		</g>
		<g id="M-Gonz-lez_1_">
			<path class="st10" d="M334.1,1210.1c-2.9,0-5.3-2.3-5.4-5.3c-0.1-3,2.3-5.5,5.3-5.6l162.9-4.3c2.8-0.1,5.5,2.3,5.6,5.3
				c0.1,3-2.3,5.5-5.3,5.6l-162.9,4.3C334.2,1210.1,334.1,1210.1,334.1,1210.1z"/>
		</g>
		<g id="Santa-Marta_1_">
			<path class="st10" d="M462,1641.5c-3,0-5.4-2.4-5.4-5.4l-0.8-81l-1.7-76.7l-2.6-75.8l-0.9-35c-0.1-3,2.3-5.5,5.3-5.6
				c3-0.1,5.5,2.3,5.6,5.3l0.9,35l2.6,75.8l1.7,76.8l0.8,81C467.4,1639,465,1641.5,462,1641.5C462,1641.5,462,1641.5,462,1641.5z
				 M529.3,1405.4c-2.9,0-5.3-2.3-5.4-5.2l-1.7-36.7l-3.4-79.3c-0.1-3,2.2-5.5,5.2-5.7c2.9,0,5.5,2.2,5.7,5.2l5.1,115.9
				c0.1,3-2.2,5.5-5.2,5.7C529.5,1405.4,529.4,1405.4,529.3,1405.4z"/>
		</g>
		<g id="Calle-Violeta_1_">
			<path class="st10" d="M-190.2,776.2c-2.9,0-5.4-2.3-5.4-5.3c-0.1-3,2.3-5.5,5.3-5.6l30.4-0.7l-3.3-144.6c-0.1-3,2.3-5.5,5.3-5.6
				c3.2-0.1,5.5,2.3,5.6,5.3l3.4,150.1l-5.3,5.6l-35.8,0.8C-190.1,776.2-190.1,776.2-190.2,776.2z"/>
		</g>
		<g id="Iquique_1_">
			<path class="st10" d="M358.8,1377.2c-2.9,0-5.3-2.3-5.4-5.2c-0.1-3,2.2-5.5,5.2-5.7l97.2-4.3l71.5-4.3c3.1-0.2,5.6,2.1,5.7,5.1
				c0.2,3-2.1,5.6-5.1,5.7l-71.6,4.3l-97.3,4.3C359,1377.2,358.9,1377.2,358.8,1377.2z"/>
		</g>
		<g id="Oscar-Bonilla_1_">
			<path class="st10" d="M456.9,1407.9c-2.9,0-5.3-2.3-5.4-5.2c-0.1-3,2.2-5.5,5.2-5.6l72.5-2.6l82.7-3.4c2.9-0.1,5.5,2.2,5.7,5.2
				c0.1,3-2.2,5.5-5.2,5.7l-82.7,3.4l-72.5,2.6C457,1407.9,456.9,1407.9,456.9,1407.9z"/>
		</g>
		<g id="Pasaje-10-Oriente_1_">
			<path class="st10" d="M357.9,656.9c-2.8,0-5.2-2.1-5.4-4.9c-0.3-3,1.9-5.6,4.9-5.9l75.9-6.8l64.1-4.3c3-0.2,5.6,2.1,5.8,5.1
				c0.2,3-2.1,5.6-5.1,5.8l-63.9,4.3l-75.8,6.8C358.3,656.9,358.1,656.9,357.9,656.9z"/>
		</g>
		<g id="Calle-Pablo-Neruda_1_">
			<path class="st10" d="M-490.2,868.3c-2.9,0-5.3-2.2-5.4-5.1L-511,577.6c-0.2-3,2.1-5.6,5.1-5.7c3-0.2,5.6,2.1,5.7,5.1l15.3,285.6
				c0.2,3-2.1,5.6-5.1,5.7C-490,868.3-490.1,868.3-490.2,868.3z"/>
		</g>
		<g id="Pasaje-San-Mateo_1_">
			<path class="st10" d="M-543.1,866.6c-2.9,0-5.3-2.3-5.4-5.2l-12.8-289.8c-0.1-3,2.2-5.5,5.2-5.7c2.9-0.1,5.5,2.2,5.7,5.2
				l12.8,289.8c0.1,3-2.2,5.5-5.2,5.7C-542.9,866.6-543,866.6-543.1,866.6z"/>
		</g>
		<g id="Tarapac-_1_">
			<path class="st10" d="M611.2,1638.9c-3,0-5.4-2.4-5.4-5.4v-82.7l1.7-76l-0.8-78.3l-6.8-114.8l-6-166.4L588.7,991L581,888.9
				l-3.4-75.2l-6-99.7l-9.3-177.4c-0.2-3,2.1-5.6,5.1-5.7c3-0.2,5.6,2.1,5.7,5.1l9.3,177.3l6,99.7l3.4,75.1l7.7,102.1l5.1,124.6
				l6,166.3l6.8,115l0.8,78.7l-1.7,76.1v82.5C616.6,1636.5,614.2,1638.9,611.2,1638.9z"/>
		</g>
		<g id="Pasaje-Juan-Pablo-II_1_">
			<path class="st10" d="M-241.3,881.9c-2.9,0-5.3-2.2-5.4-5.1l-15.3-268.5c-0.2-3,2.1-5.6,5.1-5.7c3.1-0.2,5.6,2.1,5.7,5.1
				l15.3,268.5c0.2,3-2.1,5.6-5.1,5.7C-241.1,881.9-241.2,881.9-241.3,881.9z M-361.5,593c-2.7,0-5.1-2-5.4-4.8l-23-196.9l0-1.1
				l8.5-101.4c0.3-3,3-5.2,5.9-5c3,0.3,5.2,2.9,5,5.9l-8.5,100.9l23,196.4c0.3,3-1.8,5.7-4.8,6C-361.1,592.9-361.3,593-361.5,593z"
				/>
		</g>
		<g id="Huatacondo_1_">
			<path class="st10" d="M-77.6,413.1l-110.6-1.7l-46.9-5.1l-74.1-6.8l-30.3-0.8l-45.4-2.6l-21.6-2.6l-40.1-7.6l-17.5-0.9l-79.9,0
				l-0.5,0l-32-2.8c-3-0.3-5.2-2.9-4.9-5.9c0.3-3,2.9-5.2,5.9-4.9l31.8,2.8h79.9l18.9,1l40.1,7.6l20.9,2.5l44.9,2.5l30.5,0.9
				l74.5,6.8l46.7,5.1l109.7,1.7l55.2-0.8l178.1-5.1c3-0.2,5.5,2.3,5.6,5.3c0.1,3-2.3,5.5-5.3,5.6l-178.2,5.1L-77.6,413.1z"/>
		</g>
		<g id="Pasaje-San-Pedro_1_">
			<path class="st10" d="M98,286.1c-2.9,0-5.3-2.3-5.4-5.3l-4.3-147.5l0.5-97.5c0-3,2.4-5.4,5.4-5.4c0,0,0,0,0,0
				c3,0,5.4,2.5,5.4,5.5l-0.5,97.3l4.3,147.3c0.1,3-2.3,5.5-5.3,5.6C98.1,286.1,98,286.1,98,286.1z"/>
		</g>
		<g id="Santa-Teresa-de-Los-Andes_1_">
			<path class="st10" d="M369.9,824.8c-2.8,0-5.2-2.2-5.4-5.1l-6-91.2l-6-76.6l-8.5-104l-6-132.3l-0.9-88l-2.5-93.7l-0.9-99.8V35.9
				c0-3,2.4-5.4,5.4-5.4c3,0,5.4,2.4,5.4,5.4V134l0.9,99.7l2.5,93.7l0.9,87.9l2.6,52.6l0.8,22.2l2.6,57.1l8.5,103.8l6,76.7l6,91.3
				c0.2,3-2.1,5.6-5.1,5.8C370.1,824.8,370,824.8,369.9,824.8z"/>
		</g>
		<g id="Libertad_1_">
			<path class="st10" d="M499.5,1289.4c-2.9,0-5.3-2.3-5.4-5.3l-2.6-83.5l0-81.1l-1.7-127l-5.9-96l-1.7-79.5l-2.6-97.2
				c-0.1-3,2.3-5.5,5.3-5.6c3.1-0.2,5.5,2.3,5.6,5.3l2.6,97.2l1.7,79.3l5.9,96.1l1.7,127.3v81l2.6,83.4c0.1,3-2.3,5.5-5.3,5.6
				C499.6,1289.4,499.6,1289.4,499.5,1289.4z M501.2,724.3c-2.9,0-5.3-2.3-5.4-5.2l-3.4-78.4l-6.8-100.4l-3.4-76.9l-1.7-49.5
				L477,234.7c-0.1-3,2.3-5.5,5.3-5.5c0,0,0.1,0,0.1,0c3,0,5.4,2.4,5.4,5.3l3.4,179l1.7,49.3l3.4,76.7l6.8,100.4l3.4,78.6
				c0.1,3-2.2,5.5-5.2,5.7C501.4,724.2,501.3,724.3,501.2,724.3z"/>
		</g>
		<g id="Arc-ngeles_1_">
			<path class="st10" d="M-445,589.6c-2.8,0-5.1-2.1-5.4-4.9L-469.1,381l-21.8-46l-0.5-1.7l-2.6-24.2l2.5-22.7l-0.9-98.5l0-0.5
				l1.7-20.5l4.3-31.8c0.4-3,3.1-5.1,6.1-4.7c3,0.4,5.1,3.1,4.7,6.1l-4.3,31.6l-1.7,19.9l0.9,98.6l0,0.6l-2.5,22.4l2.4,21.5
				l21.8,46.1l0.5,1.8l18.8,204.6c0.3,3-1.9,5.6-4.9,5.9C-444.7,589.6-444.9,589.6-445,589.6z"/>
		</g>
		<g id="Mami-a_1_">
			<path class="st10" d="M-0.1,309.1h-28.1l-66.6-1.7l-99.8-4.3l-33.4-2.6l-61.1-1.7l-11.4-0.9l-75.7-3.4l-12.9-0.9l-96.9-1.7
				c-3-0.1-5.4-2.5-5.3-5.5c0.1-3,2.5-5.2,5.5-5.3l97.2,1.7l13.1,0.9l75.8,3.4l11.3,0.9l61.1,1.7l33.5,2.6l99.6,4.2l66.4,1.7l28,0
				c3,0,5.4,2.4,5.4,5.4C5.4,306.6,2.9,309.1-0.1,309.1z M98.1,286.1l-98.2-0.9h-70.7l-24-0.8l-99.7-2.6c-3-0.1-5.4-2.6-5.3-5.6
				c0.1-3,2.8-5.4,5.6-5.3l99.7,2.6l23.9,0.8l70.6,0l98.1,0.9l56.1-0.9c0,0,0.1,0,0.1,0c3,0,5.4,2.4,5.4,5.3c0,3-2.3,5.5-5.3,5.5
				L98.1,286.1z"/>
		</g>
		<g id="Pasaje-Huasqui-a_1_">
			<path class="st10" d="M-289.1,588.7c-2.7,0-5.1-2.1-5.4-4.9l-19.6-190.2l8.5-101.5c0.3-3,2.8-5.2,5.9-5c3,0.3,5.2,2.9,5,5.9
				l-8.5,101l19.5,188.7c0.3,3-1.9,5.7-4.8,6C-288.7,588.7-288.9,588.7-289.1,588.7z"/>
		</g>
		<g id="Padre-Hurtado_1_">
			<path class="st10" d="M332.1,1779.7c-3,0-5.4-2.4-5.4-5.4l-1.4-122l4.3-5.4l56.2-12c3-0.6,5.8,1.2,6.4,4.2s-1.2,5.8-4.2,6.4
				l-51.9,11l1.3,117.6C337.6,1777.2,335.2,1779.7,332.1,1779.7C332.1,1779.7,332.1,1779.7,332.1,1779.7z"/>
		</g>
		<g id="Vicente-Hinojoza_1_">
			<path class="st10" d="M405.3,1779.7c-2.9,0-5.3-2.3-5.4-5.2l-2.1-52.2l-0.9-42.7c-0.1-3,2.3-5.5,5.3-5.5c2.9-0.1,5.5,2.3,5.5,5.3
				l0.9,42.6l2.1,52c0.1,3-2.2,5.5-5.2,5.6C405.4,1779.7,405.4,1779.7,405.3,1779.7z"/>
		</g>
		<g id="Arturo-Prat-Chac-n_1_">
			<path class="st10" d="M1245.4,1014.9c-3,0-5.4-2.4-5.4-5.4s2.4-5.4,5.4-5.4h11.1l62.2-0.8l112.5-2.6c0.3,0,0.6,0,0.9,0.1
				l41.7-0.9c0,0,0.1,0,0.1,0c2.9,0,5.4,2.4,5.4,5.3c0.1,3-2.3,5.5-5.3,5.6l-155.1,3.4L1245.4,1014.9z M310.2,1001.3
				c-3,0-5.4-2.4-5.4-5.3c-0.1-3,2.3-5.5,5.3-5.5l185-3.4l98.9-1.7l117.6-2.6c3.1-0.1,5.5,2.3,5.6,5.3c0.1,3-2.3,5.5-5.3,5.5
				l-117.6,2.6l-98.9,1.7L310.2,1001.3C310.3,1001.3,310.3,1001.3,310.2,1001.3z M812.3,997.9c-3,0-5.4-2.4-5.4-5.3
				c-0.1-3,2.3-5.5,5.3-5.5l201.2-3.4l230.2-3.4c0,0,0.1,0,0.1,0c3,0,5.4,2.4,5.4,5.3c0,1.8-0.8,3.4-2.1,4.4l0,0c0,0,0,0,0,0l0,0
				c0,0,0,0,0,0c0,0,0,0,0,0l0,0c0,0,0,0,0,0c0,0,0,0,0,0c0,0,0,0,0,0c0,0,0,0,0,0c0,0,0,0,0,0c0,0,0,0,0,0c0,0,0,0,0,0c0,0,0,0,0,0
				c0,0,0,0,0,0c0,0,0,0,0,0c0,0,0,0,0,0c0,0,0,0,0,0c0,0,0,0,0,0c0,0,0,0,0,0c0,0,0,0,0,0c0,0,0,0,0,0c0,0,0,0,0,0c0,0,0,0,0,0
				c0,0,0,0,0,0c0,0,0,0,0,0c0,0,0,0,0,0c0,0,0,0,0,0c0,0,0,0,0,0c0,0,0,0,0,0c0,0,0,0,0,0c0,0,0,0,0,0c0,0,0,0,0,0c0,0,0,0,0,0
				c0,0,0,0,0,0c0,0,0,0,0,0c0,0,0,0,0,0c0,0,0,0,0,0h0c-0.8,0.5-1.8,0.8-2.8,0.8h-0.1l-161.9,2.6c-0.5,0-0.9,0-1.3-0.1l-66.9,1
				L812.3,997.9C812.4,997.9,812.4,997.9,812.3,997.9z"/>
		</g>
		<g id="Eleuterio-Ram-rez_1_">
			<path class="st10" d="M329,1170.1c-0.7,0-1.5-0.1-2.2-0.5c-2.8-1.2-4-4.4-2.8-7.2l17.9-40.9l4.8-3.3l150.1-4.3l102.2-4.3
				l116.7-6.8l9.7,0l93.5-4.3c2.6-0.1,5,1.7,5.5,4.2l185.5-5l1.5,0.2l29.1,7.5l39-1.2c0.6-0.3,1.3-0.4,2.1-0.5l39.2-0.8l127.8-6
				l7.9,0l61.2-1.7l58.8-2.6l59.1,0.9h34.9c3,0,5.4,2.4,5.4,5.4c0,3-2.4,5.4-5.4,5.4l-38.4-0.1c-0.3,0-0.6,0-0.8,0.1l-54.5-0.9
				l-58.5,2.6l-69.3,1.7l-127.6,6l-81.1,2.5l-1.5-0.2l-29.1-7.5l-189.3,5.1c-2.5,0.1-4.8-1.7-5.4-4.1l-89.1,4.1l-9.6,0l-116.5,6.8
				l-102.3,4.3l-146.7,4.2l-16.5,37.7C333.1,1168.9,331.1,1170.1,329,1170.1z"/>
		</g>
		<g id="Los-Algarrobos_1_">
			<path class="st10" d="M347.7,1297.9c-2.9,0-5.3-2.2-5.4-5.1c-0.2-3,2.1-5.6,5.1-5.7l151.8-8.5l25,0l80.8-2.6l114.3-1.7l108.2-2.6
				l161.9-5.1l90.5-0.6c0.5-0.2,1.1-0.3,1.7-0.3l174.8-0.9l65.6-0.8l59.6-1.7l66.5-1.7c2.9-0.2,5.5,2.3,5.6,5.3
				c0.1,3-2.3,5.5-5.3,5.6l-15,0.4c-0.7,0.3-1.4,0.5-2.2,0.5l-49.4,0.8l-59.6,1.7l-66.7,0.8l-265.9,1.7l-161.8,5.1l-108.3,2.6
				l-114.3,1.7l-80.9,2.6l-24.9,0l-151.5,8.5C347.9,1297.9,347.8,1297.9,347.7,1297.9z"/>
		</g>
		<g>
			<path class="st10" d="M766.8,1779.7c-2.9,0-5.3-2.3-5.4-5.2l-1.3-31.7c-0.1-3,2.2-5.5,5.2-5.7c3-0.1,5.5,2.2,5.7,5.2l1.3,31.7
				c0.1,3-2.2,5.5-5.2,5.7C766.9,1779.7,766.9,1779.7,766.8,1779.7z M-216.7,1779.7c-3,0-5.4-2.4-5.4-5.4l-0.7-70.1l-227.1-10.6
				l-0.8,80.6c0,3-2.5,5.3-5.5,5.4c-3,0-5.4-2.5-5.4-5.5l0.8-81.2l-101.5-7.3c-3-0.2-5.2-2.8-5-5.8c0.2-3,2.8-5.3,5.8-5l100.7,7.2
				l-1.7-220v-211.5l-38.6,8.8l-22,3.5l-53.3-3.3c-3-0.2-5.3-2.8-5.1-5.8c0.2-3,2.8-5.3,5.8-5.1l52.7,3.3l19.8-3.3l40.6-9.2
				L-464,1102l-111.8,2c-2.9-0.1-5.5-2.3-5.5-5.3c-0.1-3,2.3-5.5,5.3-5.5l112-2l2.4-221.4l-28.9-1.4l-52.8-1.7l-32.5,0.9
				c-3.1,0.1-5.5-2.3-5.6-5.3c-0.1-3,2.3-5.5,5.3-5.6l32.9-0.9l53.2,1.7l34.2,1.7l109.2,4l-10.8-266.9c-0.1-3,2.2-5.5,5.2-5.6
				c3.1-0.1,5.5,2.2,5.6,5.2l10.9,268l94.9,7.3l28,1.7l109,2.5l26.3,0.8l26.1-20.1l-1.6-41.5l0.9-180.1c0-3,2.4-5.4,5.4-5.4
				c0,0,0,0,0,0c3,0,5.4,2.5,5.4,5.5l-0.9,179.9l1.7,44.1l-2.1,4.5l-29.8,23l-3.5,1.1l-28.2-0.9l-103.5-2.4l-1.7,154.7l-0.8,158.1
				l155.3-3.2l-2.5-158.3c0-3,2.3-5.5,5.3-5.5c0,0,0.1,0,0.1,0c3,0,5.4,2.4,5.4,5.3l2.5,158.4l60.8,0.7v-114.7l-1.7-65.5
				c-0.1-3,2.3-5.5,5.3-5.6c0,0,0.1,0,0.1,0c2.9,0,5.4,2.3,5.4,5.3l1.7,65.7v168.5l176-2.5c0,0,0,0,0,0l137.2-2.6c0,0,0.1,0,0.1,0
				c2.9,0,5.4,2.4,5.4,5.3c0.1,3-2.3,5.5-5.3,5.5l-131.5,2.5l6.9,96.6l140.6-2.5c0,0,0.1,0,0.1,0c3,0,5.4,2.4,5.4,5.3
				c0.1,3-2.3,5.5-5.3,5.5l-145.8,2.6c-0.1,0-0.1,0-0.2,0H190l-101.3,1.7l-171.3,3.4c-3.1,0-5.5-2.3-5.5-5.3c-0.1-3,2.3-5.5,5.3-5.5
				l171.3-3.4l101.5-1.7h15.6l-6.9-96.5l-176.4,2.5c0,0,0,0,0,0l-43.4,0.9c-2.9,0-5.5-2.3-5.5-5.3c-0.1-3,2.3-5.5,5.3-5.5l38.1-0.8
				v-43l-66.2-0.8l-160.5,3.3l1.3,31.6l109.6-5.7c3-0.2,5.6,2.1,5.7,5.1c0.2,3-2.1,5.6-5.1,5.7l-109.3,5.7l6.2,53.1
				c0.3,3-1.8,5.7-4.8,6c-2.9,0.3-5.7-1.8-6-4.8l-6.3-54l-232.7-0.8v212.8l1.7,220.7l227,10.6l-0.8-114.4c0-3,2.4-5.5,5.4-5.5
				c0,0,0,0,0,0c3,0,5.4,2.4,5.4,5.4l0.9,120.2l0.7,75.2C-211.2,1777.3-213.6,1779.7-216.7,1779.7
				C-216.7,1779.7-216.7,1779.7-216.7,1779.7z M-451.6,1238.5l231.9,0.8l-1.5-37c0,0,0-0.1,0-0.1c0-0.1,0-0.3,0-0.4l0.8-163.4
				l1.7-155.1l-23-1.4l-99.7-7.7c0,0-0.1,0-0.1,0l-109.3-4l-2.4,220.8l149.6-0.8c0,0,0,0,0,0c3,0,5.4,2.4,5.4,5.4
				c0,3-2.4,5.4-5.4,5.5l-149.7,0.8L-451.6,1238.5z M92.8,1662c-3,0-5.4-2.4-5.4-5.3c-0.1-3,2.3-5.5,5.3-5.5l102.3-1.7l135.5-2.5
				c3.1-0.1,5.5,2.3,5.5,5.3c0.1,3-2.3,5.5-5.3,5.5l-135.6,2.5L92.8,1662C92.9,1662,92.9,1662,92.8,1662z M386.9,1645.8
				c-2.9,0-5.3-2.2-5.4-5.1c-0.2-3,2.1-5.6,5.1-5.7l75-4.3l149.4-2.6l91.2-2.6c3-0.2,5.5,2.3,5.6,5.3c0.1,3-2.3,5.5-5.3,5.6
				l-91.2,2.6l-149.3,2.6l-74.8,4.3C387.1,1645.8,387,1645.8,386.9,1645.8z M769.7,1637.2c-3,0-5.4-2.4-5.4-5.4c0-3,2.4-5.4,5.4-5.4
				h46.1l128.6-2.6c0,0,0.1,0,0.1,0c3,0,5.4,2.4,5.4,5.3c0.1,3-2.3,5.5-5.3,5.5l-128.7,2.6L769.7,1637.2z M-70.8,1581.8
				c-3,0-5.4-2.4-5.4-5.3c0-3,2.3-5.5,5.3-5.5l264.3-4.3l123.6-2.6l60.7,0.9c3,0,5.4,2.5,5.4,5.5c0,3-2.5,5.4-5.4,5.4
				c0,0-0.1,0-0.1,0L317,1575l-123.4,2.6L-70.8,1581.8C-70.8,1581.8-70.8,1581.8-70.8,1581.8z M-79.4,1475.3c-3,0-5.4-2.4-5.4-5.3
				c0-3,2.4-5.5,5.4-5.5l169.7-2.6l101.4-1.7l124.4-2.6l52-0.8c0,0,0.1,0,0.1,0c3,0,5.4,2.4,5.4,5.3c0,3-2.3,5.5-5.3,5.5l-52,0.8
				l-124.4,2.6l-101.5,1.7L-79.4,1475.3C-79.3,1475.3-79.3,1475.3-79.4,1475.3z M2031.7,1273.5
				C2031.7,1273.5,2031.7,1273.5,2031.7,1273.5l-86.4-0.3l-129.1-7.7l-174.1-16.2l-160.9-20.4l-26,0.8c-3.1,0.1-5.5-2.3-5.6-5.3
				c-0.1-3,2.3-5.5,5.3-5.6l26.4-0.8l0.9,0l161.2,20.4l173.7,16.2l128.5,7.6l17,0l-4.6-112.4l-150.5,8.3c-3.1,0.2-5.6-2.1-5.7-5.1
				c-0.2-3,2.1-5.6,5.1-5.7l224.6-12.2c3-0.2,5.6,2.1,5.7,5.1c0.2,3-2.1,5.6-5.1,5.7l-63.2,3.4l4.7,113l58.3,0.3
				c3,0,5.4,2.5,5.4,5.5C2037.1,1271.1,2034.7,1273.5,2031.7,1273.5z M1803.8,1032c-2.9,0-5.4-2.4-5.4-5.3c-0.1-3,2.3-5.5,5.3-5.5
				l166.2-3.4c0,0,0.1,0,0.1,0c2.9,0,5.4,2.4,5.4,5.3c0.1,3-2.3,5.5-5.3,5.5l-166.2,3.4C1803.8,1032,1803.8,1032,1803.8,1032z
				 M1796.9,935.6c-0.8,0-1.7-0.2-2.5-0.6l-174.8-88.7c0,0,0,0-0.1,0l-19.6-10.2l-85.5-38.9l-60.2-17.8l-47.4-11
				c-0.7-0.1-1.3-0.4-1.8-0.8c0,0,0,0,0,0c0,0,0,0,0,0c0,0,0,0,0,0c0,0,0,0,0,0c0,0,0,0,0,0c0,0,0,0,0,0c0,0,0,0,0,0c0,0,0,0,0,0
				c0,0,0,0,0,0c0,0,0,0,0,0c0,0,0,0,0,0c0,0,0,0,0,0c0,0,0,0,0,0c0,0,0,0,0,0c0,0,0,0,0,0c0,0,0,0,0,0c0,0,0,0,0,0c0,0,0,0,0,0
				c0,0,0,0,0,0c0,0,0,0,0,0c0,0,0,0,0,0c0,0,0,0,0,0c0,0,0,0,0,0c0,0,0,0,0,0v0c0,0,0,0,0,0c0,0,0,0,0,0c0,0,0,0-0.1,0l0,0
				c0,0,0,0,0,0c0,0,0,0,0,0c0,0,0,0,0,0c0,0,0,0,0,0c0,0,0,0-0.1,0l0,0c0,0-0.1-0.1-0.1-0.1c0,0,0,0,0,0c0,0,0,0,0,0c0,0,0,0,0,0
				c0,0,0,0,0,0v0c0,0,0,0,0,0h0c0,0,0,0,0,0c0,0,0,0,0,0c0,0,0,0,0,0c0,0,0,0,0,0c0,0,0,0,0,0c0,0,0,0,0,0c0,0,0,0,0,0v0
				c0,0,0,0,0,0c0,0,0,0,0,0c0,0,0,0,0,0c0,0,0,0,0,0c0,0,0,0,0,0c0,0,0,0,0,0c0,0,0,0,0,0c0,0,0,0,0,0c0,0,0,0,0,0c0,0,0,0,0,0
				c0,0,0,0,0,0c0,0,0,0,0,0c0,0,0,0,0,0c0,0,0,0,0,0c0,0,0,0,0,0c0,0,0,0,0,0c0,0,0,0,0,0c0,0,0,0,0,0c0,0,0,0,0,0c0,0,0,0,0,0
				c0,0,0,0,0,0c0,0,0,0,0,0c0,0,0,0,0,0c0,0,0,0,0,0c0,0,0,0,0,0l0,0c-0.7-0.9-1.1-2.1-1.1-3.3l0,0c0,0,0,0,0,0c0,0,0,0,0,0
				c0,0,0,0,0,0c0,0,0,0,0,0c0,0,0,0,0,0c0,0,0,0,0,0c0,0,0,0,0,0c0,0,0,0,0,0c0,0,0,0,0,0c0,0,0,0,0,0c0,0,0,0,0,0c0,0,0,0,0,0
				c0,0,0,0,0,0c0,0,0,0,0,0c0,0,0,0,0,0c0,0,0,0,0,0c0,0,0,0,0,0c0,0,0,0,0,0c0,0,0,0,0,0c0,0,0,0,0,0c0,0,0,0,0,0c0,0,0,0,0,0
				c0,0,0,0,0,0c0,0,0,0,0,0c0,0,0,0,0,0c0,0,0,0,0,0c0,0,0,0,0,0c0,0,0,0,0,0c0,0,0,0,0,0c0,0,0,0,0,0c0,0,0,0,0,0c0,0,0,0,0,0
				c0,0,0,0,0,0c0,0,0,0,0,0c0,0,0,0,0,0c0,0,0,0,0,0c0,0,0,0,0,0c0,0,0,0,0,0c0,0,0,0,0,0c0,0,0,0,0,0c0,0,0,0,0,0c0,0,0,0,0,0
				c0,0,0,0,0,0c0,0,0,0,0,0c0,0,0,0,0,0c0,0,0,0,0,0c0,0,0,0,0,0c0,0,0,0,0,0c0,0,0,0,0,0c0,0,0,0,0,0c0,0,0,0,0,0c0,0,0,0,0,0
				c0,0,0,0,0,0c0,0,0,0,0,0c0,0,0,0,0,0c0,0,0,0,0,0c0,0,0,0,0,0c0,0,0,0,0,0c0,0,0,0,0,0c0,0,0,0,0,0c0,0,0,0,0,0c0,0,0,0,0,0
				c0,0,0,0,0,0c0,0,0,0,0,0c0,0,0-0.1,0-0.1c0.1-0.6,0.4-1.2,0.7-1.6v0c0,0,0,0,0,0c0,0,0,0,0,0c0,0,0,0,0,0c0,0,0,0,0,0
				c0,0,0,0,0,0c0,0,0,0,0,0c0,0,0,0,0,0c0,0,0,0,0,0c0,0,0,0,0,0c0,0,0,0,0,0c0,0,0,0,0,0c0,0,0,0,0,0c0,0,0,0,0,0c0,0,0,0,0,0
				c0,0,0,0,0,0c0,0,0,0,0,0c0,0,0,0,0,0c0,0,0,0,0,0v0c0.4-0.5,0.9-1,1.4-1.4l0,0c0,0,0,0,0,0c0,0,0,0,0,0c0,0,0,0,0,0
				c0.9-0.6,2-0.9,3.1-0.9l0,0c0,0,0,0,0,0c0,0,0,0,0,0c0,0,0,0,0,0c0,0,0,0,0,0c0,0,0,0,0,0c0,0,0,0,0,0c0,0,0,0,0,0c0,0,0,0,0,0
				c0,0,0,0,0,0c0,0,0,0,0,0c0,0,0,0,0,0c0,0,0,0,0,0c0,0,0,0,0,0c0,0,0,0,0,0c0,0,0,0,0,0c0,0,0,0,0,0c0,0,0.1,0,0.1,0c0,0,0,0,0,0
				c0,0,0,0,0,0c0,0,0,0,0,0c0,0,0,0,0,0c0,0,0,0,0,0c0,0,0,0,0,0l0,0c0,0,0,0,0,0v0c0,0,0.1,0,0.1,0l23,5.1
				c0.6,0.1,1.1,0.3,1.6,0.6l23.2,5.4l61.6,18.3l86.1,39.2l18.1,9.4l30.4-7.3l132.1-10.3l11.5,0l200.4,4.3l34.4,0.4
				c3,0,5.4,2.5,5.4,5.5c0,3-2.5,5.4-5.4,5.4c0,0,0,0-0.1,0l-34.5-0.4l-200.4-4.3l-11,0l-131.3,10.2l-16.8,4.1l161.6,82
				c2.7,1.4,3.7,4.6,2.4,7.3C1800.8,934.6,1798.9,935.6,1796.9,935.6z M1801.2,714c-3,0-5.4-2.4-5.4-5.4c0-3,2.4-5.5,5.4-5.5
				l148.3-1.7c2.9,0,5.5,2.4,5.5,5.4c0,3-2.4,5.5-5.4,5.5L1801.2,714C1801.2,714,1801.2,714,1801.2,714z M272.7,658.6
				C272.7,658.6,272.7,658.6,272.7,658.6c-3.1,0-5.5-2.5-5.4-5.5l2.6-161.9c0,0,0,0,0,0l-1.7-91l-1.7-72.4l0.9-195.4
				c0-3,2.4-5.4,5.4-5.4c0,0,0,0,0,0c3,0,5.4,2.5,5.4,5.5l-0.9,195.2l1.7,72.3l1.6,85.9l66.2-0.8c0,0,0,0,0.1,0c3,0,5.4,2.4,5.4,5.4
				c0,3-2.4,5.5-5.4,5.5l-66.3,0.8l-2.5,156.7C278.1,656.2,275.7,658.6,272.7,658.6z M433.8,650.1c-2.8,0-5.2-2.2-5.4-5l-7.6-100.6
				c-0.2-3,2-5.6,5-5.8c3-0.2,5.6,2,5.8,5l7.6,100.6c0.2,3-2,5.6-5,5.8C434.1,650.1,434,650.1,433.8,650.1z M-209.8,581
				c-2.7,0-5-2-5.4-4.7l-24.7-174.8l0-1.1l6.8-105.7c0.2-3,2.8-5.3,5.8-5.1c3,0.2,5.3,2.8,5.1,5.8l-6.8,105.1l24.6,174.2
				c0.4,3-1.6,5.7-4.6,6.1C-209.3,581-209.5,581-209.8,581z M1176.3,538.4c-2.8,0-5.2-2.1-5.4-5l-5.5-64l-175.7,2.5
				c-3.1,0-5.5-2.4-5.5-5.4c0-3,2.4-5.5,5.4-5.5l90-1.3c0.6-0.3,1.3-0.4,2-0.4l88.7-0.9l5.5,5l6,69.1c0,0.2,0,0.3,0,0.5
				c0,2.8-2.1,5.1-5,5.4C1176.6,538.4,1176.5,538.4,1176.3,538.4z M988.8,460H885.7c-3,0-5.4-2.4-5.4-5.4c0-3,2.4-5.4,5.4-5.4h103.1
				c3,0,5.4,2.4,5.4,5.4C994.2,457.5,991.8,460,988.8,460z M-22.2,412.2c-2.9,0-5.3-2.2-5.4-5.1l-6-103.2c-0.2-3,2.1-5.6,5.1-5.7
				c2.9-0.2,5.6,2.1,5.7,5.1l6,103.2c0.2,3-2.1,5.6-5.1,5.7C-22,412.2-22.1,412.2-22.2,412.2z M234.4,333c-3,0-5.4-2.4-5.4-5.4
				l-2.5-196.1c0-3,2.4-5.5,5.4-5.5c3.1-0.2,5.5,2.4,5.5,5.4l2.5,196.1C239.8,330.5,237.4,332.9,234.4,333
				C234.4,333,234.4,333,234.4,333z M886.5,322.7c-3,0-5.4-2.4-5.4-5.4c0-3,2.4-5.5,5.4-5.5l98.9-0.8c0,0,0,0,0,0
				c3,0,5.4,2.4,5.4,5.4c0,3-2.4,5.5-5.4,5.5L886.5,322.7C886.6,322.7,886.5,322.7,886.5,322.7z M-0.1,309.1c-3,0-5.4-2.4-5.4-5.4
				v-23.9l-0.8-140.3h-54.2l-34.9,0.9l-92.8-3.2l-0.8,160.6c0,3-2.4,5.4-5.4,5.4s-5.4-2.4-5.4-5.4v-21.3l0.8-139.7l-43.2-1.5
				c0,0-0.1,0-0.1,0l-38.1,1.5l-2.3,54.7l-0.9,68v34c0,3-2.4,5.4-5.4,5.4s-5.4-2.4-5.4-5.4v-34.1l0.9-68.3l2.3-54.1l-83.9,0.8
				l-3.9,54.7l-4.2,96.2c-0.1,3-2.6,5.3-5.7,5.2c-3-0.1-5.3-2.7-5.2-5.7l4.3-96.3l3.8-53.8l-94.5,3.2l-29.2,0l-38,2.6l-0.9,0l-8.4-1
				l-6.8-1.7l-7.9-2.6c-1.1,1.3-2.9,1.9-4.7,1.7c-3-0.4-5.1-3-4.8-6l0.2-2c-0.4-1.4-0.4-2.9,0.4-4.3c1.4-2.6,4.7-3.6,7.4-2.2
				l0.4,0.2c0,0,0.1,0,0.1,0.1l4.5,2.2l7.3,2.4l6.1,1.5l6.8,0.7l37.9-2.5l29.3,0l100.3-3.4c0.1,0,0.2,0,0.3,0l94.5-0.9c0,0,0,0,0,0
				l36.7-1.4l-21.3-87.4c-0.7-2.9,1.1-5.9,4-6.6c2.9-0.7,5.9,1.1,6.6,4l21.9,89.9l44.5,1.5c0,0,0,0,0,0l98,3.4l29.2-0.7L-67.4,36
				c0-3,2.4-5.5,5.4-5.5c3,0.1,5.5,2.4,5.5,5.4l1.3,92.8h54.3c0,0,0,0,0,0l94.6-0.9l58.8-0.8c2.9,0.2,5.5,2.4,5.5,5.4
				c0,3-2.4,5.5-5.4,5.5l-58.8,0.8l-89.2,0.8l0.8,140.4v23.9C5.4,306.6,2.9,309.1-0.1,309.1z M-486,292c0,0-0.1,0-0.1,0l-69.9-1.7
				l-18.6,0c-0.1,0-0.3,0-0.4,0l-1.1,0c-3-0.1-5.3-2.6-5.3-5.6c0-1.2,0.5-2.3,1.2-3.2l-1.2-35.7c-0.1-3,2.2-5.5,5.3-5.6
				c0.1,0,0.1,0,0.2,0c2.9,0,5.3,2.3,5.4,5.3l1.1,34.1l13.5,0l70,1.7c3,0.1,5.4,2.6,5.3,5.6C-480.6,289.7-483,292-486,292z
				 M2017.7,188c-3,0-5.4-2.4-5.4-5.4v-14.2h-209.4c-3,0-5.4-2.4-5.4-5.4s2.4-5.4,5.4-5.4h148V89.9l-74.8-1.6l-14.4-0.8l-28.4,1.7
				l-14.8,2.5l-15.1,4.2c-2.9,0.8-5.9-0.9-6.7-3.8c-0.8-2.9,0.9-5.9,3.8-6.7l15.9-4.4l15.9-2.6l29.6-1.7l14.5,0.8l79.9,1.7
				c0.1,0,0.2,0,0.3,0l42.5,1.7l4,0l2.4,0.6l4.2,2.2l4,3.1l4.2,4.4l2.6,4.3l0.7,1.7l1.8,9.6v75.9
				C2023.2,185.6,2020.7,188,2017.7,188z M1961.8,157.6h50.5v-50.3l-1.4-7.1l-1.7-2.9l-2.6-2.6l-2.7-2l-1.8-0.9h-3l-37.2-1.5V157.6z
				 M258.3,137.7C258.2,137.7,258.2,137.7,258.3,137.7c-3,0-5.5-2.5-5.4-5.5l0.8-96.4c0-3,2.5-5.4,5.4-5.4c0,0,0,0,0,0
				c3,0,5.4,2.5,5.4,5.5l-0.8,96.4C263.7,135.3,261.2,137.7,258.3,137.7z"/>
		</g>
		<g id="Obispado_1_">
			<path class="st10" d="M815.8,1637.2c-2.9,0-5.3-2.3-5.4-5.3l-2.6-82.7l-1.7-79.3c-0.1-3,2.3-5.5,5.3-5.5c0,0,0.1,0,0.1,0
				c2.9,0,5.4,2.4,5.4,5.3l1.7,79.3l2.6,82.7c0.1,3-2.3,5.5-5.3,5.6C815.9,1637.2,815.8,1637.2,815.8,1637.2z M836.2,1475.3
				c-2.9,0-5.3-2.3-5.4-5.2l-8.5-192.7l-7.6-168.3l-0.8-3.8c0-0.1-0.1-0.3-0.1-0.4v0c0,0,0,0,0,0c0-0.2,0-0.4-0.1-0.5l-6.8-111.6
				l-6.8-115.1l-0.8-6.5c-0.4-3,1.8-5.7,4.7-6c0.3,0,0.6-0.1,0.9,0l-3.1-62.5l-1.7-104.2l1.7-168.1l-1.7-125.2L798.4,117
				c0-3,2.4-5.4,5.4-5.5c0,0,0,0,0,0c3,0,5.4,2.4,5.4,5.4l1.7,288.1l1.7,125.3l-1.7,168.1l1.7,103.9l3.4,68c0.2,3-2.2,5.5-5.2,5.7
				c0,0-0.1,0-0.1,0l0.1,0.7l6.9,115.4l6.8,111.3l0.9,4.8l7.6,168.8l8.5,192.7c0.1,3-2.2,5.5-5.2,5.7
				C836.4,1475.3,836.3,1475.3,836.2,1475.3z"/>
		</g>
		<g id="Bernando-O-Higgins_1_">
			<path class="st10" d="M319.6,826.5c-2.9,0-5.3-2.3-5.4-5.3c-0.1-3,2.2-5.5,5.2-5.6l50.3-1.7l117.7-2.6l95.4-3.4l118.4-5.1
				l105.6-6L999.5,785l235.3-15.3c2.9-0.2,5.6,2.1,5.8,5.1c0.2,3-2.1,5.6-5.1,5.8l-235.3,15.3l-192.7,12l-105.7,6l-118.5,5.1
				l-95.5,3.4L370,824.8l-50.2,1.7C319.7,826.5,319.7,826.5,319.6,826.5z"/>
		</g>
		<g id="Primera-Sur_1_">
			<path class="st10" d="M369.9,1485.5c-3,0-5.4-2.4-5.4-5.3c-0.1-3,2.3-5.5,5.3-5.5l89.5-1.7l153.4-3.4l111.6-3.4l87-1.7h24.8
				l119.3-1.7l1.1,0.1l13.1,2.5l110.8-2.4c0.4-0.1,0.8-0.1,1.2-0.2l164.5-3.4l10.3,0l89.5-0.8c0,0,0,0,0.1,0c3,0,5.4,2.4,5.4,5.4
				c0,0,0,0,0,0.1c0,3-2.4,5.4-5.4,5.4l-99.8,0.8l-276.9,6l-1.1-0.1l-13.1-2.5l-118.8,1.7h-24.8l-86.8,1.7l-111.6,3.4l-153.5,3.4
				l-89.5,1.7C370,1485.5,369.9,1485.5,369.9,1485.5z"/>
		</g>
		<g id="Nueve-Oriente_1_">
			<path class="st10" d="M251.4,743.9c-2.8,0-5.1-2.1-5.4-4.9c-0.3-3,1.9-5.6,4.9-5.9l112.5-10.3l121.2-8.5l16.3-0.8l75.8-5.1
				l121.9-9.4l106.7-6l85.2-5.9l104.9-5.1c3.2-0.1,5.5,2.2,5.7,5.2c0.1,3-2.2,5.5-5.2,5.7l-104.8,5.1l-85.2,5.9l-106.6,6l-121.8,9.4
				l-75.9,5.1l-16.3,0.8l-120.9,8.5l-112.4,10.2C251.8,743.8,251.6,743.9,251.4,743.9z"/>
		</g>
		<g id="Los-ngeles_1_">
			<path class="st10" d="M977.8,1563l-1.7-0.3L942,1552l-128.7,2.5c-2.9-0.1-5.5-2.3-5.5-5.3c-0.1-3,2.3-5.5,5.3-5.5l129.6-2.6
				l1.7,0.3l34.1,10.8l249.8-3.4c0,0,0.1,0,0.1,0c3,0,5.4,2.4,5.4,5.4c0,3-2.4,5.5-5.4,5.5L977.8,1563z M461.1,1560.5
				c-2.9,0-5.3-2.3-5.4-5.3c-0.1-3,2.3-5.5,5.3-5.6l150-4.3l116.1,0c3,0,5.4,2.4,5.4,5.4c0,3-2.4,5.4-5.4,5.4h-116l-149.9,4.3
				C461.2,1560.5,461.2,1560.5,461.1,1560.5z"/>
		</g>
		<g id="Carlos-Ib-ez-del-Campo_1_">
			<path class="st10" d="M704.9,882.8c-3,0-5.4-2.4-5.4-5.4s2.4-5.4,5.4-5.4h7.7l91.7-6.8l6.3,0l194-14.5l8.1,0l147.8-9.4l50.5,2.7
				l29,7.6c2.4,0.6,4,2.8,4,5.2c0,0.5-0.1,0.9-0.2,1.4c-0.8,2.9-3.7,4.6-6.6,3.9l-28.4-7.5l-48.5-2.5l-78.1,5.1
				c-0.4,0-0.8,0-1.2-0.1l-67.8,4.3l-8,0L811,876l-6.4,0l-13.3,0.9l-78.4,5.9L704.9,882.8z M1236,795.8c-2.9,0-5.3-2.3-5.4-5.2
				c0-0.1,0-0.2,0-0.2c0-2.9,2.3-5.3,5.2-5.4l20.5-0.8l165.5-3.4c3.2-0.1,5.5,2.3,5.5,5.3c0,0,0,0.1,0,0.1c0,2.9-2.4,5.4-5.3,5.4
				l-165.4,3.4l-20.4,0.8C1236.1,795.8,1236.1,795.8,1236,795.8z"/>
		</g>
		<g id="Marcos-Castro_1_">
			<path class="st10" d="M343.5,420.8c-3,0-5.4-2.4-5.4-5.4c0-3,2.4-5.5,5.4-5.5l142.4-1.7l204.5-6l115.1-2.5l181.5-7.7l208.1-6.8
				c3-0.1,5.5,2.3,5.6,5.3c0.1,3-2.2,5.5-5.3,5.6l-208,6.8l-181.5,7.7l-115.2,2.5l-204.5,6L343.5,420.8
				C343.5,420.8,343.5,420.8,343.5,420.8z"/>
		</g>
		<g id="Lincoy-n_1_">
			<path class="st10" d="M349.4,552.9c-2.9,0-5.3-2.3-5.4-5.2c-0.1-3,2.2-5.5,5.2-5.7l76.8-3.4l64.6-4.3l76.9-3.4l128.8-3.4
				l110.8-2.6l79.5,0.8h104.8l185,1.7l51.2,0.8c3,0,5.4,2.5,5.3,5.5c0,3-2.5,5.4-5.5,5.3l-51.2-0.8l-184.9-1.7H886.5l-79.4-0.8
				l-110.6,2.6l-128.7,3.4l-76.7,3.4l-64.6,4.3l-76.9,3.4C349.6,552.9,349.5,552.9,349.4,552.9z"/>
		</g>
		<g id="_x31_6-de-Julio_1_">
			<path class="st10" d="M682.8,129.2c-3,0-5.4-2.4-5.4-5.4l-0.9-87.9c0-3,2.4-5.5,5.4-5.5c2.9,0,5.5,2.4,5.5,5.4l0.9,87.9
				C688.2,126.7,685.8,129.2,682.8,129.2C682.8,129.2,682.8,129.2,682.8,129.2z"/>
		</g>
		<g id="Centenario_1_">
			<path class="st10" d="M1169.5,344.9c-0.3,0-0.6,0-0.8-0.1c-2.7-0.4-4.6-2.7-4.6-5.4c0-0.3,0-0.6,0.1-0.8l38.3-246.8V35.9
				c0-3,2.4-5.4,5.4-5.4c3,0,5.4,2.4,5.4,5.4l-0.1,57.2l-38.3,247.2C1174.5,343,1172.2,344.9,1169.5,344.9z"/>
		</g>
		<g id="Victoria_1_">
			<path class="st10" d="M890.8,697.8c-2.9,0-5.3-2.3-5.4-5.3l-4.3-161.2l-0.9-76.8l0.9-53v-84.3l1.7-197.6
				c-0.6,0.2-1.2,0.2-1.9,0.1c-3-0.3-5.2-3-4.9-5.9l7.8-78.5c0.3-3,3-5.2,5.9-4.9c3,0.3,5.2,3,4.9,5.9l-7.2,72.6
				c0.3,0,0.5,0,0.9-0.1c3,0,5.4,2.5,5.4,5.5L892,317.3v84.4l-0.9,52.9l0.9,76.6l4.3,161.1c0.1,3-2.3,5.5-5.3,5.6
				C890.9,697.8,890.8,697.8,890.8,697.8z"/>
		</g>
		<g id="Prolongaci-n-Pasaje-Victoria_1_">
			<path class="st10" d="M2031.7,238.6C2031.7,238.6,2031.7,238.6,2031.7,238.6l-15-0.3l-214.8-2.5c-3,0-5.4-2.5-5.4-5.5
				c0-3,2.5-5.5,5.5-5.4l229.7,2.8c3,0.1,5.4,2.5,5.3,5.5C2037.1,236.2,2034.7,238.6,2031.7,238.6z"/>
		</g>
		<g id="Prolongaci-n-Marcos-Castro_1_">
			<path class="st10" d="M2031.7,315.1C2031.7,315.1,2031.7,315.1,2031.7,315.1l-14,0h-215.6c-3,0-5.4-2.4-5.4-5.4s2.4-5.4,5.4-5.4
				l229.7,0c3,0,5.4,2.4,5.4,5.4C2037.1,312.7,2034.7,315.1,2031.7,315.1z"/>
		</g>
		<g id="Prolongaci-n-21-de-Mayo_1_">
			<path class="st10" d="M1801.2,398.6c-3,0-5.4-2.4-5.4-5.4c0-3,2.4-5.4,5.4-5.5l230.5-1c0,0,0,0,0,0c3,0,5.4,2.4,5.4,5.4
				c0,3-2.4,5.4-5.4,5.5l-12.3,0.1L1801.2,398.6C1801.2,398.6,1801.2,398.6,1801.2,398.6z"/>
		</g>
		<g id="Prolongaci-n-Lincoy-n_1_">
			<path class="st10" d="M1696.3,484.7c-2.7,0-5-1.9-5.4-4.6c-0.4-3,1.6-5.7,4.6-6.2l105.7-15.4l218.2,2.6l12.2,0c0,0,0,0,0,0
				c3,0,5.4,2.4,5.4,5.4c0,3-2.4,5.4-5.4,5.5l-12.3,0l-217.9-2.6l-104.5,15.3C1696.8,484.7,1696.6,484.7,1696.3,484.7z"/>
		</g>
		<g id="Calle-1_1_">
			<path class="st10" d="M2020.3,511.1c-2.9,0-5.4-2.4-5.4-5.3l-0.9-39.2v-74.3l-1.7-82.6l-0.9-76.8l0.9-50.4c0.1-3,2.7-5.4,5.5-5.3
				c3,0.1,5.4,2.5,5.3,5.5l-0.9,50.3l0.9,76.6l1.7,82.6v74.3l0.9,39.1c0.1,3-2.3,5.5-5.3,5.6
				C2020.4,511.1,2020.3,511.1,2020.3,511.1z"/>
		</g>
		<g id="Los-Chinos_1_">
			<path class="st10" d="M1315.3,935.6c-2.9,0-5.3-2.3-5.4-5.2c-0.1-3,2.2-5.5,5.2-5.6l119.9-4.2l25.4-12.3l1.8-0.5l8.5-0.9
				c2.9-0.3,5.7,1.9,6,4.9c0.3,3-1.9,5.7-4.9,6l-7.6,0.8l-25.6,12.4l-2.2,0.5l-121,4.3C1315.4,935.6,1315.4,935.6,1315.3,935.6z"/>
		</g>
		<g id="Los-Chunchos_1_">
			<path class="st10" d="M1257.3,1344.8c-2.9,0-5.3-2.3-5.4-5.3c-0.1-3,2.3-5.5,5.3-5.6l157.7-4.3c2.9-0.2,5.5,2.3,5.6,5.3
				c0.1,3-2.3,5.5-5.3,5.6l-157.7,4.3C1257.4,1344.8,1257.4,1344.8,1257.3,1344.8z"/>
		</g>
		<g id="Avenida-Augusto-Smith_1_">
			<path class="st10" d="M1860.6,1779.7c-2.8,0-5.2-2.1-5.4-5l-16.7-189.4l-19.6-231l-7.7-93.8l-9.4-107.4l-3.4-43.6l0-83.1l-6.8-96
				l0-107l4.2-114.8l-2.5-17.4l2.6-227.6v-85.2l0.9-69.1v-79.2l0.8-67.4v-41.7l-0.8-29.9l-9.2-35l-6.8-18.6c-1-2.8,0.4-5.9,3.2-7
				c2.8-1,5.9,0.4,7,3.2l7,19.3l9.6,37l0.8,30.7V163l-0.8,67.4v79.2l-0.9,83.5v70.8l-2.6,227.2l2.6,17.6l-4.3,115.1l0,106.4l6.8,96
				l0,83l3.4,43.1l9.4,107.3l7.7,93.8l19.6,231l16.7,189.4c0.3,3-1.9,5.6-4.9,5.9C1860.9,1779.7,1860.7,1779.7,1860.6,1779.7z"/>
		</g>
		<g id="Los-Collaguayos_1_">
			<path class="st10" d="M1322.1,1274.9c-2.9,0-5.4-2.3-5.4-5.3l-4.3-168.8c-0.1-3,2.3-5.5,5.3-5.6c3.1-0.1,5.5,2.3,5.6,5.3
				l4.3,168.8c0.1,3-2.3,5.5-5.3,5.6C1322.2,1274.9,1322.2,1274.9,1322.1,1274.9z M1318.7,1014.1c-2.9,0-5.3-2.3-5.4-5.2l-3.4-78.4
				l-1.7-75.1c-0.1-3,2.3-5.5,5.3-5.6c3.1-0.1,5.5,2.3,5.6,5.3l1.7,75l3.4,78.3c0.1,3-2.2,5.5-5.2,5.7
				C1318.9,1014.1,1318.8,1014.1,1318.7,1014.1z"/>
		</g>
		<g id="Los-Lichiguayos_1_">
			<path class="st10" d="M1381.8,1273.2c-2.9,0-5.3-2.3-5.4-5.3l-5.1-169.6c-0.1-3,2.3-5.5,5.3-5.6c2.8-0.1,5.5,2.3,5.6,5.3
				l5.1,169.6c0.1,3-2.3,5.5-5.3,5.6C1381.9,1273.2,1381.9,1273.2,1381.8,1273.2z"/>
		</g>
	</g>
	<g id="Minor-Outline_1_" class="st0">
		<g id="Carlos-Ib-ez-del-Campo-1_1_">
			<path class="st10" d="M489.1,901.6l-28.2-1l-45.4-9.8l-11.1-5.1l-23.6-9.6L346.7,855l-16.9-15.4l-10.4,1.3l-10.5,4.5l-9.6,8
				c-2.3,1.9-5.7,1.6-7.7-0.7c-1.9-2.3-1.6-5.7,0.7-7.7l10.2-8.5l1.3-0.8l13.4-5.5l3.1-0.4l-5-5.4l-17.9-23l-23.7-27.1
				c-2-2.3-1.7-5.7,0.5-7.7c2.3-2,5.7-1.7,7.7,0.5l23.9,27.3l18,23l11.6,12.5l18.2,16.5l32.4,20l22.6,9.2l10.8,5l43.2,9.2l26.5,0.8
				L586,883L704.3,872c3-0.3,5.7,1.8,6,4.8c0.3,3-1.8,5.7-4.8,6l-7.7,0.9l-110.9,10.2L489.1,901.6z"/>
		</g>
		<g id="_x31_6-de-Julio-1_1_">
			<path class="st10" d="M755.2,1651.7c-1.4,0-2.8-0.5-3.8-1.6l-10.3-10.2l-1-1.3l-8.4-16.1l-2.3,7.3l-8.5,17.9
				c-1.3,2.7-4.5,3.9-7.2,2.6c-2.7-1.3-3.9-4.5-2.6-7.2l8.3-17.5l5.6-18.3l-3.3-56.1l-2.6-79.5l-5.1-191.8l-3.4-162v-9.4l-4.3-120.1
				l-6-104.5l-0.8-6.2l-3.4-69.1c0-0.1,0-0.1,0-0.2l-2.6-104l-2.6-171.4l-4.2-76.5l-1.7-48.7l-2.6-85.3l-0.8-82.8L677.4,124
				c-0.1-3,2.2-5.5,5.2-5.6c3-0.1,5.5,2.2,5.6,5.2l4.3,115.9l0.8,82.9l2.6,85.1l1.7,48.6l4.3,76.6l2.6,171.5l2.6,103.9l3.4,68.7
				l0.8,6.2l6,104.9l4.3,120.3c0,0,0,0,0,0c0,0.1,0,0.1,0,0.2v9.3l3.4,161.9l5.1,191.8l2.6,79.3l3.3,55.8l8,16l5.5,10.2l9.7,9.6
				c2.1,2.1,2.1,5.6,0,7.7C758,1651.2,756.6,1651.7,755.2,1651.7z"/>
		</g>
		<g id="Avenida-Circunvalaci-n_1_">
			<path class="st10" d="M763.7,1720.8c-2.5,0-4.8-1.8-5.3-4.3c-0.6-2.9,1.3-5.8,4.2-6.4l16.8-3.5l16.3-1.5l-8.6-6.5l-4-2.4
				l-1.7-1.6l-8.5-12.8c-1.7-2.5-1-5.9,1.5-7.5c2.5-1.7,5.9-1,7.5,1.5l7.8,11.8l3.7,2.2l9.5,7.1l26.4,8.2l-1.6,10.6h-28.7l-18.2,1.7
				l-15.9,3.3C764.5,1720.7,764.1,1720.8,763.7,1720.8z M-376.8,598.1c-2.2,0-4.2-1.3-5.1-3.5c-1.1-2.8,0.3-5.9,3.1-7l11.9-4.5l5-1
				l72.4-4.3l79.1-7.7l35.7-4.2l25.5-3.4l73.2-11.1l66.2-13.6l38.9-10.1c2.9-0.8,5.9,1,6.6,3.9c0.8,2.9-1,5.9-3.9,6.6l-39.2,10.2
				L-74,562.2l-73.6,11.1l-25.7,3.4l-35.9,4.3l-79.4,7.7l-72.3,4.3l-3.4,0.7l-10.7,4.1C-375.5,598-376.2,598.1-376.8,598.1z"/>
		</g>
		<g id="Avenida-Diputado-Ram-n-P-rez-Opazo_1_">
			<path class="st10" d="M942.7,1717.4l-115.1-1.7c-3,0-5.4-2.5-5.4-5.5c0-3,2.5-5.3,5.4-5.3c0,0,0.1,0,0.1,0l114.9,1.7l82.6-5.9
				l51.9-17.6l59.3-28.8l36.3-21.2l27.5-14.6l39.5-20.2l13.1-11.5l15.8-13.2l37.8-52.1l34.8-60.3l37.5-67.3l47.6-92.8
				c0.2-0.5,0.5-0.9,0.9-1.3l5-9.7l10.7-25.6l6.7-41.1l15.3-124.8l2.6-75.6l0.9-18l-2.6-92.5l-3.3-30.3l-14.9-35.7l-20.7-39
				c-0.2-0.3-0.4-0.5-0.6-0.9l-9.4-17.9l-13.5-22.8l-1.9-3.7l-80.8-137.8l-92-154.3l-64.1-128.2L1105.9,226l-32.8-54.6l-28-31.3
				l-24.9-13.6l-7.7-1.5l-31.9-8.4l-92.1,3.4l-7,0l-77.4,2.6l-120.9,6.8l-123,11.1l-135.6,0.8l-23.2-0.8c-3-0.1-5.3-2.6-5.2-5.6
				c0.1-3,2.8-5.3,5.6-5.2l23,0.8l135.1-0.8l122.5-11.1l121.2-6.8l77.7-2.6l7,0l92.7-3.4l1.6,0.2l32.4,8.5l8.2,1.6l1.5,0.6
				l26.4,14.5l1.4,1.1l29.6,33.2l3.5,5.8c0.3,0.3,0.5,0.6,0.8,1l29,48.6l59,116.2l63.9,127.9l22.8,38l69.1,116l81,138.1l1.9,3.7
				l13.4,22.7l31.1,58.6l15.3,36.6l0.4,1.5l3.4,31.6l2.6,93.3l-0.9,18.3l-2.6,76.3l-6.8,56.2l-8.6,69.1l-7.2,43.2L1442,1295
				l-22.2,42.6l-31.6,61.4l-37.6,67.5l-35.3,61l-39.3,53.9L1260,1595l-14.7,12.6l-40,20.5l-27.2,14.4l-36.5,21.2l-57.4,28.3
				c-0.6,0.3-1.3,0.5-2,0.5l-1.2,0.6l-54.2,18.2L942.7,1717.4z"/>
		</g>
		<g id="Circunvalaci-n-Oriente_1_">
			<path class="st10" d="M1013.5,125c-2.4,0-4.6-1.6-5.2-4c-0.8-2.9,0.9-5.9,3.8-6.7l30.2-8.4l36.1-17.1c0.3-0.2,0.6-0.4,1-0.6
				l41.3-19.4l51.3-37.3c2.4-1.8,5.8-1.2,7.6,1.2c0.7,1,1,2.1,1,3.2c0,1.7-0.8,3.3-2.2,4.4l-52.6,38.1l-80.1,37.9l-30.7,8.5
				C1014.5,124.9,1014,125,1013.5,125z"/>
		</g>
	</g>
	<g id="Main-Outline_1_" class="st0">
		<g id="Avenida-Ram-n-P-rez-Opazo_2_">
			<polygon class="st11" points="401.4,140.3 339.1,139.4 272.6,137.7 258.3,137.7 231.7,136.9 178.1,136.9 152.7,137.7 
				152.3,126.9 177.9,126 231.8,126 258.4,126.9 272.7,126.9 339.4,128.6 401.5,129.4 			"/>
		</g>
		<g id="Ruta-A-645_1_">
			<path class="st11" d="M-99.2,631.2l-6.3-8.9L70.5,498.2l53.1-59.9l20.1-26.9l6.9-11.4l1.6-19.7L148.8,280l-1.7-147.6l10.9-0.1
				l1.7,147.5l3.4,100.8l-1.8,22.9l-8.7,14.3l-20.7,27.6l-54.6,61.4L-99.2,631.2z M406.7,136.4l-10.4-3l6.8-23.9l9.1-38.2l-2-35.1
				l10.8-0.6l2.1,36.7l-9.6,40L406.7,136.4z"/>
		</g>
	</g>
	<g id="Throughway-Outline_1_" class="st0">
		<g id="Avenida-Ram-n-P-rez-Opazo-1_1_">
			<polygon class="st11" points="499.7,1713.1 450.3,1712.1 430.3,1706.4 415.2,1697.5 408,1692.1 397.8,1682.8 391.3,1668 
				381.6,1641 372.2,1571.2 362.8,1462.7 351.7,1356.2 345.8,1319 342.4,1293.2 328.7,1205.6 323.6,1165.3 313.4,1078.3 
				304.8,996.4 292.1,877.1 290.3,849.6 285.3,808.4 281.2,791.3 273.2,773.7 247.5,742.1 236.9,732.3 209.8,712.1 178,691.1 
				150.5,677.9 90.9,659.4 17.1,650 -47.8,639.8 -103.1,632.1 -158.4,625.3 -257.3,613.4 -352.8,601.4 -377.6,598 -376.1,587.3 
				-351.4,590.7 -256,602.6 -101.7,621.3 -46.2,629 18.7,639.3 93.6,648.8 154.9,667.9 183.7,681.9 216,703.2 244,724.2 255.6,735 
				282.8,768.6 291.7,788.3 296,806.8 301.2,848.6 302.9,876.2 315.6,995.3 324.2,1077.1 334.4,1164 339.5,1204 353.1,1291.7 
				356.6,1317.4 362.5,1354.8 375.3,1479.6 383,1570 392.2,1639 401.4,1664 406.8,1676.3 415.1,1683.8 421.5,1688.6 435.1,1696.6 
				452.5,1701.4 499.6,1702.3 564,1699.7 617.8,1698 653.5,1696.3 654.1,1707.1 618.2,1708.9 564.4,1710.6 			"/>
		</g>
		<g id="Avenida-Circunvalaci-n-1_1_">
			<polygon class="st11" points="718.1,1745.6 699.7,1727.2 680.5,1714.4 639.5,1703.4 671.9,1685.4 685.4,1672.6 692.7,1661.3 
				701.8,1667.1 693.3,1680.1 677.7,1694.5 668.1,1699.9 685,1704.4 707,1719.2 725.8,1737.9 			"/>
		</g>
		<g id="Ruta-A-665_1_">
			<path class="st11" d="M729.5,1775.7l-4.1-15.7l-8.1-15.5l-17.7-27.8l-8.1-11.6l-4.8-14.5l1.2-15.2l4.9-14.2l8.3-11.9l12.7-8.7
				l15.1-3.9h14.5l14.5,4.8l12.6,9.7l7.9,13.1l4.6,13.8l-1.2,16.1l-4.6,13.8l-9.7,11.7l-6.4,4l-9,15.9l-2.4,15.2l-4.6,20.9l-7.9-1.8
				L729.5,1775.7z M721,1730.1l5.8,9.2l9,17.4l1.2,4.5l1.9-8.6l2.7-16.9l2.7-4.8l-4.3,1h-14.8L721,1730.1z M727.4,1721h11.8l11-2.9
				l3.9-3.1l6.1-3.8l7.3-8.8l3.7-11.1l0.8-11.9l-3.7-11.2l-6-9.7l-9.6-7.4l-11.1-3.7h-12l-11.2,3l-9.5,6.6l-6.7,9.6l-3.8,11.4
				l-0.7,11.1l3.7,11l6.7,9.7l9,6.7L727.4,1721z M-377.5,598l-68.2-8.5l-60.5-6.8l-50.3-6l-20.1-2.7l1.4-10.8l20.1,2.7l50.2,6
				l60.5,6.8l68.3,8.5L-377.5,598z"/>
		</g>
	</g>
	<g id="Cemetery-1_1_" class="st0">
		<g class="st12">
			<path class="st13" d="M1306.7,375.4l4.1,1c-0.9,3.4-2.4,6-4.7,7.7c-2.2,1.8-5,2.7-8.2,2.7c-3.4,0-6.1-0.7-8.2-2
				c-2.1-1.4-3.7-3.3-4.8-5.9c-1.1-2.6-1.6-5.4-1.6-8.3c0-3.2,0.6-6.1,1.9-8.5c1.2-2.4,3-4.2,5.3-5.5c2.3-1.3,4.8-1.9,7.5-1.9
				c3.1,0,5.7,0.8,7.9,2.4c2.1,1.6,3.6,3.8,4.4,6.7l-4.1,1c-0.7-2.3-1.8-3.9-3.1-4.9c-1.4-1-3.1-1.5-5.2-1.5c-2.4,0-4.4,0.6-6,1.7
				c-1.6,1.1-2.7,2.7-3.4,4.6c-0.6,1.9-1,3.9-1,6c0,2.6,0.4,5,1.2,6.9c0.8,2,2,3.4,3.6,4.4c1.6,1,3.4,1.5,5.3,1.5
				c2.3,0,4.3-0.7,5.9-2C1305.1,380,1306.2,378.1,1306.7,375.4z"/>
			<path class="st13" d="M1316,386.4v-31.1h22.5v3.7h-18.4v9.5h17.2v3.7h-17.2v10.6h19.1v3.7H1316z"/>
			<path class="st13" d="M1344.8,386.4v-31.1h6.2l7.4,22c0.7,2,1.2,3.6,1.5,4.6c0.4-1.1,0.9-2.8,1.7-5l7.4-21.6h5.5v31.1h-4v-26
				l-9,26h-3.7l-9-26.5v26.5H1344.8z"/>
			<path class="st13" d="M1381.2,386.4v-31.1h22.5v3.7h-18.4v9.5h17.2v3.7h-17.2v10.6h19.1v3.7H1381.2z"/>
			<path class="st13" d="M1410,386.4v-31.1h4.2l16.3,24.4v-24.4h3.9v31.1h-4.2l-16.3-24.4v24.4H1410z"/>
			<path class="st13" d="M1449.4,386.4v-27.4h-10.2v-3.7h24.7v3.7h-10.3v27.4H1449.4z"/>
			<path class="st13" d="M1468.1,386.4v-31.1h22.5v3.7h-18.4v9.5h17.2v3.7h-17.2v10.6h19.1v3.7H1468.1z"/>
			<path class="st13" d="M1497.1,386.4v-31.1h13.8c2.8,0,4.9,0.3,6.3,0.8c1.4,0.6,2.6,1.5,3.5,3c0.9,1.4,1.3,3,1.3,4.7
				c0,2.2-0.7,4.1-2.1,5.6c-1.4,1.5-3.6,2.5-6.6,2.9c1.1,0.5,1.9,1,2.5,1.5c1.2,1.1,2.3,2.5,3.4,4.1l5.4,8.5h-5.2l-4.1-6.5
				c-1.2-1.9-2.2-3.3-3-4.3c-0.8-1-1.5-1.7-2.1-2.1c-0.6-0.4-1.2-0.7-1.9-0.8c-0.5-0.1-1.2-0.1-2.3-0.1h-4.8v13.8H1497.1z
				 M1501.2,369h8.8c1.9,0,3.4-0.2,4.4-0.6c1.1-0.4,1.9-1,2.4-1.9c0.6-0.9,0.8-1.8,0.8-2.8c0-1.5-0.5-2.7-1.6-3.6
				c-1.1-0.9-2.8-1.4-5.1-1.4h-9.8V369z"/>
			<path class="st13" d="M1529.1,386.4v-31.1h4.1v31.1H1529.1z"/>
			<path class="st13" d="M1539.2,371.2c0-5.2,1.4-9.2,4.2-12.1c2.8-2.9,6.4-4.4,10.7-4.4c2.9,0,5.5,0.7,7.8,2.1
				c2.3,1.4,4.1,3.3,5.3,5.7c1.2,2.5,1.8,5.2,1.8,8.3c0,3.2-0.6,6-1.9,8.5c-1.3,2.5-3.1,4.4-5.4,5.7c-2.3,1.3-4.9,1.9-7.6,1.9
				c-2.9,0-5.5-0.7-7.9-2.1c-2.3-1.4-4.1-3.3-5.2-5.8S1539.2,373.9,1539.2,371.2z M1543.5,371.3c0,3.7,1,6.7,3,8.9
				c2,2.2,4.5,3.2,7.6,3.2c3.1,0,5.6-1.1,7.7-3.3c2-2.2,3-5.3,3-9.3c0-2.5-0.4-4.7-1.3-6.6c-0.9-1.9-2.1-3.4-3.8-4.4
				c-1.7-1-3.5-1.6-5.6-1.6c-2.9,0-5.4,1-7.5,3C1544.5,363.2,1543.5,366.6,1543.5,371.3z"/>
		</g>
		<g class="st12">
			<path class="st13" d="M1288.5,438.5v-31.1h10.7c2.4,0,4.3,0.1,5.5,0.4c1.8,0.4,3.3,1.2,4.6,2.2c1.6,1.4,2.9,3.2,3.7,5.3
				c0.8,2.2,1.2,4.6,1.2,7.4c0,2.4-0.3,4.5-0.8,6.3c-0.6,1.8-1.3,3.3-2.1,4.5c-0.9,1.2-1.8,2.1-2.8,2.8c-1,0.7-2.3,1.2-3.7,1.6
				c-1.4,0.4-3.1,0.5-5,0.5H1288.5z M1292.6,434.8h6.6c2,0,3.7-0.2,4.8-0.6c1.2-0.4,2.1-0.9,2.8-1.6c1-1,1.7-2.3,2.3-3.9
				c0.5-1.6,0.8-3.6,0.8-6c0-3.3-0.5-5.8-1.6-7.5c-1.1-1.7-2.4-2.9-3.9-3.5c-1.1-0.4-2.9-0.6-5.3-0.6h-6.5V434.8z"/>
			<path class="st13" d="M1320,438.5v-31.1h22.5v3.7h-18.4v9.5h17.2v3.7h-17.2v10.6h19.1v3.7H1320z"/>
			<path class="st13" d="M1360.8,438.5v-31.1h4.1v27.4h15.3v3.7H1360.8z"/>
			<path class="st13" d="M1381.7,438.5l11.9-31.1h4.4l12.7,31.1h-4.7l-3.6-9.4h-13l-3.4,9.4H1381.7z M1390.7,425.7h10.5l-3.2-8.6
				c-1-2.6-1.7-4.8-2.2-6.5c-0.4,2-1,4-1.7,5.9L1390.7,425.7z"/>
			<path class="st13" d="M1430.9,438.5v-27.4h-10.2v-3.7h24.7v3.7H1435v27.4H1430.9z"/>
			<path class="st13" d="M1450.3,438.5v-31.1h4.1v31.1H1450.3z"/>
			<path class="st13" d="M1461.7,438.5v-31.1h13.8c2.8,0,4.9,0.3,6.3,0.8c1.4,0.6,2.6,1.5,3.5,3c0.9,1.4,1.3,3,1.3,4.7
				c0,2.2-0.7,4.1-2.1,5.6c-1.4,1.5-3.6,2.5-6.6,2.9c1.1,0.5,1.9,1,2.5,1.5c1.2,1.1,2.3,2.5,3.4,4.1l5.4,8.5h-5.2l-4.1-6.5
				c-1.2-1.9-2.2-3.3-3-4.3c-0.8-1-1.5-1.7-2.1-2.1c-0.6-0.4-1.2-0.7-1.9-0.8c-0.5-0.1-1.2-0.1-2.3-0.1h-4.8v13.8H1461.7z
				 M1465.8,421.1h8.8c1.9,0,3.4-0.2,4.4-0.6c1.1-0.4,1.9-1,2.4-1.9c0.6-0.9,0.8-1.8,0.8-2.8c0-1.5-0.5-2.7-1.6-3.6
				c-1.1-0.9-2.8-1.4-5.1-1.4h-9.8V421.1z"/>
			<path class="st13" d="M1489.6,438.5l11.9-31.1h4.4l12.7,31.1h-4.7l-3.6-9.4h-13l-3.4,9.4H1489.6z M1498.6,425.7h10.5l-3.2-8.6
				c-1-2.6-1.7-4.8-2.2-6.5c-0.4,2-1,4-1.7,5.9L1498.6,425.7z"/>
			<path class="st13" d="M1522,438.5v-31.1h4.2l16.3,24.4v-24.4h3.9v31.1h-4.2l-16.3-24.4v24.4H1522z"/>
			<path class="st13" d="M1550,438.5l11.9-31.1h4.4l12.7,31.1h-4.7l-3.6-9.4h-13l-3.4,9.4H1550z M1558.9,425.7h10.5l-3.2-8.6
				c-1-2.6-1.7-4.8-2.2-6.5c-0.4,2-1,4-1.7,5.9L1558.9,425.7z"/>
		</g>
		<g class="st12">
			<path class="st14" d="M1306.7,375.4l4.1,1c-0.9,3.4-2.4,6-4.7,7.7c-2.2,1.8-5,2.7-8.2,2.7c-3.4,0-6.1-0.7-8.2-2
				c-2.1-1.4-3.7-3.3-4.8-5.9c-1.1-2.6-1.6-5.4-1.6-8.3c0-3.2,0.6-6.1,1.9-8.5c1.2-2.4,3-4.2,5.3-5.5c2.3-1.3,4.8-1.9,7.5-1.9
				c3.1,0,5.7,0.8,7.9,2.4c2.1,1.6,3.6,3.8,4.4,6.7l-4.1,1c-0.7-2.3-1.8-3.9-3.1-4.9c-1.4-1-3.1-1.5-5.2-1.5c-2.4,0-4.4,0.6-6,1.7
				c-1.6,1.1-2.7,2.7-3.4,4.6c-0.6,1.9-1,3.9-1,6c0,2.6,0.4,5,1.2,6.9c0.8,2,2,3.4,3.6,4.4c1.6,1,3.4,1.5,5.3,1.5
				c2.3,0,4.3-0.7,5.9-2C1305.1,380,1306.2,378.1,1306.7,375.4z"/>
			<path class="st14" d="M1316,386.4v-31.1h22.5v3.7h-18.4v9.5h17.2v3.7h-17.2v10.6h19.1v3.7H1316z"/>
			<path class="st14" d="M1344.8,386.4v-31.1h6.2l7.4,22c0.7,2,1.2,3.6,1.5,4.6c0.4-1.1,0.9-2.8,1.7-5l7.4-21.6h5.5v31.1h-4v-26
				l-9,26h-3.7l-9-26.5v26.5H1344.8z"/>
			<path class="st14" d="M1381.2,386.4v-31.1h22.5v3.7h-18.4v9.5h17.2v3.7h-17.2v10.6h19.1v3.7H1381.2z"/>
			<path class="st14" d="M1410,386.4v-31.1h4.2l16.3,24.4v-24.4h3.9v31.1h-4.2l-16.3-24.4v24.4H1410z"/>
			<path class="st14" d="M1449.4,386.4v-27.4h-10.2v-3.7h24.7v3.7h-10.3v27.4H1449.4z"/>
			<path class="st14" d="M1468.1,386.4v-31.1h22.5v3.7h-18.4v9.5h17.2v3.7h-17.2v10.6h19.1v3.7H1468.1z"/>
			<path class="st14" d="M1497.1,386.4v-31.1h13.8c2.8,0,4.9,0.3,6.3,0.8c1.4,0.6,2.6,1.5,3.5,3c0.9,1.4,1.3,3,1.3,4.7
				c0,2.2-0.7,4.1-2.1,5.6c-1.4,1.5-3.6,2.5-6.6,2.9c1.1,0.5,1.9,1,2.5,1.5c1.2,1.1,2.3,2.5,3.4,4.1l5.4,8.5h-5.2l-4.1-6.5
				c-1.2-1.9-2.2-3.3-3-4.3c-0.8-1-1.5-1.7-2.1-2.1c-0.6-0.4-1.2-0.7-1.9-0.8c-0.5-0.1-1.2-0.1-2.3-0.1h-4.8v13.8H1497.1z
				 M1501.2,369h8.8c1.9,0,3.4-0.2,4.4-0.6c1.1-0.4,1.9-1,2.4-1.9c0.6-0.9,0.8-1.8,0.8-2.8c0-1.5-0.5-2.7-1.6-3.6
				c-1.1-0.9-2.8-1.4-5.1-1.4h-9.8V369z"/>
			<path class="st14" d="M1529.1,386.4v-31.1h4.1v31.1H1529.1z"/>
			<path class="st14" d="M1539.2,371.2c0-5.2,1.4-9.2,4.2-12.1c2.8-2.9,6.4-4.4,10.7-4.4c2.9,0,5.5,0.7,7.8,2.1
				c2.3,1.4,4.1,3.3,5.3,5.7c1.2,2.5,1.8,5.2,1.8,8.3c0,3.2-0.6,6-1.9,8.5c-1.3,2.5-3.1,4.4-5.4,5.7c-2.3,1.3-4.9,1.9-7.6,1.9
				c-2.9,0-5.5-0.7-7.9-2.1c-2.3-1.4-4.1-3.3-5.2-5.8S1539.2,373.9,1539.2,371.2z M1543.5,371.3c0,3.7,1,6.7,3,8.9
				c2,2.2,4.5,3.2,7.6,3.2c3.1,0,5.6-1.1,7.7-3.3c2-2.2,3-5.3,3-9.3c0-2.5-0.4-4.7-1.3-6.6c-0.9-1.9-2.1-3.4-3.8-4.4
				c-1.7-1-3.5-1.6-5.6-1.6c-2.9,0-5.4,1-7.5,3C1544.5,363.2,1543.5,366.6,1543.5,371.3z"/>
		</g>
		<g class="st12">
			<path class="st14" d="M1288.5,438.5v-31.1h10.7c2.4,0,4.3,0.1,5.5,0.4c1.8,0.4,3.3,1.2,4.6,2.2c1.6,1.4,2.9,3.2,3.7,5.3
				c0.8,2.2,1.2,4.6,1.2,7.4c0,2.4-0.3,4.5-0.8,6.3c-0.6,1.8-1.3,3.3-2.1,4.5c-0.9,1.2-1.8,2.1-2.8,2.8c-1,0.7-2.3,1.2-3.7,1.6
				c-1.4,0.4-3.1,0.5-5,0.5H1288.5z M1292.6,434.8h6.6c2,0,3.7-0.2,4.8-0.6c1.2-0.4,2.1-0.9,2.8-1.6c1-1,1.7-2.3,2.3-3.9
				c0.5-1.6,0.8-3.6,0.8-6c0-3.3-0.5-5.8-1.6-7.5c-1.1-1.7-2.4-2.9-3.9-3.5c-1.1-0.4-2.9-0.6-5.3-0.6h-6.5V434.8z"/>
			<path class="st14" d="M1320,438.5v-31.1h22.5v3.7h-18.4v9.5h17.2v3.7h-17.2v10.6h19.1v3.7H1320z"/>
			<path class="st14" d="M1360.8,438.5v-31.1h4.1v27.4h15.3v3.7H1360.8z"/>
			<path class="st14" d="M1381.7,438.5l11.9-31.1h4.4l12.7,31.1h-4.7l-3.6-9.4h-13l-3.4,9.4H1381.7z M1390.7,425.7h10.5l-3.2-8.6
				c-1-2.6-1.7-4.8-2.2-6.5c-0.4,2-1,4-1.7,5.9L1390.7,425.7z"/>
			<path class="st14" d="M1430.9,438.5v-27.4h-10.2v-3.7h24.7v3.7H1435v27.4H1430.9z"/>
			<path class="st14" d="M1450.3,438.5v-31.1h4.1v31.1H1450.3z"/>
			<path class="st14" d="M1461.7,438.5v-31.1h13.8c2.8,0,4.9,0.3,6.3,0.8c1.4,0.6,2.6,1.5,3.5,3c0.9,1.4,1.3,3,1.3,4.7
				c0,2.2-0.7,4.1-2.1,5.6c-1.4,1.5-3.6,2.5-6.6,2.9c1.1,0.5,1.9,1,2.5,1.5c1.2,1.1,2.3,2.5,3.4,4.1l5.4,8.5h-5.2l-4.1-6.5
				c-1.2-1.9-2.2-3.3-3-4.3c-0.8-1-1.5-1.7-2.1-2.1c-0.6-0.4-1.2-0.7-1.9-0.8c-0.5-0.1-1.2-0.1-2.3-0.1h-4.8v13.8H1461.7z
				 M1465.8,421.1h8.8c1.9,0,3.4-0.2,4.4-0.6c1.1-0.4,1.9-1,2.4-1.9c0.6-0.9,0.8-1.8,0.8-2.8c0-1.5-0.5-2.7-1.6-3.6
				c-1.1-0.9-2.8-1.4-5.1-1.4h-9.8V421.1z"/>
			<path class="st14" d="M1489.6,438.5l11.9-31.1h4.4l12.7,31.1h-4.7l-3.6-9.4h-13l-3.4,9.4H1489.6z M1498.6,425.7h10.5l-3.2-8.6
				c-1-2.6-1.7-4.8-2.2-6.5c-0.4,2-1,4-1.7,5.9L1498.6,425.7z"/>
			<path class="st14" d="M1522,438.5v-31.1h4.2l16.3,24.4v-24.4h3.9v31.1h-4.2l-16.3-24.4v24.4H1522z"/>
			<path class="st14" d="M1550,438.5l11.9-31.1h4.4l12.7,31.1h-4.7l-3.6-9.4h-13l-3.4,9.4H1550z M1558.9,425.7h10.5l-3.2-8.6
				c-1-2.6-1.7-4.8-2.2-6.5c-0.4,2-1,4-1.7,5.9L1558.9,425.7z"/>
		</g>
	</g>
	<g class="st0">
		<g>
			<path class="st15" d="M972.9,131.6l-0.6-30.6l10.1,1.5c7.1,1,14.2,2.6,21.1,4.6l-4.8,16.7c-2.8-0.8-5.7-1.6-8.6-2.2l0.2,9.8
				L972.9,131.6z"/>
		</g>
		<g>
			<path class="st15" d="M862.9,1719.4l-3.5,0c-9.3,0-18.5-0.1-27.6-0.2l0.2-17.4c9.1,0.1,18.3,0.2,27.5,0.2l3.4,0l9.5,0l0.1,17.4
				L862.9,1719.4z M892.8,1719.2l-0.2-17.4c13.6-0.1,27-0.4,40.4-0.7l0.4,17.4C920,1718.8,906.3,1719.1,892.8,1719.2z M811.5,1718.9
				l-3.1-0.1l-1.7-0.8c-14.8-6.8-25.5-16-31.8-27.4c-0.4-0.7-0.8-1.4-1.1-2.1l15.6-7.8c0.2,0.5,0.5,0.9,0.8,1.4
				c4.5,8.1,12.5,14.9,23.9,20.1l-2.3,4.9L811.5,1718.9z M953.7,1717.9l-0.6-17.4c13.6-0.4,27-1,40.4-1.6l0.8,17.4
				C980.9,1717,967.4,1717.5,953.7,1717.9z M1014.6,1715.4l-0.9-17.4l7.1-0.4c9.9-3,19.7-6.3,29.3-9.7l5.8,16.4
				c-10.2,3.6-20.6,7.1-31.1,10.3l-1,0.3L1014.6,1715.4z M1075.2,1697.1l-6.3-16.2c12.5-4.8,24.9-10.1,36.9-15.5l7.2,15.8
				C1100.7,1686.8,1088,1692.2,1075.2,1697.1z M1131.5,1672.4l-7.7-15.6c10.6-5.2,21.1-10.8,35.4-18.8l8.5,15.2
				C1153.2,1661.3,1142.4,1667.1,1131.5,1672.4z M766,1670.8l-0.1-0.1c-5.3-8.6-13.7-15.7-16.1-17.6c-3.9-3.1-7.5-7-10.7-11.6
				l14.2-10c2.3,3.3,4.8,6,7.4,8.1c3.8,3.1,13.4,11.4,19.8,21.8l-7.1,5L766,1670.8z M1185.3,1643.3l-8.6-15.1l35.1-20.1l8.6,15.1
				L1185.3,1643.3z M728.8,1621.6c-1.1-2.8-2.2-5.9-3.1-9l-0.3-1l-1.9-32.6l17.4-1l1.7,30.4c0.8,2.4,1.6,4.7,2.4,6.9L728.8,1621.6z
				 M1238.1,1613l-8.8-15c11.3-6.6,17.8-10.8,21.8-13.9c3.5-2.8,6.7-5.5,9.7-8.3l11.8,12.7c-3.3,3.1-6.9,6.1-10.8,9.2
				C1257.2,1601.4,1250.3,1605.8,1238.1,1613z M1287.3,1573l-13.3-11.2c6.8-8.2,13.9-18.1,22.9-32.1l14.6,9.4
				C1302.1,1553.8,1294.6,1564.3,1287.3,1573z M722.4,1558.8l-2.3-40.5l17.4-1l2.3,40.5L722.4,1558.8z M1322.2,1521.9l-14.8-9.1
				c2-3.4,4.2-6.9,6.4-10.6c5-8.3,9.8-16.4,14.3-24.1l15,8.8c-4.6,7.8-9.4,15.9-14.4,24.3
				C1326.5,1514.9,1324.3,1518.5,1322.2,1521.9z M719,1498.1l-2.2-40.5l17.4-0.9l2.2,40.5L719,1498.1z M1353.3,1469.3l-15.1-8.7
				c6.7-11.7,13.4-23.6,19.8-35.2l15.2,8.4C1366.8,1445.6,1360.1,1457.5,1353.3,1469.3z M715.7,1437.4l-2.2-40.5l17.4-0.9l2.2,40.5
				L715.7,1437.4z M1383,1416l-15.3-8.2c4.2-7.8,7-13.1,8.1-15.3c3.3-6.3,6.9-13.2,10.6-20.5l15.4,8c-3.8,7.3-7.4,14.2-10.7,20.5
				C1390,1402.8,1387.2,1408.1,1383,1416z M712.5,1376.7l-2.1-40.5l17.4-0.9l2.1,40.5L712.5,1376.7z M1411.1,1361.9l-15.5-7.9
				c5.7-11.2,11.8-23.2,18.2-36.1l15.6,7.8C1423,1338.6,1416.9,1350.7,1411.1,1361.9z M709.3,1316c-0.7-13.5-1.4-27-2-40.5l17.4-0.9
				c0.7,13.5,1.3,27,2,40.5L709.3,1316z M1438.5,1307.5l-15.6-7.7c4.1-8.3,8.3-17,12.7-25.9c0.7-2.8,1.5-6,2.4-9.5l16.9,4.2
				c-1,4-1.9,7.5-2.7,10.5l-0.6,1.6C1447.1,1290,1442.7,1298.9,1438.5,1307.5z M706.3,1255.3l-2-40.5l17.4-0.8l2,40.5L706.3,1255.3z
				 M1459.5,1248.7l-17-3.8c0.6-2.5,1.1-5.1,1.7-7.7c2.2-10.6,4.2-21.2,6-31.6l17.1,2.9c-1.8,10.6-3.9,21.5-6.1,32.3
				C1460.6,1243.5,1460.1,1246.1,1459.5,1248.7z M703.3,1194.6c-0.6-13.5-1.3-27-1.9-40.5l17.4-0.8c0.6,13.5,1.3,27,1.9,40.5
				L703.3,1194.6z M1470.5,1188.3l-17.2-2.5c1.8-12.8,3.4-25.9,4.7-39.8l17.3,1.7C1473.9,1161.9,1472.4,1175.2,1470.5,1188.3z
				 M700.4,1133.9c-0.6-13.5-1.3-27-1.9-40.5l17.4-0.8c0.6,13.5,1.2,27,1.9,40.5L700.4,1133.9z M1477.1,1127.3l-17.3-1.4
				c0.7-9.4,1.4-18.5,2-27.5c0.3-4.3,0.6-8.6,0.8-12.7l17.4,1c-0.3,4.2-0.5,8.5-0.8,12.9C1478.5,1108.7,1477.8,1117.9,1477.1,1127.3
				z M697.7,1073.1c-0.6-13.5-1.2-27-1.8-40.5l17.4-0.8c0.6,13.5,1.2,27,1.8,40.5L697.7,1073.1z M1481,1066.4l-17.4-0.8
				c0.6-13.6,1.1-27.2,1.3-40.3l17.4,0.3C1482.1,1038.9,1481.6,1052.6,1481,1066.4z M695,1012.4c-0.6-13.5-1.2-27-1.7-40.5l17.4-0.7
				c0.6,13.5,1.2,27,1.7,40.5L695,1012.4z M1482.5,1005.5l-17.4-0.2l0-0.5c0-13.1-0.2-26.5-0.6-39.8l17.4-0.5
				c0.4,13.4,0.6,27,0.6,40.3L1482.5,1005.5z M692.4,951.7c-0.6-13.5-1.1-27-1.7-40.5l17.4-0.7c0.6,13.5,1.1,27,1.7,40.5
				L692.4,951.7z M1463.8,944.9c-0.6-13.4-1.5-26.9-2.5-40.2l17.3-1.4c1,13.4,1.9,27.1,2.5,40.7L1463.8,944.9z M689.8,890.9
				l-1.6-40.5l17.4-0.7l1.6,40.5L689.8,890.9z M1460.2,884.8c0-0.1-0.1-0.1-0.1-0.2l-0.6,0.1l-0.1-1.4
				c-5.7-10.8-11.2-21.3-16.7-31.5l15.4-8.2c5.7,10.7,11.5,21.8,17.5,33.1l0.8,1.5l0.5,4.8L1460.2,884.8z M1433.2,833.9
				c-6.6-12.3-13-24.2-19.1-35.7l15.3-8.3c6.2,11.5,12.6,23.4,19.2,35.7L1433.2,833.9z M1404.5,780.5c-6.7-12.4-13.2-24.3-19.4-35.6
				l15.3-8.3c6.2,11.3,12.7,23.2,19.4,35.6L1404.5,780.5z M1375.4,727.2c-7-12.7-13.5-24.5-19.6-35.4l15.2-8.4
				c6.1,11,12.6,22.8,19.6,35.5L1375.4,727.2z M1346,674l-4.2-7.6c-5.4-9.7-10.6-18.9-15.6-27.7l15.1-8.5c5,8.9,10.2,18.1,15.6,27.8
				l4.2,7.6L1346,674z M1316.2,621.2c-7.1-12.5-13.8-24.2-20-35.1l15.1-8.7c6.3,10.9,13,22.6,20.1,35.2L1316.2,621.2z M1286.1,568.5
				c-7.4-12.8-14.1-24.3-20.4-34.9l15-8.8c6.2,10.6,13,22.2,20.4,35L1286.1,568.5z M1255.5,516.3c-7.8-13.1-14.6-24.5-20.7-34.7
				l14.9-9c6.1,10.2,13,21.6,20.8,34.8L1255.5,516.3z M1224.3,464.3c-8.5-14.2-14.9-25-20.6-35l15.1-8.5
				c5.6,9.9,11.9,20.6,20.4,34.6L1224.3,464.3z M1194,411.2c-6-11.5-11.5-23.2-17.5-37.1l16-6.9c5.8,13.5,11.2,24.9,17,36
				L1194,411.2z M1168.5,355.7c-4.9-11-10.5-22.4-17.7-35.8l15.3-8.2c7.4,13.8,13.1,25.5,18.2,36.9L1168.5,355.7z M1141.2,302.3
				c-3-5.5-6.1-10.9-9.2-16.4c-3.6-6.3-7.1-12.6-10.6-19l15.2-8.4c3.5,6.3,7,12.6,10.6,18.9c3.1,5.5,6.2,11,9.2,16.5L1141.2,302.3z
				 M1111.7,249c-7.2-13.5-13.1-25.6-18.1-37l15.9-7c4.8,11,10.5,22.7,17.5,35.8L1111.7,249z M1085.2,194.5
				c-6.3-11.5-13.9-21.9-22.4-31.1l12.7-11.9c9.5,10.2,17.9,21.8,24.9,34.5L1085.2,194.5z M1048.9,150.3
				c-12.4-10.1-24.5-16.6-32.4-20.1l7.2-15.8c8.9,4,22.4,11.2,36.2,22.5L1048.9,150.3z"/>
		</g>
		<g>
			<polygon class="st15" points="687.4,829.3 686.9,817.6 675.2,818.1 674.5,800.7 703.6,799.5 704.7,828.6 			"/>
		</g>
		<g>
			<path class="st15" d="M330.5,831.8l-0.7-17.4l38.3-1.5l0.7,17.4L330.5,831.8z M388,829.5l-0.7-17.4l38.3-1.5l0.7,17.4L388,829.5z
				 M445.4,827.2l-0.7-17.4l38.3-1.5l0.7,17.4L445.4,827.2z M502.8,824.9l-0.7-17.4l38.3-1.5l0.7,17.4L502.8,824.9z M560.3,822.6
				l-0.7-17.4l38.3-1.5l0.7,17.4L560.3,822.6z M617.7,820.4l-0.7-17.4l38.3-1.5l0.7,17.4L617.7,820.4z"/>
		</g>
		<g>
			<polygon class="st15" points="284.4,845.9 280.9,816.3 310.7,815.2 311.4,832.5 300.4,833 301.7,843.9 			"/>
		</g>
		<g>
			<path class="st15" d="M466.5,1716.7c-9.7,0-19.2-1.5-28.2-4.3l5.3-16.6c10.4,3.3,22,4.3,33,2.8l0.9-0.1l4.2-0.1l0.6,17.4
				l-3.7,0.1C474.5,1716.5,470.5,1716.7,466.5,1716.7z M502.9,1715.2l-0.5-17.4l41.4-1.3l0.5,17.4L502.9,1715.2z M564.9,1713.3
				l-0.5-17.4l41.4-1.3l0.5,17.4L564.9,1713.3z M627,1711.3l-0.5-17.4l21.3-0.7c5.4-1,10.7-2.7,15.7-5.1l7.4,15.7
				c-6.6,3.1-13.6,5.3-20.7,6.6l-1.2,0.1L627,1711.3z M417.6,1702.6c-10-6.4-18.6-14.8-25.4-24.9l-0.6-0.8l-3.6-9.5l16.2-6.2
				l2.9,7.5c5.4,7.7,12.1,14.2,19.9,19.2L417.6,1702.6z M690.1,1691.2l-11.6-13l0.9-0.9c3.3-3.1,5-6.3,7.6-11.3
				c2.4-4.7,5.5-10.6,10.8-18c0.7-1,1.5-2,2.2-3l13.9,10.5c-0.6,0.8-1.3,1.7-1.9,2.6c-4.6,6.4-7.2,11.4-9.5,15.9
				c-2.9,5.6-5.7,10.9-11.1,16C691,1690.4,690.6,1690.8,690.1,1691.2z M380.6,1648.2l-2.2-5.7l-0.1-1c-1.1-7.8-2.7-19.6-4.5-33.9
				l-0.3-2.2l17.2-2.2l0.3,2.2c1.7,13.6,3.3,24.9,4.4,32.7l1.5,3.8L380.6,1648.2z M726.7,1640.7l-9.2-9l-3.8-1.3l0.6-1.8l0,0l0,0
				l5.7-16l-0.6-17.2l17.4-0.6l0.7,20.5l-8.1,22.8L726.7,1640.7z M371,1584.8c-1.7-13.7-3.2-27.6-4.7-41.3l17.3-1.8
				c1.4,13.6,3,27.4,4.7,41L371,1584.8z M718.7,1574.6l-1.4-41.4l17.4-0.6l1.4,41.4L718.7,1574.6z M364.2,1522.9
				c-1.5-15-2.8-28.8-3.8-41.3l17.3-1.5c1.1,12.5,2.3,26.1,3.8,41.1L364.2,1522.9z M716.6,1512.6l-1.4-41.4l17.4-0.6l1.4,41.4
				L716.6,1512.6z M358.6,1461l-1.2-14.6c-0.6-7.4-1.1-14-1.7-20.1l-0.6-6.5l17.3-1.5l0.6,6.6c0.5,6.1,1.1,12.8,1.7,20.2l1.2,14.5
				L358.6,1461z M714.5,1450.5l-1.4-41.4l17.4-0.6l1.4,41.4L714.5,1450.5z M353.2,1399.4c-1.5-13.8-3.1-24.3-5.6-40.3l8.6-1.6
				l8.6-1.3l-8.6,1.3l8.6-1.1c2.5,16.1,4.1,26.8,5.7,41L353.2,1399.4z M712.4,1388.5l-1.4-41.4l17.4-0.6l1.4,41.4L712.4,1388.5z
				 M344.5,1338.5c-1.6-11-3.6-24.2-5.9-41l17.2-2.4c2.3,16.7,4.2,29.9,5.9,40.8L344.5,1338.5z M710.3,1326.4l-1.4-41.4l17.4-0.6
				l1.4,41.4L710.3,1326.4z M335.7,1277c-1.5-10.9-3.1-23.1-4.9-36.8l-0.6-4.3l17.2-2.2l0.6,4.3c1.8,13.6,3.4,25.7,4.9,36.7
				L335.7,1277z M708.2,1264.4l-1.4-41.4l17.4-0.6l1.4,41.4L708.2,1264.4z M327.7,1215.5c-1.9-14.9-3.5-28.1-5-41.1l17.3-2
				c1.5,12.9,3.1,26,5,40.9L327.7,1215.5z M706.1,1202.3l-1.4-41.4l17.4-0.6l1.4,41.4L706.1,1202.3z M320.3,1153.9
				c-1.5-12.7-3-25.9-4.7-41.1l17.3-1.9c1.7,15.1,3.2,28.4,4.7,41L320.3,1153.9z M704,1140.3l-1.4-41.4l17.4-0.6l1.4,41.4
				L704,1140.3z M313.3,1092.3c-1.4-12.2-2.9-25.7-4.7-41.1l17.3-2c1.8,15.3,3.3,28.9,4.7,41.1L313.3,1092.3z M701.9,1078.2
				l-1.4-41.4l17.4-0.6l1.4,41.4L701.9,1078.2z M306.2,1030.7c-1.4-12.5-3-26.1-4.8-41.1l17.3-2c1.7,14.9,3.3,28.6,4.8,41.1
				L306.2,1030.7z M699.8,1016.2l-1.4-41.4l17.4-0.6l1.4,41.4L699.8,1016.2z M299.1,969.2l-4.8-41.1l17.3-2l4.8,41.1L299.1,969.2z
				 M697.7,954.1l-1.4-41.4l17.4-0.6l1.4,41.4L697.7,954.1z M291.8,907.6l-4.9-41.1l17.3-2.1l4.9,41.1L291.8,907.6z M695.6,892.1
				l-1.4-41.4l17.4-0.6l1.4,41.4L695.6,892.1z"/>
		</g>
		<g>
			<polygon class="st15" points="693.5,829 692.5,800 721.5,798.7 722.2,816.1 710.5,816.6 710.9,828.4 			"/>
		</g>
		<g>
			<path class="st15" d="M742,815.2l-0.8-17.4l39.5-1.7l0.8,17.4L742,815.2z M801.2,812.6l-0.8-17.4l39.5-1.7l0.8,17.4L801.2,812.6z
				 M860.4,810l-0.8-17.4l39.5-1.7l0.8,17.4L860.4,810z M919.7,807.4l-0.8-17.4l39.5-1.7l0.8,17.4L919.7,807.4z M978.9,804.8
				l-0.8-17.4l21.7-1l17.4-1.5l1.5,17.3l-17.7,1.5L978.9,804.8z M1038.4,800.6l-1.5-17.3l39.4-3.4l1.5,17.3L1038.4,800.6z
				 M1097.4,795.6l-1.5-17.3l39.4-3.4l1.5,17.3L1097.4,795.6z M1156.5,790.5l-1.5-17.3l39.4-3.4l1.5,17.3L1156.5,790.5z"/>
		</g>
		<g>
			<path class="st15" d="M1227,795.7c-0.1-3.7-0.2-7.4-0.3-11.2l-11.1,1l-1.5-17.3l29.5-2.5l0.2,9.2c0.2,6.9,0.4,13.7,0.5,20.4
				L1227,795.7z"/>
		</g>
		<g>
			<path class="st15" d="M1258.5,1424.2l-17.3-1.5c1.2-13.7,2.3-27.7,3.2-41.6l17.4,1.1C1260.8,1396.3,1259.7,1410.4,1258.5,1424.2z
				 M1263,1361.2l-17.4-0.9c0.8-13.8,1.4-27.9,1.8-41.7l17.4,0.6C1264.3,1333.1,1263.7,1347.3,1263,1361.2z M1265.3,1298.1
				l-17.4-0.4c0.2-11.7,0.4-23.3,0.4-34.6l0-7.1l17.4-0.1l0,7.2C1265.7,1274.5,1265.6,1286.3,1265.3,1298.1z M1248.1,1235.2
				c-0.2-13.6-0.6-27.2-1.2-41.7l17.4-0.7c0.6,14.6,1,28.4,1.2,42.1L1248.1,1235.2z M1245.9,1172.7c-0.7-13.7-1.5-27.5-2.4-41.8
				l17.4-1.1c0.9,14.3,1.7,28.2,2.4,42L1245.9,1172.7z M1242.2,1110l-2.7-41.8l17.4-1.1l2.7,41.8L1242.2,1110z M1238.2,1047.3
				l-0.3-4.7c-0.7-11.5-1.4-24-2.2-37.2l17.4-1c0.7,13.2,1.5,25.6,2.2,37.1l0.3,4.7L1238.2,1047.3z M1234.6,984.4
				c-0.7-13.3-1.4-27.2-2.1-41.9l17.4-0.8c0.7,14.7,1.4,28.6,2.1,41.8L1234.6,984.4z M1231.5,921.5c-0.6-13.5-1.2-27.5-1.7-42
				l17.4-0.7c0.6,14.5,1.1,28.4,1.7,41.9L1231.5,921.5z M1229,858.6c-0.5-13.6-1-27.6-1.4-42l17.4-0.5c0.4,14.4,0.9,28.3,1.4,41.9
				L1229,858.6z"/>
		</g>
		<g>
			<path class="st15" d="M1225.4,1473.6l-0.2-17.4l12.7-0.2c0.4-4,0.9-8.2,1.3-12.5l17.3,1.7c-0.7,7.3-1.5,14.1-2.1,20.4l-0.8,7.6
				L1225.4,1473.6z"/>
		</g>
		<g>
			<path class="st15" d="M995.2,1476.4L995,1459l38.4-0.5l0.2,17.4L995.2,1476.4z M1052.8,1475.7l-0.2-17.4l38.4-0.5l0.2,17.4
				L1052.8,1475.7z M1110.3,1475l-0.2-17.4l38.4-0.5l0.2,17.4L1110.3,1475z M1167.9,1474.3l-0.2-17.4l38.4-0.5l0.2,17.4
				L1167.9,1474.3z"/>
		</g>
		<g>
			<path class="st15" d="M944.8,1476.9l2.3-10.6c1.4-6.6,2.8-13.2,4.2-19.9l17,3.5c-0.6,3.1-1.3,6.3-1.9,9.4l9.6-0.1l0.2,17.4
				L944.8,1476.9z"/>
		</g>
		<g>
			<path class="st15" d="M972.2,1430.1l-17.1-3.4c2.6-13.1,5.1-26.3,7.5-39.4l17.1,3.1C977.3,1403.6,974.8,1417,972.2,1430.1z
				 M983.2,1370.6l-17.1-3c2.3-13.1,4.5-26.5,6.6-39.6l17.2,2.7C987.7,1343.9,985.5,1357.3,983.2,1370.6z M992.9,1310.8l-17.2-2.6
				c1.8-12.3,3.6-24.7,5.3-37.3l0.3-2.5l17.2,2.4l-0.3,2.4C996.5,1285.9,994.8,1298.4,992.9,1310.8z M1001.2,1250.8l-17.2-2.2
				c1.7-13.2,3.3-26.6,4.8-39.9l17.3,1.9C1004.6,1223.9,1002.9,1237.4,1001.2,1250.8z M1008.2,1190.6l-17.3-1.8
				c1.4-13.3,2.7-26.7,3.9-39.9l17.3,1.5C1010.9,1163.7,1009.6,1177.2,1008.2,1190.6z M1013.9,1130.3l-17.3-1.4
				c1.1-13,2.1-26.5,3-40l17.3,1.2C1015.9,1103.6,1014.9,1117.1,1013.9,1130.3z M1018.1,1069.8l-17.4-1c0.8-13.4,1.5-26.9,2.1-40.1
				l17.4,0.8C1019.6,1042.8,1018.9,1056.4,1018.1,1069.8z M1021,1009.3l-17.4-0.6c0.4-11.6,0.8-23,1-34.3l-0.3-5.1l17.4-1l0.4,5.8
				l0,0.4C1021.8,986,1021.5,997.6,1021,1009.3z M1003.2,949.2l-2.5-40.2l17.4-1.1l2.5,40.2L1003.2,949.2z M999.4,889l-2.5-40.2
				l17.4-1.1l2.5,40.2L999.4,889z M995.7,828.7l-2.5-40.2l17.4-1.1l2.5,40.2L995.7,828.7z M991.9,768.5l-2.5-40.2l17.4-1.1l2.5,40.2
				L991.9,768.5z"/>
		</g>
		<g>
			<polygon class="st15" points="988.2,708.2 987.5,696.4 975.7,697 974.8,679.6 1003.7,678.1 1005.5,707.1 			"/>
		</g>
		<g>
			<path class="st15" d="M406,733.6l-1.3-17.3c14-1.1,28.1-2.1,42.2-3.2l1.3,17.3C434.1,731.5,420.1,732.5,406,733.6z M469.3,728.8
				l-1.3-17.3c14-1,28.1-2.1,42.2-3.1l1.2,17.3C497.4,726.8,483.3,727.8,469.3,728.8z M532.6,724.3l-1.2-17.3c14.1-1,28.1-2,42.2-3
				l1.2,17.3C560.7,722.3,546.6,723.3,532.6,724.3z M595.8,719.8l-1.2-17.3c14.1-1,28.1-1.9,42.2-2.9L638,717
				C623.9,717.9,609.9,718.9,595.8,719.8z M659.1,715.6l-1.1-17.3c13.4-0.9,26.9-1.8,40.4-2.6l1.8-0.1l1.1,17.4l-1.8,0.1
				C686,713.8,672.6,714.7,659.1,715.6z M722.4,711.5l-1.1-17.4c14.1-0.9,28.2-1.8,42.2-2.6l1.1,17.4
				C750.6,709.8,736.5,710.6,722.4,711.5z M785.7,707.6l-1-17.4c14.1-0.8,28.2-1.7,42.3-2.5l1,17.4
				C813.9,705.9,799.8,706.8,785.7,707.6z M849,703.9l-1-17.4c14.1-0.8,28.2-1.6,42.3-2.4l1,17.4C877.2,702.3,863.1,703.1,849,703.9
				z M912.4,700.4l-1-17.4c14.1-0.8,28.2-1.5,42.3-2.3l0.9,17.4C940.5,698.8,926.5,699.6,912.4,700.4z"/>
		</g>
		<g>
			<polygon class="st15" points="355.9,737.5 353.9,708.4 371.2,707.2 372,718.8 383.6,717.9 385,735.2 			"/>
		</g>
		<g>
			<path class="st15" d="M352.4,687.5l-2.9-41.9l17.3-1.2l2.9,41.9L352.4,687.5z M348.1,624.7l-2.9-41.9l17.3-1.2l2.9,41.9
				L348.1,624.7z M343.8,561.9l-2.9-41.9l17.3-1.2l2.9,41.9L343.8,561.9z M339.5,499.1l-2.1-30.4l-0.6-11.7l17.4-0.8l0.6,11.5
				l2.1,30.2L339.5,499.1z"/>
		</g>
		<g>
			<polygon class="st15" points="335.8,436.1 334.4,406.9 363.6,406.1 364.1,423.5 352.6,423.8 353.2,435.3 			"/>
		</g>
		<g>
			<path class="st15" d="M383.6,422.9l-0.5-17.4l38.9-1.1l0.5,17.4L383.6,422.9z M441.9,421.3l-0.5-17.4l38.9-1.1l0.5,17.4
				L441.9,421.3z M500.2,419.7l-0.5-17.4l38.9-1.1l0.5,17.4L500.2,419.7z M558.6,418l-0.5-17.4l38.9-1.1l0.5,17.4L558.6,418z
				 M616.9,416.4l-0.5-17.4l38.9-1.1l0.5,17.4L616.9,416.4z M675.2,414.8l-0.5-17.4l38.9-1.1l0.5,17.4L675.2,414.8z M733.6,413.2
				l-0.5-17.4l38.9-1.1l0.5,17.4L733.6,413.2z M791.9,411.5l-0.5-17.4l38.9-1.1l0.5,17.4L791.9,411.5z M850.3,409.9l-0.5-17.4
				l38.9-1.1l0.5,17.4L850.3,409.9z M908.6,408.3l-0.5-17.4l38.9-1.1l0.5,17.4L908.6,408.3z"/>
		</g>
		<g>
			<polygon class="st15" points="966.9,406.7 966.5,389.3 978.2,389 978,377.2 995.4,376.8 996,405.9 			"/>
		</g>
		<g>
			<path class="st15" d="M977.6,358.3l-0.8-37.8l17.4-0.4L995,358L977.6,358.3z M976.4,301.6l-0.8-37.8l17.4-0.4l0.8,37.8
				L976.4,301.6z M975.2,245l-0.8-37.8l17.4-0.4l0.8,37.8L975.2,245z M974,188.3l-0.8-37.8l17.4-0.4l0.8,37.8L974,188.3z"/>
		</g>
	</g>
	<g class="st16">
		<path class="st17" d="M720.8,926.6v-34.2h4.5v30.2h16.9v4H720.8z"/>
		<path class="st17" d="M763.2,923.5c-1.6,1.3-3.1,2.3-4.5,2.8c-1.4,0.5-3,0.8-4.6,0.8c-2.7,0-4.8-0.7-6.3-2c-1.5-1.3-2.2-3-2.2-5.1
			c0-1.2,0.3-2.3,0.8-3.3c0.6-1,1.3-1.8,2.2-2.4c0.9-0.6,1.9-1.1,3-1.4c0.8-0.2,2.1-0.4,3.7-0.6c3.4-0.4,5.9-0.9,7.5-1.4
			c0-0.6,0-0.9,0-1.1c0-1.7-0.4-2.9-1.2-3.6c-1.1-1-2.7-1.4-4.8-1.4c-2,0-3.4,0.3-4.4,1c-0.9,0.7-1.6,1.9-2.1,3.7l-4.1-0.6
			c0.4-1.8,1-3.2,1.8-4.3c0.9-1.1,2.1-1.9,3.7-2.5c1.6-0.6,3.5-0.9,5.6-0.9c2.1,0,3.8,0.3,5.2,0.7c1.3,0.5,2.3,1.1,2.9,1.9
			c0.6,0.8,1.1,1.7,1.3,2.9c0.1,0.7,0.2,2,0.2,3.9v5.6c0,3.9,0.1,6.4,0.3,7.4c0.2,1,0.5,2,1.1,3h-4.4
			C763.6,925.7,763.3,924.7,763.2,923.5z M762.9,914.1c-1.5,0.6-3.8,1.2-6.9,1.6c-1.7,0.3-2.9,0.5-3.7,0.8c-0.7,0.3-1.3,0.8-1.7,1.4
			c-0.4,0.6-0.6,1.3-0.6,2c0,1.1,0.4,2.1,1.3,2.8c0.8,0.7,2.1,1.1,3.7,1.1c1.6,0,3.1-0.4,4.3-1.1c1.3-0.7,2.2-1.7,2.8-2.9
			c0.5-1,0.7-2.4,0.7-4.2V914.1z"/>
		<path class="st17" d="M795.3,926.6v-30.2H784v-4h27.1v4h-11.3v30.2H795.3z"/>
		<path class="st17" d="M813.5,897.2v-4.8h4.2v4.8H813.5z M813.5,926.6v-24.8h4.2v24.8H813.5z"/>
		<path class="st17" d="M824,926.6v-24.8h3.8v3.8c1-1.8,1.9-2.9,2.7-3.5c0.8-0.6,1.7-0.8,2.7-0.8c1.4,0,2.9,0.4,4.3,1.4l-1.4,3.9
			c-1-0.6-2.1-0.9-3.1-0.9c-0.9,0-1.7,0.3-2.5,0.8c-0.7,0.6-1.3,1.3-1.6,2.3c-0.5,1.5-0.7,3.1-0.7,4.9v13H824z"/>
		<path class="st17" d="M856.2,923.5c-1.6,1.3-3.1,2.3-4.5,2.8c-1.4,0.5-3,0.8-4.6,0.8c-2.7,0-4.8-0.7-6.3-2c-1.5-1.3-2.2-3-2.2-5.1
			c0-1.2,0.3-2.3,0.8-3.3c0.6-1,1.3-1.8,2.2-2.4c0.9-0.6,1.9-1.1,3-1.4c0.8-0.2,2.1-0.4,3.7-0.6c3.4-0.4,5.9-0.9,7.5-1.4
			c0-0.6,0-0.9,0-1.1c0-1.7-0.4-2.9-1.2-3.6c-1.1-1-2.7-1.4-4.8-1.4c-2,0-3.4,0.3-4.4,1c-0.9,0.7-1.6,1.9-2.1,3.7l-4.1-0.6
			c0.4-1.8,1-3.2,1.8-4.3c0.9-1.1,2.1-1.9,3.7-2.5c1.6-0.6,3.5-0.9,5.6-0.9c2.1,0,3.8,0.3,5.2,0.7c1.3,0.5,2.3,1.1,2.9,1.9
			c0.6,0.8,1.1,1.7,1.3,2.9c0.1,0.7,0.2,2,0.2,3.9v5.6c0,3.9,0.1,6.4,0.3,7.4c0.2,1,0.5,2,1.1,3H857
			C856.6,925.7,856.3,924.7,856.2,923.5z M855.8,914.1c-1.5,0.6-3.8,1.2-6.9,1.6c-1.7,0.3-2.9,0.5-3.7,0.8c-0.7,0.3-1.3,0.8-1.7,1.4
			c-0.4,0.6-0.6,1.3-0.6,2c0,1.1,0.4,2.1,1.3,2.8c0.8,0.7,2.1,1.1,3.7,1.1c1.6,0,3.1-0.4,4.3-1.1c1.3-0.7,2.2-1.7,2.8-2.9
			c0.4-1,0.7-2.4,0.7-4.2V914.1z"/>
		<path class="st17" d="M866.6,926.6v-24.8h3.8v3.5c1.8-2.7,4.4-4.1,7.9-4.1c1.5,0,2.9,0.3,4.1,0.8c1.3,0.5,2.2,1.2,2.8,2.1
			c0.6,0.9,1.1,1.9,1.3,3.1c0.2,0.8,0.2,2.1,0.2,4.1v15.2h-4.2v-15.1c0-1.7-0.2-3-0.5-3.8c-0.3-0.8-0.9-1.5-1.7-2
			c-0.8-0.5-1.8-0.8-2.9-0.8c-1.8,0-3.3,0.6-4.6,1.7c-1.3,1.1-1.9,3.3-1.9,6.5v13.5H866.6z"/>
		<path class="st17" d="M909.4,923.5c-1.6,1.3-3.1,2.3-4.5,2.8c-1.4,0.5-3,0.8-4.6,0.8c-2.7,0-4.8-0.7-6.3-2c-1.5-1.3-2.2-3-2.2-5.1
			c0-1.2,0.3-2.3,0.8-3.3c0.6-1,1.3-1.8,2.2-2.4c0.9-0.6,1.9-1.1,3-1.4c0.8-0.2,2.1-0.4,3.7-0.6c3.4-0.4,5.9-0.9,7.5-1.4
			c0-0.6,0-0.9,0-1.1c0-1.7-0.4-2.9-1.2-3.6c-1.1-1-2.7-1.4-4.8-1.4c-2,0-3.4,0.3-4.4,1c-0.9,0.7-1.6,1.9-2.1,3.7l-4.1-0.6
			c0.4-1.8,1-3.2,1.8-4.3c0.9-1.1,2.1-1.9,3.7-2.5c1.6-0.6,3.5-0.9,5.6-0.9c2.1,0,3.8,0.3,5.2,0.7c1.3,0.5,2.3,1.1,2.9,1.9
			c0.6,0.8,1.1,1.7,1.3,2.9c0.1,0.7,0.2,2,0.2,3.9v5.6c0,3.9,0.1,6.4,0.3,7.4c0.2,1,0.5,2,1.1,3h-4.4
			C909.8,925.7,909.5,924.7,909.4,923.5z M909,914.1c-1.5,0.6-3.8,1.2-6.9,1.6c-1.7,0.3-2.9,0.5-3.7,0.8c-0.7,0.3-1.3,0.8-1.7,1.4
			c-0.4,0.6-0.6,1.3-0.6,2c0,1.1,0.4,2.1,1.3,2.8c0.8,0.7,2.1,1.1,3.7,1.1c1.6,0,3.1-0.4,4.3-1.1c1.3-0.7,2.2-1.7,2.8-2.9
			c0.4-1,0.7-2.4,0.7-4.2V914.1z"/>
	</g>
</g>
<text transform="matrix(1 0 0 1 728.5456 944.8281)" class="st12"><tspan x="0" y="0" class="st18 st19 st20">Fiesta de </tspan><tspan x="0" y="80.4" class="st18 st19 st20">la Tirana</tspan></text>
<circle class="st21" cx="692.5" cy="956.9" r="29.2"/>
</svg>
