<?xml version="1.0" encoding="UTF-8"?><svg xmlns="http://www.w3.org/2000/svg" xmlns:xlink="http://www.w3.org/1999/xlink" viewBox="0 0 746.16 403.89"><defs><style>.cls-1,.cls-2{opacity:.45;}.cls-1,.cls-3{fill:#eee;}.cls-4{stroke-width:1.29px;}.cls-4,.cls-5,.cls-2,.cls-6,.cls-7,.cls-8{fill:none;}.cls-4,.cls-6{stroke-linecap:round;}.cls-4,.cls-7,.cls-9,.cls-8{stroke:#ccb9ef;}.cls-4,.cls-8{stroke-linejoin:round;}.cls-10{fill:#5dbae9;}.cls-11{fill:#f9e4aa;}.cls-12{fill:#daf9d4;}.cls-13{fill:#cdbaf0;}.cls-13,.cls-5,.cls-2,.cls-7,.cls-14,.cls-15,.cls-9{stroke-miterlimit:10;}.cls-13,.cls-6,.cls-14{stroke:#fff;}.cls-13,.cls-14{stroke-width:.25px;}.cls-5{stroke-width:8px;}.cls-5,.cls-2{stroke:#eee;}.cls-16,.cls-15{fill:#397393;}.cls-17{fill:#f9f9f9;}.cls-2{stroke-width:4px;}.cls-6{stroke-linejoin:bevel;}.cls-6,.cls-7{stroke-width:2.5px;}.cls-18{clip-path:url(#clippath);}.cls-14{fill:#face48;}.cls-19{fill:#fcd56b;}.cls-15{stroke:#faa332;}.cls-9{fill:#f6f6cd;}.cls-8{stroke-width:1.72px;}</style><clipPath id="clippath"><ellipse class="cls-5" cx="480.61" cy="201.76" rx="212.3" ry="197.76"/></clipPath></defs><g id="Sudamerica"><path class="cls-14" d="M32.31,304.61c-2.1,.3-2.04-4-1.76-4.88,.36-1.13-2.18-.54-2.94-.9-.76-.37,.27-1.13-.59-2.07-.86-.93-.22-2.26-.13-2.92,.05-.36,2.46-3.96,2.96-4.28,1.03-.67-.97-1.78-.13-2.45,.84-.67-.02-1.89,1.29-2.09,1.32-.21-.02-1.89,.91-2.18,.94-.3-.21-1.32,.06-2.46,.27-1.14-.78-1.97,.44-2.46,1.22-.49,.36-1.42-.5-2.07-.93-.71,1.68-.53,1.76-1.11,0-.67-.35-1-1.03-.97-1.11,.35-1.8-.73-.96-1.59,.19-.19-.52-3.49-.8-3.67-.57-.37-.23-3.2,.43-3.3,1.45-.23-.63-4.9-.54-5.56,.09-.7,.96-4.05,1.65-4.17,.57-.1,.07-1.6,.16-2.36,.08-.75,1.6-.02,1.78-1.25,.17-1.23-.96-1.03-.78-1.78,.84-3.59-.72-4.75,2.17-7.29,.65-.57-.9-3.57-.05-3.96,.84-.39,.26-1.8,.91-2.28,.65-.48,.45-1.51,.81-2.65,.36-1.12-1.22-4.98-1.87-5.82-.78-1.02-.28-5.43,1.24-5.87,1.03-.29,.45-1.89-.04-3.21-.21-.57,1.74-4.34,2.21-4.56,.78-.36,1.77-3.31,2.78-4.19,.65-.57-1.15-1.5-.12-2.08,1.03-.58-.89-2.91-.33-3.39,.56-.48,.08-1.51,.16-2.27,.08-.76,3.18-2.21,3.55-2.88,.27-.49,.52-2.18,.59-3.68-.96,.64-1.8,.99-1.96,.63-.29-.65,.06-2.6-.79-3.43-.85-.83-.31-2.51-1.15-2.86-.84-.36-1.88-2.02-1.15-2.59s-.02-1.67,.62-2.24c.64-.57-.38-.64-1.32-1.74-.94-1.1,.34-2.51-.79-3.33-1.13-.82-1.14-1.84-1.41-1.38-.27,.47-.35,2.05-1.27,2.53-.15,.08-.39,.26-.68,.5,.02,.77-.25,2.07,.07,2.82,.43,1.04,.71,6.12,.31,8.08-.39,1.96-.79,3.56-1.19,4.75-.4,1.19,.99,1.24,.44,1.8-.83,.85-1.53,10.04-1.59,11.38-.05,1.18-.95,1.96-.79,3.29,.16,1.32-.6,2.1-1.36,2.73-.76,.64,1.29,2.63,1.23,3.75-.06,1.12-1.51,1.62-1.14,3.43,.64,3.09-1,6.35-.58,9.07,.23,1.46-.88,1.82-1.06,3.92-.18,2.09-1.75,5.11-2.35,6.72-.66,1.76-2.68,2.98-1.82,4.83,.64,1.39-.38,2.58,.47,3.97,.85,1.38,.58,1.88,.18,3.21-.54,1.78-2.12,4.41-1.31,6.36,.58,1.41-1.33,3.44-1.53,5.32-.25,2.3-.18,2.23,1.49,2.07,1.96-.19-.11-6.13,2.49-6.86,1.04-.29,.15,.98,.85,1.17,.7,.2,1.19,.75,.23,1.39-.97,.64,.23,1.88-.24,2.65-.48,.77-1.16,1.62-.73,2.52,.43,.9-.48,.84-.53,2.03-.05,1.18,.64,1.24,.16,1.53-.48,.29,.64,1.18-.05,1.33,1.24-.26-1.15,2.58-1.43,2.81-.69,.57,.71,1.31,.31,2.09-.41,.77-1.54-.4-2.03-.81-.49-.41,.75-1.26,1.37-2.11,.62-.84-.66-2.71-1.7-2.28,1.63-.68-.47,4.65-.58,3.28,.08,.98-1.18,.64-1.79,1.35-.62,.7,.85,1.31,.16,1.53-.69,.22-1.87,1.21-1.93,1.91-.13,1.55,1.52-1.67,2.23,.11-.3-.74,4.19,2.02,2.11,1.79-.56-.06-1.1,.92-.95,1.96,.15,1.04,2.09-.03,2.93,.24,.84,.27,.58,1.73,.09,1.25-.49-.48-1.62-1.3-2.1-.46-.48,.84-1.25,.44-1.88,.17-.63-.27-2.84,1.22-2.07,1.77,.77,.55,.72,1.45,1.2,1.38,.49-.08,1.25-.44,1.52-1,.27-.56,1.24-1.13,1.33,.12,.09,1.25-1.32,.64-1.59,1.35-.27,.7-.82,1.26-1.65,1.9-.83,.64,.02,1.67,.71,1.32,.69-.36-.2,.84,.78,.96,.9,.12,1.18-.57,.96-1.27-.11-.63,.07-1.16,.54-1.59,1.93-1.26-.9,5.95-.9,5.91,.08,.84-1.95,.3-1.03,.85,.91,.55-.54,1.33-.05,1.88,.49,.55,.9-.78,1.67-.51,.77,.27,.63,.48,1.6,.05,.61-.22,.97-.04,1.09,.54,0,.14-2.34,1.83-1.89,1.97,.42,.14,1.59-.72,1.88,.19,.29,.9,.98,.61,1.04-.36,.06-.98,1.74-.16,2.03,.67,.29,.83-1.72,1.35-2.77,1.15-1.05-.2-1.59,1-.88,1.89,.71,.9,1.53-.02,2.29-.8s4.52-.62,4.81,.22c.29,.83-1.74,.16-1.94,.65-.2,.49-1.73,.93-1.95,.38-.22-.55-1.67,.23-1.73,1.14-.06,.91-1.17,.92,.09,1.25,1.26,.33,.89-1.34,2.84-1.22,1.95,.11,2.97-1.85,3.54-.74,.57,1.11-1.58,2.04-2.35,1.36-.77-.69-1.67,.51-1.58,1.55,.08,1.05-2.23-.25-3.35-.37-1.12-.13-.61,1.05,.38,2.08,.99,1.03,1.53-.16,2.72,.59,1.19,.75,1.21,1.58,2.03,.81,.83-.78,0-.7-.57-1.04-.56-.34-.09-1.53,1.24-.92,1.33,.61,2.85-.59,2.41-2.26-.44-1.67,1.15-2.46,2.75-3.03,1.6-.58,.78,1.04-.4,1.54-1.18,.5-1.38,.85-.46,1.82,.92,.96,2.08-.65,2.86,.1,.78,.76-1.39,.65-1.72,1.42-.34,.77,1.35,1.66,.17,2.23-1.18,.57-.66-2.29-1.36-2.56-.7-.27-1.32,.37-.6,1.96,.72,1.59-.83,.22-1.54-.54-.71-.76-1.67,.37-.82,1.19,.33,.32-1.59,.64-1.59,1.28,.01,1.15,1.71,.33,2.31,.46,1.26,.26,.72,2.08,1.64,2.77,.91,.69,.11-2.23,1.08-2.45,.97-.22,.1,2.23,2.27,2.9,2.17,.67,.13-.42,1.1-1.13,.97-.71,2.26,2.06,3.3,2.33,1.05,.27,.33-1.26-.45-2.09-.78-.83,.76-.36,1.81-.02,1.05,.33,1.89,.46,2.09-.31,.07-.29,.27-.29,.52-.21-1.1-.7-4.79-.13-5.3-.21-.5-.08-.22-8.43-.15-10.35-.69-.15-3.2,.43-2.82-1.19,.06-.25,.19-.39,.36-.47-.42-.37-1.01-.78-1.71-.95-1.42-.36-4.81,.06-5.56,.16Z"/><g><path class="cls-13" d="M76.59,105.33c.46,.9-.55,1.36-1.45,1.49-.9,.12-.65,2.15-1.21,2.73-.56,.57,2.17,2,2.64,3.24,.28,.73,1.2,2.32,1.9,3.5,.63,.15,1.22,.29,1.58,.08,.84-.48,.07-2.08,1.3-2,1.23,.08,3.01-.7,3.49,.05,.09,.13,.19,.27,.31,.4,.39-.6,.8-1.25,.91-1.48,.22-.46,.19-2.83-.39-4.17-.58-1.35-.15-3.16,.52-3.73,.14-.12,.35-.73,.59-1.62-1.13-.43-2.21-.8-3.15-.67-1.67,.23-3.4,1.02-4.04,.12-.64-.9-1.54-.74-2.37-.04-.09,.08-.2,.11-.31,.1-.27,.82-.55,1.56-.32,2.01Z"/><path class="cls-13" d="M66.89,97.1c-.78,.46-1.9,1.72-1.1,2.16,2.15,1.2-2.11,1.73-1.88,3.19,.12,.79-1,1.14-.32,1.7,.45,.37,1.46,1.67,2.09,2.5,.21-.42,.49-.76,1.12-.68,1.32,.17,.31,2.17,1.35,2.62,1.04,.46,1.07,2.06,.32,2.64-.75,.58-.99,3.69,.73,5.55,1.72,1.87,3.04,1.57,3.41,1.09,.37-.47,1.7-.02,2.06-.78,.37-.76,.85,.08,1.59-.78,.43-.49,1.34-.24,2.2-.03-.71-1.18-1.63-2.77-1.9-3.5-.47-1.24-3.2-2.67-2.64-3.24,.56-.57,.31-2.6,1.21-2.73,.9-.12,1.91-.59,1.45-1.49-.23-.45,.04-1.2,.32-2.01-1.88-.17-6.48-5.68-7.72-7.03-.28-.31-.7-.53-1.17-.7-.39,.77-.81,1.33-1.13,1.52Z"/><path class="cls-13" d="M85.67,109.16c.58,1.35,.61,3.72,.39,4.17-.11,.23-.53,.88-.91,1.48,.52,.57,1.36,.98,2.81,.5,1.78-.59,2.65,.53,3.28-1.46,.5-1.55,2.3-3.69,3.65-5.05-.02,0-.03-.02-.05-.03-1.33-.54-3.39-3.72-5.42-4.11-.88-.17-1.78-.53-2.65-.85-.24,.88-.45,1.5-.59,1.62-.67,.57-1.1,2.39-.52,3.73Z"/><path class="cls-13" d="M50.71,315.55c-1.74-.05-5.2-3.21-6.25-4.03-1.06-.82-.3-1.67-1.55-1.45-1.25,.23-.43-.97,.26-1.33,.64-.33-.27-1.51-1.12-1.69-.07,1.87-.35,10.27,.15,10.35,.51,.08,4.2-.49,5.3,.21,.42,.13,1,.46,1.43-.03,.69-.77,2.78-.38,3.89-1.09,1.11-.71-.36-.9-2.1-.95Zm37.18-110.51c-.32-.16-1.29-.14-2.07-.11,0,.12,0,.22,.02,.32,.21,1.32-.6,4.72-1.54,4.64-.95-.08-1.68,1.44-2.44,1.26-.76-.18-1.78,1.16-2.73,.6-.95-.55-2.26,.22-3.02-.24-.2-.12-2.93-.23-2.93-.63-.02-1.21,3.79-5.71,3.41-6.36-.39-.66-5.21-2.01-5.88-2.85-.67-.84-1.62-1.58-3.51-1.75-1.89-.17-1.81-1.11-3.52-2.12-1.43-.85-3.66-3.13-4.42-4.41-1.15-.11-2.78-.33-3.1,.07-.46,.56-1.17,3.17-1.83,1.88-.67-1.29-2.25-1.27-3.64-1.44-1.4-.17-1.32-1.47-2.79,.13-.65,.71-1.5,1.42-2.28,1.93-.07,1.5-.32,3.2-.59,3.68-.37,.67-3.46,2.12-3.55,2.88-.08,.76,.4,1.79-.16,2.27-.56,.48,1.36,2.81,.33,3.39-1.03,.58,.77,1.5,.12,2.08-1,.88-2,3.83-2.78,4.19-.58,.27-2.45,3.89-2.21,4.56,.49,1.31,1.08,2.91,.04,3.21-1.58,.46-1.94,4.96-1.24,5.87,.65,.84,2.22,4.71,1.87,5.82-.36,1.14-.16,2.17-.81,2.65-.65,.48-.07,1.89-.91,2.28-.84,.39,.7,3.39,.05,3.96-3.02,2.66-1.33,3.73-2.17,7.29-.18,.76,.95,.55,.78,1.78-.17,1.23-1.69,.49-1.78,1.25-.09,.76,.41,2.26-.16,2.36-.69,.12-1.55,3.47-1.65,4.17-.06,.47,1.86,5.35,.54,5.56-.66,.1-1,2.94-.43,3.3,.24,.15,1.04,3.42,.8,3.67-.84,.86-.15,1.94,.96,1.59,.68-.03,1.02,.3,1.03,.97-.08,.59-2.7,.4-1.76,1.11,.86,.65,1.72,1.58,.5,2.07-1.22,.49-.17,1.32-.44,2.46-.27,1.14,.88,2.16-.06,2.46-.94,.29,.4,1.97-.91,2.18-1.32,.21-.45,1.42-1.29,2.09-.84,.67,1.15,1.78,.13,2.45-.42,.28-2.91,3.88-2.96,4.28-.09,.66-.73,1.99,.13,2.92,.86,.93-.17,1.7,.59,2.07,.76,.37,3.3-.23,2.94,.9-.27,.84-.31,5.18,1.76,4.88,.75-.1,4.14-.53,5.56-.16,.7,.17,1.29,.59,1.71,.95,.8-.37,2.59,.76,2.98,.36,.48-.49-1.77-2.28-1.71-2.9,.15-1.5-1.44-4.08,.21-5.3,.97-.71,1.03-1.41,1.66-1.27,.63,.13,1.87-.58,1.92-2.26,.05-1.67,.81-2.31,2.18-3.51,1.5-1.31,4.01-2.56,3.65-3.11-.64-1,1.08-2.34,.19-3.3-.57-.61-2.11-.32-2.82-.57-.77-.27-3.58-2.18-2.22-4.78,1.36-2.6,4.28-2.91,5.12-3,.83-.08,.05-1.25,.74-1.68,1.55-.95-.13-5.12,2.02-5.39,1.25-.16,1.59-.86,.82-1.06-.77-.2-1.13-1.1,.12-1.26-.42,.05,6.53,1.22,2.98-1.43-1.2-.89-1.53,.44-2.15,.59-2.03,.48-1.88-2.32-2.27-3.18-.29-.62-.73-2.15-.18-2.92,.55-.77,2.94,1.15,5.03,1.26,5.27,.29,1.6-3.32,3.84-4.86,1.24-.85,.19-1.12-.17-2.23-.56-1.71,8.06-1.62,9.17-1.86,4.61-1,6.51-3.19,8.76-7.15,1.25-2.21-4.25-1.98-1.94-4.78,.75-.92-.44-1.74-1.77-1.86-1.33-.12-3.43-1-2.26-2.13,.56-.54,.85-.44,1.12-.2,.19-.53,.38-1.17,.22-1.32-.29-.28-.99,.08-.94-1.89,.04-1.98,.76-1.56,.79-4.11,.08-5.1,2.3-6.53,4.67-10.51,1.31-2.21,4.17-5,5.36-5.79,1.19-.79,3.51-1.46,3.78-2.16,.27-.71-.06-4.52-.63-4.79Z"/><path class="cls-13" d="M37.65,179.02c.04-.07,.07-.1,.1-.11-.09-.57-.09-1.09,.25-1.29,1.12-.66,1.78-6.17,1.12-6.71-.56-.46,.81-1.87,.71-2.61-.1-.74-.7-4.08-.34-4.46,.37-.38,1.2-.67,.81-1.68-.3-.8-1.66-3.03-2.22-4.39-1.04-.13-2.3-.09-3.03,.19-1.36,.51-.32-4.5-1.08-4.72-.54,.09-.91,.4-1.1,.94-1.36,3.16-4.59-1.28-5.03-1.23-.93,.1-1.68-.26-1.6-1.19,.08-.93-.67-1.66-1.33-2.68-.66-1.01-1.42-2.02-.87-2.68,.55-.66-.39-1.2,.44-2.05,1.14-1.17,2.24-2.82,2.36-4.68,.08-1.21,1.48-.86,2.76-1.9,1.29-1.04,2.69-.5,3.79-1.44,1.03-.88,1.76-.14,2.54-.21-.47-.65-1.62-.95-1.89-1.47-.34-.65,1.18-1.87,1.61-2.64,.43-.77-1.77-1.62-2.32-1.83-.55-.21-1.52,.46-2.08,.14-.55-.32-1.42-.09-1.86,.24-.43,.33-3.71,.59-3.61-.39,.1-.98-1.33-1.29-1.23-1.95,.1-.66-.79-1.85-1.99-1.94-1.2-.09-1.01-2.06-1.89-2.6-.5-.3-1.73-.1-2.7,.12,1.06,1.17,1.45,1.66,.76,2.23-.91,.75,.01,.87-1.7,3.22-1.71,2.34-4.68,2.97-6.13,3.42-1.45,.46-1.99,3.15-2.77,5.05-.77,1.9-1.44,1.25-2.25,.17-.81-1.08-1.45,.24-2.41-.62-.96-.86-.52-.86-.02-1.59,.27-.4-.04-1.01-.63-1.61-1.03,.23-2.06,1.67-2.57,2.78-.54,1.19,1.02,3.47,1.24,4.3,.22,.83-.84,.08-.96,.85-.13,.77,2.32,1.85,3.45,2.67,1.12,.82,2.13,3.18,3.19,4.28,1.06,1.1,1.14,2.07,2.29,4.78,1.15,2.7,3.44,7.27,5,9.2,1.56,1.93,2.27,3.45,1.93,4.02-1.33,2.19,5.1,5.72,6.21,6.26,2.95,1.42,8.35,4.14,9.13,5.46,.78,1.31,3.31,2.54,3.8,2.81,.14,.08,.18,.3,.19,.59,.29-.24,.52-.43,.68-.5,.92-.48,1-2.06,1.27-2.53Z"/><path class="cls-13" d="M91.02,232.03c1.93-1.42,1.43-2.25,2.32-3.93,.88-1.68,.11-2.37,1.62-3.86,1.51-1.48-.31-2.43,1.63-3.37,1.94-.93,1.68,.81,.11,2.86-1.58,2.04-1.85,2.6,.22,1.04,2.07-1.56,2.81-3.73,3.96-6.18,1.15-2.45,2.05-3.23,3.09-3.38,1.04-.15,1.01-2.73,.85-4.54-.58-6.4,1.01-6.05,4.89-10.03,1.51-1.55,2.49-1.7,4.09-1.86,1.6-.16,.69-.71,1.73-1,1.04-.29,1.73-1.28,2.41-1.91,1.05-.97,4.08,.23,5.23,0,2-.4,1.59-.65,3.02-1.61,.01,0,2.6-1.67,2.53-1.56,.92-1.32-.03-3.04,1.53-4.24,.83-.64,.95-2.03,1.22-2.94,.73-2.47,1.85-5.06,3.18-7.22,.48-.77-.44-1.74,.3-3.9,.92-2.72-1.73-8.63,.56-10.74,.69-.64,.34-.98-.22-1.25-.56-.27,.06-1.04,.55-.91,3.09,.85,3.28-1.34,4.4-4.31,.74-1.96,2-1.91,2.97-2.34,.97-.43,3.03-2.83,4.31-6.26,1.28-3.43-.16-6.76-.75-9.12-.59-2.36-1.35-1.87-2.74-1.78-1.39,.09-4.05-.23-7.58-3.94-3.85-4.05-10.42-3.05-15.45-4.12-1.54-.33-2.97,1.64-4.08,2.07-1.11,.43,.54-1.68,.59-3.01,.05-1.32-4.22-3.15-7.44-4.36-3.82-1.44-2.64,.14-4.58,1.45-.29,.2-1.96,.99-2.21,1.56-.95,2.17-2.78,.8-1.6,.09,1.18-.71,2.27-2.33,2.67-3.66,.4-1.33-4.63-2.31-6.36-1.59-1.73,.72-.59,3.22-1.99,2.47-1.4-.75-.31-2.64,.8-2.59s2.34-2.26,3.08-3.94c.74-1.68-1.35-1.93-2.62-3.31-1.26-1.36-1.06-5.38-2.33-6-1.35,1.37-3.15,3.5-3.65,5.05-.63,1.99-1.5,.87-3.28,1.46-1.78,.59-2.64-.15-3.12-.9-.48-.75-2.26,.03-3.49-.05-1.23-.08-.45,1.51-1.3,2-.84,.48-3.03-.9-3.77-.05-.74,.86-1.23,.02-1.59,.78-.37,.76-1.69,.31-2.06,.78-.37,.48-1.69,.78-3.41-1.09-1.72-1.86-1.48-4.98-.73-5.55,.75-.58,.73-2.18-.32-2.64-1.04-.46-.03-2.45-1.35-2.62-1.32-.17-1.11,1.52-1.96,1.82-.84,.29-2.9,1.73-3.85,1.56-1.93-.36-1.78,2.06-2.69,1.92l-.69-.74c-.2-.85-2.18-.35-2.75-.91-.57-.56-3.21-.24-2.07,.41-.05-.03,3.99,6.72,4.2,5.25-.27,.25-.54,.49-.82,.74-1.03,.2-1.5,.78-1.77,1.72-.27,.95-1.22,.3-2.06,1.06-.84,.77-1.58,1.53-2.15,1.16-.57-.37-1.04-.08-1.69,.3-.65,.39-.94,.01-1.9-.73-.71-.56-1.17-1.91-2.44-3.14-.94,.45-7.66,.87-7.81,1.35-.18,.6,.27,1.6,.84,1.72,.57,.12,1.77,.45,.64,1.28-4.34,3.23,1.11,2.6-.04,6.79-.29,1.05-.27,8.23-1.74,8.58-.83,.19-1.59-.72-2.69,.22-1.1,.95-2.5,.41-3.79,1.44-1.29,1.04-2.69,.68-2.76,1.9-.12,1.86-1.22,3.51-2.36,4.68-.83,.85,.11,1.39-.44,2.05-.55,.66,.21,1.67,.87,2.68,.66,1.01,1.42,1.75,1.33,2.68-.08,.93,.67,1.29,1.6,1.19,.37-.04,3.73,4.27,5.03,1.23,.19-.54,.56-.86,1.1-.94,.57,.17-.09,5.17,1.08,4.72,1.02-.38,3.06-.32,4.09,.04,1.03,.36,2.04-.03,2.69-.68,.64-.66,1.38-.67,2.68-1.43,.31-.18,7.03-2.82,6.67-1.57-.27,.93-.41,4.37,1.1,6.12,1.51,1.74,2.35,2.38,3.75,2.18,1.39-.21,1.21,.54,2.24,.43-.36,.04,3.44,1.52,2.97,1.3,.77,.36,3.98,1.31,4.41,1.67,.66,.55,1.41,1,1.24,2.12-.17,1.12,1.42,1.93,.5,2.41-.92,.48,.3,1.39,.4,2.6,.11,1.21,1.42,1.65,3.46,1.54,2.3-.14,3.77,2.44,4.52,4.59,.48,1.39-.52,2.98-.32,4.09,.15,.85-.35,1.77-.93,2.15,.73,.9,.79,1.31,.16,1.68-.84,.48,1.06,1.78,.62,3.86-.45,2.08-.53,2.46,1.63,2.52,2.17,.07,1.99,.73,2.74,.25,.75-.48,1.91,1.58,2.2,2.61,1.39,4.83,1.35,1.5,4.19,2.87,1.06,.51-.21,4.07-.22,5.63,.78-.04,1.75-.05,2.07,.11,.57,.27,.9,4.08,.63,4.79-.27,.71-2.59,1.37-3.78,2.16-1.19,.79-4.05,3.58-5.36,5.79-.78,1.3-1.92,2.39-2.73,3.34,.39,.05,.72,.03,.94-.07,.63-.29,1.62-.3,2.7,.95,1.08,1.26,1.02,2.25,1.44,2.17,.42-.08,.89-1.71,1.76-.52,.86,1.19,3.06,2.08,3.56,2.64,2.44,2.73,.93,4.01,2.54,7.21,.39-.52,.84-1.02,1.45-1.47Z"/><path class="cls-13" d="M86.04,199.3c-2.84-1.38-2.87,1.71-4.19-2.87-.3-1.04-1.46-3.1-2.2-2.61-.75,.48-.57-.18-2.74-.25-2.17-.07-2.08-.44-1.63-2.52,.44-2.08-1.46-3.38-.62-3.86,.27-.15,.39-.41,.42-.44,.28-.32,.03-1.3-.09-1.7-.26,.07-.63,.15-1.07,.19-1.54,.15-2.94-.28-4.81-.57-.19-.03-.65-.1-1.21,.02-.27,.06-.47,.14-.53,.16-1.03,.41-2.89,.08-3.8,.7-1.11,.76-2.48,2.35-2.38,3,.1,.65-.31,4.65-.87,4.85-.17,.06-.58,.03-1.08-.01,.76,1.28,2.99,3.56,4.42,4.41,1.71,1.01,1.63,1.96,3.52,2.12,1.89,.17,2.84,.91,3.51,1.75,.67,.84,5.5,2.19,5.88,2.85,.39,.65-3.42,5.15-3.41,6.36,0,.4,2.73,.5,2.93,.63,.76,.46,2.07-.31,3.02,.24,.95,.55,1.97-.78,2.73-.6,.76,.18,1.49-1.34,2.44-1.26,.95,.08,1.75-3.33,1.54-4.64-.21-1.32,1.34-5.39,.21-5.95Z"/><path class="cls-13" d="M17.81,123.64c-1.18-1.29-1.99-2.08-2.27-1.71-.29,.37-1.52,.53-2.4,.03-1.86-1.05-4.22-2.18-5.89-3.55-.01,.15-.01,.3,0,.43,.08,.63-.96,1.06-2.15,1.14-.49,.04-2.11,3.56-2.38,4.21-.41,.98,.15,1.18-.81,1.68-.97,.5-1.24,1.34-.67,2.17,.57,.83-.05,1.6-.18,2.09-.13,.49,.85,.68,1.83,1.58,.99,.89,1.11-.36,1.54,.33,.69,1.12-.88,1.85-1.62,2.02,.59,.6,.9,1.21,.63,1.61-.5,.73-.94,.74,.02,1.59,.96,.86,1.59-.45,2.41,.62,.81,1.08,1.48,1.73,2.25-.17,.77-1.9,1.32-4.6,2.77-5.05,1.45-.45,4.42-1.07,6.13-3.42,1.71-2.35,.79-2.47,1.7-3.22,.72-.59,.28-1.09-.9-2.39Z"/><path class="cls-13" d="M13.14,121.95c.88,.5,2.11,.33,2.4-.03,.29-.37,1.1,.42,2.27,1.71,.05,.06,.1,.11,.15,.16,.97-.23,2.2-.43,2.7-.12,.88,.53,.69,2.51,1.89,2.6,1.2,.1,2.09,1.29,1.99,1.94-.1,.66,1.33,.97,1.23,1.95-.1,.99,3.18,.73,3.61,.39,.43-.33,1.3-.57,1.86-.24,.55,.32,1.53-.35,2.08-.14,.55,.21,2.75,1.06,2.32,1.83-.43,.77-1.94,1.99-1.61,2.64,.27,.52,1.41,.82,1.89,1.47,.05,0,.1,0,.15-.01,1.48-.35,1.45-7.53,1.74-8.58,1.15-4.19-4.3-3.56,.04-6.79,1.12-.83-.08-1.16-.64-1.28-.57-.12-1.02-1.12-.84-1.72,.48-1.6,7.78,.87,8.24-1.62,.03-.16,.27-.94-.59-1.59-.86-.65-.56-1.59,.09-2.36,.65-.76-.43-1.5-1.26-2.4-.83-.9-.24-4.21,.68-5.76,.92-1.55-1.93-1.17-3.69-.93-1.76,.24-3.27-.43-4.42-1.86-1.15-1.43-2.68-.5-5.38-.4-2.7,.1-2.21-2.96-2.1-4.12,.11-1.17-1.89-2.83-2.89-2.73-.69,.07-.01-.85,.45-1.45,.47-.6,.43-1.07,.44-2.33,.01-1.26,1.82-2.35,2.72-3.59,.22-.3,.56-.5,.95-.62,.11-.29,.33-.53,.75-.62,1.39-.3,2.08-1.21,.74-1.96-1.33-.75-2.07,1.49-3.53,1.72-1.46,.23-1.73,1.14-2.7,1.64-.97,.5-2.79,.11-2.84,.94,0,.04-4.57-.08-4.36,2.57,.08,1.04,.44,2.01-1.08,3.01-1.52,1-2.4,2.82-3.09,3.66-.21,.26-.44,.28-.68,.17-.08,.46-.21,.83-.42,.99-.38,.29-1.29,1.24-2.09,2.08,.4,.37,.77,.7,1.02,.96,.99,1.03,.37,1.88,.66,2.43,.29,.55,.58,1.38,.02,1.74-.55,.35-.02,4.18,.62,4.87,.64,.69,.02,1.32-.66,2.73-.68,1.4-1.3,2.04-2.55,2.12-.81,.05-2.13,2.56-2.18,3.36,1.66,1.35,4.02,2.49,5.89,3.55Z"/><path class="cls-13" d="M89.18,228.74c-.02-1.48-1.65-1.88-2.15-2.44-.5-.56-2.7-1.45-3.56-2.64-.86-1.19-1.34,.44-1.76,.52-.42,.07-.36-.91-1.44-2.17-1.07-1.26-2.06-1.24-2.7-.95-.22,.1-.55,.12-.94,.07-1.34,1.57-1.91,5.2-1.94,7.17-.04,2.54-.75,2.13-.79,4.11-.04,1.98,.66,1.62,.94,1.89,.16,.16-.02,.79-.22,1.32,.3,.26,.6,.67,1.25,.59,1.25-.16,2.51,.32,4.05,.99,1.54,.68,.97-.22,2.44-.03,1.47,.19,3.14,.31,4.73-.69,1.09-.68,1.62-1.85,2.47-2.97-.85-1.69-.38-3.7-.39-4.76Z"/><path class="cls-13" d="M75.75,179.27c-.79-2.27-2-4.74-4.52-4.59-2.04,.12-3.35-.33-3.46-1.54-.11-1.21-1.33-2.12-.4-2.6,.92-.48-.67-1.29-.5-2.41,.17-1.12-.58-1.57-1.24-2.12-.43-.36-3.64-1.31-4.41-1.67,.48,.22-3.32-1.26-2.97-1.3-1.02,.11-.84-.64-2.24-.43-1.39,.2-2.24-.44-3.75-2.18-1.51-1.75-1.37-5.19-1.1-6.12,.46-1.61-6.74,1.62-6.67,1.57-1.29,.76-2.03,.77-2.68,1.43-.64,.66-1.66,1.04-2.69,.68-.29-.1-.65-.17-1.05-.22,.57,1.36,1.92,3.59,2.22,4.39,.39,1.02-.45,1.3-.81,1.68-.37,.38,.23,3.71,.34,4.46,.1,.74-1.27,2.15-.71,2.61,.74,.61-.15,6.13-1.12,6.71-.34,.2-.34,.73-.25,1.29,.2-.07,.34,.78,1.31,1.48,1.13,.82-.16,2.23,.79,3.33,.94,1.1,1.97,1.18,1.32,1.74-.64,.57,.11,1.67-.62,2.24s.31,2.23,1.15,2.59c.84,.36,.31,2.04,1.15,2.86,.85,.83,.5,2.78,.79,3.43,.29,.65,2.77-.96,4.24-2.56,1.47-1.6,1.39-.3,2.79-.13,1.4,.17,2.98,.15,3.64,1.44,.67,1.29,1.38-1.32,1.83-1.88,.46-.56,3.63,.14,4.18-.05,.56-.19,.97-4.19,.87-4.85-.1-.65,1.27-2.25,2.38-3,1.11-.76,2.88-.22,3.8-.7,2.08-1.07,8.76,2.39,8.06-1.5-.2-1.11,.8-2.7,.32-4.09Z"/><path class="cls-13" d="M28.67,86.61c-.89,1.24-2.7,2.33-2.72,3.59-.02,1.26,.02,1.73-.44,2.33-.46,.6-1.14,1.52-.45,1.45,1-.1,3.01,1.56,2.89,2.73-.11,1.16-.6,4.22,2.1,4.12,2.7-.1,4.23-1.03,5.38,.4,1.15,1.43,2.67,2.1,4.42,1.86,1.76-.24,4.61-.63,3.69,.93-.92,1.55-1.51,4.86-.68,5.76,.83,.9,1.91,1.64,1.26,2.4-.65,.76-.95,1.71-.09,2.36,.86,.65,.62,1.44,.59,1.59,0,.04-.18,.15-.44,.27,1.27,1.23,1.73,2.58,2.44,3.14,.95,.74,1.24,1.12,1.9,.73,.66-.39,1.12-.67,1.69-.3,.57,.37,1.32-.39,2.15-1.16,.84-.76,1.79-.12,2.06-1.06,.27-.95,.74-1.52,1.77-1.72,.27-.25,.54-.49,.82-.74-.21,1.47-4.25-5.28-4.2-5.25-1.14-.65,1.5-.96,2.07-.41,.57,.56,2.55,.06,2.75,.91l.69,.74c.91,.14,.75-2.28,2.69-1.92,.94,.17,3-1.27,3.85-1.56,.44-.16,.6-.69,.83-1.14-.63-.84-1.64-2.14-2.09-2.5-.68-.56,.44-.91,.32-1.7-.23-1.46,4.03-1.99,1.88-3.19-.8-.44,.32-1.69,1.1-2.16,.32-.19,.75-.75,1.13-1.52-1.51-.55-3.66-.47-4.56-.41-1.18,.08,.75-1.33,.8-2.59,.05-1.25-3.36-1.42-4.69-1.68-1.33-.26-1-1.66,.4-1.75,1.39-.09-.78-1.04-2.66-.73-1.88,.3-4.51,1.38-6.03,2.24-1.52,.86-4.21-2.39-5.94-1.67-1.73,.72-4.17,.75-4.12-.64,.05-1.39-.73-2.57-2.47-2.41-.94,.09-2.02-1.96-2.67-1.71-1.09,.43,0,1.61-.88,2.03-.9,.43-4.03,1.24-4.22,2.49-.19,1.26,1.72,3.32,1.1,4.58-.61,1.26-2.72,.25-3.36-1.07-.64-1.31,1.77-3.37,1.34-4.13-.29-.52-.68-1.51-.44-2.17-.39,.12-.73,.32-.95,.62Z"/></g><path class="cls-16" d="M35.71,184.68l.45-.14,.97-.63h.85l.48,.34,.48-.06,.06-.34,.3-.29h.42c.17,.24,.34,.41,.48,.54,.15,.14,.34,.28,.71,.56,.26,.2,.5,.37,.47,.52,0,.03-.03,.1-.08,.17-.04,.05-.06,.06-.12,.12,0,0-.07,.07-.14,.16-.09,.12-.11,.26-.13,.38-.07,.6,.07,1.24-.17,1.5-.02,.02-.08,.08-.18,.2-.1,.11-.15,.16-.18,.23,0,.02-.05,.1-.06,.22-.04,.33,.11,.7,.11,.7,.17,.45,.46,.78,.65,.96l-.44-.18h-.76c-.05,.01-.09,.06-.09,.1,0,.06,.06,.12,.13,.11,.1,.08,.19,.09,.24,.09,.13,0,.2-.08,.33-.04,.04,.01,.08,.02,.11,.06,.05,.08-.04,.18-.13,.42-.09,.24-.05,.31-.14,.4-.03,.03-.08,.07-.29,.12-.12,.03-.29,.06-.51,.07l-1.87,.46c-.09-.02-.18-.04-.28-.06-.43-.08-.81-.06-1.12-.02,.03-1.33,0-2.35-.03-3.05-.02-.32-.03-.51-.05-.8-.1-1.42-.2-1.9-.26-2.15-.08-.31-.16-.55-.2-.69Z"/></g><g id="Region"><g><path d="M28.11,355.52c-.93,.46-2.79,.93-5.16,.93-5.51,0-9.66-3.48-9.66-9.89s4.15-10.27,10.21-10.27c2.44,0,3.97,.52,4.64,.87l-.61,2.06c-.96-.46-2.32-.81-3.95-.81-4.58,0-7.63,2.93-7.63,8.06,0,4.79,2.76,7.86,7.51,7.86,1.54,0,3.1-.32,4.12-.81l.52,2Z"/><path d="M33.79,336.61v8.18h9.46v-8.18h2.55v19.55h-2.55v-9.17h-9.46v9.17h-2.52v-19.55h2.52Z"/><path d="M52.7,336.61v19.55h-2.52v-19.55h2.52Z"/><path d="M57.1,336.61h2.52v17.43h8.35v2.12h-10.88v-19.55Z"/><path d="M80.91,346.99h-7.6v7.05h8.47v2.12h-10.99v-19.55h10.56v2.12h-8.03v6.18h7.6v2.09Z"/></g><g><g class="cls-18"><rect class="cls-10" x="145.58" y="2.64" width="600" height="400"/><path class="cls-19" d="M304.4,333.55l1.06,1.24-.89,1.07,2.49,1.77,.71,3.2-1.77,8.36,1.77-.36,.18,.66v2.36l1.07,1.6-.71,.18,1.06,1.6-1.77,1.42,1.6,1.6-1.07,2.31,1.24,1.6-.17,2.14-3.03,3.2,.18,3.73-1.6,1.6,.4,4.77,.14,3.05,.13,.18,.04,.53,2.49,2.84,.53,3.56,.89,.71-.53,1.96,.18,.17h0l1.6,1.6,1.78,.18-.72,.71,.22,.17-.22,.36,1.6,.72-.17,3.55,.71,.53v1.96l-1.07,.89-.53-.54-1,1.91h434.36V2.64H334.95l.37,2.08,1.96,.71-1.07,4.98,1.25,4.09-1.07,1.95,1.07,.71-.18,1.96,1.24,.17,1.07,1.6-.71,.54,2.49,1.42,1.06,5.86,1.6,1.43-.88,3.2,1.06,2.84-.89,3.2,.18,2.13,.89,.54-1.07,3.55-1.6,1.07,.71,2.31-1.77,4.09,1.06,2.66-.89,1.07,1.07,5.86-1.42,2.14-.53,4.26-2.49,1.42,1.42-.17-.53,.71,1.42,1.06-1.25,2.49,1.25-.17-.18,1.24h1.24l1.43,1.78v3.37l2.84,4.09-3.02,10.84-2.85,2.67-.35,1.78,1.42,1.42-1.24,2.13-.36,4.09-2.31,2.49,.36,4.8h-1.07l-1.42,4.09-2.67,.89-2.66,3.73,.88,2.31-.53,1.24,6.4,7.47,1.24,7.82-1.42,4.44-1.24,1.78-4.45,1.96-1.06,1.95-.71,.18-.36-2.31h-1.07l1.07-2.14-2.13,1.07,.53-1.95-2.49,3.73,.89,1.06,2.31-.35,1.42,1.24-1.77,1.6,.89,1.25,1.42,3.2,2.31,2.31,.71,1.78-1.07,2.66-1.24-.18-.89-.17,.36,1.06,.88,.36,7.29,8.17,1.25,2.67,.53,3.02,1.42,1.07-.53,3.73-.54,2.13,1.25,1.96,.71,4.8-2.31,1.78,2.13,3.2-2.13,.53-1.6,1.78-.89,9.59-1.24,3.91-1.43,3.03-1.06,1.6-2.31-.18-.89,.35,.35,.89-4.08,5.51-1.96,.36-3.73,2.84-3.38-.18-3.73,6.94,1.6,5.68-.71,3.03,1.95,.53,.54,2.49h.88l2.14,3.91,1.6,.18-.18,2.13,3.55,3.55-1.24,1.25,.36,.89,2.31,1.42-4.09,7.64,1.42,1.25-.53,2.13,1.42,.35,.18,4.98,1.6,1.24-.36,1.78-1.42,1.07,.89,4.62,1.24,.36-1.06,2.13,.88,2.13-1.24,4.44-1.78,1.78-2.49-.18,.36,4.27,1.78,.36,1.77,1.95-1.95,4.62-1.07,2.14,.89,1.6-1.24,1.59-3.02,1.07-5.69,7.11-1.07,4.62-2.84,1.25-1.25-.89-2.66,6.4Z"/><path class="cls-11" d="M329.46,220.32l.35,.89,2.85-1.06-2.31-.18-.89,.35m5.69-4.8l1.06-1.24,.18-2.67-1.24,3.91m170.45,105.41l27.2,26.84,9.42,17.24,14.93,22.93,24.53,3.73,14.57-.18,3.2,3.73,.43,7.42h39.12l-.09-.66-12.8-11.91-.35-4.27,3.02-1.6v-3.73l9.07-3.91,6.93-1.78,9.6-4.8,.88-5.33,2.67-1.06,2.84-14.22h-.04l3.96-20.09-29.87-10.31,.18-26.13-44.97-12.97-8.88-30.57-28.44,6.57-28.44-.18,.35,3.56h-3.2l-.17,16.35-15.65,45.33m91.9-95.45l27.01,.53,.89-58.83-17.95,2.31-.35,32.17-8.89,.18-.71,23.64m34.48-195.88l1.6,1.25,3.73-4.8-1.6-1.42-1.95,1.42-1.78,3.55Z"/><path class="cls-17" d="M638.2,276.14l-1.95-1.07-1.43,1.24-1.95-2.66-1.42,.35v-1.24l1.06-.36,.71,1.07,2.32-.36,2.13,.89,.71,1.07-.18,1.07m-57.23-52.79v-2.32l.18-1.95h1.42l.53-1.78h1.42l1.07-1.95v2.13l1.07-1.42,1.59,.35-.35,2.14-1.24,.53,1.59,2.67-.71,.53-1.06,1.24h1.06l-1.6,.54,2.31,.17-.17,.71,.35,1.6,.89,.18-1.07,.89,1.96-.18,.89,.89-.89,1.25-.36-1.07-1.77,1.24-1.07-.35v.89l1.07-.18-1.07,1.95,1.07-.35,.17,1.78,3.38,2.13-.89,1.6-.71-.89-2.31,1.07,.71-1.25-1.06,.18-.71-3.02-2.14-1.96v-2.84l-1.6-.18v.71l-.89-.71-.35-5.51-.71,.54m-274.44,147.35l.36,.71-.54,1.24-1.24,.18,1.42-2.13m20.8-97.41l1.77,.71,4.98-1.24,.89,2.31-5.87,.71,.18,1.78-1.6,.53-.53-.89,.18-3.91m-2.14-2.31l-.71,1.78-1.06-2.13,1.77,.35m1.07,17.06l-.71-1.06,1.24,.35-.53,.71m-5.16-50.65l.36-1.25,.89,.18v1.42l-1.25-.35m268.22-10.67l1.78-1.78,.35,1.78h-2.13m-229.47-52.08l-6.04,.89,.18-1.06-1.25-.89,4.8-3.03,2.49,.54,.18,1.06-.36,2.49m-8.88,26.66l.17-2.84,2.67-4.98h1.24l-1.06-.35,.35-1.96,1.78-.35,3.91,2.13-2.31,.36,1.96,1.24-.18,.89-2.49-1.42-.53,1.6h-1.07l4.44,1.06v-1.95l1.42,1.42-.71,2.49-1.06-.89-2.49,1.96-.89-.36-.53,1.24,3.91-.17,.89,2.13-1.07,.71,1.24,.53-1.42,.71,1.07,1.07-2.13,.36-4.98-1.96-1.07,.71-2.49-2.13,1.43-1.25m7.46-20.26l1.78,2.85,1.24,.17-1.6,1.07-1.95,4.44-3.73,1.25-2.49-1.6-.36-6.58,2.85-2.49-2.14-3.2,2.85-.35,4.62,3.73-1.07,.71m-6.04-7.11l-.18,1.42-.89-.35,1.07-1.07m-17.6,44.26l-.89,1.42-.71-.18,.53-.88,1.07-.36m6.93-22.4v2.32h-1.24l-.89-1.78,2.13-.54m-15.28-40.88l1.77-1.6,1.43-.17,.71-2.14,2.13-.71,6.04,1.78,2.67-.53-1.42,4.8h-1.42l-.18,1.42,1.24,.18,2.49,4.97-.35,4.8,1.06,.89,1.78,5.69-1.07,1.24,1.78,7.11-1.07,3.56-.35,2.13-1.25-.36-1.6,.18,.18-3.55-.71-.36,.18-2.84-2.13-3.38-.72-1.95-2.66-4.8-5.16-4.09-.88-.36,.53-.89,1.24,.18,2.85,1.78,1.95-5.87-.53,1.25-2.85-.54-4.79-6.57-.89-1.25m15.99,33.06l1.25,.54v4.8h-1.42l-.71-2.85h.71l.17-2.49m-1.6-1.24l-1.06-.89,1.24-1.24-.18,2.13m19.56,1.42l1.6,3.02-3.91-1.06,.88-2.31,1.43,.35m-1.07-11.2l-1.96-1.42h-2.84l4.62-.53-.53,.71h1.78l.53-.89,.35,1.07-1.95,1.06m3.73,2.31v-.71l-3.73,.54,.89-1.6h3.55l.54,1.77h-1.25m.18,8.71l.36,.89-2.14,.36-.89-1.78,2.67,.53m4.27,4.27l-4.45-.18,.89-.71-.89-1.42,2.67-.71,.35-1.25,1.25,1.78,.18,2.49m-9.25-13.15l.71-1.6v1.77l-.71-.17m164.42,.89l-.18-1.07,.71-2.13,2.49,3.91-3.02-.71m-5.69-6.23l1.78-.17v1.24h.71v-1.24l1.24-.18,.18,6.58,.53-.72,1.25,.72v3.02h-1.07l-.71-2.31-.18,1.95-1.06,.53,1.42,2.67-2.67,.18,.53-2.85-1.95-8.7v-.72m9.78-141.84l.88,1.6,.89-.71,.54,1.6-3.38,1.96-.71-3.38,1.78-1.07m210.98,286.35l.89-.35,1.42,1.6-.36,1.59-1.42-.17-.53-1.42v-1.25m-86.03-42.48l.36-1.24,2.84,1.77-1.07,1.6-2.13-1.24v-.89m-6.4-266.26l.53-1.42,1.43,.35-1.96,1.07Z"/><path class="cls-3" d="M317.91,315.06l3.02-1.07,1.24-1.59-.89-1.6,1.07-2.14,2.13,.18-4.44,11.91-1.6,1.42,.71,.36-2.31,6.04-.53,11.2-1.25,1.95-6.4-.17-2.13-11.2,.53-1.96,4.09-.89,2.31-5.33h-1.24l5.69-7.11Z"/><path class="cls-12" d="M651.71,275.78l-1.07,1.07,1.96,4.62-.36,.71-1.95-.18-.89,3.38h-4.09l-.71,3.2,4.98,1.77,.35,7.83-6.57,.88-.89-1.77-2.49,1.24-.36,2.31h4.45l.35,1.07-3.91,4.62-.89-.36-.71-2.84h-1.78l-.53-4.98h-4.09l.71,4.98-4.08,.36-.54,4.08-5.86,.36v2.84l-7.29-1.77v-1.43l4.62-1.95-1.42-3.56,13.33-3.91-.18-2.31,3.38-.35,.18-7.65,8.17-3.91v-2.48l3.91-1.6-.35-1.6-5.16-1.25,.36-2.13-4.98,2.84v2.49h-2.84l-.53,5.16-4.98-.54-2.67,3.2-4.44-.89-.53,1.96-7.65-1.78v2.84h2.31l.36,9.96-5.16,.35,.54,5.16h-5.16l-.18-4.98-4.79,.36-.36-5.34,2.31-.17-.18-11.56-10.31-2.48v2.66h2.67l3.02,4.27-1.6,2.49,1.07,4.79h-3.38v7.29l5.87-.35,.53,3.55,5.33-.35,.18,5.15-6.04,.18-3.2,2.49,1.95,4.62,2.31-.71,1.96,4.62-4.8,2.13,2.13,4.8-9.95,3.91,1.24,5.33-8.35,5.34-2.67-4.8-8.17,3.55-9.96-23.46-4.26,1.95-2.14-4.62,4.45-1.95-1.96-4.8,4.8-1.78-3.38-6.57-.35-6.23-6.4,1.25-1.95-4.62-4.8,1.95-1.78-4.26,4.62-2.14-1.96-4.62-5.15,1.6-4.27-11.02,9.78-1.95,2.13,4.62,9.25-3.56-6.4-1.95-.36-1.6-6.4,.18-1.95-7.47,23.64-9.24,2.13,4.62,4.62-1.96,1.07,2.14,5.33-.71,3.2,7.99,5.33-1.95-2.31-4.27,3.38-3.91,4.8,1.07-.71,5.51,4.26-.89,1.78,4.62,2.84-1.42-3.37-4.44,.71-1.07,9.42,.89,.71,2.66h2.84v-2.84h-4.62l-.71-10.49-2.31-2.48-1.6,.35-1.42,7.29h-7.11l-3.38-3.91,.36-1.07h2.31l-.36-6.4-3.73-4.09,1.07-1.42,3.2,1.42,2.66-3.91-3.02-2.48,1.42-1.96,11.73,8.35,.18,3.56,3.91,.18,1.07,9.77,3.73,1.25,.53,1.6,4.09-1.07,.71,.71-3.55,9.42,1.42,1.25,4.98-2.67,.35-4.8h-1.24l-3.02-4.98,.53-.71,10.49,1.43,.35,3.19,4.09,.54,.36-3.38,6.22,1.24,7.11-3.73,1.06,1.07-1.95,4.98,1.42,3.02h2.49l4.98,7.28-1.43,1.43-4.08-3.2-1.6,1.6v3.91l2.66,1.95-3.02,3.38m-88.87,2.84l3.37,.54,8.18-1.42v-1.43l-14.57-3.91,3.02,6.22m55.45,2.49l3.2-.53v-6.04l-7.46,.88-.36,3.74,4.62,1.95m8.18-.53h-3.73l-.54,3.73,3.38,1.07,1.6-3.2-.71-1.6m13.15-9.78l-.17,1.96h3.73l.35,1.6-.89,.53,2.49,.18,1.6-5.51-.89-5.16-5.15,.36-2.67,3.02-3.2-2.49-2.31,.71,.36,5.34,6.75-.54m-27.9-.35v-1.6l-1.07,.18-.35,1.77,1.42-.35m-30.75-47.1l2.84,.71,.71,9.42,2.14,1.95,1.77,7.47-5.15,.35-4.09-4.44,1.6-2.67-2.49-6.4-7.29-2.31-1.6,2.14-1.6-.71,1.6-6.94,7.11,4.09,3.03-5.33,1.42,.35v2.32m35.01,140.95l-4.44,2.13-4.09-9.42,4.8-1.96,3.73,9.25m-12.08-27.91l-1.25-3.55,4.27-3.38-2.13-4.62,4.79-2.14-1.95-4.44,13.51-6.22,2.13,4.8-4.62,1.95,1.95,4.63-4.79,1.77,4.26,9.42-9.42,4.27,4.98,12.09-4.45,1.6-3.2-7.29-4.44,1.95-4.09-8.88,4.45-1.96m-21.16-127.98l1.6,.36,.18,8-5.33-1.25,3.55-7.11Z"/><path class="cls-9" d="M344.39,174.29l.35-1.78,2.85,3.73,1.78,16-.18,1.78-4.98,1.42-.35-2.84,1.6-3.56-1.43-2.84,1.07-3.56-1.78-7.11,1.07-1.24m-13.69-8.18l.89-2.31,.53,1.6-1.42,.71Z"/><path class="cls-8" d="M517.51,153.67l-.18,.53-.17-1.06,.35,.53"/><path class="cls-4" d="M517.51,153.67l-.18,.53-.17-1.06,.35,.53"/><path class="cls-7" d="M708.77,98.75l.17-1.6,7.65-9.07,7.82-7.46,2.66-.71"/><path class="cls-7" d="M727.07,79.91l2.31-.54,3.03,2.49,13.17,1.91"/><path class="cls-7" d="M398.25,166.29l-2.14-1.42-3.73-1.07-1.24,1.42-2.31-3.55-1.96,.71-3.38-.71-4.26,3.02-.71,1.24-.36,.54-4.27,7.11-.71,.53-15.82,.89-4.08,1.24-2.67,.89-.53-1.95-.18,2.48-.53-2.84-.18,2.84m46.92-12.79l.18,3.37"/><path class="cls-7" d="M526.04,128.07l9.78-18.13,6.4-20.61"/><path class="cls-7" d="M576.7,175.53l6.4,33.24,1.24,1.42,.54,8.71-1.78,1.78"/><path class="cls-7" d="M365.19,7.03l.88-.89,5.69,.36,17.78-1.6,6.22-1.43,3.37,1.25,3.38,4.98,6.93,4.62,9.78-4.45,36.62,3.56,12.26-2.31,2.67,.53,3.91-2.66,1.95,.35,8-3.91,7.64-1.78,.71,.71-.71,.54,2.14,.17,.35,1.07v3.56l1.25,3.2,2.31-.36,2.13,1.96h5.15l1.6,1.06,5.16,4.27,.53,2.49,2.85,1.6,5.33,6.57,4.62,1.6,.18,1.6"/><path class="cls-7" d="M365.19,7.03l3.55,27.55,.18,8-3.02,16,.53,15.28,3.91,7.82,.71,8.53-1.95,1.96,.53,4.27,4.98,13.86,1.6,13.33,4.26,10.31-.71,2.13,2.13,.89,.71,1.42,.18,4.27-1.6,4.09,2.31,.71,.54,1.42-1.07,1.6,.53,1.6-1.06,5.51-1.6,1.95-1.6,5.16"/><path class="cls-7" d="M587.9,174.82l-.18-.89,18.66-9.95,25.6-18.66,30.22-19.02,33.77-14.76,11.73-12.62,1.07-.17,12.26,.35,4.27-1.24,7.64,1.6,5.69-.54,2.49,1.43m-155.18,74.47l1.78-.89"/><path class="cls-7" d="M340.12,154.2l-1.42-.53-1.42-.36-.36-.17-.53-.18h-6.93m6.93,0l-.53,4.62-.18,3.91-.18,.18v.35l-.18,.54-.35,.89-.53,1.77-.18,.54-.36,.88-.35,.89v.36l-.18,.35-.36,1.07m198.19,9.95l-12.27-.53m9.42-144.68l-2.48-.36m219.71,68.38l-4.46-1.72m-398.15,84.25v-.54l-.18-.17v-.36l-.71-1.24-.36-.71-.17-.18-.36-.71-.36-.71-.17-.18v-.18l-.18-.18-.36-.35-.35-.36-.54-.53-.17-.18-.18-.18-.36-.35,.71-.36h.18l.54-.35,.17-.18-.17-.71-.18-.71v-.18l-.36-1.25-.18-.88-.17-1.43-.18-.71-.36-1.06v-.71l-.17-.36v-.18l-.18-.53v-.36l-.18-.17-.36-.54-.35-.53v-.53l.35-.54,.18-.35v-1.42l.18-1.25v-1.24l.18-.89v-1.96l.18-.71v-1.95l.17-.71v-.54l.18-.18v-.35m14.58,22.57l.17,.18,.36,.53,3.02,4.09,.53,.71,.36,.54,.18,.17,.18,.36,.17,.18,.18,.35,.18,.36,.18,.35v.18l.35,.36h1.96l1.6-.54m-21.51-16.17h-.18l-.35,.18-.18,.17-.36,.36-.17,.36-.72,.53h-.17l-.54,.18-.35-.18-.54-.18-.35-.18-.53-.17-.54-.18-.89-.36-.53-.18-.53-.17h-.18l-.53-.18-.54-.71-.53-.18-.71-.18m29.33,17.78h0m0,0l-1.96,2.49-.89,1.77m.36-.18l.53-1.59m10.49-7.11l2.84-2.67,.71-3.2m-33.06,2.49l.71-.36,.72-.35,.53-.18"/><path class="cls-7" d="M338.52,177.49l.36,1.06v.18l.18,.18,.89,1.6,.35,.71,.36,.53,.17,.18v.36l.18,.17v3.74l-.35,1.6v.88l.35,.89,.18,.36,.71,3.91-.18,1.95v1.6"/><path class="cls-7" d="M604.25,376.21l34.48-6.05,13.51-3.55,16.71-9.07,57.41-38.03,3.74-1.6,3.02-.36"/><path class="cls-7" d="M536,215.35h.71l46.39,5.33,1.24,.35,.36,3.2,1.07,.18,2.31,15.82,5.33,9.95,3.2,4.8,17.06,14.93,18.84,3.2,17.78,5.87,68.43,28.79,14.4,9.78,2.66,1.96,4.09-.72,1.25-2.13,4.46-2.33"/><path class="cls-7" d="M531.2,179.26l22.04,.89,23.46-4.62,9.24-.71h1.96l49.23,.71,3.56,1.6h6.58l2.48-1.42,29.69,.53,29.86,6.76,2.49-2.67,3.91-1.78,10.13,2.85,8.18,.35,11.57,2.66"/><path class="cls-7" d="M341.72,195.79l.36-.71,.18-.71v-5.51l.17-.53v-.53l.18-.89v-.36l.18-.53,.18-1.42,.35-1.07,.36-1.6v-.35l-.18-1.07-.18-.71v-.18l-.17-.89-.18-1.07-.18-1.06v-.36l-.71-.53v-1.42l-.36-1.07v-4.44l-.53-.89,.18-.36,.18-1.06,.17-1.25v-.35l.54-.71-.71-.36v-.18l-.18-.17v-.18l-.36-.89v-.18l-.18-.35v-.18l-.88-1.78-.18-.18v-1.06m-1.6,18.13l-1.07-1.96-.71-1.24-.71-1.25-.18-.35-1.42-1.6-1.07-1.07-.89-.89-.17-.18-.18-.17v-1.25l.53-1.06,.18-.36v-1.78l-.18-.35-.35-.54-.54-.88-.17-.36-.18-.18-.36-.53-.17-.18-.36-.35-.53-.72-.18-.17-.18-.18-.35-.18v-.18l-.18-.17v-.18l-.18-.18-.18-.35-.35-.18-.18-.71-.18-.18-.18-.18-.17-.71v-.18l.17-.53,.18-.36v-.17l.18-.18,.18-.36,.17-.35,.18-.36,.18-.18h.18l.35-.17,.36-.18,.18-.71,.17-.36v-.53l.36-.36h1.07l.35-.35,.18-.18,.35-.18h.54l.89,.54,.71,.35,.89,.18h1.06l1.07,.53h.89l.71,.18h.53l.18-.18h.18l.18-.18h.35l.89-.17-.18,1.95-.18,.18-.35,.18-.18,.17-.18,.18-.17,1.07-.18,1.42v1.25l-1.42-.54-2.49,.18-7.82,.18m26.13,33.41l1.59-.17v.88l-.17,.36-.18,.53-.36,1.25-.35,.89-.18,.35-.18,.71-.17,.36v.18l-.36,.71-.36,1.24-.17,.53-.36,1.07-.18,.36-.17,.53-.18,.35-.18,.36-.53,1.96-1.43-.36-.88-.71v-.53l.35-.72,.18-.17v-1.96l.18-.18v-.53l.17-.35v-.36l.18-.71v-.18l.36-.35v-.18l.35-.71,.18-.18v-.18l.18-.18,.18-.17v-.18l.17-.18-.17-.89-.18-.89-.53-.89-.72-1.42-.53-.71v-.18l-.18-.17v-.18l-.17-.18v-.36l-.18-.17-.18-1.07-.18-.35v-.18l.18-.36v-4.44l-.18-.18-.17-.35v-1.25l-.18-.35-.18-.89-.18-.18v-1.25l-.18-.53-.17-.18,.17-.53-.17-.35-.36-.18-.35-.71-.18-.18-1.07-1.42-.71-.71-.36-.36-.17-.18-.18-.35-.53-.71-.18-.18-.18-.36v-.18l-.35-1.95v-.18l-.18-.71v-1.42l-.18-.18v-.18l-.36-1.06-.17-.54v-.17m-.54,33.23l3.2,.89-.53,1.43,2.84-1.96,2.14-4.27-1.78-15.82m2.66,25.6l1.43,.18,.53-1.78m-10.66-37.86v.18l.17,.53v.36m-3.37-7.47l-.18,.71-2.31-.53-8.36-.89m4.62-6.4l-.88,.71"/><path class="cls-6" d="M609.44,402.64l-3.23-9.19-2.67-7.65-.89-1.77-3.55-3.03-1.96-.17-84.6-70.92-7.65-5.51-8.53-8.54-4.8-.88-2.66,.88-2.85-.88-3.91-5.34-1.95-16.53-3.38-2.66-3.02-.54-4.45-3.73-2.48-.53-.89-.53-.18-2.67,4.26-1.25,3.56-4.79,4.62,.17,2.84-2.84,4.98,.18,.53-1.07-3.19-3.38-4.63-2.84-3.02,.18-3.55-1.6h-2.85l-5.86,2.84-1.96-.71-1.6-2.67-2.84-.35-4.09-3.2-2.49,.18-10.31-7.82-5.68,2.66-3.74,.18-7.28-1.78-2.32,2.85-4.26-1.78-.89-.89-1.95-9.78-3.74-2.31-6.4,.54-3.91-1.42-1.24-2.32v-5.86l-1.42-3.73-4.27-.36-3.91,4.27-9.95,3.2-.89,.53v1.95l-2.85,1.43-4.44-.89-1.42-1.07-.53-2.13-2.67-.53-1.42,1.06-2.14,4.8-4.97-.71-6.76-3.91-3.2-3.56-1.24-4.62,.18-5.15,2.49-3.02,1.06-4.27,1.25-3.2-.18-.89-.53-.89-.72-1.42-1.95-15.11-3.38-3.2-1.77-9.06-2.32-4.98,.36-3.02,2.13-2.67,.18-1.95-4.62-7.11v-.18l-.18-.71-.18-.35-.35-1.07-.18-.18-.18-.18-.18-.17-.17-.18m1.42,3.02l2.31,7.11-1.78,1.42-3.55-.53h-.71l-.89-.18-.71-.35-.89-.54h-.54l-.35,.18-.18,.18-.35,.35h-1.07l-.36,.36v.53l-.17,.36-.18,.71m132.06,94.38l1.6-1.07,3.2-13.68v-6.93l-1.24-2.49,1.6-4.09,8.17-6.4,9.42-3.55,.54-6.05,3.2-6.57,2.13-.89,8.71-.36,7.82-8.17,7.11-2.32,3.91-2.84v-3.73l-5.15-17.42,.17-3.91,1.25-2.67m95.51,248.44l-3.26-9.19-2.67-7.65-.89-1.77-3.55-3.03-1.07,.36-38.57-31.99"/><path class="cls-15" d="M585.66,142.23c-12.78,0-23.1,10.16-23.1,22.79v.31c0,3.39,.77,6.78,2.31,10.01,.15,0,20.79,40.81,20.79,40.81l20.64-40.35c1.54-3.23,2.31-6.78,2.16-10.47,.15-12.63-10.01-23.1-22.79-23.1h0m0,36.81c-7.7,0-13.86-6.16-13.86-13.71h0c0-7.7,6.31-13.86,13.86-13.86s13.71,6.31,13.71,13.86-6.01,13.71-13.71,13.71h0"/><path class="cls-7" d="M317.73,338.35l-1.42,3.55v.71l-.36,8-3.38,14.93,1.96,20.26-.08,16.84m1.5-53.27l-3.55,17.06,2.13,19.37-.06,16.84"/><path class="cls-7" d="M518.4,169.13l12.8,10.13"/><path class="cls-7" d="M531.2,179.26l-.36,7.47-6.4,3.91-1.06,.18"/><path class="cls-7" d="M634.59,2.64l-30.69,12.39-75.55,19.02"/><path class="cls-7" d="M602.52,402.64l3.69-9.19,1.42-3.91,.35-.54,.18-3.2-3.73-8.88-.18-.71-.53-.89-67.37-159.26-.35-.71-.89-1.6-.18-.36v-.18l-10.84-21.33-.71-1.06-.54-1.42-3.55-6.76-.36-3.91-.53-9.6-.18-1.42-.89-12.62v-.89l-.17-1.06v-.89l-.18-3.91,4.44-9.78,3.91-8.18,.71-2.31,2.31-11.55-1.42-6.75,.36-2.31,5.86-9.25,8.18-7.11,.89-1.77,2.67-11.38-1.96-11.55-3.91-12.45-10.67-19.9-1.24-2.49-4.83-28.92m80.24,400l3.69-9.19,1.42-3.91,.35-.54,.18-3.2-3.73-8.88-.18-.71-.53-.89-11.02-25.95"/><path class="cls-7" d="M341.72,197.39v2.14l-.17,.18-.18,.17-.71,.71-.54,.36-.89,.71-.17,.18-.18,.18v.35l-.18,.36v.71l-.18,.35v.18l-.17,.36v.17l-.18,.18v.54l-.18,1.77v4.09l-.18,.53,.18,2.31-.18,.36v.18l-.18,.18-.17,.17-.18,.18-.36,.18-.35,.18-.71,.35-.18,.18-.18,.18-.18,.18-.17,.17v1.07l.17,.89,.18,.18v.88l-.18,.36v.18l-.17,.35-.18,.36v.18l-.18,.53v.18l-.18,.18v.17l-.17,.18-.18,.18-.18,.35-.18,.18h-.18l-.17,.18-.18,.18h-.18l-.18,.18-1.24,.35-.36,.18-.35,.18-.36,.17-.17,.18-.54,.36-.18,.17-.53,.18-.53,.36-.36,.18-1.24,.71-.18,.17-.18,.18h-.18l-.17,.18-.18,.18-.53,.71-.36,.53-.53,.71-.89,1.25-1.6,2.31-.53,1.42-.72,2.84v.18l-.71,2.13-.53,1.78v.36l-.18,.35v.89l.18,.53v.36l.18,.53,.35,2.31,1.25,3.38,1.95,3.56,.18,.35,.18,.36,.18,.35,1.42,3.56,.53,1.42,.71,1.78,.18,.35v.18l.18,.53v.54l.18,1.42-.18,7.11-.18,2.13-.18,2.49-.18,2.67v2.48l.18,2.32,.18,1.24v1.95l-.36,5.34-.17,3.02-.18,2.31v.53l-.36,2.85v2.13l-.17,.53v.36l-.18,.71-.71,3.2-.36,1.95-.18,1.07-.17,.89-.18,.35v.18l-.18,.36-1.95,4.8-2.14,4.97-.53,1.07-.71,1.96v.17l-.18,.18v.71l-.18,3.02-.35,7.47,.18,1.06-.18,.72m8.88-57.42l-.17-.71,.17-1.77,.54-2.85-.18-2.31"/><path class="cls-7" d="M517.51,153.67h-.89l-.71,.18h-.71l-1.95,.17h-.36l-.89,.18-2.66,.71-4.45,1.43-1.06,.35-.54,.18h-.35l-.54,.18h-.71l-.35-.18h-.36l-.18-.18h-.17l-.18-.18h-.18l-.18-.17h-.17l-.18-.18-.18-.18-.18-.18-.18-.35-.17-.18v-.18l-.54-.71v-.18l-.17-.18-.18-.17-.18-.18-.18-.36h-.17l-.18-.17-.18-.18h-.18l-.18-.18h-.17l-.18-.18h-.36l-.53-.18h-1.07l-2.48,.18h-4.45l-3.02-.71h-.36l-6.04-.18h-.18l-.71,.18h-.18l-1.06,.36-2.31,.71-4.09,1.6-.18,.18h-1.06l-3.38-.54h-1.07l-5.33,1.25-.53,.17-.89,.18-.71,.18h-1.6l-1.43-.36-.88-.17-3.56-.18-.53,.18h-.36l-.18,.17h-.17l-.36,.18-.18,.18-1.6,.89-.17,.18h-.18l-.18,.17-.18,.18-.18,.18-.17,.36-1.42,1.59-.54,.54-.18,.18-.17,.17-.18,.18-.36,.18-.17,.18h-.36l-5.15,1.77-4.45,1.6h-.18l-.35,.18h-.18l-.18,.18-.53,.18-2.13,.71-2.31,.71-6.58,2.31h-.18l-4.26,.36-4.8-.54h-.36l-2.13,.89h-.18l-.53,.18h-.71l-.54-.18h-.35l-.18-.18h-.18l-.18-.17h-.17l-.18-.18-.36-.36-.17-.18-.89-.71h-.18l-.18-.17-.18-.18h-.17l-.18-.18h-.18l-.35-.18h-.18l-.71-.18-1.25-.17-1.06-.18-.18,.18-.36,.17-.18,.18h-.17l-.18,.18-.36,.18-.88,1.95-1.25,2.67-1.24,2.31-.36,.53-.71,1.6-.18,.36-.18,.18v.35l-.17,.53v1.07l-.18,.18v.18l-.18,.17v.18l-.18,.18-.17,.18-.36,.35-.18,.18-.17,.18-.18,.18v.17l-.18,.18v.18l-.36,1.42-.17,.36v.17l-.18,.18-.18,.36-.18,.35v.18l-.17,.18v1.78l-.18,.17v.36l-.18,.18-.18,.18-.35,.53-.54,.53-.17,.18-.18,.18-.18,.17h-.36l-.17,.18h-.71l-.18-.18-.36-.17-.35-.18-1.6-1.07h-.18l-.18-.17-.18-.18-.17-.36-.18-.18-.53-1.24-.54-1.07-.18-.35-.35-.71-.18-.18v-.18l-.18-.18-.17-.17-.18-.18-.36-.18h-.18l-.53-.18-1.78-.35-3.37-.71-2.14-.36-1.95-.35-1.07,.53-.53,.53-.71,.71-1.07,1.07-1.06,.35-1.6,.54-.89,.35-1.6,.54h0l1.06-.54,3.03-.89m-25.42-24.52l.35,.88,.18,.18,.18,.36,.89,1.6,.89,1.6,1.24,3.91v.35l.18,.36v.71l.18,1.6v.35l.17,.18,.89,1.42,2.31,2.49,1.07,.71,1.6,6.58-.18,5.16,3.02,6.93h.89l-.35-1.07-.18-.35v-.72l.18-.17,.89-.54,1.59-.17,1.6-.54,.36-.35,.18-.36,1.24-2.66,1.96-2.49m35.72-17.42l-.53,1.06-.35,.89m-41.77,22.04h-1.6l-.18-.17-.36-.18-1.78-3.38-1.06-9.78-.36-2.31-1.6-.71m31.64,7.11l-5.15-1.06m-16.36,9.77l-1.06,.18-.54,.36"/><path id="Circle" d="M535.64,114.71h0c-1.29,0-2.28-.99-2.28-2.28h0c0-1.29,.99-2.28,2.28-2.28h0c1.29,0,2.28,.99,2.28,2.28h0c0,1.29-.99,2.28-2.28,2.28Z"/><path d="M535.64,114.93c-1.42,0-2.5-1.08-2.5-2.5s1.08-2.5,2.5-2.5,2.5,1.08,2.5,2.5-1.08,2.5-2.5,2.5Zm0-4.57c-1.16,0-2.07,.91-2.07,2.07s.91,2.07,2.07,2.07,2.07-.91,2.07-2.07-.91-2.07-2.07-2.07Z"/><path id="Circle-2" d="M585.94,224.03h0c-1.29,0-2.28-.99-2.28-2.28h0c0-1.29,.99-2.28,2.28-2.28h0c1.29,0,2.28,.99,2.28,2.28h0c0,1.29-.99,2.28-2.28,2.28Z"/><path d="M585.94,224.25c-1.42,0-2.5-1.08-2.5-2.5s1.08-2.5,2.5-2.5,2.5,1.08,2.5,2.5-1.08,2.5-2.5,2.5Zm0-4.57c-1.16,0-2.07,.91-2.07,2.07s.91,2.07,2.07,2.07,2.07-.91,2.07-2.07-.91-2.07-2.07-2.07Z"/><g><path d="M336.85,151.38v12.14h-1.57v-12.14h1.57Z"/><path d="M345.48,162.17h-.04c-.47,.86-1.44,1.55-2.84,1.55-2.03,0-3.69-1.76-3.69-4.41,0-3.26,2.11-4.7,3.94-4.7,1.35,0,2.25,.67,2.68,1.51h.04l.05-1.31h1.49c-.04,.74-.05,1.5-.05,2.39v9.89h-1.58v-4.92Zm0-3.83c0-.22-.02-.47-.07-.67-.23-.97-1.08-1.8-2.27-1.8-1.64,0-2.63,1.39-2.63,3.35,0,1.73,.83,3.24,2.57,3.24,1.03,0,1.91-.63,2.27-1.73,.07-.22,.13-.52,.13-.76v-1.64Z"/><path d="M356.96,161.14c0,.9,.02,1.69,.07,2.38h-1.4l-.09-1.42h-.04c-.41,.7-1.33,1.62-2.88,1.62-1.37,0-3.01-.76-3.01-3.82v-5.1h1.58v4.83c0,1.66,.5,2.77,1.94,2.77,1.06,0,1.8-.74,2.09-1.44,.09-.23,.14-.52,.14-.81v-5.35h1.58v6.34Z"/><path d="M361.35,152.35c.02,.54-.38,.97-1.01,.97-.56,0-.95-.43-.95-.97s.41-.99,.99-.99,.97,.43,.97,.99Zm-1.76,11.16v-8.71h1.58v8.71h-1.58Z"/><path d="M369.74,162.17h-.04c-.47,.86-1.44,1.55-2.84,1.55-2.03,0-3.69-1.76-3.69-4.41,0-3.26,2.11-4.7,3.94-4.7,1.35,0,2.25,.67,2.68,1.51h.04l.05-1.31h1.49c-.04,.74-.05,1.5-.05,2.39v9.89h-1.58v-4.92Zm0-3.83c0-.22-.02-.47-.07-.67-.23-.97-1.08-1.8-2.27-1.8-1.64,0-2.63,1.39-2.63,3.35,0,1.73,.83,3.24,2.57,3.24,1.03,0,1.91-.63,2.27-1.73,.07-.22,.13-.52,.13-.76v-1.64Z"/><path d="M381.22,161.14c0,.9,.02,1.69,.07,2.38h-1.4l-.09-1.42h-.04c-.41,.7-1.33,1.62-2.88,1.62-1.37,0-3.01-.76-3.01-3.82v-5.1h1.58v4.83c0,1.66,.5,2.77,1.94,2.77,1.06,0,1.8-.74,2.09-1.44,.09-.23,.14-.52,.14-.81v-5.35h1.58v6.34Z"/><path d="M384.73,159.45c.04,2.14,1.4,3.03,2.99,3.03,1.13,0,1.82-.2,2.41-.45l.27,1.13c-.56,.25-1.51,.54-2.9,.54-2.68,0-4.29-1.76-4.29-4.39s1.55-4.7,4.09-4.7c2.84,0,3.6,2.5,3.6,4.11,0,.32-.04,.58-.05,.74h-6.12Zm4.65-1.13c.02-1.01-.41-2.58-2.2-2.58-1.6,0-2.3,1.48-2.43,2.58h4.63Z"/></g><g><path d="M360.14,192.17l-.95,2.86h-1.21l3.09-9.1h1.42l3.11,9.1h-1.26l-.97-2.86h-3.23Zm2.98-.92l-.89-2.62c-.2-.59-.34-1.13-.47-1.66h-.03c-.13,.54-.28,1.09-.46,1.65l-.89,2.63h2.74Z"/><path d="M366.85,185.44h1.19v9.59h-1.19v-9.59Z"/><path d="M371.47,186.62v1.88h1.7v.9h-1.7v3.52c0,.81,.23,1.27,.89,1.27,.31,0,.54-.04,.69-.08l.05,.89c-.23,.09-.59,.16-1.05,.16-.55,0-1-.18-1.28-.5-.34-.35-.46-.93-.46-1.7v-3.57h-1.01v-.9h1.01v-1.57l1.16-.31Z"/><path d="M380.34,191.71c0,2.42-1.67,3.47-3.25,3.47-1.77,0-3.13-1.3-3.13-3.36,0-2.19,1.43-3.47,3.24-3.47s3.15,1.36,3.15,3.36Zm-5.19,.07c0,1.43,.82,2.51,1.99,2.51s1.99-1.07,1.99-2.54c0-1.11-.55-2.51-1.96-2.51s-2.01,1.3-2.01,2.54Z"/><path d="M346.94,202.13v3.81h4.4v-3.81h1.19v9.1h-1.19v-4.27h-4.4v4.27h-1.17v-9.1h1.17Z"/><path d="M360.44,207.91c0,2.42-1.67,3.47-3.25,3.47-1.77,0-3.13-1.3-3.13-3.36,0-2.19,1.43-3.47,3.24-3.47s3.15,1.36,3.15,3.36Zm-5.19,.07c0,1.43,.82,2.51,1.99,2.51s1.99-1.07,1.99-2.54c0-1.11-.55-2.51-1.96-2.51s-2.01,1.3-2.01,2.54Z"/><path d="M361.78,210.02c.35,.23,.97,.47,1.57,.47,.86,0,1.27-.43,1.27-.97,0-.57-.34-.88-1.21-1.2-1.17-.42-1.73-1.07-1.73-1.85,0-1.05,.85-1.92,2.25-1.92,.66,0,1.24,.19,1.61,.41l-.3,.86c-.26-.16-.73-.38-1.34-.38-.7,0-1.09,.41-1.09,.89,0,.54,.39,.78,1.24,1.11,1.13,.43,1.71,1,1.71,1.97,0,1.15-.89,1.96-2.44,1.96-.72,0-1.38-.18-1.84-.45l.3-.9Z"/><path d="M367.28,206.83c0-.84-.03-1.51-.05-2.13h1.07l.05,1.12h.03c.49-.8,1.26-1.27,2.32-1.27,1.58,0,2.77,1.34,2.77,3.32,0,2.35-1.43,3.51-2.97,3.51-.86,0-1.62-.38-2.01-1.03h-.03v3.55h-1.18v-7.08Zm1.18,1.74c0,.18,.03,.34,.05,.49,.22,.82,.93,1.39,1.78,1.39,1.26,0,1.99-1.03,1.99-2.53,0-1.31-.69-2.43-1.94-2.43-.81,0-1.57,.58-1.8,1.47-.04,.15-.08,.32-.08,.49v1.12Z"/><path d="M376.29,202.86c.01,.41-.28,.73-.76,.73-.42,0-.72-.32-.72-.73s.31-.74,.74-.74,.73,.32,.73,.74Zm-1.32,8.37v-6.54h1.19v6.54h-1.19Z"/><path d="M382.78,210.99c-.31,.16-1,.38-1.88,.38-1.97,0-3.25-1.34-3.25-3.34s1.38-3.47,3.51-3.47c.7,0,1.32,.18,1.65,.34l-.27,.92c-.28-.16-.73-.31-1.38-.31-1.5,0-2.31,1.11-2.31,2.47,0,1.51,.97,2.44,2.27,2.44,.68,0,1.12-.18,1.46-.32l.2,.89Z"/><path d="M385.5,202.86c.01,.41-.28,.73-.76,.73-.42,0-.72-.32-.72-.73s.31-.74,.74-.74,.73,.32,.73,.74Zm-1.32,8.37v-6.54h1.19v6.54h-1.19Z"/><path d="M393.25,207.91c0,2.42-1.67,3.47-3.25,3.47-1.77,0-3.13-1.3-3.13-3.36,0-2.19,1.43-3.47,3.24-3.47s3.15,1.36,3.15,3.36Zm-5.19,.07c0,1.43,.82,2.51,1.99,2.51s1.99-1.07,1.99-2.54c0-1.11-.55-2.51-1.96-2.51s-2.01,1.3-2.01,2.54Z"/></g><g><path d="M502.18,181.01c.76-.13,1.75-.23,3.01-.23,1.55,0,2.68,.36,3.4,1.01,.67,.58,1.06,1.46,1.06,2.54s-.32,1.96-.94,2.59c-.83,.88-2.18,1.33-3.71,1.33-.47,0-.9-.02-1.26-.11v4.86h-1.57v-11.99Zm1.57,5.85c.34,.09,.77,.13,1.3,.13,1.89,0,3.04-.92,3.04-2.59s-1.13-2.38-2.86-2.38c-.68,0-1.21,.05-1.48,.13v4.72Z"/><path d="M519.14,188.57c0,3.22-2.23,4.63-4.34,4.63-2.36,0-4.18-1.73-4.18-4.48,0-2.92,1.91-4.63,4.32-4.63s4.2,1.82,4.2,4.48Zm-6.91,.09c0,1.91,1.1,3.35,2.65,3.35s2.65-1.42,2.65-3.39c0-1.48-.74-3.35-2.61-3.35s-2.68,1.73-2.68,3.38Z"/><path d="M520.02,192.08l3.94-5.13c.38-.47,.74-.88,1.13-1.35v-.04h-4.72v-1.28h6.64l-.02,.99-3.89,5.06c-.36,.49-.72,.92-1.12,1.37v.04h5.1v1.26h-7.08v-.92Z"/><path d="M536.48,188.57c0,3.22-2.23,4.63-4.34,4.63-2.36,0-4.18-1.73-4.18-4.48,0-2.92,1.91-4.63,4.32-4.63s4.2,1.82,4.2,4.48Zm-6.91,.09c0,1.91,1.1,3.35,2.65,3.35s2.65-1.42,2.65-3.39c0-1.48-.74-3.35-2.61-3.35s-2.68,1.73-2.68,3.38Z"/><path d="M491.78,210.78l-1.26,3.82h-1.62l4.12-12.14h1.89l4.14,12.14h-1.67l-1.3-3.82h-4.3Zm3.98-1.22l-1.19-3.49c-.27-.79-.45-1.51-.63-2.21h-.04c-.18,.72-.38,1.46-.61,2.2l-1.19,3.51h3.66Z"/><path d="M500.73,201.81h1.58v12.78h-1.58v-12.78Z"/><path d="M504.97,208.24c0-.9-.02-1.64-.07-2.36h1.39l.07,1.4h.05c.49-.83,1.3-1.6,2.74-1.6,1.19,0,2.09,.72,2.47,1.75h.04c.27-.49,.61-.86,.97-1.13,.52-.4,1.1-.61,1.93-.61,1.15,0,2.86,.76,2.86,3.78v5.13h-1.55v-4.93c0-1.67-.61-2.68-1.89-2.68-.9,0-1.6,.67-1.87,1.44-.07,.22-.13,.5-.13,.79v5.38h-1.55v-5.22c0-1.39-.61-2.39-1.82-2.39-.99,0-1.71,.79-1.96,1.58-.09,.23-.13,.5-.13,.77v5.26h-1.55v-6.36Z"/><path d="M527.87,210.17c0,3.22-2.23,4.63-4.34,4.63-2.36,0-4.18-1.73-4.18-4.48,0-2.92,1.91-4.63,4.32-4.63s4.2,1.82,4.2,4.48Zm-6.91,.09c0,1.91,1.1,3.35,2.65,3.35s2.65-1.42,2.65-3.39c0-1.48-.74-3.35-2.61-3.35s-2.68,1.73-2.68,3.38Z"/><path d="M529.87,208.24c0-.9-.02-1.64-.07-2.36h1.4l.09,1.44h.04c.43-.83,1.44-1.64,2.88-1.64,1.21,0,3.08,.72,3.08,3.71v5.2h-1.58v-5.02c0-1.4-.52-2.57-2.02-2.57-1.04,0-1.85,.74-2.12,1.62-.07,.2-.11,.47-.11,.74v5.24h-1.58v-6.36Z"/><path d="M541.69,203.38v2.5h2.27v1.21h-2.27v4.7c0,1.08,.31,1.69,1.19,1.69,.41,0,.72-.05,.92-.11l.07,1.19c-.31,.13-.79,.22-1.4,.22-.74,0-1.33-.23-1.71-.67-.45-.47-.61-1.24-.61-2.27v-4.75h-1.35v-1.21h1.35v-2.09l1.55-.41Z"/><path d="M546.52,210.53c.04,2.14,1.4,3.02,2.99,3.02,1.13,0,1.82-.2,2.41-.45l.27,1.13c-.56,.25-1.51,.54-2.9,.54-2.68,0-4.29-1.76-4.29-4.39s1.55-4.7,4.09-4.7c2.84,0,3.6,2.5,3.6,4.1,0,.32-.04,.58-.05,.74h-6.12Zm4.65-1.13c.02-1.01-.41-2.57-2.2-2.57-1.6,0-2.3,1.48-2.43,2.57h4.63Z"/></g><g><path d="M502.93,92.84c.53-.11,1.37-.2,2.23-.2,1.22,0,2,.21,2.59,.69,.49,.36,.79,.92,.79,1.67,0,.91-.6,1.71-1.6,2.07v.03c.9,.22,1.95,.97,1.95,2.37,0,.81-.32,1.43-.8,1.89-.66,.6-1.72,.88-3.26,.88-.84,0-1.49-.06-1.89-.11v-9.29Zm1.22,3.87h1.11c1.29,0,2.04-.67,2.04-1.58,0-1.11-.84-1.54-2.07-1.54-.56,0-.88,.04-1.08,.08v3.04Zm0,4.52c.24,.04,.59,.06,1.02,.06,1.26,0,2.42-.46,2.42-1.83,0-1.29-1.11-1.82-2.44-1.82h-1.01v3.6Z"/><path d="M514.23,102.16l-.1-.85h-.04c-.38,.53-1.11,1.01-2.07,1.01-1.37,0-2.07-.97-2.07-1.95,0-1.64,1.46-2.54,4.08-2.52v-.14c0-.56-.15-1.57-1.54-1.57-.63,0-1.29,.2-1.76,.5l-.28-.81c.56-.36,1.37-.6,2.23-.6,2.07,0,2.58,1.41,2.58,2.77v2.54c0,.59,.03,1.16,.11,1.62h-1.12Zm-.18-3.46c-1.34-.03-2.87,.21-2.87,1.53,0,.8,.53,1.18,1.16,1.18,.88,0,1.44-.56,1.64-1.13,.04-.13,.07-.27,.07-.39v-1.18Z"/><path d="M521.85,101.11h-.03c-.36,.67-1.12,1.21-2.21,1.21-1.58,0-2.87-1.37-2.87-3.43,0-2.54,1.64-3.66,3.07-3.66,1.05,0,1.75,.52,2.09,1.18h.03l.04-1.02h1.16c-.03,.57-.04,1.16-.04,1.86v7.69h-1.23v-3.82Zm0-2.98c0-.17-.01-.36-.06-.52-.18-.76-.84-1.4-1.76-1.4-1.27,0-2.04,1.08-2.04,2.61,0,1.34,.64,2.52,2,2.52,.8,0,1.48-.49,1.76-1.34,.06-.17,.1-.41,.1-.59v-1.27Z"/><path d="M530.78,100.31c0,.7,.01,1.32,.06,1.85h-1.09l-.07-1.11h-.03c-.32,.55-1.04,1.26-2.24,1.26-1.06,0-2.34-.59-2.34-2.97v-3.96h1.23v3.75c0,1.29,.39,2.16,1.51,2.16,.83,0,1.4-.57,1.62-1.12,.07-.18,.11-.41,.11-.63v-4.16h1.23v4.93Z"/><path d="M533.51,98.99c.03,1.67,1.09,2.35,2.33,2.35,.88,0,1.42-.15,1.88-.35l.21,.88c-.43,.2-1.18,.42-2.25,.42-2.09,0-3.33-1.37-3.33-3.42s1.21-3.66,3.18-3.66c2.21,0,2.8,1.95,2.8,3.19,0,.25-.03,.45-.04,.57h-4.76Zm3.61-.88c.01-.78-.32-2-1.71-2-1.25,0-1.79,1.15-1.89,2h3.6Z"/><path d="M545.69,92.21v8.19c0,.6,.01,1.29,.06,1.75h-1.11l-.06-1.18h-.03c-.38,.76-1.21,1.33-2.31,1.33-1.64,0-2.9-1.39-2.9-3.45-.01-2.25,1.39-3.64,3.04-3.64,1.04,0,1.74,.49,2.04,1.04h.03v-4.05h1.23Zm-1.23,5.93c0-.15-.01-.36-.06-.52-.18-.78-.85-1.43-1.78-1.43-1.28,0-2.03,1.12-2.03,2.62,0,1.37,.67,2.51,2,2.51,.83,0,1.58-.55,1.81-1.47,.04-.17,.06-.34,.06-.53v-1.18Z"/><path d="M551.48,102.16l-.1-.85h-.04c-.38,.53-1.11,1.01-2.07,1.01-1.37,0-2.07-.97-2.07-1.95,0-1.64,1.46-2.54,4.08-2.52v-.14c0-.56-.15-1.57-1.54-1.57-.63,0-1.29,.2-1.76,.5l-.28-.81c.56-.36,1.37-.6,2.23-.6,2.07,0,2.58,1.41,2.58,2.77v2.54c0,.59,.03,1.16,.11,1.62h-1.12Zm-.18-3.46c-1.34-.03-2.87,.21-2.87,1.53,0,.8,.53,1.18,1.16,1.18,.88,0,1.44-.56,1.64-1.13,.04-.13,.07-.27,.07-.39v-1.18Z"/><path d="M554.48,97.21c0-.7-.01-1.27-.06-1.83h1.09l.07,1.12h.03c.34-.64,1.12-1.27,2.24-1.27,.94,0,2.4,.56,2.4,2.89v4.05h-1.23v-3.91c0-1.09-.41-2-1.57-2-.81,0-1.44,.57-1.65,1.26-.06,.15-.08,.36-.08,.57v4.08h-1.23v-4.94Z"/><path d="M568.38,98.71c0,2.51-1.74,3.6-3.38,3.6-1.83,0-3.25-1.34-3.25-3.49,0-2.27,1.49-3.6,3.36-3.6s3.26,1.41,3.26,3.49Zm-5.38,.07c0,1.48,.85,2.61,2.06,2.61s2.06-1.11,2.06-2.63c0-1.15-.57-2.61-2.03-2.61s-2.09,1.34-2.09,2.63Z"/></g><g><path d="M543.4,230.07h2.09v14.43h6.91v1.75h-9v-16.18Z"/><path d="M561.09,246.25l-.17-1.46h-.07c-.65,.91-1.9,1.73-3.55,1.73-2.35,0-3.55-1.66-3.55-3.34,0-2.81,2.5-4.34,6.98-4.32v-.24c0-.96-.26-2.69-2.64-2.69-1.08,0-2.21,.34-3.02,.86l-.48-1.39c.96-.62,2.35-1.03,3.82-1.03,3.55,0,4.42,2.42,4.42,4.75v4.34c0,1.01,.05,1.99,.19,2.78h-1.92Zm-.31-5.93c-2.3-.05-4.92,.36-4.92,2.62,0,1.37,.91,2.02,1.99,2.02,1.51,0,2.47-.96,2.81-1.94,.07-.22,.12-.46,.12-.67v-2.02Z"/><path d="M573.47,231.85h-4.92v-1.78h11.98v1.78h-4.94v14.4h-2.11v-14.4Z"/><path d="M584.32,231.37c.02,.72-.5,1.3-1.34,1.3-.74,0-1.27-.58-1.27-1.3s.55-1.32,1.32-1.32,1.3,.58,1.3,1.32Zm-2.35,14.88v-11.62h2.11v11.62h-2.11Z"/><path d="M587.59,238.26c0-1.37-.02-2.54-.1-3.62h1.85l.07,2.28h.1c.53-1.56,1.8-2.54,3.22-2.54,.24,0,.41,.02,.6,.07v1.99c-.22-.05-.43-.07-.72-.07-1.49,0-2.54,1.13-2.83,2.71-.05,.29-.1,.62-.1,.98v6.19h-2.09v-7.99Z"/><path d="M601.75,246.25l-.17-1.46h-.07c-.65,.91-1.9,1.73-3.55,1.73-2.35,0-3.55-1.66-3.55-3.34,0-2.81,2.5-4.34,6.98-4.32v-.24c0-.96-.26-2.69-2.64-2.69-1.08,0-2.21,.34-3.02,.86l-.48-1.39c.96-.62,2.35-1.03,3.82-1.03,3.55,0,4.42,2.42,4.42,4.75v4.34c0,1.01,.05,1.99,.19,2.78h-1.92Zm-.31-5.93c-2.3-.05-4.92,.36-4.92,2.62,0,1.37,.91,2.02,1.99,2.02,1.51,0,2.47-.96,2.81-1.94,.07-.22,.12-.46,.12-.67v-2.02Z"/><path d="M606.88,237.78c0-1.2-.02-2.18-.1-3.14h1.87l.12,1.92h.05c.58-1.1,1.92-2.18,3.84-2.18,1.61,0,4.1,.96,4.1,4.94v6.94h-2.11v-6.7c0-1.87-.7-3.43-2.69-3.43-1.39,0-2.47,.98-2.83,2.16-.1,.26-.14,.62-.14,.98v6.98h-2.11v-8.47Z"/><path d="M626.63,246.25l-.17-1.46h-.07c-.65,.91-1.9,1.73-3.55,1.73-2.35,0-3.55-1.66-3.55-3.34,0-2.81,2.5-4.34,6.98-4.32v-.24c0-.96-.26-2.69-2.64-2.69-1.08,0-2.21,.34-3.02,.86l-.48-1.39c.96-.62,2.35-1.03,3.82-1.03,3.55,0,4.42,2.42,4.42,4.75v4.34c0,1.01,.05,1.99,.19,2.78h-1.92Zm-.31-5.93c-2.3-.05-4.92,.36-4.92,2.62,0,1.37,.91,2.02,1.99,2.02,1.51,0,2.47-.96,2.81-1.94,.07-.22,.12-.46,.12-.67v-2.02Z"/></g></g><ellipse class="cls-5" cx="480.61" cy="201.76" rx="212.3" ry="197.76"/></g><g><path d="M348.94,315.37c1.28-.26,3.1-.41,4.84-.41,2.7,0,4.44,.49,5.66,1.59,.99,.87,1.54,2.21,1.54,3.71,0,2.58-1.62,4.29-3.68,4.99v.09c1.51,.52,2.41,1.91,2.87,3.94,.64,2.73,1.1,4.61,1.51,5.37h-2.61c-.32-.55-.75-2.23-1.31-4.67-.58-2.7-1.62-3.71-3.92-3.8h-2.38v8.47h-2.52v-19.29Zm2.52,8.91h2.58c2.7,0,4.41-1.48,4.41-3.71,0-2.52-1.83-3.63-4.5-3.66-1.22,0-2.09,.12-2.49,.23v7.14Z"/><path d="M374.66,325.49h-7.6v7.05h8.47v2.12h-10.99v-19.55h10.56v2.12h-8.03v6.18h7.6v2.09Z"/><path d="M393.69,333.79c-1.13,.41-3.36,1.07-6,1.07-2.96,0-5.4-.75-7.31-2.58-1.68-1.62-2.73-4.24-2.73-7.28,.03-5.83,4.03-10.09,10.59-10.09,2.26,0,4.03,.49,4.87,.9l-.61,2.06c-1.04-.46-2.35-.84-4.32-.84-4.76,0-7.86,2.96-7.86,7.86s2.99,7.89,7.54,7.89c1.65,0,2.78-.23,3.36-.52v-5.83h-3.97v-2.03h6.44v9.4Z"/><path d="M400.07,315.11v19.55h-2.52v-19.55h2.52Z"/><path d="M421.18,324.68c0,6.73-4.09,10.3-9.08,10.3s-8.79-4-8.79-9.92c0-6.21,3.86-10.27,9.08-10.27s8.79,4.09,8.79,9.89Zm-15.17,.32c0,4.18,2.26,7.92,6.24,7.92s6.27-3.68,6.27-8.12c0-3.89-2.03-7.95-6.24-7.95s-6.27,3.86-6.27,8.15Zm10.47-14.39l-3.68,3.37h-2.09l2.7-3.37h3.08Z"/><path d="M424.45,334.66v-19.55h2.76l6.27,9.89c1.45,2.29,2.58,4.35,3.51,6.35l.06-.03c-.23-2.61-.29-4.99-.29-8.03v-8.18h2.38v19.55h-2.55l-6.21-9.92c-1.36-2.18-2.67-4.41-3.66-6.53l-.09,.03c.15,2.47,.2,4.82,.2,8.06v8.35h-2.38Z"/><path d="M449.68,315.37c1.54-.23,3.37-.41,5.37-.41,3.62,0,6.21,.84,7.92,2.44,1.74,1.6,2.76,3.86,2.76,7.02s-.99,5.8-2.81,7.6c-1.83,1.83-4.84,2.81-8.64,2.81-1.8,0-3.31-.09-4.58-.23v-19.23Zm2.52,17.29c.64,.12,1.57,.14,2.55,.14,5.4,0,8.33-3.02,8.33-8.3,.03-4.61-2.58-7.54-7.92-7.54-1.3,0-2.29,.12-2.96,.26v15.43Z"/><path d="M479.12,325.49h-7.6v7.05h8.47v2.12h-10.99v-19.55h10.56v2.12h-8.03v6.18h7.6v2.09Z"/><path d="M491.94,317.25h-5.95v-2.15h14.47v2.15h-5.98v17.4h-2.55v-17.4Z"/><path d="M503.62,328.51l-2.03,6.15h-2.61l6.64-19.55h3.04l6.67,19.55h-2.7l-2.09-6.15h-6.93Zm6.41-1.97l-1.91-5.63c-.43-1.28-.73-2.44-1.02-3.57h-.06c-.29,1.16-.61,2.35-.99,3.54l-1.91,5.66h5.89Z"/><path d="M518.21,315.37c1.28-.26,3.1-.41,4.84-.41,2.7,0,4.44,.49,5.66,1.59,.99,.87,1.54,2.21,1.54,3.71,0,2.58-1.62,4.29-3.68,4.99v.09c1.51,.52,2.41,1.91,2.87,3.94,.64,2.73,1.1,4.61,1.51,5.37h-2.61c-.32-.55-.75-2.23-1.31-4.67-.58-2.7-1.62-3.71-3.92-3.8h-2.38v8.47h-2.52v-19.29Zm2.52,8.91h2.58c2.7,0,4.41-1.48,4.41-3.71,0-2.52-1.83-3.63-4.5-3.66-1.22,0-2.09,.12-2.49,.23v7.14Z"/><path d="M537.12,328.51l-2.03,6.15h-2.61l6.64-19.55h3.04l6.67,19.55h-2.7l-2.09-6.15h-6.93Zm6.41-1.97l-1.91-5.63c-.43-1.28-.73-2.44-1.02-3.57h-.06c-.29,1.16-.61,2.35-.99,3.54l-1.91,5.66h5.89Z"/><path d="M551.7,315.34c1.22-.2,2.81-.38,4.84-.38,2.49,0,4.32,.58,5.48,1.62,1.07,.93,1.71,2.35,1.71,4.09s-.52,3.16-1.51,4.18c-1.33,1.42-3.51,2.15-5.98,2.15-.75,0-1.45-.03-2.03-.17v7.83h-2.52v-19.32Zm2.52,9.43c.55,.15,1.25,.2,2.09,.2,3.05,0,4.9-1.48,4.9-4.18s-1.83-3.83-4.61-3.83c-1.1,0-1.94,.09-2.38,.2v7.6Z"/><path d="M567.86,328.51l-2.03,6.15h-2.61l6.64-19.55h3.04l6.67,19.55h-2.7l-2.09-6.15h-6.93Zm6.41-1.97l-1.91-5.63c-.43-1.28-.73-2.44-1.02-3.57h-.06c-.29,1.16-.61,2.35-.99,3.54l-1.91,5.66h5.89Z"/><path d="M595.67,334.02c-.93,.46-2.79,.93-5.16,.93-5.51,0-9.66-3.48-9.66-9.89s4.15-10.27,10.21-10.27c2.44,0,3.97,.52,4.64,.87l-.61,2.06c-.96-.46-2.32-.81-3.95-.81-4.58,0-7.63,2.93-7.63,8.06,0,4.79,2.76,7.86,7.51,7.86,1.54,0,3.1-.32,4.12-.81l.52,2Z"/><path d="M602.11,328.51l-2.03,6.15h-2.61l6.64-19.55h3.04l6.67,19.55h-2.7l-2.09-6.15h-6.93Zm6.41-1.97l-1.91-5.63c-.43-1.28-.73-2.44-1.02-3.57h-.06c-.29,1.16-.61,2.35-.99,3.54l-1.91,5.66h5.89Zm1.39-15.87l-3.68,3.39h-2.09l2.7-3.39h3.07Z"/></g><line class="cls-2" x1="41.38" y1="183.56" x2="372.82" y2="32.71"/><line class="cls-2" x1="365.08" y1="367.69" x2="42.26" y2="191.44"/></g><g id="Capa_6"><polygon class="cls-1" points="312.32 81.2 281.95 131.89 270.2 175.3 272.39 240.51 293.19 294.71 325.02 336.29 343.96 356.16 322.17 344.4 41.9 191.44 41.38 184.29 345.81 45 338.57 52.85 312.32 81.2"/></g></svg>