<?xml version="1.0" encoding="UTF-8"?><svg id="Capa_1" xmlns="http://www.w3.org/2000/svg" viewBox="0 0 224.86 298.46"><defs><style>.cls-1{letter-spacing:-.06em;}.cls-2{letter-spacing:-.06em;}.cls-3,.cls-4{stroke:#fff;stroke-width:.75px;}.cls-3,.cls-4,.cls-5{stroke-miterlimit:10;}.cls-3,.cls-6{fill:#5dbae9;}.cls-4,.cls-7{fill:#6294a5;}.cls-5{stroke-width:4px;}.cls-5,.cls-8{fill:none;stroke:#faa332;stroke-dasharray:0 0 0 0 0 0 9 5 9 5 9 5;}.cls-9{fill:#3b7494;}.cls-10,.cls-11,.cls-12,.cls-13{font-family:ArialMT, Arial;isolation:isolate;}.cls-10,.cls-12{fill:#fffffe;font-size:6.19px;}.cls-14{fill:#facd34;}.cls-15{font-family:Roboto-Regular, Roboto;font-size:8px;}.cls-11{font-size:16.91px;}.cls-11,.cls-13{fill:#eee;}.cls-16{letter-spacing:-.06em;}.cls-17{letter-spacing:-.04em;}.cls-12{letter-spacing:-.04em;}.cls-8{stroke-linecap:round;stroke-linejoin:round;stroke-width:3px;}.cls-13{font-size:18.64px;}</style></defs><path class="cls-4" d="M58.82,281.64h126.76c2.12-9.5,3.87-23.78,4.52-36.97-12.17,8.11-22.86,12.45-24.89,7.93-3.6-8.11,.74-32.63-9.96-42.96-10.69-10.32-3.96-31.44-14.57-35.95-10.69-4.52-23.88-25.35-14.57-32.45,9.31-7.1-.28-20.93,7.84-28.02,8.11-7.1-4.79-8.02-16.78-21.85-11.98-13.83,4.24-31.53-9.96-41.76-14.2-10.42-14.38-23.23-17.88-17.33-3.5,5.81-4.33,25.63-16.04,31.62-1.94,.92-4.98,3.32-8.57,6.27,0,1.01,.65,2.21,.55,3.41,0,.92-.74,1.84-.74,2.86-.09,.74-.83,1.38-.92,2.21s.65,1.75,.55,2.67,.46,1.94,.46,2.95c-.09,.92-.83,1.84-.83,2.77,0,.55-.09,1.01-.09,1.57,0,.46,.46,1.29,.46,1.75v2.58c0,.92-.46,1.47-.46,2.4,0,.83-.83,1.66-.83,2.49,.09,.65,1.01,1.2,1.11,1.84,.28,1.84,.65,3.5,1.2,5.07,.09,.37,.74,.46,.83,.74,.09,.18-.37,.55-.28,.65,.37,1.01,.83,2.3,1.2,3.69,0,.09-.46,.18-.37,.28,0,.09,.09,.37,.09,.55s.55,.18,.65,.28c.37,1.47,.74,3.23,1.11,5.16,0,.18-.74,.37-.74,.46,0,.18,.83,.28,.83,.37,.28,1.57,.46,3.23,.74,4.98,.09,.46,1.38,1.01,1.47,1.47s.09,.83,.18,1.29c.09,1.11-1.01,2.21-.92,3.32,.18,2.12-.74,4.42-.46,6.64,.09,1.01,.46,1.94,.74,2.86,.37,1.01,.74,2.12,.83,3.23s.18,2.3,.18,3.41c0,.74,.09,1.38,.09,2.12,0,.65,.09,1.2,.09,1.84,0,.83,1.29,2.03,1.29,2.95,0,.55,.09,1.11,.09,1.66,0,.92,.09,1.94,.09,2.86,0,1.2,.09,2.4,.09,3.69,0,.55,0,1.11,.09,1.66,0,.74-1.11,1.2-1.11,2.03v5.44c0,.46-.92,1.01-.92,1.47v6.91c0,.46,.92,.83,.92,1.29,0,.83,0,1.57-.09,2.4,0,.74-2.21,1.66-.09,2.12,.46,.09,0,1.01-.09,1.47v1.2c0,.65-.09,1.29-.09,1.84s1.01,2.4,.92,2.95c0,.55-1.11-.09-1.11,.46,0,.46-.09,.83-.09,1.29-.09,.83-1.11,1.57-1.11,2.4-.09,.83,.83,1.75,.74,2.49s1.11,2.49,1.01,3.23c-.09,.46-1.38-.09-1.38,.37-.09,.83-.18,1.66-.28,2.4-.18,1.01-.28,1.94-.46,2.86-.09,.46-1.29,.83-1.38,1.29-.28,1.29,.55,2.58,.37,3.78-.28,1.47-1.84,2.86-2.12,4.24-.09,.37,1.01,.83,.92,1.2-.28,1.2,.28,2.95,0,4.15s-1.29,1.84-1.57,3.04c-.18,.74,.83,1.84,.74,2.58-.28,1.11-1.66,1.75-1.94,2.77-.18,.83-1.29,1.66-1.47,2.4-.28,1.2,.37,2.4,.09,3.5-.18,.65-1.29,1.57-1.38,2.21-.37,1.38-.55,2.67-.92,3.96-.18,.55,.46,1.11,.37,1.75-.09,.46,.55,1.84,.37,2.3-.28,1.01-1.29,1.2-1.57,2.21-.28,.92-1.29,1.75-1.47,2.67-.55,2.12-.37,4.24-.92,6.18-.37,1.29-.74,2.58-1.11,3.78-.46,1.57,.55,2.95,0,4.42-.18,.46-1.84,1.2-2.03,1.66-.09,.28-.18,.46-.28,.74-.37,1.01-2.3,4.89-2.49,5.72-1.2,6.55,3.96,6.91,6.73,9.59h0Z"/><path class="cls-3" d="M.38,.38V14.76c.74,.55,1.01,1.75,1.75,2.3s2.21-.09,2.86,.46c.46,.37,.83,1.38,1.29,1.75,.18,.18,.37,.28,.55,.46,.46,.37,.28,1.11,.65,1.47,.28,.18,.46,.46,.74,.65,.28,.28,.55,.55,.92,.83,.46,.37,1.38,.37,1.84,.83,.55,.55,1.11,2.12,1.57,2.58,.37,.46,.65-.18,1.01,.28,.37,.46,1.66,.92,1.94,1.47,.37,.55-.28,1.11,.09,1.66,.37,.46,0,1.01,.37,1.47,.28,.37,1.2,.74,1.47,1.01,.28,.37,.65,.74,.92,1.11,.46,.55,1.47,.18,2.03,.74l.74,.74c.46,.46,.55,1.94,1.11,2.4,.28,.28,.55,.46,.74,.74,.37,.37,.74,.65,1.11,1.01,.28,.28,.46,1.29,.83,1.57,.46,.37,1.01,0,1.47,.37,.28,.28,1.29-.37,1.57-.09,.46,.37,.37,1.66,.83,2.03,.37,.28,.83,.65,1.2,.92,.18,.18,.83-.65,1.01-.46,.46,.28,.83,.65,1.29,.92,.37,.28,.37,1.47,.74,1.75,.37,.28,.74,.46,1.01,.74,.55,.37,1.47,.28,2.03,.65,.46,.37,.55,1.11,1.01,1.47,.46,.28,.92,.65,1.38,.92,.18,.18,.46,.28,.65,.46,.55,.37,1.57,0,2.12,.37,.46,.28,.46,1.29,.92,1.57,.28,.18,.55,.37,.83,.46,.55,.28,1.01,.65,1.57,.92,.28,.18,.65,.37,.92,.55l1.38,.83c.37,.18,.55,1.11,.92,1.29,.28,.18,.55,.28,.83,.46,.55,.28,1.01,.55,1.57,.83,.55,.28,1.2-.09,1.75,.18,.28,.09,.46,.28,.74,.37,.46,.28,.92,.55,1.38,.74,.65,.37,1.2,1.38,1.84,1.66,.46,.28,.92,.46,1.38,.74,.55,.28,1.11,.55,1.57,.83,.37,.18,.74-.28,1.11-.18l.55,.28c.65,.28,1.11,.55,1.57,.83l.55,.28c.37,.18,0,1.47,.28,1.84,.18,.28,1.11-.46,1.2-.09,.18,.37,.28,.74,.37,1.11,.09,.37,1.29,1.11,1.38,1.57,.18,.92-.92,1.75-.83,2.95,1.01-.83,1.84-.74,2.77-1.38,.37-.28,.83-1.47,1.2-1.75s1.2-.18,1.57-.46c.46-.37,.65-1.2,1.01-1.47,.18-.18,1.01,0,1.2-.09,.55-.37,.37-.92,.83-1.11,.28-.18,1.57,.28,1.84,.09,.18-.09,.28-.18,.46-.28,.18-.18,.46-.28,.65-.46,.28-.28-.28-1.11,0-1.29,.46-.37,1.01-.09,1.38-.46,.18-.18,.18-1.01,.37-1.2s1.38-.65,1.57-.83c.18-.18,.37-.46,.55-.74,.37-.46-.37-.74,0-1.2,.28-.37,.46-.74,.74-1.2,.28-.37,.92-.74,1.11-1.11,.37-.65,.18-1.38,.46-2.03s2.12-1.94,2.4-2.58c.55-1.29-.65-1.84-.18-3.23,.28-1.01,2.21-3.04,2.49-4.06,.28-1.11,.55-2.12,.83-3.23,.37-1.38-.92-1.57-.55-2.77,.09-.28,1.11,0,1.2-.28,0-.18-.83-.83-.83-1.01,.46-1.57,1.66-.92,2.21-1.94,.46-.83,.18-3.23,.65-3.32-1.11-7.1-1.11-13.74,3.13-16.13,3.32-1.94,6.36-7.28,8.94-14.38C102.79,.38,.38,.38,.38,.38Z"/><path class="cls-9" d="M133.22,99.2c-4.61-3.5-7.01-5.25-8.94-7.01-1.66-1.57-3.87-3.69-6.08-6.73h-5.25l-3.78,3.6-.74,4.33-6.08,.74-6.08-4.33h-10.88l-12.26,7.93c-1.94,.55-4.33,1.29-6.27,1.94h-2.67c.28,1.84,.65,3.5,1.2,5.07,.09,.37,.74,.46,.83,.74,.09,.18-.37,.55-.28,.65,.37,1.01,.83,2.3,1.2,3.69,0,.09-.46,.18-.37,.28,0,.09,.09,.37,.09,.55s.55,.18,.65,.28c.37,1.47,.74,3.23,1.11,5.16,0,.18-.74,.37-.74,.46,0,.18,.83,.28,.83,.37,.28,1.57,.46,3.23,.74,4.98,.09,.46,1.38,1.01,1.47,1.47s.09,.83,.18,1.29c.09,1.11-1.01,2.21-.92,3.32,.18,2.12-.74,4.42-.46,6.64,.09,1.01,.46,1.94,.74,2.86,.37,1.01,.74,2.12,.83,3.23s.18,2.3,.18,3.41c0,.74,.09,1.38,.09,2.12,0,.65,.09,1.2,.09,1.84,0,.83,1.29,2.03,1.29,2.95,0,.55,.09,1.11,.09,1.66,0,.92,.09,1.94,.09,2.86,0,1.2,.09,2.4,.09,3.69,0,.55,0,1.11,.09,1.66,0,.74-1.11,1.2-1.11,2.03v5.44c0,.46-.92,1.01-.92,1.47v6.91c0,.46,.92,.83,.92,1.29,0,.83,0,1.57-.09,2.4,0,.74-2.21,1.66-.09,2.12,.46,.09,0,1.01-.09,1.47,0,.37,2.12-.74,2.12-.74h0c3.96-.55,8.85-.74,14.2,.18,1.2,.18,2.4,.46,3.5,.74,7.93-1.94,15.76-3.87,23.69-5.81,2.67-.09,4.89-.55,6.45-.92,2.67-.65,3.32-1.11,3.6-1.47,1.2-1.11,.74-2.03,1.75-4.98,1.11-2.95,2.3-4.24,1.66-5.25-.28-.46-.92-.65-1.38-.83-1.66-.46-2.58,.55-4.24,.55-.74,0-1.75-.18-3.04-1.11-.92,.09-1.66-.65-1.66-1.38,0-.65,.46-1.2,1.11-1.38h9.59c1.84,.74,3.69,1.47,5.62,2.21-2.3-2.3-5.99-6.45-8.2-12.08,0,0-1.84-4.7-1.38-8.85,.18-1.57,.65-2.58,.83-2.77,.46-.83,1.01-1.47,2.3-2.86,1.38-1.47,2.03-2.21,2.3-2.49,3.04-3.23,1.2-11.25,2.12-18.81,.18-1.47,.46-3.23,1.66-4.7,.92-1.2,1.75-2.03,1.75-2.03,.74-.74,1.01-.92,1.47-1.57,.65-.83,1.01-1.75,1.11-2.12,.65-1.66-2.3-3.87-5.62-6.36Z"/><path class="cls-3" d="M224.48,.38H102.33c-.46,1.2-2.03,1.66-2.49,2.77-.18,.46,.83,1.66,.65,2.03-.46,1.01-2.03,1.38-2.49,2.3-.55,1.11-1.2,2.21-1.75,3.04-.37,.55,.37,1.75-.09,2.21-.74,.83-1.94,1.01-2.67,1.38-1.29,.74-1.66,2.4-2.3,3.78-.55,1.38-1.75,2.67-1.84,4.52-.09,1.2,.83,2.86,.92,4.15,.09,.65,.09,1.38,.18,2.03l.28,2.21c.55-.18,1.11,.28,1.84,1.2,.83,1.11,.65,3.32,2.12,5.62,.83,1.29,3.04,2.49,4.24,3.96,.37,.46,.18,1.11,.55,1.57,1.29,1.38,2.58,3.87,4.24,5.35,.92,.74,2.49,.18,3.5,.92,1.47,1.11,1.66,2.49,2.49,3.69,.74,1.01,1.29,2.03,1.66,3.04,.18,.55-.37,1.11-.18,1.66,.28,1.2,1.29,2.49,1.38,3.78,.18,2.12-.65,4.06-.92,6.36-.09,.65-.09,1.2-.18,1.84-.09,.83-.09,1.66-.09,2.58,0,.74,.65,1.84,.74,2.58,.09,1.57,.18,3.23,.37,4.79,0,.37-1.11,.83-1.01,1.11,.09,.74,.28,1.57,.37,2.3,.28,1.11,1.75,2.12,2.21,3.13,.37,.74,.74,1.57,1.2,2.3,.18,.37,.46,.65,.65,1.01,.37,.46,.74,1.01,1.2,1.47,.28,.28-.37,1.47-.18,1.75,.28,.37,1.47-.28,1.75,0,.55,.65,1.2,1.2,1.75,1.75,.28,.28,.09,2.3,.37,2.58,.74,.65,1.75-.55,2.49,0,.18,.18,.46,.37,.65,.55,.46,.37,.83,.65,1.2,1.01,.37,.28,.65,.55,1.01,.74,.18,.18,.37,.28,.55,.46,.37,.28,.55,1.84,.92,2.12,.18,.18,.37,.28,.65,.46s.65,.46,.92,.65c.18,.09,.28,.18,.46,.28,.37,.28,1.01-.65,1.38-.37,.28,.18,.46,.37,.74,.55,.37,.28,.74,.55,1.01,.83,1.57,1.2,2.67,2.21,3.13,3.23,.55,1.11,.46,2.21-.55,3.5-.28,.37-1.75-.28-2.21,.09-.18,.18-.37,.37-.65,.55-.65,.55-.09,2.21-.46,2.86-.65,.92-1.11,1.94-1.38,3.04-.28,.92-1.47,1.47-1.57,2.4,0,.46-.09,.92-.09,1.38,0,.55,1.01,1.38,1.01,1.94,0,1.01,.09,2.12,.09,3.23,0,.28-1.29,.28-1.29,.55,0,.74,.09,1.57,.09,2.3,0,1.2,1.2,2.67,1.11,3.78,0,.18-.09,.37-.09,.55-.18,1.11-.46,2.12-.92,3.13-.46,1.01-1.75,1.11-2.58,2.03-.46,.46-.92,.92-1.47,1.29-.46,.28-.09,1.47-.46,1.84-.92,1.11-1.57,2.3-1.84,3.78-.09,.55-.18,1.11-.18,1.66,0,.37-2.21,1.84-1.2,1.84,.92,0,1.38,1.11,1.57,2.03,.09,.46,.18,.92,.37,1.47,.28,1.01,.65,2.12,1.11,3.13,.28,.74,.65,1.38,1.01,2.12,.46,.92-.09,2.3,.46,3.23,.46,.74,2.12,1.11,2.58,1.75,.18,.18,.28,.46,.46,.65,.37,.46,.65,.92,1.01,1.29,.37,.46,.74,.83,1.01,1.2,.46,.55,.92,1.11,1.47,1.57,.37,.37-.55,1.47-.18,1.75,.37,.28,.65,.65,1.01,.92,.37,.28,.65,.55,1.01,.83,.37,.28,1.94-.18,2.3,.09,.83,.55,1.66,1.11,2.49,1.57,.37,.18,.74,.37,1.2,.55,.65,.28,1.29,.65,1.84,1.01,.83,.65,.28,1.47,.92,2.3,.37,.46,1.84,.92,2.12,1.47,.37,.83-.46,1.57-.18,2.49,.28,1.01,.55,2.12,.74,3.32,.09,.55,.18,1.11,.28,1.57s1.29,1.01,1.29,1.47c.18,1.01,.28,2.03,.46,3.13,0,.18,.09,.37,.09,.65,.09,.37-.92,1.11-.83,1.47,.09,.74,.28,1.57,.37,2.3,.28,1.38,1.47,2.49,1.84,3.78,.18,.65,.37,1.38,.55,2.03,.28,.83-.28,2.21,.09,3.04l.28,.55c.28,.55,.46,1.01,.83,1.57,.28,.46,.55,1.01,.92,1.47,.18,.37,1.29,0,1.47,.37,.46,.65,1.01,1.2,1.57,1.75l.65,.65c.55,.55-.83,2.12-.37,2.77,.55,.74,2.86,.65,3.32,1.47,.46,.83,.83,1.75,1.2,2.77,.28,.83,.65,1.66,.83,2.58,.28,1.01,.55,2.12,.83,3.23,.09,.28,.09,.65,.18,.92,.09,.46-.65,1.11-.55,1.66,.09,.46,.09,.83,.18,1.29,.09,.65,.18,1.38,.28,2.03,.09,.55,1.01,1.01,1.01,1.57,.09,.55,.09,1.01,.09,1.57,0,.28,.09,.65,.09,.92,.09,.83-1.11,1.75-1.11,2.58,.09,.83,1.29,1.66,1.38,2.49,0,.46,.09,1.01,.09,1.47,0,.37,0,.65,.09,.92,0,.46-.65,.74-.65,1.11,0,.55,.74,1.29,.83,1.84,.09,1.29,.18,2.58,.37,3.69,.09,.74-.37,1.11-.28,1.75,.28,1.2,1.11,2.67,1.57,3.5,.18,.46,.55,.92,1.01,1.2,.55,.37,1.2,.55,2.03,.65,1.11,.09,2.49,1.38,4.06,.92,1.47-.37,3.23-1.01,4.98-1.84,1.01-.46,2.03-2.4,3.04-2.95,.83-.46,2.12,.55,3.04,0,.65-.37,.92-2.21,1.66-2.67s1.94-.55,2.77-1.01c10.42-6.55,22.12-16.69,31.16-26.46,2.12-2.21,3.96-4.06,5.62-5.44L224.48,.38h0Z"/><path class="cls-3" d="M224.48,281.64v-66.56c-.83,.74-2.3-.65-3.32,.37-.65,.65-.65,3.41-1.38,4.15-.28,.28-.83-.46-1.2-.09-.46,.55-.74,2.21-1.29,2.77-.65,.74-1.57,.09-2.3,.74-.74,.74-1.2,2.77-1.94,3.41l-.92,.92c-.65,.65-1.94,0-2.58,.55-.37,.37-.18,2.03-.55,2.3-.74,.65-1.57,1.38-2.3,2.03-.46,.37-1.84-.18-2.21,.18-.65,.55-1.38,1.11-2.12,1.75-.55,.46-1.11,.92-1.66,1.29-.55,.46-.18,1.84-.83,2.3-.55,.46-1.2,.92-1.75,1.38-.46,.28-.65-.46-1.11-.18-.65,.46-1.47,2.03-2.12,2.49s-1.57-.28-2.3,.28c-.46,.37-.74,1.84-1.29,2.21-.46,.28-.92,1.47-1.38,1.75-.09,1.38-.18,2.03-.28,3.41-.09,.74-.09,1.47-.18,2.12-.09,.74-.09,1.57-.18,2.3-.09,.83-.18,1.66-.18,2.58-.09,.92-.74,1.57-.83,2.49-.09,1.11,.37,2.49,.18,3.6-.09,.55-.09,1.2-.18,1.75-.09,.46-.83,.92-.92,1.29-.18,1.29,.46,2.49,.28,3.69-.09,.37-.09,.83-.18,1.2-.09,.46-.09,.83-.18,1.2-.09,.55-.92,1.01-1.01,1.47s-.18,.92-.18,1.38c-.09,.65,.55,1.38,.46,1.94-.09,.28-.09,.55-.18,.92-.18,.83-1.84,1.66-1.94,2.4-.09,.55,1.29,1.01,1.2,1.47-.09,.28-.09,.46-.18,.74h39.09Z"/><g id="Capa_4"><path class="cls-8" d="M168.43,253.06l-2.77,2.3s-3.23-.92-4.7-.92h-7.1s-1.94-1.29-3.23-.18l-1.29,1.11-6.08-9.5s-18.25-6.91-20.47-10.51-1.47-6.45-1.47-6.45l-4.33,.65-3.04-1.66-10.51-.83h-9.5l1.11-5.81-2.21-4.79s4.7-7.1,4.98-10.69-2.4-6.64-2.4-6.64l2.4-8.85-3.69-13.74-2.58-2.58v-1.66l-2.3-5.35,3.78-9.68-4.7-10.79"/><polyline class="cls-8" points="69.15 67.12 67.03 70.99 68.32 74.31 68.5 77.63 67.39 81.78 69.51 83.07 74.68 87.12 76.06 87.12 76.06 89.24 75.41 93.85 70.34 97.54 71.17 98.92 72.83 100.12 76.06 100.12 79.66 102.06 80.58 105.84 78.92 110.08 78.64 113.95 79.19 114.96 78.92 116.99 84.82 127.59 85.46 131.74 86.85 135.06 86.85 137.27 85.56 140.22 86.85 144.28"/><polyline class="cls-8" points="114.32 65.37 109.43 65.37 107.86 64.63 106.94 63.06 104.08 63.06 99.66 61.59 95.88 60.85 93.67 63.06 93.67 64.72 91.82 65.37 92.65 67.12 89.89 68.59 89.43 70.25 84.82 71.91 81.22 72.74 77.72 74.12 74.68 74.12 71.63 73.76 70.16 74.4 68.13 73.76"/></g><text class="cls-13" transform="translate(34.78 30.78)"><tspan x="0" y="0">PERÚ</tspan></text><text class="cls-11" transform="translate(142.05 93.01)"><tspan x="0" y="0">BOLIVI</tspan><tspan class="cls-2" x="54.5" y="0">A</tspan></text><polygon class="cls-14" points="94.5 153.04 89.15 150.18 83.8 152.94 84.91 147.04 80.58 142.8 86.57 141.97 89.24 136.63 91.92 142.07 97.82 142.89 93.48 147.04 94.5 153.04"/><text class="cls-12" transform="translate(96.84 150.91)"><tspan x="0" y="0">L</tspan></text><text class="cls-10" transform="translate(100.24 150.91)"><tspan class="cls-16" x="0" y="0">A</tspan><tspan x="3.79" y="0"> </tspan></text><text class="cls-10" transform="translate(96.84 158.34)"><tspan x="0" y="0">TIRAN</tspan><tspan class="cls-1" x="18.58" y="0">A</tspan></text><polygon class="cls-6" points="224.85 214.71 224.85 0 102.33 0 102.79 1.2 217.47 7.2 224.11 214.71 224.85 214.71"/><polygon class="cls-6" points="224.85 214.71 224.02 214.71 223.93 216.46 185.95 281.27 185.58 281.91 224.85 281.91 224.85 214.71"/><polygon class="cls-7" points="185.95 281.27 184.29 280.81 60.39 279.42 58.73 281.64 58.54 281.91 185.58 281.91 185.95 281.27"/><polygon class="cls-6" points="102.33 0 0 0 0 15.12 1.02 14.48 1.85 12.64 100.77 1.11 101.78 .74 102.61 .74 102.33 0"/><line class="cls-5" x1="9.16" y1="293.44" x2="48.48" y2="293.44"/><text class="cls-15" transform="translate(52.17 296.3)"><tspan x="0" y="0">RU</tspan><tspan class="cls-17" x="10.11" y="0">T</tspan><tspan x="14.58" y="0">AS DE PEREGRINACIÓN</tspan></text></svg>