<?xml version="1.0" encoding="UTF-8"?><svg xmlns="http://www.w3.org/2000/svg" viewBox="0 0 243.89 305.83"><defs><style>.cls-1{font-size:18.34px;}.cls-1,.cls-2,.cls-3{font-family:Roboto-Regular, Roboto;}.cls-1,.cls-3{fill:#eee;}.cls-4{fill:#3b7494;}.cls-5{fill:#facd34;}.cls-2{fill:#fffffe;font-size:8.41px;}.cls-6{fill:#cab9dc;}.cls-6,.cls-7,.cls-8{stroke:#fff;stroke-miterlimit:10;stroke-width:.75px;}.cls-3{font-size:20.22px;}.cls-9{fill:none;stroke:#5fbaea;stroke-dasharray:0 0 0 0 0 0 9 5 9 5 9 5;stroke-linecap:round;stroke-linejoin:round;stroke-width:3px;}.cls-10{letter-spacing:0em;}.cls-7{fill:#b299c8;}.cls-8{fill:#fbcf49;}.cls-11{fill:#91d3eb;}</style></defs><g id="Capa_2"><rect class="cls-11" x=".37" y=".38" width="243.14" height="305.08"/><path class="cls-8" d="M63.79,305.45H201.26c2.34-10.33,4.23-25.83,4.92-40.1-13.24,8.77-24.78,13.53-26.97,8.63-3.94-8.78,.81-35.38-10.83-46.6-11.63-11.23-4.27-34.07-15.83-38.96-11.55-4.93-25.89-27.49-15.78-35.21,10.11-7.71-.28-22.74,8.54-30.44,8.84-7.69-5.23-8.73-18.17-23.72-12.97-15,4.64-34.18-10.81-45.35-15.46-11.18-15.64-25.09-19.39-18.71-3.75,6.34-4.74,27.85-17.42,34.35-2.08,1.04-5.36,3.55-9.28,6.84,.25,10.43-3.37,28.18,.94,38.41,5.93,14.15,9.71,83.28,4.31,109.88-5.4,26.61-10.85,48.44-16.39,64.66-3.02,8.85,1.34,13.06,4.67,16.32Z"/><path class="cls-4" d="M70.3,111.98c2.08-.63,4.16-1.27,6.24-1.9l13.28-8.59h11.64l6.65,4.69,6.62-.79,.84-4.69,4.15-3.9h5.72c2.38,3.25,4.73,5.62,6.57,7.28,2.1,1.89,4.67,3.83,9.71,7.63,3.64,2.74,6.83,5.09,6.39,7.11-.09,.4-.45,1.39-1.17,2.33-.49,.65-.84,.87-1.63,1.65,0,0-.97,.97-1.93,2.23-1.23,1.62-1.58,3.54-1.77,5.13-.98,8.15,1.02,16.9-2.31,20.39-.32,.33-1.06,1.12-2.53,2.69-1.35,1.43-2.03,2.17-2.49,3.07-.12,.23-.65,1.29-.85,3.03-.52,4.47,1.49,9.55,1.49,9.56,2.4,6.08,6.36,10.57,8.87,13.05-2.03-.81-4.05-1.62-6.08-2.42l-10.39-.03c-.74,.19-1.25,.81-1.25,1.46,0,.82,.8,1.59,1.82,1.52,1.41,1.03,2.56,1.23,3.34,1.24,1.81,.01,2.8-1.05,4.57-.56,.51,.14,1.15,.32,1.5,.86,.72,1.11-.61,2.44-1.79,5.69-1.19,3.28-.67,4.21-1.94,5.44-.38,.37-1.06,.9-3.94,1.6-1.68,.41-4.05,.85-6.96,1-8.56,2.09-17.12,4.17-25.68,6.26-1.21-.31-2.48-.59-3.82-.83-5.84-1.02-11.11-.83-15.4-.24,.47-18.03,.1-31.97-.35-41.51-.21-4.37-.39-6.96-.67-10.85-1.37-19.35-2.81-25.88-3.63-29.18-1.04-4.2-2.15-7.51-2.81-9.38Z"/><path class="cls-7" d="M.38,.38V15.94c7.41,5.35,12.8,10.18,15.15,14.09,10.76,17.88,45.44,34.47,52.18,38.18,1.86,1.03,2.46,4.03,2.54,7.98,3.92-3.29,7.2-5.8,9.28-6.84,12.68-6.5,13.68-28,17.42-34.35,.54-.94,.98-1.34,1.43-1.46-1.23-7.68-1.21-14.88,3.42-17.55,3.62-2.12,6.9-7.91,9.67-15.61H.38Z"/><path class="cls-7" d="M243.52,.38H110.99c-2.8,7.88-5.96,13.72-9.18,15.61-4.63,2.68-4.65,9.87-3.42,17.55,2.68-.9,4.7,10.57,17.96,20.17,15.45,11.17-2.16,30.35,10.81,45.35,12.94,15,27,16.03,18.17,23.72-8.81,7.7,1.58,22.73-8.54,30.44-10.11,7.71,4.23,30.27,15.78,35.21,11.56,4.89,4.19,27.73,15.83,38.96,11.64,11.22,6.88,37.82,10.83,46.6,3.94,8.78,38.11-13.11,58.24-34.87,2.27-2.45,4.27-4.39,6.06-5.92V.38Z"/><path class="cls-6" d="M243.52,305.45v-72.25c-1.79,1.53-3.79,3.47-6.06,5.92-8.96,9.69-20.64,19.26-31.28,26.24-.69,14.26-2.58,29.77-4.92,40.1h42.26Z"/></g><g id="Capa_6"><g id="Capa_4"><path class="cls-9" d="M182.09,274.54l-2.97,2.45s-3.5-.97-5.07-1.01-7.7,0-7.7,0c0,0-2.1-1.44-3.5-.21l-1.4,1.22-6.65-10.32s-19.76-7.52-22.21-11.37-1.58-7-1.58-7l-4.72,.7-3.32-1.75-11.37-.87h-10.32l1.22-6.3-2.45-5.25s5.11-7.7,5.44-11.55-2.64-7.17-2.64-7.17l2.64-9.62-4.04-14.87-2.8-2.8v-1.75l-2.49-5.77,4.07-10.5-5.07-11.72"/><polyline class="cls-9" points="74.36 72.85 72.06 77.05 73.49 80.58 73.62 84.23 72.42 88.69 74.8 90.1 80.41 94.54 81.84 94.54 81.84 96.79 81.19 101.84 75.71 105.76 76.56 107.33 78.32 108.63 81.84 108.63 85.76 110.73 86.8 114.76 84.97 119.45 84.71 123.63 85.24 124.67 84.97 126.89 91.37 138.37 92.02 142.94 93.58 146.46 93.58 148.94 92.15 152.07 93.58 156.51"/><polyline class="cls-9" points="123.4 70.91 118.06 70.91 116.32 70.11 115.39 68.45 112.26 68.45 107.45 66.78 103.32 65.98 100.98 68.45 100.98 70.18 98.98 70.91 99.85 72.85 96.91 74.38 96.38 76.18 91.37 77.99 87.44 78.92 83.63 80.39 80.37 80.39 77.1 80.05 75.43 80.66 73.26 80.01"/></g><polygon class="cls-5" points="101.85 165.98 96.1 162.92 90.31 165.93 91.45 159.51 86.8 154.94 93.26 154.03 96.17 148.2 99.03 154.06 105.47 155.03 100.78 159.55 101.85 165.98"/><text class="cls-3" transform="translate(37.08 33.39)"><tspan x="0" y="0">PERÚ</tspan></text><text class="cls-1" transform="translate(153.45 100.89)"><tspan x="0" y="0">BOLIVIA</tspan></text><text class="cls-2" transform="translate(108.22 156.09)"><tspan class="cls-10" x="0" y="0">L</tspan><tspan x="4.61" y="0">A </tspan><tspan x="0" y="10.1">TIRANA</tspan></text></g></svg>