<?xml version="1.0" encoding="utf-8"?>
<!-- Generator: Adobe Illustrator 25.2.1, SVG Export Plug-In . SVG Version: 6.00 Build 0)  -->
<svg version="1.1" id="Capa_1" xmlns="http://www.w3.org/2000/svg" xmlns:xlink="http://www.w3.org/1999/xlink" x="0px" y="0px"
	 viewBox="0 0 243.9 305.8" style="enable-background:new 0 0 243.9 305.8;" xml:space="preserve">
<style type="text/css">
	.st0{fill:#91D3EB;}
	.st1{fill:#FBCF49;stroke:#FFFFFF;stroke-width:0.75;stroke-miterlimit:10;}
	.st2{fill:#B299C8;stroke:#FFFFFF;stroke-width:0.75;stroke-miterlimit:10;}
	.st3{fill:#3B7494;}
	.st4{fill:#CAB9DC;stroke:#FFFFFF;stroke-width:0.75;stroke-miterlimit:10;}
	.st5{fill:none;stroke:#5FBAEA;stroke-width:3;stroke-linecap:round;stroke-linejoin:round;}
	.st6{fill:#EEEEEE;}
	.st7{font-family:'Roboto-Black';}
	.st8{font-size:20.22px;}
	.st9{font-size:18.34px;}
	.st10{fill:#FACD34;}
	.st11{fill:#FFFFFE;}
	.st12{font-size:6.72px;}
	.st13{fill:#B299C8;}
	.st14{fill:#CAB9DC;}
	.st15{fill:#FBCF49;}
</style>
<rect x="0.4" y="0.4" class="st0" width="243.1" height="305.1"/>
<path class="st1" d="M63.8,305.5h137.5c2.3-10.3,4.2-25.8,4.9-40.1c-13.2,8.8-24.8,13.5-27,8.6c-3.9-8.8,0.8-35.4-10.8-46.6
	c-11.6-11.2-4.3-34.1-15.8-39c-11.6-4.9-25.9-27.5-15.8-35.2c10.1-7.7-0.3-22.7,8.5-30.4c8.8-7.7-5.2-8.7-18.2-23.7
	c-13-15,4.6-34.2-10.8-45.3C100.9,42.5,100.7,28.6,96.9,35c-3.8,6.3-4.7,27.8-17.4,34.3c-2.1,1-5.4,3.6-9.3,6.8
	c0,1.1,0.7,2.4,0.6,3.7c0,1-0.8,2-0.8,3.1c-0.1,0.8-0.9,1.5-1,2.4c-0.1,0.9,0.7,1.9,0.6,2.9c-0.1,1,0.5,2.1,0.5,3.2
	c-0.1,1-0.9,2-0.9,3c0,0.6-0.1,1.1-0.1,1.7c0,0.5,0.5,1.4,0.5,1.9c0,0.3,0,0.7,0,1c0,0.4,0,0.9,0,1.3c0,0.2,0,0.3,0,0.5
	c0,1-0.5,1.6-0.5,2.6c0,0.9-0.9,1.8-0.9,2.7c0.1,0.7,1.1,1.3,1.2,2c0.3,2,0.7,3.8,1.3,5.5c0.1,0.4,0.8,0.5,0.9,0.8
	c0.1,0.2-0.4,0.6-0.3,0.7c0.4,1.1,0.9,2.5,1.3,4c0,0.1-0.5,0.2-0.4,0.3c0,0.1,0.1,0.4,0.1,0.6c0,0.2,0.6,0.2,0.7,0.3
	c0.4,1.6,0.8,3.5,1.2,5.6c0,0.2-0.8,0.4-0.8,0.5c0,0.2,0.9,0.3,0.9,0.4c0.3,1.7,0.5,3.5,0.8,5.4c0.1,0.5,1.5,1.1,1.6,1.6
	c0.1,0.5,0.1,0.9,0.2,1.4c0.1,1.2-1.1,2.4-1,3.6c0.2,2.3-0.8,4.8-0.5,7.2c0.1,1.1,0.5,2.1,0.8,3.1c0.4,1.1,0.8,2.3,0.9,3.5
	c0.1,1.2,0.2,2.5,0.2,3.7c0,0.8,0.1,1.5,0.1,2.3c0,0.7,0.1,1.3,0.1,2c0,0.9,1.4,2.2,1.4,3.2c0,0.6,0.1,1.2,0.1,1.8
	c0,1,0.1,2.1,0.1,3.1c0,1.3,0.1,2.6,0.1,4c0,0.6,0,1.2,0.1,1.8c0,0.8-1.2,1.3-1.2,2.2c0,0.4,0,0.8,0,1.1c0,0.8,0,1.5,0,2.2
	c0,0.9,0,1.7,0,2.6c0,0.5-1,1.1-1,1.6c0,0.8,0,1.6,0,2.4c0,0.9,0,1.8,0,2.7c0,0.8,0,1.6,0,2.4c0,0.5,1,0.9,1,1.4
	c0,0.9,0,1.7-0.1,2.6c0,0.8-2.4,1.8-0.1,2.3c0.5,0.1,0,1.1-0.1,1.6c0,0.4,0,0.9,0,1.3c0,0.7-0.1,1.4-0.1,2c0,0.6,1.1,2.6,1,3.2
	c0,0.6-1.2-0.1-1.2,0.5c0,0.5-0.1,0.9-0.1,1.4c-0.1,0.9-1.2,1.7-1.2,2.6c-0.1,0.9,0.9,1.9,0.8,2.7c-0.1,0.8,1.2,2.7,1.1,3.5
	c-0.1,0.5-1.5-0.1-1.5,0.4c-0.1,0.9-0.2,1.8-0.3,2.6c-0.2,1.1-0.3,2.1-0.5,3.1c-0.1,0.5-1.4,0.9-1.5,1.4c-0.3,1.4,0.6,2.8,0.4,4.1
	c-0.3,1.6-2,3.1-2.3,4.6c-0.1,0.4,1.1,0.9,1,1.3c-0.3,1.3,0.3,3.2,0,4.5c-0.3,1.3-1.4,2-1.7,3.3c-0.2,0.8,0.9,2,0.8,2.8
	c-0.3,1.2-1.8,1.9-2.1,3c-0.2,0.9-1.4,1.8-1.6,2.6c-0.3,1.3,0.4,2.6,0.1,3.8c-0.2,0.7-1.4,1.7-1.5,2.4c-0.4,1.5-0.6,2.9-1,4.3
	c-0.2,0.6,0.5,1.2,0.4,1.9c-0.1,0.5,0.6,2,0.4,2.5c-0.3,1.1-1.4,1.3-1.7,2.4c-0.3,1-1.4,1.9-1.6,2.9c-0.6,2.3-0.4,4.6-1,6.7
	c-0.4,1.4-0.8,2.8-1.2,4.1c-0.5,1.7,0.6,3.2,0,4.8c-0.2,0.5-2,1.3-2.2,1.8c-0.1,0.3-0.2,0.5-0.3,0.8c-0.4,1.1-2.5,5.3-2.7,6.2
	C55.2,302.2,60.8,302.6,63.8,305.5L63.8,305.5z"/>
<path class="st2" d="M0.4,0.4v15.6c0.8,0.6,1.1,1.9,1.9,2.5c0.8,0.6,2.4-0.1,3.1,0.5c0.5,0.4,0.9,1.5,1.4,1.9
	c0.2,0.2,0.4,0.3,0.6,0.5c0.5,0.4,0.3,1.2,0.7,1.6c0.3,0.2,0.5,0.5,0.8,0.7c0.3,0.3,0.6,0.6,1,0.9c0.5,0.4,1.5,0.4,2,0.9
	c0.6,0.6,1.2,2.3,1.7,2.8c0.4,0.5,0.7-0.2,1.1,0.3c0.4,0.5,1.8,1,2.1,1.6c0.4,0.6-0.3,1.2,0.1,1.8c0.4,0.5,0,1.1,0.4,1.6
	c0.3,0.4,1.3,0.8,1.6,1.1c0.3,0.4,0.7,0.8,1,1.2c0.5,0.6,1.6,0.2,2.2,0.8c0.3,0.3,0.5,0.5,0.8,0.8c0.5,0.5,0.6,2.1,1.2,2.6
	c0.3,0.3,0.6,0.5,0.8,0.8c0.4,0.4,0.8,0.7,1.2,1.1c0.3,0.3,0.5,1.4,0.9,1.7c0.5,0.4,1.1,0,1.6,0.4c0.3,0.3,1.4-0.4,1.7-0.1
	c0.5,0.4,0.4,1.8,0.9,2.2c0.4,0.3,0.9,0.7,1.3,1c0.2,0.2,0.9-0.7,1.1-0.5c0.5,0.3,0.9,0.7,1.4,1c0.4,0.3,0.4,1.6,0.8,1.9
	c0.4,0.3,0.8,0.5,1.1,0.8c0.6,0.4,1.6,0.3,2.2,0.7c0.5,0.4,0.6,1.2,1.1,1.6c0.5,0.3,1,0.7,1.5,1c0.2,0.2,0.5,0.3,0.7,0.5
	c0.6,0.4,1.7,0,2.3,0.4c0.5,0.3,0.5,1.4,1,1.7c0.3,0.2,0.6,0.4,0.9,0.5c0.6,0.3,1.1,0.7,1.7,1c0.3,0.2,0.7,0.4,1,0.6
	c0.5,0.3,1,0.6,1.5,0.9c0.4,0.2,0.6,1.2,1,1.4c0.3,0.2,0.6,0.3,0.9,0.5c0.6,0.3,1.1,0.6,1.7,0.9c0.6,0.3,1.3-0.1,1.9,0.2
	c0.3,0.1,0.5,0.3,0.8,0.4c0.5,0.3,1,0.6,1.5,0.8c0.7,0.4,1.3,1.5,2,1.8c0.5,0.3,1,0.5,1.5,0.8c0.6,0.3,1.2,0.6,1.7,0.9
	c0.4,0.2,0.8-0.3,1.2-0.2c0.2,0.1,0.4,0.2,0.6,0.3c0.7,0.3,1.2,0.6,1.7,0.9c0.2,0.1,0.4,0.2,0.6,0.3c0.4,0.2,0,1.6,0.3,2
	c0.2,0.3,1.2-0.5,1.3-0.1c0.2,0.4,0.3,0.8,0.4,1.2c0.1,0.4,1.4,1.2,1.5,1.7c0.2,1-1,1.9-0.9,3.2c1.1-0.9,2-0.8,3-1.5
	c0.4-0.3,0.9-1.6,1.3-1.9c0.4-0.3,1.3-0.2,1.7-0.5c0.5-0.4,0.7-1.3,1.1-1.6c0.2-0.2,1.1,0,1.3-0.1c0.6-0.4,0.4-1,0.9-1.2
	c0.3-0.2,1.7,0.3,2,0.1c0.2-0.1,0.3-0.2,0.5-0.3c0.2-0.2,0.5-0.3,0.7-0.5c0.3-0.3-0.3-1.2,0-1.4c0.5-0.4,1.1-0.1,1.5-0.5
	c0.2-0.2,0.2-1.1,0.4-1.3c0.2-0.2,1.5-0.7,1.7-0.9c0.2-0.2,0.4-0.5,0.6-0.8c0.4-0.5-0.4-0.8,0-1.3c0.3-0.4,0.5-0.8,0.8-1.3
	c0.3-0.4,1-0.8,1.2-1.2c0.4-0.7,0.2-1.5,0.5-2.2c0.3-0.7,2.3-2.1,2.6-2.8c0.6-1.4-0.7-2-0.2-3.5c0.3-1.1,2.4-3.3,2.7-4.4
	c0.3-1.2,0.6-2.3,0.9-3.5c0.4-1.5-1-1.7-0.6-3c0.1-0.3,1.2,0,1.3-0.3c0-0.2-0.9-0.9-0.9-1.1c0.5-1.7,1.8-1,2.4-2.1
	c0.5-0.9,0.2-3.5,0.7-3.6c-1.2-7.7-1.2-14.9,3.4-17.5c3.6-2.1,6.9-7.9,9.7-15.6C111.5,0.4,0.4,0.4,0.4,0.4z"/>
<path class="st3" d="M144.5,107.6c-5-3.8-7.6-5.7-9.7-7.6c-1.8-1.7-4.2-4-6.6-7.3h-5.7l-4.1,3.9l-0.8,4.7l-6.6,0.8l-6.6-4.7H92.6
	L79.3,106c-2.1,0.6-4.7,1.4-6.8,2.1l0,0l-2.9,0c0.3,2,0.7,3.8,1.3,5.5c0.1,0.4,0.8,0.5,0.9,0.8c0.1,0.2-0.4,0.6-0.3,0.7
	c0.4,1.1,0.9,2.5,1.3,4c0,0.1-0.5,0.2-0.4,0.3c0,0.1,0.1,0.4,0.1,0.6c0,0.2,0.6,0.2,0.7,0.3c0.4,1.6,0.8,3.5,1.2,5.6
	c0,0.2-0.8,0.4-0.8,0.5c0,0.2,0.9,0.3,0.9,0.4c0.3,1.7,0.5,3.5,0.8,5.4c0.1,0.5,1.5,1.1,1.6,1.6c0.1,0.5,0.1,0.9,0.2,1.4
	c0.1,1.2-1.1,2.4-1,3.6c0.2,2.3-0.8,4.8-0.5,7.2c0.1,1.1,0.5,2.1,0.8,3.1c0.4,1.1,0.8,2.3,0.9,3.5c0.1,1.2,0.2,2.5,0.2,3.7
	c0,0.8,0.1,1.5,0.1,2.3c0,0.7,0.1,1.3,0.1,2c0,0.9,1.4,2.2,1.4,3.2c0,0.6,0.1,1.2,0.1,1.8c0,1,0.1,2.1,0.1,3.1c0,1.3,0.1,2.6,0.1,4
	c0,0.6,0,1.2,0.1,1.8c0,0.8-1.2,1.3-1.2,2.2c0,0.4,0,0.8,0,1.1c0,0.8,0,1.5,0,2.2c0,0.9,0,1.7,0,2.6c0,0.5-1,1.1-1,1.6
	c0,0.8,0,1.6,0,2.4c0,0.9,0,1.8,0,2.7c0,0.8,0,1.6,0,2.4c0,0.5,1,0.9,1,1.4c0,0.9,0,1.7-0.1,2.6c0,0.8-2.4,1.8-0.1,2.3
	c0.5,0.1,0,1.1-0.1,1.6c0,0.4,2.3-0.8,2.3-0.8l0,0c4.3-0.6,9.6-0.8,15.4,0.2c1.3,0.2,2.6,0.5,3.8,0.8c8.6-2.1,17.1-4.2,25.7-6.3
	c2.9-0.1,5.3-0.6,7-1c2.9-0.7,3.6-1.2,3.9-1.6c1.3-1.2,0.8-2.2,1.9-5.4c1.2-3.2,2.5-4.6,1.8-5.7c-0.3-0.5-1-0.7-1.5-0.9
	c-1.8-0.5-2.8,0.6-4.6,0.6c-0.8,0-1.9-0.2-3.3-1.2c-1,0.1-1.8-0.7-1.8-1.5c0-0.7,0.5-1.3,1.2-1.5l10.4,0c2,0.8,4,1.6,6.1,2.4
	c-2.5-2.5-6.5-7-8.9-13.1c0,0-2-5.1-1.5-9.6c0.2-1.7,0.7-2.8,0.9-3c0.5-0.9,1.1-1.6,2.5-3.1c1.5-1.6,2.2-2.4,2.5-2.7
	c3.3-3.5,1.3-12.2,2.3-20.4c0.2-1.6,0.5-3.5,1.8-5.1c1-1.3,1.9-2.2,1.9-2.2c0.8-0.8,1.1-1,1.6-1.7c0.7-0.9,1.1-1.9,1.2-2.3
	C151.3,112.7,148.1,110.3,144.5,107.6z"/>
<path class="st2" d="M243.5,0.4H111c-0.5,1.3-2.2,1.8-2.7,3c-0.2,0.5,0.9,1.8,0.7,2.2c-0.5,1.1-2.2,1.5-2.7,2.5
	c-0.6,1.2-1.3,2.4-1.9,3.3c-0.4,0.6,0.4,1.9-0.1,2.4c-0.8,0.9-2.1,1.1-2.9,1.5c-1.4,0.8-1.8,2.6-2.5,4.1c-0.6,1.5-1.9,2.9-2,4.9
	c-0.1,1.3,0.9,3.1,1,4.5c0.1,0.7,0.1,1.5,0.2,2.2c0.1,0.8,0.2,1.6,0.3,2.4c0.6-0.2,1.2,0.3,2,1.3c0.9,1.2,0.7,3.6,2.3,6.1
	c0.9,1.4,3.3,2.7,4.6,4.3c0.4,0.5,0.2,1.2,0.6,1.7c1.4,1.5,2.8,4.2,4.6,5.8c1,0.8,2.7,0.2,3.8,1c1.6,1.2,1.8,2.7,2.7,4
	c0.8,1.1,1.4,2.2,1.8,3.3c0.2,0.6-0.4,1.2-0.2,1.8c0.3,1.3,1.4,2.7,1.5,4.1c0.2,2.3-0.7,4.4-1,6.9c-0.1,0.7-0.1,1.3-0.2,2
	c-0.1,0.9-0.1,1.8-0.1,2.8c0,0.8,0.7,2,0.8,2.8c0.1,1.7,0.2,3.5,0.4,5.2c0,0.4-1.2,0.9-1.1,1.2c0.1,0.8,0.3,1.7,0.4,2.5
	c0.3,1.2,1.9,2.3,2.4,3.4c0.4,0.8,0.8,1.7,1.3,2.5c0.2,0.4,0.5,0.7,0.7,1.1c0.4,0.5,0.8,1.1,1.3,1.6c0.3,0.3-0.4,1.6-0.2,1.9
	c0.3,0.4,1.6-0.3,1.9,0c0.6,0.7,1.3,1.3,1.9,1.9c0.3,0.3,0.1,2.5,0.4,2.8c0.8,0.7,1.9-0.6,2.7,0c0.2,0.2,0.5,0.4,0.7,0.6
	c0.5,0.4,0.9,0.7,1.3,1.1c0.4,0.3,0.7,0.6,1.1,0.8c0.2,0.2,0.4,0.3,0.6,0.5c0.4,0.3,0.6,2,1,2.3c0.2,0.2,0.4,0.3,0.7,0.5
	c0.3,0.2,0.7,0.5,1,0.7c0.2,0.1,0.3,0.2,0.5,0.3c0.4,0.3,1.1-0.7,1.5-0.4c0.3,0.2,0.5,0.4,0.8,0.6c0.4,0.3,0.8,0.6,1.1,0.9
	c1.7,1.3,2.9,2.4,3.4,3.5c0.6,1.2,0.5,2.4-0.6,3.8c-0.3,0.4-1.9-0.3-2.4,0.1c-0.2,0.2-0.4,0.4-0.7,0.6c-0.7,0.6-0.1,2.4-0.5,3.1
	c-0.7,1-1.2,2.1-1.5,3.3c-0.3,1-1.6,1.6-1.7,2.6c0,0.5-0.1,1-0.1,1.5c0,0.6,1.1,1.5,1.1,2.1c0,1.1,0.1,2.3,0.1,3.5
	c0,0.3-1.4,0.3-1.4,0.6c0,0.8,0.1,1.7,0.1,2.5c0,1.3,1.3,2.9,1.2,4.1c0,0.2-0.1,0.4-0.1,0.6c-0.2,1.2-0.5,2.3-1,3.4
	c-0.5,1.1-1.9,1.2-2.8,2.2c-0.5,0.5-1,1-1.6,1.4c-0.5,0.3-0.1,1.6-0.5,2c-1,1.2-1.7,2.5-2,4.1c-0.1,0.6-0.2,1.2-0.2,1.8
	c0,0.4-2.4,2-1.3,2c1,0,1.5,1.2,1.7,2.2c0.1,0.5,0.2,1,0.4,1.6c0.3,1.1,0.7,2.3,1.2,3.4c0.3,0.8,0.7,1.5,1.1,2.3
	c0.5,1-0.1,2.5,0.5,3.5c0.5,0.8,2.3,1.2,2.8,1.9c0.2,0.2,0.3,0.5,0.5,0.7c0.4,0.5,0.7,1,1.1,1.4c0.4,0.5,0.8,0.9,1.1,1.3
	c0.5,0.6,1,1.2,1.6,1.7c0.4,0.4-0.6,1.6-0.2,1.9c0.4,0.3,0.7,0.7,1.1,1c0.4,0.3,0.7,0.6,1.1,0.9c0.4,0.3,2.1-0.2,2.5,0.1
	c0.9,0.6,1.8,1.2,2.7,1.7c0.4,0.2,0.8,0.4,1.3,0.6c0.7,0.3,1.4,0.7,2,1.1c0.9,0.7,0.3,1.6,1,2.5c0.4,0.5,2,1,2.3,1.6
	c0.4,0.9-0.5,1.7-0.2,2.7c0.3,1.1,0.6,2.3,0.8,3.6c0.1,0.6,0.2,1.2,0.3,1.7c0.1,0.5,1.4,1.1,1.4,1.6c0.2,1.1,0.3,2.2,0.5,3.4
	c0,0.2,0.1,0.4,0.1,0.7c0.1,0.4-1,1.2-0.9,1.6c0.1,0.8,0.3,1.7,0.4,2.5c0.3,1.5,1.6,2.7,2,4.1c0.2,0.7,0.4,1.5,0.6,2.2
	c0.3,0.9-0.3,2.4,0.1,3.3c0.1,0.2,0.2,0.4,0.3,0.6c0.3,0.6,0.5,1.1,0.9,1.7c0.3,0.5,0.6,1.1,1,1.6c0.2,0.4,1.4,0,1.6,0.4
	c0.5,0.7,1.1,1.3,1.7,1.9c0.2,0.2,0.5,0.5,0.7,0.7c0.6,0.6-0.9,2.3-0.4,3c0.6,0.8,3.1,0.7,3.6,1.6c0.5,0.9,0.9,1.9,1.3,3
	c0.3,0.9,0.7,1.8,0.9,2.8c0.3,1.1,0.6,2.3,0.9,3.5c0.1,0.3,0.1,0.7,0.2,1c0.1,0.5-0.7,1.2-0.6,1.8c0.1,0.5,0.1,0.9,0.2,1.4
	c0.1,0.7,0.2,1.5,0.3,2.2c0.1,0.6,1.1,1.1,1.1,1.7c0.1,0.6,0.1,1.1,0.1,1.7c0,0.3,0.1,0.7,0.1,1c0.1,0.9-1.2,1.9-1.2,2.8
	c0.1,0.9,1.4,1.8,1.5,2.7c0,0.5,0.1,1.1,0.1,1.6c0,0.4,0,0.7,0.1,1c0,0.5-0.7,0.8-0.7,1.2c0,0.6,0.8,1.4,0.9,2
	c0.1,1.4,0.2,2.8,0.4,4c0.1,0.8-0.4,1.2-0.3,1.9c0.3,1.3,1.2,2.9,1.7,3.8c0.2,0.5,0.6,1,1.1,1.3c0.6,0.4,1.3,0.6,2.2,0.7
	c1.2,0.1,2.7,1.5,4.4,1c1.6-0.4,3.5-1.1,5.4-2c1.1-0.5,2.2-2.6,3.3-3.2c0.9-0.5,2.3,0.6,3.3,0c0.7-0.4,1-2.4,1.8-2.9
	c0.8-0.5,2.1-0.6,3-1.1c11.3-7.1,24-18.1,33.8-28.7c2.3-2.4,4.3-4.4,6.1-5.9L243.5,0.4L243.5,0.4z"/>
<path class="st4" d="M243.5,305.5v-72.2c-0.9,0.8-2.5-0.7-3.6,0.4c-0.7,0.7-0.7,3.7-1.5,4.5c-0.3,0.3-0.9-0.5-1.3-0.1
	c-0.5,0.6-0.8,2.4-1.4,3c-0.7,0.8-1.7,0.1-2.5,0.8c-0.8,0.8-1.3,3-2.1,3.7c-0.3,0.3-0.7,0.7-1,1c-0.7,0.7-2.1,0-2.8,0.6
	c-0.4,0.4-0.2,2.2-0.6,2.5c-0.8,0.7-1.7,1.5-2.5,2.2c-0.5,0.4-2-0.2-2.4,0.2c-0.7,0.6-1.5,1.2-2.3,1.9c-0.6,0.5-1.2,1-1.8,1.4
	c-0.6,0.5-0.2,2-0.9,2.5c-0.6,0.5-1.3,1-1.9,1.5c-0.5,0.3-0.7-0.5-1.2-0.2c-0.7,0.5-1.6,2.2-2.3,2.7c-0.7,0.5-1.7-0.3-2.5,0.3
	c-0.5,0.4-0.8,2-1.4,2.4c-0.5,0.3-1,1.6-1.5,1.9c-0.1,1.5-0.2,2.2-0.3,3.7c-0.1,0.8-0.1,1.6-0.2,2.3c-0.1,0.8-0.1,1.7-0.2,2.5
	c-0.1,0.9-0.2,1.8-0.2,2.8c-0.1,1-0.8,1.7-0.9,2.7c-0.1,1.2,0.4,2.7,0.2,3.9c-0.1,0.6-0.1,1.3-0.2,1.9c-0.1,0.5-0.9,1-1,1.4
	c-0.2,1.4,0.5,2.7,0.3,4c-0.1,0.4-0.1,0.9-0.2,1.3c-0.1,0.5-0.1,0.9-0.2,1.3c-0.1,0.6-1,1.1-1.1,1.6c-0.1,0.5-0.2,1-0.2,1.5
	c-0.1,0.7,0.6,1.5,0.5,2.1c-0.1,0.3-0.1,0.6-0.2,1c-0.2,0.9-2,1.8-2.1,2.6c-0.1,0.6,1.4,1.1,1.3,1.6c-0.1,0.3-0.1,0.5-0.2,0.8
	L243.5,305.5L243.5,305.5z"/>
<g id="Capa_4">
	<path class="st5" d="M182.7,274.5l-3,2.5c0,0-3.5-1-5.1-1s-7.7,0-7.7,0s-2.1-1.4-3.5-0.2l-1.4,1.2l-6.6-10.3
		c0,0-19.8-7.5-22.2-11.4s-1.6-7-1.6-7l-4.7,0.7l-3.3-1.8l-11.4-0.9h-10.3l1.2-6.3l-2.4-5.2c0,0,5.1-7.7,5.4-11.6s-2.6-7.2-2.6-7.2
		l2.6-9.6l-4-14.9l-2.8-2.8v-1.8l-2.5-5.8l4.1-10.5l-5.1-11.7"/>
	<polyline class="st5" points="75,72.8 72.7,77 74.1,80.6 74.3,84.2 73.1,88.7 75.4,90.1 81,94.5 82.5,94.5 82.5,96.8 81.8,101.8 
		76.3,105.8 77.2,107.3 79,108.6 82.5,108.6 86.4,110.7 87.4,114.8 85.6,119.4 85.3,123.6 85.9,124.7 85.6,126.9 92,138.4 
		92.7,142.9 94.2,146.5 94.2,148.9 92.8,152.1 94.2,156.5 	"/>
	<polyline class="st5" points="124,70.9 118.7,70.9 117,70.1 116,68.4 112.9,68.4 108.1,66.8 104,66 101.6,68.4 101.6,70.2 
		99.6,70.9 100.5,72.8 97.5,74.4 97,76.2 92,78 88.1,78.9 84.3,80.4 81,80.4 77.7,80 76.1,80.7 73.9,80 	"/>
</g>
<text transform="matrix(1 0 0 1 37.7181 33.3814)" class="st6 st7 st8">PERÚ</text>
<text transform="matrix(1 0 0 1 154.0881 100.8814)" class="st6 st7 st9">BOLIVIA</text>
<polygon class="st10" points="102.5,166 96.7,162.9 90.9,165.9 92.1,159.5 87.4,154.9 93.9,154 96.8,148.2 99.7,154.1 106.1,155 
	101.4,159.5 "/>
<text transform="matrix(1 0 0 1 105.045 163.691)" class="st11 st7 st12">L</text>
<text transform="matrix(1 0 0 1 108.7251 163.691)" class="st11 st7 st12">A </text>
<text transform="matrix(1 0 0 1 105.045 171.751)" class="st11 st7 st12">TIRANA</text>
<polygon class="st13" points="243.9,232.9 243.9,0 111,0 111.5,1.3 235.9,7.8 243.1,232.9 "/>
<polygon class="st14" points="243.9,232.9 243,232.9 242.9,234.8 201.7,305.1 201.3,305.8 243.9,305.8 "/>
<polygon class="st15" points="201.7,305.1 199.9,304.6 65.5,303.1 63.7,305.5 63.5,305.8 201.3,305.8 "/>
<polygon class="st13" points="111,0 0,0 0,16.4 1.1,15.7 2,13.7 109.3,1.2 110.4,0.8 111.3,0.8 "/>
</svg>
