<?xml version="1.0" encoding="utf-8"?>
<!-- Generator: Adobe Illustrator 24.0.1, SVG Export Plug-In . SVG Version: 6.00 Build 0)  -->
<svg version="1.1" id="Map" xmlns="http://www.w3.org/2000/svg" xmlns:xlink="http://www.w3.org/1999/xlink" x="0px" y="0px"
	 viewBox="0 0 1399.1 2449.8" style="enable-background:new 0 0 1399.1 2449.8;" xml:space="preserve">
<style type="text/css">
	.st0{fill:#1D1D1B;}
	.st1{fill:#EDEDEC;stroke:#EDEDEC;stroke-miterlimit:10;}
	.st2{fill:#EDEDEC;}
	.st3{fill:none;stroke:#1D1D1B;stroke-miterlimit:10;}
	.st4{fill:#387298;}
	.st5{fill:none;stroke:#000000;stroke-width:0.5;stroke-miterlimit:10;}
	.st6{fill:#C8B9DB;}
	.st7{fill:#F3CA4A;stroke:#F3CA4A;stroke-miterlimit:10;}
	.st8{fill:none;stroke:#1D1D1B;stroke-width:0.5;stroke-miterlimit:10;}
	.st9{fill:#58B8E5;stroke:#58B8E5;stroke-miterlimit:10;}
	.st10{fill:#F3A545;}
	.st11{fill:#F3CA4A;}
	.st12{fill:#1D1E1B;}
</style>
<g>
	<g>
		<path class="st0" d="M642.8,197.2c-21.6,15.3-27.8,39.2-35,66.5c-15.4,58.8-1.4,108,27.1,204c16.2,54.5,23.4,64.1,33.8,70.8
			c36.8,23.8,98.1,0.3,133.1-32.4c39.2-36.7,45.3-85,48.5-110.1c3.3-26.2,12.9-102.4-39.5-158.2
			C767.4,191.3,687.4,165.5,642.8,197.2z"/>
		<path class="st1" d="M874.6,600.7c-2.5,8.8-14,13.3-21.9,15.5c4.2,7.4,12.7,20.2,28.1,30.5c3.4,2.3,13,8.6,25.8,11.7
			c38.2,9.3,79.9-16.1,78.3-26.3c-0.5-2.9-4.1-3-14.9-11.9c-5.3-4.4-9.2-8.4-11.6-10.9c6.4-2.9,15.7-8.2,24.3-17.5
			c23.6-25.5,20.9-59.5,20.1-69.7c-1.1-15.2-2.9-38.8-22.1-56.1c-23.7-21.2-55-15.8-60.1-14.9c-28.1,5.3-43.5,25.6-50.6,34.8
			c-4.9,6.4-25.5,33.4-20.1,68.4C853.5,578.9,878.4,587,874.6,600.7z"/>
		<path class="st2" d="M657.6,789.6c-7.9-0.7-7.6-2.7-13-2.1c-10.8,1.2-14.1,9.3-25.2,9.7c-2.8,0.1-7.7,0.2-10.3-2.9
			c-5.5-6.7,5.1-23,6.9-25.7c6.8-10.4,15.7-17,22.9-21c8.5-4.7,28.5-16,46.8-7.7c9.7,4.4,20.5,14.9,19,24.9c-0.7,5-4.3,8.1-8.9,12.2
			C694.3,778.4,678.9,791.6,657.6,789.6z"/>
		<path class="st2" d="M1157.7,805.2c-2-0.4-18.1-4-27.3,7.1c-4.8,5.8-7.3,15.2-3.7,22.4c6.5,13,28.5,10.2,33,9.7
			c4.7-0.6,20.9-2.7,23.6-11.8C1186.2,822.7,1172.3,808.4,1157.7,805.2z"/>
		<path class="st2" d="M827.7,1129.2c3,13.4-15.3,28.6-18.9,31.6c-5.2,4.3-20.4,17-38.4,11.4c-10.6-3.3-23.7-13.4-23.8-24.5
			c-0.1-7.8,6.3-8.4,14.8-26.8c4.4-9.5,4.6-13.5,8.8-16c5-3.1,10.8-0.8,19.9,3.2C814.4,1118.8,826.6,1124.2,827.7,1129.2z"/>
		<path class="st2" d="M853.5,1220.7c-0.5,10.5-14.7,17.8-24.3,22.8c-3.1,1.6-13.5,4.6-34.1,10.4c-10.2,2.9-13.7,3.8-18.8,3
			c-7.2-1.2-17.7-6-19.7-14.8c-1.8-7.6,3.5-14.3,8.7-20.8c3.9-4.9,11.8-13.4,25.9-19.3c0.7-4,1.8-9.9,3.4-16.9
			c5-23.3,7.4-26.3,9.8-28.3c6-4.7,14.4-4.6,21-4.5c5.2,0.1,9.5,0.9,12.4,1.7c-0.9,5.5-1.6,13.2-0.8,22.3c0.4,4.4,1.2,12.7,5.1,22.2
			C847.8,1212.9,853.8,1213.8,853.5,1220.7z"/>
		<path class="st1" d="M670.5,475.6c3.5-2.2,17.3-11.2,21.4-28.6c1.8-7.5,1.2-14.1,0.4-18.4c-5.9-3.1-14.3-8.4-22.6-16.8
			c-14.3-14.5-20.2-30.3-24.7-44.1c-17.7-54.2-26.5-81.3-18.9-110.1c2.9-11.1,9.8-37.1,34.6-54.8c1.9-1.4,33.7-23.2,71.2-12.5
			c32.4,9.2,47.9,36.8,60.1,58.4c21,37.3,26.4,82,23.6,111.7c-0.5,5.5-1.5,12.9-1.1,24c1.1,29.5,10.4,36.9,10.6,54.9
			c0.3,26.5-19.3,46.7-30.3,58.1c-11.8,12.1-29.5,30.4-54.4,31.1C712.5,529.4,685.1,507.9,670.5,475.6z"/>
		<path class="st3" d="M685.2,428.5c5.3,2.6,14.1,5.9,25.1,5.9c22.1,0.1,37.6-13.1,47.3-21.4c18.7-16,27.4-35.1,31.4-46.5"/>
		<path class="st3" d="M876.6,593.2c4.1,4,14.9,13.4,33.1,17.4c24.6,5.4,44.8-3,49.5-5.1"/>
		<g>
			<path class="st4" d="M664,583c-3-10.2-6.2-25.8-5-44.8c1.6-25,10-43.9,15.6-54.3c4.2,4.3,9.9,9.4,17.3,14
				c12.6,7.8,24.6,11,32.6,12.4c12.6,0.7,25.2,1.5,37.7,2.2c-3,6.6-7.3,17.2-10.7,30.7c-5.4,21.2-2.8,26.5-9,39.3
				c-8,16.6-14.2,14.3-19.8,29c-2.8,7.3-2.9,15.6-3,32.2c-0.2,20.9,2.2,19.8,1,31.6c-0.6,6.2-1.6,9.2-10,38
				c-2.1,7.4-4.3,14.7-5.9,20.2c-10.9-0.8-21.8-1.5-32.7-2.3c1.4-5.4,3-13.4,3.2-23.1c0.2-14.2-3-21-5.7-35.3
				c-2.1-11-1.1-11.7-3-48.9C666,614.2,665.3,600.2,664,583z"/>
			<g>
				<path class="st4" d="M669.2,581.6c-9.2-31.7-5.5-66.1,10.1-95c-2.8,0.4-5.6,0.7-8.4,1.1c11.3,11.7,25.5,20.4,41.1,25.1
					c3.1,0.9,6.2,1.7,9.3,2.3c4.1,0.8,8.4,0.8,12.6,1.1c9.4,0.6,18.9,1.1,28.3,1.7c-1.5-2.7-3.1-5.3-4.6-8
					c-4,8.9-7.4,18.1-10.1,27.5c-2.5,9-4.1,18-5.4,27.2c-1.1,7.5-3.2,14-7,20.3c-3.8,6.4-9.9,10.8-13.8,17.1
					c-4.2,6.8-6,14.3-6.6,22.1c-0.8,9.8-0.8,19.9-0.4,29.8c0.2,5.2,1.2,10.4,1.2,15.6c0,2.4-0.3,4.8-0.5,7.2c-0.1,1,0.3-1.6,0-0.3
					c-0.1,0.3-0.1,0.6-0.1,0.8c-0.1,0.7-0.3,1.4-0.4,2.1c-1.2,5.6-2.9,11.2-4.5,16.7c-3.5,12-7,24-10.5,36c1.7-1.3,3.4-2.6,5.1-3.9
					c-10.9-0.8-21.8-1.5-32.7-2.3c1.7,2.2,3.4,4.5,5.1,6.7c3.2-12.5,4.3-25.5,2.4-38.3c-1.4-9.2-4.2-18.2-5.7-27.4
					c-0.2-1.3,0.1,1.4,0-0.3c0-0.4-0.1-0.8-0.1-1.2c-0.1-1-0.2-1.9-0.2-2.9c-0.2-2.5-0.2-4.9-0.3-7.4c-0.4-10.1-0.7-20.1-1.3-30.2
					c-0.7-13.9-1.6-27.9-2.5-41.8c-0.2-2.9-2.3-5.3-5.3-5.3c-2.7,0-5.5,2.4-5.3,5.3c1.6,23,2.9,46,3.7,69.1
					c0.2,4.7,0.2,9.4,0.8,14.1c0.9,8.1,3.1,16,4.8,24c2.9,13.1,2.3,26.5-1.1,39.4c-0.9,3.5,1.7,6.5,5.1,6.7
					c10.9,0.8,21.8,1.5,32.7,2.3c2.3,0.2,4.5-1.8,5.1-3.9c4.8-16.7,10.2-33.3,14.4-50.1c2-8.1,2.1-16,1.3-24.3
					c-0.9-9.2-0.7-18.5-0.5-27.7c0.1-4.1,0.2-8.1,0.7-12.2c-0.1,0.7,0.2-1,0.2-1.3c0.2-0.8,0.3-1.7,0.5-2.5c0.4-1.6,0.9-3.1,1.5-4.6
					c2.9-6.8,7.9-10.4,12.5-16.3c5.2-6.7,9.2-14.7,10.9-23.1c1.8-8.7,2.5-17.5,4.6-26.1c2.6-10.7,6.3-21.5,10.7-31.3
					c1.7-3.7-0.3-7.8-4.6-8c-8.7-0.5-17.5-1-26.2-1.6c-3.9-0.2-8.1-0.1-11.9-0.8c-2.9-0.6-5.7-1.3-8.5-2.1
					c-14.1-4.2-26.9-12-37.1-22.6c-2.3-2.4-6.7-1.9-8.4,1.1c-13.4,24.9-19.2,53.7-15.5,81.8c0.9,7.2,2.3,14.4,4.4,21.4
					C660.8,591,671.1,588.2,669.2,581.6z"/>
			</g>
		</g>
		<g>
			<path class="st4" d="M230.7,1346.4c-2.1-2.3-16.7-18-11.8-28.9c1.9-4.3,5.8-6.7,10.6-8.2c8.6-2.7,23-8.7,35-22.1
				c14.7-16.5,17.7-35.2,21.2-57.3c2-12.6,3.8-31.6,1.1-54.9c2.1-0.7,11.5-4.1,15.1-13.2c3.5-8.7-0.6-17-3.4-22.8
				c-6.3-13-17-19.5-21.7-22.2c-17.9-10.6-36.3-9.5-44-8.5c5.2-3.1,16.4-8.6,31.6-8.9c4.4-0.1,15,0.3,37.3,11
				c20,9.6,23.2,14.9,50.6,31.5c18.6,11.2,27.9,16.9,37.5,19.3c23.7,6,44.9,0.8,52.7-1.2c10.4-2.7,18.7-6.4,24.5-9.4
				c-3.8,9.3-9.3,22-16.4,36.9c-10.1,21.1-17.8,37.2-28.6,53.9c-10,15.5-11.2,13.8-59.6,68.2c-20,22.5-24.2,27.7-34.7,35.4
				c-13.7,9.9-32,23.2-56.4,21.3C269.4,1366,247,1363.9,230.7,1346.4z"/>
			<g>
				<path class="st4" d="M234.5,1342.7c-2.9-3.1-4.6-5.3-6.9-8.8c-1.4-2.2-2.7-4.5-3.4-6.7c-0.4-1.1-0.8-2.7-0.9-3.5
					c-0.1-0.9-0.1-2,0.1-2.8c1.3-5.1,7.1-6.2,11.6-7.8c6.1-2.3,12-5.1,17.5-8.6c13.3-8.7,23.5-20.9,29.5-35.6
					c5.4-13.1,7.5-27.5,9.4-41.4c2.4-17.4,2.7-34.9,0.7-52.4c-1.3,1.7-2.6,3.4-3.9,5.1c6.8-2.3,13.2-6.6,17-12.9
					c6-10.1,2.8-21.1-2.1-30.9c-8.2-16.5-25.3-27.7-42.9-31.9c-8.9-2.1-18.2-2.6-27.3-1.5c0.9,3.3,1.8,6.6,2.7,9.9
					c6.7-3.9,14-6.5,21.9-7.7c3.1-0.4,6.2-0.6,9.3-0.5c0.9,0,1.9,0.1,2.8,0.2c1.5,0.1-0.5-0.1,0.5,0.1c0.7,0.1,1.4,0.2,2.1,0.4
					c15.5,2.9,30.7,10.4,43.9,19c5.8,3.8,11.4,7.8,17.2,11.7c9,6,18.2,11.5,27.4,17c7,4.2,14.1,8.3,21.8,11.3
					c9.1,3.6,19.3,4.8,29.1,5c20.1,0.3,40.5-4.9,58.3-14.1c-2.6-2-5.2-4-7.8-6c-6.1,14.7-12.7,29.1-19.6,43.4
					c-7,14.5-14.2,29-22.7,42.7c-1.7,2.7-3.4,5.4-5.2,7.9c-0.6,0.8-1.1,1.6-1.7,2.4c-0.3,0.4-0.6,0.7-0.8,1.1c-0.7,1,0.8-1-0.3,0.4
					c-2.9,3.7-6.1,7.2-9.3,10.6c-16.5,18-32.9,36-49.1,54.3c-7,7.9-13.9,16.3-21.9,23.3c-0.6,0.5-1.2,1.1-1.9,1.6
					c-0.4,0.3-0.7,0.6-1.1,0.9c-0.2,0.2-1.4,1.1-0.9,0.8c0.5-0.4-0.5,0.4-0.7,0.5c-0.4,0.3-0.8,0.6-1.3,0.9
					c-1.2,0.9-2.4,1.7-3.6,2.6c-5.3,3.8-10.7,7.5-16.5,10.5c-11.2,5.9-23,8.7-35.6,7.6c2,0.2-0.5-0.1-1-0.2c-1-0.2-1.9-0.4-2.9-0.6
					c-2.3-0.5-4.7-1.1-7-1.9c-5.8-1.9-11.3-4.7-16.4-8.2C239.6,1347.7,237,1345.3,234.5,1342.7c-4.7-5-12.2,2.5-7.5,7.5
					c17.2,18.3,44.4,25.9,68.5,18.6c13.3-4,24.9-11.8,36-20c7.2-5.3,13.5-11.6,19.5-18.2c18.3-20.3,36.4-40.8,54.9-60.9
					c6.9-7.5,13.8-14.9,19.4-23.4c7.9-11.9,14.6-24.5,20.9-37.2c7.7-15.6,15.2-31.3,22-47.3c1.4-3.2,2.7-6.5,4.1-9.7
					c1.9-4.7-4.1-7.9-7.8-6c-14.9,7.6-31.8,12.1-48.5,12.6c-9.9,0.3-20.2-0.7-29.5-4.1c-1.8-0.6-1.9-0.7-3.4-1.4
					c-1.7-0.8-3.4-1.6-5-2.5c-3.8-2-7.6-4.2-11.3-6.4c-9.3-5.5-18.6-11.1-27.5-17.1c-5.8-3.9-11.5-8-17.4-11.8
					c-6.4-4.2-13.2-7.8-20.1-11c-8.1-3.7-16.6-7.2-25.3-9.1c-15.7-3.3-32.4,0.4-46.1,8.4c-4.2,2.5-2.8,10.6,2.7,9.9
					c15-1.8,30,0.8,42.9,8.8c5.3,3.3,10.1,7.1,13.9,12.4c4.4,5.9,9.6,15.2,7.9,22.8c-0.8,3.8-3.4,7.2-6.3,9.2
					c-1.3,0.9-2.6,1.6-4,2.3c-0.3,0.1-0.5,0.2-0.8,0.4c-0.7,0.3,0.9-0.3,0,0c-0.4,0.1-0.8,0.3-1.2,0.4c-2,0.7-4.2,2.8-3.9,5.1
					c1.8,15.9,1.8,31.9-0.1,47.7c-1.6,13.3-3.9,28.4-8.9,41.4c-5.4,14.1-15.8,25.6-28.7,33.1c-5,2.9-9.8,4.9-15.2,6.7
					c-6.9,2.3-13.7,6.4-15.5,14c-2.8,11.9,6.2,23.9,13.8,32.1C231.6,1355.2,239.2,1347.7,234.5,1342.7z"/>
			</g>
		</g>
		<g>
			<path class="st4" d="M393.4,2342.1c-6.2,5.7-11.3,3.9-34.9,7.4c-19,2.9-21.8,5-25.5,2.4c-9.1-6.5-4.7-28.7,0.4-41.5
				c9.7-24.6,27.6-26,48.1-46.1c23-22.5,30-48.6,43.4-98.7c10.2-37.9,12.8-67.8,13.4-75.5c9.3-112.4,0.4-264.9-0.8-285.8
				c-6.7-119.1-3.5-211.1-1.1-274.7c5-131.5,16.7-228.4,20.3-257.4c6.4-51.2,13.3-94.4,18.8-126.4c14.4-12.4,33.8-30.2,54.9-53.3
				c30.8-33.6,51.1-55.9,68.6-90.7c17.1-33.9,19.9-56.9,37.7-86c1.9-3.1,11-17.8,22.6-38.3c4.2-7.5,7.6-13.7,9.8-17.6
				c9.7-1.7,20.1-4.1,31.2-7.2c13.2-3.7,25.1-7.9,35.6-12.2c6.1,6.3,13,14.5,19.5,24.8c8.6,13.6,13.7,26.5,16.8,36.5
				c-7.4,4.7-18.1,12.6-27.9,25.2c-14.4,18.3-19.1,36.2-21.3,45c-2.5,10.1-9.7,40.3,3.1,75.5c12,33.2,34.8,51.8,44,58.6
				c-2.8,3.8-7.2,9.4-12.9,16c-7.3,8.4-8.4,8.5-9.9,11.2c-6.8,12.8,1.4,38.6,18.2,44.3c9.4,3.2,18.5-1.1,28.5-5.6
				c12-5.6,20.1-13.2,24.7-18.4c2.1,4.7,4.2,9.4,6.4,14.1c-2.5,5-6.2,10.9-11.5,16.7c-13.2,14.4-29,20-37.1,22.1
				c-0.6,0.3-14,7.8-14.3,21.7c-0.3,11.9,9.1,19.3,10.8,20.5c13,10.1,30.9,5.3,39.9,2.9c12.1-3.2,21.3-9.2,27.6-14.5
				c6.5,2.2,12,3.3,15.6,3.9c9.9,1.7,35.1,5.8,57.1-7.8c3.9-2.4,6.8-4.8,8.7-6.5c9.6-7.6,19.1-15.2,28.7-22.8
				c3.7,0,9.6-0.3,16.5-2.1c7.7-2,18.5-4.7,25.6-14.2c3.8-5,5.3-10.3,5.9-13.6c-2.1-10.8-0.5-15,1.9-16.6c2.9-2,6.2,0.3,9.4-1.9
				c3.3-2.3,3.6-7.3,3.5-13.5c0-17.1-1.5-25.2-1.5-25.2c-1-5.1-2-10.3-3.1-15.4c-2.4-12.1-4.9-24.1-7.4-36.1
				c8.5-7.2,16.1-12.1,21.8-15.3c7.5-4.3,13.2-6.6,16.3-13c2.2-4.7,1.9-9.2,1.6-12c-1.9-19.7-22.7-46.7-26.3-51.1
				c18.4-0.4,36.8-0.8,55.2-1.2c-0.5,10.8-1.2,28.4-1.2,50.2c0,37.6,1.7,72.5,1.7,72.5c1.6,34.1,3.1,39.2,1.1,54.3
				c-1.3,9.8-3.6,26.1-12.8,44.9c-5.1,10.5-16.9,33.9-43.3,50.1c-18.3,11.2-36,14.3-43.5,15.2c-6.2,0.8-11.5,0.9-15.3,0.9
				c-6.4,108.6-12.8,217.3-19.2,325.9c-3.7,37.2-7.5,67.4-10.3,88.3c-3.8,28-6.4,43.9-7.9,69.4c-1.6,27.1-1,47-0.6,60.2
				c1.2,41.9,0.9,76.1,0.4,144.5c-0.3,39.5-1.3,86-0.4,142.7c0.1,6,0.6,31.2,5.1,64c3.6,25.9,5.3,38.8,10.3,50
				c9.5,21.5,18.7,21.8,50.8,61.4c24.3,29.9,28.3,41.1,25.4,50.8c-3.2,10.6-14,17-15.8,18.1c-14.7,8.7-24.9,1-37.4,9.9
				c-8.5,6-5.4,10.7-14.5,19.3c-13.7,12.9-32.5,13.5-37.3,13.7c-7.9,0.3-18.3-0.9-45.7-15c-38.7-19.9-37.5-27.5-56.3-32.3
				c-30.1-7.7-58,5.8-62.6,8.1c-31.4,15.8-28.6,37.7-54,43.1c-15.6,3.3-15.7-5.2-53-6c-17.5-0.4-24,1.3-36.5-2.7
				c-11.9-3.8-12.4-7.4-28-13c-11.1-4-12.5-2.8-30.4-7.9c-14.1-4.1-21.1-6.1-26.7-9.3c-16.4-9.4-13.3-18.6-27.2-28.1
				c-21.1-14.5-48.6-7.4-54.2-5.9c-8.4,2.2-19.5,5-27.2,14.6C397.1,2332.4,399.4,2336.5,393.4,2342.1z"/>
			<g>
				<path class="st4" d="M389.6,2338.3c-6.3,5.5-19.4,4.2-27,5.3c-7,0.9-13.9,2.2-20.8,3.4c-3.2,0.6-5.1,1.6-7-1
					c-3.5-4.7-1.6-14.1-0.7-19.3c1.3-6.9,3.4-13.9,6.7-20.1c6.4-11.8,17.9-18.1,28.5-25.7c20.3-14.4,34.2-33.1,43.2-56.2
					c11.6-29.5,19.5-61.6,25.3-92.6c10.1-54.4,10-110.9,9.9-166.1c-0.1-49.1-1.6-98.3-4.2-147.4c-6.1-115.6-5.6-230.9,0.8-346.4
					c5.9-107.1,17.3-213.7,35.3-319.5c1-6.1,5.6-8.6,10.1-12.6c5.8-5.2,11.5-10.6,17.2-16c13.5-13,26.2-26.8,38.8-40.7
					c20.9-23.1,41-46.9,55.6-74.6c15-28.5,22.2-60.4,38.6-88.1c5.6-9.4,11.3-18.6,16.8-28.1c4.5-7.8,9-15.7,13.4-23.6
					c0.8-1.5,2.9-4.6,2.8-4.5c3.4-2.1,11.3-2.3,15.3-3.2c16.8-4,33.2-9.3,49.1-15.7c-1.7-0.5-3.5-0.9-5.2-1.4
					c16,16.8,27.9,36.9,34.9,59c0.8-2,1.6-4,2.4-6c-35.2,22.7-54.5,61.8-56,103.1c-1.7,43.5,19.2,84.7,53.9,110.4
					c-0.6-2.4-1.3-4.9-1.9-7.3c-5.2,7-10.8,13.8-16.8,20.1c-2.9,3-5.6,5.7-7.1,9.6c-4.3,10.9-1.3,24.4,4.6,34.2
					c7.2,12,19.5,18.9,33.6,15.8c16.1-3.5,31.7-13.7,42.7-25.8c-2.8-0.4-5.6-0.7-8.4-1.1c2.1,4.7,4.2,9.4,6.4,14.1
					c0-1.8,0-3.6,0-5.4c-5.9,11.3-14.3,21-25.2,27.7c-6.8,4.2-14.4,5.7-21.4,9.2c-12.5,6.2-20,21.9-15.6,35.2
					c12.3,37.7,64.2,21.5,86.1,3.7c-1.7,0.5-3.5,0.9-5.2,1.4c17.2,5.4,36.1,7.8,53.9,4.4c24.3-4.7,42.7-24.1,61.4-38.9
					c-1.3,0.5-2.5,1-3.8,1.6c15.6-0.2,34.6-4.4,45.1-16.8c4.4-5.2,8.4-12.7,8.1-19.7c-0.1-1.7-2.2-9.1-0.1-10.9
					c0.3-0.3,4.5,0.1,5.3,0c1.6-0.4,3.5-1.3,4.8-2.3c6.1-4.9,5.2-14.6,5.1-21.6c-0.1-6.5-0.4-13.1-1.3-19.6
					c-2.5-18.2-7.1-36.3-10.9-54.3c-0.5,1.7-0.9,3.5-1.4,5.2c5.8-4.8,11.8-9.2,18.3-13.1c4.8-2.9,10-5.2,14.3-8.7
					c8.7-7.1,9.9-17.8,7.7-28.2c-3.9-18.1-15.7-34.7-26.9-49c-1.3,3-2.5,6.1-3.8,9.1c18.4-0.4,36.8-0.8,55.2-1.2
					c-1.8-1.8-3.6-3.6-5.3-5.3c-2.2,47.5-1.2,95.1,1.6,142.5c1,16.1,1.2,31.1-2.1,47c-4.4,21.3-14.2,42.5-28.7,58.8
					c-20,22.5-49,34.7-78.9,34.5c-3,0-5.2,2.5-5.3,5.3c-5.1,86.1-10.1,172.2-15.2,258.3c-2.4,40.6-5,81-9.9,121.5
					c-3.9,32-9.4,63.9-11.8,96c-2.2,30.1-1.1,60-0.6,90.1c0.5,28.7,0.3,57.5,0.2,86.2c-0.4,65.5-3.6,131.6,0,197
					c0.9,17.3,2.8,34.5,5.2,51.7c1.9,13.7,3.2,27.9,7.8,41c6.3,17.9,19.2,29.6,31.9,43c12.1,12.8,23.8,26.4,34,40.8
					c5.1,7.2,12.7,16.6,12.7,25.9c0,11.1-12.6,20.2-22.4,22.4c-7,1.5-14.3,0.4-21.3,2.7c-6.5,2.2-12.2,6.5-15.6,12.5
					c-3.9,6.7-7.2,12.2-14.1,16.4c-6.3,3.8-13.6,6-20.8,6.8c-7.5,0.9-14.6,0.3-21.8-1.9c-15.9-4.9-31.1-13.2-45.3-21.8
					c-8.4-5.1-16.1-11.3-24.4-16.5c-21.6-13.4-50.9-10.5-73.6-1.5c-11.1,4.4-21.4,10.6-29.7,19.3c-7.8,8.1-13.5,19.6-24.1,24.6
					c-8,3.8-14.9,3.1-23,1c-12.7-3.4-25.7-4.6-38.9-4.8c-14.2-0.2-27.5,1-40.5-6c-10.3-5.5-20.3-10.3-31.9-12.8
					c-13.2-2.9-27-5.9-39.5-11.2c-6.8-2.9-12.3-7.3-16.4-13.5c-3.7-5.5-7.1-10.6-12.5-14.8c-20-15.7-49.3-13.7-71.9-5.1
					c-6.8,2.6-13,6.3-17.8,11.8C395.5,2325.4,394.6,2333.2,389.6,2338.3c-4.8,4.9,2.8,12.5,7.5,7.5c5.1-5.3,5.9-12.2,10.4-17.8
					c5.5-6.9,13.6-10,21.9-12.2c10.9-3,22.3-4.6,33.6-2.8c8.6,1.4,17.2,4.9,23.5,11.1c4.8,4.8,7.5,11.2,12.2,16.2
					c9.4,10.1,23.1,13.6,35.9,17.2c11.8,3.4,24.2,5.2,35.7,9.7c12,4.7,21.7,12.3,34.8,14.2c15.1,2.2,30.5-0.1,45.7,1.8
					c8.8,1.1,17,4.4,25.8,5.4c9.3,1.1,19.4-2,26.9-7.6c9.4-7,15.1-17.7,23.6-25.7c19.9-18.5,54.6-26.6,80.1-17.1
					c7.4,2.8,13.5,8.1,20,12.6c13.2,9.2,27.5,16.9,42.1,23.6c18.9,8.6,37.3,13,57.5,6.1c6.5-2.2,12.6-5.5,17.8-10
					c5.7-4.9,7.8-10.8,11.9-16.6c5.1-7.3,13.8-7.3,21.7-7.9c7.2-0.5,14-2.3,20.2-6.2c8.8-5.5,16.9-14.3,17.9-25.1
					c0.8-8.1-2.7-15.8-6.7-22.6c-14.7-25.3-36.1-46.6-56.2-67.6c-15.4-16.1-19.5-35-22.6-56.6c-9.5-66.1-7.2-132.7-6.5-199.3
					c0.7-59.5,0.5-119-0.6-178.5c-1.2-69.6,14.7-137.4,19.4-206.5c5.7-86,10.1-172.2,15.2-258.3c1.3-21.5,2.5-43,3.8-64.6
					c-1.8,1.8-3.6,3.6-5.3,5.3c26.4,0.1,52.4-8.5,73-25c17.6-14,30.1-33.5,38.3-54.3c14.6-36.9,8.3-75.2,7-113.7
					c-1.1-33.5-1.2-67,0.3-100.5c0.1-2.8-2.5-5.4-5.3-5.3c-18.4,0.4-36.8,0.8-55.2,1.2c-5,0.1-6.5,5.6-3.8,9.1
					c9.4,12,18.9,25.9,23.2,40.6c1.1,3.8,2.1,8,1.6,12c-0.8,6.8-5.8,9.7-11.1,12.7c-9.6,5.5-18.6,11.4-27.1,18.5
					c-1.5,1.2-1.7,3.4-1.4,5.2c3.6,17.3,8,34.9,10.6,52.2c1,6.6,1.1,13.5,1.2,20.2c0,4.1,1.4,10.3-3,12.1c-3.4,1.4-6.7,0.3-9.5,3.6
					c-4.1,4.6-2.9,10.9-2.7,16.4c0.3,9-5.6,16.6-13.5,20.7c-7.4,3.9-16.7,6-25.1,6.5c-4.7,0.3-6.1,0.6-9.9,3.6
					c-4.8,3.8-9.6,7.6-14.4,11.4c-7.8,6.2-15.4,13.4-24.4,17.8c-9.3,4.6-19.7,6.3-30,6.3c-6.1,0-12.2-0.7-18.3-1.7
					c-6.5-1.1-14.9-5.9-20.8-2.5c-7.7,4.5-14,9.7-22.7,12.4c-7.3,2.3-15.1,4.1-22.7,3.8c-15.2-0.7-31.3-16.2-20.1-31.4
					c2.9-3.9,6.3-6.3,10.7-7.7c8-2.6,15.8-6.3,22.7-11.2c8.7-6.2,16.1-13.9,21.8-23c1.8-3,4.4-6.4,3.9-10c-0.8-5-4.8-10.8-6.9-15.4
					c-1.4-3.1-6.2-3.4-8.4-1.1c-9,9.9-20.3,17.1-32.9,21.6c-13.6,4.8-24.1-1.6-29.3-14.4c-2.7-6.8-4.4-16.3,0.4-22.6
					c6.7-8.8,14.9-16.6,21.5-25.5c1.8-2.5,0.2-5.7-1.9-7.3c-31.7-23.5-50.2-61.8-48.7-101.2c1.4-37.4,18.8-73.3,50.8-93.9
					c1.9-1.2,3.2-3.7,2.4-6c-7.6-23.9-20.3-45.5-37.6-63.7c-1.2-1.3-3.5-2-5.2-1.4c-17.2,6.9-34.9,12.5-53,16.6
					c-6.2,1.4-14.1,1-17.7,6.6c-4.7,7.2-8.4,15.2-12.7,22.7c-6.1,10.7-12.5,21.3-18.9,31.8c-8.1,13.4-14.2,27.8-19.6,42.4
					c-11.8,31.7-25.5,61.5-46.5,88.2c-21.8,27.7-46.4,53.9-71.9,78.1c-5.4,5.1-10.9,10.1-16.4,15c-2.1,1.8-5.3,3.8-6.6,6.1
					c-1.6,2.7-1.5,7-2,10c-2.5,14.9-4.9,29.9-7.2,44.8c-4.3,28.3-8.2,56.7-11.7,85.1c-5.8,48.3-10.2,96.8-13.6,145.3
					c-8.8,126.6-11.2,253.7-4.1,380.4c2.6,45.7,4.1,91.5,4.6,137.2c0.6,57,1.5,115.7-7.5,172.2c-5.2,32.9-13.7,66.2-24.8,97.5
					c-4,11.3-9,22.3-16.1,32.2c-8.5,11.8-19.6,20.7-31.5,28.8c-10.7,7.2-20.6,14.9-26.5,26.7c-5.5,11.2-9.3,25.2-8.1,37.8
					c0.8,8,5,17.1,14.1,17.3c4.3,0.1,8.9-1.3,13.1-2.1c8.3-1.5,16.6-2.7,25-3.5c8.2-0.9,15.8-1.3,22.3-6.9
					C402.3,2341.3,394.8,2333.8,389.6,2338.3z"/>
			</g>
		</g>
		<g>
			<path class="st5" d="M333.4,1159.9c2.3,35,3.9,60.9,5.9,90.3c1.8,27.8,3.2,48-4.2,73.5c-3.9,13.6-9.1,24.2-12.9,31.2"/>
			<path class="st5" d="M255.7,1362.6c6.9-4.3,16.4-11.3,25.4-21.9c22.3-26.5,25.4-57.2,27.6-82.2c3.9-44.5-7.2-64.6-2.7-92.5
				c0.5-2.9,2-11.3-0.9-21.2c-2.7-9.3-8.1-15.9-12-19.9"/>
			<path class="st5" d="M405.3,2228.6c40.5-65.4,58.4-122.6,67.2-162.2c11.7-52.7,12.9-105.9,15.4-212.3c0.9-40.3,1-73.6,0.8-96.4"
				/>
			<path class="st5" d="M327.8,2338.8c16-10.2,40.5-27.4,66.8-52.7c51.1-49.2,77.5-99,113.3-168c22.9-44.2,34.5-66.9,41.5-96.2
				c12.7-53.5,6.3-94.4,2.5-128.9c-3-27.4-0.3-103.4,5.1-255.6c1.7-47.6,1.5-23,12.5-219.9c7.1-127.1,9-170.5,15.2-270.7
				c3.5-56.9,6.7-103.6,8.8-134.5"/>
			<path class="st5" d="M542.9,1078.8c-2.4,34.9-4.3,70.7-5.6,107.4c-2.2,62.3-2.4,122.2-1,179.5"/>
			<path class="st5" d="M643.5,1278.1c1.7-21.5,4-53.7,5.7-93.1c4.6-106.2,0-149.2,7.9-232.5c2.2-23.3,6-56.2,12.9-95.7"/>
			<path class="st5" d="M597,2001.3c18.1-42,41.8-104.8,59.1-183.6c17.8-81,20.8-142.9,23.4-200.2c8.8-196.7,20-464.7,20.9-484.7
				c2.6-62.9,7.4-158.8,16.1-277.4"/>
			<path class="st5" d="M668.5,2187.4c1.9-24.3,5.2-61.6,11.4-106.9c20-147.2,46.1-205.2,63.5-309.5c7.4-44.5,8.9-118.4,11.6-264.3
				c1.5-81.5,2.6-195.1,1.1-332.5"/>
			<path class="st5" d="M839.8,2000.7c-13.9-38.9-32-99.7-39.1-175.7c-8.6-91.3,3.6-152.2,14.3-252.3c7-65.6,15-161.7,15.9-281.4"/>
			<path class="st5" d="M734.7,2294.5c18-7.9,59.2-29,89.8-75.3c41.1-62.2,34.4-126.6,32.1-143.8"/>
			<path class="st5" d="M892.5,2309.2c-9.9-17.6-21.6-43.6-26.5-76.7c-2.1-14.4-2.6-27.5-2.3-39"/>
			<path class="st5" d="M860,1946.8c1.5-28.8,3.6-71.7,6-123.7c5.4-118.5,8.1-177.8,8.2-215.8c0-103.1-7.1-119-3.6-203.3
				c2.5-59.5,8.4-107.7,12.9-138.4"/>
			<path class="st5" d="M924.7,1236.9c3.1,4.6,8.5,11.1,17,16.1c21,12.2,43.5,4.8,47.4,3.4"/>
			<path class="st5" d="M977.6,1225.9c10.9-2.4,26.7-7.7,40.8-20.1c29.3-25.8,32.1-65.3,34.5-100.2c1.3-18.9,1.2-46.6-6.3-79.7"/>
		</g>
		<g>
			<path class="st6" d="M218.9,1317.5c1.3,7.5,5.7,27.6,22.9,39.7c28.3,20,65.8,0.7,71.4-2.1c10.9-5.6,16.4-11.4,33.3-28.9
				c56-58.1,52.2-53.2,55.8-57.5c16.3-20,40.3-54.5,58.6-107.3c3.8-2.2,7.6-4.5,11.3-6.7c-13.7,91.5-32,240.6-35.8,426.1
				c-5.6,273.3,22.2,530.9-10.6,536.2c-5.7,0.9-15.6-12.5-35.3-39.3c-27.3-37.1-46.2-77-57.3-100.8c-6.9-14.7-10.1-22.7-18.1-35.2
				c-13.1-20.4-20.8-24.4-30.7-41c-9.7-16.1-13-29.9-16.9-46.1c-4.2-17.2-8.5-44-5.4-77.5c-9.7,0-20.7-0.5-32.7-2.1
				c-16.3-2.2-30.5-5.8-42.2-9.6c-1.1-9.4-2.2-23.4-1.2-40.4c1.6-26.1,7.5-44.9,9.3-51.5c11.5-40.7-2.8-62.9-4.2-142.8
				c-0.8-45.1,3.7-42.1,5.7-121.3c1-39.5,0.8-71.8,0.4-93.2C204.4,1316.5,211.6,1317,218.9,1317.5z"/>
			<g>
				<path class="st6" d="M213.8,1319c2.2,13,7.7,25.7,16.7,35.4c11.8,12.7,29,18.2,46.1,17c12.8-0.9,25.3-4.8,36.9-10.4
					c10.3-5,18.6-12.3,26.5-20.4c19.5-19.8,38.6-40.1,58.1-59.9c5.2-5.3,9.8-10.5,14.4-16.5c23.4-30.5,40.8-65.2,53.5-101.5
					c-0.8,1.1-1.6,2.1-2.4,3.2c3.8-2.2,7.6-4.5,11.3-6.7c-2.6-2-5.2-4-7.8-6c-12.4,83.5-21.7,167.5-27.8,251.7
					c-8.4,116.2-10.1,232.6-8.1,349c0.9,52.9,2.5,105.8,3.9,158.7c1.1,40.9,2.2,81.8,1.5,122.7c-0.3,14.3-0.7,28.6-2.1,42.9
					c-0.9,9-2.1,18.1-5,26.9c-0.6,1.8-0.3,1.2-1.5,3.3c-0.3,0.5-0.6,1-0.9,1.4c-0.9,1.5,0.4-0.5-0.6,0.8c-0.3,0.3-1.6,1.9-0.3,0.4
					c-0.2,0.3-0.9,0.7-1.2,0.8c2.2-0.6,0.2,0,0-0.1c-0.3,0,0.4,0.2,0.3-0.1c0.8,0.1,0.9,0.2,0.3,0c-0.5-0.2-0.5-0.2,0.1,0.1
					c-4.8-3.5-9.3-8.8-13.3-13.9c-8.1-10.3-15.9-21-23.4-31.8c-14.9-21.5-27.7-44.3-39.4-67.7c-9.6-19.3-17.4-39.8-28.9-58.1
					c-12.3-19.6-29.8-35-38.9-56.7c-8.5-20.3-12.9-43.7-14.6-65.6c-1.1-13.7-0.9-27.4,0.3-41.1c0.3-2.9-2.6-5.3-5.3-5.3
					c-25,0-49.7-3.9-73.5-11.6c1.3,1.7,2.6,3.4,3.9,5.1c-2.3-19.4-2.2-39.3,0.7-58.6c2-13.1,6-25.5,8.9-38.4
					c5.2-22.9,1.9-45.8-0.8-68.8c-3.7-31-6-62.3-4.8-93.6c0.8-20.5,3.3-41,4.3-61.5c2.1-42.7,2.4-85.6,1.6-128.3
					c-1.8,1.8-3.6,3.6-5.3,5.3c7.3,0.5,14.5,1.1,21.8,1.6c6.8,0.5,6.8-10.2,0-10.7c-7.3-0.5-14.5-1.1-21.8-1.6
					c-2.8-0.2-5.4,2.6-5.3,5.3c0.7,38.5,0.4,77.1-1.1,115.6c-0.9,22.7-3.2,45.3-4.5,68c-1.8,29.7,0,59.7,3.2,89.3
					c2.5,23.1,7.5,47,3.6,70.2c-2.3,13.8-7.2,27.1-9.5,40.9c-3.7,21.6-4.3,43.5-1.7,65.3c0.3,2.5,1.5,4.4,3.9,5.1
					c24.6,7.9,50.4,11.9,76.3,12c-1.8-1.8-3.6-3.6-5.3-5.3c-2.2,25-0.8,50.3,4.6,74.9c5.4,24.2,13.1,46.8,28.9,66.3
					c7,8.6,14.2,16.8,20.2,26.2c6.5,10.2,11.6,21.1,16.7,32c9.7,20.8,19.8,41.4,31.2,61.3c13.7,23.8,29.5,46.2,46.4,67.7
					c5.6,7.1,15.4,21.7,26.2,15.3c5.9-3.5,8.4-11,10.1-17.2c2.8-10.5,3.8-21.5,4.7-32.3c2.7-35.7,1.9-71.7,1.2-107.5
					c-0.9-50.2-2.6-100.3-3.8-150.5c-2.9-119.4-3.3-238.7,3.5-358c5.3-92.1,14.3-184,27.2-275.4c1.1-7.9,2.3-15.9,3.5-23.8
					c0.6-4.3-3.5-8.6-7.8-6c-3.9,2.3-10.7,4.8-13.2,8.7c-1.2,1.8-1.6,4.4-2.4,6.4c-1,2.8-2,5.6-3.1,8.4c-3.6,9.3-7.6,18.5-11.9,27.5
					c-6.9,14.3-14.8,28.2-23.6,41.4c-6.2,9.2-12.6,18.7-20.4,26.7c-12.6,12.8-25.1,25.6-37.6,38.5c-11.9,12.3-23.2,26.1-36.7,36.7
					c-7,5.6-15.6,9.4-24,12.2c-16.5,5.5-35.5,7.1-50.7-3c-12.7-8.3-19.3-22.9-21.7-37.4C222.9,1309.4,212.6,1312.2,213.8,1319z"/>
			</g>
		</g>
		<g>
			<path class="st6" d="M926,2140.7c-4.3-1.4-7.2-7.4-7.8-87.7c-0.5-73.8,1.6-108.5,2.1-162.1c0.8-90.5-4.4-89.3-0.9-146.5
				c3.1-50.1,7.4-55.9,15.2-126.3c2-17.6,4.8-45.8,12.2-171c2.8-48,6.3-111.3,10-186.4c11.9,0.1,31.2-1.5,51.4-11.9
				c35.4-18.2,50-51.6,55-63.7c17-40.6,4.8-63.8,5.9-170.4c0.2-18.2,0.7-33,1.1-42.3c0,0,39.4-17.6,39.4-17.6l0,0l0,0
				c0.6,0.3,31.7,17.6,35.8,20.1c35.4,21.3,23.2,126.2,19.2,173c-12,139.8,18.7,121.7,5.2,255.5c-10.2,101.8-29.6,129.4-29.1,207.3
				c0.3,33.8-7.7,67.3-8.2,101c-0.3,22.1,0.4,43.5-14.4,58.8c-11.7,12.1-28,15.1-38.7,15.9c-4.3,30.9-12.4,75.6-28.8,127.7
				C1014.7,2029.3,948.7,2148.1,926,2140.7z"/>
			<g>
				<path class="st6" d="M927.4,2135.6c0.1,0,1.1,0.3,0.9,0.7c0.1-0.2-1-2.2-0.4-0.5c-0.4-0.9-0.6-1.8-0.8-2.8
					c-1.7-7-1.9-14.8-2.3-22.5c-2-39.3-1.6-78.8-1.1-118.1c0.9-64.2,2.8-128.1,0.3-192.3c-1-24.6,0-49.1,2.1-73.6
					c2.3-26.1,6.9-52,10.3-78c4.9-37.7,7.9-75.5,10.4-113.5c5.3-79.2,9.6-158.4,13.6-237.7c0.6-12.2,1.2-24.4,1.8-36.6
					c-1.8,1.8-3.6,3.6-5.3,5.3c30.2,0,59.4-10.9,81-32.2c14.4-14.2,24.7-31.9,31.9-50.7c12.7-32.8,7-69.3,5.6-103.6
					c-1.4-35.6-1.3-71.3,0.2-107c-0.9,1.5-1.8,3.1-2.6,4.6c13.1-5.9,26.2-11.7,39.4-17.6c-1.8,0-3.6,0-5.4,0
					c7.7,4.3,15.4,8.6,23.1,12.9c7,3.9,15,7.3,20,13.9c6.4,8.6,9.3,19.7,11.2,30.1c2.5,13.4,3.2,27.1,3.3,40.7
					c0.7,58.7-10.9,116.8-7.4,175.5c1.3,20.7,4.9,41.1,7.6,61.7c3.4,25.3,3.8,50.8,2.3,76.3c-2.1,37.2-7,74.3-14.2,110.9
					c-5.2,26.3-11.4,52.4-14.7,79.1c-1.8,14.7-2.7,29.4-2.8,44.2c-0.1,21.8-2.2,43-4.8,64.6c-1.3,11.1-2.5,22.2-3.1,33.3
					c-0.5,9.8-0.2,19.6-0.8,29.4c-1.1,18.7-7.4,35.8-25.4,44.1c-6.8,3.1-14.4,4.6-21.8,5.2c-2.1,0.2-4.8,1.5-5.1,3.9
					c-8.3,58.7-23.2,116.2-43.9,171.7c-11,29.4-23.4,58.3-37.4,86.5c-11.1,22.4-23.1,44.5-37.5,65c-5.3,7.6-11,15.2-17.9,21.4
					c-2.1,1.9-4.4,3.8-7,5c-0.5,0.2-1.1,0.4-2.2,0.7c1.1-0.3-0.1,0-0.4,0C927.2,2135.7,928.9,2136,927.4,2135.6
					c-6.6-1.9-9.4,8.4-2.8,10.3c12.2,3.6,24-11,30.6-19.1c14.9-18.3,26.8-39.1,37.8-59.8c30.8-58,55.3-120,72.3-183.4
					c8.4-31.3,14.8-63.2,19.3-95.3c-1.7,1.3-3.4,2.6-5.1,3.9c18-1.4,35.9-7.7,46.9-22.7c12-16.5,11.2-37.9,11.6-57.3
					c0.4-25.4,4.9-50.5,7.1-75.8c1.7-19.9,0.7-39.9,2.3-59.9c2.4-30.6,9.7-60.3,15.6-90.4c8-40.5,13.5-81.8,15.3-123.1
					c1.2-27.4-0.5-54.3-4.5-81.3c-3.8-25.8-6.7-51.3-6.5-77.4c0.2-34,4.3-67.7,6.6-101.6c2.1-30.9,3.6-63.3-3.3-93.8
					c-2.6-11.5-6.8-23.6-15.1-32.4c-7-7.4-17.7-11.8-26.5-16.7c-4.9-2.7-9.8-5.5-14.7-8.2c-3.1-1.7-5.3-1.9-8.6-0.5
					c-10,4.4-20,8.9-30,13.4c-2.7,1.2-5.4,2.4-8.1,3.6c-1.7,0.8-2.6,2.9-2.6,4.6c-1.3,30.9-1.5,61.9-0.6,92.9
					c0.6,21.3,2.2,42.6,2.6,64c0.3,13.7-0.3,27.4-4,40.7c-4.5,15.8-12.2,31.2-22.1,44.3c-20.1,26.5-50.8,41-83.9,41
					c-3,0-5.2,2.4-5.3,5.3c-4.1,84.2-8.7,168.5-14,252.6c-2.4,37.2-4.7,74.5-8.9,111.6c-6.4,55.4-17,110-15.5,166
					c0.7,27.1,2.1,54.1,2.1,81.2c0,35.5-1.2,71-1.8,106.5c-0.7,40.9-1,82,0.5,122.9c0.4,10.1,0.7,20.4,2.3,30.4
					c0.6,3.9,1.5,8.4,4.4,11.3c1.2,1.2,2.5,1.9,4,2.4C931.1,2148,933.9,2137.7,927.4,2135.6z"/>
			</g>
		</g>
		<g>
			<path class="st6" d="M736.1,840.5c17.9,19.9,27,36,32,47.7c1.5,3.4,3.7,8.9,8.5,10.2c9.1,2.5,21.8-11.9,28.4-24.1
				c7.9-14.6,6.9-25.6,9.1-48c1.2-12.9,3.7-30.9,8.9-52.7c-13.9,12.9-29.8,26.4-47.7,39.8C761.7,823.5,748.6,832.5,736.1,840.5z"/>
			<g>
				<path class="st6" d="M732.3,844.2c10.2,11.4,19.5,23.7,26.7,37.3c2.5,4.7,4.2,10.1,7.1,14.6c4,6.4,11.1,9.5,18.3,6.7
					c6.9-2.7,12.5-8.2,17-13.9c4.8-6,8.7-12.5,11.6-19.7c5.2-13.1,4.8-27.8,6.1-41.6c1.6-17.8,4.7-35.4,8.9-52.7
					c1.3-5.2-5-8.8-8.9-5.2c-26.6,24.5-55.3,46.7-85.8,66.1c-5.8,3.7-0.4,12.9,5.4,9.2c31.3-19.9,60.7-42.6,87.9-67.7
					c-3-1.7-5.9-3.5-8.9-5.2c-3.7,15.4-6.5,31.1-8.3,46.9c-0.8,7.1-1.4,14.3-1.9,21.5c-0.5,6.1-0.8,11.8-2.1,17.6
					c-2.7,12-10,24.4-19.8,32c-1.1,0.8-2.3,1.6-3.5,2.2c-0.6,0.3-0.4,0.2-1,0.5c-0.2,0.1-2.1,0.6-1.4,0.5c-0.5,0.1-1.1,0.1-1.6,0
					c0.8,0.1-0.2-0.1-0.5-0.2c-1-0.5-1.7-1.3-2.3-2.3c-2.7-4.2-4.3-9.3-6.7-13.8c-7.7-14.7-17.8-28-28.8-40.3
					C735.2,831.6,727.7,839.1,732.3,844.2z"/>
			</g>
		</g>
		<g>
			<path class="st6" d="M441.5,646.5c1-7.8-3.2-11.6-4-17.4c-1.6-10.9,10-19.6,24.9-34.3c8.1-8,19.1-19.6,31.2-35.1
				c-0.2-2.4-0.1-5.9,1-9.9c2.6-9,9.2-14.3,14.8-18.6c17.9-13.7,30.5-21,45.9-32.1c0,0,6.9-5,12.9-9.7c9.8-7.8,28.9-31.5,27.9-120.3
				c-2.2-4.3-4.9-10.6-6.8-18.7c-3.5-14.9-1.6-25.7,1.8-46.4c8.8-53.6,8.8-59,14.3-75.1c0,0,4.8-14.4,10.2-25.4
				c6.3-12.7,32.7-37.7,72.1-48.2c13.7-3.6,69.1-16.2,104.6,14.4c8.1,7,13.6,14.9,17.8,21c15.7,22.7,21.5,45.4,24.5,59
				c3.9,17.6,2.4,18.5,6.5,33.6c4.5,16.8,8.2,22.3,14.5,38.9c8,21,11.8,37.6,19.4,70.9c3.4,14.8,6.1,28.4,8.3,40.6
				c-8.1,5-12.3,10.1-14.6,14c-0.9,1.5-1.8,3.2-3.6,5.8c-4,5.6-6.4,6.5-9.3,9.8c-6.5,7.7-1.6,12.5-7.6,18.4
				c-3.9,3.9-7.2,2.9-12.2,8.5c-1.4,1.5-3,3.4-4.1,6.3c-1.8,5,0.1,7.6,1,16.7c0.3,3.1,0.3,7.4,0.2,16c-0.1,9.6-0.5,9.7-0.3,12.7
				c0.4,7.6,3.1,12.8,8.4,23c2.8,5.4,7.9,14.3,16.2,24.2c4.7,5.6,9.1,10,12.4,13c-4.8,3.9-9.6,7.8-14.5,11.7c0,0-9.7,7.9-18.6,15.4
				c-18,15-44,39.8-47.7,43.3c-18.8,17.8-75,68.5-84.3,60.8c-5.1-4.2,10.7-19.9,15.4-54.8c4.5-32.9-6.6-40,1.3-64
				c6.4-19.4,15.8-21.1,29.5-45.6c16.2-28.9,4.8-34.5,18.7-52.7c7.1-9.3,23.7-26.8,33-39.3c3.1-4.1,5.1-7.4,5.7-8.4
				c3.4-5.6,4.8-9,7.3-13.7c3.1-6,4-6.6,9.4-15.5c7.7-12.8,11.6-19.2,12.7-23.9c1-4.2,0.8-7.1-2.7-24.8
				c-4.2-20.6-6.2-30.9-10.1-44.7c-5.5-20-6.3-18.5-6.8-24.7c-1.1-15.4,4.2-20.8,1.6-36.3c-1.4-8.2-2.5-14.8-8-19.2
				c-6.4-5.2-12.8-2.5-23.1-8.7c-5.2-3.1-8.2-6.7-10.3-9.1c-10-11.5-8-19.8-15.7-32.5c-6.1-9.9-13.8-15.4-18-18.3
				c-14.7-10.2-29.7-11.7-36.6-12.4c-9.2-0.8-32.7-2.9-51.4,11.6c-8.8,6.8-14.2,19.1-24.9,43.7c-0.6,1.4-5.7,17.4-16,49.5
				c-2.9,9-4.5,14.4-3.4,21.6c1.4,8.7,5.8,13.3,14.2,25.8c0.9,1.4,5.8,9.5,15.5,25.7c16.1,26.8,19,33.5,19.4,42.4
				c0.3,7.1-1.3,7.5-2.2,16.9c-2.3,23.5,6.7,33.2,8.9,51.5c3.3,26.7-13.3,27.6-14.3,60.2c-0.7,22.8,7.4,20.6,11.2,58.6
				c1.5,14.9,0.1,14.2,2.5,53.3c1.2,19.5,1.8,29.3,2.9,34.9c2.3,11.7,5.2,19.5,4.6,32c-0.3,7.9-1.9,14.2-3.1,18.5
				c-6.8,1.1-16.4,3.3-27.1,8.3c-9.6,4.5-23.4,10.9-32.4,25.1c-7.5,11.8-12.9,30.7-5.8,36.8c5.4,4.7,16.7,0.7,22.8-1.4
				c14.4-5,18.9-13.1,23.8-11.1c4.4,1.8,3,9.1,5.9,23.3c4.4,21.6,11.6,24.7,11.6,37.5c0,14.4-9.1,25-13.5,30.4
				c-30.6,38.4-22.2,68-71.5,143.2c-20.9,31.9-38.1,50.5-70.6,85.7c-24.9,27-37.3,37.3-54.9,44.7c-8.4,3.6-37.3,15.4-70.3,7.3
				c-10.5-2.6-25.1-11.6-54.4-29.7c-34.3-21.2-41.7-28.3-59.7-30.9c-9.6-1.4-27.9-3.8-42.9,7.8c-10.7,8.2-14.7,19.7-16.2,25.3
				c-2,1.6-3.9,3.1-5.9,4.7c-3.7-6.1-4.1-10.8-3.9-13.9c0.7-11.1,10.5-14,20.8-32.2c5.2-9.1,3.1-9.1,7.9-16.4
				c8.1-12.3,20.4-22.4,20.4-22.4l0,0c0,0-1.1-15.7-1.2-16.8c-0.5-8.2,5.9-25.6,37.4-66.4c-1.7-2.7-3.9-7-4.6-12.5
				c-1.6-12.8,6.3-23,13.8-32.7c5-6.5,13.7-16.1,27.4-24.7c11.7-43.2,25.1-77.1,35.6-100.8c18.9-42.5,37.8-76.3,37.8-76.3
				c11.9-21.2,18.5-45.8,33.8-64.7C437.1,657.1,440.7,652.8,441.5,646.5z"/>
			<g>
				<path class="st6" d="M446.8,646.5c0.4-4.2-0.4-8.1-1.9-12c-1.3-3.3-2.8-6.4-1.8-9.9c2.2-7.8,10.8-14.2,16.4-19.5
					c6.8-6.5,13.4-13.1,19.8-20.1c3.4-3.7,6.7-7.5,9.9-11.3c3.2-3.8,9.3-8.9,9.8-14c0.5-4.7,0.3-8.6,2.7-13
					c2.3-4.1,5.9-7.3,9.5-10.2c8.4-6.6,17.2-12.7,26.1-18.6c12.3-8.3,25.4-16.3,36.5-26.2c11.8-10.6,17.4-27.2,20.9-42.1
					c3.8-15.9,5.5-32.2,6.3-48.5c0.3-5,0.4-10.1,0.5-15.2c0.1-2.7,0.1-5.5,0.1-8.2c0-3,0.6-7.1-0.2-10c-1.1-4-3.6-7.8-4.9-11.7
					c-1.6-4.8-2.8-9.8-3.3-14.9c-0.9-8.6,0.2-17.3,1.6-25.8c1.7-10.9,3.5-21.8,5.3-32.7c1.9-11.8,3.5-23.7,5.9-35.4
					c1.4-6.9,3.5-13.7,5.9-20.3c2.8-7.7,5.5-15.9,9.8-23c3-4.9,7-9.1,11.2-13c22-20.6,51.6-32,81.3-35c15.8-1.6,32-1.2,47.2,3.2
					c19.3,5.6,33.1,17.9,44.3,34.2c11.4,16.6,18.7,35.1,23.3,54.7c3.9,16.5,5.3,33.1,11.1,49.2c5.8,16.1,13.1,31.5,17.9,48
					c5.5,18.7,9.6,37.8,13.8,56.8c2.4,11,4.6,22,6.6,33c0.8-2,1.6-4,2.4-6c-6.3,4-12,8.8-16,15.1c-1.9,3-3.5,6-5.8,8.7
					c-2,2.2-4.4,4-6.4,6.2c-2.4,2.7-4.3,5.8-5.2,9.3c-0.8,3-0.3,6.5-2.3,9c-1.8,2.2-4.7,2.9-7.1,4.4c-3.2,2-5.9,4.7-8.1,7.8
					c-4.3,6-4.1,11.7-2.9,18.7c1.1,6.6,1,13.3,0.9,20c-0.1,4.7-0.6,9.6-0.3,14.3c0.5,6.8,2.9,12.9,5.9,18.9
					c8.3,16.7,19,31.7,32.6,44.5c0-2.5,0-5,0-7.5c-23.2,18.6-45.9,37.8-67.6,58.1c-14.3,13.4-28.5,26.9-43.4,39.6
					c-9.2,7.8-18.5,15.5-28.3,22.4c-3.8,2.7-7.7,5.3-11.8,7.5c-1.3,0.7-3,1.6-4.2,2c-0.6,0.2-1.3,0.4-1.9,0.6
					c-0.9,0.3-1.6,0.5-1.2,0.2c-0.7,0.4-0.1,0.1-0.3,0c0.7,0.5,0.4,0,1.4,1.1c0.2,0.3,0.2,0.8,0.3,1c0.6,0.8-0.4-0.2,0-0.2
					c0.1,0-0.2,0.6,0,0.1c0.1-0.4,0.2-0.8,0.3-1.2c1.2-3.6,2.9-6.9,4.4-10.4c6-13.7,10.2-27.7,12-42.5c1.6-13.4-0.3-25.8-1.6-39
					c-1.2-12,1.8-24,8.5-34.1c3.2-4.8,7.1-9,10.6-13.5c5-6.4,9.5-13.1,13.3-20.2c3.5-6.6,6.6-13.5,8.3-20.8
					c1.1-4.7,1.4-9.5,2.2-14.2c1.9-11.3,9.8-19.4,17.1-27.8c9.8-11.2,20.2-22.2,28.1-34.8c3.7-5.8,6.4-12.2,9.8-18.2
					c3.3-5.7,7-11.2,10.4-16.9c4.7-7.8,11-16.4,11.1-26c0.1-5.1-1.1-10.3-2.1-15.2c-1.6-8.6-3.4-17.2-5.2-25.8
					c-2.8-13.3-6.1-26.5-10.2-39.5c-0.9-2.7-2-5.5-2.5-8.3c0,0.2,0,0.2-0.1-0.7c-0.2-1.9-0.2-3.8-0.2-5.7c0.1-3.7,0.6-7.3,1.2-10.9
					c1.2-7.4,1.5-14.3,0.3-21.7c-1.1-7.2-2.6-14.8-7.8-20.2c-5-5.2-11.2-5.9-17.8-7.6c-7.5-2-13.6-6.9-18.3-13
					c-4.6-5.9-6.2-12.8-8.8-19.6c-2.9-7.7-7.2-14.7-12.9-20.7c-17.9-18.7-44.9-25.4-70.1-23.3c-13.9,1.2-28.6,5.7-38.8,15.6
					c-8.6,8.3-13.4,20.4-18.2,31.1c-9.5,21.4-16.1,44.1-22.9,66.5c-4.1,13.6-2.6,24.9,5.3,36.6c6.1,9,11.9,18,17.5,27.3
					c7.4,12.3,15.7,24.5,21.4,37.8c3.1,7.3,3.1,12.6,1.6,20.6c-2.9,15.1-0.4,29.1,4.1,43.5c3.6,11.4,6.3,23.4,1.6,34.9
					c-4.4,10.8-9.9,19.9-11.4,31.8c-1.4,10.2-1,20.5,2.2,30.4c5.8,17.7,8.8,35.4,9.2,54c0.3,12.1,0.9,24.2,1.6,36.3
					c0.7,12,0.9,24.4,3.1,36.3c1.4,7.9,3.9,15.6,4.4,23.6c0.5,8.2-0.6,16.3-2.9,24.1c1.2-1.2,2.5-2.5,3.7-3.7
					c-31.9,5.4-66,24.6-71.9,59c-1.1,6.3-1.4,14,3.2,19.1c5.1,5.6,13.2,5.2,19.9,3.7c7.6-1.7,15.2-4.7,21.9-8.9
					c2.3-1.5,5.1-2.9,7.2-4.7c1-0.8-0.1-0.4-0.1-0.3c1.8,7.4,2,15,3.7,22.4c1.7,7.4,4.5,14.2,7.6,21.1c5.9,12.9,2,25.2-6.4,36.2
					c-6.9,9-13.4,17.8-18.4,28c-4.8,9.6-8.5,19.7-12.1,29.8c-10.6,29.1-23.3,56.6-39.9,82.8c-18.9,29.8-41.7,56.1-65.6,82
					c-19.6,21.3-39.6,44.6-66.5,54.8c-14.7,5.6-30.4,8.4-46.1,7.5c-13.5-0.8-24.2-4.9-35.7-11.5c-15.9-9-31.4-18.8-46.8-28.6
					c-10.5-6.7-21-14.1-32.6-18.9c-25.7-10.6-59.5-7-74.6,18.7c-1.7,2.8-3,5.9-4.2,8.9c-0.4,1.1-0.7,3.1-1.4,4
					c-0.2,0.4-3.7,2.6-4.9,3.5c2.8,0.4,5.6,0.7,8.4,1.1c-3.5-6.1-4.6-12.2-0.3-18c4.3-6,9.7-11.1,13.9-17.3
					c4.1-6.2,6.2-13.1,9.8-19.4c4.4-7.7,10.8-14.4,17.3-20.4c3.3-3,5.5-4.7,5.1-9.5c-0.3-4.7-0.9-9.5-1-14.2c0-1,0-2,0.1-3
					c-0.1,1.2,0-0.2,0.1-0.7c0.2-0.8,0.4-1.6,0.6-2.4c1.1-3.9,2.7-7.5,4.5-11.1c8.5-16.7,19.9-31.9,31.3-46.7c1.1-1.4,0.9-3.9,0-5.4
					c-7.8-12.7-2.3-24.5,5.8-35.4c7-9.5,15.2-17.9,24.9-24.6c2.6-1.8,5.1-2.9,6.4-5.8c1.5-3.4,2.1-7.6,3.1-11.2
					c2.2-7.6,4.5-15.2,7-22.8c4-12.3,8.3-24.5,13-36.5c14.4-37.3,32.6-72.8,51.4-108.1c7.1-13.3,12.2-27.4,19-40.9
					c3.2-6.4,6.8-12.6,11.1-18.4c3.8-5,7.1-9.5,8.2-15.9c1.2-6.7-9.1-9.6-10.3-2.8c-1.5,8.9-9,15.5-13.5,23
					c-5.4,9.1-9.6,18.8-13.8,28.4c-4.9,11.1-10.4,21.8-16.1,32.5c-17.3,32.4-33.3,65.7-46.5,100c-8.8,22.9-16.4,46.2-22.8,69.9
					c0.8-1.1,1.6-2.1,2.4-3.2c-13.5,8.6-24.3,19.5-33.6,32.4c-9.9,13.7-14.1,29.6-4.8,44.8c0-1.8,0-3.6,0-5.4
					c-13.1,17.1-27.3,35.1-35.2,55.4c-4,10.2-2.4,19.8-1.7,30.5c0.5-1.3,1-2.5,1.6-3.8c-6.2,5.1-11.9,11.1-16.8,17.4
					c-3.2,4.1-6.3,8.4-8.2,13.3c-1.7,4.3-3.6,8.4-6.1,12.3c-4.9,7.8-12.4,13.8-16.8,21.8c-4.8,8.6-2.8,18.3,1.8,26.5
					c1.9,3.2,5.8,3.2,8.4,1.1c3.3-2.7,6.4-4.5,7.7-8.6c1-3.1,2.1-6,3.7-8.9c4.3-7.9,11.2-14.3,19.7-17.4c11.7-4.2,25.8-3.2,37.6,0.3
					c10.3,3.1,19.5,9.5,28.5,15.2c15.6,9.9,31.3,19.8,47.2,29.2c9.2,5.4,18.8,11.5,29.2,14.2c17.4,4.6,36.2,3.8,53.6-0.5
					c10.8-2.7,21.5-6.7,31.2-12.2c12.1-6.9,22.5-16.5,32.3-26.3c49.4-50,95.2-104.7,121.8-170.5c8.2-20.2,13.9-41.7,25.4-60.4
					c6.6-10.8,16-19.7,20.7-31.5c2.8-7,3.7-14.9,2.1-22.3c-1.1-5.3-3.9-10.1-6-15.1c-3.4-7.9-5.3-16.4-6.4-24.9
					c-0.7-5.3-0.4-12.3-4.5-16.4c-3.7-3.8-8.9-3.3-13.2-0.9c-6.4,3.5-11.8,7.7-18.8,10.1c-4.1,1.4-15.1,6-17.3,0.2
					c-2.4-6.3,1.5-15.9,4.2-21.5c7-15,19.7-23.4,34.2-30.1c8.2-3.8,16.9-6.3,25.9-7.8c1.8-0.3,3.2-2.1,3.7-3.7
					c2.3-7.9,3.5-16.2,3.4-24.4c-0.2-8.1-2.1-16-3.8-23.9c-2.6-11.7-2.8-23.7-3.6-35.6c-1.2-19-0.8-38.2-2.8-57.1
					c-1.3-12.4-3.6-24.4-7.6-36.2c-3.2-9.4-4.2-18.2-3-28.1c1.3-11.5,7.1-20.5,11.2-30.9c4.6-11.6,3.3-24.2-0.1-35.9
					c-4.1-14.3-8.5-27.5-5.6-42.7c1.6-8.3,2.2-15.9-0.7-24c-4.3-11.9-11.4-22.8-17.9-33.5c-5.6-9.4-10.9-19-17.1-28.1
					c-3.7-5.4-8.4-10.8-10.7-16.9c-2.4-6.3-1.4-12.7,0.5-19c4.3-14.6,9.2-29.1,13.9-43.6c2.6-8.1,5.6-15.6,9.1-23.4
					c4.4-9.8,8.8-21.4,17.4-28.4c11.3-9.1,26.5-11.6,40.6-11.1c11.9,0.4,23.9,2.3,34.6,7.9c13.7,7.2,23.7,18.2,28.6,32.9
					c4.7,14,12.6,27,26.6,33.3c5.8,2.6,14.3,2.3,19,6.7c5,4.7,5.9,14.9,6.1,21.3c0.4,11.8-4.3,23.3-1.5,35.1
					c2.5,10.4,6.4,20.6,8.9,31c3.7,14.9,6.8,30.1,9.4,45.3c0.4,2.1,0.8,4.3,0.9,6.4c0,0.7,0.1,1.4,0.1,2.1c0,0.8-0.2,1.7-0.1,1.2
					c-0.7,4.1-3,7.8-5.1,11.4c-6.7,11.8-14.1,23-20.4,35c-6.8,13.2-16.7,24.2-26.4,35.3c-8.1,9.3-18,18.7-22.4,30.4
					c-3.5,9.3-2.9,19.6-6.4,29c-5.4,14.6-15.1,26.4-24.6,38.4c-7.8,9.8-12.9,21.3-14.2,33.9c-1.2,11.1,2,22,2.4,33.1
					c0.6,16.1-2.7,32.3-8.4,47.3c-1.8,4.7-3.9,9.2-5.9,13.8c-1.4,3.2-3.1,6.7-3.2,10.2c-0.1,7.7,7.5,9.8,13.7,8
					c8.4-2.5,16-8.2,23-13.2c37.6-27.3,69-61.8,104.4-91.6c11.2-9.5,22.6-18.7,34.1-27.9c2.2-1.8,1.9-5.7,0-7.5
					c-11-10.3-20.3-22.1-27.3-35.3c-3-5.6-6.5-11.5-7.7-17.8c-0.7-3.6-0.3-7.2-0.2-10.8c0.2-6.5,0.5-13.2,0.1-19.7
					c-0.3-5-3.1-11.6-1.4-16.5c2.4-6.7,9.2-7.8,14-11.9c5.1-4.4,4.9-9.1,6.5-15.1c1-3.6,3.6-5.8,6.2-8.3c2.8-2.6,5.3-5.7,7.3-8.9
					c4.2-6.6,8.2-11.5,14.9-15.8c2.2-1.4,2.9-3.6,2.4-6c-3.8-20.8-8.4-41.5-13.2-62c-3.5-14.9-7.3-29.7-12.5-44.2
					c-6-16.8-14-32.6-18-50.1c-3.2-13.8-4.5-27.8-8.5-41.4c-10-34.7-31-70.8-66.4-83.8c-25.3-9.3-54.1-7.7-79.9-1.5
					c-28.1,6.7-57.8,22.1-75.3,45.7c-7.1,9.6-11,22.1-14.7,33.4c-2.2,6.5-3.8,13-5.1,19.8c-2.3,12.2-4.1,24.6-6,36.9
					c-2.8,17.8-7.9,36.6-6.5,54.8c0.7,9,3,17.8,6.6,26.1c0.6,1.5,1.9,3.2,2.2,4.8c0.3,1.6-0.2,4.2-0.2,6c0,5.6-0.1,11.3-0.3,16.9
					c-0.6,16.1-1.9,32.2-5.1,48c-1.9,9.4-4.5,18.9-8.7,27.5c-2.7,5.6-5.3,9.6-9,13.4c-7.9,8-18.3,14.2-27.6,20.5
					c-7.7,5.2-15.5,10.3-23,15.7c-7.2,5.2-15.3,10.3-21,17.2c-5.6,6.7-8.4,14.9-7.9,23.6c0.5-1.3,1-2.5,1.6-3.8
					c-13.3,16.9-28.1,31.8-43.3,46.8c-5.6,5.6-12.1,12-13.9,20c-2,8.7,4.4,15.4,3.6,23.7C435.6,653.4,446.2,653.3,446.8,646.5z"/>
			</g>
		</g>
		<path class="st7" d="M607.9,210.5c14.3-11.1,35.9-24.9,64.5-34c56.5-17.9,105.5-6.6,126.6-0.3c2.5-17,4.2-29.3,5.2-37.3
			c1.9-14.6,2.9-23.1,9.2-27.1c2.4-1.5,6.3-2.8,9.8-7.2c1.6-2,1.7-2.8,4.1-7.6c4.7-9,7.4-11.6,6.5-12.7c-1.3-1.5-6.8,4.2-16.1,4.2
			c-2.2,0-5-0.5-10.7-1.6c-7.4-1.4-9.8-2.3-11.3-0.9c-1.3,1.3-0.5,3.3,0.3,8.7c1,7.2,1.5,10.9,0.4,14.3c-2.4,7.8-12.2,10.8-12.8,11
			c-9.3,2.7-20.1-1.6-25.3-9.9c-4.2-6.8-3.3-13.9-3-16.1c12.4-1.5,21.4-6.2,22-11.4c0.1-1,0-2.6-0.6-4.2c-1.5-4.2-4.8-4.9-7.7-7.9
			c-4.5-4.7-1.4-8-6.1-15.4c-1.4-2.3-5.1-8-9.6-7.8c-2.5,0.1-4.5,2.2-8.5,6.5c-4.7,5-4,5.9-6.6,7.7c-4.8,3.2-8.1,0.7-11.7,4.1
			c-0.1,0.1-3.1,3-3,7c0,1.5,0.5,3.9,5.4,8.9c6.8,6.9,10.2,6.8,10.9,9.9c1.1,5.2-7.6,11.2-10.8,13.4c-6.6,4.6-15.5,10.6-25.4,7.6
			c-9.4-2.9-16.3-13-17-25.1c7,0.3,12.9-4.1,14.1-9.8c1-4.8-1.5-10.3-5.4-12.3c-2.9-1.5-4.1,0.2-6.9-1c-5.3-2.4-3.2-9.7-9.2-15.3
			c-3-2.8-8-5.4-12.1-3.9c-3.2,1.2-4.8,4.5-7,9.2c-2.7,5.7-1.8,7.6-4.7,10.9c-2.2,2.5-3.3,2.2-5.5,5.2c-1.1,1.6-3.3,4.5-2.9,8
			c0.3,3,2.4,4.9,4.9,7.2c2.2,2,6.2,5,12.3,6.9c0.6,2.1,2.6,10.5-1.9,18.8c-1,1.8-4.2,7.6-9.8,9.2c-7.7,2.2-18.2-4-24.2-16.1
			c1.5-6.3,4-9.8,6.1-11.8c1-1,2.4-2.2,2.5-3.9c0.1-2.6-2.8-4.7-4-5.5c-5.3-3.7-8.1-1.1-13.5-3.9c-4.9-2.5-4.2-5.4-9.7-7.9
			c-2.1-0.9-5.6-2.5-8.6-1c-3.8,1.9-4.5,7.6-4.9,10.5c-0.6,4.8,0.9,5.1,0.3,9.5c-0.8,5.9-3.5,6.5-3.5,11.3c0,0.7,0.1,6.7,3.7,8.9
			c3.7,2.2,7.2-1.8,11.6,0.1c4.8,2.1,5.8,9.1,5.9,9.7c1.2,9.8-8.6,16.7-9.8,17.5c-1.3,0.9-10.3,7-15.8,3.1c-2.4-1.7-4.2-5.3-3.7-8.5
			c0.5-3.1,3-4,2.8-7c-0.1-1.8-1.2-3.9-2.9-4.9c-2.9-1.6-5.3,1.3-11.4,2.3c-2.7,0.5-6.6,0-14.2-0.9c-8.3-1-9.8-1.7-10.8-0.5
			c-2.2,2.6,2.9,10.2,6.9,16.2c4.9,7.2,7.8,8.8,9.8,9.6c3.1,1.2,5.9,1.2,7.8,1.1C584.5,169,596.2,189.8,607.9,210.5z"/>
		<path class="st2" d="M213.7,1136c-18.1,14-31.2,26.5-40.1,35.7c-16.5,17.2-13.5,17.9-26,28.9c-7.1,6.3-12.6,10.1-11.7,13.8
			c1.2,4.6,11.9,6.9,20.9,5.4c16-2.7,25-17.3,26.3-16.2c1.3,1-8.8,13.1-17.2,29.3c-6.2,11.8-4.8,12.9-16.1,45.4
			c-9.3,26.7-13.2,34.6-8.9,39.8c2.9,3.5,8,4.3,19.5,3.4c29.3-2.1,51.4-10.9,56.6-13.1c29.5-12.1,44.2-18.1,50.4-25
			c17-18.9,18.5-44.8,20.1-72.4c0.9-15,0-27.5-0.9-36.1c3.4-1,8.5-3.1,11.9-7.9c9.2-12.8-2.7-32.5-4-34.6
			c-8.5-13.6-22-18.4-31.3-21.7c-9.7-3.5-17.3-6.1-25.4-3c-8.6,3.3-14.2,11.7-19,18.8C216.5,1130.4,214.8,1133.7,213.7,1136z"/>
		<path class="st2" d="M1011,972.3c-5,1.8-12.4,3.9-21.5,4.2c-15.8,0.5-23.2-4.9-40.6-9.4c-16.2-4.2-45.8-8.9-51.1-0.6
			c-1.6,2.5-2,7.7,8.9,19.9c-11.8,1.9-31.8,6.5-51.6,19.6c-11.4,7.5-38.7,25.4-35.5,44.6c2.8,16.9,27.7,25.6,44.8,31.6
			c6.8,2.4,60.2,20.2,109.2-1.1c19.1-8.3,40-23.7,47.6-29.3c7.9-5.8,14.1-10.9,18.5-14.7c1.4-5.7,3.6-18.5-1.9-33.3
			C1030.8,985.3,1016.1,975.4,1011,972.3z"/>
		<path class="st2" d="M490.6,2320.7c-20.6-16-50.9-18.8-73.7-6.3c-3.7,2-24.7,13.5-23.5,27.7c1.5,18.7,40.8,26.5,42.9,26.9
			c30.8,5.8,69.5-4.5,72.4-21.6C510.6,2336.2,496.7,2325.5,490.6,2320.7z"/>
		<path class="st2" d="M712.6,2363.9c2.3,4.8,6.3,11.8,13.1,18.2c24.3,22.9,60.8,16.6,70.9,14.8c8.4-1.5,26.9-4.9,43.8-19.6
			c6.6-5.8,11.2-11.6,14.1-16c-5-2.9-12.5-7.3-21.5-12.8c-19.9-12.1-21.3-13.7-26.6-16c-18.2-7.6-36.5-2.6-46,0
			C734.4,2339.5,718.7,2356.4,712.6,2363.9z"/>
		<path class="st8" d="M589.5,166.8c14.1-8,30.7-15.8,49.6-22.1c65.3-21.9,124.2-15.1,158.7-7.8"/>
		<circle class="st8" cx="567.3" cy="140.2" r="6.9"/>
		<circle class="st8" cx="614.5" cy="98.1" r="6.9"/>
		<circle class="st8" cx="673.4" cy="77.3" r="6.9"/>
		<circle class="st8" cx="750.3" cy="77.2" r="6.9"/>
		<circle class="st8" cx="812.8" cy="100.6" r="6.9"/>
		<circle class="st8" cx="605.5" cy="184.8" r="7.9"/>
		<circle class="st8" cx="644.1" cy="167.9" r="7.9"/>
		<circle class="st8" cx="688.6" cy="153.4" r="7.9"/>
		<circle class="st8" cx="742.7" cy="149.4" r="7.9"/>
		<circle class="st8" cx="787.5" cy="155.8" r="7.9"/>
		<path class="st0" d="M875.5,605.5c-34.8-29.7-42.5-48.4-42.3-60.3c0.1-5.1,1.6-13.1,0.1-26.4c-1.4-12.6-4.1-16.6-1.2-22.3
			c3.8-7.4,10.8-5.7,16.3-14.8c3.4-5.7,1.1-7.2,5-14.3c3.4-6.3,5.2-5.1,11.9-13.9c5-6.7,5.3-9.2,10.2-13.8c2.3-2.1,3.8-3.2,8-6
			c18.2-12.4,16.9-12.4,19.6-13.5c4.6-1.9,12.1-1,26.7,0.8c11.1,1.4,10.3,1.8,28.4,4.7c18.8,3,22.7,3,27.7,7
			c4.4,3.6,3.5,5.3,10.6,13c8,8.8,10,7.6,15.3,13.7c7.7,8.7,12.7,21.4,12.8,33.4c0,5.4-0.9,7.9-0.3,15.7c0.5,6.8,1.7,9.4,2.8,15.6
			c2.1,11.3,3.7,19.7,0.8,28.2c-3,9.1-7.6,8.1-12.8,20c-4.4,10.2-1.7,12.5-5.7,18.2c-1.4,2-4.9,6.3-24.8,12.5
			c-2.7,0.9-27.6,8.7-28.9,5.6c-0.7-1.8,7.7-4,15.3-13c8.8-10.4,4.7-16.1,13.3-29.4c8.1-12.6,15.6-13.8,15.1-20.9
			c-0.5-7.2-8.6-8.2-10.8-18.5c-1.3-6.1,1.3-6.8,0.3-14.9c-0.8-6.4-3.7-16.8-9.2-17.8c-3.6-0.7-4.6,3.5-8.5,3.4
			c-6.7-0.1-8.6-12-21.9-25.3c-6.1-6-8.7-6.6-9.6-6.8c-7.5-1.3-10.4,6-20.2,6.9c-9.6,0.9-13.8-5.5-18.1-2.6
			c-4.9,3.3-0.5,12.1-6.5,17.5c-3.5,3.1-5.9,0.8-11.6,4.3c-7.7,4.6-10.3,12.7-10.6,13.7c-2.2,7.1,1.3,8.6-0.3,14.9
			c-2.6,9.6-11.7,9.6-15.2,18.5c-2.6,6.7-0.1,13.3,3,21.1c6.4,16.5,16.2,19.8,17.4,32.5C878,597.7,876.6,602.5,875.5,605.5z"/>
		<path class="st9" d="M852.6,616.1c2.6,5.7,7.9,15.1,17.6,23.3c19.3,16.4,42.1,16.3,49.9,15.8c32.8-2,51.9-26,54.9-29.9
			c6.9,0.4,17.6,1.9,29.3,7c13,5.7,21.1,13.1,35.3,26.4c11,10.3,18.5,17.3,26.7,28.3c15.1,20.1,12.2,25.9,30.6,52.5
			c12.3,17.7,19.4,23.5,22.7,26c7.8,5.9,20.6,13.2,22.4,14.3c7.4,4.3,14.9,8.1,20.9,16.7c1.4,2,5.1,7.2,3.4,9.3
			c-1.7,2.2-8-0.3-8.7-0.5c-1.9-0.4-17.3-3-27.3,7.1c-0.9,0.9-9.5,9.9-6.5,18.2c1.8,5.1,7,7.3,12.9,9.8c4.5,1.9,12.3,4.5,22.9,4
			c-0.3,7.6-1.7,18.6-6.9,30.8c-7.8,18.1-20.7,21.7-31.1,37.8c-5.3,8.2-11.3,21.5-12,42c-8.5,5.4-20.4,11.6-35.6,15.9
			c-25,7-46.5,5.1-59,2.9c-11.4,4.4-20.6,4.9-26.9,4.6c-10.8-0.5-13.9-3.6-46.2-13.4c-4.8-1.4-14.1-4.1-25.9-3.1
			c-5.9,0.5-11.8,1.1-14.1,5c-3,5,0.5,14,9,22.3c-5.8,1-14,2.9-23.3,6.4c-10.3,3.9-27.3,10.2-41.7,25.9
			c-10.2,11-20.1,21.7-18.4,32.6c4.1,26.5,75.9,49.5,135.1,30.9c17.1-5.4,30.3-13.4,39.2-19.8c2.7,17.6,6,31.8,8.6,41.9
			c4.9,18.9,8.8,29.4,3.4,37.2c-3.8,5.4-9.2,5.2-12.9,13c-1.6,3.3-1.4,5-2.7,11.3c-2,10.2-4.7,17.9-5.1,18.9
			c-1.1,3-6.8,14.6-44.6,18.2c-5.3,5.2-13.3,12.4-24.3,19.3c-11.1,7-24.3,15.4-42.4,17.7c-21.2,2.7-38.7-4.1-48.3-9
			c3.1-3.5,7.6-9.6,10.1-18.3c1.6-5.4,2.6-8.9,1.7-13c-1.8-7.7-8.7-9.7-23.1-20.4c-10.5-7.8-21.6-16-19.9-21.9
			c1-3.3,5.2-3,11.9-10.7c1-1.2,2.9-3.6,4.9-6.8c3.3-5.4,5.6-9.4,4.4-13.1c-1.4-4.3-6.5-5.4-15.2-8.4c-22.1-7.8-22.4-12.6-37.9-15.2
			c-4.1-0.7-10.3-1.4-18.2-0.9c-0.3,0.1-0.6,0.1-1.1,0.1c-4.5-0.7-6-13.9-6.5-17.6c-2.4-16.9-12.1-27.1-18.3-40.3
			c-17.2-36.6-1.3-82.9,0.1-86.7c4.6-12.8,15.1-42.4,41.3-55.8c8.3-4.2,11.9-3.7,19.5-9.4c17.3-13.2,22.4-34.3,24.9-45.2
			c3.1-13.5,1.1-16.2,3.5-37c2-17,5.1-30.7,7.5-39.8c-10.3,9.5-20.2,18-29.4,25.5c-7.7,6.2-18,14.3-30.5,23.2
			c-8.7,6.2-19,13.5-26.9,18.2c-11.7,6.8-32.7,15.9-66.1,16.4c0.5-3.8,0.9-9.9-0.9-16.9c-3-11.3-9.3-15-12.9-25.1
			c-1.8-5-3.4-12.9-0.9-24.3c5.5-2.2,14.5-5.5,25.8-9.1c15.4-4.8,19.7-5.1,22.2-9.5c4.2-7.8-0.2-23.1-9.1-30.4
			c-2.3-1.8-5.3-3.6-4.9-5.3c0.4-2,5-2.3,11.6-3.2c9.5-1.4,16.9-3.3,19.1-3.9c10.5-3,16.8-10.4,20.6-14.4
			C752.5,702.2,793.9,666.2,852.6,616.1z"/>
		<path class="st9" d="M755.5,1110.7"/>
		<path class="st5" d="M806.8,870.4c6-2.7,15.5-6.9,27.4-11.6c60-23.9,90-35.9,117.4-29.6c22.1,5,26,15.7,61.4,23.3
			c13.5,2.9,24.8,3.9,32.6,4.3"/>
		<path class="st5" d="M880.2,892c-16,28.4-34.4,45.3-49.6,55.9c-28.9,20-45.5,16.3-57.6,36.2c-6,10-4.7,15.6-11.6,66.3
			c-2.1,15.3-4,27.8-5.2,35.7"/>
		<path class="st5" d="M761.2,725.9c4.8,7.6,13.6,24,15,46.7c1.3,21.4-4.6,37.9-8.1,46.1"/>
		<path class="st5" d="M871.8,677.6c-2.2,15.5-5.2,31.6-9,48.4c-11.7,51.2-28.8,95.1-46.4,131.2"/>
		<path class="st5" d="M862.6,828.6c9-14.1,18.4-31.1,26.8-51c15.6-37.2,21.8-71.2,24.4-97"/>
		<path class="st5" d="M939.6,809.6c0.1-15.9,1.2-33.5,3.7-52.5c4.7-35.6,13.4-66.2,22.4-90.7"/>
		<path class="st5" d="M852.3,658.7l-22.8,73.6"/>
		<path class="st5" d="M1011.3,687.1c-1.1,14.7-1.8,37.5,1.9,64.8c4.5,32.9,11.2,82.4,48.7,123.1c9.9,10.8,28.2,27.7,58,40.8"/>
		<path class="st5" d="M1105.2,780.6c-4.8,9.4-10.5,23.5-12.4,41.2c-3.9,37.1,11.5,65.5,17.9,75.9"/>
		<path class="st5" d="M1050.6,813.6c-7.1-24.4-0.4-46.9,14.1-54.9c2.9-1.6,9.4-4.4,19.6-2.8"/>
		<path class="st5" d="M872.9,856.6c15.3-1.6,38.8-2,64.1,7.5c34.2,12.9,44.9,34.1,83.3,57.2c14.6,8.8,37.3,20.3,68.9,28.3"/>
		<path class="st5" d="M763.6,1091.2c12-8,27.8-20.4,42.8-39c19.2-23.8,28.8-47.3,33.7-62.8"/>
		<path class="st5" d="M823.5,1134.9c10.8,3.2,25.9,8.3,43.4,16c29.4,12.9,42.3,23.2,53.9,17.3c7.1-3.7,11.2-12.2,16.1-22.5
			c3.8-7.9,5.7-15,6.7-20.1"/>
		<path class="st5" d="M846.2,1198.9c20.3,16.2,33.9,17.1,42.5,15.3c14.1-3.1,15.2-14,34.9-23c20-9.2,29.1-2.6,40.5-10.6
			c8.6-6,17.4-19.4,16.2-52.8"/>
		<g>
			<path class="st10" d="M163.1,1323.1c-2.8,0-6.3,0.1-9.7-0.4c0,0,0,0,0,0c7.7,2,14.3,1,18.1,0.1
				C169.3,1322.1,168.3,1323,163.1,1323.1z"/>
			<path class="st10" d="M296.1,1480.1c-4.6-46.5-17.7-92.8-15-139.5c1.1-19.6,4.5-50.5-14.2-74.3c-2.6-3.2-10.2-12.7-23.4-18.6
				c-18.8-8.3-37.3-3.8-59,0.5c-13.3,2.6-24.5,6.7-33.4,10.6c-10.9,23.3-24.8,60.2-27,106.9c-1.3,27.9,2.5,41.9,3.4,74.6
				c0.8,27.7-0.4,68.6-10.9,119.6c-1.1,3.1-2.2,6.1-3.3,9.2c12.6,5.1,26.5,10.1,41.5,14.7c13.6,4.1,26.5,7.4,38.6,10.1
				c5.9-32,6.2-57.7,5.2-75.8c-0.9-16.8-2.9-27.6-3.5-53.6c-0.6-27.8,1.5-25.3,0.5-44.7c-1.9-36.3-8.4-29.7-13.6-72
				c-0.9-7.1-2.5-22.5-10.4-25c-0.6,5.9-1.2,14.5-1.2,25c0,6.3,0.2,19.4,4.5,49.2c1.8,12.6,4.5,29,8.4,48.2
				c-4.5,1.2-10.6,2.4-17.8,2.3c-12.3-0.2-21.7-4-27.1-6.7c1.7-9.7,3.1-19.9,4.3-30.4c3.7-33.1,3.9-63.7,2.3-91
				c-5.8-5.8-0.1-20.1,5-33.3c4.9-12.6,7.4-18.9,12-23.9c18.6-20.4,62-20.8,82,0c8.3,8.7,10.7,18.9,11.5,23.8
				c8.3,47.4-11.6,82.7-22.4,138.1c-5.7,28.9-6.6,61.6-8.3,126.8c-0.7,26.8-0.7,49.4-0.5,66.3c10.4,2.1,30.7,4.6,54.2-2.8
				c14.3-4.5,25-11.3,32.1-16.6C303.2,1547.6,298.8,1507.1,296.1,1480.1z M260.8,1481.7c-6.8-0.5-12.9-1.6-18-2.9
				c0.9-10.9,2.2-25.5,4.1-42.7c4.7-44.6,7.1-66.8,9.8-78.1c2.5-10.3,6.4-24.4,6.9-44.7c0.2-7.6-0.2-13.8-0.5-17.9
				c7.8,61.7,15.6,123.3,23.4,185C279.6,1481.6,270.9,1482.5,260.8,1481.7z"/>
		</g>
		<path class="st10" d="M1132.4,816.3c4.8-3.8,12.7-6.5,20.6-6.8c7.9-0.3,14.2,1.9,17.5,3.4c-2.4-2.5-6.5-6.1-12.6-8
			c-14.4-4.6-27.5,4-29.6,5.4c-11.4,7.5-14,18.5-22.8,45c-5.5,16.6-12,32.8-17.6,49.3c-5.3,15.4-13.4,37.9-25,65.3
			c0.6,32.9,1.2,65.8,1.8,98.7c14.7,3.4,34.8,6,57.9,2.8c6.9-1,13.2-2.3,19-3.9c-0.2-18.3-0.8-34-1.4-46.5
			c-1.3-27.6-2.7-40.7-3.7-48.1c-0.9-7.1-1.7-12.1-2.5-17.2c-8.2-53.2-10.5-74.1-11-95.7C1122.5,831.4,1125.5,821.8,1132.4,816.3z
			 M1120.5,926.1c0.8,14.1,1.3,25.7,1.5,33.1c-7.1,0.5-14.8,0.8-23,0.7c-7.4-0.1-14.3-0.5-20.8-1.1c14.7-45.5,29.5-91,44.2-136.5
			c-3.6,18.5-4.6,33.6-4.9,43.9C1117.2,883,1118.7,892.8,1120.5,926.1z"/>
		<path class="st11" d="M238.4,1500.3c-2,19.7-3,42.3-1.7,67.1c0.7,13.6,2,26.3,3.7,38.2c19.9-3.7,39.8-7.3,59.7-11
			c-2.8-16.9-5.2-34.9-7.1-53.9c-1.5-14.8-2.5-29-3.1-42.6C272.7,1498.8,255.6,1499.6,238.4,1500.3z"/>
		<path class="st11" d="M1073.9,1056.5c16.5,0.1,32.9,0.1,49.4,0.2c-0.6-27.1-1.2-54.2-1.8-81.3c-15.7-0.1-31.4-0.2-47.1-0.3
			C1074.1,1002.3,1074,1029.4,1073.9,1056.5z"/>
		<path class="st10" d="M1158.6,847.5c-3.2,17.5-7.3,43.5-10.1,75.5c-2.6,29.8-3.1,52.7-3.9,97.2c-0.3,20-0.6,47.4-0.4,80.2
			c18.7-6.7,37.4-13.4,56.1-20.2c-0.8-32.5-1.5-65-2.3-97.6c-1.5-22.2-3.9-46.2-7.7-71.6c-3.9-25.9-8.7-49.9-13.9-72
			c-2.2,1.2-4.4,2.4-6.6,3.6c4.7,19.2,9.1,40.3,12.5,63c3.9,25.7,6.1,49.7,7.2,71.6c-11.4,6.3-22.8,12.6-34.2,19
			c-0.6-7-1.4-17.5-1.5-30.3c-0.2-21.9,1.7-36.1,5.7-73.1c1.2-11,3-28,5.1-49C1162.5,845.1,1160.6,846.3,1158.6,847.5z"/>
		<path class="st11" d="M1157.3,1011.4c0.4,23.8,0.8,47.5,1.1,71.3c10.1-5.5,20.1-11,30.2-16.5c-0.7-23.4-1.4-46.7-2.1-70.1
			C1176.8,1001.3,1167,1006.3,1157.3,1011.4z"/>
		<path class="st9" d="M530.1,1087.8c10.8,33.1,24.2,86.2,49.9,138.1c54.5,109.9,101.5,191.9,144.4,241.1
			c47.6,54.7,116.5,124.7,210.2,194.1c4.7-33.5,8.7-69.3,11.3-107.2c2.2-32,3.4-62.5,3.7-91.5c-62.8-43.8-148.9-135.3-228.6-260.9
			c-57.6-90.9-79.6-208.3-96.7-271.8c-6.5,14.9-31.9,75.9-43,92.2C558.7,1055.3,551.5,1063.6,530.1,1087.8z"/>
		<path class="st10" d="M689.6,789.7c-1.1-17.2-1.2-28.1-9.4-35c-1-0.8-6.6-5.5-12.8-4.3c-5.4,1-9.1,6.1-13.1,14.5
			c-6.3,13.3-9.5,19.9-10.6,33.8c-1.2,15.3-6.8,40.6-25.7,84.8c-0.7,33.2-1.5,66.3-2.2,99.5c24.1,1.5,48.2,3,72.4,4.5
			c3.4-46,5.2-80.8,6.2-103.2c0.3-7.7,0.9-21.4,0.4-39.5C694,816.5,691.9,824.4,689.6,789.7z M683.1,881.6
			c-17.1-0.3-34.2-0.7-51.3-1c1.9-3.8,4.7-9.7,7.7-17.1c9.2-23.1,16.1-40.1,15.1-60.9c-0.4-7.5-1.7-15,0.8-26.2
			c2.8-12.5,7.2-15.6,9.2-16.7c3.8-2.1,9.8-2.8,13.3,0.1c1.5,1.3,2.4,3,3.3,7.1c1.5,6.5,2.2,9.8,1.5,16.3
			c-1.2,11.2,1.9,19.3,3.1,36.8C686.8,832.2,687,851.9,683.1,881.6z"/>
		<path class="st11" d="M626.5,892c0,27.5-0.1,55-0.1,82.5c17.6-0.2,35.2-0.4,52.8-0.5c0.7-27.3,1.5-54.7,2.2-82
			C663.1,892,644.8,892,626.5,892z"/>
		<path class="st11" d="M187.3,1471c2,19.7,3,42.3,1.7,67.1c-0.7,13.6-2,26.3-3.7,38.2c-19.9-3.7-39.8-7.3-59.7-11
			c2.8-16.9,5.2-34.9,7.1-53.9c1.5-14.8,2.5-29,3.1-42.6C153,1469.5,170.2,1470.2,187.3,1471z"/>
		<path class="st10" d="M525.5,1092.7c13.6-17.5,27.2-34.9,40.8-52.4c6.4,30.2,17.1,72.4,34.9,121.1
			c55.4,150.9,139.1,252.1,184,300.5c35.3,38,87.2,87.4,158.4,135.1c-2.7,22.5-5.4,45-8.2,67.6c-14.4-9.9-28.8-20.4-43.1-31.4
			C697.2,1482.2,588,1277.8,525.5,1092.7z"/>
		<path class="st1" d="M593.1,995.5c-8.9,14.9-17.8,29.9-26.8,44.8c3,14,7.4,33.1,13.7,55.6c23.5,83.4,55.7,150.7,83.1,199
			c32,56.4,95.6,154,204.2,245c30.4,25.5,57.4,44.5,76.3,57.2c2-22.1,3.9-44.2,5.9-66.2c-30.7-19.9-68.8-47.6-108.8-85.2
			c-61-57.3-97-110-105.6-122.8c-33.9-50.5-51.7-92.9-85.9-175.8C625.8,1090.2,607.4,1038.9,593.1,995.5z"/>
	</g>
	<g>
		<path class="st5" d="M622.9,334.6c-2.2,8.3-5.3,20.2-8.4,34.7c-13.3,61.8-20.7,96.2-9,129.3c4.8,13.6,17,38.9,52.5,61.9"/>
		<path class="st5" d="M635.4,351.7c-2.4,18.3-3.2,33.6-3.4,44.5c-0.4,22.1-0.8,56.2,11.4,96.5c4,13.4,8.4,24,11.5,30.8"/>
		<path class="st5" d="M574.5,542.9c14.2,8.3,33.6,21.8,52,43.1c25.7,29.6,37.1,60,42.3,78.1"/>
		<path class="st5" d="M523.8,520.7c3.3,12.5,8.4,29.1,16.3,48c5.1,12,17.2,39.1,34,62.8c31.2,44,73.9,69.9,100.9,83.3"/>
		<path class="st5" d="M334.8,898.3c8.4-4.1,19.9-10.1,33.3-17.9c69.5-40.6,113.2-87.8,131.2-108.7c54.2-62.7,60.7-73.9,59.2-84.6
			c-1.7-12.7-9.1-21-19.4-55.4c-4.4-14.6-7.1-26.8-8.8-34.6"/>
		<path class="st5" d="M582.3,589.7c8,13.9,18.3,29.5,31.3,45.5c20.5,25.1,41.6,43.6,59.4,56.9"/>
		<path class="st5" d="M292.2,970.2c10.8-8.8,27.9-22.3,49.8-37.4c64.5-44.5,97.6-52.6,148.2-91.2c15.5-11.8,37.5-30.2,61.4-56.6"/>
		<path class="st5" d="M381.3,934.7c-24.6,13-51.8,28.8-49.6,34.5c1.8,4.7,22.5,0.7,31-0.9c53.3-10.2,90.4-39.1,102.9-49.5
			c10-8.3,23.4-20.8,37.1-38.3"/>
		<path class="st5" d="M236,1087.8c11.1-5.3,27.9-13,49-21.1c55.1-21.2,86.2-24.9,115.7-34.4c44.9-14.5,71.9-37.9,120.6-80
			c35.4-30.6,85.8-81.4,130.7-157.8"/>
		<path class="st5" d="M330.3,1097.4c7.4,7.6,20.6,19.1,40,24.6c11,3.2,33,7.1,71-8.3c51.3-20.7,83.7-56.9,99-75.3
			c59-70.5,94.8-148.8,116.1-208.3"/>
		<path class="st5" d="M797.7,174.8c0.4,2.1,1,5.1,1.5,8.6c2.2,15.4,1.3,28,0.5,34.8c-0.8,6.9-2.3,15.8-5.5,25.8"/>
		<path class="st5" d="M839.1,288.5c-4.6,8.8-10.1,22.6-7.9,38.4c2.4,17.5,12.5,24.9,21.5,45.8c4.3,10.1,9.4,25.5,10.4,46.8"/>
		<path class="st5" d="M840.8,416c1.1,9.9,1.7,25.1-2.9,42.4c-7.9,29.5-26.4,48.6-46.5,69.3c-13.2,13.6-25.7,23.8-35.4,31.1"/>
		<path class="st5" d="M827.3,544c-7,6.8-17.8,17-31.7,28.7c-25.7,21.6-41.3,31.1-39.9,33.8c1.6,2.9,21.7-4.1,37.8-12.2
			c18.5-9.3,32-20.2,40.8-28.2"/>
		<path class="st5" d="M719.5,683c6.6-4.2,16.8-10.2,29.6-16.7c18-9,22.4-9.3,42.9-18.2c48.5-21.2,56.9-34.3,60.2-41
			c3.6-7.1,4.8-13.8,5.2-18"/>
		<path class="st5" d="M719.5,694.4c3.4,2.2,8.8,5.1,16.1,6.7c10.1,2.1,18.5,0.3,22.8-0.9"/>
	</g>
	<g>
		<path class="st5" d="M402.2,1268.6c1.6,56.4,3.1,112.7,4.7,169.1"/>
		<path class="st5" d="M351.7,1320.8c2.1,79.6,5.4,147.2,8.5,199.1c9.4,159.4,19.4,225.5,43.9,297.4c16.1,47.4,34,84,36,83.3
			c2.8-1-31.8-78.7-44.5-173.2c-10.4-77.4-3-143.8,6.1-191.1"/>
		<path class="st5" d="M288.4,1372c-3.4,42.8-0.2,76.5,2.9,97.6c16.4,113.9,78.6,221.2,53.2,269.8c-5.5,10.5-12.5,20.8-12.5,20.8
			c-17.7,26-32.4,35.2-40.9,46.4c-10,13.2-17.7,37.5-3.3,86.2"/>
		<path class="st5" d="M262,1776.9c3.7-5.4,13.3-17.6,30.5-24.8c12.9-5.4,24.4-5.6,30.8-5.2"/>
	</g>
	<g>
		<path class="st5" d="M1027.2,1251.8c2.9,56.3,0.9,102.9-1.7,136.6c-11.3,144.8-43.7,271.6-43.7,271.6
			c-5.6,22-18.5,69.7-14.8,132.7c1.2,20.1,3.7,36.5,5.7,47.3"/>
		<path class="st5" d="M978.7,1943.3c4.8-24.9,11.9-65.3,18.2-115.6c11.7-94.2,6.9-116.6,18.8-190.3c12.1-74.4,19.2-65.6,31.7-143.3
			c10.9-67.6,13.1-121.8,15.1-170.1c2.3-56.6,1.8-104.2,0.8-138.8"/>
		<path class="st5" d="M1123.7,1680.4c-28-2.8-106.2-8.8-115.6,17.3c-4.9,13.7,8.5,37.8,25.3,42.7c10,2.9,16.5-2.4,31-5.4
			c12.7-2.6,31.5-3.4,56.6,5.8"/>
		<path class="st5" d="M1113.7,957.3c0.6,29.5,2.1,60.3,5,92.3c9.3,102.6,29.9,193.3,53.9,270.2"/>
	</g>
</g>
<g>
	<g>
		<g>
			<path class="st0" d="M430.1,466.4c-1.9,0-3.8,0-5.7,0c-5.1,0-10.2,0-15.3,0c-7.6,0-15.1,0-22.7,0c-9.3,0-18.5,0-27.8,0
				c-10.1,0-20.2,0-30.3,0c-10.2,0-20.4,0-30.6,0c-9.5,0-19.1,0-28.6,0c-8,0-16.1,0-24.1,0c-5.8,0-11.6,0-17.3,0c-2.7,0-5.5,0-8.2,0
				c-0.1,0-0.2,0-0.3,0c-2.6,0-5.1,2.3-5,5c0.1,2.7,2.2,5,5,5c1.9,0,3.8,0,5.7,0c5.1,0,10.2,0,15.3,0c7.6,0,15.1,0,22.7,0
				c9.3,0,18.5,0,27.8,0c10.1,0,20.2,0,30.3,0c10.2,0,20.4,0,30.6,0c9.5,0,19.1,0,28.6,0c8,0,16.1,0,24.1,0c5.8,0,11.6,0,17.3,0
				c2.7,0,5.5,0,8.2,0c0.1,0,0.2,0,0.3,0c2.6,0,5.1-2.3,5-5C435,468.7,432.9,466.4,430.1,466.4L430.1,466.4z"/>
		</g>
	</g>
	<g>
		<polygon class="st0" points="430.1,445.2 430.1,498.5 466.2,471.9 		"/>
		<g>
			<path class="st12" d="M427.6,445.2c0,6,0,12,0,18.1c0,9.5,0,19.1,0,28.6c0,2.2,0,4.4,0,6.6c0,1.7,2.2,3.3,3.8,2.2
				c4.1-3,8.1-6,12.2-9c6.5-4.8,12.9-9.5,19.4-14.3c1.5-1.1,3-2.2,4.5-3.3c1.6-1.2,1.6-3.1,0-4.3c-4.1-3-8.1-6-12.2-9
				c-6.5-4.8-12.9-9.5-19.4-14.3c-1.5-1.1-3-2.2-4.5-3.3c-1.1-0.8-2.8-0.2-3.4,0.9c-0.7,1.3-0.2,2.6,0.9,3.4c4.1,3,8.1,6,12.2,9
				c6.5,4.8,12.9,9.5,19.4,14.3c1.5,1.1,3,2.2,4.5,3.3c0-1.4,0-2.9,0-4.3c-4.1,3-8.1,6-12.2,9c-6.5,4.8-12.9,9.5-19.4,14.3
				c-1.5,1.1-3,2.2-4.5,3.3c1.3,0.7,2.5,1.4,3.8,2.2c0-6,0-12,0-18.1c0-9.5,0-19.1,0-28.6c0-2.2,0-4.4,0-6.6
				C432.6,442,427.6,442,427.6,445.2z"/>
		</g>
	</g>
</g>
<g>
	<g>
		<g>
			<path class="st0" d="M479.6,132.1c-1.6,0-3.2,0-4.7,0c-4.3,0-8.6,0-12.9,0c-6.4,0-12.7,0-19.1,0c-7.8,0-15.5,0-23.3,0
				c-8.5,0-17.1,0-25.6,0c-8.6,0-17.2,0-25.8,0c-8,0-16,0-24,0c-6.8,0-13.5,0-20.3,0c-4.9,0-9.7,0-14.6,0c-2.3,0-4.6,0-6.9,0
				c-0.1,0-0.2,0-0.3,0c-2.6,0-5.1,2.3-5,5c0.1,2.7,2.2,5,5,5c1.6,0,3.2,0,4.7,0c4.3,0,8.6,0,12.9,0c6.4,0,12.7,0,19.1,0
				c7.8,0,15.5,0,23.3,0c8.5,0,17.1,0,25.6,0c8.6,0,17.2,0,25.8,0c8,0,16,0,24,0c6.8,0,13.5,0,20.3,0c4.9,0,9.7,0,14.6,0
				c2.3,0,4.6,0,6.9,0c0.1,0,0.2,0,0.3,0c2.6,0,5.1-2.3,5-5C484.5,134.4,482.4,132.1,479.6,132.1L479.6,132.1z"/>
		</g>
	</g>
	<g>
		<polygon class="st0" points="479.6,115.1 479.6,160 509.9,137.5 		"/>
		<g>
			<path class="st12" d="M477.1,115.1c0,5.1,0,10.1,0,15.2c0,8,0,16.1,0,24.1c0,1.9,0,3.7,0,5.6c0,1.7,2.2,3.3,3.8,2.2
				c8.9-6.5,17.7-13.1,26.6-19.6c1.3-0.9,2.5-1.9,3.8-2.8c1.6-1.2,1.6-3.1,0-4.3c-8.9-6.5-17.7-13.1-26.6-19.6
				c-1.3-0.9-2.5-1.9-3.8-2.8c-1.1-0.8-2.8-0.2-3.4,0.9c-0.7,1.3-0.2,2.6,0.9,3.4c8.9,6.5,17.7,13.1,26.6,19.6
				c1.3,0.9,2.5,1.9,3.8,2.8c0-1.4,0-2.9,0-4.3c-8.9,6.5-17.7,13.1-26.6,19.6c-1.3,0.9-2.5,1.9-3.8,2.8c1.3,0.7,2.5,1.4,3.8,2.2
				c0-5.1,0-10.1,0-15.2c0-8,0-16.1,0-24.1c0-1.9,0-3.7,0-5.6C482.1,111.9,477.1,111.9,477.1,115.1z"/>
		</g>
	</g>
</g>
<g>
	<g>
		<g>
			<path class="st0" d="M1096.2,620.6c1.9,0,3.8,0,5.7,0c5.1,0,10.2,0,15.3,0c7.6,0,15.1,0,22.7,0c9.3,0,18.5,0,27.8,0
				c10.1,0,20.2,0,30.3,0c10.2,0,20.4,0,30.6,0c9.5,0,19.1,0,28.6,0c8,0,16.1,0,24.1,0c5.8,0,11.6,0,17.3,0c2.7,0,5.5,0,8.2,0
				c0.1,0,0.2,0,0.3,0c2.6,0,5.1-2.3,5-5c-0.1-2.7-2.2-5-5-5c-1.9,0-3.8,0-5.7,0c-5.1,0-10.2,0-15.3,0c-7.6,0-15.1,0-22.7,0
				c-9.3,0-18.5,0-27.8,0c-10.1,0-20.2,0-30.3,0c-10.2,0-20.4,0-30.6,0c-9.5,0-19.1,0-28.6,0c-8,0-16.1,0-24.1,0
				c-5.8,0-11.6,0-17.3,0c-2.7,0-5.5,0-8.2,0c-0.1,0-0.2,0-0.3,0c-2.6,0-5.1,2.3-5,5C1091.3,618.4,1093.4,620.6,1096.2,620.6
				L1096.2,620.6z"/>
		</g>
	</g>
	<g>
		<polygon class="st0" points="1096.2,589.5 1096.2,642.8 1060.1,616.1 		"/>
		<g>
			<path class="st12" d="M1093.7,589.5c0,6,0,12,0,18.1c0,9.5,0,19.1,0,28.6c0,2.2,0,4.4,0,6.6c1.3-0.7,2.5-1.4,3.8-2.2
				c-4.1-3-8.1-6-12.2-9c-6.5-4.8-12.9-9.5-19.4-14.3c-1.5-1.1-3-2.2-4.5-3.3c0,1.4,0,2.9,0,4.3c4.1-3,8.1-6,12.2-9
				c6.5-4.8,12.9-9.5,19.4-14.3c1.5-1.1,3-2.2,4.5-3.3c1.1-0.8,1.6-2.2,0.9-3.4c-0.6-1.1-2.3-1.7-3.4-0.9c-4.1,3-8.1,6-12.2,9
				c-6.5,4.8-12.9,9.5-19.4,14.3c-1.5,1.1-3,2.2-4.5,3.3c-1.6,1.2-1.6,3.1,0,4.3c4.1,3,8.1,6,12.2,9c6.5,4.8,12.9,9.5,19.4,14.3
				c1.5,1.1,3,2.2,4.5,3.3c1.6,1.2,3.8-0.4,3.8-2.2c0-6,0-12,0-18.1c0-9.5,0-19.1,0-28.6c0-2.2,0-4.4,0-6.6
				C1098.7,586.3,1093.7,586.3,1093.7,589.5z"/>
		</g>
	</g>
</g>
</svg>
