<?xml version="1.0" encoding="utf-8"?>
<!-- Generator: Adobe Illustrator 25.2.1, SVG Export Plug-In . SVG Version: 6.00 Build 0)  -->
<svg version="1.1" id="Map" xmlns="http://www.w3.org/2000/svg" xmlns:xlink="http://www.w3.org/1999/xlink" x="0px" y="0px"
	 viewBox="0 0 899.3 1815.2" style="enable-background:new 0 0 899.3 1815.2;" xml:space="preserve">
<style type="text/css">
	.st0{fill:#1D1D1B;}
	.st1{fill:#EDEDEC;stroke:#EDEDEC;stroke-miterlimit:10;}
	.st2{fill:#EDEDEC;}
	.st3{fill:none;stroke:#1D1D1B;stroke-miterlimit:10;}
	.st4{fill:#387298;}
	.st5{fill:none;stroke:#000000;stroke-width:0.5;stroke-miterlimit:10;}
	.st6{fill:#C8B9DB;}
	.st7{fill:#F3CA4A;stroke:#F3CA4A;stroke-miterlimit:10;}
	.st8{fill:none;stroke:#1D1D1B;stroke-width:0.5;stroke-miterlimit:10;}
	.st9{fill:#58B8E5;stroke:#58B8E5;stroke-miterlimit:10;}
	.st10{fill:#F3A545;}
	.st11{fill:#F3CA4A;}
	.st12{fill:#1D1E1B;}
</style>
<g>
	<g>
		<path class="st0" d="M401.8,143c-16.1,11.4-20.7,29.1-26,49.4c-11.4,43.7-1,80.3,20.1,151.6c12,40.5,17.4,47.6,25.1,52.6
			c27.4,17.7,72.9,0.2,98.9-24.1c29.1-27.3,33.7-63.2,36-81.8c2.5-19.5,9.6-76.1-29.4-117.6C494.4,138.6,435,119.4,401.8,143z"/>
		<path class="st1" d="M574.1,442.9c-1.9,6.5-10.4,9.9-16.3,11.5c3.1,5.5,9.4,15,20.9,22.7c2.5,1.7,9.7,6.4,19.2,8.7
			c28.4,6.9,59.4-12,58.2-19.5c-0.4-2.2-3-2.2-11.1-8.8c-3.9-3.3-6.8-6.2-8.6-8.1c4.8-2.2,11.7-6.1,18.1-13
			c17.5-19,15.5-44.2,14.9-51.8c-0.8-11.3-2.2-28.8-16.4-41.7c-17.6-15.8-40.9-11.7-44.7-11.1c-20.9,3.9-32.3,19-37.6,25.9
			c-3.6,4.8-19,24.8-14.9,50.8C558.4,426.7,576.9,432.7,574.1,442.9z"/>
		<path class="st2" d="M412.8,583.3c-5.9-0.5-5.6-2-9.7-1.6c-8,0.9-10.5,6.9-18.7,7.2c-2.1,0.1-5.7,0.1-7.7-2.2
			c-4.1-5,3.8-17.1,5.1-19.1c5.1-7.7,11.7-12.6,17-15.6c6.3-3.5,21.2-11.9,34.8-5.7c7.2,3.3,15.2,11.1,14.1,18.5
			c-0.5,3.7-3.2,6-6.6,9.1C440.1,574.9,428.6,584.8,412.8,583.3z"/>
		<path class="st2" d="M784.5,594.9c-1.5-0.3-13.5-3-20.3,5.3c-3.6,4.3-5.4,11.3-2.8,16.6c4.8,9.7,21.2,7.6,24.5,7.2
			c3.5-0.4,15.5-2,17.5-8.8C805.7,607.9,795.4,597.2,784.5,594.9z"/>
		<path class="st2" d="M539.2,835.7c2.2,10-11.4,21.3-14,23.5c-3.9,3.2-15.2,12.6-28.5,8.5c-7.9-2.5-17.6-10-17.7-18.2
			c-0.1-5.8,4.7-6.2,11-19.9c3.3-7.1,3.4-10,6.5-11.9c3.7-2.3,8-0.6,14.8,2.4C529.4,827.9,538.4,832,539.2,835.7z"/>
		<path class="st2" d="M558.4,903.7c-0.4,7.8-10.9,13.2-18.1,16.9c-2.3,1.2-10,3.4-25.3,7.7c-7.6,2.2-10.2,2.8-14,2.2
			c-5.4-0.9-13.2-4.5-14.6-11c-1.3-5.6,2.6-10.6,6.5-15.5c2.9-3.6,8.8-10,19.3-14.3c0.5-3,1.3-7.4,2.5-12.6
			c3.7-17.3,5.5-19.5,7.3-21c4.5-3.5,10.7-3.4,15.6-3.3c3.9,0.1,7.1,0.7,9.2,1.3c-0.7,4.1-1.2,9.8-0.6,16.6
			c0.3,3.3,0.9,9.4,3.8,16.5C554.2,897.9,558.6,898.6,558.4,903.7z"/>
		<path class="st1" d="M422.4,349.9c2.6-1.6,12.9-8.3,15.9-21.3c1.3-5.6,0.9-10.5,0.3-13.7c-4.4-2.3-10.6-6.2-16.8-12.5
			c-10.6-10.8-15-22.5-18.4-32.8c-13.2-40.3-19.7-60.4-14-81.8c2.2-8.3,7.3-27.6,25.7-40.7c1.4-1,25-17.2,52.9-9.3
			c24.1,6.8,35.6,27.4,44.7,43.4c15.6,27.7,19.6,60.9,17.5,83c-0.4,4.1-1.1,9.6-0.8,17.8c0.8,21.9,7.7,27.4,7.9,40.8
			c0.2,19.7-14.3,34.7-22.5,43.2c-8.8,9-21.9,22.6-40.4,23.1C453.6,389.9,433.3,373.9,422.4,349.9z"/>
		<path class="st3" d="M433.3,314.9c3.9,1.9,10.5,4.4,18.7,4.4c16.4,0.1,27.9-9.7,35.2-15.9c13.9-11.9,20.4-26.1,23.3-34.6"/>
		<path class="st3" d="M575.6,437.3c3,3,11.1,10,24.6,12.9c18.3,4,33.3-2.2,36.8-3.8"/>
		<g>
			<path class="st4" d="M417.6,429.7c-2.2-7.6-4.6-19.2-3.7-33.3c1.2-18.6,7.4-32.6,11.6-40.4c3.1,3.2,7.4,7,12.9,10.4
				c9.4,5.8,18.3,8.2,24.2,9.2c9.4,0.5,18.7,1.1,28,1.6c-2.2,4.9-5.4,12.8-8,22.8c-4,15.8-2.1,19.7-6.7,29.2
				c-5.9,12.3-10.6,10.6-14.7,21.6c-2.1,5.4-2.2,11.6-2.2,23.9c-0.1,15.5,1.6,14.7,0.7,23.5c-0.4,4.6-1.2,6.8-7.4,28.2
				c-1.6,5.5-3.2,10.9-4.4,15c-8.1-0.6-16.2-1.1-24.3-1.7c1-4,2.2-10,2.4-17.2c0.1-10.6-2.2-15.6-4.2-26.2
				c-1.6-8.2-0.8-8.7-2.2-36.3C419.1,452.9,418.5,442.5,417.6,429.7z"/>
			<g>
				<path class="st4" d="M421.4,428.7c-6.8-23.6-4.1-49.1,7.5-70.6c-2.1,0.3-4.2,0.5-6.2,0.8c8.4,8.7,19,15.2,30.5,18.7
					c2.3,0.7,4.6,1.3,6.9,1.7c3,0.6,6.2,0.6,9.4,0.8c7,0.4,14,0.8,21,1.3c-1.1-2-2.3-3.9-3.4-5.9c-3,6.6-5.5,13.5-7.5,20.4
					c-1.9,6.7-3,13.4-4,20.2c-0.8,5.6-2.4,10.4-5.2,15.1c-2.8,4.8-7.4,8-10.3,12.7c-3.1,5.1-4.5,10.6-4.9,16.4
					c-0.6,7.3-0.6,14.8-0.3,22.1c0.1,3.9,0.9,7.7,0.9,11.6c0,1.8-0.2,3.6-0.4,5.4c-0.1,0.7,0.2-1.2,0-0.2c-0.1,0.2-0.1,0.4-0.1,0.6
					c-0.1,0.5-0.2,1-0.3,1.6c-0.9,4.2-2.2,8.3-3.3,12.4c-2.6,8.9-5.2,17.8-7.8,26.8c1.3-1,2.5-1.9,3.8-2.9
					c-8.1-0.6-16.2-1.1-24.3-1.7c1.3,1.6,2.5,3.3,3.8,5c2.4-9.3,3.2-19,1.8-28.5c-1-6.8-3.1-13.5-4.2-20.4c-0.1-1,0.1,1,0-0.2
					c0-0.3-0.1-0.6-0.1-0.9c-0.1-0.7-0.1-1.4-0.1-2.2c-0.1-1.9-0.1-3.6-0.2-5.5c-0.3-7.5-0.5-14.9-1-22.4
					c-0.5-10.3-1.2-20.7-1.9-31.1c-0.1-2.2-1.7-3.9-3.9-3.9c-2,0-4.1,1.8-3.9,3.9c1.2,17.1,2.2,34.2,2.8,51.4
					c0.1,3.5,0.1,7,0.6,10.5c0.7,6,2.3,11.9,3.6,17.8c2.2,9.7,1.7,19.7-0.8,29.3c-0.7,2.6,1.3,4.8,3.8,5c8.1,0.6,16.2,1.1,24.3,1.7
					c1.7,0.1,3.3-1.3,3.8-2.9c3.6-12.4,7.6-24.8,10.7-37.2c1.5-6,1.6-11.9,1-18.1c-0.7-6.8-0.5-13.8-0.4-20.6c0.1-3,0.1-6,0.5-9.1
					c-0.1,0.5,0.1-0.7,0.1-1c0.1-0.6,0.2-1.3,0.4-1.9c0.3-1.2,0.7-2.3,1.1-3.4c2.2-5.1,5.9-7.7,9.3-12.1c3.9-5,6.8-10.9,8.1-17.2
					c1.3-6.5,1.9-13,3.4-19.4c1.9-8,4.7-16,8-23.3c1.3-2.8-0.2-5.8-3.4-5.9c-6.5-0.4-13-0.7-19.5-1.2c-2.9-0.1-6-0.1-8.8-0.6
					c-2.2-0.4-4.2-1-6.3-1.6c-10.5-3.1-20-8.9-27.6-16.8c-1.7-1.8-5-1.4-6.2,0.8c-10,18.5-14.3,39.9-11.5,60.8
					c0.7,5.4,1.7,10.7,3.3,15.9C415.2,435.7,422.9,433.6,421.4,428.7z"/>
			</g>
		</g>
		<g>
			<path class="st4" d="M95.5,997.1c-1.6-1.7-12.4-13.4-8.8-21.5c1.4-3.2,4.3-5,7.9-6.1c6.4-2,17.1-6.5,26-16.4
				c10.9-12.3,13.2-26.2,15.8-42.6c1.5-9.4,2.8-23.5,0.8-40.8c1.6-0.5,8.5-3,11.2-9.8c2.6-6.5-0.4-12.6-2.5-16.9
				c-4.7-9.7-12.6-14.5-16.1-16.5c-13.3-7.9-27-7.1-32.7-6.3c3.9-2.3,12.2-6.4,23.5-6.6c3.3-0.1,11.1,0.2,27.7,8.2
				c14.9,7.1,17.2,11.1,37.6,23.4c13.8,8.3,20.7,12.6,27.9,14.3c17.6,4.5,33.4,0.6,39.2-0.9c7.7-2,13.9-4.8,18.2-7
				c-2.8,6.9-6.9,16.4-12.2,27.4c-7.5,15.7-13.2,27.6-21.3,40.1c-7.4,11.5-8.3,10.3-44.3,50.7c-14.9,16.7-18,20.6-25.8,26.3
				c-10.2,7.4-23.8,17.2-41.9,15.8C124.3,1011.7,107.6,1010.1,95.5,997.1z"/>
			<g>
				<path class="st4" d="M98.3,994.4c-2.2-2.3-3.4-3.9-5.1-6.5c-1-1.6-2-3.3-2.5-5c-0.3-0.8-0.6-2-0.7-2.6c-0.1-0.7-0.1-1.5,0.1-2.1
					c1-3.8,5.3-4.6,8.6-5.8c4.5-1.7,8.9-3.8,13-6.4c9.9-6.5,17.5-15.5,21.9-26.5c4-9.7,5.6-20.4,7-30.8c1.8-12.9,2-25.9,0.5-38.9
					c-1,1.3-1.9,2.5-2.9,3.8c5.1-1.7,9.8-4.9,12.6-9.6c4.5-7.5,2.1-15.7-1.6-23c-6.1-12.3-18.8-20.6-31.9-23.7
					c-6.6-1.6-13.5-1.9-20.3-1.1c0.7,2.5,1.3,4.9,2,7.4c5-2.9,10.4-4.8,16.3-5.7c2.3-0.3,4.6-0.4,6.9-0.4c0.7,0,1.4,0.1,2.1,0.1
					c1.1,0.1-0.4-0.1,0.4,0.1c0.5,0.1,1,0.1,1.6,0.3c11.5,2.2,22.8,7.7,32.6,14.1c4.3,2.8,8.5,5.8,12.8,8.7
					c6.7,4.5,13.5,8.5,20.4,12.6c5.2,3.1,10.5,6.2,16.2,8.4c6.8,2.7,14.3,3.6,21.6,3.7c14.9,0.2,30.1-3.6,43.3-10.5
					c-1.9-1.5-3.9-3-5.8-4.5c-4.5,10.9-9.4,21.6-14.6,32.3c-5.2,10.8-10.6,21.6-16.9,31.7c-1.3,2-2.5,4-3.9,5.9
					c-0.4,0.6-0.8,1.2-1.3,1.8c-0.2,0.3-0.4,0.5-0.6,0.8c-0.5,0.7,0.6-0.7-0.2,0.3c-2.2,2.8-4.5,5.4-6.9,7.9
					c-12.3,13.4-24.5,26.8-36.5,40.4c-5.2,5.9-10.3,12.1-16.3,17.3c-0.4,0.4-0.9,0.8-1.4,1.2c-0.3,0.2-0.5,0.4-0.8,0.7
					c-0.1,0.1-1,0.8-0.7,0.6c0.4-0.3-0.4,0.3-0.5,0.4c-0.3,0.2-0.6,0.4-1,0.7c-0.9,0.7-1.8,1.3-2.7,1.9c-3.9,2.8-8,5.6-12.3,7.8
					c-8.3,4.4-17.1,6.5-26.5,5.6c1.5,0.1-0.4-0.1-0.7-0.1c-0.7-0.1-1.4-0.3-2.2-0.4c-1.7-0.4-3.5-0.8-5.2-1.4
					c-4.3-1.4-8.4-3.5-12.2-6.1C102.1,998.1,100.2,996.3,98.3,994.4c-3.5-3.7-9.1,1.9-5.6,5.6c12.8,13.6,33,19.3,50.9,13.8
					c9.9-3,18.5-8.8,26.8-14.9c5.4-3.9,10-8.6,14.5-13.5c13.6-15.1,27.1-30.3,40.8-45.3c5.1-5.6,10.3-11.1,14.4-17.4
					c5.9-8.8,10.9-18.2,15.5-27.6c5.7-11.6,11.3-23.3,16.4-35.2c1-2.4,2-4.8,3-7.2c1.4-3.5-3-5.9-5.8-4.5c-11.1,5.6-23.6,9-36,9.4
					c-7.4,0.2-15-0.5-21.9-3c-1.3-0.4-1.4-0.5-2.5-1c-1.3-0.6-2.5-1.2-3.7-1.9c-2.8-1.5-5.6-3.1-8.4-4.8
					c-6.9-4.1-13.8-8.3-20.4-12.7c-4.3-2.9-8.5-5.9-12.9-8.8c-4.8-3.1-9.8-5.8-14.9-8.2c-6-2.8-12.3-5.4-18.8-6.8
					c-11.7-2.5-24.1,0.3-34.3,6.2c-3.1,1.9-2.1,7.9,2,7.4c11.1-1.3,22.3,0.6,31.9,6.5c3.9,2.5,7.5,5.3,10.3,9.2
					c3.3,4.4,7.1,11.3,5.9,16.9c-0.6,2.8-2.5,5.4-4.7,6.8c-1,0.7-1.9,1.2-3,1.7c-0.2,0.1-0.4,0.1-0.6,0.3c-0.5,0.2,0.7-0.2,0,0
					c-0.3,0.1-0.6,0.2-0.9,0.3c-1.5,0.5-3.1,2.1-2.9,3.8c1.3,11.8,1.3,23.7-0.1,35.5c-1.2,9.9-2.9,21.1-6.6,30.8
					c-4,10.5-11.7,19-21.3,24.6c-3.7,2.2-7.3,3.6-11.3,5c-5.1,1.7-10.2,4.8-11.5,10.4c-2.1,8.8,4.6,17.8,10.3,23.9
					C96.2,1003.7,101.8,998.1,98.3,994.4z"/>
			</g>
		</g>
		<g>
			<path class="st4" d="M216.4,1737.2c-4.6,4.2-8.4,2.9-25.9,5.5c-14.1,2.2-16.2,3.7-19,1.8c-6.8-4.8-3.5-21.3,0.3-30.8
				c7.2-18.3,20.5-19.3,35.8-34.3c17.1-16.7,22.3-36.1,32.3-73.4c7.6-28.2,9.5-50.4,10-56.1c6.9-83.5,0.3-196.9-0.6-212.4
				c-5-88.5-2.6-156.9-0.8-204.2c3.7-97.7,12.4-169.8,15.1-191.3c4.8-38.1,9.9-70.2,14-93.9c10.7-9.2,25.1-22.4,40.8-39.6
				c22.9-25,38-41.5,51-67.4c12.7-25.2,14.8-42.3,28-63.9c1.4-2.3,8.2-13.2,16.8-28.5c3.1-5.6,5.6-10.2,7.3-13.1
				c7.2-1.3,14.9-3,23.2-5.4c9.8-2.8,18.7-5.9,26.5-9.1c4.5,4.7,9.7,10.8,14.5,18.4c6.4,10.1,10.2,19.7,12.5,27.1
				c-5.5,3.5-13.5,9.4-20.7,18.7c-10.7,13.6-14.2,26.9-15.8,33.4c-1.9,7.5-7.2,30,2.3,56.1c8.9,24.7,25.9,38.5,32.7,43.6
				c-2.1,2.8-5.4,7-9.6,11.9c-5.4,6.2-6.2,6.3-7.4,8.3c-5.1,9.5,1,28.7,13.5,32.9c7,2.4,13.8-0.8,21.2-4.2
				c8.9-4.2,14.9-9.8,18.4-13.7c1.6,3.5,3.1,7,4.8,10.5c-1.9,3.7-4.6,8.1-8.5,12.4c-9.8,10.7-21.6,14.9-27.6,16.4
				c-0.4,0.2-10.4,5.8-10.6,16.1c-0.2,8.8,6.8,14.3,8,15.2c9.7,7.5,23,3.9,29.7,2.2c9-2.4,15.8-6.8,20.5-10.8
				c4.8,1.6,8.9,2.5,11.6,2.9c7.4,1.3,26.1,4.3,42.4-5.8c2.9-1.8,5.1-3.6,6.5-4.8c7.1-5.6,14.2-11.3,21.3-16.9
				c2.8,0,7.1-0.2,12.3-1.6c5.7-1.5,13.8-3.5,19-10.6c2.8-3.7,3.9-7.7,4.4-10.1c-1.6-8-0.4-11.1,1.4-12.3c2.2-1.5,4.6,0.2,7-1.4
				c2.5-1.7,2.7-5.4,2.6-10c0-12.7-1.1-18.7-1.1-18.7c-0.7-3.8-1.5-7.7-2.3-11.4c-1.8-9-3.6-17.9-5.5-26.8c6.3-5.4,12-9,16.2-11.4
				c5.6-3.2,9.8-4.9,12.1-9.7c1.6-3.5,1.4-6.8,1.2-8.9c-1.4-14.6-16.9-34.7-19.5-38c13.7-0.3,27.4-0.6,41-0.9
				c-0.4,8-0.9,21.1-0.9,37.3c0,27.9,1.3,53.9,1.3,53.9c1.2,25.3,2.3,29.1,0.8,40.4c-1,7.3-2.7,19.4-9.5,33.4
				c-3.8,7.8-12.6,25.2-32.2,37.2c-13.6,8.3-26.8,10.6-32.3,11.3c-4.6,0.6-8.5,0.7-11.4,0.7c-4.8,80.7-9.5,161.5-14.3,242.2
				c-2.8,27.6-5.6,50.1-7.7,65.6c-2.8,20.8-4.8,32.6-5.9,51.6c-1.2,20.1-0.7,34.9-0.4,44.7c0.9,31.1,0.7,56.6,0.3,107.4
				c-0.2,29.4-1,63.9-0.3,106.1c0.1,4.5,0.4,23.2,3.8,47.6c2.7,19.3,3.9,28.8,7.7,37.2c7.1,16,13.9,16.2,37.8,45.6
				c18.1,22.2,21,30.5,18.9,37.8c-2.4,7.9-10.4,12.6-11.7,13.5c-10.9,6.5-18.5,0.7-27.8,7.4c-6.3,4.5-4,8-10.8,14.3
				c-10.2,9.6-24.2,10-27.7,10.2c-5.9,0.2-13.6-0.7-34-11.1c-28.8-14.8-27.9-20.4-41.8-24c-22.4-5.7-43.1,4.3-46.5,6
				c-23.3,11.7-21.3,28-40.1,32c-11.6,2.5-11.7-3.9-39.4-4.5c-13-0.3-17.8,1-27.1-2c-8.8-2.8-9.2-5.5-20.8-9.7
				c-8.3-3-9.3-2.1-22.6-5.9c-10.5-3-15.7-4.5-19.8-6.9c-12.2-7-9.9-13.8-20.2-20.9c-15.7-10.8-36.1-5.5-40.3-4.4
				c-6.2,1.6-14.5,3.7-20.2,10.9C219.2,1730,220.9,1733,216.4,1737.2z"/>
			<g>
				<path class="st4" d="M213.6,1734.3c-4.7,4.1-14.4,3.1-20.1,3.9c-5.2,0.7-10.3,1.6-15.5,2.5c-2.4,0.4-3.8,1.2-5.2-0.7
					c-2.6-3.5-1.2-10.5-0.5-14.3c1-5.1,2.5-10.3,5-14.9c4.8-8.8,13.3-13.5,21.2-19.1c15.1-10.7,25.4-24.6,32.1-41.8
					c8.6-21.9,14.5-45.8,18.8-68.8c7.5-40.4,7.4-82.4,7.4-123.5c-0.1-36.5-1.2-73.1-3.1-109.6c-4.5-85.9-4.2-171.6,0.6-257.5
					c4.4-79.6,12.9-158.8,26.2-237.5c0.7-4.5,4.2-6.4,7.5-9.4c4.3-3.9,8.5-7.9,12.8-11.9c10-9.7,19.5-19.9,28.8-30.3
					c15.5-17.2,30.5-34.9,41.3-55.4c11.1-21.2,16.5-44.9,28.7-65.5c4.2-7,8.4-13.8,12.5-20.9c3.3-5.8,6.7-11.7,10-17.5
					c0.6-1.1,2.2-3.4,2.1-3.3c2.5-1.6,8.4-1.7,11.4-2.4c12.5-3,24.7-6.9,36.5-11.7c-1.3-0.4-2.6-0.7-3.9-1
					c11.9,12.5,20.7,27.4,25.9,43.9c0.6-1.5,1.2-3,1.8-4.5c-26.2,16.9-40.5,45.9-41.6,76.6c-1.3,32.3,14.3,63,40.1,82.1
					c-0.4-1.8-1-3.6-1.4-5.4c-3.9,5.2-8,10.3-12.5,14.9c-2.2,2.2-4.2,4.2-5.3,7.1c-3.2,8.1-1,18.1,3.4,25.4c5.4,8.9,14.5,14,25,11.7
					c12-2.6,23.6-10.2,31.7-19.2c-2.1-0.3-4.2-0.5-6.2-0.8c1.6,3.5,3.1,7,4.8,10.5c0-1.3,0-2.7,0-4c-4.4,8.4-10.6,15.6-18.7,20.6
					c-5.1,3.1-10.7,4.2-15.9,6.8c-9.3,4.6-14.9,16.3-11.6,26.2c9.1,28,47.7,16,64,2.8c-1.3,0.4-2.6,0.7-3.9,1
					c12.8,4,26.8,5.8,40.1,3.3c18.1-3.5,31.7-17.9,45.6-28.9c-1,0.4-1.9,0.7-2.8,1.2c11.6-0.1,25.7-3.3,33.5-12.5
					c3.3-3.9,6.2-9.4,6-14.6c-0.1-1.3-1.6-6.8-0.1-8.1c0.2-0.2,3.3,0.1,3.9,0c1.2-0.3,2.6-1,3.6-1.7c4.5-3.6,3.9-10.9,3.8-16.1
					c-0.1-4.8-0.3-9.7-1-14.6c-1.9-13.5-5.3-27-8.1-40.4c-0.4,1.3-0.7,2.6-1,3.9c4.3-3.6,8.8-6.8,13.6-9.7c3.6-2.2,7.4-3.9,10.6-6.5
					c6.5-5.3,7.4-13.2,5.7-21c-2.9-13.5-11.7-25.8-20-36.4c-1,2.2-1.9,4.5-2.8,6.8c13.7-0.3,27.4-0.6,41-0.9
					c-1.3-1.3-2.7-2.7-3.9-3.9c-1.6,35.3-0.9,70.7,1.2,105.9c0.7,12,0.9,23.1-1.6,34.9c-3.3,15.8-10.6,31.6-21.3,43.7
					c-14.9,16.7-36.4,25.8-58.6,25.6c-2.2,0-3.9,1.9-3.9,3.9c-3.8,64-7.5,128-11.3,192c-1.8,30.2-3.7,60.2-7.4,90.3
					c-2.9,23.8-7,47.5-8.8,71.4c-1.6,22.4-0.8,44.6-0.4,67c0.4,21.3,0.2,42.7,0.1,64.1c-0.3,48.7-2.7,97.8,0,146.4
					c0.7,12.9,2.1,25.6,3.9,38.4c1.4,10.2,2.4,20.7,5.8,30.5c4.7,13.3,14.3,22,23.7,32c9,9.5,17.7,19.6,25.3,30.3
					c3.8,5.4,9.4,12.3,9.4,19.3c0,8.3-9.4,15-16.6,16.6c-5.2,1.1-10.6,0.3-15.8,2c-4.8,1.6-9.1,4.8-11.6,9.3
					c-2.9,5-5.4,9.1-10.5,12.2c-4.7,2.8-10.1,4.5-15.5,5.1c-5.6,0.7-10.9,0.2-16.2-1.4c-11.8-3.6-23.1-9.8-33.7-16.2
					c-6.2-3.8-12-8.4-18.1-12.3c-16.1-10-37.8-7.8-54.7-1.1c-8.3,3.3-15.9,7.9-22.1,14.3c-5.8,6-10,14.6-17.9,18.3
					c-5.9,2.8-11.1,2.3-17.1,0.7c-9.4-2.5-19.1-3.4-28.9-3.6c-10.6-0.1-20.4,0.7-30.1-4.5c-7.7-4.1-15.1-7.7-23.7-9.5
					c-9.8-2.2-20.1-4.4-29.4-8.3c-5.1-2.2-9.1-5.4-12.2-10c-2.8-4.1-5.3-7.9-9.3-11c-14.9-11.7-36.6-10.2-53.4-3.8
					c-5.1,1.9-9.7,4.7-13.2,8.8C218,1724.8,217.3,1730.6,213.6,1734.3c-3.6,3.6,2.1,9.3,5.6,5.6c3.8-3.9,4.4-9.1,7.7-13.2
					c4.1-5.1,10.1-7.4,16.3-9.1c8.1-2.2,16.6-3.4,25-2.1c6.4,1,12.8,3.6,17.5,8.3c3.6,3.6,5.6,8.3,9.1,12c7,7.5,17.2,10.1,26.7,12.8
					c8.8,2.5,18,3.9,26.5,7.2c8.9,3.5,16.1,9.1,25.9,10.6c11.2,1.6,22.7-0.1,34,1.3c6.5,0.8,12.6,3.3,19.2,4
					c6.9,0.8,14.4-1.5,20-5.6c7-5.2,11.2-13.2,17.5-19.1c14.8-13.8,40.6-19.8,59.5-12.7c5.5,2.1,10,6,14.9,9.4
					c9.8,6.8,20.4,12.6,31.3,17.5c14,6.4,27.7,9.7,42.7,4.5c4.8-1.6,9.4-4.1,13.2-7.4c4.2-3.6,5.8-8,8.8-12.3
					c3.8-5.4,10.3-5.4,16.1-5.9c5.4-0.4,10.4-1.7,15-4.6c6.5-4.1,12.6-10.6,13.3-18.7c0.6-6-2-11.7-5-16.8
					c-10.9-18.8-26.8-34.6-41.8-50.2c-11.4-12-14.5-26-16.8-42.1c-7.1-49.1-5.4-98.6-4.8-148.1c0.5-44.2,0.4-88.4-0.4-132.7
					c-0.9-51.7,10.9-102.1,14.4-153.5c4.2-63.9,7.5-128,11.3-192c1-16,1.9-32,2.8-48c-1.3,1.3-2.7,2.7-3.9,3.9
					c19.6,0.1,38.9-6.3,54.3-18.6c13.1-10.4,22.4-24.9,28.5-40.4c10.9-27.4,6.2-55.9,5.2-84.5c-0.8-24.9-0.9-49.8,0.2-74.7
					c0.1-2.1-1.9-4-3.9-3.9c-13.7,0.3-27.4,0.6-41,0.9c-3.7,0.1-4.8,4.2-2.8,6.8c7,8.9,14,19.3,17.2,30.2c0.8,2.8,1.6,5.9,1.2,8.9
					c-0.6,5.1-4.3,7.2-8.3,9.4c-7.1,4.1-13.8,8.5-20.1,13.8c-1.1,0.9-1.3,2.5-1,3.9c2.7,12.9,5.9,25.9,7.9,38.8
					c0.7,4.9,0.8,10,0.9,15c0,3,1,7.7-2.2,9c-2.5,1-5,0.2-7.1,2.7c-3,3.4-2.2,8.1-2,12.2c0.2,6.7-4.2,12.3-10,15.4
					c-5.5,2.9-12.4,4.5-18.7,4.8c-3.5,0.2-4.5,0.4-7.4,2.7c-3.6,2.8-7.1,5.6-10.7,8.5c-5.8,4.6-11.4,10-18.1,13.2
					c-6.9,3.4-14.6,4.7-22.3,4.7c-4.5,0-9.1-0.5-13.6-1.3c-4.8-0.8-11.1-4.4-15.5-1.9c-5.7,3.3-10.4,7.2-16.9,9.2
					c-5.4,1.7-11.2,3-16.9,2.8c-11.3-0.5-23.3-12-14.9-23.3c2.2-2.9,4.7-4.7,8-5.7c5.9-1.9,11.7-4.7,16.9-8.3
					c6.5-4.6,12-10.3,16.2-17.1c1.3-2.2,3.3-4.8,2.9-7.4c-0.6-3.7-3.6-8-5.1-11.4c-1-2.3-4.6-2.5-6.2-0.8
					c-6.7,7.4-15.1,12.7-24.5,16.1c-10.1,3.6-17.9-1.2-21.8-10.7c-2-5.1-3.3-12.1,0.3-16.8c5-6.5,11.1-12.3,16-19
					c1.3-1.9,0.1-4.2-1.4-5.4c-23.6-17.5-37.3-45.9-36.2-75.2c1-27.8,14-54.5,37.8-69.8c1.4-0.9,2.4-2.8,1.8-4.5
					c-5.6-17.8-15.1-33.8-27.9-47.3c-0.9-1-2.6-1.5-3.9-1c-12.8,5.1-25.9,9.3-39.4,12.3c-4.6,1-10.5,0.7-13.2,4.9
					c-3.5,5.4-6.2,11.3-9.4,16.9c-4.5,8-9.3,15.8-14,23.6c-6,10-10.6,20.7-14.6,31.5c-8.8,23.6-19,45.7-34.6,65.6
					c-16.2,20.6-34.5,40.1-53.4,58c-4,3.8-8.1,7.5-12.2,11.1c-1.6,1.3-3.9,2.8-4.9,4.5c-1.2,2-1.1,5.2-1.5,7.4
					c-1.9,11.1-3.6,22.2-5.4,33.3c-3.2,21-6.1,42.1-8.7,63.3c-4.3,35.9-7.6,71.9-10.1,108c-6.5,94.1-8.3,188.6-3,282.7
					c1.9,34,3,68,3.4,102c0.4,42.4,1.1,86-5.6,128c-3.9,24.5-10.2,49.2-18.4,72.5c-3,8.4-6.7,16.6-12,23.9
					c-6.3,8.8-14.6,15.4-23.4,21.4c-8,5.4-15.3,11.1-19.7,19.8c-4.1,8.3-6.9,18.7-6,28.1c0.6,5.9,3.7,12.7,10.5,12.9
					c3.2,0.1,6.6-1,9.7-1.6c6.2-1.1,12.3-2,18.6-2.6c6.1-0.7,11.7-1,16.6-5.1C223.1,1736.6,217.5,1731,213.6,1734.3z"/>
			</g>
		</g>
		<g>
			<path class="st5" d="M171.9,858.5c1.7,26,2.9,45.3,4.4,67.1c1.3,20.7,2.4,35.7-3.1,54.6c-2.9,10.1-6.8,18-9.6,23.2"/>
			<path class="st5" d="M114.1,1009.2c5.1-3.2,12.2-8.4,18.9-16.3c16.6-19.7,18.9-42.5,20.5-61.1c2.9-33.1-5.4-48-2-68.8
				c0.4-2.2,1.5-8.4-0.7-15.8c-2-6.9-6-11.8-8.9-14.8"/>
			<path class="st5" d="M225.3,1652.8c30.1-48.6,43.4-91.1,49.9-120.6c8.7-39.2,9.6-78.7,11.4-157.8c0.7-30,0.7-54.7,0.6-71.6"/>
			<path class="st5" d="M167.7,1734.7c11.9-7.6,30.1-20.4,49.6-39.2c38-36.6,57.6-73.6,84.2-124.9c17-32.9,25.6-49.7,30.8-71.5
				c9.4-39.8,4.7-70.2,1.9-95.8c-2.2-20.4-0.2-76.9,3.8-190c1.3-35.4,1.1-17.1,9.3-163.4c5.3-94.5,6.7-126.7,11.3-201.2
				c2.6-42.3,5-77,6.5-100"/>
			<path class="st5" d="M327.6,798.2c-1.8,25.9-3.2,52.5-4.2,79.8c-1.6,46.3-1.8,90.8-0.7,133.4"/>
			<path class="st5" d="M402.3,946.3c1.3-16,3-39.9,4.2-69.2c3.4-78.9,0-110.9,5.9-172.8c1.6-17.3,4.5-41.8,9.6-71.1"/>
			<path class="st5" d="M367.8,1483.9c13.5-31.2,31.1-77.9,43.9-136.5c13.2-60.2,15.5-106.2,17.4-148.8
				c6.5-146.2,14.9-345.4,15.5-360.3c1.9-46.8,5.5-118,12-206.2"/>
			<path class="st5" d="M420.9,1622.2c1.4-18.1,3.9-45.8,8.5-79.5c14.9-109.4,34.3-152.5,47.2-230c5.5-33.1,6.6-88,8.6-196.4
				c1.1-60.6,1.9-145,0.8-247.1"/>
			<path class="st5" d="M548.2,1483.4c-10.3-28.9-23.8-74.1-29.1-130.6c-6.4-67.9,2.7-113.1,10.6-187.5
				c5.2-48.8,11.1-120.2,11.8-209.2"/>
			<path class="st5" d="M470.1,1701.8c13.4-5.9,44-21.6,66.7-56c30.5-46.2,25.6-94.1,23.9-106.9"/>
			<path class="st5" d="M587.4,1712.7c-7.4-13.1-16.1-32.4-19.7-57c-1.6-10.7-1.9-20.4-1.7-29"/>
			<path class="st5" d="M563.3,1443.4c1.1-21.4,2.7-53.3,4.5-91.9c4-88.1,6-132.2,6.1-160.4c0-76.6-5.3-88.4-2.7-151.1
				c1.9-44.2,6.2-80,9.6-102.9"/>
			<path class="st5" d="M611.3,915.7c2.3,3.4,6.3,8.3,12.6,12c15.6,9.1,32.3,3.6,35.2,2.5"/>
			<path class="st5" d="M650.7,907.6c8.1-1.8,19.8-5.7,30.3-14.9c21.8-19.2,23.9-48.5,25.6-74.5c1-14,0.9-34.6-4.7-59.2"/>
		</g>
		<g>
			<path class="st6" d="M86.8,975.6c1,5.6,4.2,20.5,17,29.5c21,14.9,48.9,0.5,53.1-1.6c8.1-4.2,12.2-8.5,24.8-21.5
				c41.6-43.2,38.8-39.5,41.5-42.7c12.1-14.9,30-40.5,43.6-79.8c2.8-1.6,5.6-3.3,8.4-5c-10.2,68-23.8,178.8-26.6,316.7
				c-4.2,203.1,16.5,394.6-7.9,398.5c-4.2,0.7-11.6-9.3-26.2-29.2c-20.3-27.6-34.3-57.2-42.6-74.9c-5.1-10.9-7.5-16.9-13.5-26.2
				c-9.7-15.2-15.5-18.1-22.8-30.5c-7.2-12-9.7-22.2-12.6-34.3c-3.1-12.8-6.3-32.7-4-57.6c-7.2,0-15.4-0.4-24.3-1.6
				c-12.1-1.6-22.7-4.3-31.4-7.1c-0.8-7-1.6-17.4-0.9-30c1.2-19.4,5.6-33.4,6.9-38.3c8.5-30.3-2.1-46.8-3.1-106.1
				c-0.6-33.5,2.8-31.3,4.2-90.2c0.7-29.4,0.6-53.4,0.3-69.3C76,974.9,81.3,975.3,86.8,975.6z"/>
			<g>
				<path class="st6" d="M83,976.7c1.6,9.7,5.7,19.1,12.4,26.3c8.8,9.4,21.6,13.5,34.3,12.6c9.5-0.7,18.8-3.6,27.4-7.7
					c7.7-3.7,13.8-9.1,19.7-15.2c14.5-14.7,28.7-29.8,43.2-44.5c3.9-3.9,7.3-7.8,10.7-12.3c17.4-22.7,30.3-48.5,39.8-75.4
					c-0.6,0.8-1.2,1.6-1.8,2.4c2.8-1.6,5.6-3.3,8.4-5c-1.9-1.5-3.9-3-5.8-4.5c-9.2,62.1-16.1,124.5-20.7,187.1
					c-6.2,86.4-7.5,172.9-6,259.4c0.7,39.3,1.9,78.6,2.9,118c0.8,30.4,1.6,60.8,1.1,91.2c-0.2,10.6-0.5,21.3-1.6,31.9
					c-0.7,6.7-1.6,13.5-3.7,20c-0.4,1.3-0.2,0.9-1.1,2.5c-0.2,0.4-0.4,0.7-0.7,1c-0.7,1.1,0.3-0.4-0.4,0.6c-0.2,0.2-1.2,1.4-0.2,0.3
					c-0.1,0.2-0.7,0.5-0.9,0.6c1.6-0.4,0.1,0,0-0.1c-0.2,0,0.3,0.1,0.2-0.1c0.6,0.1,0.7,0.1,0.2,0c-0.4-0.1-0.4-0.1,0.1,0.1
					c-3.6-2.6-6.9-6.5-9.9-10.3c-6-7.7-11.8-15.6-17.4-23.6c-11.1-16-20.6-32.9-29.3-50.3c-7.1-14.3-12.9-29.6-21.5-43.2
					c-9.1-14.6-22.1-26-28.9-42.1c-6.3-15.1-9.6-32.5-10.9-48.8c-0.8-10.2-0.7-20.4,0.2-30.5c0.2-2.2-1.9-3.9-3.9-3.9
					c-18.6,0-36.9-2.9-54.6-8.6c1,1.3,1.9,2.5,2.9,3.8c-1.7-14.4-1.6-29.2,0.5-43.6c1.5-9.7,4.5-19,6.6-28.5c3.9-17,1.4-34-0.6-51.1
					c-2.8-23-4.5-46.3-3.6-69.6c0.6-15.2,2.5-30.5,3.2-45.7c1.6-31.7,1.8-63.6,1.2-95.4c-1.3,1.3-2.7,2.7-3.9,3.9
					c5.4,0.4,10.8,0.8,16.2,1.2c5.1,0.4,5.1-7.6,0-8c-5.4-0.4-10.8-0.8-16.2-1.2c-2.1-0.1-4,1.9-3.9,3.9c0.5,28.6,0.3,57.3-0.8,85.9
					c-0.7,16.9-2.4,33.7-3.3,50.5c-1.3,22.1,0,44.4,2.4,66.4c1.9,17.2,5.6,34.9,2.7,52.2c-1.7,10.3-5.4,20.1-7.1,30.4
					c-2.8,16.1-3.2,32.3-1.3,48.5c0.2,1.9,1.1,3.3,2.9,3.8c18.3,5.9,37.5,8.8,56.7,8.9c-1.3-1.3-2.7-2.7-3.9-3.9
					c-1.6,18.6-0.6,37.4,3.4,55.7c4,18,9.7,34.8,21.5,49.3c5.2,6.4,10.6,12.5,15,19.5c4.8,7.6,8.6,15.7,12.4,23.8
					c7.2,15.5,14.7,30.8,23.2,45.6c10.2,17.7,21.9,34.3,34.5,50.3c4.2,5.3,11.4,16.1,19.5,11.4c4.4-2.6,6.2-8.2,7.5-12.8
					c2.1-7.8,2.8-16,3.5-24c2-26.5,1.4-53.3,0.9-79.9c-0.7-37.3-1.9-74.5-2.8-111.9c-2.2-88.7-2.5-177.4,2.6-266.1
					c3.9-68.5,10.6-136.8,20.2-204.7c0.8-5.9,1.7-11.8,2.6-17.7c0.4-3.2-2.6-6.4-5.8-4.5c-2.9,1.7-8,3.6-9.8,6.5
					c-0.9,1.3-1.2,3.3-1.8,4.8c-0.7,2.1-1.5,4.2-2.3,6.2c-2.7,6.9-5.6,13.8-8.8,20.4c-5.1,10.6-11,21-17.5,30.8
					c-4.6,6.8-9.4,13.9-15.2,19.8c-9.4,9.5-18.7,19-27.9,28.6c-8.8,9.1-17.2,19.4-27.3,27.3c-5.2,4.2-11.6,7-17.8,9.1
					c-12.3,4.1-26.4,5.3-37.7-2.2c-9.4-6.2-14.3-17-16.1-27.8C89.7,969.6,82.1,971.7,83,976.7z"/>
			</g>
		</g>
		<g>
			<path class="st6" d="M612.3,1587.5c-3.2-1-5.4-5.5-5.8-65.2c-0.4-54.9,1.2-80.6,1.6-120.5c0.6-67.3-3.3-66.4-0.7-108.9
				c2.3-37.2,5.5-41.5,11.3-93.9c1.5-13.1,3.6-34,9.1-127.1c2.1-35.7,4.7-82.7,7.4-138.5c8.8,0.1,23.2-1.1,38.2-8.8
				c26.3-13.5,37.2-38.4,40.9-47.3c12.6-30.2,3.6-47.4,4.4-126.7c0.1-13.5,0.5-24.5,0.8-31.4l29.3-13.1l0,0l0,0
				c0.4,0.2,23.6,13.1,26.6,14.9c26.3,15.8,17.2,93.8,14.3,128.6c-8.9,103.9,13.9,90.5,3.9,189.9c-7.6,75.7-22,96.2-21.6,154.1
				c0.2,25.1-5.7,50-6.1,75.1c-0.2,16.4,0.3,32.3-10.7,43.7c-8.7,9-20.8,11.2-28.8,11.8c-3.2,23-9.2,56.2-21.4,94.9
				C678.2,1504.7,629.2,1593,612.3,1587.5z"/>
			<g>
				<path class="st6" d="M613.3,1583.7c0.1,0,0.8,0.2,0.7,0.5c0.1-0.1-0.7-1.6-0.3-0.4c-0.3-0.7-0.4-1.3-0.6-2.1
					c-1.3-5.2-1.4-11-1.7-16.7c-1.5-29.2-1.2-58.6-0.8-87.8c0.7-47.7,2.1-95.2,0.2-142.9c-0.7-18.3,0-36.5,1.6-54.7
					c1.7-19.4,5.1-38.6,7.7-58c3.6-28,5.9-56.1,7.7-84.4c3.9-58.9,7.1-117.7,10.1-176.7c0.4-9.1,0.9-18.1,1.3-27.2
					c-1.3,1.3-2.7,2.7-3.9,3.9c22.4,0,44.1-8.1,60.2-23.9c10.7-10.6,18.4-23.7,23.7-37.7c9.4-24.4,5.2-51.5,4.2-77
					c-1-26.5-1-53,0.1-79.5c-0.7,1.1-1.3,2.3-1.9,3.4c9.7-4.4,19.5-8.7,29.3-13.1c-1.3,0-2.7,0-4,0c5.7,3.2,11.4,6.4,17.2,9.6
					c5.2,2.9,11.1,5.4,14.9,10.3c4.8,6.4,6.9,14.6,8.3,22.4c1.9,10,2.4,20.1,2.5,30.3c0.5,43.6-8.1,86.8-5.5,130.4
					c1,15.4,3.6,30.5,5.6,45.9c2.5,18.8,2.8,37.8,1.7,56.7c-1.6,27.6-5.2,55.2-10.6,82.4c-3.9,19.5-8.5,38.9-10.9,58.8
					c-1.3,10.9-2,21.9-2.1,32.9c-0.1,16.2-1.6,32-3.6,48c-1,8.3-1.9,16.5-2.3,24.8c-0.4,7.3-0.1,14.6-0.6,21.9
					c-0.8,13.9-5.5,26.6-18.9,32.8c-5.1,2.3-10.7,3.4-16.2,3.9c-1.6,0.1-3.6,1.1-3.8,2.9c-6.2,43.6-17.2,86.4-32.6,127.6
					c-8.2,21.9-17.4,43.3-27.8,64.3c-8.3,16.6-17.2,33.1-27.9,48.3c-3.9,5.6-8.2,11.3-13.3,15.9c-1.6,1.4-3.3,2.8-5.2,3.7
					c-0.4,0.1-0.8,0.3-1.6,0.5c0.8-0.2-0.1,0-0.3,0C613.2,1583.8,614.5,1584,613.3,1583.7c-4.9-1.4-7,6.2-2.1,7.7
					c9.1,2.7,17.8-8.2,22.7-14.2c11.1-13.6,19.9-29.1,28.1-44.4c22.9-43.1,41.1-89.2,53.7-136.3c6.2-23.3,11-47,14.3-70.8
					c-1.3,1-2.5,1.9-3.8,2.9c13.4-1,26.7-5.7,34.9-16.9c8.9-12.3,8.3-28.2,8.6-42.6c0.3-18.9,3.6-37.5,5.3-56.3
					c1.3-14.8,0.5-29.7,1.7-44.5c1.8-22.7,7.2-44.8,11.6-67.2c5.9-30.1,10-60.8,11.4-91.5c0.9-20.4-0.4-40.4-3.3-60.4
					c-2.8-19.2-5-38.1-4.8-57.5c0.1-25.3,3.2-50.3,4.9-75.5c1.6-23,2.7-47-2.5-69.7c-1.9-8.5-5.1-17.5-11.2-24.1
					c-5.2-5.5-13.2-8.8-19.7-12.4c-3.6-2-7.3-4.1-10.9-6.1c-2.3-1.3-3.9-1.4-6.4-0.4c-7.4,3.3-14.9,6.6-22.3,10c-2,0.9-4,1.8-6,2.7
					c-1.3,0.6-1.9,2.2-1.9,3.4c-1,23-1.1,46-0.4,69c0.4,15.8,1.6,31.7,1.9,47.6c0.2,10.2-0.2,20.4-3,30.3
					c-3.3,11.7-9.1,23.2-16.4,32.9c-14.9,19.7-37.8,30.5-62.4,30.5c-2.2,0-3.9,1.8-3.9,3.9c-3,62.6-6.5,125.2-10.4,187.7
					c-1.8,27.6-3.5,55.4-6.6,82.9c-4.8,41.2-12.6,81.8-11.5,123.4c0.5,20.1,1.6,40.2,1.6,60.4c0,26.4-0.9,52.8-1.3,79.2
					c-0.5,30.4-0.7,60.9,0.4,91.3c0.3,7.5,0.5,15.2,1.7,22.6c0.4,2.9,1.1,6.2,3.3,8.4c0.9,0.9,1.9,1.4,3,1.8
					C616.1,1592.9,618.2,1585.3,613.3,1583.7z"/>
			</g>
		</g>
		<g>
			<path class="st6" d="M471.2,621.1c13.3,14.8,20.1,26.8,23.8,35.5c1.1,2.5,2.8,6.6,6.3,7.6c6.8,1.9,16.2-8.8,21.1-17.9
				c5.9-10.9,5.1-19,6.8-35.7c0.9-9.6,2.8-23,6.6-39.2c-10.3,9.6-22.1,19.6-35.5,29.6C490.2,608.5,480.5,615.2,471.2,621.1z"/>
			<g>
				<path class="st6" d="M468.3,623.8c7.6,8.5,14.5,17.6,19.8,27.7c1.9,3.5,3.1,7.5,5.3,10.9c3,4.8,8.3,7.1,13.6,5
					c5.1-2,9.3-6.1,12.6-10.3c3.6-4.5,6.5-9.3,8.6-14.6c3.9-9.7,3.6-20.7,4.5-30.9c1.2-13.2,3.5-26.3,6.6-39.2
					c1-3.9-3.7-6.5-6.6-3.9c-19.8,18.2-41.1,34.7-63.8,49.1c-4.3,2.8-0.3,9.6,4,6.8c23.3-14.8,45.1-31.7,65.3-50.3
					c-2.2-1.3-4.4-2.6-6.6-3.9c-2.8,11.4-4.8,23.1-6.2,34.9c-0.6,5.3-1,10.6-1.4,16c-0.4,4.5-0.6,8.8-1.6,13.1
					c-2,8.9-7.4,18.1-14.7,23.8c-0.8,0.6-1.7,1.2-2.6,1.6c-0.4,0.2-0.3,0.1-0.7,0.4c-0.1,0.1-1.6,0.4-1,0.4c-0.4,0.1-0.8,0.1-1.2,0
					c0.6,0.1-0.1-0.1-0.4-0.1c-0.7-0.4-1.3-1-1.7-1.7c-2-3.1-3.2-6.9-5-10.3c-5.7-10.9-13.2-20.8-21.4-30
					C470.5,614.5,464.9,620.1,468.3,623.8z"/>
			</g>
		</g>
		<g>
			<path class="st6" d="M252.2,476.9c0.7-5.8-2.4-8.6-3-12.9c-1.2-8.1,7.4-14.6,18.5-25.5c6-5.9,14.2-14.6,23.2-26.1
				c-0.1-1.8-0.1-4.4,0.7-7.4c1.9-6.7,6.8-10.6,11-13.8c13.3-10.2,22.7-15.6,34.1-23.9c0,0,5.1-3.7,9.6-7.2
				c7.3-5.8,21.5-23.4,20.7-89.4c-1.6-3.2-3.6-7.9-5.1-13.9c-2.6-11.1-1.2-19.1,1.3-34.5c6.5-39.8,6.5-43.9,10.6-55.8
				c0,0,3.6-10.7,7.6-18.9c4.7-9.4,24.3-28,53.6-35.8c10.2-2.7,51.4-12,77.7,10.7c6,5.2,10.1,11.1,13.2,15.6
				c11.7,16.9,16,33.7,18.2,43.9c2.9,13.1,1.8,13.8,4.8,25c3.3,12.5,6.1,16.6,10.8,28.9c5.9,15.6,8.8,27.9,14.4,52.7
				c2.5,11,4.5,21.1,6.2,30.2c-6,3.7-9.1,7.5-10.9,10.4c-0.7,1.1-1.3,2.4-2.7,4.3c-3,4.2-4.8,4.8-6.9,7.3c-4.8,5.7-1.2,9.3-5.6,13.7
				c-2.9,2.9-5.4,2.2-9.1,6.3c-1,1.1-2.2,2.5-3,4.7c-1.3,3.7,0.1,5.6,0.7,12.4c0.2,2.3,0.2,5.5,0.1,11.9c-0.1,7.1-0.4,7.2-0.2,9.4
				c0.3,5.6,2.3,9.5,6.2,17.1c2.1,4,5.9,10.6,12,18c3.5,4.2,6.8,7.4,9.2,9.7c-3.6,2.9-7.1,5.8-10.8,8.7c0,0-7.2,5.9-13.8,11.4
				c-13.4,11.1-32.7,29.6-35.5,32.2c-14,13.2-55.7,50.9-62.7,45.2c-3.8-3.1,8-14.8,11.4-40.7c3.3-24.5-4.9-29.7,1-47.6
				c4.8-14.4,11.7-15.7,21.9-33.9c12-21.5,3.6-25.6,13.9-39.2c5.3-6.9,17.6-19.9,24.5-29.2c2.3-3,3.8-5.5,4.2-6.2
				c2.5-4.2,3.6-6.7,5.4-10.2c2.3-4.5,3-4.9,7-11.5c5.7-9.5,8.6-14.3,9.4-17.8c0.7-3.1,0.6-5.3-2-18.4c-3.1-15.3-4.6-23-7.5-33.2
				c-4.1-14.9-4.7-13.8-5.1-18.4c-0.8-11.4,3.1-15.5,1.2-27c-1-6.1-1.9-11-5.9-14.3c-4.8-3.9-9.5-1.9-17.2-6.5
				c-3.9-2.3-6.1-5-7.7-6.8c-7.4-8.5-5.9-14.7-11.7-24.2c-4.5-7.4-10.3-11.4-13.4-13.6c-10.9-7.6-22.1-8.7-27.2-9.2
				c-6.8-0.6-24.3-2.2-38.2,8.6c-6.5,5.1-10.6,14.2-18.5,32.5c-0.4,1-4.2,12.9-11.9,36.8c-2.2,6.7-3.3,10.7-2.5,16.1
				c1,6.5,4.3,9.9,10.6,19.2c0.7,1,4.3,7.1,11.5,19.1c12,19.9,14.1,24.9,14.4,31.5c0.2,5.3-1,5.6-1.6,12.6
				c-1.7,17.5,5,24.7,6.6,38.3c2.5,19.8-9.9,20.5-10.6,44.7c-0.5,16.9,5.5,15.3,8.3,43.6c1.1,11.1,0.1,10.6,1.9,39.6
				c0.9,14.5,1.3,21.8,2.2,25.9c1.7,8.7,3.9,14.5,3.4,23.8c-0.2,5.9-1.4,10.6-2.3,13.8c-5.1,0.8-12.2,2.5-20.1,6.2
				c-7.1,3.3-17.4,8.1-24.1,18.7c-5.6,8.8-9.6,22.8-4.3,27.4c4,3.5,12.4,0.5,16.9-1c10.7-3.7,14-9.7,17.7-8.3
				c3.3,1.3,2.2,6.8,4.4,17.3c3.3,16.1,8.6,18.4,8.6,27.9c0,10.7-6.8,18.6-10,22.6c-22.7,28.5-16.5,50.5-53.1,106.4
				c-15.5,23.7-28.3,37.5-52.5,63.7c-18.5,20.1-27.7,27.7-40.8,33.2c-6.2,2.7-27.7,11.4-52.3,5.4c-7.8-1.9-18.7-8.6-40.4-22.1
				c-25.5-15.8-31-21-44.4-23c-7.1-1-20.7-2.8-31.9,5.8c-8,6.1-10.9,14.6-12,18.8c-1.5,1.2-2.9,2.3-4.4,3.5c-2.8-4.5-3-8-2.9-10.3
				c0.5-8.3,7.8-10.4,15.5-23.9c3.9-6.8,2.3-6.8,5.9-12.2c6-9.1,15.2-16.6,15.2-16.6l0,0c0,0-0.8-11.7-0.9-12.5
				c-0.4-6.1,4.4-19,27.8-49.4c-1.3-2-2.9-5.2-3.4-9.3c-1.2-9.5,4.7-17.1,10.3-24.3c3.7-4.8,10.2-12,20.4-18.4
				c8.7-32.1,18.7-57.3,26.5-74.9c14-31.6,28.1-56.7,28.1-56.7c8.8-15.8,13.8-34,25.1-48.1C248.9,484.8,251.6,481.6,252.2,476.9z"/>
			<g>
				<path class="st6" d="M256.1,476.9c0.3-3.1-0.3-6-1.4-8.9c-1-2.5-2.1-4.8-1.3-7.4c1.6-5.8,8-10.6,12.2-14.5
					c5.1-4.8,10-9.7,14.7-14.9c2.5-2.8,5-5.6,7.4-8.4c2.4-2.8,6.9-6.6,7.3-10.4c0.4-3.5,0.2-6.4,2-9.7c1.7-3,4.4-5.4,7.1-7.6
					c6.2-4.9,12.8-9.4,19.4-13.8c9.1-6.2,18.9-12.1,27.1-19.5c8.8-7.9,12.9-20.2,15.5-31.3c2.8-11.8,4.1-23.9,4.7-36
					c0.2-3.7,0.3-7.5,0.4-11.3c0.1-2,0.1-4.1,0.1-6.1c0-2.2,0.4-5.3-0.1-7.4c-0.8-3-2.7-5.8-3.6-8.7c-1.2-3.6-2.1-7.3-2.5-11.1
					c-0.7-6.4,0.1-12.9,1.2-19.2c1.3-8.1,2.6-16.2,3.9-24.3c1.4-8.8,2.6-17.6,4.4-26.3c1-5.1,2.6-10.2,4.4-15.1
					c2.1-5.7,4.1-11.8,7.3-17.1c2.2-3.6,5.2-6.8,8.3-9.7c16.4-15.3,38.4-23.8,60.4-26c11.7-1.2,23.8-0.9,35.1,2.4
					c14.3,4.2,24.6,13.3,32.9,25.4c8.5,12.3,13.9,26.1,17.3,40.7c2.9,12.3,3.9,24.6,8.3,36.6c4.3,12,9.7,23.4,13.3,35.7
					c4.1,13.9,7.1,28.1,10.3,42.2c1.8,8.2,3.4,16.4,4.9,24.5c0.6-1.5,1.2-3,1.8-4.5c-4.7,3-8.9,6.5-11.9,11.2
					c-1.4,2.2-2.6,4.5-4.3,6.5c-1.5,1.6-3.3,3-4.8,4.6c-1.8,2-3.2,4.3-3.9,6.9c-0.6,2.2-0.2,4.8-1.7,6.7c-1.3,1.6-3.5,2.2-5.3,3.3
					c-2.4,1.5-4.4,3.5-6,5.8c-3.2,4.5-3,8.7-2.2,13.9c0.8,4.9,0.7,9.9,0.7,14.9c-0.1,3.5-0.4,7.1-0.2,10.6c0.4,5.1,2.2,9.6,4.4,14
					c6.2,12.4,14.1,23.6,24.2,33.1c0-1.9,0-3.7,0-5.6c-17.2,13.8-34.1,28.1-50.2,43.2c-10.6,10-21.2,20-32.3,29.4
					c-6.8,5.8-13.8,11.5-21,16.6c-2.8,2-5.7,3.9-8.8,5.6c-1,0.5-2.2,1.2-3.1,1.5c-0.4,0.1-1,0.3-1.4,0.4c-0.7,0.2-1.2,0.4-0.9,0.1
					c-0.5,0.3-0.1,0.1-0.2,0c0.5,0.4,0.3,0,1,0.8c0.1,0.2,0.1,0.6,0.2,0.7c0.4,0.6-0.3-0.1,0-0.1c0.1,0-0.1,0.4,0,0.1
					c0.1-0.3,0.1-0.6,0.2-0.9c0.9-2.7,2.2-5.1,3.3-7.7c4.5-10.2,7.6-20.6,8.9-31.6c1.2-10-0.2-19.2-1.2-29
					c-0.9-8.9,1.3-17.8,6.3-25.3c2.4-3.6,5.3-6.7,7.9-10c3.7-4.8,7.1-9.7,9.9-15c2.6-4.9,4.9-10,6.2-15.5c0.8-3.5,1-7.1,1.6-10.6
					c1.4-8.4,7.3-14.4,12.7-20.7c7.3-8.3,15-16.5,20.9-25.9c2.8-4.3,4.8-9.1,7.3-13.5c2.5-4.2,5.2-8.3,7.7-12.6
					c3.5-5.8,8.2-12.2,8.3-19.3c0.1-3.8-0.8-7.7-1.6-11.3c-1.2-6.4-2.5-12.8-3.9-19.2c-2.1-9.9-4.5-19.7-7.6-29.4
					c-0.7-2-1.5-4.1-1.9-6.2c0,0.1,0,0.1-0.1-0.5c-0.1-1.4-0.1-2.8-0.1-4.2c0.1-2.8,0.4-5.4,0.9-8.1c0.9-5.5,1.1-10.6,0.2-16.1
					c-0.8-5.4-1.9-11-5.8-15c-3.7-3.9-8.3-4.4-13.2-5.6c-5.6-1.5-10.1-5.1-13.6-9.7c-3.4-4.4-4.6-9.5-6.5-14.6
					c-2.2-5.7-5.4-10.9-9.6-15.4c-13.3-13.9-33.4-18.9-52.1-17.3c-10.3,0.9-21.3,4.2-28.8,11.6c-6.4,6.2-10,15.2-13.5,23.1
					c-7.1,15.9-12,32.8-17,49.4c-3,10.1-1.9,18.5,3.9,27.2c4.5,6.7,8.8,13.4,13,20.3c5.5,9.1,11.7,18.2,15.9,28.1
					c2.3,5.4,2.3,9.4,1.2,15.3c-2.2,11.2-0.3,21.6,3,32.3c2.7,8.5,4.7,17.4,1.2,25.9c-3.3,8-7.4,14.8-8.5,23.6
					c-1,7.6-0.7,15.2,1.6,22.6c4.3,13.2,6.5,26.3,6.8,40.1c0.2,9,0.7,18,1.2,27c0.5,8.9,0.7,18.1,2.3,27c1,5.9,2.9,11.6,3.3,17.5
					c0.4,6.1-0.4,12.1-2.2,17.9c0.9-0.9,1.9-1.9,2.8-2.8c-23.7,4-49.1,18.3-53.4,43.9c-0.8,4.7-1,10.4,2.4,14.2
					c3.8,4.2,9.8,3.9,14.8,2.8c5.6-1.3,11.3-3.5,16.3-6.6c1.7-1.1,3.8-2.2,5.4-3.5c0.7-0.6-0.1-0.3-0.1-0.2
					c1.3,5.5,1.5,11.1,2.8,16.6c1.3,5.5,3.3,10.6,5.6,15.7c4.4,9.6,1.5,18.7-4.8,26.9c-5.1,6.7-10,13.2-13.7,20.8
					c-3.6,7.1-6.3,14.6-9,22.1c-7.9,21.6-17.3,42.1-29.7,61.5c-14,22.1-31,41.7-48.8,60.9c-14.6,15.8-29.4,33.1-49.4,40.7
					c-10.9,4.2-22.6,6.2-34.3,5.6c-10-0.6-18-3.6-26.5-8.5c-11.8-6.7-23.3-14-34.8-21.3c-7.8-5-15.6-10.5-24.2-14
					c-19.1-7.9-44.2-5.2-55.4,13.9c-1.3,2.1-2.2,4.4-3.1,6.6c-0.3,0.8-0.5,2.3-1,3c-0.1,0.3-2.8,1.9-3.6,2.6
					c2.1,0.3,4.2,0.5,6.2,0.8c-2.6-4.5-3.4-9.1-0.2-13.4c3.2-4.5,7.2-8.3,10.3-12.9c3-4.6,4.6-9.7,7.3-14.4
					c3.3-5.7,8-10.7,12.9-15.2c2.5-2.2,4.1-3.5,3.8-7.1c-0.2-3.5-0.7-7.1-0.7-10.6c0-0.7,0-1.5,0.1-2.2c-0.1,0.9,0-0.1,0.1-0.5
					c0.1-0.6,0.3-1.2,0.4-1.8c0.8-2.9,2-5.6,3.3-8.3c6.3-12.4,14.8-23.7,23.3-34.7c0.8-1,0.7-2.9,0-4c-5.8-9.4-1.7-18.2,4.3-26.3
					c5.2-7.1,11.3-13.3,18.5-18.3c1.9-1.3,3.8-2.2,4.8-4.3c1.1-2.5,1.6-5.6,2.3-8.3c1.6-5.6,3.3-11.3,5.2-16.9
					c3-9.1,6.2-18.2,9.7-27.1c10.7-27.7,24.2-54.1,38.2-80.3c5.3-9.9,9.1-20.4,14.1-30.4c2.4-4.8,5.1-9.4,8.3-13.7
					c2.8-3.7,5.3-7.1,6.1-11.8c0.9-5-6.8-7.1-7.7-2.1c-1.1,6.6-6.7,11.5-10,17.1c-4,6.8-7.1,14-10.3,21.1c-3.6,8.3-7.7,16.2-12,24.2
					c-12.9,24.1-24.8,48.8-34.6,74.3c-6.5,17-12.2,34.3-16.9,52c0.6-0.8,1.2-1.6,1.8-2.4c-10,6.4-18.1,14.5-25,24.1
					c-7.4,10.2-10.5,22-3.6,33.3c0-1.3,0-2.7,0-4c-9.7,12.7-20.3,26.1-26.2,41.2c-3,7.6-1.8,14.7-1.3,22.7c0.4-1,0.7-1.9,1.2-2.8
					c-4.6,3.8-8.8,8.3-12.5,12.9c-2.4,3-4.7,6.2-6.1,9.9c-1.3,3.2-2.7,6.2-4.5,9.1c-3.6,5.8-9.2,10.3-12.5,16.2
					c-3.6,6.4-2.1,13.6,1.3,19.7c1.4,2.4,4.3,2.4,6.2,0.8c2.5-2,4.8-3.3,5.7-6.4c0.7-2.3,1.6-4.5,2.8-6.6
					c3.2-5.9,8.3-10.6,14.6-12.9c8.7-3.1,19.2-2.4,27.9,0.2c7.7,2.3,14.5,7.1,21.2,11.3c11.6,7.4,23.3,14.7,35.1,21.7
					c6.8,4,14,8.5,21.7,10.6c12.9,3.4,26.9,2.8,39.8-0.4c8-2,16-5,23.2-9.1c9-5.1,16.7-12.3,24-19.5c36.7-37.2,70.8-77.8,90.5-126.7
					c6.1-15,10.3-31,18.9-44.9c4.9-8,11.9-14.6,15.4-23.4c2.1-5.2,2.8-11.1,1.6-16.6c-0.8-3.9-2.9-7.5-4.5-11.2
					c-2.5-5.9-3.9-12.2-4.8-18.5c-0.5-3.9-0.3-9.1-3.3-12.2c-2.8-2.8-6.6-2.5-9.8-0.7c-4.8,2.6-8.8,5.7-14,7.5
					c-3,1-11.2,4.5-12.9,0.1c-1.8-4.7,1.1-11.8,3.1-16c5.2-11.1,14.6-17.4,25.4-22.4c6.1-2.8,12.6-4.7,19.3-5.8
					c1.3-0.2,2.4-1.6,2.8-2.8c1.7-5.9,2.6-12,2.5-18.1c-0.1-6-1.6-11.9-2.8-17.8c-1.9-8.7-2.1-17.6-2.7-26.5
					c-0.9-14.1-0.6-28.4-2.1-42.4c-1-9.2-2.7-18.1-5.6-26.9c-2.4-7-3.1-13.5-2.2-20.9c1-8.5,5.3-15.2,8.3-23
					c3.4-8.6,2.5-18-0.1-26.7c-3-10.6-6.3-20.4-4.2-31.7c1.2-6.2,1.6-11.8-0.5-17.8c-3.2-8.8-8.5-16.9-13.3-24.9
					c-4.2-7-8.1-14.1-12.7-20.9c-2.8-4-6.2-8-8-12.6c-1.8-4.7-1-9.4,0.4-14.1c3.2-10.9,6.8-21.6,10.3-32.4c1.9-6,4.2-11.6,6.8-17.4
					c3.3-7.3,6.5-15.9,12.9-21.1c8.4-6.8,19.7-8.6,30.2-8.3c8.8,0.3,17.8,1.7,25.7,5.9c10.2,5.4,17.6,13.5,21.3,24.5
					c3.5,10.4,9.4,20.1,19.8,24.8c4.3,1.9,10.6,1.7,14.1,5c3.7,3.5,4.4,11.1,4.5,15.8c0.3,8.8-3.2,17.3-1.1,26.1
					c1.9,7.7,4.8,15.3,6.6,23c2.8,11.1,5.1,22.4,7,33.7c0.3,1.6,0.6,3.2,0.7,4.8c0,0.5,0.1,1,0.1,1.6c0,0.6-0.1,1.3-0.1,0.9
					c-0.5,3-2.2,5.8-3.8,8.5c-5,8.8-10.5,17.1-15.2,26c-5.1,9.8-12.4,18-19.6,26.2c-6,6.9-13.4,13.9-16.6,22.6
					c-2.6,6.9-2.2,14.6-4.8,21.6c-4,10.9-11.2,19.6-18.3,28.5c-5.8,7.3-9.6,15.8-10.6,25.2c-0.9,8.3,1.5,16.4,1.8,24.6
					c0.4,12-2,24-6.2,35.2c-1.3,3.5-2.9,6.8-4.4,10.3c-1,2.4-2.3,5-2.4,7.6c-0.1,5.7,5.6,7.3,10.2,5.9c6.2-1.9,11.9-6.1,17.1-9.8
					c27.9-20.3,51.3-45.9,77.6-68.1c8.3-7.1,16.8-13.9,25.3-20.7c1.6-1.3,1.4-4.2,0-5.6c-8.2-7.7-15.1-16.4-20.3-26.2
					c-2.2-4.2-4.8-8.5-5.7-13.2c-0.5-2.7-0.2-5.4-0.1-8c0.1-4.8,0.4-9.8,0.1-14.6c-0.2-3.7-2.3-8.6-1-12.3c1.8-5,6.8-5.8,10.4-8.8
					c3.8-3.3,3.6-6.8,4.8-11.2c0.7-2.7,2.7-4.3,4.6-6.2c2.1-1.9,3.9-4.2,5.4-6.6c3.1-4.9,6.1-8.5,11.1-11.7c1.6-1,2.2-2.7,1.8-4.5
					c-2.8-15.5-6.2-30.8-9.8-46.1c-2.6-11.1-5.4-22.1-9.3-32.9c-4.5-12.5-10.4-24.2-13.4-37.2c-2.4-10.3-3.3-20.7-6.3-30.8
					c-7.4-25.8-23-52.6-49.4-62.3c-18.8-6.9-40.2-5.7-59.4-1.1c-20.9,5-43,16.4-56,34c-5.3,7.1-8.2,16.4-10.9,24.8
					c-1.6,4.8-2.8,9.7-3.8,14.7c-1.7,9.1-3,18.3-4.5,27.4c-2.1,13.2-5.9,27.2-4.8,40.7c0.5,6.7,2.2,13.2,4.9,19.4
					c0.4,1.1,1.4,2.4,1.6,3.6c0.2,1.2-0.1,3.1-0.1,4.5c0,4.2-0.1,8.4-0.2,12.6c-0.4,12-1.4,23.9-3.8,35.7c-1.4,7-3.3,14-6.5,20.4
					c-2,4.2-3.9,7.1-6.7,10c-5.9,5.9-13.6,10.6-20.5,15.2c-5.7,3.9-11.5,7.7-17.1,11.7c-5.4,3.9-11.4,7.7-15.6,12.8
					c-4.2,5-6.2,11.1-5.9,17.5c0.4-1,0.7-1.9,1.2-2.8c-9.9,12.6-20.9,23.6-32.2,34.8c-4.2,4.2-9,8.9-10.3,14.9
					c-1.5,6.5,3.3,11.4,2.7,17.6C247.8,482,255.7,482,256.1,476.9z"/>
			</g>
		</g>
		<path class="st7" d="M375.9,152.8c10.6-8.3,26.7-18.5,47.9-25.3c42-13.3,78.4-4.9,94.1-0.2c1.9-12.6,3.1-21.8,3.9-27.7
			c1.4-10.9,2.2-17.2,6.8-20.1c1.8-1.1,4.7-2.1,7.3-5.4c1.2-1.5,1.3-2.1,3-5.6c3.5-6.7,5.5-8.6,4.8-9.4c-1-1.1-5.1,3.1-12,3.1
			c-1.6,0-3.7-0.4-8-1.2c-5.5-1-7.3-1.7-8.4-0.7c-1,1-0.4,2.5,0.2,6.5c0.7,5.4,1.1,8.1,0.3,10.6c-1.8,5.8-9.1,8-9.5,8.2
			c-6.9,2-14.9-1.2-18.8-7.4c-3.1-5.1-2.5-10.3-2.2-12c9.2-1.1,15.9-4.6,16.4-8.5c0.1-0.7,0-1.9-0.4-3.1c-1.1-3.1-3.6-3.6-5.7-5.9
			c-3.3-3.5-1-5.9-4.5-11.4c-1-1.7-3.8-5.9-7.1-5.8c-1.9,0.1-3.3,1.6-6.3,4.8c-3.5,3.7-3,4.4-4.9,5.7c-3.6,2.4-6,0.5-8.7,3
			c-0.1,0.1-2.3,2.2-2.2,5.2c0,1.1,0.4,2.9,4,6.6c5.1,5.1,7.6,5.1,8.1,7.4c0.8,3.9-5.6,8.3-8,10c-4.9,3.4-11.5,7.9-18.9,5.6
			c-7-2.2-12.1-9.7-12.6-18.7c5.2,0.2,9.6-3,10.5-7.3c0.7-3.6-1.1-7.7-4-9.1c-2.2-1.1-3,0.1-5.1-0.7c-3.9-1.8-2.4-7.2-6.8-11.4
			c-2.2-2.1-5.9-4-9-2.9c-2.4,0.9-3.6,3.3-5.2,6.8c-2,4.2-1.3,5.6-3.5,8.1c-1.6,1.9-2.5,1.6-4.1,3.9c-0.8,1.2-2.5,3.3-2.2,5.9
			c0.2,2.2,1.8,3.6,3.6,5.4c1.6,1.5,4.6,3.7,9.1,5.1c0.4,1.6,1.9,7.8-1.4,14c-0.7,1.3-3.1,5.6-7.3,6.8c-5.7,1.6-13.5-3-18-12
			c1.1-4.7,3-7.3,4.5-8.8c0.7-0.7,1.8-1.6,1.9-2.9c0.1-1.9-2.1-3.5-3-4.1c-3.9-2.8-6-0.8-10-2.9c-3.6-1.9-3.1-4-7.2-5.9
			c-1.6-0.7-4.2-1.9-6.4-0.7c-2.8,1.4-3.3,5.6-3.6,7.8c-0.4,3.6,0.7,3.8,0.2,7.1c-0.6,4.4-2.6,4.8-2.6,8.4c0,0.5,0.1,5,2.8,6.6
			c2.8,1.6,5.4-1.3,8.6,0.1c3.6,1.6,4.3,6.8,4.4,7.2c0.9,7.3-6.4,12.4-7.3,13c-1,0.7-7.7,5.2-11.7,2.3c-1.8-1.3-3.1-3.9-2.8-6.3
			c0.4-2.3,2.2-3,2.1-5.2c-0.1-1.3-0.9-2.9-2.2-3.6c-2.2-1.2-3.9,1-8.5,1.7c-2,0.4-4.9,0-10.6-0.7c-6.2-0.7-7.3-1.3-8-0.4
			c-1.6,1.9,2.2,7.6,5.1,12c3.6,5.4,5.8,6.5,7.3,7.1c2.3,0.9,4.4,0.9,5.8,0.8C358.5,122,367.2,137.5,375.9,152.8z"/>
		<path class="st2" d="M82.9,840.7c-13.5,10.4-23.2,19.7-29.8,26.5c-12.3,12.8-10,13.3-19.3,21.5c-5.3,4.7-9.4,7.5-8.7,10.3
			c0.9,3.4,8.8,5.1,15.5,4c11.9-2,18.6-12.9,19.5-12c1,0.7-6.5,9.7-12.8,21.8c-4.6,8.8-3.6,9.6-12,33.7c-6.9,19.8-9.8,25.7-6.6,29.6
			c2.2,2.6,5.9,3.2,14.5,2.5c21.8-1.6,38.2-8.1,42.1-9.7c21.9-9,32.9-13.5,37.5-18.6c12.6-14,13.8-33.3,14.9-53.8
			c0.7-11.1,0-20.4-0.7-26.8c2.5-0.7,6.3-2.3,8.8-5.9c6.8-9.5-2-24.2-3-25.7c-6.3-10.1-16.4-13.7-23.3-16.1
			c-7.2-2.6-12.9-4.5-18.9-2.2c-6.4,2.5-10.6,8.7-14.1,14C85,836.6,83.7,839,82.9,840.7z"/>
		<path class="st2" d="M675.5,719.1c-3.7,1.3-9.2,2.9-16,3.1c-11.7,0.4-17.2-3.6-30.2-7c-12-3.1-34-6.6-38-0.4
			c-1.2,1.9-1.5,5.7,6.6,14.8c-8.8,1.4-23.6,4.8-38.4,14.6c-8.5,5.6-28.8,18.9-26.4,33.1c2.1,12.6,20.6,19,33.3,23.5
			c5.1,1.8,44.7,15,81.2-0.8c14.2-6.2,29.7-17.6,35.4-21.8c5.9-4.3,10.5-8.1,13.8-10.9c1-4.2,2.7-13.8-1.4-24.8
			C690.2,728.7,679.3,721.4,675.5,719.1z"/>
		<path class="st2" d="M288.7,1721.3c-15.3-11.9-37.8-14-54.8-4.7c-2.8,1.5-18.4,10-17.5,20.6c1.1,13.9,30.3,19.7,31.9,20
			c22.9,4.3,51.7-3.3,53.8-16.1C303.6,1732.8,293.2,1724.8,288.7,1721.3z"/>
		<path class="st2" d="M453.7,1753.4c1.7,3.6,4.7,8.8,9.7,13.5c18.1,17,45.2,12.3,52.7,11c6.2-1.1,20-3.6,32.6-14.6
			c4.9-4.3,8.3-8.6,10.5-11.9c-3.7-2.2-9.3-5.4-16-9.5c-14.8-9-15.8-10.2-19.8-11.9c-13.5-5.6-27.1-1.9-34.2,0
			C469.9,1735.2,458.2,1747.8,453.7,1753.4z"/>
		<path class="st8" d="M362.2,120.4c10.5-5.9,22.8-11.7,36.9-16.4c48.5-16.3,92.3-11.2,118-5.8"/>
		<circle class="st8" cx="345.7" cy="100.6" r="5.1"/>
		<circle class="st8" cx="380.8" cy="69.3" r="5.1"/>
		<circle class="st8" cx="424.6" cy="53.8" r="5.1"/>
		<circle class="st8" cx="481.7" cy="53.8" r="5.1"/>
		<circle class="st8" cx="528.2" cy="71.2" r="5.1"/>
		<circle class="st8" cx="374.1" cy="133.7" r="5.9"/>
		<circle class="st8" cx="402.8" cy="121.2" r="5.9"/>
		<circle class="st8" cx="435.9" cy="110.4" r="5.9"/>
		<circle class="st8" cx="476.1" cy="107.4" r="5.9"/>
		<circle class="st8" cx="509.4" cy="112.2" r="5.9"/>
		<path class="st0" d="M574.8,446.4c-25.9-22.1-31.6-36-31.4-44.8c0.1-3.8,1.2-9.7,0.1-19.6c-1-9.4-3-12.3-0.9-16.6
			c2.8-5.5,8-4.2,12.1-11c2.5-4.2,0.8-5.4,3.7-10.6c2.5-4.7,3.9-3.8,8.8-10.3c3.7-5,3.9-6.8,7.6-10.3c1.7-1.6,2.8-2.4,5.9-4.5
			c13.5-9.2,12.6-9.2,14.6-10c3.4-1.4,9-0.7,19.8,0.6c8.3,1,7.7,1.3,21.1,3.5c14,2.2,16.9,2.2,20.6,5.2c3.3,2.7,2.6,3.9,7.9,9.7
			c5.9,6.5,7.4,5.6,11.4,10.2c5.7,6.5,9.4,15.9,9.5,24.8c0,4-0.7,5.9-0.2,11.7c0.4,5.1,1.3,7,2.1,11.6c1.6,8.4,2.8,14.6,0.6,21
			c-2.2,6.8-5.6,6-9.5,14.9c-3.3,7.6-1.3,9.3-4.2,13.5c-1,1.5-3.6,4.7-18.4,9.3c-2,0.7-20.5,6.5-21.5,4.2c-0.5-1.3,5.7-3,11.4-9.7
			c6.5-7.7,3.5-12,9.9-21.9c6-9.4,11.6-10.3,11.2-15.5c-0.4-5.4-6.4-6.1-8-13.8c-1-4.5,1-5.1,0.2-11.1c-0.6-4.8-2.8-12.5-6.8-13.2
			c-2.7-0.5-3.4,2.6-6.3,2.5c-5-0.1-6.4-8.9-16.3-18.8c-4.5-4.5-6.5-4.9-7.1-5.1c-5.6-1-7.7,4.5-15,5.1c-7.1,0.7-10.3-4.1-13.5-1.9
			c-3.6,2.5-0.4,9-4.8,13c-2.6,2.3-4.4,0.6-8.6,3.2c-5.7,3.4-7.7,9.4-7.9,10.2c-1.6,5.3,1,6.4-0.2,11.1c-1.9,7.1-8.7,7.1-11.3,13.8
			c-1.9,5-0.1,9.9,2.2,15.7c4.8,12.3,12,14.7,12.9,24.2C576.6,440.6,575.6,444.2,574.8,446.4z"/>
		<path class="st9" d="M557.8,454.3c1.9,4.2,5.9,11.2,13.1,17.3c14.3,12.2,31.3,12.1,37.1,11.7c24.4-1.5,38.6-19.3,40.8-22.2
			c5.1,0.3,13.1,1.4,21.8,5.2c9.7,4.2,15.7,9.7,26.2,19.6c8.2,7.7,13.8,12.9,19.8,21c11.2,14.9,9.1,19.3,22.7,39
			c9.1,13.2,14.4,17.5,16.9,19.3c5.8,4.4,15.3,9.8,16.6,10.6c5.5,3.2,11.1,6,15.5,12.4c1,1.5,3.8,5.4,2.5,6.9
			c-1.3,1.6-5.9-0.2-6.5-0.4c-1.4-0.3-12.9-2.2-20.3,5.3c-0.7,0.7-7.1,7.4-4.8,13.5c1.3,3.8,5.2,5.4,9.6,7.3c3.3,1.4,9.1,3.3,17,3
			c-0.2,5.6-1.3,13.8-5.1,22.9c-5.8,13.5-15.4,16.1-23.1,28.1c-3.9,6.1-8.4,16-8.9,31.2c-6.3,4-15.2,8.6-26.5,11.8
			c-18.6,5.2-34.6,3.8-43.9,2.2c-8.5,3.3-15.3,3.6-20,3.4c-8-0.4-10.3-2.7-34.3-10c-3.6-1-10.5-3-19.3-2.3
			c-4.4,0.4-8.8,0.8-10.5,3.7c-2.2,3.7,0.4,10.4,6.7,16.6c-4.3,0.7-10.4,2.2-17.3,4.8c-7.7,2.9-20.3,7.6-31,19.3
			c-7.6,8.2-14.9,16.1-13.7,24.2c3,19.7,56.4,36.8,100.4,23c12.7-4,22.5-10,29.1-14.7c2,13.1,4.5,23.6,6.4,31.1
			c3.6,14,6.5,21.9,2.5,27.6c-2.8,4-6.8,3.9-9.6,9.7c-1.2,2.5-1,3.7-2,8.4c-1.5,7.6-3.5,13.3-3.8,14c-0.8,2.2-5.1,10.9-33.1,13.5
			c-3.9,3.9-9.9,9.2-18.1,14.3c-8.3,5.2-18.1,11.4-31.5,13.2c-15.8,2-28.8-3-35.9-6.7c2.3-2.6,5.6-7.1,7.5-13.6
			c1.2-4,1.9-6.6,1.3-9.7c-1.3-5.7-6.5-7.2-17.2-15.2c-7.8-5.8-16.1-11.9-14.8-16.3c0.7-2.5,3.9-2.2,8.8-8c0.7-0.9,2.2-2.7,3.6-5.1
			c2.5-4,4.2-7,3.3-9.7c-1-3.2-4.8-4-11.3-6.2c-16.4-5.8-16.6-9.4-28.2-11.3c-3-0.5-7.7-1-13.5-0.7c-0.2,0.1-0.4,0.1-0.8,0.1
			c-3.3-0.5-4.5-10.3-4.8-13.1c-1.8-12.6-9-20.1-13.6-30c-12.8-27.2-1-61.6,0.1-64.4c3.4-9.5,11.2-31.5,30.7-41.5
			c6.2-3.1,8.8-2.8,14.5-7c12.9-9.8,16.6-25.5,18.5-33.6c2.3-10,0.8-12,2.6-27.5c1.5-12.6,3.8-22.8,5.6-29.6
			c-7.7,7.1-15,13.4-21.9,19c-5.7,4.6-13.4,10.6-22.7,17.2c-6.5,4.6-14.1,10-20,13.5c-8.7,5.1-24.3,11.8-49.1,12.2
			c0.4-2.8,0.7-7.4-0.7-12.6c-2.2-8.4-6.9-11.1-9.6-18.7c-1.3-3.7-2.5-9.6-0.7-18.1c4.1-1.6,10.8-4.1,19.2-6.8
			c11.4-3.6,14.6-3.8,16.5-7.1c3.1-5.8-0.1-17.2-6.8-22.6c-1.7-1.3-3.9-2.7-3.6-3.9c0.3-1.5,3.7-1.7,8.6-2.4
			c7.1-1,12.6-2.5,14.2-2.9c7.8-2.2,12.5-7.7,15.3-10.7C483.4,518.3,514.1,491.5,557.8,454.3z"/>
		<path class="st9" d="M485.6,821.9"/>
		<path class="st5" d="M523.7,643.3c4.5-2,11.5-5.1,20.4-8.6c44.6-17.8,66.9-26.7,87.3-22c16.4,3.7,19.3,11.7,45.6,17.3
			c10,2.2,18.4,2.9,24.2,3.2"/>
		<path class="st5" d="M578.3,659.4c-11.9,21.1-25.6,33.7-36.9,41.5c-21.5,14.9-33.8,12.1-42.8,26.9c-4.5,7.4-3.5,11.6-8.6,49.3
			c-1.6,11.4-3,20.7-3.9,26.5"/>
		<path class="st5" d="M489.8,535.9c3.6,5.6,10.1,17.8,11.1,34.7c1,15.9-3.4,28.2-6,34.3"/>
		<path class="st5" d="M572,500c-1.6,11.5-3.9,23.5-6.7,36c-8.7,38.1-21.4,70.7-34.5,97.5"/>
		<path class="st5" d="M565.2,612.3c6.7-10.5,13.7-23.1,19.9-37.9c11.6-27.6,16.2-52.9,18.1-72.1"/>
		<path class="st5" d="M622.4,598.1c0.1-11.8,0.9-24.9,2.8-39c3.5-26.5,10-49.2,16.6-67.4"/>
		<path class="st5" d="M557.5,486l-16.9,54.7"/>
		<path class="st5" d="M675.7,507.1c-0.8,10.9-1.3,27.9,1.4,48.2c3.3,24.5,8.3,61.2,36.2,91.5c7.4,8,21,20.6,43.1,30.3"/>
		<path class="st5" d="M745.5,576.6c-3.6,7-7.8,17.5-9.2,30.6c-2.9,27.6,8.5,48.7,13.3,56.4"/>
		<path class="st5" d="M704.9,601.1c-5.3-18.1-0.3-34.9,10.5-40.8c2.2-1.2,7-3.3,14.6-2.1"/>
		<path class="st5" d="M572.8,633.1c11.4-1.2,28.8-1.5,47.6,5.6c25.4,9.6,33.4,25.3,61.9,42.5c10.9,6.5,27.7,15.1,51.2,21"/>
		<path class="st5" d="M491.6,807.4c8.9-5.9,20.7-15.2,31.8-29c14.3-17.7,21.4-35.2,25-46.7"/>
		<path class="st5" d="M536.1,839.9c8,2.4,19.3,6.2,32.3,11.9c21.9,9.6,31.4,17.2,40.1,12.9c5.3-2.8,8.3-9.1,12-16.7
			c2.8-5.9,4.2-11.1,5-14.9"/>
		<path class="st5" d="M553,887.5c15.1,12,25.2,12.7,31.6,11.4c10.5-2.3,11.3-10.4,25.9-17.1c14.9-6.8,21.6-1.9,30.1-7.9
			c6.4-4.5,12.9-14.4,12-39.2"/>
		<g>
			<path class="st10" d="M45.3,979.8c-2.1,0-4.7,0.1-7.2-0.3l0,0c5.7,1.5,10.6,0.7,13.5,0.1C49.9,979.1,49.1,979.7,45.3,979.8z"/>
			<path class="st10" d="M144.1,1096.5c-3.4-34.6-13.2-69-11.1-103.7c0.8-14.6,3.3-37.5-10.6-55.2c-1.9-2.4-7.6-9.4-17.4-13.8
				c-14-6.2-27.7-2.8-43.9,0.4c-9.9,1.9-18.2,5-24.8,7.9c-8.1,17.3-18.4,44.7-20.1,79.5c-1,20.7,1.9,31.1,2.5,55.4
				c0.6,20.6-0.3,51-8.1,88.9c-0.8,2.3-1.6,4.5-2.5,6.8c9.4,3.8,19.7,7.5,30.8,10.9c10.1,3,19.7,5.5,28.7,7.5
				c4.4-23.8,4.6-42.9,3.9-56.3c-0.7-12.5-2.2-20.5-2.6-39.8c-0.4-20.7,1.1-18.8,0.4-33.2c-1.4-27-6.2-22.1-10.1-53.5
				c-0.7-5.3-1.9-16.7-7.7-18.6c-0.4,4.4-0.9,10.8-0.9,18.6c0,4.7,0.1,14.4,3.3,36.6c1.3,9.4,3.3,21.6,6.2,35.8
				c-3.3,0.9-7.9,1.8-13.2,1.7c-9.1-0.1-16.1-3-20.1-5c1.3-7.2,2.3-14.8,3.2-22.6c2.8-24.6,2.9-47.3,1.7-67.6
				c-4.3-4.3-0.1-14.9,3.7-24.8c3.6-9.4,5.5-14,8.9-17.8c13.8-15.2,46.1-15.5,60.9,0c6.2,6.5,8,14,8.5,17.7
				c6.2,35.2-8.6,61.5-16.6,102.6c-4.2,21.5-4.9,45.8-6.2,94.2c-0.5,19.9-0.5,36.7-0.4,49.3c7.7,1.6,22.8,3.4,40.3-2.1
				c10.6-3.3,18.6-8.4,23.9-12.3C149.4,1146.7,146.1,1116.6,144.1,1096.5z M117.9,1097.7c-5.1-0.4-9.6-1.2-13.4-2.2
				c0.7-8.1,1.6-19,3-31.7c3.5-33.1,5.3-49.6,7.3-58c1.9-7.7,4.8-18.1,5.1-33.2c0.1-5.6-0.1-10.3-0.4-13.3
				c5.8,45.9,11.6,91.6,17.4,137.5C131.9,1097.6,125.4,1098.3,117.9,1097.7z"/>
		</g>
		<path class="st10" d="M765.7,603.1c3.6-2.8,9.4-4.8,15.3-5.1c5.9-0.2,10.6,1.4,13,2.5c-1.8-1.9-4.8-4.5-9.4-5.9
			c-10.7-3.4-20.4,3-22,4c-8.5,5.6-10.4,13.8-16.9,33.4c-4.1,12.3-8.9,24.4-13.1,36.6c-3.9,11.4-10,28.2-18.6,48.5
			c0.4,24.5,0.9,48.9,1.3,73.4c10.9,2.5,25.9,4.5,43,2.1c5.1-0.7,9.8-1.7,14.1-2.9c-0.1-13.6-0.6-25.3-1-34.6
			c-1-20.5-2-30.3-2.8-35.8c-0.7-5.3-1.3-9-1.9-12.8c-6.1-39.5-7.8-55.1-8.2-71.1C758.4,614.3,760.6,607.2,765.7,603.1z
			 M756.9,684.7c0.6,10.5,1,19.1,1.1,24.6c-5.3,0.4-11,0.6-17.1,0.5c-5.5-0.1-10.6-0.4-15.5-0.8c10.9-33.8,21.9-67.6,32.9-101.5
			c-2.7,13.8-3.4,25-3.6,32.6C754.4,652.7,755.5,660,756.9,684.7z"/>
		<path class="st11" d="M101.2,1111.5c-1.5,14.6-2.2,31.4-1.3,49.9c0.5,10.1,1.5,19.5,2.8,28.4c14.8-2.8,29.6-5.4,44.4-8.2
			c-2.1-12.6-3.9-25.9-5.3-40.1c-1.1-11-1.9-21.6-2.3-31.7C126.7,1110.4,114,1111,101.2,1111.5z"/>
		<path class="st11" d="M722.2,781.6c12.3,0.1,24.5,0.1,36.7,0.1c-0.4-20.1-0.9-40.3-1.3-60.4c-11.7-0.1-23.3-0.1-35-0.2
			C722.4,741.4,722.3,761.5,722.2,781.6z"/>
		<path class="st10" d="M785.2,626.3c-2.4,13-5.4,32.3-7.5,56.1c-1.9,22.1-2.3,39.2-2.9,72.2c-0.2,14.9-0.4,35.2-0.3,59.6
			c13.9-5,27.8-10,41.7-15c-0.6-24.2-1.1-48.3-1.7-72.5c-1.1-16.5-2.9-34.3-5.7-53.2c-2.9-19.3-6.5-37.1-10.3-53.5
			c-1.6,0.9-3.3,1.8-4.9,2.7c3.5,14.3,6.8,30,9.3,46.8c2.9,19.1,4.5,36.9,5.4,53.2c-8.5,4.7-16.9,9.4-25.4,14.1
			c-0.4-5.2-1-13-1.1-22.5c-0.1-16.3,1.3-26.8,4.2-54.3c0.9-8.2,2.2-20.8,3.8-36.4C788.1,624.5,786.7,625.4,785.2,626.3z"/>
		<path class="st11" d="M784.2,748.1c0.3,17.7,0.6,35.3,0.8,53c7.5-4.1,14.9-8.2,22.4-12.3c-0.5-17.4-1-34.7-1.6-52.1
			C798.7,740.6,791.4,744.3,784.2,748.1z"/>
		<path class="st9" d="M318.1,804.9c8,24.6,18,64.1,37.1,102.6c40.5,81.7,75.4,142.6,107.3,179.2c35.4,40.7,86.6,92.7,156.2,144.3
			c3.5-24.9,6.5-51.5,8.4-79.7c1.6-23.8,2.5-46.5,2.8-68c-46.7-32.6-110.7-100.6-169.9-193.9c-42.8-67.6-59.2-154.8-71.9-202
			c-4.8,11.1-23.7,56.4-32,68.5C339.3,780.8,334,786.9,318.1,804.9z"/>
		<path class="st10" d="M436.6,583.3c-0.8-12.8-0.9-20.9-7-26c-0.7-0.6-4.9-4.1-9.5-3.2c-4,0.7-6.8,4.5-9.7,10.8
			c-4.7,9.9-7.1,14.8-7.9,25.1c-0.9,11.4-5.1,30.2-19.1,63c-0.5,24.7-1.1,49.3-1.6,74c17.9,1.1,35.8,2.2,53.8,3.3
			c2.5-34.2,3.9-60.1,4.6-76.7c0.2-5.7,0.7-15.9,0.3-29.4C439.9,603.3,438.3,609.1,436.6,583.3z M431.8,651.6
			c-12.7-0.2-25.4-0.5-38.1-0.7c1.4-2.8,3.5-7.2,5.7-12.7c6.8-17.2,12-29.8,11.2-45.3c-0.3-5.6-1.3-11.1,0.6-19.5
			c2.1-9.3,5.4-11.6,6.8-12.4c2.8-1.6,7.3-2.1,9.9,0.1c1.1,1,1.8,2.2,2.5,5.3c1.1,4.8,1.6,7.3,1.1,12.1c-0.9,8.3,1.4,14.3,2.3,27.4
			C434.5,614.9,434.7,629.6,431.8,651.6z"/>
		<path class="st11" d="M389.7,659.4c0,20.4-0.1,40.9-0.1,61.3c13.1-0.1,26.2-0.3,39.2-0.4c0.5-20.3,1.1-40.7,1.6-60.9
			C416.9,659.4,403.3,659.4,389.7,659.4z"/>
		<path class="st11" d="M63.3,1089.7c1.5,14.6,2.2,31.4,1.3,49.9c-0.5,10.1-1.5,19.5-2.8,28.4c-14.8-2.8-29.6-5.4-44.4-8.2
			c2.1-12.6,3.9-25.9,5.3-40.1c1.1-11,1.9-21.6,2.3-31.7C37.8,1088.6,50.6,1089.1,63.3,1089.7z"/>
		<path class="st10" d="M314.6,808.5c10.1-13,20.2-25.9,30.3-38.9c4.8,22.4,12.7,53.8,25.9,90C412.1,971.8,474.3,1047,507.7,1083
			c26.2,28.2,64.8,65,117.7,100.4c-2,16.7-4,33.4-6.1,50.2c-10.7-7.4-21.4-15.2-32-23.3C442.3,1098,361.1,946.1,314.6,808.5z"/>
		<path class="st1" d="M364.9,736.3c-6.6,11.1-13.2,22.2-19.9,33.3c2.2,10.4,5.5,24.6,10.2,41.3c17.5,62,41.4,112,61.8,147.9
			c23.8,41.9,71.1,114.5,151.8,182.1c22.6,19,42.7,33.1,56.7,42.5c1.5-16.4,2.9-32.9,4.4-49.2c-22.8-14.8-51.1-35.4-80.9-63.3
			c-45.3-42.6-72.1-81.8-78.5-91.3c-25.2-37.5-38.4-69-63.8-130.7C389.2,806.7,375.5,768.6,364.9,736.3z"/>
	</g>
	<g>
		<path class="st5" d="M387,245.1c-1.6,6.2-3.9,15-6.2,25.8c-9.9,45.9-15.4,71.5-6.7,96.1c3.6,10.1,12.6,28.9,39,46"/>
		<path class="st5" d="M396.3,257.8c-1.8,13.6-2.4,25-2.5,33.1c-0.3,16.4-0.6,41.8,8.5,71.7c3,10,6.2,17.8,8.5,22.9"/>
		<path class="st5" d="M351.1,399.9c10.6,6.2,25,16.2,38.6,32c19.1,22,27.6,44.6,31.4,58"/>
		<path class="st5" d="M313.4,383.4c2.5,9.3,6.2,21.6,12.1,35.7c3.8,8.9,12.8,29.1,25.3,46.7c23.2,32.7,54.9,52,75,61.9"/>
		<path class="st5" d="M172.9,664.1c6.2-3,14.8-7.5,24.8-13.3c51.7-30.2,84.1-65.3,97.5-80.8c40.3-46.6,45.1-54.9,44-62.9
			c-1.3-9.4-6.8-15.6-14.4-41.2c-3.3-10.9-5.3-19.9-6.5-25.7"/>
		<path class="st5" d="M356.9,434.7c5.9,10.3,13.6,21.9,23.3,33.8c15.2,18.7,30.9,32.4,44.1,42.3"/>
		<path class="st5" d="M141.2,717.5c8-6.5,20.7-16.6,37-27.8c47.9-33.1,72.5-39.1,110.2-67.8c11.5-8.8,27.9-22.4,45.6-42.1"/>
		<path class="st5" d="M207.5,691.1c-18.3,9.7-38.5,21.4-36.9,25.6c1.3,3.5,16.7,0.5,23-0.7c39.6-7.6,67.2-29.1,76.5-36.8
			c7.4-6.2,17.4-15.5,27.6-28.5"/>
		<path class="st5" d="M99.5,804.9c8.3-3.9,20.7-9.7,36.4-15.7c41-15.8,64.1-18.5,86-25.6c33.4-10.8,53.4-28.2,89.6-59.5
			c26.3-22.7,63.8-60.5,97.1-117.3"/>
		<path class="st5" d="M169.6,812c5.5,5.6,15.3,14.2,29.7,18.3c8.2,2.4,24.5,5.3,52.8-6.2c38.1-15.4,62.2-42.3,73.6-56
			c43.9-52.4,70.5-110.6,86.3-154.8"/>
		<path class="st5" d="M516.9,126.3c0.3,1.6,0.7,3.8,1.1,6.4c1.6,11.4,1,20.8,0.4,25.9c-0.6,5.1-1.7,11.7-4.1,19.2"/>
		<path class="st5" d="M547.7,210.8c-3.4,6.5-7.5,16.8-5.9,28.5c1.8,13,9.3,18.5,16,34c3.2,7.5,7,19,7.7,34.8"/>
		<path class="st5" d="M549,305.6c0.8,7.4,1.3,18.7-2.2,31.5c-5.9,21.9-19.6,36.1-34.6,51.5c-9.8,10.1-19.1,17.7-26.3,23.1"/>
		<path class="st5" d="M538.9,400.7c-5.2,5.1-13.2,12.6-23.6,21.3c-19.1,16.1-30.7,23.1-29.7,25.1c1.2,2.2,16.1-3,28.1-9.1
			c13.8-6.9,23.8-15,30.3-21"/>
		<path class="st5" d="M458.8,504c4.9-3.1,12.5-7.6,22-12.4c13.4-6.7,16.6-6.9,31.9-13.5c36-15.8,42.3-25.5,44.7-30.5
			c2.7-5.3,3.6-10.3,3.9-13.4"/>
		<path class="st5" d="M458.8,512.5c2.5,1.6,6.5,3.8,12,5c7.5,1.6,13.8,0.2,16.9-0.7"/>
	</g>
	<g>
		<path class="st5" d="M223,939.3c1.2,41.9,2.3,83.8,3.5,125.7"/>
		<path class="st5" d="M185.5,978.1c1.6,59.2,4,109.4,6.3,148c7,118.5,14.4,167.6,32.6,221c12,35.2,25.3,62.4,26.8,61.9
			c2.1-0.7-23.6-58.5-33.1-128.7c-7.7-57.5-2.2-106.9,4.5-142"/>
		<path class="st5" d="M138.4,1016.1c-2.5,31.8-0.1,56.9,2.2,72.5c12.2,84.7,58.4,164.4,39.5,200.5c-4.1,7.8-9.3,15.5-9.3,15.5
			c-13.2,19.3-24.1,26.2-30.4,34.5c-7.4,9.8-13.2,27.9-2.5,64.1"/>
		<path class="st5" d="M118.8,1317.1c2.8-4,9.9-13.1,22.7-18.4c9.6-4,18.1-4.2,22.9-3.9"/>
	</g>
	<g>
		<path class="st5" d="M687.5,926.8c2.2,41.8,0.7,76.5-1.3,101.5c-8.4,107.6-32.5,201.9-32.5,201.9c-4.2,16.4-13.8,51.8-11,98.6
			c0.9,14.9,2.8,27.1,4.2,35.2"/>
		<path class="st5" d="M651.5,1440.8c3.6-18.5,8.8-48.5,13.5-85.9c8.7-70,5.1-86.7,14-141.4c9-55.3,14.3-48.8,23.6-106.5
			c8.1-50.2,9.7-90.5,11.2-126.4c1.7-42.1,1.3-77.4,0.6-103.2"/>
		<path class="st5" d="M759.3,1245.4c-20.8-2.1-78.9-6.5-85.9,12.9c-3.6,10.2,6.3,28.1,18.8,31.7c7.4,2.2,12.3-1.8,23-4
			c9.4-1.9,23.4-2.5,42.1,4.3"/>
		<path class="st5" d="M751.8,707.9c0.4,21.9,1.6,44.8,3.7,68.6c6.9,76.3,22.2,143.7,40.1,200.8"/>
	</g>
</g>
<g>
	<g>
		<g>
			<path class="st0" d="M243.7,343c-1.4,0-2.8,0-4.2,0c-3.8,0-7.6,0-11.4,0c-5.6,0-11.2,0-16.9,0c-6.9,0-13.8,0-20.7,0
				c-7.5,0-15,0-22.5,0c-7.6,0-15.2,0-22.7,0c-7.1,0-14.2,0-21.3,0c-5.9,0-12,0-17.9,0c-4.3,0-8.6,0-12.9,0c-2,0-4.1,0-6.1,0
				c-0.1,0-0.1,0-0.2,0c-1.9,0-3.8,1.7-3.7,3.7s1.6,3.7,3.7,3.7c1.4,0,2.8,0,4.2,0c3.8,0,7.6,0,11.4,0c5.6,0,11.2,0,16.9,0
				c6.9,0,13.8,0,20.7,0c7.5,0,15,0,22.5,0c7.6,0,15.2,0,22.7,0c7.1,0,14.2,0,21.3,0c5.9,0,12,0,17.9,0c4.3,0,8.6,0,12.9,0
				c2,0,4.1,0,6.1,0c0.1,0,0.1,0,0.2,0c1.9,0,3.8-1.7,3.7-3.7C247.4,344.8,245.8,343,243.7,343L243.7,343z"/>
		</g>
	</g>
	<g>
		<polygon class="st0" points="243.7,327.3 243.7,366.9 270.6,347.1 		"/>
		<g>
			<path class="st12" d="M241.9,327.3c0,4.5,0,8.9,0,13.5c0,7.1,0,14.2,0,21.3c0,1.6,0,3.3,0,4.9c0,1.3,1.6,2.5,2.8,1.6
				c3-2.2,6-4.5,9.1-6.7c4.8-3.6,9.6-7.1,14.4-10.6c1.1-0.8,2.2-1.6,3.3-2.5c1.2-0.9,1.2-2.3,0-3.2c-3-2.2-6-4.5-9.1-6.7
				c-4.8-3.6-9.6-7.1-14.4-10.6c-1.1-0.8-2.2-1.6-3.3-2.5c-0.8-0.6-2.1-0.1-2.5,0.7c-0.5,1-0.1,1.9,0.7,2.5c3,2.2,6,4.5,9.1,6.7
				c4.8,3.6,9.6,7.1,14.4,10.6c1.1,0.8,2.2,1.6,3.3,2.5c0-1,0-2.2,0-3.2c-3,2.2-6,4.5-9.1,6.7c-4.8,3.6-9.6,7.1-14.4,10.6
				c-1.1,0.8-2.2,1.6-3.3,2.5c1,0.5,1.9,1,2.8,1.6c0-4.5,0-8.9,0-13.5c0-7.1,0-14.2,0-21.3c0-1.6,0-3.3,0-4.9
				C245.6,324.9,241.9,324.9,241.9,327.3z"/>
		</g>
	</g>
</g>
<g>
	<g>
		<g>
			<path class="st0" d="M280.5,94.6c-1.2,0-2.4,0-3.5,0c-3.2,0-6.4,0-9.6,0c-4.8,0-9.4,0-14.2,0c-5.8,0-11.5,0-17.3,0
				c-6.3,0-12.7,0-19,0c-6.4,0-12.8,0-19.2,0c-5.9,0-11.9,0-17.8,0c-5.1,0-10,0-15.1,0c-3.6,0-7.2,0-10.9,0c-1.7,0-3.4,0-5.1,0
				c-0.1,0-0.1,0-0.2,0c-1.9,0-3.8,1.7-3.7,3.7c0.1,2,1.6,3.7,3.7,3.7c1.2,0,2.4,0,3.5,0c3.2,0,6.4,0,9.6,0c4.8,0,9.4,0,14.2,0
				c5.8,0,11.5,0,17.3,0c6.3,0,12.7,0,19,0c6.4,0,12.8,0,19.2,0c5.9,0,11.9,0,17.8,0c5.1,0,10,0,15.1,0c3.6,0,7.2,0,10.9,0
				c1.7,0,3.4,0,5.1,0c0.1,0,0.1,0,0.2,0c1.9,0,3.8-1.7,3.7-3.7C284.2,96.3,282.6,94.6,280.5,94.6L280.5,94.6z"/>
		</g>
	</g>
	<g>
		<polygon class="st0" points="280.5,81.9 280.5,115.3 303,98.6 		"/>
		<g>
			<path class="st12" d="M278.7,81.9c0,3.8,0,7.5,0,11.3c0,5.9,0,12,0,17.9c0,1.4,0,2.8,0,4.2c0,1.3,1.6,2.5,2.8,1.6
				c6.6-4.8,13.2-9.7,19.8-14.6c1-0.7,1.9-1.4,2.8-2.1c1.2-0.9,1.2-2.3,0-3.2c-6.6-4.8-13.2-9.7-19.8-14.6c-1-0.7-1.9-1.4-2.8-2.1
				c-0.8-0.6-2.1-0.1-2.5,0.7c-0.5,1-0.1,1.9,0.7,2.5c6.6,4.8,13.2,9.7,19.8,14.6c1,0.7,1.9,1.4,2.8,2.1c0-1,0-2.2,0-3.2
				c-6.6,4.8-13.2,9.7-19.8,14.6c-1,0.7-1.9,1.4-2.8,2.1c1,0.5,1.9,1,2.8,1.6c0-3.8,0-7.5,0-11.3c0-5.9,0-12,0-17.9
				c0-1.4,0-2.8,0-4.2C282.4,79.6,278.7,79.6,278.7,81.9z"/>
		</g>
	</g>
</g>
<g>
	<g>
		<g>
			<path class="st0" d="M738.8,457.7c1.4,0,2.8,0,4.2,0c3.8,0,7.6,0,11.4,0c5.6,0,11.2,0,16.9,0c6.9,0,13.8,0,20.7,0
				c7.5,0,15,0,22.5,0c7.6,0,15.2,0,22.7,0c7.1,0,14.2,0,21.3,0c5.9,0,12,0,17.9,0c4.3,0,8.6,0,12.9,0c2,0,4.1,0,6.1,0
				c0.1,0,0.1,0,0.2,0c1.9,0,3.8-1.7,3.7-3.7c-0.1-2-1.6-3.7-3.7-3.7c-1.4,0-2.8,0-4.2,0c-3.8,0-7.6,0-11.4,0c-5.6,0-11.2,0-16.9,0
				c-6.9,0-13.8,0-20.7,0c-7.5,0-15,0-22.5,0c-7.6,0-15.2,0-22.7,0c-7.1,0-14.2,0-21.3,0c-5.9,0-12,0-17.9,0c-4.3,0-8.6,0-12.9,0
				c-2,0-4.1,0-6.1,0c-0.1,0-0.1,0-0.2,0c-1.9,0-3.8,1.7-3.7,3.7C735.2,456,736.7,457.7,738.8,457.7L738.8,457.7z"/>
		</g>
	</g>
	<g>
		<polygon class="st0" points="738.8,434.5 738.8,474.2 712,454.3 		"/>
		<g>
			<path class="st12" d="M737,434.5c0,4.5,0,8.9,0,13.5c0,7.1,0,14.2,0,21.3c0,1.6,0,3.3,0,4.9c1-0.5,1.9-1,2.8-1.6
				c-3-2.2-6-4.5-9.1-6.7c-4.8-3.6-9.6-7.1-14.4-10.6c-1.1-0.8-2.2-1.6-3.3-2.5c0,1,0,2.2,0,3.2c3-2.2,6-4.5,9.1-6.7
				c4.8-3.6,9.6-7.1,14.4-10.6c1.1-0.8,2.2-1.6,3.3-2.5c0.8-0.6,1.2-1.6,0.7-2.5c-0.4-0.8-1.7-1.3-2.5-0.7c-3,2.2-6,4.5-9.1,6.7
				c-4.8,3.6-9.6,7.1-14.4,10.6c-1.1,0.8-2.2,1.6-3.3,2.5c-1.2,0.9-1.2,2.3,0,3.2c3,2.2,6,4.5,9.1,6.7c4.8,3.6,9.6,7.1,14.4,10.6
				c1.1,0.8,2.2,1.6,3.3,2.5c1.2,0.9,2.8-0.3,2.8-1.6c0-4.5,0-8.9,0-13.5c0-7.1,0-14.2,0-21.3c0-1.6,0-3.3,0-4.9
				C740.7,432.2,737,432.2,737,434.5z"/>
		</g>
	</g>
</g>
</svg>
